<?xml version="1.0" encoding="utf-8"?>
<!-- Generator: Adobe Illustrator 24.1.1, SVG Export Plug-In . SVG Version: 6.00 Build 0)  -->
<svg version="1.1" id="Слой_1" xmlns="http://www.w3.org/2000/svg" xmlns:xlink="http://www.w3.org/1999/xlink" x="0px" y="0px"
	 viewBox="0 0 500 300" style="enable-background:new 0 0 500 300;" xml:space="preserve">
<style type="text/css">
	.st0{fill:#FFFFFF;}
</style>
<g>
	<g>
		<path class="st0" d="M199.22,50.85l-1.51-2.82l-3.02,1.05c-17.88,6.25-43.25,26.07-57.3,37.8c-4.07-2.91-8.44-5.41-13-7.44
			c-2.63-1.17-5.27-2.18-7.87-3c-7.26-2.3-14.83-3.46-22.49-3.46c-40.6,0-73.44,31.79-74.76,72.37l-0.02,0.53
			c-0.02,0.64-0.04,1.28-0.04,1.92c0,0.65,0.02,1.28,0.04,1.92l0.11,1.82h44.14c1.4,27.92,18.69,53.18,44.35,64.62
			c2.64,1.17,5.28,2.18,7.87,3c7.27,2.3,14.83,3.46,22.48,3.46c8.55,0,16.97-1.45,25.03-4.32c2.68-0.95,5.31-2.06,7.82-3.29
			c25.89-12.7,41.98-38.46,41.98-67.21c0-4.94-0.5-9.91-1.48-14.77C226.97,103.24,200.37,52.98,199.22,50.85z M205.19,131.8
			l-1.3-0.44c-6.16,10.03-18.41,15.12-36.42,15.12h-1.33v7.49h1.33c16.83,0,29.52-4.14,37.77-12.32c0.19,2.07,0.29,4.14,0.29,6.17
			c0,27.59-17.27,52.76-43.01,62.77c-6.7-2.04-13.02-5.1-18.79-9.11c-1.32-0.92-2.61-1.89-3.87-2.9
			c-15.97-12.89-25.13-31.99-25.13-52.41c0-16.3,5.95-32.04,16.65-44.23c6.6-5.86,40.17-35.15,62.71-44.59
			c2.73,5.64,9.45,20.5,12.77,36.32c-4.2,2.98-14.28,8.76-29.41,8.85l-1.33,0.01l0.05,7.49l1.33-0.01
			c14.52-0.09,24.98-4.8,30.73-8.26c0.54,4.37,0.71,8.48,0.51,12.26c-3.73,2.6-15.05,9.32-32.54,9.42l-1.33,0.01l0.05,7.49
			l1.33-0.01c13.79-0.08,24.13-3.71,30.96-7.25c-0.11,0.4-0.23,0.79-0.35,1.17c-0.75,2.32-1.69,4.44-2.81,6.3L205.19,131.8z
			 M94.03,80.47c4.7,0,9.44,0.5,14.08,1.49c2.5,0.54,5.05,1.24,7.58,2.1c5.4,1.84,10.53,4.36,15.3,7.5c-1.67,1.57-3.31,3.26-4.83,5
			l-1.67,1.66l0.12,0.13c-11.2,13.44-17.35,30.37-17.35,47.81c0,22.3,9.88,43.29,27.11,57.59c1.3,1.08,2.64,2.1,4.01,3.09
			c3.83,2.77,7.92,5.17,12.2,7.17c-8.71,1.63-17.73,1.52-26.46-0.34c-2.51-0.54-5.06-1.25-7.58-2.1
			c-25.89-8.82-44.05-32.82-45.56-60h21.34v-7.49H26.81C28.77,108.29,58.03,80.47,94.03,80.47z"/>
		<path class="st0" d="M50.17,113.66c-3.71,0-6.73,3.02-6.73,6.73c0,3.71,3.02,6.72,6.73,6.72c3.71,0,6.72-3.02,6.72-6.72
			C56.89,116.68,53.88,113.66,50.17,113.66z"/>
	</g>
	<g>
		<path class="st0" d="M277.63,245.39c-0.29,1.26-0.91,2.25-1.86,2.95c-0.95,0.71-2.09,1.06-3.41,1.06c-1.76,0-3.15-0.57-4.18-1.7
			c-1.03-1.13-1.54-2.59-1.54-4.36c0-1.82,0.53-3.32,1.59-4.51c1.06-1.19,2.41-1.78,4.04-1.78c1.7,0,3.04,0.58,4.03,1.75
			c0.99,1.16,1.49,2.75,1.49,4.77v0.27h-8.58c0.03,1.17,0.32,2.08,0.88,2.72c0.56,0.64,1.33,0.96,2.32,0.96
			c0.71,0,1.28-0.17,1.72-0.51c0.44-0.34,0.79-0.88,1.05-1.61H277.63z M275.22,242.12c-0.07-0.98-0.38-1.75-0.91-2.31
			c-0.53-0.56-1.22-0.85-2.06-0.85c-0.84,0-1.52,0.27-2.04,0.81c-0.52,0.54-0.84,1.32-0.96,2.34H275.22z"/>
		<path class="st0" d="M290.77,232.98v16.04h-2.41v-1.6c-0.74,1.28-1.97,1.92-3.72,1.92c-1.64,0-2.94-0.56-3.91-1.67
			c-0.97-1.11-1.45-2.61-1.45-4.48c0-1.86,0.48-3.35,1.43-4.45c0.95-1.1,2.23-1.66,3.84-1.66c1.64,0,2.87,0.61,3.7,1.82v-5.93
			H290.77z M285.02,239.15c-0.98,0-1.75,0.36-2.31,1.07c-0.56,0.71-0.84,1.69-0.84,2.92c0,1.28,0.29,2.28,0.87,3.02
			c0.58,0.74,1.37,1.1,2.38,1.1c1.01,0,1.79-0.36,2.35-1.08c0.56-0.72,0.85-1.72,0.85-3c0-1.28-0.29-2.27-0.87-2.97
			C286.87,239.5,286.06,239.15,285.02,239.15z"/>
		<path class="st0" d="M303.73,237.39v11.63h-2.41v-1.73c-0.98,1.37-2.25,2.05-3.83,2.05c-1.28,0-2.26-0.36-2.94-1.09
			c-0.68-0.73-1.03-1.78-1.03-3.14v-7.71h2.57v6.65c0,0.41,0.01,0.73,0.02,0.98s0.06,0.53,0.15,0.83c0.08,0.31,0.2,0.54,0.36,0.71
			c0.16,0.17,0.38,0.31,0.68,0.43c0.29,0.12,0.65,0.18,1.07,0.18c0.96,0,1.67-0.34,2.12-1.03c0.45-0.68,0.68-1.55,0.68-2.6v-6.15
			H303.73z"/>
		<path class="st0" d="M317,244.63c-0.18,1.43-0.75,2.57-1.71,3.41c-0.96,0.85-2.17,1.27-3.63,1.27c-1.74,0-3.13-0.55-4.17-1.66
			c-1.04-1.1-1.55-2.55-1.55-4.34c0-1.92,0.52-3.45,1.57-4.59c1.04-1.13,2.45-1.7,4.22-1.7c1.49,0,2.69,0.38,3.59,1.13
			c0.91,0.75,1.44,1.8,1.59,3.13h-2.55c-0.15-0.74-0.45-1.3-0.9-1.69c-0.45-0.39-1.02-0.59-1.71-0.59c-0.99,0-1.77,0.37-2.34,1.12
			c-0.57,0.74-0.86,1.76-0.86,3.05c0,1.29,0.27,2.3,0.82,3.02c0.55,0.72,1.31,1.08,2.29,1.08c0.77,0,1.39-0.23,1.88-0.69
			c0.49-0.46,0.8-1.12,0.94-1.97H317z"/>
		<path class="st0" d="M318.87,240.98c0.27-2.63,1.97-3.94,5.09-3.94c1.46,0,2.62,0.29,3.48,0.86c0.86,0.57,1.3,1.46,1.3,2.66v5.9
			c0,0.33,0.04,0.56,0.12,0.68c0.08,0.12,0.24,0.18,0.48,0.18c0.18,0,0.37-0.01,0.59-0.05v1.8c-0.66,0.17-1.22,0.25-1.67,0.25
			c-1.1,0-1.73-0.47-1.89-1.4c-0.98,0.93-2.34,1.4-4.08,1.4c-1.2,0-2.16-0.31-2.86-0.94c-0.71-0.62-1.06-1.47-1.06-2.53
			c0-0.33,0.04-0.64,0.11-0.92c0.08-0.29,0.16-0.53,0.26-0.74c0.1-0.21,0.25-0.41,0.47-0.59c0.22-0.18,0.4-0.33,0.54-0.45
			c0.14-0.12,0.38-0.23,0.7-0.34c0.32-0.1,0.56-0.18,0.72-0.24c0.16-0.05,0.43-0.11,0.82-0.17c0.39-0.06,0.65-0.1,0.78-0.12
			c0.13-0.02,0.39-0.06,0.8-0.1c0.92-0.12,1.54-0.22,1.87-0.3c0.33-0.08,0.56-0.21,0.68-0.37c0.11-0.12,0.16-0.4,0.16-0.83
			c0-1.17-0.8-1.76-2.39-1.76c-0.84,0-1.46,0.16-1.85,0.47c-0.39,0.32-0.64,0.85-0.74,1.6H318.87z M326.26,243.18
			c-0.2,0.11-0.42,0.2-0.68,0.28c-0.26,0.08-0.46,0.14-0.62,0.16c-0.16,0.02-0.41,0.06-0.74,0.1s-0.56,0.08-0.66,0.09
			c-0.32,0.05-0.56,0.09-0.74,0.12c-0.18,0.04-0.4,0.1-0.66,0.19c-0.26,0.09-0.47,0.2-0.61,0.33c-0.14,0.13-0.27,0.3-0.37,0.52
			c-0.11,0.22-0.16,0.48-0.16,0.78c0,0.56,0.18,0.98,0.55,1.28c0.37,0.3,0.88,0.45,1.54,0.45c1.14,0,2.02-0.31,2.64-0.92
			c0.35-0.35,0.52-1.01,0.52-2.01V243.18z"/>
		<path class="st0" d="M337.19,237.39v1.87h-2.34v6.13c0,0.36,0.01,0.61,0.02,0.75c0.01,0.14,0.06,0.3,0.14,0.47
			c0.07,0.17,0.21,0.29,0.39,0.35c0.19,0.06,0.45,0.09,0.78,0.09c0.42,0,0.76-0.01,1.01-0.05v2.03c-0.51,0.06-1.09,0.09-1.73,0.09
			c-0.45,0-0.85-0.03-1.18-0.1c-0.34-0.07-0.62-0.15-0.84-0.24c-0.23-0.09-0.41-0.24-0.56-0.46c-0.15-0.22-0.27-0.4-0.35-0.54
			c-0.08-0.14-0.14-0.39-0.18-0.75c-0.04-0.36-0.06-0.63-0.06-0.82c0-0.19,0-0.51,0-0.98c0-0.06,0-0.11,0-0.15c0-0.04,0-0.08,0-0.14
			c0-0.05,0-0.1,0-0.15v-5.54h-1.94v-1.87h1.94v-3.49h2.57v3.49H337.19z"/>
		<path class="st0" d="M341.65,232.91v2.52h-2.57v-2.52H341.65z M341.65,237.39v11.63h-2.57v-11.63H341.65z"/>
		<path class="st0" d="M349.83,237.05c1.77,0,3.19,0.56,4.24,1.67c1.05,1.11,1.58,2.61,1.58,4.48c0,1.89-0.52,3.39-1.57,4.51
			c-1.04,1.11-2.46,1.67-4.25,1.67c-1.82,0-3.26-0.56-4.33-1.67c-1.07-1.11-1.6-2.61-1.6-4.51c0-1.88,0.54-3.37,1.61-4.48
			C346.58,237.61,348.02,237.05,349.83,237.05z M352.18,240.18c-0.58-0.73-1.38-1.09-2.4-1.09s-1.82,0.37-2.41,1.1
			c-0.59,0.74-0.88,1.74-0.88,3.02c0,1.31,0.29,2.33,0.88,3.06c0.59,0.74,1.4,1.1,2.43,1.1c1.01,0,1.8-0.37,2.38-1.12
			c0.58-0.74,0.87-1.77,0.87-3.08C353.05,241.91,352.76,240.9,352.18,240.18z"/>
		<path class="st0" d="M360.26,237.39v1.71c0.93-1.35,2.22-2.03,3.85-2.03c1.32,0,2.31,0.36,2.96,1.08
			c0.65,0.72,0.98,1.76,0.98,3.11v7.75h-2.57v-6.76c0-0.47-0.02-0.85-0.07-1.16c-0.05-0.31-0.14-0.62-0.28-0.94
			c-0.14-0.32-0.37-0.55-0.69-0.71c-0.31-0.16-0.72-0.24-1.22-0.24c-1.89,0-2.84,1.18-2.84,3.54v6.26h-2.57v-11.63H360.26z"/>
		<path class="st0" d="M388.72,241.36c-0.14,1.59-0.57,2.91-1.31,3.94l3.15,3.72h-3.15l-1.49-1.8c-1.2,1.43-2.7,2.14-4.51,2.14
			c-1.43,0-2.62-0.42-3.58-1.25c-0.96-0.83-1.44-1.96-1.44-3.39c0-1.05,0.34-1.99,1.01-2.81c0.68-0.82,1.55-1.48,2.64-1.97
			c-1.07-1.31-1.6-2.49-1.6-3.54c0-1.04,0.37-1.89,1.12-2.56c0.74-0.67,1.69-1,2.85-1c1.13,0,2.05,0.33,2.78,1
			c0.73,0.67,1.09,1.52,1.09,2.56c0,1.73-0.95,3.09-2.84,4.1l2.46,3.04c0.27-0.57,0.46-1.3,0.56-2.19H388.72z M381.37,241.58
			c-0.77,0.44-1.37,0.88-1.8,1.34c-0.44,0.46-0.65,1.03-0.65,1.72c0,0.71,0.25,1.31,0.77,1.81c0.51,0.5,1.13,0.75,1.87,0.75
			c1.13,0,2.13-0.58,3-1.73L381.37,241.58z M382.16,238.95c1.25-0.74,1.87-1.56,1.87-2.48c0-0.5-0.15-0.9-0.46-1.23
			c-0.31-0.32-0.69-0.48-1.16-0.48c-0.48,0-0.88,0.15-1.19,0.45c-0.32,0.3-0.47,0.68-0.47,1.13c0,0.56,0.44,1.39,1.33,2.5
			L382.16,238.95z"/>
		<path class="st0" d="M400.32,237.39v1.55c0.78-1.26,2.04-1.89,3.79-1.89c1.61,0,2.89,0.56,3.85,1.69
			c0.96,1.13,1.44,2.63,1.44,4.51c0,1.83-0.47,3.3-1.41,4.4c-0.94,1.1-2.19,1.66-3.75,1.66c-1.65,0-2.91-0.61-3.78-1.82v5.84h-2.55
			v-15.93H400.32z M403.59,239.13c-1.01,0-1.79,0.36-2.37,1.08c-0.57,0.72-0.86,1.72-0.86,3c0,1.26,0.29,2.25,0.87,2.97
			c0.58,0.72,1.38,1.08,2.4,1.08c0.98,0,1.75-0.36,2.32-1.08c0.57-0.72,0.86-1.7,0.86-2.93c0-1.26-0.29-2.26-0.87-3.01
			C405.36,239.5,404.58,239.13,403.59,239.13z"/>
		<path class="st0" d="M418.21,237.17v2.46c-0.45-0.05-0.75-0.07-0.9-0.07c-2.24,0-3.36,1.45-3.36,4.35v5.11h-2.55v-11.63h2.41v2.32
			c0.83-1.73,2.13-2.59,3.9-2.59L418.21,237.17z"/>
		<path class="st0" d="M424.95,237.05c1.77,0,3.18,0.56,4.24,1.67c1.05,1.11,1.58,2.61,1.58,4.48c0,1.89-0.52,3.39-1.57,4.51
			c-1.04,1.11-2.46,1.67-4.25,1.67c-1.82,0-3.26-0.56-4.33-1.67c-1.07-1.11-1.6-2.61-1.6-4.51c0-1.88,0.54-3.37,1.61-4.48
			C421.71,237.61,423.15,237.05,424.95,237.05z M427.3,240.18c-0.58-0.73-1.38-1.09-2.4-1.09s-1.82,0.37-2.41,1.1
			c-0.59,0.74-0.88,1.74-0.88,3.02c0,1.31,0.29,2.33,0.88,3.06c0.59,0.74,1.4,1.1,2.43,1.1c1.01,0,1.8-0.37,2.38-1.12
			c0.58-0.74,0.87-1.77,0.87-3.08C428.17,241.91,427.88,240.9,427.3,240.18z"/>
		<path class="st0" d="M435.65,237.39v12.24c0,1.37-0.25,2.35-0.76,2.95c-0.5,0.6-1.39,0.9-2.67,0.9c-0.23,0-0.59-0.02-1.08-0.07
			v-2.1c0.39,0.03,0.59,0.05,0.61,0.05c0.48,0,0.82-0.07,1.03-0.2c0.2-0.14,0.3-0.42,0.3-0.86v-12.91H435.65z M435.65,232.89v2.55
			h-2.57v-2.55H435.65z"/>
		<path class="st0" d="M448.76,245.39c-0.29,1.26-0.91,2.25-1.86,2.95c-0.95,0.71-2.09,1.06-3.41,1.06c-1.76,0-3.15-0.57-4.18-1.7
			c-1.03-1.13-1.54-2.59-1.54-4.36c0-1.82,0.53-3.32,1.59-4.51c1.06-1.19,2.41-1.78,4.04-1.78c1.7,0,3.04,0.58,4.03,1.75
			c0.99,1.16,1.49,2.75,1.49,4.77v0.27h-8.58c0.03,1.17,0.32,2.08,0.88,2.72c0.56,0.64,1.33,0.96,2.32,0.96
			c0.71,0,1.28-0.17,1.72-0.51c0.44-0.34,0.79-0.88,1.05-1.61H448.76z M446.35,242.12c-0.07-0.98-0.38-1.75-0.91-2.31
			c-0.53-0.56-1.22-0.85-2.06-0.85c-0.84,0-1.52,0.27-2.04,0.81c-0.52,0.54-0.84,1.32-0.96,2.34H446.35z"/>
		<path class="st0" d="M461.43,244.63c-0.18,1.43-0.75,2.57-1.71,3.41c-0.96,0.85-2.17,1.27-3.63,1.27c-1.74,0-3.13-0.55-4.17-1.66
			c-1.04-1.1-1.55-2.55-1.55-4.34c0-1.92,0.52-3.45,1.57-4.59c1.04-1.13,2.45-1.7,4.22-1.7c1.49,0,2.69,0.38,3.59,1.13
			c0.91,0.75,1.44,1.8,1.59,3.13h-2.55c-0.15-0.74-0.45-1.3-0.9-1.69c-0.45-0.39-1.02-0.59-1.71-0.59c-0.99,0-1.77,0.37-2.34,1.12
			c-0.57,0.74-0.86,1.76-0.86,3.05c0,1.29,0.27,2.3,0.82,3.02c0.55,0.72,1.31,1.08,2.29,1.08c0.77,0,1.39-0.23,1.88-0.69
			c0.49-0.46,0.8-1.12,0.94-1.97H461.43z"/>
		<path class="st0" d="M469.09,237.39v1.87h-2.34v6.13c0,0.36,0.01,0.61,0.02,0.75c0.02,0.14,0.06,0.3,0.14,0.47
			c0.07,0.17,0.21,0.29,0.39,0.35c0.19,0.06,0.45,0.09,0.78,0.09c0.42,0,0.76-0.01,1.01-0.05v2.03c-0.51,0.06-1.09,0.09-1.74,0.09
			c-0.45,0-0.84-0.03-1.18-0.1c-0.34-0.07-0.62-0.15-0.84-0.24c-0.23-0.09-0.41-0.24-0.56-0.46c-0.15-0.22-0.27-0.4-0.35-0.54
			c-0.08-0.14-0.14-0.39-0.18-0.75c-0.04-0.36-0.06-0.63-0.06-0.82c0-0.19,0-0.51,0-0.98c0-0.06,0-0.11,0-0.15c0-0.04,0-0.08,0-0.14
			c0-0.05,0-0.1,0-0.15v-5.54h-1.94v-1.87h1.94v-3.49h2.57v3.49H469.09z"/>
		<path class="st0" d="M480.13,240.77h-2.46c-0.15-1.23-0.99-1.85-2.52-1.85c-0.66,0-1.17,0.12-1.53,0.36
			c-0.36,0.24-0.54,0.57-0.54,0.99c0,0.14,0.01,0.26,0.03,0.36c0.02,0.11,0.07,0.2,0.14,0.28c0.07,0.08,0.13,0.15,0.18,0.21
			c0.05,0.06,0.15,0.12,0.28,0.18c0.14,0.06,0.24,0.11,0.33,0.15s0.22,0.08,0.42,0.14c0.2,0.05,0.35,0.09,0.46,0.12
			c0.11,0.03,0.3,0.07,0.55,0.12c0.26,0.05,0.45,0.09,0.59,0.12c0.59,0.14,1.01,0.24,1.27,0.3c0.26,0.07,0.65,0.2,1.15,0.41
			c0.5,0.2,0.88,0.41,1.12,0.63c0.24,0.22,0.46,0.52,0.66,0.9s0.3,0.82,0.3,1.32c0,1.17-0.46,2.1-1.37,2.79
			c-0.92,0.69-2.15,1.04-3.7,1.04c-1.65,0-2.92-0.35-3.81-1.04c-0.89-0.69-1.36-1.7-1.42-3.02h2.46c0.14,1.46,1.07,2.19,2.82,2.19
			c0.75,0,1.36-0.15,1.81-0.46c0.46-0.31,0.69-0.72,0.69-1.23c0-0.26-0.06-0.47-0.17-0.65c-0.11-0.18-0.3-0.33-0.55-0.46
			c-0.26-0.13-0.5-0.23-0.73-0.29c-0.23-0.07-0.54-0.15-0.93-0.24c-0.06-0.01-0.11-0.03-0.14-0.03c-0.03-0.01-0.07-0.01-0.11-0.02
			c-0.04-0.01-0.09-0.02-0.13-0.03c-1.65-0.41-2.7-0.72-3.15-0.95c-1.07-0.51-1.6-1.36-1.6-2.55c0-1.1,0.42-1.96,1.26-2.58
			c0.84-0.62,2.01-0.94,3.49-0.94c1.43,0,2.59,0.31,3.5,0.92C479.67,238.59,480.13,239.53,480.13,240.77z"/>
	</g>
	<g>
		<g>
			<path class="st0" d="M320.17,112.17v11.85h-53.54V45.91h13.82v66.26H320.17z"/>
			<path class="st0" d="M370.85,45.8l30.17,78.22h-14.7l-7.46-20.73h-30.94l-7.68,20.73H326.1l30.17-78.22H370.85z M375.24,92.97
				l-11.63-32.91l-12.18,32.91H375.24z"/>
			<path class="st0" d="M414.08,45.91h33.9c8.41,0,15.05,1.99,19.91,5.98c4.86,3.99,7.3,9.93,7.3,17.83c0,7.46-2.27,13.37-6.8,17.72
				c-4.54,4.35-10.71,6.53-18.54,6.53h-22.05v30.06h-13.71V45.91z M427.79,57.32v25.56h19.09c9.94,0,14.92-4.28,14.92-12.84
				c0-8.48-5.38-12.73-16.13-12.73H427.79z"/>
		</g>
		<g>
			<path class="st0" d="M320.17,203.13v11.85h-53.54v-78.11h13.82v66.26H320.17z"/>
			<path class="st0" d="M370.85,136.76l30.17,78.22h-14.7l-7.46-20.73h-30.93l-7.68,20.73H326.1l30.17-78.22H370.85z M375.24,183.93
				l-11.63-32.91l-12.18,32.91H375.24z"/>
			<path class="st0" d="M470.03,159.9h-13.06c-0.8-9.14-6.47-13.71-17-13.71c-4.68,0-8.34,0.97-10.97,2.91
				c-2.63,1.94-3.95,4.59-3.95,7.95c0,3.15,0.97,5.3,2.91,6.47c1.94,1.17,6.23,2.6,12.89,4.28c1.75,0.51,3.11,0.88,4.06,1.1
				c8.7,2.19,14.63,4.17,17.77,5.92c6.95,3.73,10.42,9.54,10.42,17.44c0,3.44-0.59,6.55-1.75,9.33c-1.17,2.78-2.74,5.1-4.72,6.97
				c-1.98,1.86-4.32,3.42-7.02,4.66c-2.71,1.25-5.52,2.14-8.45,2.69c-2.93,0.55-5.96,0.82-9.11,0.82c-9.8,0-17.74-2.34-23.81-7.02
				c-6.07-4.68-9.1-11.56-9.1-20.62h13.49c0,5.7,1.86,9.93,5.59,12.67c3.73,2.74,8.59,4.11,14.59,4.11c5.27,0,9.38-1.08,12.34-3.24
				c2.96-2.16,4.44-5.17,4.44-9.05c0-2.48-0.79-4.51-2.36-6.09c-1.57-1.57-3.27-2.69-5.1-3.35c-1.83-0.66-5.01-1.57-9.54-2.74
				c-0.51-0.15-0.92-0.26-1.21-0.33c-9.73-2.48-16.13-4.53-19.2-6.14c-6.36-3.29-9.76-8.37-10.2-15.25c0-0.51,0-1.02,0-1.54
				c0-6.95,2.61-12.49,7.84-16.62c5.23-4.13,12.23-6.2,21.01-6.2c8.48,0,15.39,2.01,20.73,6.03
				C466.92,145.39,469.73,151.57,470.03,159.9z"/>
		</g>
	</g>
</g>
</svg>
