<svg width="25" height="24" viewBox="0 0 25 24" fill="none" xmlns="http://www.w3.org/2000/svg">
<path d="M23.8229 0.605553C23.2719 0.0542582 22.469 -0.138819 21.7275 0.101789L1.85562 6.55144C1.07638 6.80437 0.534878 7.46732 0.442441 8.28163C0.350004 9.09608 0.729221 9.86371 1.43216 10.2849C1.48391 10.3159 1.53856 10.3418 1.59523 10.3624L7.54562 12.5139L7.55143 18.9307C7.55223 19.7731 8.06077 20.513 8.84714 20.8154C9.62137 21.1156 10.5048 20.9139 11.0719 20.2847L11.0756 20.2805L13.134 17.9772L16.5896 23.0225C17.011 23.7101 17.7856 24.0783 18.5739 23.986C19.3882 23.8942 20.0514 23.353 20.3049 22.5734C20.316 22.5393 20.3251 22.5046 20.3322 22.4695L20.9631 19.3518C21.0657 18.8444 20.7376 18.3497 20.2301 18.247C19.7227 18.1442 19.228 18.4725 19.1253 18.98L18.5091 22.025C18.4809 22.0822 18.4322 22.1151 18.3639 22.1228C18.2847 22.1315 18.223 22.1013 18.1818 22.0323C18.1719 22.0157 18.1615 21.9995 18.1506 21.9835L14.3223 16.3943L19.8166 6.21C20.0157 5.84081 19.9454 5.38425 19.6444 5.09208C19.3432 4.79996 18.8847 4.74329 18.5218 4.95352L8.38275 10.8228L2.3517 8.6421C2.31411 8.60348 2.29859 8.55355 2.30548 8.49309C2.31457 8.41293 2.35798 8.35968 2.43443 8.33488L22.3064 1.88524C22.379 1.8618 22.4429 1.87717 22.4968 1.93113C22.5512 1.9855 22.5667 2.05023 22.5428 2.1235C22.5318 2.15762 22.5226 2.19227 22.5156 2.22737L20.048 14.4207C19.9453 14.9282 20.2735 15.4228 20.781 15.5255C21.2881 15.6284 21.783 15.3001 21.8857 14.7925L24.3442 2.64423C24.5568 1.9188 24.3599 1.14279 23.8229 0.605553ZM16.5928 8.23668L12.4326 15.9483L9.67983 19.0286C9.65887 19.0517 9.61172 19.1006 9.52031 19.0654C9.42661 19.0293 9.42656 18.9589 9.42652 18.9289L9.42061 12.3885L16.5928 8.23668Z" fill="#F5F5F7"/>
</svg>
