<svg width="25" height="24" viewBox="0 0 25 24" fill="none" xmlns="http://www.w3.org/2000/svg">
<g clip-path="url(#clip0)">
<path d="M12.3136 18.7875H13.7476C13.7476 18.7875 14.1811 18.7395 14.4016 18.501C14.6056 18.282 14.5981 17.871 14.5981 17.871C14.5981 17.871 14.5696 15.9465 15.4636 15.663C16.3441 15.384 17.4751 17.523 18.6736 18.3465C19.5796 18.969 20.2681 18.8325 20.2681 18.8325L23.4736 18.7875C23.4736 18.7875 25.1506 18.684 24.3556 17.3655C24.2911 17.2575 23.8921 16.3905 21.9721 14.6085C19.9621 12.7425 20.2321 13.0455 22.6531 9.81897C24.1276 7.85397 24.7171 6.65397 24.5326 6.14097C24.3571 5.65197 23.2726 5.78097 23.2726 5.78097L19.6666 5.80197C19.6666 5.80197 19.3996 5.76597 19.2001 5.88447C19.0066 6.00147 18.8821 6.27147 18.8821 6.27147C18.8821 6.27147 18.3106 7.79247 17.5486 9.08547C15.9421 11.814 15.2986 11.958 15.0361 11.7885C14.4256 11.394 14.5786 10.2015 14.5786 9.35547C14.5786 6.71097 14.9791 5.60847 13.7971 5.32347C13.4041 5.22897 13.1161 5.16597 12.1126 5.15547C10.8256 5.14197 9.73512 5.15997 9.11862 5.46147C8.70762 5.66247 8.39112 6.11097 8.58462 6.13647C8.82312 6.16797 9.36312 6.28197 9.64962 6.67197C10.0201 7.17447 10.0066 8.30547 10.0066 8.30547C10.0066 8.30547 10.2196 11.418 9.51012 11.805C9.02262 12.0705 8.35512 11.529 6.92262 9.05247C6.18912 7.78497 5.63412 6.38247 5.63412 6.38247C5.63412 6.38247 5.52762 6.12147 5.33712 5.98197C5.10612 5.81247 4.78212 5.75847 4.78212 5.75847L1.35312 5.77947C1.35312 5.77947 0.838624 5.79447 0.649624 6.01797C0.481624 6.21747 0.636124 6.62847 0.636124 6.62847C0.636124 6.62847 3.32112 12.909 6.36012 16.0755C9.14862 18.978 12.3136 18.7875 12.3136 18.7875Z" fill="#F5F5F7"/>
</g>
<defs>
<clipPath id="clip0">
<rect width="23.9982" height="23.9982" fill="white" transform="translate(0.571289)"/>
</clipPath>
</defs>
</svg>
