<?xml version="1.0" encoding="utf-8"?>
<!-- Generator: Adobe Illustrator 24.1.1, SVG Export Plug-In . SVG Version: 6.00 Build 0)  -->
<svg version="1.1" id="Слой_1" xmlns="http://www.w3.org/2000/svg" xmlns:xlink="http://www.w3.org/1999/xlink" x="0px" y="0px"
	 viewBox="0 0 841.89 595.28" style="enable-background:new 0 0 841.89 595.28;" xml:space="preserve">
<style type="text/css">
	.st0{clip-path:url(#SVGID_2_);}
	.st1{fill:#424F6F;}
</style>
<g>
	<g>
		<defs>
			<rect id="SVGID_1_" x="165.29" y="197.44" width="512" height="201"/>
		</defs>
		<clipPath id="SVGID_2_">
			<use xlink:href="#SVGID_1_"  style="overflow:visible;"/>
		</clipPath>
		<g class="st0">
			<path class="st1" d="M314.41,197.44c-0.15,1.45-0.1,2.97-0.51,4.35c-0.54,1.83-1.43,3.56-2.19,5.32c-0.6,1.4,0.07,1.88,1.35,1.86
				c1.12-0.02,2.24-0.14,3.36-0.15c0.51-0.01,1.03,0.14,1.55,0.21c0.02,0.14,0.03,0.28,0.04,0.42c-0.28,0.16-0.56,0.45-0.85,0.46
				c-1.6,0.09-3.21,0.23-4.8,0.12c-1.89-0.13-2.46-1.01-1.85-2.8c0.62-1.81,1.46-3.55,2.14-5.34c0.34-0.89,0.6-1.82,0.76-2.76
				c0.07-0.4-0.09-1.09-0.37-1.24c-0.31-0.16-0.95,0.02-1.29,0.27c-0.54,0.39-0.94,0.97-1.43,1.44c-0.2,0.19-0.48,0.29-0.73,0.43
				c-0.1-0.32-0.37-0.73-0.26-0.94c0.32-0.6,0.8-1.1,1.22-1.65C311.84,197.44,313.12,197.44,314.41,197.44z"/>
			<path class="st1" d="M203.1,258.68c-0.32-4.55-0.67-8.85-0.88-13.17c-0.05-1.08,0.22-2.25,0.63-3.26
				c0.62-1.56,2.05-1.6,3.09-0.19c1.52,2.04,1.57,6.66,0.11,8.73c-0.75,1.06-1.54,1.27-2.7,0.19c0.42,2.39,0.79,4.8,1.33,7.16
				c0.08,0.34,0.98,0.65,1.52,0.69c4.7,0.35,9.4,0.63,14.1,0.93c0.16,0.01,0.33-0.01,0.48,0.05c0.47,0.19,0.93,0.4,1.36,0.65
				c0.03,0.02-0.12,0.6-0.27,0.64c-0.54,0.16-1.14,0.34-1.68,0.26c-0.92-0.13-1.79-0.61-2.71-0.68c-4.06-0.31-8.11-0.52-12.25-0.77
				c-0.22,0.49-0.42,0.94-0.75,1.68c-1.03-2.55-3.09-1.71-4.76-1.78c-4.01-0.18-8.03-0.16-12.04-0.28
				c-0.66-0.02-1.31-0.34-1.97-0.52c0.64-0.2,1.28-0.58,1.91-0.58c4.92,0.04,9.85,0.15,14.77,0.24
				C202.71,258.69,203.02,258.68,203.1,258.68z M204.31,242.2c-0.92,1.42-0.42,6.42,0.7,7.86
				C206.53,247.7,206.23,243.93,204.31,242.2z"/>
			<path class="st1" d="M562.36,288.45c1.77-0.35,1.93-0.09,1.65,1.23c-0.23,1.09-0.28,2.26-0.19,3.37c0.25,3.14,0.86,6.27,0.82,9.4
				c-0.02,1.78-0.79,3.65-1.62,5.28c-1.2,2.33-3.76,2.27-4.8-0.15c-0.6-1.39-0.73-3.13-0.6-4.67c0.33-3.8,1.94-7.22,3.7-10.54
				c0.57-1.07,0.77-2.01,0.35-3.17c-0.54-1.5-0.92-3.05-1.4-4.72c-0.52,0.45-0.91,0.8-1.32,1.12c-1.66,1.33-3.53,0.85-3.67-1.22
				c-0.13-1.79,0.18-3.77,0.9-5.4c0.92-2.09,3.53-1.96,4.5,0.16c0.63,1.37,0.85,2.95,1.11,4.46
				C562.06,285.17,562.17,286.74,562.36,288.45z M562.66,293.07c-0.17-0.03-0.33-0.07-0.5-0.1c-0.86,2.11-1.93,4.17-2.53,6.36
				c-0.57,2.08-0.8,4.29-0.83,6.46c-0.01,0.78,0.86,1.94,1.62,2.27c1.12,0.5,1.59-0.74,2.01-1.58
				C564.63,302,563.28,297.54,562.66,293.07z M556.04,283.14c0.5,0.76,0.1,2.43,1.54,1.9c1.13-0.41,2.2-1.56,2.8-2.66
				c0.32-0.6-0.27-1.83-0.69-2.65c-0.68-1.33-2.03-1.33-2.67,0.03C556.53,280.8,556.36,281.99,556.04,283.14z"/>
			<path class="st1" d="M346.08,219.03c-0.38,0.94-0.61,1.84-1.07,2.61c-0.65,1.11-1.67,1.09-2.46,0.06
				c-1.39-1.81-1.12-7.62,0.44-9.37c0.85-0.95,2.06-1.03,2.7,0.11c0.98,1.75,2.51,3.42,1.59,5.8c-0.19,0.49,0.26,1.22,0.38,1.85
				c0.82,4.24,1.84,8.45,2.34,12.72c0.23,1.99-0.54,4.1-0.88,6.15c-0.05,0.31-0.17,0.69-0.39,0.87c-0.82,0.66-1.68,1.72-2.57,1.76
				c-1.29,0.05-1.59-1.37-1.8-2.5c-0.93-5.13,0.1-10.06,1.89-14.79C346.99,222.38,346.86,220.83,346.08,219.03z M347.5,224.56
				c-2.04,4.05-3.39,14.42-1.04,15.92C349.28,238.67,349.83,230.96,347.5,224.56z M343.81,221.54c0.34-0.79,0.63-1.25,0.74-1.75
				c0.37-1.7,0.79-3.4,0.95-5.12c0.05-0.54-0.62-1.15-0.97-1.73c-0.39,0.36-0.85,0.66-1.13,1.08c-0.25,0.39-0.33,0.9-0.42,1.37
				C342.63,217.41,342.59,219.37,343.81,221.54z"/>
			<path class="st1" d="M331.73,276.08c0.45,3.55,0.9,7.1,1.34,10.64c0.21-0.03,0.41-0.05,0.62-0.07c0.46-3.95,0.59-7.89-1.19-11.64
				c-0.26-0.54-1.02-1.23-1.49-1.18c-0.5,0.05-1.24,0.82-1.33,1.37c-0.33,1.93-0.73,3.94-0.55,5.86c0.42,4.47,1.24,8.91,1.77,13.37
				c0.59,5,1.05,10.02,1.58,15.03c0.12,1.1,0.26,2.19,0.39,3.29c-0.23,0.05-0.47,0.11-0.7,0.16c-0.23-0.68-0.6-1.34-0.69-2.04
				c-1.18-9.51-2.41-19.02-3.42-28.55c-0.25-2.35,0.12-4.79,0.42-7.16c0.17-1.32,1.02-2.47,2.48-2.58c1.51-0.11,2.25,1.03,2.77,2.27
				c1.74,4.16,1.6,8.47,0.85,12.79c-0.08,0.47-0.65,0.87-1,1.29c-0.34-0.36-0.83-0.66-1-1.09c-1.45-3.48-1.65-7.18-1.71-10.88
				c-0.01-0.31,0.25-0.61,0.39-0.92C331.43,276.06,331.58,276.07,331.73,276.08z"/>
			<path class="st1" d="M481.76,273.79c-0.3,0.93-0.73,1.84-0.87,2.79c-0.76,5-0.07,9.94,0.82,14.84c0.99,5.48,2.12,10.92,3.2,16.38
				c0.04,0.21,0.17,0.43,0.13,0.62c-0.1,0.46-0.27,0.9-0.41,1.34c-0.24-0.36-0.61-0.7-0.69-1.09c-1.17-5.82-2.51-11.62-3.36-17.49
				c-0.66-4.58-0.74-9.25-0.93-13.88c-0.05-1.12,0.38-2.34,0.85-3.39c1.05-2.35,3.26-2.53,4.5-0.3c0.9,1.61,1.67,3.41,1.95,5.21
				c0.38,2.46,0.29,5,0.29,7.5c0,0.46-0.58,0.91-0.89,1.37c-0.35-0.41-0.89-0.77-1.02-1.24c-0.96-3.67-1.85-7.37-2.76-11.05
				c-0.13-0.51-0.3-1.02-0.45-1.53C482,273.84,481.88,273.81,481.76,273.79z M483.47,273.7l-0.07-0.05l0.09,0.02
				c0.69,3.17,1.38,6.34,2.09,9.51c0.13,0.59,0.34,1.17,0.52,1.75c0.17-1.93,0.25-3.86-0.23-5.63
				C485.35,277.36,484.3,275.56,483.47,273.7z"/>
			<path class="st1" d="M437.69,310.11c-0.21-0.42-0.52-0.82-0.63-1.27c-2.02-8.35-3.41-16.81-3.36-25.42
				c0.02-2.79,0.09-5.7,1.61-8.27c1.48-2.5,3.68-2.72,5.08-0.23c2.39,4.23,2.79,8.81,1.52,13.51c-0.11,0.42-0.64,0.85-1.07,1.01
				c-0.22,0.09-0.86-0.31-0.97-0.61c-1.27-3.31-2.33-6.67-2.33-10.27c0-0.17,0.2-0.34,0.59-0.99c0.84,3.67,1.59,6.94,2.42,10.56
				c1.01-2.1,1.11-6.07,0.3-8.98c-0.36-1.27-0.81-2.56-1.49-3.69c-0.93-1.54-1.98-1.45-2.92,0.08c-1.61,2.65-1.57,5.66-1.56,8.58
				c0.01,8.13,1.33,16.1,3.17,24c0.14,0.6,0.14,1.23,0.2,1.85C438.07,310.01,437.88,310.06,437.69,310.11z"/>
			<path class="st1" d="M373.38,278.17c-0.18,1.41-0.64,3.24-0.63,5.07c0.04,8.59,1,17.1,2.78,25.51c0.13,0.62,0.46,1.2,0.59,1.83
				c0.07,0.32-0.09,0.68-0.14,1.03c-0.32-0.21-0.83-0.36-0.93-0.64c-0.46-1.31-0.96-2.64-1.15-4.01c-0.73-5.2-1.52-10.39-1.94-15.62
				c-0.3-3.77-0.17-7.59,0.04-11.37c0.08-1.48,0.73-3,1.42-4.35c0.34-0.67,1.44-1.42,2.08-1.33c0.66,0.1,1.43,1.09,1.69,1.85
				c0.49,1.45,0.8,3.01,0.9,4.55c0.14,2.18,0.07,4.39-0.04,6.58c-0.03,0.53-0.57,1.04-0.87,1.55c-0.39-0.39-0.99-0.71-1.13-1.17
				C375.08,284.43,374.22,281.2,373.38,278.17z M376.62,286.45c0.18-0.03,0.36-0.07,0.54-0.1c-0.11-2.26-0.15-4.54-0.37-6.79
				c-0.12-1.2-0.52-2.39-0.88-3.55c-0.08-0.26-0.52-0.4-0.79-0.6c-0.1,0.27-0.3,0.54-0.28,0.8c0.19,2.07,0.33,4.16,0.66,6.21
				C375.73,283.78,376.24,285.11,376.62,286.45z"/>
			<path class="st1" d="M359.19,361.92c-0.17-0.46-0.48-0.91-0.48-1.37c-0.08-7.3-0.68-14.54-2.08-21.71
				c-0.1-0.51,0.04-1.07,0.09-2.1c0.64,0.72,0.93,1.05,1.27,1.42c0.1-0.02,0.25-0.02,0.39-0.07c2.22-0.78,4.41-1.66,6.66-2.32
				c1.16-0.34,2.43-0.41,3.64-0.4c1.67,0.02,2.87,1.19,3.23,3.24c0.31,1.73,0.47,3.51,0.53,5.27c0.21,6.1,0.35,12.2,0.51,18.3
				c0.01,0.42,0.07,0.95-0.14,1.25c-0.25,0.37-0.77,0.56-1.18,0.83c0-0.39-0.04-0.79-0.01-1.17c0.05-0.52,0.24-1.05,0.21-1.56
				c-0.28-7.22-0.52-14.44-0.91-21.66c-0.15-2.89-1.3-3.85-4.07-3.23c-2.8,0.62-5.5,1.68-8.2,2.69c-0.33,0.13-0.53,1.11-0.49,1.68
				c0.52,6.4,1.11,12.79,1.66,19.18c0.05,0.51,0.01,1.04,0.01,1.55C359.63,361.8,359.41,361.86,359.19,361.92z"/>
			<path class="st1" d="M279.87,339.03c0.17,0.53,0.34,1.05,0.5,1.51c2.05-0.68,4.07-1.51,6.17-1.99c4.13-0.95,6.43,0.64,6.65,4.84
				c0.34,6.36,0.4,12.74,0.58,19.11c0.02,0.71,0,1.42,0,2.12c-0.2,0.05-0.39,0.1-0.59,0.14c-0.2-0.71-0.57-1.42-0.58-2.14
				c-0.15-5.25-0.19-10.5-0.34-15.75c-0.05-1.65-0.15-3.34-0.55-4.92c-0.51-2.03-1.7-2.92-3.68-2.46c-2.46,0.58-4.83,1.6-7.21,2.51
				c-0.32,0.12-0.62,0.75-0.62,1.14c0.04,6.21,0.12,12.43,0.22,18.64c0.01,0.34,0.44,0.67,0.49,1.02c0.09,0.67,0.1,1.36,0.03,2.03
				c-0.02,0.18-0.47,0.32-0.72,0.48c-0.3-0.53-0.84-1.05-0.85-1.58c-0.15-7.88-0.24-15.75-0.32-23.63c0-0.37,0.2-0.73,0.3-1.1
				C279.53,339.02,279.7,339.03,279.87,339.03z"/>
			<path class="st1" d="M536.57,221.49c1.84,0.04,3.25-0.76,3.69-2.61c0.52-2.2,0.58-4.51,0.84-6.78c0.06-0.55,0.1-1.09,0.18-1.97
				c3.16,3.54-0.02,11.73-4.27,12.76c0,3.09-0.01,6.13,0,9.17c0,0.69,0.14,1.4,0.07,2.08c-0.05,0.47-0.37,0.91-0.58,1.36
				c-0.42-0.26-0.99-0.44-1.22-0.82c-0.17-0.28,0.1-0.83,0.21-1.25c0.1-0.37,0.36-0.73,0.35-1.09c-0.08-2.95-0.19-5.89-0.37-8.83
				c-0.03-0.44-0.36-1.01-0.73-1.24c-3.46-2.24-5.18-5.6-6.13-9.45c-0.1-0.39,0.17-0.87,0.52-1.35c1.19,3.7,2.56,7.17,6.08,9.79
				c0-0.85,0.03-1.4,0-1.93c-0.26-4.98-0.54-9.95-0.81-14.93c-0.02-0.37-0.12-0.77-0.04-1.12c0.11-0.45,0.36-0.87,0.55-1.29
				c0.21,0.43,0.57,0.85,0.6,1.29c0.35,5.72,0.65,11.45,0.96,17.17C536.47,220.75,536.52,221.07,536.57,221.49z"/>
			<path class="st1" d="M653.42,361.89c-0.07-0.65-0.18-1.3-0.21-1.95c-0.25-5.35-0.44-10.7-0.76-16.05
				c-0.08-1.32-0.45-2.64-0.85-3.91c-0.63-2.01-2.23-2.98-4.26-2.39c-2.8,0.81-4.09,1.39-3.84,4.65c0.48,6.25,0.71,12.52,1.05,18.78
				c0.02,0.32,0.12,0.67,0.03,0.95c-0.08,0.24-0.38,0.41-0.58,0.62c-0.17-0.18-0.44-0.33-0.49-0.54c-0.1-0.41-0.07-0.85-0.09-1.28
				c-0.33-6.05-0.68-12.09-0.97-18.14c-0.05-1.05-1.27-1.82-0.31-3.18c1.01-1.43,4.31-3.28,6.66-3.1c2.05,0.16,3.45,1.42,4.07,3.73
				c1.5,5.61,1.32,11.37,1.55,17.09c0.04,1.12,0.03,2.25-0.02,3.38c-0.02,0.46-0.21,0.92-0.33,1.38
				C653.85,361.92,653.64,361.91,653.42,361.89z"/>
			<path class="st1" d="M274.09,211.22c0.85,3.59,1.64,7.2,5.11,9.69c-0.05-5.08-1.06-9.88-0.75-14.71
				c0.19-0.04,0.39-0.07,0.58-0.11c0.15,0.42,0.39,0.83,0.43,1.26c0.32,4.17,0.59,8.34,0.94,12.51c0.05,0.62,0.37,1.72,0.6,1.73
				c0.89,0.04,2.18,0.03,2.62-0.52c0.78-0.97,1.42-2.35,1.43-3.57c0.02-1.72-0.63-3.44-0.92-5.16c-0.07-0.43,0.13-0.9,0.21-1.36
				c0.28,0.32,0.72,0.61,0.83,0.99c0.41,1.43,0.88,2.88,1.03,4.35c0.43,4.38-1.17,6.3-5.48,6.74c0,3.29-0.01,6.59,0.02,9.89
				c0,0.27,0.4,0.52,0.43,0.79c0.05,0.44,0.01,0.93-0.15,1.33c-0.08,0.19-0.72,0.39-0.77,0.32c-0.27-0.34-0.58-0.77-0.6-1.18
				c-0.12-3.37-0.21-6.75-0.22-10.13c0-1.11-0.32-1.82-1.26-2.51c-2.99-2.19-4.23-5.41-4.84-8.94c-0.07-0.41,0.1-0.87,0.15-1.3
				C273.68,211.29,273.89,211.26,274.09,211.22z"/>
			<path class="st1" d="M166.18,210.12c0.74,4.1-0.5,8.8,3.58,12.32c0.06-0.86,0.13-1.39,0.13-1.92c0.02-5.03,0.03-10.07,0.04-15.11
				c0-0.43-0.02-0.87,0.07-1.28c0.04-0.21,0.3-0.37,0.46-0.55c0.2,0.2,0.52,0.37,0.58,0.61c0.1,0.41,0.05,0.85,0.05,1.28
				c0,5.62,0,11.24,0,16.99c1.68-0.43,2.32-1.69,3-2.96c0.23-0.43,0.7-0.73,1.06-1.1c-0.01,0.53,0.19,1.23-0.07,1.56
				c-1,1.26-2.17,2.38-3.24,3.59c-0.31,0.35-0.73,0.8-0.71,1.19c0.11,3.58,0.32,7.15,0.46,10.73c0.02,0.4-0.23,0.8-0.36,1.21
				c-0.26-0.34-0.72-0.68-0.75-1.04c-0.23-3.36-0.43-6.72-0.53-10.08c-0.04-1.14-0.2-1.94-1.29-2.62c-1.94-1.24-2.64-3.36-2.96-5.5
				c-0.32-2.11-0.31-4.26-0.4-6.4c-0.01-0.3,0.23-0.62,0.35-0.93C165.82,210.12,166,210.12,166.18,210.12z"/>
			<path class="st1" d="M489.14,220.08c0,4.62,0,9.01,0,13.39c0,0.59,0.11,1.19,0.03,1.76c-0.06,0.42-0.34,0.81-0.52,1.22
				c-0.27-0.14-0.67-0.21-0.77-0.42c-0.21-0.42-0.38-0.94-0.36-1.4c0.03-0.53,0.42-1.06,0.42-1.58c-0.09-4.01-0.2-8.03-0.41-12.04
				c-0.03-0.54-0.51-1.27-1-1.55c-2.98-1.72-3.82-4.46-3.8-7.62c0-0.34,0.47-0.68,0.72-1.01c0.15,0.35,0.45,0.72,0.43,1.06
				c-0.14,2.32,0.87,5.72,3.45,6.41c0.1-5-0.86-10.02,0.38-14.91c0.26-0.02,0.51-0.04,0.77-0.05c0.13,0.86,0.4,1.73,0.36,2.58
				c-0.07,1.24-0.54,2.47-0.54,3.7c0,3.04,0.18,6.08,0.28,9.11c2.22,0.03,3.69-1.15,4.18-3.35c0.31-1.41,0.46-2.85,0.76-4.26
				c0.06-0.3,0.51-0.51,0.77-0.76c0.13,0.31,0.39,0.64,0.35,0.93c-0.21,1.48-0.42,2.97-0.78,4.42
				C493.21,218.31,491.52,219.83,489.14,220.08z"/>
			<path class="st1" d="M222.55,301.42c4.27-7.95,9.75-15.09,15.12-22.3c1.21-1.63,2.48-3.22,3.79-4.78
				c0.29-0.34,0.82-0.47,1.39-0.51c-7.01,9.8-14.66,19.06-20.11,29.81c0.09,0.13,0.18,0.27,0.27,0.4c1.1-0.26,2.19-0.55,3.29-0.78
				c1.03-0.21,2.14-0.61,3.12,0.73c-2.62,0.46-4.99,0.94-7.38,1.24c-0.37,0.05-1.24-0.72-1.21-1.04c0.32-3.13,0.79-6.25,1.23-9.36
				c0.02-0.11,0.23-0.19,0.6-0.47c0.93,2.47-0.44,4.77-0.09,7.03l-0.09,0.02L222.55,301.42z"/>
			<path class="st1" d="M594.06,219.01c-1.34,1.74-0.5,3.5-0.2,5.24c0.48,2.78,0.81,5.57-0.62,8.14c-0.43,0.77-1.47,1.72-2.18,1.68
				c-0.85-0.05-2.16-0.94-2.36-1.7c-0.4-1.53-0.51-3.31-0.11-4.82c0.52-1.98,1.53-3.87,2.58-5.66c0.77-1.31,0.79-2.45,0.19-3.8
				c-0.36,0.34-0.65,0.67-0.98,0.91c-1.08,0.78-2.12,0.54-2.56-0.72c-0.87-2.49-0.77-4.96,0.69-7.23c0.84-1.31,2.13-1.29,2.67,0.17
				c0.64,1.73,0.83,3.61,1.29,5.41c0.22,0.87,0.62,1.68,0.95,2.52C593.63,219.1,593.85,219.06,594.06,219.01z M592.54,222.67
				c-0.16-0.03-0.32-0.05-0.48-0.07c-1.45,2.41-2.92,4.87-2.72,7.82c0.06,0.9,0.97,1.74,1.49,2.61c0.6-0.65,1.36-1.22,1.74-1.98
				c0.37-0.73,0.49-1.66,0.46-2.49C592.95,226.59,592.72,224.63,592.54,222.67z M589.86,211.39c-1.66,2.05-1.88,5.04-0.58,6.82
				C591.48,216.94,591.63,213.72,589.86,211.39z"/>
			<path class="st1" d="M193.59,300.2c0.22-2.19-0.42-4.12,0.67-6.03c0.33,0.4,0.57,0.54,0.57,0.69c0.04,1.82,0.06,3.64,0.05,5.46
				c-0.01,0.96-0.55,1.58-1.42,0.97c-2.35-1.67-4.6-3.48-6.88-5.24c-0.05-0.04-0.01-0.2-0.01-0.42c1.23-0.64,1.72,0.6,2.46,1.08
				c0.8,0.51,1.51,1.17,2.52,1.63c-0.21-0.55-0.37-1.12-0.63-1.65c-3.39-6.93-6.71-13.89-10.25-20.74
				c-0.94-1.83-2.59-3.29-3.89-4.94c-0.16-0.2-0.27-0.64-0.16-0.8c0.13-0.19,0.62-0.34,0.79-0.24c0.54,0.32,1.12,0.69,1.48,1.19
				c1.17,1.66,2.42,3.29,3.32,5.1c3.57,7.2,7.02,14.45,10.5,21.69C192.99,298.57,193.2,299.2,193.59,300.2z"/>
			<path class="st1" d="M266.41,263.66c-1.48,1.64-0.51,3.37-0.46,5.08c0.06,2.12,0.08,4.27-0.13,6.38
				c-0.13,1.28-0.74,2.64-2.4,2.48c-1.56-0.14-2.46-1.38-2.39-2.77c0.1-2.04,0.58-4.07,1.03-6.07c0.17-0.76,0.6-1.53,1.11-2.12
				c1.43-1.64,0.73-3.25,0.32-4.65c-1.06,0.14-2.36,0.66-2.72,0.28c-0.63-0.66-0.95-1.88-0.92-2.84c0.04-1.13,0.46-2.31,0.98-3.34
				c0.28-0.55,1.1-0.82,1.67-1.22c0.39,0.6,0.89,1.15,1.12,1.81c0.26,0.74,0.22,1.58,0.38,2.35c0.23,1.1,0.47,2.2,0.83,3.26
				c0.17,0.5,0.62,0.9,0.95,1.35C265.99,263.64,266.2,263.65,266.41,263.66z M264.78,267.1c-0.18,0-0.36,0-0.54-0.01
				c-0.23,0.41-0.48,0.83-0.7,1.25c-1.01,1.92-1.82,3.93-1.44,6.12c0.13,0.72,0.87,1.34,1.33,2c0.44-0.59,1.24-1.15,1.27-1.77
				C264.87,272.17,264.78,269.63,264.78,267.1z M261.29,261.48c1.49-1.18,1.77-3.17,0.84-5.29
				C261.01,257.83,260.65,259.46,261.29,261.48z"/>
			<path class="st1" d="M492.33,357.34c1.49-4.51,0.75-9.24,1.2-13.82c0.2-0.01,0.4-0.02,0.6-0.03c0.11,0.5,0.33,0.99,0.33,1.49
				c-0.01,4.54,0.33,9.12-1.23,13.53c-0.16,0.46,0.09,1.14,0.32,1.63c0.44,0.91,1.08,1.73,1.52,2.64c0.22,0.46,0.19,1.04,0.27,1.57
				c-0.18,0.04-0.37,0.09-0.55,0.14c-0.79-1.3-1.58-2.6-2.44-3.99c-0.65,0.73-1.23,1.47-1.9,2.11c-1.27,1.21-2.74,1.94-4.52,1.31
				c-1.84-0.66-2.49-2.27-2.38-3.98c0.11-1.78,0.46-3.62,1.13-5.26c0.77-1.88,2.47-2.27,4.08-1.02
				C490.04,354.64,491.05,355.98,492.33,357.34z M484.47,359.14c0.07,0.02,0.14,0.04,0.22,0.06c0,0.06,0,0.11,0,0.16
				c-0.01,2.28,0.8,3.52,2.33,3.59c1.5,0.07,4.45-2.43,4.51-3.83c0.01-0.15-0.02-0.35-0.1-0.46c-1.08-1.37-2.08-2.83-3.3-4.06
				c-0.91-0.92-1.97-0.54-2.45,0.6C485.15,356.47,484.86,357.83,484.47,359.14z"/>
			<path class="st1" d="M410.74,355.57c0.69,2.76,2.48,4.25,4.56,5.54c2.15,1.33,4.33,1.51,6.66,0.18c0.05,0.13,0.1,0.26,0.14,0.4
				c-0.14,0.28-0.23,0.75-0.44,0.81c-1.2,0.36-2.54,1.08-3.63,0.83c-3.43-0.8-6.29-2.61-7.94-5.93c-1.53-3.08-0.55-6.31,2.44-7.99
				c3-1.69,6.62-1.39,9.15,0.76c1.76,1.49,1.55,3.26-0.5,4.34c-2.77,1.45-5.72,1.6-8.74,1.27
				C411.96,355.73,411.5,355.67,410.74,355.57z M410.19,353.98c3.75,1.2,7.73,0.93,10.38-0.47c1.41-0.75,1.49-1.51,0.27-2.54
				c-2.27-1.9-6.2-1.99-8.47-0.02C411.5,351.69,410.99,352.83,410.19,353.98z"/>
			<path class="st1" d="M211.48,364.57c-0.56,0.3-1.01,0.69-1.52,0.79c-5.66,1.05-10.3-2.25-11.15-7.86
				c-0.39-2.6,1.25-6.17,3.43-7.48c2.27-1.36,5.51-1.09,7.85,0.67c1.66,1.23,1.99,3.09,0.35,4.32c-1.51,1.14-3.44,1.84-5.29,2.39
				c-1.5,0.44-3.15,0.37-4.87,0.53c0.2,2.76,1.59,4.76,3.98,5.56C206.45,364.22,208.87,364.21,211.48,364.57z M200.06,357.03
				c2.79-0.55,5.29-0.98,7.75-1.55c0.63-0.14,1.24-0.64,1.73-1.11c1.1-1.06,1-2.1-0.32-2.87c-1.9-1.11-3.9-1.81-6.06-0.66
				C200.9,352.03,200.21,354.06,200.06,357.03z"/>
			<path class="st1" d="M224.34,354.76c2.3,1.03,4.62,0.76,6.87,0c0.58-0.2,1.37-1.02,1.33-1.51c-0.05-0.62-0.71-1.45-1.31-1.73
				c-2.15-1.01-5.91-0.1-7.41,1.63c-1.58,1.83-1.71,4.4-0.36,6.9c0.97,1.81,2.39,3.13,4.25,3.98c1.99,0.92,4.04,1.34,6.24,0.87
				c0.32-0.07,0.7,0.19,1.06,0.29c-0.27,0.27-0.5,0.69-0.83,0.78c-4.81,1.38-13.09-2.4-12.77-9.96c0.11-2.54,1.65-4.3,3.84-5.33
				c2.04-0.95,4.26-1,6.42-0.31c1.26,0.41,2.06,1.31,2.11,2.73c0.05,1.47-0.78,2.47-2.06,2.69c-2.08,0.36-4.21,0.46-6.32,0.5
				c-0.48,0.01-0.97-0.65-1.46-1.01C224.07,355.13,224.2,354.95,224.34,354.76z"/>
			<path class="st1" d="M582.8,291.16c1.01-2.26,1.72-4.26,2.76-6.09c1.05-1.85,0.89-3.25-0.32-5.04c-1.31-1.95-2.04-4.29-2.95-6.5
				c-0.16-0.39,0.03-0.93,0.06-1.4c0.17-0.03,0.33-0.06,0.5-0.09c0.55,1.55,0.98,3.15,1.68,4.63c0.7,1.48,1.67,2.83,2.67,4.48
				c1.84-3.62,2.15-7.57,4.26-10.75c0.16,0.03,0.33,0.06,0.49,0.1c-0.03,0.44,0.04,0.91-0.09,1.31c-1.11,3.24-2.31,6.44-3.37,9.7
				c-0.17,0.53,0.04,1.33,0.35,1.85c1.16,1.98,2.46,3.87,3.63,5.84c0.23,0.39,0.11,0.99,0.15,1.49c-0.35,0.03-0.88,0.21-1.02,0.05
				c-0.24-0.26-0.2-0.76-0.31-1.14c-0.1-0.36-0.18-0.74-0.38-1.04c-1.03-1.61-2.1-3.19-3.41-5.17c-1.02,2.44-2.03,4.43-2.65,6.54
				C584.52,291.02,584.02,291.01,582.8,291.16z"/>
			<path class="st1" d="M639.3,289.9c1.91-0.44,3.82-0.88,5.84-1.35c0-3.73,0-7.56,0-11.4c-0.1-0.03-0.21-0.06-0.31-0.1
				c-0.2,0.55-0.37,1.1-0.59,1.64c-0.75,1.83-1.49,3.66-2.3,5.46c-0.11,0.24-0.56,0.32-0.85,0.48c-0.05-0.32-0.23-0.69-0.13-0.96
				c1.28-3.51,2.59-7.01,3.92-10.51c0.11-0.3,0.46-0.5,0.69-0.75c0.2,0.37,0.56,0.74,0.57,1.12c0.12,4.34,0.2,8.68,0.27,13.01
				c0.04,2.28,0.03,2.28,2.39,2.44c0.75,0.05,1.53-0.01,2.23,0.2c0.38,0.11,0.63,0.67,0.93,1.03c-0.45,0.16-0.99,0.57-1.35,0.45
				c-3.08-0.99-6.15-0.72-9.25-0.15c-0.62,0.11-1.24,0.2-1.86,0.3C639.43,290.49,639.37,290.2,639.3,289.9z"/>
			<path class="st1" d="M385.68,214.55c0.79-3.56,1.58-7.12,2.37-10.68c0.22,0.01,0.44,0.03,0.66,0.04c0.07,0.43,0.27,0.9,0.19,1.3
				c-0.69,3.36-1.49,6.69-2.13,10.06c-0.14,0.75,0.07,1.63,0.32,2.38c0.69,2.06,1.57,4.06,2.22,6.13c0.28,0.88-0.15,1.56-1.44,1.3
				c0.86-2.65-0.76-4.55-2.05-6.67c-0.73,2.8-1.46,5.6-2.19,8.4c-0.22-0.04-0.44-0.07-0.66-0.11c0-0.57-0.11-1.16,0.02-1.7
				c0.57-2.39,1.27-4.76,1.78-7.16c0.15-0.69,0.02-1.56-0.27-2.22c-0.99-2.25-2.12-4.44-3.17-6.66c-0.15-0.32-0.2-0.74-0.17-1.1
				c0.03-0.37,0.21-0.74,0.32-1.1c0.26,0.33,0.62,0.62,0.77,0.99c0.98,2.33,1.91,4.68,2.86,7.02
				C385.3,214.69,385.49,214.62,385.68,214.55z"/>
			<path class="st1" d="M606.1,294.44c0.09-0.56,0.06-1.17,0.28-1.68c0.76-1.83,1.62-3.61,2.39-5.44c0.16-0.37,0.2-0.93,0.04-1.28
				c-1.48-3.18-3.05-6.33-4.54-9.51c-0.54-1.16-0.99-2.37-1.42-3.58c-0.1-0.27,0.1-0.64,0.16-0.97c0.29,0.17,0.72,0.27,0.84,0.52
				c0.54,1.16,0.96,2.38,1.46,3.56c1.12,2.6,2.26,5.19,3.42,7.77c0.16,0.35,0.52,0.6,0.96,1.07c2.55-4.71,3.53-9.63,4.08-14.69
				c0.22,0.03,0.44,0.06,0.66,0.1c0.06,0.53,0.2,1.06,0.18,1.59c-0.13,3.8-1.2,7.38-2.61,10.87c-0.98,2.43-2.13,4.79-3.12,7.22
				c-0.39,0.95-0.46,2.03-0.87,2.97c-0.29,0.65-0.9,1.16-1.37,1.74C606.46,294.61,606.28,294.52,606.1,294.44z"/>
			<path class="st1" d="M172.49,256.79c2.74,0,5.42,0,8.1,0c0.06,0.15,0.12,0.3,0.18,0.44c-0.48,0.23-0.95,0.63-1.45,0.67
				c-1.7,0.11-3.42,0.14-5.13,0.1c-1.35-0.03-2.13,0.36-2.06,1.88c0.05,1.12-0.06,2.25-0.03,3.37c0.05,1.79,0.74,2.41,2.52,2.25
				c1.01-0.09,2.01-0.33,3.02-0.43c0.68-0.07,1.38-0.01,2.09-0.01c-0.04,0.43-0.04,0.62-0.07,0.62c-2.24,0.28-4.48,0.74-6.73,0.75
				c-1.31,0.01-1.93-1.26-1.93-2.56c0-2.04,0.05-4.07,0.16-6.11c0.13-2.57,0.42-5.13,0.47-7.7c0.02-1.28,0.44-1.96,1.69-1.96
				c2.07,0,4.14,0.05,6.21,0.17c0.49,0.03,1.02,0.35,1.42,0.67c0.25,0.21,0.3,0.67,0.43,1.02c-0.33-0.02-0.72,0.08-0.98-0.07
				c-2.04-1.13-4.23-1.08-6.41-0.7c-0.44,0.08-1.07,0.73-1.12,1.17C172.67,252.48,172.61,254.62,172.49,256.79z"/>
			<path class="st1" d="M336.3,353.27c-1.11-0.2-2.22-0.41-3.63-0.67c0,2.79-0.09,5.45,0.04,8.1c0.06,1.4,0.72,1.62,2.06,1.03
				c0.27-0.12,0.64-0.02,0.96-0.02c-0.11,0.33-0.15,0.87-0.36,0.95c-0.71,0.26-1.74,0.74-2.16,0.44c-0.77-0.55-1.58-1.55-1.67-2.43
				c-0.22-2.12-0.03-4.27,0-6.42c0.01-0.52,0-1.04,0-1.91c-1.56,0.2-3,0.39-4.45,0.56c-0.32,0.04-0.65-0.04-0.98-0.07
				c0.14-0.31,0.21-0.81,0.43-0.89c0.84-0.3,1.72-0.53,2.6-0.65c0.78-0.1,1.58-0.02,2.7-0.02c0-2.14,0-4.16,0-6.18
				c0-0.21-0.02-0.58-0.11-0.61c-2.3-0.68-0.51-2.12-0.54-3.18c-0.01-0.32,0.57-0.64,0.88-0.96c0.25,0.37,0.7,0.72,0.72,1.1
				c0.13,2.4,0.23,4.82,0.19,7.22c-0.04,2.57-0.1,2.55,2.29,3.28c0.44,0.14,0.83,0.43,1.25,0.66
				C336.45,352.83,336.37,353.05,336.3,353.27z"/>
			<path class="st1" d="M465.15,260.78c0.11,0.4,0.33,0.8,0.3,1.19c-0.25,3.41,0.85,6.53,1.85,9.71c1.19,3.77,2.43,7.56,3.08,11.44
				c0.77,4.61,0.19,9.2-2.05,13.43c-0.25,0.47-0.83,0.77-1.26,1.15c0.07-0.52,0.01-1.11,0.23-1.56c2.84-5.77,2.64-11.74,1.05-17.72
				c-1.05-3.98-2.58-7.83-3.69-11.8c-0.52-1.86-0.81-3.85-0.07-5.76C464.78,260.83,464.96,260.8,465.15,260.78z"/>
			<path class="st1" d="M403.23,303.13c1.15-1.8,2.25-3.12,2.89-4.64c2.06-4.87,1.57-9.89,0.26-14.8c-1-3.76-2.41-7.41-3.63-11.12
				c-0.41-1.27-0.82-2.54-1.14-3.83c-0.1-0.41,0.11-0.9,0.22-1.62c0.42,0.4,0.65,0.51,0.71,0.68c1.79,5.7,3.77,11.36,5.29,17.13
				c1.24,4.71,1.34,9.57-0.69,14.17c-0.59,1.33-1.62,2.48-2.52,3.65C404.43,302.98,403.9,302.95,403.23,303.13z"/>
			<path class="st1" d="M355.14,283.64c1.65-3.72,2.65-7.39,4.24-10.78c0.23,0.08,0.47,0.16,0.71,0.24
				c-0.11,0.57-0.14,1.16-0.33,1.7c-1.15,3.12-2.37,6.21-3.48,9.34c-0.2,0.57-0.2,1.38,0.05,1.92c0.63,1.34,1.47,2.59,2.19,3.89
				c0.16,0.29,0.18,0.66,0.35,1.32c-2.45-0.69-2.28-3.16-3.95-4.59c-0.55,1.71-1.02,3.24-1.53,4.76c-0.13,0.38-0.39,0.72-0.59,1.08
				c-0.25-0.38-0.79-0.85-0.7-1.13c0.47-1.53,1-3.06,1.68-4.49c0.58-1.21,0.65-2.2,0-3.45c-1.22-2.38-2.26-4.85-3.32-7.31
				c-0.22-0.51-0.18-1.13-0.25-1.69c0.44,0.44,1.05,0.79,1.3,1.32c1.05,2.16,2,4.38,2.99,6.58
				C354.66,282.68,354.83,283.01,355.14,283.64z"/>
			<path class="st1" d="M193.71,205.81c2.29-0.47,4.7-1.09,7.15-0.36c0.02,0.21,0.04,0.42,0.06,0.64c-1.94,0.19-3.88,0.38-5.66,0.55
				c-0.18,2.82-0.35,5.45-0.54,8.29c1.96-0.22,3.89-0.44,5.82-0.66c0.04,0.2,0.09,0.39,0.13,0.59c-0.42,0.21-0.82,0.51-1.26,0.61
				c-0.99,0.23-2,0.5-3,0.48c-1.69-0.04-2.4,0.67-2.37,2.33c0.02,1.01-0.14,2.03-0.12,3.04c0.02,1.73,0.49,2.25,2.23,2.09
				c1.34-0.12,2.65-0.56,4.31-0.69c-0.37,0.42-0.68,1.14-1.11,1.2c-1.61,0.26-3.26,0.47-4.88,0.4c-1.16-0.05-1.73-1.07-1.65-2.21
				c0.24-3.19,0.64-6.37,0.84-9.57C193.82,210.4,193.71,208.24,193.71,205.81z"/>
			<path class="st1" d="M175.08,279.89c0,3.73,0,7.46,0,11.54c2.78-1.46,2.5-4.03,3.08-6.57c0.45,0.68,0.74,0.93,0.8,1.24
				c0.43,1.96-1.15,5.17-2.88,6.22c-0.48,0.29-0.95,0.97-0.99,1.51c-0.14,1.97-0.08,3.96-0.14,5.94c-0.02,0.5-0.22,0.99-0.33,1.49
				c-0.18-0.01-0.36-0.02-0.53-0.02c-0.08-0.52-0.24-1.04-0.24-1.56c0-1.98,0.03-3.96,0.1-5.94c0.03-0.8-0.15-1.29-0.91-1.8
				c-2.14-1.47-3.54-3.54-4.02-6.13c-0.06-0.34,0.28-0.76,0.43-1.15c0.22,0.31,0.58,0.59,0.65,0.93c0.51,2.27,1.73,4.03,3.54,5.38
				c0.2-0.03,0.4-0.06,0.6-0.09c0-3.66,0-7.33,0-10.99C174.51,279.88,174.79,279.88,175.08,279.89z"/>
			<path class="st1" d="M366.01,218.46c-0.8,2.5-1.52,4.74-2.24,6.99c-0.2-0.02-0.39-0.04-0.59-0.07c-0.03-0.49-0.18-1.01-0.06-1.45
				c0.51-1.91,1.2-3.78,1.61-5.71c0.18-0.85,0.08-1.9-0.26-2.71c-0.95-2.21-2.1-4.34-3.13-6.51c-0.15-0.32-0.07-0.74-0.09-1.12
				c0.38,0.21,0.93,0.32,1.1,0.63c1.04,1.98,2,4.01,3.13,6.32c0.99-2.97,1.89-5.66,2.79-8.35c0.25,0.06,0.51,0.12,0.76,0.18
				c-0.06,0.55-0.06,1.11-0.21,1.64c-0.68,2.37-1.47,4.71-2.06,7.09c-0.18,0.74-0.06,1.71,0.27,2.41c0.99,2.08,2.17,4.06,3.21,6.12
				c0.18,0.35,0.09,0.85,0.13,1.27c-0.38-0.26-0.91-0.43-1.12-0.79C368.16,222.5,367.15,220.56,366.01,218.46z"/>
			<path class="st1" d="M450.68,263.87c0.02,0.32,0.16,0.7,0.03,0.94c-1.94,3.67-2.32,7.71-2.36,11.69
				c-0.05,5.07,0.34,10.16,0.68,15.23c0.14,2.13,1.46,3.73,2.99,5.15c0.8,0.75,1.44,1.67,2.15,2.51c-0.12,0.13-0.23,0.25-0.35,0.38
				c-0.24-0.04-0.55,0.02-0.7-0.12c-3.08-2.79-5.66-5.84-5.63-10.35c0.04-5.62-0.12-11.24,0.05-16.85c0.07-2.16,0.74-4.32,1.3-6.44
				c0.22-0.82,0.85-1.53,1.29-2.3C450.3,263.77,450.49,263.82,450.68,263.87z"/>
			<path class="st1" d="M615.48,352.9c0,2.08-0.07,4.1,0.04,6.11c0.03,0.59,0.48,1.58,0.87,1.64c0.67,0.12,1.45-0.31,2.17-0.58
				c0.46-0.17,0.88-0.45,1.32-0.68c-0.21,0.55-0.29,1.21-0.65,1.62c-0.91,1.03-2.26,1.31-3.36,0.7c-0.73-0.41-1.37-1.52-1.49-2.39
				c-0.22-1.68-0.13-3.42-0.01-5.13c0.09-1.28-0.45-1.64-1.58-1.49c-1.29,0.17-2.59,0.34-3.93,0.3c1.42-1.86,3.55-1.23,5.6-1.6
				c0.14-2.49,0.3-5.03,0.42-7.58c0.06-1.34,0.01-2.68,0.1-4.01c0.03-0.38,0.4-0.74,0.6-1.1c0.19,0.38,0.54,0.77,0.53,1.15
				c-0.09,3.26-0.2,6.53-0.41,9.79c-0.08,1.24-0.14,2.24,1.48,2.35c0.29,0.02,0.55,0.27,0.83,0.42c-0.09,0.16-0.17,0.33-0.26,0.49
				C617.09,352.9,616.42,352.9,615.48,352.9z"/>
			<path class="st1" d="M581.08,297.54c-0.6-0.07-1.24-0.02-1.78-0.22c-3.21-1.18-4.87-3.82-5.8-6.85
				c-2.61-8.45-1.36-16.6,2.32-24.48c0.09-0.19,0.16-0.44,0.32-0.55c0.3-0.2,0.66-0.32,1-0.48c0,0.34,0.09,0.71-0.02,1.01
				c-0.86,2.35-1.98,4.63-2.62,7.04c-1.44,5.4-1.79,10.87-0.14,16.32c1.04,3.42,2.66,6.33,6.47,7.3c0.13,0.03,0.21,0.23,0.31,0.34
				C581.11,297.16,581.09,297.35,581.08,297.54z"/>
			<path class="st1" d="M390.43,277.26c2.74,3.09,5.47,6.18,8.3,9.37c1.36-3.02,2.14-6.3,2.29-9.76c0.22,0.01,0.43,0.02,0.65,0.03
				c0.13,0.42,0.41,0.87,0.35,1.27c-0.28,1.84-0.43,3.75-1.02,5.49c-1.37,4.03-2.99,7.97-4.45,11.98c-0.4,1.11-0.58,2.3-0.87,3.45
				c-0.21,0-0.42-0.01-0.63-0.01c-0.03-0.78-0.26-1.63-0.04-2.33c0.72-2.24,1.5-4.46,2.46-6.6c0.58-1.3,0.53-2.35-0.36-3.38
				c-2.06-2.38-4.15-4.74-6.19-7.14c-0.48-0.57-0.78-1.3-1.17-1.95C389.98,277.53,390.2,277.4,390.43,277.26z"/>
			<path class="st1" d="M340.88,282.48c0.16-5.28,1.1-10.37,2.53-15.39c0.25-0.87,0.6-1.73,1.02-2.53c0.14-0.26,0.66-0.31,1.01-0.46
				c0.01,0.34,0.13,0.72,0.01,1.01c-2.19,5.27-3.04,10.8-3.13,16.46c-0.06,3.98,0.1,7.95,1.62,11.69c0.49,1.21,1.36,2.27,2.02,3.42
				c0.2,0.35,0.28,0.77,0.41,1.16c-0.42-0.12-1.08-0.12-1.23-0.39c-1.11-2.05-2.47-4.06-3.05-6.26
				C341.35,288.39,341.25,285.4,340.88,282.48z"/>
			<path class="st1" d="M500.11,274.66c1.2,3.08,2.4,6.15,3.6,9.23c0.14,0,0.29-0.01,0.43-0.01c0.71-2.27,1.39-4.56,2.16-6.82
				c0.21-0.63,0.7-1.17,1.05-1.76c0.02,0.67,0.19,1.37,0.03,1.99c-0.49,1.86-0.9,3.79-1.74,5.5c-1.36,2.8-0.13,4.8,1.54,6.79
				c0.48,0.57,1.03,1.11,1.4,1.75c0.18,0.32,0.03,0.83,0.02,1.26c-0.31-0.21-0.71-0.36-0.93-0.64c-1.13-1.39-2.22-2.81-3.47-4.42
				c-0.47,1.82-0.89,3.45-1.31,5.07c-0.14,0.06-0.27,0.12-0.4,0.18c-0.15-0.49-0.5-1.02-0.42-1.47c0.25-1.36,0.77-2.69,0.97-4.05
				c0.13-0.88,0.07-1.88-0.23-2.71c-1.01-2.82-2.18-5.58-3.23-8.39c-0.15-0.41-0.02-0.92-0.02-1.38
				C499.73,274.75,499.92,274.71,500.11,274.66z"/>
			<path class="st1" d="M497.84,297.96c-1.36,0.63-2.3-0.36-2.79-1.26c-1.04-1.9-2.16-3.9-2.53-5.99
				c-1.32-7.59-0.6-15.13,1.19-22.58c0.22-0.92,0.73-1.77,1.2-2.61c0.13-0.23,0.57-0.28,0.88-0.41c0.04,0.29,0.21,0.64,0.11,0.87
				c-3.15,6.81-2.85,14.08-2.68,21.28c0.05,2.34,0.83,4.74,1.69,6.94C495.45,295.55,496.76,296.62,497.84,297.96z"/>
			<path class="st1" d="M421.35,282.95c-0.22-2.69-0.44-5.28-0.66-7.88c0.24-0.04,0.48-0.09,0.72-0.14
				c0.16,0.46,0.42,0.91,0.48,1.39c0.24,1.86,0.45,3.72,0.61,5.58c0.09,1,0.48,1.54,1.56,1.57c1.23,0.04,2.45,0.17,3.67,0.32
				c0.46,0.05,0.89,0.28,1.3,0.64c-1.93,1.04-3.93-0.04-5.94,0.29c0.43,3.42,0.84,6.76,1.26,10.1c-0.25,0.04-0.5,0.09-0.75,0.13
				c-0.19-0.61-0.47-1.21-0.57-1.83c-0.37-2.44-0.71-4.87-1-7.32c-0.13-1.05-0.51-1.68-1.66-1.66c-1.76,0.03-3.52,0.04-5.27,0
				c-0.45-0.01-0.9-0.23-1.35-0.35c0.4-0.26,0.8-0.73,1.22-0.75c1.86-0.08,3.72-0.04,5.59-0.04
				C420.79,283,421.05,282.97,421.35,282.95z"/>
			<path class="st1" d="M571.06,338.96c1.05-0.62,2.03-1.55,3.16-1.81c2.06-0.47,4.21-0.71,6.33-0.75c1.99-0.04,3.07,1,3.46,2.92
				c0.23,1.15,0.44,2.33,0.44,3.49c-0.01,5.73-0.08,11.46-0.16,17.19c-0.01,0.64-0.28,1.27-0.43,1.9c-0.22-0.03-0.43-0.05-0.64-0.08
				c-0.04-0.53-0.12-1.07-0.11-1.6c0.08-5.19,0.23-10.38,0.25-15.58c0.01-1.59-0.24-3.19-0.42-4.78c-0.19-1.69-1.29-2.44-2.87-2.39
				c-2.72,0.08-5.48,0.13-7.75,2.01c-0.22,0.18-0.64,0.13-0.96,0.18C571.26,339.42,571.16,339.19,571.06,338.96z"/>
			<path class="st1" d="M240.69,292.38c0-3.03-0.02-5.76,0.02-8.48c0.01-0.4,0.25-0.79,0.39-1.19c0.24,0.35,0.67,0.7,0.69,1.06
				c0.11,2.14,0.12,4.28,0.16,6.42c0.01,0.51,0,1.03,0,1.54c0.14,0.07,0.29,0.14,0.43,0.21c0.95-1.33,1.91-2.65,2.87-3.97
				c0.14,0.11,0.29,0.21,0.44,0.32c-0.22,1.89-1.2,3.41-2.76,4.48c-0.87,0.6-1.15,1.22-1.16,2.22c-0.02,2.19-0.15,4.39-0.26,6.58
				c-0.01,0.29-0.14,0.58-0.22,0.86c-0.16,0.04-0.32,0.09-0.49,0.13c-0.19-0.55-0.56-1.1-0.55-1.65c0.05-2.03,0.19-4.06,0.37-6.08
				c0.08-0.87-0.11-1.28-1-1.66c-1.97-0.84-3-2.52-3.29-4.61c-0.05-0.33,0.24-0.71,0.38-1.07c0.24,0.28,0.62,0.53,0.7,0.86
				C237.81,290.16,238.62,291.61,240.69,292.38z"/>
			<path class="st1" d="M624.9,284.73c-0.08,4-0.75,7.38-2.73,10.39c-0.21,0.31-0.39,0.69-0.69,0.86c-0.25,0.14-0.7,0.09-0.96-0.06
				c-0.12-0.06-0.14-0.66,0.02-0.84c3.64-4.24,3.54-9.22,2.74-14.27c-0.78-4.9-2.4-9.53-5.02-13.78c-0.23-0.38-0.17-0.94-0.24-1.42
				c0.39,0.25,0.91,0.42,1.13,0.78C622.74,272.13,624.52,278.45,624.9,284.73z"/>
			<path class="st1" d="M511.03,267.9c0.17,0.3,0.42,0.58,0.5,0.9c1.23,5.26,2.76,10.48,3.55,15.8c0.69,4.63-0.14,9.29-2.01,13.66
				c-0.23,0.55-0.73,0.98-1.11,1.47c-0.13-0.07-0.26-0.14-0.39-0.21c-0.03-0.24-0.16-0.52-0.07-0.71c3.04-6.33,3.17-12.91,1.58-19.6
				c-0.76-3.17-1.66-6.32-2.45-9.48c-0.14-0.55-0.1-1.15-0.15-1.72C510.66,267.98,510.84,267.94,511.03,267.9z"/>
			<path class="st1" d="M410.88,222.69c1.18-0.32,2.36-0.64,3.57-0.96c0-2.8,0-5.72,0-8.64c-0.16-0.04-0.32-0.08-0.48-0.13
				c-0.49,1.19-0.99,2.37-1.47,3.56c-0.18,0.45-0.24,0.95-0.48,1.36c-0.15,0.26-0.52,0.4-0.79,0.6c-0.09-0.32-0.33-0.68-0.25-0.94
				c0.3-1.02,0.69-2.02,1.07-3.02c0.74-1.95,1.47-3.9,2.23-5.84c0.14-0.36,0.34-0.7,0.52-1.06c0.16,0.01,0.32,0.02,0.47,0.03
				c0.08,0.49,0.22,0.98,0.24,1.48c0.1,3.91,0.19,7.81,0.26,11.71c0.02,0.92,0.45,1.35,1.38,1.36c0.69,0.01,1.41,0.05,2.06,0.25
				c0.45,0.14,0.82,0.56,1.23,0.86c-0.51,0.16-1.03,0.49-1.52,0.45c-1.74-0.13-3.47-0.42-5.21-0.58c-0.46-0.04-0.94,0.19-1.41,0.24
				c-0.43,0.05-0.86,0.01-1.29,0.01C410.97,223.17,410.92,222.93,410.88,222.69z"/>
			<path class="st1" d="M246.25,253.67c-1.52-1.56-2.78-1.6-4.46-0.23c-2.67,2.17-3.67,5.79-2.58,9.31c0.9,2.89,3.51,4.88,6.71,5.11
				c2.01,0.14,2.35-0.01,3.48-1.61c0.97,0.42,0.95,1.12,0.3,1.7c-0.52,0.47-1.26,0.85-1.95,0.96c-6.31,0.99-11.45-4.79-9.91-11.09
				c0.9-3.71,3.32-6.26,6.2-6.56C246,251.05,246.96,252.01,246.25,253.67z"/>
			<path class="st1" d="M460.24,283.31c0.77-2.24,1.38-4.04,2.02-5.84c0.41-1.15,0.85-2.31,1.35-3.42c0.11-0.24,0.57-0.32,0.87-0.47
				c0.04,0.32,0.21,0.69,0.1,0.96c-1.49,4-3.1,7.96-4.52,11.99c-0.95,2.69-1.64,5.46-2.49,8.32c-0.91-0.23-0.85-1.05-0.64-1.8
				c0.72-2.52,1.44-5.03,2.29-7.5c0.31-0.9,0.42-1.56-0.3-2.29c-1.01-1.03-1.97-2.11-2.9-3.21c-0.55-0.65-1.14-1.32-1.47-2.08
				c-0.27-0.63-0.56-1.59,0.8-1.79C455.65,279.4,458.82,280.41,460.24,283.31z"/>
			<path class="st1" d="M384.32,278.48c0.52-3.31,1.01-6.62,1.59-9.92c0.08-0.47,0.6-0.87,0.91-1.3c0.05,0.56,0.25,1.16,0.14,1.69
				c-2.1,9.36-1.63,18.47,2.51,27.24c0.2,0.43,0.55,0.8,0.7,1.24c0.14,0.4,0.11,0.87,0.15,1.3c-0.39-0.19-0.97-0.28-1.13-0.58
				c-0.87-1.71-1.78-3.43-2.43-5.23C385.1,288.28,384.68,283.44,384.32,278.48z"/>
			<path class="st1" d="M368.84,285.25c-0.3,4.33-1.13,8.45-2.96,12.34c-0.16,0.35-0.63,0.55-0.95,0.82
				c-0.03-0.42-0.22-0.9-0.07-1.24c3.76-8.52,3.2-17-0.27-25.43c-0.42-1.03-1.07-1.97-1.56-2.98c-0.14-0.29-0.07-0.67-0.1-1.01
				c0.34,0.13,0.9,0.16,1,0.39c1.23,2.84,2.63,5.63,3.48,8.58C368.21,279.48,368.39,282.41,368.84,285.25z"/>
			<path class="st1" d="M299.66,217.97c1.04-2.63,0.48-5.49,3.03-7.26c-0.03,0.39,0,0.79-0.1,1.16c-0.62,2.42-1.3,4.83-1.86,7.27
				c-0.09,0.41,0.26,1,0.55,1.42c1.03,1.53,2.12,3.02,3.01,4.72c-2.11-0.36-2.57-2.56-4.05-3.88c-0.46,1.85-0.89,3.55-1.31,5.25
				c-0.19-0.01-0.39-0.02-0.58-0.03c-0.08-0.39-0.35-0.86-0.22-1.15c2-4.41,0.3-8.12-2.09-11.75c-0.47-0.71-0.71-1.58-1.05-2.38
				c0.26-0.14,0.51-0.27,0.77-0.41C297.01,213.18,298.27,215.44,299.66,217.97z"/>
			<path class="st1" d="M477.55,201.18c0.36,0.19,0.68,0.27,0.69,0.38c0.02,0.28-0.01,0.63-0.17,0.83
				c-3.2,3.89-4.37,8.48-4.11,13.35c0.15,2.72,1.04,5.43,1.82,8.08c0.24,0.81,1.17,1.46,1.87,2.08c0.79,0.71,1.7,1.28,2.52,1.97
				c0.19,0.16,0.18,0.54,0.26,0.82c-0.28,0.04-0.67,0.21-0.83,0.08c-2.33-1.81-4.93-3.23-5.82-6.51c-1.79-6.65-1.3-12.94,2.11-18.95
				C476.33,202.55,476.98,201.9,477.55,201.18z"/>
			<path class="st1" d="M541.91,359.21c-0.15,3.42-0.78,6.32-2.64,8.82c-0.27,0.37-0.65,0.76-1.06,0.9c-0.29,0.1-0.72-0.2-1.09-0.33
				c0.19-0.25,0.38-0.5,0.56-0.75c0.61-0.84,1.4-1.61,1.8-2.54c1.67-3.88,1.6-7.79,0.06-11.72c-1.13-2.89-2.24-5.79-3.25-8.72
				c-0.32-0.94-0.33-2-0.4-3.01c-0.01-0.19,0.35-0.42,0.55-0.62c0.17,0.17,0.45,0.31,0.51,0.52c1.62,5.3,3.23,10.6,4.8,15.91
				C541.93,358.27,541.88,358.93,541.91,359.21z"/>
			<path class="st1" d="M546.18,289.85c2.96-0.24,5.53-0.45,8.1-0.65c0.05,0.14,0.1,0.29,0.15,0.44c-0.44,0.26-0.85,0.69-1.31,0.75
				c-1.96,0.23-3.93,0.45-5.9,0.46c-1.93,0.01-2.5-1-1.6-2.72c1.18-2.27,2.53-4.47,3.68-6.76c0.55-1.08,0.91-2.28,1.18-3.47
				c0.27-1.21-0.34-1.8-1.53-1.43c-1.35,0.42-2.62,1.06-4.38,1.79c0.31-0.68,0.39-1.34,0.71-1.48c1.35-0.6,2.73-1.22,4.17-1.49
				c1.4-0.26,2.34,0.65,2.16,2.07c-0.18,1.46-0.56,2.95-1.18,4.28c-1.01,2.17-2.29,4.22-3.44,6.33
				C546.75,288.41,546.59,288.9,546.18,289.85z"/>
			<path class="st1" d="M304,355.42c0.15-4.38,0.65-7.75,2.51-10.77c0.22-0.36,0.45-0.77,0.78-1c0.23-0.16,0.65-0.04,0.98-0.05
				c-0.04,0.29,0.01,0.64-0.13,0.85c-3.63,5.5-3.81,11.29-1.44,17.28c0.81,2.04,2.42,3.37,4.37,4.27c0.49,0.22,1.13,0.12,1.7,0.21
				c0.35,0.06,0.68,0.21,1.02,0.31c-0.28,0.27-0.55,0.78-0.83,0.77c-0.88-0.01-1.86-0.01-2.63-0.37c-2.89-1.34-4.68-3.72-5.51-6.73
				C304.32,358.37,304.17,356.43,304,355.42z"/>
			<path class="st1" d="M249.9,298.32c0.38,1.56,0.08,2.84,1.54,3.37c0.19,0.07,0.4,0.53,0.34,0.73c-0.1,0.32-0.37,0.72-0.65,0.81
				c-0.25,0.08-0.77-0.12-0.92-0.36c-0.44-0.71-0.76-1.51-1.16-2.35c-0.64,0.91-1.21,1.71-1.77,2.52c-0.2-0.09-0.4-0.17-0.61-0.26
				c0.23-0.62,0.42-1.27,0.7-1.87c0.33-0.72,0.74-1.4,1.26-2.36c-1.25,0-2.24,0-3.44,0c0.7-1.77,2.15-0.86,3.2-1.38
				c0.3-1.62-0.66-3.45,0.2-5.1c0.21-0.02,0.41-0.03,0.62-0.05c0.14,1.37,0.29,2.74,0.43,4.11c0.09,0.03,0.19,0.05,0.28,0.08
				c0.29-0.65,0.53-1.33,0.88-1.95c0.15-0.26,0.5-0.41,0.76-0.61c0.1,0.32,0.36,0.68,0.28,0.94c-0.27,0.9-0.66,1.77-0.99,2.61
				c1.33,0.3,2.58,0.53,3.79,0.88c0.31,0.09,0.5,0.55,0.75,0.84c-0.36,0.07-0.74,0.26-1.08,0.21
				C252.97,298.93,251.63,298.65,249.9,298.32z"/>
			<path class="st1" d="M357.44,202.52c0,0.29,0.07,0.61-0.01,0.87c-2.08,6.81-2.72,13.72-1.15,20.7c0.38,1.69,1.57,3.19,2.37,4.78
				c0.16,0.33,0.23,0.71,0.35,1.06c-0.38-0.08-0.95-0.02-1.09-0.25c-0.92-1.41-2.04-2.79-2.53-4.36
				c-1.78-5.66-1.13-11.44-0.34-17.18c0.18-1.32,0.42-2.65,0.77-3.93c0.2-0.69,0.7-1.3,1.07-1.95
				C357.06,202.35,357.25,202.43,357.44,202.52z"/>
			<path class="st1" d="M465.01,208.1c-0.87-2.38-2.1-2.58-3.5-1.01c-2.93,3.3-2.91,9.88,0.05,13.12c1.53,1.68,3.33,1.87,5.4,0.57
				c0.53,0.94,0.22,1.63-0.99,1.92c-2.05,0.49-3.8-0.15-5.22-1.68c-3.41-3.64-3.41-11.17,0-14.84c1.14-1.23,2.72-1.73,3.88-1.03
				c0.52,0.32,0.9,1,1.14,1.6C465.85,206.99,465.39,207.45,465.01,208.1z"/>
			<path class="st1" d="M515.19,359.54c-0.96-0.88-1.46-1.4-2.02-1.85c-1.42-1.13-2.92-2.17-4.27-3.37
				c-0.78-0.7-1.45-1.58-1.96-2.49c-0.75-1.35-0.74-2.8,0.28-4.06c1.13-1.39,2.67-1.96,4.43-1.64c0.46,0.08,0.84,0.62,1.52,1.17
				c-1.37,0-2.2-0.13-2.98,0.03c-2.46,0.49-3.38,2.55-1.89,4.54c0.97,1.3,2.31,2.34,3.56,3.42c1.05,0.91,2.26,1.63,3.27,2.57
				c1.26,1.17,1.03,2.32-0.54,2.97c-1.46,0.6-2.95,1.14-4.47,1.56c-0.34,0.09-0.85-0.42-1.29-0.66c0.28-0.3,0.51-0.77,0.85-0.86
				C511.33,360.4,513.02,360.05,515.19,359.54z"/>
			<path class="st1" d="M392.11,228.2c0.18-0.32,0.23-0.56,0.38-0.67c4.06-2.88,4.34-7.13,3.6-11.36
				c-0.71-4.08-2.16-8.03-3.27-12.04c-0.17-0.62-0.26-1.26-0.39-1.89c0.13-0.06,0.26-0.13,0.39-0.19c0.23,0.22,0.6,0.39,0.69,0.65
				c1.82,5.3,4.15,10.52,3.9,16.26c-0.1,2.29-0.83,4.6-1.53,6.81C395.42,227.25,393.39,228.42,392.11,228.2z"/>
			<path class="st1" d="M204.92,294.96c0.09,0.56,0.28,1.13,0.24,1.68c-0.31,4.75-0.65,9.51-0.98,14.26
				c-0.03,0.37-0.04,0.75-0.03,1.13c0.05,1.71,0.64,2.22,2.34,1.82c1.5-0.35,2.97-0.9,4.47-1.26c0.36-0.09,0.82,0.18,1.22,0.29
				c-0.33,0.26-0.62,0.63-0.99,0.76c-1.26,0.45-2.54,0.84-3.82,1.2c-3.12,0.88-4.54-0.19-4.39-3.41c0.14-2.94,0.4-5.88,0.61-8.81
				c0.15-2.08,0.3-4.17,0.48-6.25c0.04-0.48,0.21-0.95,0.32-1.42C204.57,294.95,204.74,294.95,204.92,294.96z"/>
			<path class="st1" d="M393.94,362.26c-0.42-0.75-0.66-1.08-0.8-1.44c-1.36-3.48-2.75-6.96-4.03-10.47
				c-0.3-0.81-0.23-1.76-0.33-2.65c0.43,0.69,0.94,1.33,1.29,2.06c1.13,2.4,2.2,4.83,3.48,7.66c0.46-3.41,0.86-6.41,1.3-9.71
				c1.1,0.89,1.57,1.25,0.98,2.47c-0.6,1.23-0.52,2.81-0.68,4.25c-0.26,2.18-0.46,4.36-0.71,6.54
				C394.4,361.25,394.23,361.52,393.94,362.26z"/>
			<path class="st1" d="M664.07,360.01c0.79-3.17,1.45-5.86,2.14-8.55c0.1-0.41,0.24-0.84,0.48-1.18c0.14-0.2,0.51-0.24,0.78-0.36
				c0.08,0.27,0.28,0.56,0.22,0.79c-0.77,3.22-1.53,6.44-2.39,9.63c-0.14,0.52-0.73,0.92-1.11,1.37c-0.38-0.4-0.96-0.74-1.11-1.22
				c-0.88-2.8-1.63-5.64-2.47-8.45c-0.41-1.37-0.91-2.72-1.33-4.09c-0.08-0.25,0.03-0.56,0.05-0.84c0.29,0.06,0.74,0.04,0.84,0.21
				c0.4,0.68,0.79,1.4,0.99,2.15c0.7,2.58,1.3,5.19,1.98,7.77C663.33,358.06,663.66,358.83,664.07,360.01z"/>
			<path class="st1" d="M505.86,367.64c-0.82-0.12-1.7-0.07-2.44-0.37c-3.08-1.25-4.86-3.61-5.33-6.87
				c-0.7-4.85,0.53-9.33,2.86-13.57c0.13-0.23,0.27-0.51,0.49-0.63c0.52-0.3,1.1-0.53,1.64-0.79c-0.23,0.47-0.42,0.96-0.68,1.4
				c-2.93,4.85-4.43,9.96-2.5,15.57c0.74,2.17,2.53,3.36,4.66,4.05c0.47,0.15,0.95,0.3,1.42,0.45
				C505.93,367.14,505.89,367.39,505.86,367.64z"/>
			<path class="st1" d="M576.27,210.35c-0.94-1.92-2.22-2.39-3.54-1.1c-1.86,1.81-2.68,4.14-2.26,6.72
				c0.42,2.58,1.79,4.68,4.36,5.48c1.12,0.35,2.47-0.06,3.72-0.13c0.39-0.02,0.79-0.04,1.18-0.06c-0.25,0.4-0.42,1.02-0.78,1.16
				c-2.18,0.89-4.37,0.75-6.24-0.72c-4.59-3.62-4.4-8.87-1.21-12.92c0.99-1.26,2.47-1.78,4.04-1.15c0.53,0.22,0.96,0.94,1.21,1.52
				C576.86,209.44,576.44,209.95,576.27,210.35z"/>
			<path class="st1" d="M550.49,227.43c-1.29,0-2.58,0-4.18,0c0.69,1.34,1.27,2.34,1.72,3.41c0.15,0.36,0,0.85-0.01,1.28
				c-0.35-0.27-0.8-0.48-1.02-0.84c-0.56-0.89-1.01-1.86-1.67-3.1c-0.47,1.05-0.76,1.83-1.15,2.56c-0.19,0.36-0.55,0.63-0.83,0.94
				c-0.08-0.46-0.34-0.98-0.22-1.38c0.3-0.95,0.78-1.84,1.23-2.85c-1.18-0.18-2.27-0.34-3.36-0.51c0.01-0.25,0.02-0.51,0.03-0.76
				c0.97-0.05,1.95-0.11,3.12-0.18c-0.23-0.76-0.5-1.48-0.65-2.22c-0.06-0.29,0.16-0.63,0.25-0.94c0.26,0.2,0.64,0.35,0.77,0.61
				c0.35,0.7,0.59,1.45,0.94,2.36c0.84-0.94,1.52-1.72,2.21-2.5c0.19,0.14,0.39,0.27,0.58,0.41c-0.42,0.82-0.84,1.63-1.29,2.51
				c1.23,0.19,2.4,0.37,3.57,0.55C550.52,227,550.51,227.21,550.49,227.43z"/>
			<path class="st1" d="M495.86,201.71c0.94,6.33,4.01,12.33,2.96,18.93c-0.34,2.14-1.53,4.15-2.4,6.19
				c-0.11,0.25-0.66,0.31-1.01,0.46c-0.02-0.38-0.21-0.91-0.04-1.13c3.42-4.3,2.75-9.12,1.74-13.94c-0.56-2.66-1.37-5.28-1.97-7.94
				c-0.18-0.83-0.03-1.73-0.03-2.59C495.37,201.69,495.62,201.7,495.86,201.71z"/>
			<path class="st1" d="M306.96,227.77c0.3,0.25,0.61,0.5,0.99,0.82c1.51-2.35,1.49-4.92,1.44-7.48c-0.11-4.49-1.79-8.53-3.57-12.55
				c-0.25-0.56-0.33-1.21-0.48-1.81c0.13-0.06,0.25-0.12,0.38-0.18c0.23,0.16,0.57,0.27,0.68,0.5c2.47,5.26,4.66,10.62,4.12,16.59
				c-0.17,1.86-0.92,3.68-1.59,5.45c-0.14,0.37-1.23,0.7-1.69,0.53c-0.42-0.16-0.58-1.02-0.86-1.57
				C306.56,227.96,306.76,227.87,306.96,227.77z"/>
			<path class="st1" d="M295.09,228.03c-1.16,1.64-4.06,1.2-4.69-0.88c-0.69-2.26-1.21-4.72-1.11-7.06
				c0.19-4.48,0.86-8.94,1.39-13.41c0.04-0.31,0.46-0.58,0.7-0.86c0.15,0.36,0.45,0.74,0.41,1.08c-0.3,2.77-0.78,5.52-0.96,8.29
				c-0.19,3.08-0.33,6.2-0.1,9.28c0.21,2.78,0.93,3.18,3.66,3.27C294.63,227.75,294.85,227.92,295.09,228.03z"/>
			<path class="st1" d="M337.13,364.96c0.2-0.08,0.4-0.17,0.61-0.24c3.53-1.21,4.39-4.14,4.6-7.37c0.3-4.6-1.49-8.83-2.53-13.19
				c-0.14-0.59-0.16-1.21-0.24-1.82c0.18-0.06,0.35-0.11,0.53-0.16c0.21,0.32,0.53,0.61,0.61,0.96c0.95,4,2.01,7.99,2.74,12.04
				c0.49,2.69-0.04,5.4-1.59,7.7c-0.71,1.05-1.88,1.83-2.94,2.6c-0.36,0.26-1.01,0.13-1.53,0.17
				C337.32,365.41,337.23,365.18,337.13,364.96z"/>
			<path class="st1" d="M585.63,223.82c0.42-0.32,0.78-0.6,1.13-0.87c0.15,0.07,0.31,0.13,0.47,0.2c-0.17,0.48-0.21,1.22-0.53,1.38
				c-0.53,0.26-1.53,0.42-1.83,0.13c-1-0.99-2.16-2.09-2.58-3.36c-1.73-5.26-0.85-10.35,1.68-15.17c0.43-0.82,1.09-1.79,2.36-0.93
				C581.6,210.88,581.22,220.17,585.63,223.82z"/>
			<path class="st1" d="M278.98,389.38c1.11,0.15,2.01,0.28,2.92,0.41c0.02,0.21,0.03,0.43,0.04,0.65
				c-0.99,0.16-1.98,0.33-3.21,0.53c-0.09,1.28-0.29,2.65-0.25,4.01c0.05,1.85,1.14,2.37,2.84,1.55c0.33-0.16,0.78-0.07,1.17-0.1
				c-0.23,0.38-0.39,1.02-0.69,1.09c-0.99,0.22-2.27,0.64-2.96,0.21c-0.78-0.48-1.31-1.76-1.47-2.77c-0.21-1.28,0.05-2.64,0.12-4.06
				c-1.01,0-1.88,0-2.76,0c-0.04-0.19-0.08-0.38-0.12-0.57c0.98-0.31,1.97-0.61,3.1-0.96c0.2-1.63,0.42-3.36,0.65-5.1
				c0.25,0.01,0.5,0.02,0.75,0.03c0.03,0.8,0.09,1.6,0.07,2.4C279.15,387.55,279.05,388.4,278.98,389.38z"/>
			<path class="st1" d="M594.39,203.04c0.1,0.24,0.22,0.47,0.29,0.72c1.09,3.9,2.28,7.78,3.22,11.72c0.82,3.43,0.56,6.82-1.5,9.84
				c-0.26,0.38-0.85,0.53-1.29,0.79c0.11-0.46,0.09-0.99,0.33-1.36c2.46-3.86,1.89-7.85,0.59-11.89c-0.74-2.29-1.52-4.56-2.17-6.87
				c-0.23-0.82-0.14-1.74-0.19-2.61C593.92,203.27,594.15,203.15,594.39,203.04z"/>
			<path class="st1" d="M401.12,334.56c-1.06,1.27-2.12,2.54-3.37,4.02c-0.1-0.56-0.31-1-0.18-1.16c1.06-1.29,2.03-2.72,3.33-3.7
				c1.06-0.8,2.07-0.1,1.87,1.26c-0.25,1.72-0.84,3.4-1.32,5.09c-0.4,1.38-0.92,2.73-1.31,4.11c-0.35,1.25,0.19,1.71,1.43,1.4
				c0.52-0.13,1.05-0.34,1.56-0.32c0.45,0.02,0.89,0.32,1.33,0.5c-0.04,0.17-0.09,0.34-0.13,0.52c-1.24,0.16-2.47,0.38-3.71,0.47
				c-1.22,0.09-1.89-0.64-1.67-1.78c0.34-1.77,0.88-3.5,1.39-5.23c0.47-1.6,0.99-3.18,1.49-4.77
				C401.59,334.84,401.35,334.7,401.12,334.56z"/>
			<path class="st1" d="M267.75,250.06c0.47,0.26,1.12,0.38,1.33,0.76c2.91,5.28,5.02,10.78,2.73,16.83
				c-0.6,1.59-2.12,2.84-3.27,4.2c-0.11,0.13-0.62-0.07-0.94-0.11c0.12-0.27,0.16-0.62,0.36-0.78c4.04-3.27,4.25-7.64,3.12-12.12
				C270.35,255.92,268.97,253.19,267.75,250.06z"/>
			<path class="st1" d="M595.4,343.08c-0.18,0.67-0.31,1.26-0.49,1.85c-0.88,2.91-1.91,5.78-2.6,8.74c-0.49,2.1-0.34,4.31,0.8,6.25
				c0.72,1.22,1.55,2.48,3.36,2.1c0.16-0.04,0.53,0.22,0.56,0.4c0.04,0.21-0.15,0.65-0.28,0.67c-0.64,0.06-1.4,0.24-1.93-0.02
				c-2.33-1.11-3.46-3.14-3.71-5.63c-0.49-4.98,1.02-9.52,3.18-13.9c0.09-0.18,0.27-0.32,0.43-0.44
				C594.8,343.03,594.94,343.08,595.4,343.08z"/>
			<path class="st1" d="M626.82,206.57c0.04,0.56,0.21,1.14,0.11,1.66c-0.58,2.93-1.26,5.85-1.82,8.78
				c-0.23,1.2-0.22,2.44-0.36,3.66c-0.11,1.05,0.41,1.5,1.38,1.48c1.23-0.02,2.45-0.15,3.68-0.14c0.4,0,0.79,0.3,1.19,0.46
				c-0.35,0.23-0.7,0.64-1.07,0.66c-1.49,0.09-2.99,0.11-4.48,0.07c-1.29-0.04-2.03-0.78-1.86-2.07c0.42-3.11,0.9-6.22,1.43-9.32
				c0.3-1.76,0.76-3.49,1.15-5.24C626.39,206.57,626.6,206.57,626.82,206.57z"/>
			<path class="st1" d="M230.64,208.07c1.5,0.35,1.36,1.52,1.32,2.43c-0.13,3.42-0.38,6.83-0.58,10.25
				c-0.01,0.21-0.04,0.42-0.06,0.64c-0.19,2.5,0.37,3.02,2.79,2.61c0.79-0.14,1.58-0.3,2.38-0.36c0.39-0.03,0.79,0.16,1.38,0.29
				c-1.26,1.12-5.62,1.81-6.5,0.97c-0.64-0.62-1.16-1.71-1.16-2.6c0-2.72,0.32-5.44,0.42-8.17
				C230.7,212.15,230.64,210.16,230.64,208.07z"/>
			<path class="st1" d="M623.06,344.26c0.18,0.17,0.46,0.31,0.52,0.52c1.28,4.24,2.66,8.46,3.72,12.76c0.32,1.3-0.14,2.85-0.42,4.24
				c-0.3,1.48-1.56,2.09-2.87,2.52c-0.23,0.08-0.56-0.13-0.84-0.2c0.11-0.26,0.15-0.7,0.33-0.77c3.77-1.5,2.95-4.65,2.37-7.38
				c-0.72-3.33-2-6.54-3.01-9.81c-0.17-0.56-0.19-1.16-0.27-1.74C622.75,344.36,622.91,344.31,623.06,344.26z"/>
			<path class="st1" d="M379.6,372.88c-3.28,2.91-3.07,6.76-3.61,10.32c-0.17-0.03-0.34-0.07-0.51-0.1
				c-0.13-0.26-0.36-0.52-0.36-0.78c-0.06-3.1,0.37-6.13,2.21-8.71c0.52-0.73,1.59-1.51,2.36-1.46c0.64,0.04,1.63,1.19,1.74,1.96
				c0.39,2.68,0.48,5.41,0.64,8.12c0.01,0.18-0.39,0.38-0.6,0.57c-0.2-0.27-0.55-0.53-0.56-0.81c-0.05-1.28,0.04-2.57-0.01-3.85
				c-0.04-1.07-0.15-2.14-0.37-3.18C380.4,374.31,380,373.73,379.6,372.88z"/>
			<path class="st1" d="M655.85,380.62c-0.37-3.65,0.33-6.94-0.98-10.31c-2.62,2.76-2.71,5.92-2.26,9.23
				c-0.17,0-0.34,0.01-0.51,0.01c-0.19-0.25-0.49-0.48-0.57-0.76c-0.87-3.24-0.03-6.15,1.92-8.75c1.01-1.34,2.51-1.04,2.76,0.67
				c0.42,2.89,0.46,5.83,0.6,8.75C656.83,379.74,656.36,380.03,655.85,380.62z"/>
			<path class="st1" d="M573,362.2c-0.27-1.14-0.71-2.27-0.79-3.42c-0.35-5.28-0.61-10.56-0.88-15.84c-0.03-0.54,0.1-1.08,0.16-1.63
				c0.17-0.03,0.34-0.06,0.51-0.08c0.16,0.47,0.44,0.93,0.47,1.41c0.32,5.17,0.58,10.35,0.89,15.52c0.05,0.84,0.31,1.67,0.42,2.51
				c0.06,0.47,0.01,0.95,0.01,1.42C573.53,362.13,573.27,362.16,573,362.2z"/>
			<path class="st1" d="M673.15,343.42c1.55,0.41,2.84,0.73,4.09,1.12c0.08,0.03,0.01,0.55,0.01,0.73
				c-1.15-0.08-2.18-0.15-3.22-0.22c-1.58-0.11-2.15-0.7-1.9-2.27c0.24-1.58,0.69-3.12,1.02-4.69c0.21-0.99,0.47-1.99,0.5-2.99
				c0.03-0.68-0.3-1.37-0.47-2.05c-0.68,0.25-1.37,0.48-2.03,0.77c-0.23,0.1-0.38,0.4-0.61,0.5c-0.3,0.13-0.64,0.14-0.96,0.21
				c0.08-0.36,0.04-0.88,0.26-1.06c0.7-0.56,1.44-1.14,2.27-1.45c1.51-0.59,2.79,0.25,2.69,1.88c-0.12,1.96-0.54,3.89-0.87,5.83
				C673.71,340.99,673.4,342.23,673.15,343.42z"/>
			<path class="st1" d="M295.94,368.74c-0.48,0.06-1.01,0.02-1.44,0.2c-0.61,0.25-1.42,0.55-1.63,1.05
				c-0.21,0.49,0.03,1.47,0.43,1.86c0.87,0.84,1.96,1.45,2.97,2.14c1.08,0.74,2.64,1.2,2.51,2.82c-0.13,1.69-1.73,2.02-3.01,2.5
				c-0.74,0.28-1.54,0.48-2.32,0.56c-0.41,0.04-0.86-0.25-1.22-0.77c1.29-0.38,2.61-0.7,3.88-1.18c0.56-0.21,1.01-0.72,1.5-1.1
				c-0.44-0.49-0.81-1.08-1.33-1.47c-1.24-0.92-2.76-1.56-3.75-2.68c-0.65-0.74-1.03-2.32-0.68-3.15c0.36-0.84,1.74-1.31,2.76-1.75
				c0.34-0.14,0.93,0.3,1.4,0.47C295.99,368.39,295.97,368.57,295.94,368.74z"/>
			<path class="st1" d="M257.14,251.02c-0.18,0.53-0.3,1.1-0.55,1.59c-1.78,3.44-2.32,7.1-1.75,10.88c0.32,2.11,1.17,4.01,3.48,4.78
				c0.23,0.08,0.35,0.45,0.52,0.69c-0.31,0.12-0.64,0.39-0.92,0.33c-1.67-0.33-2.64-1.57-3.37-2.95
				c-1.95-3.65-1.03-12.01,1.61-15.16c0.13-0.15,0.33-0.23,0.5-0.34C256.83,250.9,256.99,250.96,257.14,251.02z"/>
			<path class="st1" d="M315.72,362.88c0.42-0.35,0.67-0.63,0.97-0.8c0.51-0.28,1.09-0.45,1.6-0.74c1.43-0.83,1.46-1.48,0.15-2.5
				c-1.18-0.91-2.47-1.72-3.51-2.77c-1.63-1.64-1.58-4.62,0.02-5.93c0.39-0.32,1.08-0.5,1.57-0.39c0.28,0.06,0.4,0.81,0.63,1.32
				c-2.11,0.13-2.92,2.07-1.69,3.77c0.61,0.84,1.52,1.48,2.33,2.16c0.66,0.54,1.55,0.89,2.02,1.55c0.43,0.61,0.71,1.59,0.54,2.28
				C320.01,362.23,317.57,363.3,315.72,362.88z"/>
			<path class="st1" d="M387.57,374.11c0,3.61,0,7.06,0,10.51c-0.19,0.04-0.38,0.09-0.57,0.13c-0.21-0.72-0.58-1.44-0.6-2.17
				c-0.07-2.77-0.03-5.54-0.03-8.38c-1.66-0.12-2.94-0.21-4.22-0.31c-0.01-0.18-0.01-0.35-0.02-0.53c0.29-0.14,0.59-0.4,0.89-0.41
				c2.03-0.04,4.06-0.07,6.08,0.01c0.4,0.02,0.77,0.52,1.15,0.8c-0.41,0.12-0.82,0.28-1.23,0.33
				C388.55,374.16,388.07,374.11,387.57,374.11z"/>
			<path class="st1" d="M570.62,384.19c-0.11,1.12-0.23,2.25-0.37,3.56c0.74,0,1.37-0.07,1.97,0.02c0.44,0.07,0.84,0.37,1.26,0.57
				c-0.39,0.18-0.76,0.45-1.16,0.53c-0.61,0.11-1.25,0.09-1.94,0.13c-0.14,1.58-0.26,3.15,0.99,4.07c0.52,0.38,1.72-0.17,2.97-0.34
				c-0.12,0.33-0.15,0.94-0.47,1.23c-1.4,1.29-3.64,0.63-4.24-1.26c-0.33-1.05-0.44-2.18-0.65-3.28c-0.91,0-1.8,0-2.7,0
				c-0.04-0.13-0.09-0.26-0.13-0.39c0.3-0.19,0.6-0.52,0.91-0.54c1.59-0.13,2.34-0.84,2.24-2.53c-0.04-0.62,0.45-1.28,0.7-1.92
				C570.2,384.09,570.4,384.14,570.62,384.19z"/>
			<path class="st1" d="M598.36,360.07c0.66-0.43,1.3-0.88,1.97-1.28c2.18-1.32,2.26-2.25,0.24-3.82c-0.88-0.69-1.89-1.23-2.74-1.94
				c-1.04-0.86-1.51-2.03-0.86-3.29c0.62-1.21,1.68-1.94,3.13-1.78c0.26,0.03,0.49,0.28,0.74,0.43c-0.23,0.21-0.45,0.45-0.71,0.63
				c-0.73,0.51-1.98,0.91-2.08,1.52c-0.11,0.64,0.76,1.57,1.39,2.19c0.79,0.78,1.83,1.3,2.65,2.06c1.57,1.46,1.5,3.02-0.21,4.32
				c-0.94,0.71-1.92,1.59-3.21,1.47C598.55,360.42,598.45,360.24,598.36,360.07z"/>
			<path class="st1" d="M270.9,352.36c-0.47,0.03-0.96,0.18-1.4,0.07c-5.08-1.27-10.27-1.43-15.47-1.47c-0.58,0-1.18-0.05-1.75-0.19
				c-0.23-0.06-0.39-0.42-0.58-0.64c0.24-0.15,0.5-0.46,0.73-0.43c5.69,0.49,11.38,1.01,17.07,1.57c0.51,0.05,0.99,0.39,1.48,0.6
				C270.95,352.03,270.92,352.19,270.9,352.36z"/>
			<path class="st1" d="M222.07,217.99c-6.16,0.49-12.09-1.54-18.18-1.81c-0.04-0.21-0.08-0.41-0.13-0.62
				c0.55-0.14,1.12-0.46,1.65-0.41c2.23,0.24,4.44,0.64,6.66,0.9c2.91,0.35,5.84,0.61,8.75,0.94c0.47,0.05,0.92,0.21,1.38,0.32
				C222.17,217.53,222.12,217.76,222.07,217.99z"/>
			<path class="st1" d="M287.51,392.72c1.14,0,2.04-0.05,2.92,0.03c0.34,0.03,0.65,0.35,0.98,0.53c-0.32,0.2-0.63,0.53-0.98,0.58
				c-0.94,0.13-1.89,0.14-2.82,0.19c-0.26,2.54,0.77,3.56,2.87,2.65c0,0.5,0.16,1.05-0.04,1.27c-0.27,0.3-0.84,0.52-1.24,0.47
				c-1.58-0.19-2.33-1.29-2.79-2.73c-0.23-0.73-0.67-1.4-1.1-2.28c1.71-0.67,1.29-2.87,2.13-4.44c0.16-0.31,0.56-0.48,0.85-0.72
				c0.07,0.36,0.27,0.76,0.19,1.08C288.23,390.43,287.88,391.48,287.51,392.72z"/>
			<path class="st1" d="M368.14,382.37c1.24-0.38,2.48-0.77,3.72-1.15c0.14-0.21,0.28-0.41,0.42-0.61c-1.14-0.94-2.41-1.76-3.4-2.84
				c-1.78-1.93-1.13-4.76,1.17-5.49c0.4-0.13,1.04-0.12,1.33,0.11c0.29,0.24,0.29,0.83,0.32,0.93c-0.98,0.37-2.15,0.51-2.24,0.91
				c-0.21,0.86-0.12,2.01,0.32,2.75c0.58,0.97,1.65,1.65,2.46,2.5c1.3,1.38,1.08,2.9-0.7,3.5c-0.99,0.34-2.19,0.06-3.3,0.06
				C368.21,382.82,368.17,382.59,368.14,382.37z"/>
			<path class="st1" d="M358.88,380.3c-0.27,2.58,2.23,2.41,3.42,3.51c-1.25,0.87-3.64-0.15-4.35-1.67
				c-0.98-2.12,0.05-5.88,1.36-6.98c0.31-0.26,0.81-0.31,1.22-0.45c-0.11,0.39-0.16,0.79-0.34,1.15c-0.43,0.88-0.92,1.72-1.61,3.01
				c1.49,0,2.5-0.05,3.51,0.02c0.52,0.03,1.03,0.25,1.55,0.39c-0.45,0.24-0.87,0.61-1.34,0.68
				C361.21,380.15,360.09,380.19,358.88,380.3z"/>
			<path class="st1" d="M580.06,391.11c0.77,0.8,1.54,1.59,2.31,2.39c-0.68,0.81-1.34,0.72-2.33-0.53
				c-0.62-0.78-1.14-1.62-1.69-2.43c0.15-0.89,0.13-1.9,0.5-2.74c0.48-1.07,1.25-2.02,1.99-2.94c0.14-0.17,0.71,0.02,1.09,0.05
				c-0.16,0.29-0.25,0.69-0.51,0.87c-1.26,0.85-1.66,2.03-1.47,3.66c1.32-0.09,2.63-0.21,3.94-0.24c0.29-0.01,0.59,0.27,0.89,0.42
				c-0.25,0.22-0.47,0.6-0.75,0.65c-1.21,0.18-2.42,0.26-3.64,0.39C580.28,390.8,580.17,390.96,580.06,391.11z"/>
			<path class="st1" d="M554.34,352.22c2.24,0,4.48-0.03,6.72,0.02c0.57,0.01,1.17,0.17,1.68,0.42c0.2,0.1,0.3,0.62,0.26,0.93
				c-0.02,0.14-0.51,0.33-0.77,0.3c-1.35-0.17-2.68-0.57-4.03-0.59c-3.79-0.06-7.57,0.02-11.36,0.02c-0.31,0-0.62-0.17-0.93-0.27
				c0.25-0.29,0.45-0.65,0.76-0.83c0.25-0.15,0.62-0.09,0.94-0.09c2.24-0.01,4.48,0,6.73,0
				C554.34,352.15,554.34,352.19,554.34,352.22z"/>
			<path class="st1" d="M600.74,215.85c0.5-0.22,1-0.62,1.5-0.64c4.27-0.13,8.53-0.2,12.8-0.27c0.42-0.01,0.86,0.05,1.26,0.19
				c0.19,0.06,0.46,0.44,0.41,0.55c-0.1,0.24-0.39,0.57-0.6,0.57c-5.05,0.04-10.09,0.04-15.13,0.05
				C600.89,216.15,600.81,216,600.74,215.85z"/>
			<path class="st1" d="M575.94,374.75c1.36-0.48,2.72-0.96,4.08-1.44c0.08,0.19,0.16,0.38,0.25,0.58
				c-1.19,1.22-2.85,1.62-4.41,2.23c-0.35,1.92,1.4,2,2.51,2.64c-1.02,0.96-2.27,0.75-3.08-0.4c-1.52-2.15-0.59-6.91,1.67-8.26
				c0.33-0.2,0.83-0.09,1.26-0.12c-0.18,0.34-0.35,0.69-0.56,1c-0.72,1.11-1.45,2.2-2.18,3.31
				C575.63,374.44,575.78,374.59,575.94,374.75z"/>
			<path class="st1" d="M580.26,377.67c0.52-0.03,1.06-0.13,1.57-0.06c1.27,0.19,2.17-0.75,1.66-1.95c-0.36-0.87-1.06-1.58-1.55-2.4
				c-0.68-1.14-1.47-2.25-1.88-3.48c-0.19-0.56,0.23-1.6,0.72-2.02c0.48-0.41,1.4-0.3,2.46-0.48c-0.34,0.64-0.38,0.84-0.49,0.9
				c-1.93,1.04-2,1.17-0.79,3.1c0.56,0.9,1.34,1.67,1.89,2.58c0.42,0.71,1.01,1.63,0.85,2.31c-0.23,0.98-0.87,2.17-1.69,2.63
				c-0.66,0.37-1.86-0.19-2.82-0.34C580.22,378.19,580.24,377.93,580.26,377.67z"/>
			<path class="st1" d="M504.69,218.03c0.4-0.12,0.8-0.32,1.2-0.33c3.96-0.1,7.91-0.16,11.87-0.26c0.51-0.01,1.03-0.28,1.54-0.24
				c0.43,0.04,0.84,0.35,1.27,0.54c-0.33,0.33-0.66,0.94-1,0.94c-4.7,0.09-9.41,0.1-14.11,0.11c-0.23,0-0.47-0.17-0.7-0.26
				C504.73,218.36,504.71,218.19,504.69,218.03z"/>
			<path class="st1" d="M519.73,213.98c-0.4,0.26-0.83,0.78-1.21,0.74c-4.79-0.46-9.56-0.53-14.31,0.47
				c-0.13,0.03-0.29-0.09-0.52-0.16c0.13-1.35,1.27-1.38,2.08-1.42c3.68-0.17,7.36-0.23,11.04-0.29c0.84-0.01,1.69,0.11,2.53,0.16
				C519.48,213.65,519.61,213.82,519.73,213.98z"/>
			<path class="st1" d="M643.33,379.88c-2.2,1.48-4.16,0.5-4.58-1.66c-0.17-0.9-0.33-1.8-0.52-2.84c1.31-1.13,0.27-3.82,2.92-4.99
				c-0.49,1.61-0.87,2.88-1.32,4.33c1.15,0,2.02,0,2.9,0c-0.09,1.17-0.09,1.17-2.75,1.39C639.23,378.63,640.57,379.66,643.33,379.88
				z"/>
			<path class="st1" d="M614.99,209.56c1.88,1.23,3.86,2.43,4.94,4.49c0.39,0.73,0.29,2.12-0.18,2.82
				c-1.13,1.73-2.58,3.25-3.95,4.81c-0.18,0.2-0.63,0.17-0.95,0.24c0.07-0.36,0.03-0.81,0.23-1.07c1.07-1.33,2.22-2.59,3.31-3.9
				c1.04-1.24,0.96-2.43-0.28-3.49c-0.93-0.79-1.9-1.55-2.81-2.37c-0.33-0.29-0.55-0.7-0.82-1.06
				C614.64,209.88,614.82,209.72,614.99,209.56z"/>
			<path class="st1" d="M645.58,378.53c0.35,0.06,0.73,0.23,1.04,0.14c0.48-0.13,1.06-0.32,1.33-0.68c0.16-0.22-0.09-0.9-0.34-1.22
				c-0.69-0.88-1.61-1.59-2.19-2.53c-0.59-0.97-1.09-2.09-1.25-3.2c-0.2-1.38,1.26-2.54,2.61-2.32c0.22,0.04,0.41,0.26,0.61,0.4
				c-0.16,0.23-0.27,0.57-0.5,0.68c-1.88,0.95-2.11,1.63-0.82,3.4c0.84,1.16,1.98,2.11,2.75,3.31c0.35,0.54,0.44,1.76,0.09,2.11
				c-0.64,0.64-1.67,0.94-2.59,1.18c-0.25,0.07-0.68-0.56-1.04-0.86C645.38,378.81,645.48,378.67,645.58,378.53z"/>
			<path class="st1" d="M218.5,366.37c-1.42-0.85-2.55-1.31-3.38-2.08c-0.69-0.63-1.22-1.59-1.47-2.49
				c-0.13-0.48,0.36-1.47,0.83-1.7c0.55-0.27,1.41-0.04,2.08,0.15c0.25,0.07,0.38,0.63,0.56,0.96c-0.37,0-0.75,0.03-1.11-0.02
				c-0.25-0.03-0.49-0.17-0.78-0.29c-0.82,1.04-0.43,1.82,0.47,2.41c1.06,0.71,2.22,1.28,3.27,2.01c1.07,0.74,1.02,1.44-0.14,2
				c-0.81,0.39-1.7,0.66-2.57,0.86c-0.32,0.08-0.73-0.18-1.1-0.29c0.29-0.32,0.52-0.77,0.88-0.92
				C216.64,366.72,217.33,366.64,218.5,366.37z"/>
			<path class="st1" d="M316.91,215.12c1.14-1.15,13.02-1.38,14.19-0.38C330.21,215.4,318.82,215.76,316.91,215.12z"/>
			<path class="st1" d="M519.96,281.42c0.67-0.23,1.33-0.64,2-0.65c4.74-0.1,9.49-0.13,14.24-0.14c0.36,0,0.73,0.4,1.09,0.61
				c-0.39,0.17-0.78,0.49-1.18,0.49c-4.1,0.06-8.21,0.06-12.32,0.11c-1.22,0.01-2.44,0.14-3.66,0.21
				C520.07,281.83,520.01,281.63,519.96,281.42z"/>
			<path class="st1" d="M570.2,370.11c-0.51,0.36-1.21,0.62-1.47,1.12c-0.17,0.33,0.16,1.1,0.49,1.48c0.62,0.72,1.44,1.27,2.1,1.96
				c1.21,1.26,1.1,2.32-0.32,3.33c-0.6,0.43-1.27,0.79-1.94,1.11c-0.22,0.1-0.56-0.08-0.84-0.13c0.1-0.32,0.2-0.64,0.31-0.95
				c0.01-0.04,0.09-0.04,0.14-0.07c2.58-1.75,2.57-1.74,0.16-3.99c-0.91-0.85-2.04-1.83-1.25-3.11c0.51-0.82,1.7-1.28,2.67-1.71
				c0.21-0.09,0.78,0.6,1.18,0.94c-0.3,0.17-0.59,0.35-0.89,0.52C570.41,370.44,570.31,370.28,570.2,370.11z"/>
			<path class="st1" d="M289.71,375.68c-1.06,0.52-2.13,1.04-3.26,1.59c-0.05,1.08,0.17,1.95,1.59,1.99
				c0.22,0.01,0.43,0.34,0.65,0.53c-0.27,0.21-0.52,0.57-0.8,0.59c-1.21,0.07-2-0.53-2.43-1.68c-0.25-0.66-0.6-1.27-0.9-1.91
				c0.47-1.29,0.93-2.67,1.46-4.03c0.17-0.44,0.45-0.89,0.8-1.18c0.25-0.21,0.71-0.15,1.07-0.21c-0.05,0.32-0.04,0.68-0.17,0.96
				c-0.49,1.05-1.03,2.09-1.56,3.13c0.13,0.08,0.26,0.17,0.39,0.25c0.98-0.26,1.95-0.52,2.93-0.78
				C289.56,375.19,289.64,375.43,289.71,375.68z"/>
			<path class="st1" d="M253.03,354.9c2.18-1.51,15.39-0.48,16.48,1.15C264.05,355.67,258.76,355.3,253.03,354.9z"/>
			<path class="st1" d="M428.83,360.87c-0.8,0.32-1.5,0.6-2.57,1.02c1.45,0.94,2.56,1.58,3.57,2.33c1.04,0.78,2.09,1.64,1.42,3.2
				c-0.45,1.04-2.47,2.02-3.7,1.79c-0.25-0.05-0.45-0.34-0.67-0.52c0.16-0.18,0.3-0.4,0.48-0.54c0.11-0.09,0.32-0.05,0.46-0.12
				c0.82-0.41,1.63-0.84,2.44-1.26c-0.64-0.72-1.21-1.52-1.94-2.15c-0.68-0.59-1.59-0.91-2.26-1.51c-0.91-0.82-0.65-1.78,0.16-2.51
				C427.04,359.85,427.95,359.66,428.83,360.87z"/>
			<path class="st1" d="M528.61,348.37c0.1,0.54,0.25,1.07,0.29,1.61c0.27,4.06,0.53,8.12,0.76,12.17c0.02,0.3-0.24,0.62-0.37,0.93
				c-0.26-0.21-0.73-0.4-0.75-0.62c-0.27-4.54-0.49-9.08-0.69-13.62c-0.01-0.16,0.22-0.33,0.34-0.49
				C528.32,348.36,528.47,348.37,528.61,348.37z"/>
			<path class="st1" d="M522.36,283.75c0.33-0.14,0.65-0.39,0.99-0.41c4-0.25,8-0.47,11.99-0.69c0.32-0.02,0.69-0.05,0.95,0.08
				c0.27,0.14,0.43,0.48,0.64,0.74c-0.26,0.13-0.51,0.36-0.77,0.37c-3.99,0.22-7.99,0.42-11.99,0.59c-0.58,0.03-1.17-0.13-1.75-0.21
				C522.4,284.06,522.38,283.91,522.36,283.75z"/>
			<path class="st1" d="M218.46,256.3c0.36-0.27,0.7-0.73,1.08-0.77c1.56-0.15,4.38,1.83,4.92,3.35c0.61,1.74-0.08,3.94-1.66,5.16
				c-0.33,0.26-0.71,0.51-1.11,0.61c-0.24,0.07-0.56-0.14-0.84-0.22c0.12-0.26,0.16-0.59,0.36-0.76c0.43-0.39,1.03-0.61,1.38-1.06
				c0.82-1.06,1.33-2.29,0.67-3.58c-0.77-1.5-2.24-2.03-3.81-2.29c-0.24-0.04-0.49-0.01-0.74-0.01
				C218.63,256.59,218.55,256.45,218.46,256.3z"/>
			<path class="st1" d="M548.13,356.51c2.36-1.83,11.86-1.02,12.56,0.55C556.51,356.88,552.32,356.7,548.13,356.51z"/>
			<path class="st1" d="M520.48,348.18c0.42-0.35,0.82-0.98,1.25-1c3.88-0.22,7.78-0.67,11.58,0.62c0.25,0.08,0.49,0.21,0.7,0.37
				c0.1,0.08,0.13,0.27,0.39,0.9c-4.69-1.09-9.14-1.39-13.61-0.53C520.69,348.42,520.58,348.3,520.48,348.18z"/>
			<path class="st1" d="M280.27,377.33c-1.11-0.74-2.09-1.21-2.81-1.94c-0.48-0.5-0.94-1.49-0.76-2.04
				c0.23-0.67,1.08-1.21,1.78-1.61c0.25-0.14,0.83,0.3,1.26,0.48c-0.3,0.22-0.6,0.43-0.91,0.65c-0.33,0.23-0.92,0.42-0.94,0.67
				c-0.04,0.38,0.23,0.92,0.54,1.17c0.75,0.59,1.62,1.01,2.4,1.56c0.93,0.66,0.91,1.45-0.02,2.05c-0.99,0.65-1.99,1.5-3.27,1.06
				c-0.07-0.17-0.14-0.34-0.2-0.51C278.23,378.41,279.11,377.94,280.27,377.33z"/>
			<path class="st1" d="M318.86,218.11c0.38-0.14,0.76-0.4,1.14-0.41c3.26-0.13,6.52-0.23,9.79-0.27c0.49-0.01,0.97,0.39,1.46,0.59
				c-0.48,0.19-0.95,0.53-1.43,0.55c-3.05,0.11-6.1,0.14-9.14,0.19c-0.56,0.01-1.13,0-1.69,0
				C318.94,218.54,318.9,218.33,318.86,218.11z"/>
			<path class="st1" d="M226.08,217.1c-0.39,0.95-0.62,1.54-0.86,2.13c-0.33,0.77-0.65,1.54-1.01,2.29
				c-0.12,0.25-0.37,0.44-0.55,0.66c-0.19-0.26-0.58-0.56-0.54-0.77c0.17-0.76,0.36-1.56,0.76-2.2c1.27-2.04,1.02-2.85-1.26-3.68
				c-0.85-0.31-1.72-0.6-2.51-1.02c-0.24-0.13-0.25-0.68-0.37-1.04c0.33,0.03,0.68,0,0.97,0.11c1.19,0.46,2.45,0.83,3.52,1.49
				C225,215.54,225.51,216.44,226.08,217.1z"/>
			<path class="st1" d="M436.18,365.75c-0.14,1.1-0.24,1.89-0.34,2.69c-0.22,0.02-0.44,0.04-0.66,0.06
				c-0.14-0.83-0.29-1.67-0.45-2.61c-0.97-0.11-1.97-0.21-2.97-0.33c-0.01-0.21-0.03-0.42-0.04-0.63c0.94-0.16,1.88-0.32,3-0.51
				c0.07-0.92,0.16-1.96,0.24-3.01c0.21-0.03,0.42-0.06,0.64-0.09c0.11,0.56,0.33,1.13,0.32,1.68c-0.03,1.12,0.16,1.89,1.53,1.77
				c0.34-0.03,0.74,0.14,1.05,0.33c0.18,0.11,0.37,0.52,0.3,0.62c-0.14,0.21-0.47,0.43-0.7,0.42
				C437.49,366.08,436.88,365.9,436.18,365.75z"/>
			<path class="st1" d="M297.35,397.83c-0.83-1.2-1.12-10.19-0.44-11.2C297.82,387.52,298.24,396.55,297.35,397.83z"/>
			<path class="st1" d="M661.64,378.55c-0.15,0.41-0.37,1.01-0.59,1.61c-0.25-0.62-0.63-1.21-0.72-1.84
				c-0.32-2.16-0.59-4.34-0.77-6.51c-0.04-0.52,0.29-1.07,0.45-1.61c0.21,0.48,0.52,0.94,0.61,1.44
				C660.98,373.84,661.27,376.06,661.64,378.55z"/>
			<path class="st1" d="M246.27,360.65c-3.09,0-6.18,0-9.47,0C238.43,358.76,245.64,358.97,246.27,360.65z"/>
			<path class="st1" d="M241.74,360.79c0.1,0.42,0.29,0.83,0.29,1.24c0.03,2.13,0.05,4.25-0.01,6.38c-0.01,0.38-0.35,0.75-0.54,1.13
				c-0.21-0.36-0.59-0.72-0.6-1.08c-0.06-2.18-0.05-4.36-0.02-6.54c0-0.37,0.19-0.75,0.29-1.12
				C241.36,360.8,241.55,360.8,241.74,360.79z"/>
			<path class="st1" d="M671.25,358.17c0,3.12,0,6.24,0,9.4c-1.06-0.83-1.36-7.65-0.47-9.38
				C670.94,358.18,671.1,358.18,671.25,358.17z"/>
			<path class="st1" d="M598.71,288.54c0.03,1.35,0,2.71,0.09,4.06c0.09,1.31-0.31,2.82,1.28,3.67c-0.45,1.17-1.31,1.18-1.71,0.3
				c-1.16-2.58-0.87-5.31-0.62-7.99C598.07,288.56,598.39,288.55,598.71,288.54z"/>
			<path class="st1" d="M634.55,380.18c-0.12-0.35-0.34-0.7-0.35-1.05c-0.03-2.18-0.04-4.37,0.01-6.55c0.01-0.36,0.4-0.7,0.62-1.05
				c0.17,0.34,0.48,0.68,0.48,1.03c0.04,2.18,0.03,4.36,0,6.55c0,0.34-0.19,0.68-0.29,1.01
				C634.87,380.14,634.71,380.16,634.55,380.18z"/>
			<path class="st1" d="M400.58,360.23c0.27,2.74,0.56,5.48,0.77,8.22c0.03,0.34-0.36,0.7-0.74,0.99c-0.9-3.08-1.19-6.1-0.68-9.17
				C400.15,360.26,400.37,360.24,400.58,360.23z"/>
			<path class="st1" d="M301.15,386.83c-1.28-0.19-2.27-0.41-3.26-0.47c-1.49-0.08-2.98-0.02-4.46-0.1
				c-0.34-0.02-0.66-0.37-0.99-0.57c0.36-0.2,0.71-0.56,1.07-0.56c2.23,0.01,4.47,0.07,6.69,0.19c0.4,0.02,0.94,0.31,1.12,0.64
				C301.47,386.23,301.17,386.75,301.15,386.83z"/>
			<path class="st1" d="M588.96,384.79c0.26,0.65,0.49,0.97,0.51,1.29c0.05,2.14,0.07,4.28,0.05,6.42c0,0.3-0.3,0.59-0.47,0.88
				c-0.21-0.24-0.6-0.49-0.61-0.74c-0.07-2.3-0.09-4.6-0.09-6.89C588.35,385.55,588.6,385.34,588.96,384.79z"/>
			<path class="st1" d="M441.63,361.76c0.23,0.64,0.43,0.98,0.46,1.33c0.19,2.18,0.35,4.36,0.48,6.54c0.01,0.24-0.29,0.49-0.45,0.73
				c-0.24-0.17-0.67-0.33-0.68-0.51c-0.17-2.4-0.29-4.8-0.39-7.2C441.03,362.47,441.28,362.27,441.63,361.76z"/>
			<path class="st1" d="M593.61,384.53c-0.46-0.03-0.93-0.04-1.38-0.09c-2.01-0.2-4.01-0.39-6.01-0.61
				c-0.31-0.04-0.59-0.25-0.88-0.38c0.19-0.23,0.36-0.63,0.56-0.65c2.7-0.26,5.35-0.19,7.79,1.09
				C593.66,384.1,593.63,384.31,593.61,384.53z"/>
			<path class="st1" d="M445.8,361.8c-1.03,0-1.97,0-2.92,0c-1.22,0-2.45,0.04-3.66-0.01c-0.24-0.01-0.48-0.3-0.72-0.46
				c0.14-0.2,0.29-0.58,0.42-0.57c2.24,0.09,4.48,0.24,6.71,0.38C445.67,361.15,445.69,361.33,445.8,361.8z"/>
			<path class="st1" d="M353.25,384.55c-1.1-1.24-1.41-6.9-0.1-8.66c0.21,3.16,0.4,5.89,0.58,8.61
				C353.58,384.52,353.42,384.53,353.25,384.55z"/>
			<path class="st1" d="M376.66,229.43c-1.23-1.18-2.05-5.89-1.24-7.16C376.26,223.1,377.2,228.53,376.66,229.43z"/>
			<path class="st1" d="M656.96,369.7c1.31-1.47,4.78-1.74,6.36-0.63c0.36,0.25,0.48,0.84,0.49,1.5
				C661.72,368.72,659.3,370,656.96,369.7z"/>
			<path class="st1" d="M608.53,363.89c-0.24,0.32-0.49,0.64-0.73,0.96c-0.21-0.32-0.56-0.63-0.59-0.97
				c-0.14-1.48-0.21-2.97-0.22-4.46c0-0.37,0.36-0.74,0.55-1.1c0.2,0.38,0.57,0.74,0.58,1.13c0.07,1.43,0.03,2.87,0.03,4.3
				C608.28,363.8,608.4,363.85,608.53,363.89z"/>
			<path class="st1" d="M324.11,362.44c0.22-0.51,0.52-1.2,0.81-1.89c0.16,0.72,0.33,1.44,0.47,2.16c0.17,0.82,0.35,1.64,0.46,2.47
				c0.05,0.33-0.06,0.69-0.1,1.04c-0.35-0.17-0.93-0.27-1.01-0.52C324.47,364.73,324.35,363.73,324.11,362.44z"/>
			<path class="st1" d="M520.68,366.17c0-1.87-0.01-3.73,0.02-5.59c0-0.11,0.32-0.3,0.47-0.29c0.17,0.01,0.46,0.21,0.46,0.33
				c0.03,1.85,0.02,3.71,0.02,5.57C521.33,366.18,521.01,366.18,520.68,366.17z"/>
			<path class="st1" d="M551.76,210.16c1.6,0.7,1.4,1.89,1.38,3.01c0,0.13-0.28,0.34-0.44,0.35c-0.16,0.01-0.46-0.15-0.48-0.28
				C552.03,212.23,551.9,211.2,551.76,210.16z"/>
			<path class="st1" d="M635.31,366.4c0.24,0.27,0.5,0.45,0.62,0.71c0.25,0.52,0.43,1.07,0.64,1.6c-0.32-0.05-0.77,0.02-0.93-0.17
				C635.14,367.97,634.3,367.37,635.31,366.4z"/>
			<path class="st1" d="M633.46,283.59c-0.61-0.06-1.22-0.12-1.83-0.17c0.08-0.42,0.16-0.85,0.24-1.28c0.59,0.25,1.19,0.5,1.78,0.74
				C633.59,283.12,633.53,283.36,633.46,283.59z"/>
			<path class="st1" d="M352.36,370.99c-0.84-1.4-0.52-2.01,1.28-2.38C353.16,369.51,352.8,370.18,352.36,370.99z"/>
			<path class="st1" d="M404.65,216.3c-0.58-0.04-1.17-0.04-1.73-0.15c-0.1-0.02-0.1-0.51-0.14-0.79c0.62,0,1.25,0,1.87,0
				C404.65,215.67,404.65,215.98,404.65,216.3z"/>
			<path class="st1" d="M400,356.35c-0.33-0.53-0.71-1.05-0.96-1.62c-0.05-0.11,0.35-0.43,0.54-0.65c0.39,0.59,0.78,1.18,1.17,1.78
				C400.49,356.02,400.24,356.19,400,356.35z"/>
			<path class="st1" d="M181.56,215.38c-0.14-0.6-0.29-1.21-0.44-1.81c0.24-0.03,0.65-0.14,0.68-0.06c0.25,0.53,0.43,1.09,0.63,1.65
				C182.15,215.23,181.85,215.31,181.56,215.38z"/>
			<path class="st1" d="M554.02,222.64c-0.07,0.53-0.12,1.06-0.24,1.57c-0.01,0.05-0.66,0.01-0.66-0.01
				c-0.04-0.54-0.03-1.08-0.03-1.62C553.4,222.6,553.71,222.62,554.02,222.64z"/>
			<path class="st1" d="M660.53,291.55c-0.36-0.31-0.61-0.53-0.86-0.74c0.19-0.21,0.4-0.6,0.56-0.58c0.29,0.05,0.6,0.29,0.79,0.54
				C661.06,290.84,660.75,291.2,660.53,291.55z"/>
			<path class="st1" d="M671.72,353.05c-0.52,0.33-0.85,0.58-1.21,0.71c-0.07,0.03-0.49-0.52-0.44-0.61
				c0.18-0.28,0.47-0.56,0.77-0.66C671,352.44,671.29,352.76,671.72,353.05z"/>
			<path class="st1" d="M183.53,222.53c-0.35,0.27-0.6,0.47-0.85,0.66c-0.15-0.23-0.47-0.5-0.42-0.68c0.07-0.29,0.38-0.51,0.59-0.77
				C183.03,221.96,183.22,222.17,183.53,222.53z"/>
		</g>
	</g>
</g>
</svg>
