<?xml version="1.0" encoding="utf-8"?>
<!-- Generator: Adobe Illustrator 24.1.1, SVG Export Plug-In . SVG Version: 6.00 Build 0)  -->
<svg version="1.1" id="Слой_1" xmlns="http://www.w3.org/2000/svg" xmlns:xlink="http://www.w3.org/1999/xlink" x="0px" y="0px"
	 viewBox="0 0 841.89 595.28" style="enable-background:new 0 0 841.89 595.28;" xml:space="preserve">
<style type="text/css">
	.st0{clip-path:url(#SVGID_2_);}
	.st1{fill:#424F6F;}
</style>
<g>
	<defs>
		<rect id="SVGID_1_" x="157.84" y="195.96" width="527" height="204"/>
	</defs>
	<clipPath id="SVGID_2_">
		<use xlink:href="#SVGID_1_"  style="overflow:visible;"/>
	</clipPath>
	<g class="st0">
		<path class="st1" d="M271.88,351.54c1.79-0.26,3.59-0.46,5.36-0.8c1.15-0.22,2.25-0.68,3.39-0.92c0.38-0.08,0.83,0.21,1.25,0.33
			c-0.28,0.29-0.51,0.76-0.85,0.85c-2.1,0.56-4.19,1.18-6.33,1.5c-1.51,0.23-3.09-0.01-4.63,0.03c-0.41,0.01-0.84,0.23-1.22,0.43
			c-4.47,2.39-8.86,4.96-13.86,6.2c-1.01,0.25-2,0.74-2.9,1.27c-0.42,0.25-0.7,0.84-0.91,1.33c-0.37,0.86-0.45,1.88-0.96,2.63
			c-2.17,3.2-5.08,1.73-7.18-0.19c-0.56-0.51-1.25-1.14-1.93-1.2c-7.4-0.64-14.81-1.16-22.21-1.75c-1.16-0.09-2.36-0.19-3.46-0.54
			c-4.03-1.28-8.02-2.67-12.03-4.01c-0.35-0.12-0.73-0.15-1.1-0.22c-0.11,0.14-0.22,0.28-0.34,0.42c1.37,1.18,2.76,2.35,4.1,3.57
			c0.33,0.3,0.52,0.76,0.77,1.15c-0.51-0.02-1.18,0.15-1.5-0.11c-2.09-1.7-4.52-3.1-5.41-5.91c-0.12-0.37-0.68-0.66-1.1-0.85
			c-5.56-2.58-10.82-5.59-14.87-10.32c-1.52-1.77-2.91-3.66-4.43-5.43c-0.34-0.39-0.94-0.77-1.44-0.79
			c-2.68-0.1-4.84-2.43-3.94-4.88c0.87-2.36,0.05-4.29-0.35-6.5c-1.84-10.04-3.68-20.12,0.01-30.17c0.05-0.13,0.01-0.3,0.01-0.54
			c-0.89,0.22-1.72,0.5-2.57,0.61c-0.26,0.04-0.59-0.36-0.89-0.56c0.24-0.24,0.46-0.64,0.74-0.7c2.62-0.54,4.15-2.17,5.43-4.47
			c3.24-5.8,7.61-10.69,12.96-14.69c0.44-0.33,0.94-0.66,1.47-0.78c2.1-0.49,3.43-1.84,4.63-3.54c2.14-3.02,5.47-2.75,7.2,0.5
			c0.13,0.24,0.29,0.46,0.34,0.54c4.15-0.85,8.15-2.01,12.22-2.42c6.27-0.64,12.59-0.68,18.88-1.16c2.24-0.17,4.43-0.93,6.66-1.3
			c1.48-0.24,3-0.31,4.5-0.37c0.42-0.02,0.86,0.3,1.28,0.46c-0.39,0.29-0.76,0.6-1.17,0.85c-0.22,0.14-0.5,0.19-0.74,0.36
			c11.4-0.17,22.75-0.07,34.03,2.5c0.06-0.1,0.19-0.27,0.3-0.45c1.89-3.27,2.87-3.63,6.49-2.41c1.44,0.49,2.21,1.58,2.29,2.99
			c0.08,1.37,0.04,2.79-0.25,4.13c-0.55,2.56-1.52,3.32-4.01,2.73c-1.7-0.4-2.44,0.31-3.17,1.49c-2.91,4.68-5.84,9.36-8.74,14.06
			c-0.61,0.98-1.14,2.02-1.66,2.95c6,2.7,11.85,5.33,17.38,7.82c-0.46-0.68-1.21-1.69-1.82-2.78c-0.2-0.35-0.04-0.88-0.05-1.34
			c0.38,0.21,0.86,0.35,1.12,0.66c0.97,1.14,1.92,2.3,2.8,3.51c1.98,2.72,3.92,5.47,5.87,8.21c0.58,0.82,1.01,1.77,1.69,2.48
			c0.94,1,1.79,2.09,3.64,1.27c1.73-0.78,4.59,0.41,5.17,1.69c1.11,2.44,0.65,5.36-1.25,6.67c-0.85,0.58-1.98,0.77-2.97,1.17
			c-0.33,0.13-0.74,0.29-0.91,0.56c-3.45,5.37-8.31,9.25-13.43,12.87c-4.92,3.48-9.88,6.9-14.81,10.36
			c-0.25,0.18-0.46,0.42-0.69,0.63C271.81,351.34,271.85,351.44,271.88,351.54z M280.49,277.75c-0.45-0.88-1.16-1.81-1.41-2.86
			c-0.27-1.11-0.84-1.67-1.84-1.81c-5.01-0.73-10.01-1.71-15.05-2.05c-5.62-0.38-11.28-0.17-16.92-0.2c-0.38,0-0.75,0.11-1.61,0.24
			c1.2,0.37,1.94,0.51,2.56,0.84c0.34,0.18,0.51,0.69,0.75,1.06c-0.38,0.07-0.79,0.27-1.13,0.18c-1.07-0.29-2.19-0.56-3.16-1.08
			c-1.94-1.05-3.96-1.31-6.13-1.26c-9.15,0.24-18.34,0.06-27.32,2.23c-2.75,0.66-6.04,0.58-7.38,4.85c0.49,0.34,1.44,0.8,2.12,1.52
			c5.72,6.01,11.38,12.08,17.1,18.09c0.38,0.39,1.17,0.79,1.62,0.66c5.03-1.41,10.22-1.7,15.37-2.34
			c9.93-1.22,19.72-0.57,29.49,1.29c0.45,0.09,1.24-0.3,1.49-0.7C272.88,290.24,276.64,284.05,280.49,277.75z M222.62,299.46
			c2.17,3.18,4.12,6.03,6.22,9.12c0-1.56-0.06-2.72,0.03-3.88c0.03-0.45,0.38-0.88,0.58-1.32c0.24,0.43,0.64,0.85,0.71,1.31
			c0.14,0.93,0.12,1.89,0.14,2.84c0.05,2.49,0.64,4.73,2.02,6.91c4.37,6.88,8.34,13.98,10.38,21.98c0.09,0.35,0.78,0.83,1.14,0.8
			c3.28-0.34,6.55-0.74,9.8-1.23c0.47-0.07,1.04-0.62,1.26-1.08c0.98-2.12,1.92-4.27,2.75-6.46c0.84-2.24,1.87-4.48,2.21-6.82
			c0.54-3.73,0.55-7.54,0.86-11.3c0.04-0.53,0.5-1.03,0.77-1.54c0.17,0.58,0.49,1.17,0.49,1.75c0,1.25-0.17,2.5-0.27,3.75
			c0.11,0.02,0.22,0.04,0.33,0.06c1.9-5.18,3.8-10.37,5.8-15.83C252.77,295.31,237.85,296.21,222.62,299.46z M176.66,329.9
			c6.88-10.91,16.63-18.36,27.05-25c0.01-0.18,0.05-0.3,0.02-0.4c-2.84-8.22-5.16-16.58-6.94-25.09c-0.65-3.1-2.25-3.93-5.1-2.75
			c-0.61,0.25-1.28,0.52-1.74,0.97c-2.97,2.92-6.08,5.74-8.79,8.89c-2.98,3.46-5.92,7.13-3.94,12.29c0.12,0.31-0.28,0.81-0.44,1.22
			c-0.29-0.35-0.68-0.65-0.84-1.05c-0.24-0.61-0.33-1.29-0.54-2.2C172.05,303.42,172.75,324.07,176.66,329.9z M297.39,323.79
			c0.18-1.64,0.36-2.98,0.46-4.32c0.03-0.38-0.07-0.85-0.3-1.15c-1.32-1.77-2.69-3.51-4.06-5.24c-1.43-1.82-2.67-3.82-5.59-3.35
			c-2.11,0.34-4.38-0.15-6.14,1.57c-0.14,0.13-0.74,0.07-0.83-0.08c-0.13-0.22-0.1-0.79,0.05-0.88c1.03-0.59,2.07-1.29,3.19-1.58
			c1.33-0.35,2.77-0.32,4.59-0.5c-6.17-4.39-12.68-6.9-19.65-9.34c-2.27,6.19-4.47,12.23-6.68,18.26c2.02-0.94,3.64-2.13,5.32-3.2
			c0.41-0.26,1.05-0.16,1.58-0.23c-0.27,0.42-0.44,0.95-0.81,1.23c-1.91,1.45-3.9,2.79-5.8,4.26c-0.54,0.41-0.98,1.07-1.22,1.71
			c-1.49,3.95-2.91,7.92-4.35,11.89c-0.29,0.79-0.55,1.59-0.97,2.78C270.49,331.99,284.44,328.92,297.39,323.79z M178.13,330.27
			c2.19,0.33,2.92,1.91,2.82,3.92c-0.06,1.18,0.47,1.43,1.46,1.73c7.2,2.16,14.6,2.55,22.04,2.54c0.33,0,0.7,0.01,0.97-0.14
			c1.73-0.94,3.43-1.94,5.17-2.86c0.39-0.2,0.91-0.17,1.37-0.24c0.08,0.18,0.16,0.36,0.25,0.53c-1.04,0.84-2.09,1.68-3.51,2.82
			c5.03,0,9.53,0,13.95,0c-4.14-7.1-8.25-14.14-12.58-21.57c-0.11,2.61-0.16,4.92-0.33,7.21c-0.03,0.42-0.49,0.82-0.75,1.22
			c-0.19-0.41-0.57-0.82-0.55-1.22c0.11-2.39,0.31-4.77,0.48-7.15c0.05-0.76,0.39-1.67,0.09-2.27c-1.41-2.89-2.99-5.69-4.65-8.78
			C194.26,312.66,184.66,319.61,178.13,330.27z M242.73,361.73c0.84-1.83,0.05-2.89-1.28-3.9c-6.38-4.86-12.22-10.24-16.73-16.95
			c-0.33-0.49-1.17-0.87-1.78-0.88c-4.13-0.11-8.27-0.11-12.4-0.13c-0.4,0-0.79,0.07-1.19,0.1c1.45,0.83,2.93,1.3,4.37,1.88
			c0.42,0.17,0.72,0.63,1.08,0.97c-0.5,0.09-1.06,0.39-1.48,0.24c-2.21-0.76-4.37-1.67-6.58-2.44c-1.07-0.37-2.21-0.75-3.32-0.77
			c-7.45-0.13-14.83-0.62-22.01-2.83c-0.43-0.13-0.89-0.13-1.83-0.27c1.09,1.4,1.93,2.35,2.64,3.4
			c4.22,6.21,10.22,10.14,16.87,13.28c2.43,1.15,4.87,1.82,7.59,1.25c0.97-0.2,2.01-0.15,3.01-0.07c0.46,0.04,0.88,0.43,1.32,0.66
			c-0.45,0.21-0.88,0.58-1.34,0.61c-1.2,0.09-2.41,0.03-3.62,0.03c0,0.16-0.01,0.32-0.01,0.49c0.19,0.11,0.37,0.27,0.57,0.31
			c4.9,1,9.45,3.24,14.62,3.41C228.38,360.36,235.55,361.17,242.73,361.73z M227.45,309.56c0.1-0.05,0.21-0.11,0.31-0.16
			c-1.88-2.73-3.81-5.43-5.62-8.21c-0.7-1.07-1.43-1.38-2.63-0.91c-3.27,1.27-6.57,2.46-9.86,3.7c-1.28,0.49-2.55,1.01-3.94,1.57
			c1.25,2.43,2.31,4.7,3.57,6.85c0.74,1.26,1.66,2.5,2.76,3.46c1.33,1.16,2.95,1.98,4.38,3.04c0.35,0.26,0.45,0.87,0.66,1.32
			c-0.44-0.06-0.92-0.02-1.3-0.19c-0.87-0.4-1.69-0.92-2.78-1.54c0.19,0.59,0.22,0.87,0.36,1.09c3.63,6.12,7.25,12.25,10.96,18.33
			c0.25,0.42,1.14,0.67,1.72,0.64c3.01-0.13,6.02-0.36,9.03-0.58c2.09-0.16,4.18-0.38,6.28-0.57c0-0.36,0.03-0.54-0.01-0.68
			c-0.16-0.65-0.33-1.29-0.52-1.94c-1.97-6.82-5.62-12.81-9.07-18.93c-2-3.56-5.32-5.18-8.58-7.05c-0.37-0.21-0.65-0.6-0.97-0.9
			c0.48-0.11,1.04-0.43,1.41-0.28C224.92,308.17,226.17,308.89,227.45,309.56z M273.1,348.4c0.53-0.29,0.78-0.39,1-0.54
			c5.2-3.66,10.58-7.1,15.55-11.06c3.45-2.75,6.37-6.19,9.44-9.4c0.4-0.42,0.28-1.33,0.4-2.02c-0.7-0.06-1.47-0.33-2.08-0.13
			c-3.38,1.13-6.66,2.62-10.09,3.55c-10.06,2.73-20.18,5.25-30.27,7.89c-0.5,0.13-1.15,0.56-1.29,0.99
			c-1.72,5.46-3.37,10.94-5,16.43c-0.32,1.06-0.53,2.17-0.67,3.27c-0.17,1.31,0.65,2.14,1.64,1.72c5.17-2.2,10.36-4.37,15.45-6.74
			c1.4-0.66,2.85-1.75,3.67-3.03c1.38-2.19,2.26-4.68,3.37-7.04c0.19-0.4,0.43-0.77,0.72-1.29
			C275.71,342.32,275.71,342.32,273.1,348.4z M204.8,304.38c5.42-2.08,10.3-3.95,15.32-5.87c-0.56-0.77-1.03-1.6-1.67-2.27
			c-5.17-5.38-10.44-10.67-15.52-16.14c-1.53-1.65-2.94-1.78-5.06-0.78C200.14,287.58,202.43,295.86,204.8,304.38z M226.01,340.01
			c4.52,7.68,11.35,12.86,18.42,18.55c0.46-1.06,1.26-2,1.12-2.76c-1.03-5.41-2.23-10.78-3.44-16.15c-0.08-0.34-0.78-0.8-1.16-0.77
			C236.01,339.2,231.08,339.61,226.01,340.01z M248.25,357.84c2.11-7.03,4.1-13.68,6.14-20.5c-3.83,0.48-7.39,0.94-10.92,1.38
			c-0.03,0.24-0.07,0.35-0.05,0.45c1.2,5.76,2.38,11.53,3.65,17.28C247.17,356.95,247.79,357.32,248.25,357.84z"/>
		<path class="st1" d="M420.45,348.82c-0.04,3.06-1.26,5.44-4.06,6.74c-2.21,1.02-4.45,0.98-6.45-0.61
			c-2.82-2.24-3.48-7.91-1.31-11.03c1.81-2.6,3.91-3.54,6.52-2.9c2.59,0.64,4.75,3.26,5.2,6.32
			C420.41,347.85,420.42,348.35,420.45,348.82z M414.47,342.3c0,2,0,3.9,0,5.86c1.61,0,3.04,0,4.46,0
			C418.94,345.24,417.12,342.9,414.47,342.3z M414.42,354.65c2.73-0.4,4.53-2.4,4.35-4.98c-1.41,0-2.82,0-4.34,0
			C414.43,351.36,414.43,353,414.42,354.65z M410.3,344.08c-0.6,1.43-1.15,2.73-1.82,4.34c1.71-0.08,3.06-0.15,4.44-0.22
			c0-2.13,0-3.98,0-6.23c-0.54,0.51-1.14,0.83-1.12,1.09C411.95,344.46,411.33,344.59,410.3,344.08z M412.94,349.7
			c-1.24,0-2.24-0.01-3.24,0.01c-0.26,0.01-0.52,0.11-0.77,0.17c0.21,2.87,1.68,4.61,4,4.84
			C412.94,353.08,412.94,351.43,412.94,349.7z"/>
		<path class="st1" d="M536.06,198c9.72,0,19.45,0,29.17,0c0.5,0,1.03-0.09,1.5,0.03c0.44,0.1,0.88,0.36,1.2,0.68
			c0.1,0.1-0.06,0.73-0.26,0.85c-0.4,0.22-0.92,0.39-1.38,0.34c-1.01-0.1-2.01-0.5-3.02-0.5c-18.89-0.02-37.77,0-56.66-0.02
			c-0.79,0-1.57-0.39-2.36-0.61c0.82-0.23,1.64-0.66,2.45-0.67c9.78-0.05,19.56-0.03,29.34-0.03
			C536.06,198.05,536.06,198.03,536.06,198z"/>
		<path class="st1" d="M472.4,350.15c-0.03,3.41-2.46,6.06-5.56,6.08c-3.43,0.02-6.45-3.08-6.34-6.63c0.08-2.64,0.8-4.95,3.2-6.59
			c2.54-1.73,5.37-1.49,6.9,1.18c1.02,1.78,1.5,3.86,2.22,5.81C472.67,350.05,472.53,350.1,472.4,350.15z M467.42,354.72
			c3.05-0.61,4.29-3.26,3.34-6.99c-0.82-3.22-2.57-4.83-4.52-4.21c0.14,0.87,0.34,1.73,0.42,2.6c0.08,0.94-0.26,2.09,0.18,2.76
			c0.37,0.56,1.61,0.52,2.44,0.83c0.3,0.11,0.51,0.46,0.76,0.7c-0.3,0.17-0.6,0.46-0.92,0.5c-0.64,0.08-1.29,0.02-1.97,0.02
			c-0.02,0.4-0.06,0.62-0.04,0.84C467.21,352.75,467.32,353.73,467.42,354.72z M465.84,354.76c0.4-4.09-0.34-4.79-3.78-3.58
			C462.68,353.05,463.88,354.23,465.84,354.76z M465.11,343.93c-2.35,1.57-2.27,3.37-1.55,5.42c0.56-0.03,1.12-0.05,1.55-0.07
			C465.11,347.46,465.11,345.84,465.11,343.93z"/>
		<path class="st1" d="M440.8,217c-0.58,1.29-0.98,2.46-1.62,3.49c-0.33,0.53-1.08,1.09-1.64,1.09c-0.42,0-1.15-0.84-1.21-1.36
			c-0.33-2.98-0.52-5.97-0.69-8.96c-0.01-0.26,0.41-0.54,0.63-0.81c0.21,0.33,0.58,0.66,0.61,1.01c0.14,2.11,0.17,4.22,0.3,6.33
			c0.04,0.71,0.25,1.41,0.39,2.11c0.2,0.04,0.39,0.09,0.59,0.13c0.42-1.47,0.8-2.95,1.25-4.41c0.27-0.86,0.64-1.68,0.97-2.52
			c0.45,0.76,1.03,1.46,1.32,2.28c0.51,1.4,0.83,2.88,1.28,4.31c0.27,0.88,0.14,2.23,2.15,1.5c-1.95,2.4-0.43,4.5-0.35,6.6
			c0.07,1.89,0.2,3.78,0.13,5.67c-0.07,1.83-1.48,3.31-2.93,3.33c-1.36,0.02-2.55-1.35-2.75-3.28c-0.37-3.45,0.57-6.58,2.35-9.54
			c0.4-0.67,0.61-1.63,0.48-2.39C441.81,220.08,441.26,218.62,440.8,217z M442.78,224.73c-1.95,2.97-2.62,5.93-2.11,9.11
			c0.09,0.58,0.82,1.05,1.25,1.57c0.54-0.56,1.46-1.06,1.55-1.69C443.89,230.81,443.65,227.9,442.78,224.73z"/>
		<path class="st1" d="M513.62,220.74c1.55-4.74,3.11-9.48,4.66-14.22c0.1-0.32,0.07-0.71,0.25-0.96c0.29-0.42,0.7-0.77,1.07-1.14
			c0.22,0.63,0.78,1.37,0.61,1.87c-1.21,3.54-2.57,7.03-3.89,10.54c-0.68,1.82-1.36,3.65-2.1,5.44c-0.23,0.56-0.69,1.03-1.04,1.55
			c-0.2,0-0.41-0.01-0.61-0.01c-1.35-4.65-2.69-9.31-4.04-13.96c-0.13-0.04-0.25-0.08-0.38-0.11c-0.74,2.06-1.48,4.12-2.22,6.17
			c-1.32,3.66-2.62,7.32-3.97,10.96c-0.12,0.34-0.57,0.55-0.88,0.83c-0.11-0.43-0.42-0.93-0.3-1.27c1.96-5.56,3.98-11.09,5.99-16.63
			c0.11-0.31,0.21-0.66,0.42-0.9c0.45-0.5,0.96-0.95,1.45-1.42c0.35,0.52,0.85,0.99,1.03,1.57c1.05,3.46,2.02,6.94,3.02,10.41
			c0.12,0.42,0.29,0.84,0.44,1.25C513.27,220.7,513.44,220.72,513.62,220.74z"/>
		<path class="st1" d="M511.72,270.25c0.66-1.69,1.08-3.08,1.75-4.35c0.31-0.59,1.13-1.31,1.68-1.28c0.57,0.04,1.31,0.82,1.57,1.45
			c0.61,1.48,0.98,3.06,1.56,4.97c0.41-1.17,0.68-2.08,1.03-2.95c0.45-1.13,0.81-2.33,1.45-3.35c0.86-1.35,2.27-1.29,2.81,0.2
			c0.6,1.64,0.77,3.44,1.1,5.18c0.22,1.16-0.05,2.48,1.27,3.25c0.13,0.07-0.13,0.81-0.2,1.24c-0.47-0.16-1.26-0.21-1.36-0.51
			c-0.46-1.29-0.78-2.65-1.05-4c-0.32-1.6-0.52-3.21-0.77-4.82c-0.22-0.02-0.44-0.04-0.65-0.06c-0.4,0.93-0.86,1.85-1.19,2.81
			c-0.66,1.89-1.23,3.81-1.92,5.69c-0.14,0.38-0.64,0.64-0.98,0.95c-0.2-0.37-0.49-0.71-0.59-1.1c-0.59-2.53-1.13-5.06-1.95-7.58
			c-1.72,1.99-2.03,4.31-2.32,6.67c-0.11,0.91-0.49,1.79-0.74,2.68c-0.39-0.83-0.86-1.64-1.17-2.49c-0.78-2.2-1.53-4.41-2.2-6.66
			c-0.14-0.47,0.13-1.06,0.21-1.6c0.34,0.41,0.8,0.77,0.99,1.24C510.64,267.2,511.11,268.62,511.72,270.25z"/>
		<path class="st1" d="M388.26,209.86c-0.65-0.56-1-0.87-1.35-1.18c0.38-0.35,0.72-0.95,1.15-1.03c3.07-0.55,6.11,1.07,5.89,4.55
			c-0.1,1.63-0.62,3.24-0.99,5.06c0.78,0.06,1.58,0.12,2.39,0.18c0.61,0.04,1.23,0.03,1.83,0.13c1.98,0.33,3.35,1.46,3.43,2.91
			c0.1,1.85-1.06,2.94-2.61,3.48c-1.55,0.55-3.21,0.82-4.84,1.1c-0.32,0.05-0.73-0.45-1.1-0.69c0.39-0.2,0.76-0.49,1.18-0.6
			c1.44-0.38,2.97-0.53,4.32-1.11c0.72-0.31,1.72-1.49,1.57-1.98c-0.22-0.74-1.25-1.47-2.08-1.74c-1.03-0.32-2.21-0.13-3.32-0.2
			c-2.38-0.16-2.68-0.69-1.94-2.91c0.39-1.15,0.75-2.35,0.85-3.56c0.17-1.94-0.93-3.03-3.19-3.25c0.41,4.28,0.83,8.53,1.2,12.78
			c0.03,0.4-0.19,0.82-0.29,1.23c-0.35-0.28-0.87-0.49-1-0.85c-0.23-0.67-0.27-1.42-0.32-2.14
			C388.77,216.56,388.5,213.06,388.26,209.86z"/>
		<path class="st1" d="M341.83,265.95c0.91,1.67,1.94,3.14,2.54,4.77c0.71,1.93-0.36,3.23-2.44,3.37c-3.05,0.21-6.39-2.03-7.33-5.05
			c-1.34-4.32-0.64-8.28,2.55-11.6c1.68-1.75,3.88-2.41,6.26-2.12c1.63,0.2,2.27,1.36,1.57,2.47c-2.88-1.85-5.43-1.35-7.69,1.5
			c-3.07,3.87-2.58,9.91,1.01,12.42c1.59,1.12,4.18,1.53,4.64,0.61c0.82-1.64-0.4-2.86-1.29-4.01c-0.56-0.73-1.41-1.25-2.15-1.83
			c-0.83-0.66-0.77-1.41,0.22-1.51c2.48-0.26,4.98-0.31,7.47-0.32c0.35,0,0.71,0.68,1.06,1.05c-0.46,0.08-0.91,0.23-1.36,0.24
			C345.13,265.96,343.38,265.95,341.83,265.95z"/>
		<path class="st1" d="M344.38,307.06c1.29,0.27,2.44,0.51,3.58,0.74c-0.04,0.24-0.07,0.48-0.11,0.72c-1.1,0-2.2,0-3.55,0
			c0.16,2.71,0.27,5.18,0.45,7.65c0.23,3.1,0.56,6.19,0.75,9.29c0.03,0.48-0.51,1.01-0.78,1.51c-0.27-0.46-0.76-0.89-0.79-1.36
			c-0.34-5.55-0.62-11.1-0.92-16.85c-1.49,0-2.81,0.04-4.13-0.02c-0.37-0.02-0.72-0.31-1.08-0.48c0.35-0.27,0.68-0.76,1.06-0.79
			c1.26-0.1,2.54-0.04,3.98-0.04c0-1.9-0.19-3.58,0.05-5.19c0.31-2.11,0.77-4.25,1.56-6.22c0.32-0.81,1.65-1.22,2.52-1.81
			c0.46,0.93,1.03,1.83,1.33,2.82c0.17,0.56-0.11,1.26-0.2,1.89c-0.24,0.01-0.48,0.02-0.72,0.03c-0.2-1.06-0.41-2.12-0.61-3.19
			C344.25,296.46,343.82,302.31,344.38,307.06z"/>
		<path class="st1" d="M302.55,210.55c0.72,4.39,1.42,8.44,2.03,12.5c0.07,0.47-0.34,1.01-0.52,1.53c-0.29-0.39-0.77-0.76-0.85-1.19
			c-0.55-3.24-0.96-6.5-1.54-9.73c-0.2-1.11-0.73-2.17-1.13-3.3c0.44-0.26,0.81-0.49,1.18-0.72c1.3-0.76,2.66-0.93,3.97-0.14
			c1.25,0.76,1.24,2.1,1.05,3.3c-0.23,1.46-0.73,2.89-1.18,4.55c1.51,0.22,3.04,0.39,4.54,0.69c0.98,0.19,1.97,0.44,2.86,0.87
			c1.47,0.71,1.74,2.32,0.56,3.45c-1.62,1.55-3.57,2.49-5.88,2.4c-0.41-0.02-0.8-0.4-1.2-0.62c0.41-0.23,0.8-0.53,1.24-0.69
			c1.43-0.54,2.99-0.86,4.31-1.59c1.31-0.72,1.19-1.63-0.24-2.03c-1.7-0.49-3.49-0.66-5.25-0.97c-0.44-0.08-0.89-0.13-1.31-0.26
			c-1.15-0.34-1.43-0.98-0.94-2.14c0.52-1.22,0.95-2.51,1.15-3.82c0.1-0.65-0.18-1.7-0.65-2.01
			C304.22,210.28,303.26,210.55,302.55,210.55z"/>
		<path class="st1" d="M232.73,239.44c-0.23-0.21-0.53-0.39-0.68-0.65c-6.1-10.07-7.84-20.9-5.81-32.43
			c0.51-2.88,0.82-5.8,1.27-8.69c0.06-0.35,0.49-0.64,0.75-0.96c0.26,0.35,0.79,0.73,0.75,1.04c-0.24,1.98-0.56,3.96-0.93,5.92
			c-1.68,8.86-2.17,17.69,1.21,26.29c0.95,2.42,2.32,4.68,3.41,7.05c0.32,0.69,0.36,1.5,0.53,2.26
			C233.07,239.33,232.9,239.39,232.73,239.44z"/>
		<path class="st1" d="M574.8,263.66c0.59-0.23,1.26-0.35,1.75-0.72c2.11-1.58,4.25-1.79,5.45-0.44c1.23,1.38,0.83,3.46-0.98,5.35
			c-1.36,1.42-2.97,2.09-5.22,1.68c0.48,3.8,0.93,7.41,1.4,11.03c0.24,1.88,0.57,3.74,0.75,5.62c0.04,0.44-0.32,0.93-0.5,1.39
			c-0.3-0.4-0.82-0.78-0.88-1.21c-0.42-2.86-0.76-5.73-1.08-8.6c-0.46-4.15-0.88-8.3-1.28-12.45c-0.06-0.64,0.05-1.28,0.08-1.93
			C574.47,263.47,574.63,263.57,574.8,263.66z M577.21,268.42c2.06-0.44,3.24-1.51,3.87-3.06c0.22-0.56,0.15-1.49-0.2-1.94
			c-0.28-0.36-1.37-0.55-1.76-0.29c-1.11,0.74-2.1,1.69-3.02,2.66c-0.29,0.31-0.43,1.1-0.23,1.43
			C576.19,267.76,576.84,268.11,577.21,268.42z"/>
		<path class="st1" d="M460.62,298.43c-1.52-0.7-1.69,0.17-1.68,1.17c0.01,2.67-0.01,5.33,0.12,7.99c0.02,0.43,0.67,0.92,1.14,1.23
			c0.35,0.23,0.93,0.09,1.27,0.32c0.34,0.23,0.51,0.72,0.75,1.09c-0.39,0.06-0.77,0.19-1.15,0.16c-0.49-0.04-0.96-0.2-1.72-0.37
			c0.1,0.98,0.22,1.77,0.26,2.56c0.27,5.22,0.53,10.45,0.74,15.67c0.02,0.61-0.36,1.23-0.55,1.85c-0.24-0.6-0.66-1.18-0.7-1.78
			c-0.31-5.16-0.55-10.33-0.83-15.5c-0.04-0.83-0.21-1.64-0.34-2.65c-1.06,0.06-2.04,0.18-3.01,0.14c-0.34-0.01-0.67-0.39-1.01-0.6
			c0.31-0.23,0.59-0.61,0.93-0.68c0.81-0.15,1.66-0.14,2.72-0.22c0.04-0.49,0.1-0.95,0.1-1.4c-0.01-2.61-0.09-5.22-0.04-7.83
			c0.01-0.74,0.23-1.59,0.63-2.19c0.33-0.49,1.11-0.99,1.64-0.95c0.38,0.03,0.69,0.96,1.03,1.48
			C460.82,298.1,460.72,298.27,460.62,298.43z"/>
		<path class="st1" d="M526.87,308.71c0.46,3.6,0.88,7.01,1.33,10.4c0.24,1.82,0.56,3.63,0.74,5.45c0.05,0.45-0.27,0.94-0.42,1.42
			c-0.29-0.4-0.77-0.78-0.83-1.21c-0.7-4.79-1.38-9.59-1.94-14.39c-0.15-1.25-0.51-1.84-1.82-1.65c-0.49,0.07-1.03,0.1-1.5-0.01
			c-0.4-0.1-0.75-0.43-1.12-0.66c0.39-0.21,0.77-0.57,1.18-0.61c0.87-0.1,1.75-0.03,2.72-0.03c-0.2-2.7-0.45-5.17-0.55-7.65
			c-0.04-0.92,0.07-1.93,0.44-2.76c0.3-0.68,1.02-1.26,1.69-1.67c0.32-0.19,0.95,0.13,1.44,0.22c-0.3,0.31-0.65,0.59-0.9,0.94
			c-0.46,0.64-1.23,1.32-1.23,1.98c0.01,2.93,0.24,5.85,0.4,8.89c1.45,0,2.56-0.06,3.66,0.03c0.41,0.03,0.79,0.39,1.19,0.6
			c-0.38,0.24-0.73,0.65-1.13,0.69C529.18,308.78,528.13,308.71,526.87,308.71z"/>
		<path class="st1" d="M458.51,236.37c-1.79-1.16-1.35-2.41-1.09-3.56c0.45-2,1.12-3.97,1.48-5.98c0.84-4.71,0.09-9.37-1.19-13.87
			c-1.2-4.21-2.97-8.25-4.41-12.39c-0.42-1.19-0.61-2.47-0.82-3.73c-0.04-0.26,0.33-0.59,0.51-0.88c0.23,0.19,0.59,0.33,0.67,0.57
			c1.81,5.3,3.78,10.56,5.31,15.94c1.91,6.74,2.36,13.58-0.16,20.34c-0.19,0.51-0.23,1.08-0.29,1.63
			C458.48,234.95,458.51,235.45,458.51,236.37z"/>
		<path class="st1" d="M346.58,338.68c-1.23,2.76-0.96,5.76-0.73,8.74c0.02,0.24,0.47,0.56,0.78,0.64c0.41,0.11,0.91-0.04,1.33,0.06
			c0.46,0.12,0.88,0.41,1.31,0.62c-0.45,0.22-0.89,0.55-1.36,0.64c-0.57,0.11-1.19,0.03-2.01,0.03c0.27,2.99,0.45,5.75,0.79,8.49
			c0.27,2.25,0.73,4.49,1.07,6.74c0.04,0.27-0.14,0.57-0.21,0.86c-0.33-0.12-0.86-0.15-0.95-0.37c-0.3-0.76-0.55-1.57-0.64-2.39
			c-0.45-3.99-0.89-7.97-1.24-11.97c-0.09-1.09-0.5-1.48-1.55-1.36c-0.66,0.08-1.35,0.16-2.01,0.09c-0.53-0.05-1.05-0.32-1.57-0.49
			c0.52-0.28,1.01-0.67,1.57-0.82c0.58-0.15,1.23-0.14,1.83-0.08c1.19,0.11,1.43-0.36,1.49-1.53c0.14-2.81,0.52-5.6,0.84-8.39
			c0.04-0.32,0.19-0.7,0.43-0.89c0.45-0.35,1-0.79,1.49-0.77c0.33,0.02,0.63,0.76,0.92,1.2c0.08,0.13,0.13,0.33,0.1,0.49
			c-0.13,0.61-0.29,1.21-0.45,1.81C347.43,339.6,347.04,339.17,346.58,338.68z"/>
		<path class="st1" d="M200.01,221.07c-0.29-0.5-0.61-0.98-0.86-1.5c-2.09-4.41-4.19-8.82-6.23-13.25c-0.17-0.36-0.04-0.86-0.05-1.3
			c0.39,0.22,0.83,0.38,1.16,0.67c0.28,0.25,0.52,0.61,0.63,0.97c0.88,2.8,3.04,3.15,5.49,2.83c0.44-0.06,1.09-0.58,1.18-0.98
			c0.42-1.95,0.66-3.94,1.03-5.91c0.08-0.46,0.4-0.87,0.61-1.31c0.24,0.47,0.74,0.97,0.68,1.4c-0.51,3.52-1.13,7.01-1.69,10.52
			c-0.32,1.97-0.56,3.96-0.9,5.93c-0.11,0.66-0.39,1.28-0.59,1.92C200.31,221.06,200.16,221.07,200.01,221.07z M199.66,217.1
			c0.12,0,0.24,0,0.36,0c0.28-1.99,0.57-3.98,0.88-6.16c-1.37,0-2.53,0-3.87,0C197.94,213.09,198.8,215.1,199.66,217.1z"/>
		<path class="st1" d="M404.42,266.66c-1.11,2.11-2.02,3.81-2.88,5.54c-0.14,0.28,0.01,0.71-0.02,1.06
			c-0.04,0.39-0.02,0.88-0.24,1.12c-0.18,0.2-0.82,0.25-1.02,0.09c-0.29-0.23-0.57-0.75-0.52-1.1c0.08-0.65,0.34-1.29,0.64-1.88
			c0.85-1.69,1.83-3.32,2.59-5.05c0.26-0.6,0.26-1.52-0.01-2.11c-1.17-2.52-2.51-4.95-3.74-7.44c-0.16-0.33-0.04-0.79-0.05-1.2
			c0.4,0.19,0.97,0.28,1.16,0.6c0.56,0.95,0.95,2,1.46,2.99c0.73,1.42,1.51,2.82,2.27,4.22c0.18,0,0.36,0,0.53,0
			c0.45-1.86,0.87-3.72,1.36-5.57c0.11-0.41,0.43-0.76,0.66-1.13c0.22,0.42,0.69,0.9,0.61,1.26c-0.45,2-1.11,3.95-1.52,5.95
			c-0.17,0.82-0.17,1.88,0.21,2.59c1.2,2.19,2.65,4.24,3.93,6.4c0.25,0.42,0.17,1.04,0.24,1.57c-0.51-0.29-1.23-0.46-1.51-0.9
			C407.19,271.51,405.95,269.29,404.42,266.66z"/>
		<path class="st1" d="M555.89,223.3c0.34-1.53,0.63-3.08,1.05-4.59c0.17-0.64,0.61-1.21,0.93-1.81c0.47,0.54,1.05,1.02,1.39,1.63
			c0.73,1.3,1.34,2.68,1.99,4.02c0.25-0.05,0.51-0.11,0.76-0.16c0.12-0.88,0.33-1.76,0.34-2.65c0.03-2.34-0.06-4.68-0.02-7.02
			c0.01-0.42,0.46-0.84,0.71-1.26c0.19,0.41,0.55,0.81,0.56,1.22c0.06,2.67,0.07,5.35,0.04,8.02c-0.01,0.65-0.13,1.35-0.4,1.94
			c-0.58,1.28-1.89,1.56-2.85,0.54c-0.82-0.86-1.42-1.93-2.17-2.96c-0.46,1.27-0.82,2.53-1.38,3.7c-0.23,0.48-0.92,1.11-1.31,1.06
			c-0.52-0.07-1.25-0.69-1.36-1.19c-0.75-3.35-1.39-6.73-1.99-10.11c-0.06-0.33,0.38-0.75,0.6-1.12c0.23,0.39,0.62,0.76,0.68,1.18
			c0.32,2.03,0.49,4.08,0.84,6.11c0.2,1.16,0.67,2.28,1.02,3.42C555.51,223.28,555.7,223.29,555.89,223.3z"/>
		<path class="st1" d="M211.24,217.95c0.48-1.81,0.92-3.64,1.46-5.43c0.14-0.46,0.57-0.83,0.86-1.24c0.34,0.39,0.8,0.73,1,1.18
			c0.62,1.41,1.14,2.87,1.7,4.31c0.29-0.05,0.57-0.11,0.86-0.16c0-2.35-0.05-4.71,0.03-7.06c0.02-0.72,0.41-1.43,0.63-2.15
			c0.23,0.71,0.66,1.41,0.66,2.11c0.01,2.33-0.05,4.68-0.25,7c-0.06,0.65-0.55,1.53-1.09,1.79c-0.36,0.18-1.33-0.4-1.73-0.89
			c-0.66-0.79-1.08-1.78-1.69-2.83c-0.47,1.37-0.81,2.73-1.42,3.96c-0.32,0.64-1.11,1.05-1.69,1.56c-0.37-0.58-0.95-1.11-1.06-1.73
			c-0.54-3.06-0.99-6.14-1.36-9.22c-0.07-0.55,0.4-1.16,0.63-1.75c0.23,0.56,0.58,1.09,0.66,1.67c0.4,2.95,0.73,5.91,1.09,8.87
			C210.77,217.94,211,217.95,211.24,217.95z"/>
		<path class="st1" d="M332.11,221.23c0.39-1,0.72-2.03,1.18-3c0.21-0.44,0.66-1.05,1.04-1.07c0.38-0.02,0.93,0.51,1.16,0.93
			c0.71,1.28,1.31,2.62,1.95,3.94c0.19-0.03,0.38-0.05,0.57-0.08c0.18-0.71,0.46-1.41,0.5-2.13c0.07-1.67,0-3.34,0.04-5.01
			c0.02-0.83-0.02-1.71,0.24-2.47c0.24-0.69,0.84-1.26,1.28-1.89c-0.01,0.68-0.01,1.35-0.02,2.03c-0.04,2-0.02,4-0.14,6
			c-0.07,1.21-0.18,2.46-0.55,3.6c-0.51,1.56-1.87,1.75-2.96,0.51c-0.4-0.45-0.7-1-1.01-1.53c-0.27-0.47-0.49-0.98-0.83-1.68
			c-0.61,1.09-1.07,2.06-1.68,2.93c-0.84,1.19-1.69,1.18-2.21-0.14c-0.66-1.69-1.02-3.5-1.52-5.26c-0.42-1.49-0.87-2.97-1.25-4.46
			c-0.09-0.36,0.01-0.77,0.02-1.15c0.4,0.19,1.06,0.29,1.15,0.58c0.56,1.73,1.01,3.51,1.46,5.27c0.35,1.35,0.65,2.72,0.98,4.07
			C331.71,221.22,331.91,221.22,332.11,221.23z"/>
		<path class="st1" d="M534.86,381.84c0-2.23-0.1-4.34,0.04-6.44c0.07-1.01,0.51-2.03,0.91-2.98c0.11-0.26,0.7-0.32,1.07-0.46
			c0.02,0.35,0.18,0.76,0.05,1.03c-1.43,2.9-0.72,5.85-0.39,9.02c1.08,0,2.07-0.07,3.05,0.03c0.44,0.05,0.85,0.46,1.26,0.71
			c-0.4,0.2-0.78,0.53-1.19,0.57c-0.88,0.09-1.77,0.03-2.95,0.03c0.43,2.61,0.88,5.03,1.22,7.48c0.36,2.64,0.64,5.29,0.88,7.95
			c0.03,0.38-0.35,0.8-0.55,1.21c-0.27-0.41-0.73-0.79-0.79-1.23c-0.68-4.73-1.31-9.46-1.91-14.2c-0.11-0.88-0.45-1.2-1.38-1.24
			c-0.91-0.03-1.8-0.37-2.71-0.57c0.62-1.4,1.86-0.45,2.78-0.74C534.51,381.92,534.77,381.86,534.86,381.84z"/>
		<path class="st1" d="M417.16,220.27c0.62-1.42,1.21-2.85,1.87-4.24c0.17-0.36,0.56-0.84,0.86-0.85c0.31,0,0.74,0.45,0.91,0.8
			c0.54,1.08,0.98,2.21,1.46,3.32c0.17,0.01,0.34,0.03,0.5,0.04c0.23-1.08,0.59-2.14,0.67-3.23c0.17-2.22,0.17-4.45,0.31-6.68
			c0.02-0.35,0.38-0.69,0.58-1.03c0.25,0.36,0.73,0.72,0.71,1.07c-0.13,2.89-0.33,5.77-0.57,8.65c-0.05,0.59-0.31,1.19-0.61,1.71
			c-0.8,1.41-1.98,1.4-2.81-0.01c-0.38-0.66-0.66-1.39-1.1-2.32c-0.59,1.22-0.99,2.3-1.61,3.24c-0.36,0.54-1.04,1.12-1.62,1.16
			c-0.39,0.03-1.09-0.78-1.24-1.32c-0.76-2.91-1.43-5.84-2.04-8.78c-0.08-0.4,0.32-0.91,0.5-1.36c0.26,0.42,0.66,0.81,0.77,1.26
			c0.68,2.86,1.31,5.73,1.95,8.59C416.82,220.29,416.99,220.28,417.16,220.27z"/>
		<path class="st1" d="M535.4,352.1c-0.12-1.85-0.33-3.62-0.33-5.38c0-1.95,0.07-3.95,1.6-5.45c0.37-0.37,0.94-0.76,1.4-0.74
			c0.36,0.02,0.7,0.65,1.05,1c-0.29,0.23-0.59,0.46-0.86,0.71c-0.5,0.46-1.38,0.92-1.41,1.42c-0.14,2.75-0.07,5.52-0.07,8.55
			c0.84,0,1.55-0.06,2.24,0.03c0.3,0.04,0.55,0.39,0.82,0.6c-0.26,0.23-0.49,0.59-0.79,0.67c-0.53,0.13-1.09,0.09-1.71,0.12
			c0.44,3.3,0.87,6.52,1.3,9.74c0.13,0.94,0.32,1.87,0.39,2.81c0.03,0.36-0.23,0.73-0.35,1.1c-0.32-0.31-0.85-0.57-0.92-0.93
			c-0.28-1.36-0.41-2.75-0.61-4.13c-0.34-2.37-0.75-4.73-1.04-7.1c-0.14-1.17-0.6-1.59-1.82-1.56c-0.83,0.02-1.68-0.41-2.51-0.64
			c0.51-1.32,1.63-0.39,2.43-0.64C534.55,352.15,534.94,352.15,535.4,352.1z"/>
		<path class="st1" d="M482.74,349.13c-0.89,1.37-1.51,2.57-2.35,3.58c-1.24,1.49-2.88,1.2-3.15-0.68
			c-0.35-2.43-0.41-4.95-0.14-7.38c0.1-0.93,1.3-2.04,2.27-2.51c1.26-0.61,2.38,0.34,3.08,1.39c1.14,1.69,2.12,3.39,1.8,5.68
			c-0.24,1.66,0.17,3.41,0.27,5.13c0.03,0.49-0.04,0.99-0.36,1.49C482.48,353.89,483.09,351.54,482.74,349.13z M478.69,352.37
			c2.23-1.74,2.74-4.13,3.44-6.28c0.2-0.63-1.28-1.8-1.99-2.73c-0.6,0.47-1.54,0.82-1.75,1.43
			C477.54,347.22,477.83,349.67,478.69,352.37z"/>
		<path class="st1" d="M536.66,223.47c2.07,0.48,3.93,0.64,5.74-0.49c0.37-0.23,0.91-0.17,1.38-0.24c-0.23,0.45-0.34,1.07-0.7,1.32
			c-2.04,1.41-4.31,1.4-6.56,0.68c-1.28-0.41-1.57-1.5-0.86-2.71c0.39-0.67,0.91-1.25,1.65-2.24c-1.13,0-1.98,0.06-2.8-0.03
			c-0.4-0.04-0.77-0.37-1.14-0.57c0.38-0.25,0.74-0.66,1.15-0.71c0.93-0.11,1.89-0.03,2.84-0.05c1.36-0.02,2.68-1.4,2.78-2.96
			c0.1-1.58-1.06-1.94-2.27-2.12c-0.82-0.12-1.66-0.03-2.48-0.12c-0.32-0.03-0.62-0.29-0.93-0.44c0.22-0.27,0.4-0.74,0.66-0.78
			c1.98-0.33,3.93-0.23,5.52,1.17c0.98,0.86,1.11,2.02,0.67,3.22c-0.23,0.62-0.54,1.21-0.9,2c0.9,0.15,1.72,0.2,2.48,0.44
			c0.39,0.13,0.67,0.6,1,0.91c-0.4,0.13-0.79,0.3-1.2,0.37c-0.26,0.04-0.55-0.05-0.83-0.09
			C539.12,219.64,537.77,220.48,536.66,223.47z"/>
		<path class="st1" d="M610.21,260.49c-0.13,1.82-0.24,3.35-0.37,5.13c0.83-0.09,1.52-0.24,2.2-0.23c1.5,0.02,3.02-0.06,4.48,0.23
			c1.76,0.35,2.36,1.81,1.68,3.47c-0.97,2.36-5.08,4.6-7.53,4.11c-0.92-0.18-1.57-1.5-1.01-2.24c0.13-0.17,1.07-0.05,1.09,0.06
			c0.25,1.16,1.12,0.9,1.68,0.61c1.45-0.74,2.99-1.46,4.17-2.55c1.11-1.03,0.65-2.15-0.89-2.31c-1.48-0.15-3-0.03-4.48,0.13
			c-2.52,0.28-2.91-0.01-2.68-2.5c0.12-1.27,0.25-2.56,0.57-3.78c0.14-0.54,0.72-1.31,1.18-1.37c1.88-0.25,3.78-0.32,5.68-0.31
			c0.41,0,0.82,0.59,1.23,0.9c-0.51,0.22-1.01,0.6-1.53,0.62C613.88,260.54,612.07,260.49,610.21,260.49z"/>
		<path class="st1" d="M348.4,371.67c-0.29,2.99-0.58,5.98-0.9,9.26c1.14-0.32,1.85-0.58,2.59-0.67c0.27-0.03,0.59,0.33,0.89,0.52
			c-0.21,0.22-0.37,0.54-0.63,0.66c-0.75,0.36-1.54,0.64-2.48,1.02c0.29,3.87,0.61,7.75,0.87,11.63c0.04,0.62-0.13,1.25-0.21,1.87
			c-0.27,0-0.55-0.01-0.82-0.01c-0.22-2.15-0.46-4.3-0.65-6.46c-0.2-2.21-0.35-4.43-0.53-6.83c-0.74,0-1.4,0.06-2.04-0.02
			c-0.37-0.05-0.7-0.35-1.05-0.54c0.36-0.25,0.71-0.52,1.08-0.76c0.08-0.05,0.22-0.03,0.33-0.01c1.43,0.2,1.59-0.59,1.63-1.79
			c0.06-2.22,0.23-4.44,0.52-6.65c0.1-0.77,0.61-1.52,1.07-2.2c0.22-0.32,0.77-0.64,1.12-0.6c0.47,0.05,0.99,0.37,1.33,0.73
			c0.17,0.19-0.01,0.71-0.02,1.08c-0.48-0.03-0.96-0.05-1.44-0.08C348.82,371.77,348.61,371.72,348.4,371.67z"/>
		<path class="st1" d="M366.91,264.21c0.55-1.85,1.07-3.7,1.66-5.53c0.16-0.5,0.54-0.93,0.82-1.38c0.15,0.53,0.54,1.13,0.41,1.58
			c-0.57,2.01-1.35,3.97-1.93,5.98c-0.19,0.66-0.24,1.53,0.04,2.12c0.85,1.81,1.91,3.52,2.81,5.31c0.17,0.34-0.01,0.87-0.03,1.31
			c-0.4-0.25-0.95-0.4-1.16-0.76c-1-1.73-1.91-3.51-3.12-5.75c-1.3,2.58-2.41,4.8-3.55,7.07c-1.14-0.63-0.73-1.67-0.33-2.51
			c0.7-1.51,1.5-2.99,2.42-4.38c0.68-1.03,0.67-1.87,0-2.87c-0.92-1.39-1.77-2.83-2.55-4.3c-0.21-0.39-0.06-0.98-0.08-1.47
			c0.41,0.28,0.95,0.46,1.2,0.85c1.01,1.52,1.92,3.1,2.88,4.66C366.56,264.15,366.73,264.18,366.91,264.21z"/>
		<path class="st1" d="M394.23,349.16c-1.01,1.39-1.82,2.79-2.9,3.92c-1.41,1.47-2.81,1-3.23-0.97c-0.58-2.73-0.39-5.43,0.77-8
			c1.23-2.73,3.61-3.02,5.17-0.47c0.82,1.33,1.09,3.04,1.4,4.62c0.29,1.52,0.36,3.08,0.41,4.63c0.01,0.41-0.45,0.84-0.69,1.26
			c-0.21-0.4-0.54-0.79-0.59-1.21C394.39,351.69,394.33,350.41,394.23,349.16z M389.57,352.71c2.85-1.83,3.18-4.63,3.95-7.1
			c0.16-0.52-1.02-1.54-1.72-2.2c-0.14-0.13-1.08,0.23-1.29,0.59C388.86,346.66,388.91,349.51,389.57,352.71z"/>
		<path class="st1" d="M529.74,233.31c-0.55-0.35-1.2-0.62-1.62-1.08c-3.28-3.62-4.3-7.99-3.93-12.71
			c0.41-5.21,1.78-10.18,4.35-14.78c0.27-0.48,0.39-1.05,0.67-1.52c0.2-0.33,0.56-0.56,0.85-0.84c0.13,0.42,0.44,0.89,0.34,1.25
			c-0.22,0.79-0.61,1.54-0.99,2.28c-2.47,4.83-3.87,9.94-3.94,15.37c-0.05,3.93,1.2,7.43,3.87,10.38c0.31,0.34,0.54,0.76,0.81,1.13
			C530.01,232.97,529.88,233.14,529.74,233.31z"/>
		<path class="st1" d="M412.07,250.48c0.21,0.4,0.45,0.79,0.6,1.21c0.68,1.81,1.17,3.72,2.03,5.43c2.03,4.06,3.25,8.28,3.12,12.84
			c-0.11,3.79-1.31,7.09-4.35,9.55c-0.22,0.17-0.41,0.43-0.66,0.49c-0.44,0.11-0.9,0.11-1.36,0.16c0.19-0.4,0.29-0.87,0.57-1.19
			c0.82-0.9,1.85-1.64,2.54-2.62c2.34-3.35,2.41-7.17,1.56-10.93c-0.63-2.79-1.88-5.44-2.87-8.15c-0.61-1.67-1.27-3.31-1.82-5
			c-0.16-0.51-0.03-1.11-0.03-1.68C411.62,250.57,411.85,250.53,412.07,250.48z"/>
		<path class="st1" d="M431.68,350.66c-0.84,1.22-1.4,2.25-2.17,3.1c-1.22,1.35-2.8,1.15-3.45-0.51c-1.05-2.66-1.21-5.45-0.11-8.12
			c1.03-2.49,4.04-2.7,5.35-0.19c1.04,1.99,1.26,4.41,1.86,6.64c0.3,1.13,0.64,2.24,0.94,3.37c0.06,0.23,0.09,0.59-0.03,0.73
			c-0.14,0.15-0.63,0.25-0.71,0.16c-0.49-0.55-1.1-1.11-1.29-1.78C431.77,353.08,431.81,352.01,431.68,350.66z M426.47,348.75
			c0.22,1.33,0.34,2.38,0.58,3.4c0.09,0.38,0.5,1,0.71,0.99c0.41-0.03,0.96-0.36,1.16-0.72c0.68-1.21,1.25-2.48,1.82-3.74
			c0.69-1.53,0-2.71-1.12-3.67c-0.9-0.77-1.88-0.63-2.33,0.46C426.84,346.58,426.69,347.81,426.47,348.75z"/>
		<path class="st1" d="M272.04,217.69c1.1,0,2.05-0.05,2.98,0.03c0.28,0.02,0.54,0.38,0.81,0.59c-0.23,0.2-0.43,0.54-0.69,0.58
			c-0.82,0.15-1.66,0.28-2.49,0.24c-1.74-0.07-2.36,1.09-2.66,2.43c-0.1,0.45,0.35,1.28,0.78,1.53c0.52,0.3,1.28,0.19,1.94,0.22
			c0.69,0.03,1.39,0.01,2.09,0.02c-0.67,0.45-1.28,1.15-2.01,1.31c-3.27,0.75-4.77-1.32-3.63-5.12c-0.67-0.03-1.32,0-1.93-0.12
			c-0.3-0.06-0.54-0.4-0.81-0.62c0.27-0.22,0.53-0.46,0.82-0.65c0.12-0.08,0.33-0.01,0.49-0.04c0.9-0.15,2.27-0.02,2.59-0.54
			c0.79-1.28,1.23-2.84,1.51-4.34c0.08-0.43-0.79-1.45-1.31-1.52c-1.17-0.15-2.4,0.13-3.61,0.2c-0.34,0.02-0.68-0.1-1.02-0.15
			c0.17-0.36,0.24-0.85,0.53-1.06c1.04-0.75,4.59-0.62,5.67,0.12c1.41,0.97,1.31,2.37,1.01,3.76
			C272.87,215.6,272.43,216.57,272.04,217.69z"/>
		<path class="st1" d="M564.86,205.1c0.24,0.27,0.57,0.5,0.72,0.82c2.9,6.38,4.22,13.04,2.89,19.99c-0.52,2.7-1.63,5.28-2.5,7.91
			c-0.14,0.41-0.35,0.86-0.66,1.14c-0.28,0.26-0.75,0.32-1.13,0.46c0.01-0.39-0.12-0.87,0.05-1.17c2.51-4.44,3.53-9.21,3.36-14.28
			c-0.14-4.39-1.02-8.61-2.83-12.62c-0.28-0.62-0.36-1.34-0.53-2.01C564.44,205.26,564.65,205.18,564.86,205.1z"/>
		<path class="st1" d="M451.51,267.61c-1.65,3.05-2.95,5.5-4.3,7.92c-0.13,0.23-0.5,0.32-0.75,0.48c-0.15-0.32-0.42-0.64-0.42-0.95
			c0-0.36,0.19-0.76,0.38-1.09c1.31-2.29,2.65-4.57,4.1-7.06c-1.12-1.67-2.43-3.52-3.62-5.44c-0.64-1.03-1.13-2.16-1.59-3.28
			c-0.09-0.21,0.28-0.62,0.43-0.93c0.26,0.18,0.6,0.3,0.75,0.54c2.81,4.33,5.63,8.65,8.35,13.04c0.87,1.4,1.47,2.98,2.09,4.52
			c0.13,0.33-0.2,0.84-0.32,1.26c-0.32-0.3-0.74-0.56-0.93-0.93C454.32,273.12,453.01,270.52,451.51,267.61z"/>
		<path class="st1" d="M653.86,355.93c-0.45-1.27-0.91-2.54-1.43-3.99c-0.5,0.81-0.78,1.59-1.32,2.07
			c-0.61,0.55-1.51,1.23-2.18,1.13c-0.69-0.1-1.61-0.98-1.79-1.69c-0.82-3.06-0.62-6.09,1.2-8.81c1.02-1.53,2.64-1.59,3.73-0.1
			c1.24,1.69,1.85,3.55,1.65,5.77c-0.12,1.29,0.63,2.65,0.9,3.99c0.1,0.5-0.04,1.05-0.07,1.58
			C654.31,355.9,654.09,355.92,653.86,355.93z M649.13,354.01c0.33-0.22,0.57-0.31,0.67-0.47c0.59-1.06,1.14-2.14,1.73-3.2
			c0.95-1.74,0.85-3.26-0.32-4.76c-0.66-0.85-1.38-1.04-1.91,0.03c-0.48,0.98-1,2.04-1.08,3.09
			C648.11,350.44,647.53,352.35,649.13,354.01z"/>
		<path class="st1" d="M476.75,267.39c-0.8,0.29-1.61,0.59-2.45,0.89c0.26,0.76,0.65,1.57,0.82,2.42c0.3,1.52-0.49,2.55-1.98,2.3
			c-1.24-0.2-2.72-0.64-3.54-1.49c-3.02-3.14-1.46-10.16,2.51-11.96c1.84-0.84,3.37,0.09,3.3,2.04c-0.01,0.35-0.35,0.68-0.54,1.02
			c-0.24-0.26-0.64-0.49-0.69-0.79c-0.31-1.87-1.29-1.29-2.23-0.61c-2.39,1.72-3.34,6.19-1.9,8.78c0.13,0.24,0.27,0.59,0.48,0.66
			c0.99,0.36,2.01,0.66,3.01,0.97c-0.26-0.93-0.49-1.86-0.8-2.77c-0.19-0.58-0.5-1.11-0.76-1.67c0.61-0.17,1.21-0.42,1.84-0.48
			c0.9-0.08,1.81-0.02,2.72-0.02C476.62,266.92,476.68,267.16,476.75,267.39z"/>
		<path class="st1" d="M549.47,269.04c0.79-1.57,1.52-3.18,2.4-4.7c0.33-0.56,1.16-1.35,1.52-1.24c0.61,0.19,1.33,0.94,1.46,1.56
			c0.6,2.77,1.02,5.57,1.45,8.37c0.04,0.27-0.32,0.6-0.5,0.91c-0.3-0.32-0.82-0.6-0.88-0.96c-0.29-1.76-0.42-3.54-0.67-5.3
			c-0.14-0.98-0.43-1.94-0.75-3.32c-1.78,2.58-2.79,5.04-3.23,7.73c-0.05,0.33,0.04,0.7-0.08,0.99c-0.13,0.31-0.43,0.55-0.66,0.81
			c-0.22-0.22-0.57-0.41-0.63-0.66c-0.72-3.31-1.43-6.63-2.06-9.96c-0.08-0.41,0.33-0.9,0.51-1.36c0.24,0.44,0.61,0.85,0.7,1.32
			c0.4,1.93,0.72,3.88,1.07,5.82C549.24,269.05,549.36,269.04,549.47,269.04z"/>
		<path class="st1" d="M492.19,309.57c0.1-1.15,0.15-2.32,0.33-3.46c0.22-1.42,1.8-2.62,3.41-2.69c3.65-0.16,7.39,5.01,6.08,8.41
			c-0.85,2.2-3.36,3.61-5.64,3.15C493.74,314.46,492.17,312.43,492.19,309.57z M493.54,309.45c-0.02,2.67,1.57,4.36,3.9,4.24
			c2.29-0.12,3.71-1.84,3.46-4.17c-0.21-1.95-2.54-4.57-4.44-4.65c-0.79-0.03-2.02,0.48-2.32,1.09
			C493.62,306.99,493.69,308.32,493.54,309.45z"/>
		<path class="st1" d="M631.37,385.28c-3.97,0-7.64,0.02-11.3-0.02c-0.39,0-0.78-0.36-1.17-0.55c0.36-0.26,0.73-0.74,1.1-0.74
			c3.68-0.05,7.36-0.04,11.03,0.03c0.39,0.01,0.78,0.48,1.17,0.74c2.15-1.64,2.2-2.59-0.03-3.92c-1.42-0.85-3.02-1.39-4.5-2.13
			c-0.36-0.18-0.61-0.58-0.91-0.88c0.39-0.13,0.82-0.43,1.15-0.35c2.48,0.59,4.72,1.68,6.53,3.51c1.01,1.03,1.07,2.21,0.14,3.3
			c-0.79,0.92-1.76,1.69-2.6,2.58c-0.48,0.51-0.82,1.15-1.3,1.66c-0.28,0.3-0.7,0.46-1.06,0.69c-0.11-0.43-0.46-1.01-0.29-1.28
			C629.82,387.07,630.51,386.35,631.37,385.28z"/>
		<path class="st1" d="M506.88,382.77c-0.17,1.84-0.82,3.72-2.97,4.68c-1.79,0.8-3.39,0.27-4.14-1.52c-1.06-2.49-1.44-5.1-0.49-7.75
			c0.53-1.47,2.06-2.17,3.69-1.7C505.27,377.16,506.9,379.65,506.88,382.77z M505.57,382.76c-0.13-2.07-0.58-3.68-2.18-4.59
			c-0.59-0.33-1.68-0.54-2.11-0.22c-0.53,0.39-0.87,1.4-0.85,2.13c0.03,1.15,1.6,2.28-0.02,3.45c-0.02,0.01,0.01,0.11,0.04,0.15
			c0.53,0.9,0.86,2.22,1.65,2.61c1.16,0.57,2.22-0.42,2.8-1.49C505.28,384.09,505.41,383.25,505.57,382.76z"/>
		<path class="st1" d="M417.05,305.53c-0.74,2.21-1.32,4.03-1.97,5.83c-0.14,0.39-0.51,0.7-0.77,1.04c-0.17-0.42-0.57-0.9-0.47-1.24
			c0.51-1.76,1.05-3.51,1.75-5.2c0.48-1.17,0.45-2.09-0.43-3.03c-0.68-0.73-1.29-1.54-1.83-2.38c-0.23-0.35-0.22-0.86-0.32-1.3
			c0.45,0.17,1.03,0.21,1.33,0.52c0.76,0.79,1.39,1.7,2.1,2.58c0.75-1.44,1.39-2.77,2.14-4.05c0.16-0.28,0.69-0.34,1.05-0.51
			c0.02,0.39,0.13,0.81,0.02,1.16c-0.13,0.41-0.49,0.74-0.69,1.13c-1.03,2.09-1.9,4.09,0.15,6.22c1.14,1.18,1.93,2.72,2.81,4.14
			c0.21,0.33,0.11,0.84,0.16,1.27c-0.42-0.18-0.99-0.26-1.22-0.58C419.65,309.45,418.5,307.68,417.05,305.53z"/>
		<path class="st1" d="M684.84,380.22c-0.77,1.56-1.29,3.3-2.34,4.64c-1.89,2.42-5.18,1.78-6.17-1.16c-0.54-1.6-0.85-3.37-0.77-5.04
			c0.05-0.96,0.88-2.21,1.73-2.73C680.54,373.96,684.52,376.33,684.84,380.22z M677.83,379.73c-0.21,0.75-0.51,1.36-0.55,1.99
			c-0.08,1.39,0.47,2.58,1.8,3.1c1.34,0.53,2.27-0.37,2.87-1.42c0.51-0.9,0.92-1.91,1.14-2.92c0.25-1.18,0.03-2.29-1.1-3.1
			c-1.26-0.89-2.55-1.07-3.93-0.43C676.56,377.67,676.47,378.76,677.83,379.73z"/>
		<path class="st1" d="M408.34,203.51c0.08,0.72,0.3,1.22,0.16,1.58c-2.23,5.74-2.14,11.51-0.38,17.33c0.79,2.62,2.31,4.65,4.6,6.16
			c0.43,0.28,0.67,0.85,1,1.28c-0.59-0.07-1.29,0.03-1.76-0.25c-2.29-1.35-3.91-3.34-4.78-5.83c-1.89-5.44-2.28-10.98-0.75-16.59
			c0.27-0.98,0.61-1.94,0.97-2.89C407.47,204.08,407.78,203.95,408.34,203.51z"/>
		<path class="st1" d="M492.19,215.79c-0.11,2.79-1.41,4.36-2.85,5.88c-1.56,1.65-3.05,3.34-4.61,4.99
			c-0.21,0.23-0.63,0.26-0.96,0.38c-0.05-0.34-0.28-0.82-0.13-1.01c1.12-1.43,2.28-2.84,3.49-4.2c0.85-0.95,1.89-1.75,2.66-2.75
			c1.59-2.08,1.35-4.06-0.72-5.69c-1.08-0.86-2.33-1.53-3.53-2.22c-1.5-0.86-3.04-1.64-4.53-2.52c-0.3-0.17-0.4-0.66-0.6-1
			c0.35-0.07,0.81-0.33,1.04-0.2c3.14,1.88,6.32,3.71,9.32,5.8C491.61,213.84,491.89,215.21,492.19,215.79z"/>
		<path class="st1" d="M467.36,381.6c-0.55,1.33-0.83,2.31-1.32,3.16c-0.73,1.24-1.79,1.23-2.4-0.06c-1.19-2.48-1.61-5.1-0.72-7.79
			c0.51-1.52,1.73-2.03,3.01-1.14c1.38,0.95,2.45,2.09,2.56,4.04c0.1,1.81,0.77,3.58,1.1,5.38c0.08,0.45-0.18,0.96-0.29,1.45
			c-0.33-0.37-0.81-0.68-0.95-1.11C467.98,384.38,467.75,383.18,467.36,381.6z M465.01,384.19c0.48-1.6,0.8-2.87,1.24-4.11
			c0.66-1.87,0.33-2.6-1.65-3.31C463.41,378.66,463.49,381.4,465.01,384.19z"/>
		<path class="st1" d="M237.45,203.42c0.03,0.44,0.18,0.91,0.06,1.31c-1.38,4.82-1.05,9.71-0.62,14.59
			c0.15,1.64,0.38,3.39,1.09,4.84c0.72,1.48,2.09,2.63,3.14,3.95c0.24,0.3,0.35,0.7,0.51,1.05c-0.4,0.02-0.88,0.2-1.19,0.04
			c-2.17-1.12-3.49-3.03-4.06-5.29c-1.58-6.19-1.57-12.46-0.39-18.72c0.13-0.67,0.57-1.28,0.87-1.92
			C237.06,203.34,237.25,203.38,237.45,203.42z"/>
		<path class="st1" d="M558.31,352.2c0.57-1.58,0.98-3.24,1.78-4.69c0.41-0.74,1.57-1.59,2.29-1.51c0.82,0.1,1.8,1.04,2.21,1.86
			c1.22,2.5,0.74,5.11-0.11,7.61c-0.44,1.29-1.43,2.16-2.91,2.06c-1.56-0.1-2.37-1.12-2.67-2.56c-0.18-0.86-0.19-1.76-0.28-2.64
			C558.52,352.29,558.42,352.24,558.31,352.2z M560,352.85c0.03,0.48-0.08,1.06,0.14,1.44c0.41,0.69,1.02,1.27,1.54,1.89
			c0.6-0.57,1.58-1.07,1.72-1.73c0.33-1.66,0.44-3.41,0.29-5.09c-0.06-0.74-0.96-1.41-1.48-2.11c-0.53,0.91-1.14,1.78-1.54,2.74
			c-0.14,0.34,0.27,0.91,0.43,1.37c0.15,0.43,0.32,0.85,0.48,1.28C561.13,352.71,560.67,352.77,560,352.85z"/>
		<path class="st1" d="M498.25,351.87c-0.55,1.59-1.08,3.19-1.67,4.77c-0.14,0.36-0.51,0.64-0.77,0.95
			c-0.22-0.39-0.69-0.85-0.61-1.16c0.31-1.17,0.63-2.4,1.25-3.42c1.18-1.93,1.12-3.55-0.5-5.18c-0.82-0.82-1.45-1.83-2.1-2.8
			c-0.23-0.35-0.24-0.85-0.35-1.28c0.46,0.16,1.09,0.17,1.35,0.49c1,1.19,1.88,2.48,2.81,3.73c0.12,0.16,0.31,0.27,0.66,0.58
			c0.46-1.28,0.83-2.43,1.3-3.53c0.14-0.33,0.57-0.53,0.86-0.8c0.14,0.38,0.47,0.81,0.38,1.12c-0.36,1.22-0.93,2.38-1.25,3.61
			c-0.16,0.6-0.11,1.4,0.16,1.95c0.68,1.34,1.6,2.55,2.31,3.87c0.2,0.37,0.03,0.94,0.03,1.41c-0.38-0.24-0.87-0.39-1.1-0.73
			c-0.79-1.14-1.48-2.34-2.21-3.52C498.62,351.9,498.44,351.88,498.25,351.87z"/>
		<path class="st1" d="M355.48,215.35c0.18-1,0.29-2.02,0.56-2.99c0.1-0.38,0.53-0.67,0.8-1.01c0.17,0.36,0.52,0.75,0.48,1.09
			c-0.13,1.09-0.25,2.23-0.64,3.24c-0.52,1.34-0.4,2.45,0.46,3.57c0.74,0.97,1.47,1.96,2.08,3.01c0.19,0.32-0.03,0.89-0.07,1.34
			c-0.38-0.2-0.88-0.31-1.1-0.62c-0.82-1.09-1.56-2.26-2.57-3.76c-0.5,2.09-0.92,3.81-1.33,5.53c-0.27-0.04-0.54-0.08-0.82-0.11
			c0-0.76-0.01-1.52,0.01-2.28c0-0.22,0.01-0.47,0.11-0.65c2.12-3.93-0.13-7.08-1.82-10.34c-0.24-0.46-0.24-1.05-0.35-1.57
			c0.5,0.32,1.2,0.54,1.47,0.99c0.87,1.47,1.59,3.03,2.36,4.55C355.23,215.35,355.36,215.35,355.48,215.35z"/>
		<path class="st1" d="M568.74,304.39c0.4-1.38,0.77-2.77,1.21-4.13c0.15-0.45,0.51-0.83,0.78-1.24c0.17,0.51,0.58,1.07,0.48,1.51
			c-0.34,1.45-0.75,2.92-1.37,4.27c-0.52,1.13-0.57,2.07,0.07,3.13c0.65,1.1,1.24,2.24,1.75,3.41c0.2,0.46,0.11,1.05,0.16,1.58
			c-0.22,0.05-0.44,0.09-0.66,0.14c-0.87-1.57-1.74-3.14-2.7-4.88c-0.77,1.47-1.41,2.82-2.17,4.1c-0.22,0.37-0.82,0.52-1.24,0.77
			c0.05-0.49,0.03-0.99,0.17-1.45c0.12-0.42,0.39-0.8,0.63-1.17c1.51-2.45,2.35-4.87,0.13-7.41c-0.37-0.42-0.51-1.12-0.58-1.72
			c-0.04-0.35,0.25-0.75,0.4-1.13c0.29,0.27,0.69,0.49,0.85,0.83c0.54,1.13,1,2.29,1.48,3.45
			C568.32,304.43,568.53,304.42,568.74,304.39z"/>
		<path class="st1" d="M350.61,266.98c0.02-3.13,0.53-6.17,1.85-9.06c0.44-0.96,0.7-1.99,1.14-2.95c0.14-0.31,0.58-0.49,0.88-0.73
			c0.11,0.37,0.38,0.78,0.31,1.11c-0.2,0.86-0.48,1.71-0.85,2.52c-3.34,7.35-2.41,14.25,2.09,20.83c0.27,0.4,0.23,1.01,0.34,1.53
			c-0.48-0.27-1.14-0.43-1.42-0.84C352.47,275.62,350.52,271.65,350.61,266.98z"/>
		<path class="st1" d="M388.28,312.15c-1.37,0.31-1.36,0.31-2.63-2.26c-0.56-1.14-1.14-2.26-1.92-3.82
			c-0.78,1.82-1.35,3.28-2.04,4.69c-0.19,0.39-0.72,0.61-1.1,0.91c-0.04-0.45-0.24-0.95-0.1-1.33c0.52-1.41,1.04-2.83,1.76-4.14
			c0.67-1.22,0.51-2.18-0.31-3.19c-0.52-0.65-1.04-1.32-1.4-2.06c-0.17-0.33,0.04-0.85,0.08-1.28c0.34,0.2,0.77,0.33,1.01,0.61
			c0.63,0.77,1.17,1.62,1.94,2.71c0.56-1.24,0.99-2.28,1.51-3.27c0.22-0.41,0.65-0.71,0.99-1.07c0.06,0.53,0.3,1.11,0.16,1.57
			c-0.3,1.01-0.72,1.99-1.22,2.92c-0.54,0.99-0.46,1.8,0.11,2.79C386.26,307.94,387.23,310.05,388.28,312.15z"/>
		<path class="st1" d="M425.87,383.72c-0.27,0.62-0.61,2-1.41,3.04c-1.29,1.68-3.06,1.63-4.39,0.01c-2.08-2.52-2.54-5.4-1.45-8.46
			c0.72-2.01,2.86-2.49,4.68-1.11C425.2,378.64,425.69,380.72,425.87,383.72z M424.45,382.94c0.13-0.06,0.26-0.12,0.39-0.18
			c-0.67-1.41-1.17-2.94-2.05-4.21c-0.73-1.05-2.44-1.02-2.67-0.15c-0.5,1.94-1.28,3.98-0.03,5.88c0.59,0.89,1.59,2.2,2.34,2.17
			c1.48-0.07,1.93-1.59,2.02-3.01C424.46,383.27,424.45,383.11,424.45,382.94z"/>
		<path class="st1" d="M367.77,220.4c-0.59,2.42-1.26,5.33-2.02,8.21c-0.11,0.42-0.63,0.74-0.95,1.1c-0.08-0.54-0.32-1.11-0.21-1.61
			c0.43-2.06,1.15-4.08,1.43-6.16c0.7-5.17-0.8-9.78-3.93-13.92c-0.63-0.83-1.08-1.8-1.53-2.75c-0.1-0.2,0.15-0.57,0.24-0.86
			c0.29,0.1,0.73,0.11,0.83,0.3c1.76,3.32,4.52,6.13,5.23,9.99C367.17,216.41,367.41,218.11,367.77,220.4z"/>
		<path class="st1" d="M611.19,345.89c2.1,0.02,3.3,0.93,3.77,2.6c0.7,2.52-0.41,5.89-2.41,7.34c-1.62,1.17-3.08,0.82-3.97-0.97
			c-1.12-2.23-1.26-4.58-0.52-6.92C608.56,346.34,610.01,345.97,611.19,345.89z M614.28,350.41c-0.12-0.08-0.24-0.17-0.37-0.25
			c-0.08-0.43-0.11-0.88-0.24-1.3c-0.43-1.42-1.7-1.98-3.18-1.48c-1.5,0.51-1.35,1.51-0.88,2.67c0.16,0.39,0.35,1.12,0.2,1.21
			c-1.52,1.02-0.28,2.07,0,3c0.3,0.99,1.3,1.28,1.94,0.43C612.74,353.38,613.45,351.85,614.28,350.41z"/>
		<path class="st1" d="M296,269.89c0.52-1.32,0.88-2.35,1.36-3.33c0.15-0.31,0.63-0.45,0.97-0.67c0.08,0.38,0.26,0.78,0.22,1.14
			c-0.05,0.43-0.24,0.87-0.48,1.24c-1.93,3.05-0.57,5.56,1.24,8.04c0.27,0.36,0.3,0.9,0.44,1.36c-0.5-0.19-1.19-0.24-1.48-0.61
			c-0.77-0.99-1.36-2.12-2.11-3.32c-0.79,2.18-1.53,4.21-2.26,6.24c-0.24-0.05-0.49-0.1-0.74-0.15c0-0.49-0.1-1.02,0.02-1.48
			c0.3-1.12,0.57-2.29,1.1-3.32c1.35-2.63,0.75-4.88-1.06-7c-0.33-0.38-0.65-0.77-0.88-1.21c-0.15-0.29-0.13-0.68-0.18-1.02
			c0.39,0.05,0.91-0.04,1.13,0.17c0.54,0.55,0.96,1.22,1.4,1.86C295.08,268.42,295.44,269.02,296,269.89z"/>
		<path class="st1" d="M571.31,352.63c0.36-1.21,0.56-2.86,1.32-4.19c0.44-0.78,1.77-1.46,2.68-1.45c0.63,0.01,1.51,1.2,1.8,2.04
			c0.97,2.8,0.62,5.61-0.7,8.22c-0.36,0.72-1.41,1.61-2.04,1.54c-0.79-0.08-1.8-0.94-2.14-1.72
			C571.7,355.84,571.65,354.4,571.31,352.63z M576.46,352.53c-0.26-1.34-0.4-2.44-0.7-3.49c-0.27-0.92-1-1.14-1.6-0.38
			c-0.47,0.6-0.69,1.43-0.9,2.2c-0.15,0.57-0.17,1.18-0.13,1.78c0.07,1.35,0.15,2.7,0.36,4.04c0.05,0.32,0.59,0.79,0.9,0.78
			c0.31-0.01,0.77-0.47,0.89-0.83C575.74,355.22,576.11,353.78,576.46,352.53z"/>
		<path class="st1" d="M181.33,211.42c-0.34,1.1-0.6,2.24-1.04,3.3c-0.89,2.15-1.84,4.27-2.86,6.36c-0.15,0.31-0.76,0.39-1.16,0.58
			c-0.02-0.35-0.14-0.74-0.03-1.04c1.21-3.09,2.44-6.18,3.69-9.25c0.83-2.04,2.12-2.35,3.15-0.43c1.8,3.35,3.18,6.94,4.68,10.44
			c0.09,0.22-0.25,0.62-0.4,0.94c-0.29-0.22-0.71-0.37-0.83-0.66c-0.59-1.44-1.02-2.94-1.64-4.36c-0.9-2.05-1.9-4.04-2.87-6.06
			C181.81,211.31,181.57,211.37,181.33,211.42z"/>
		<path class="st1" d="M647.4,381.19c-0.76,1.18-1.27,2.17-1.96,3.01c-0.9,1.11-1.89,1.01-2.75-0.12c-1.22-1.61-1.26-5.57-0.08-7.17
			c0.93-1.26,2.47-1.52,3.22-0.32c1.67,2.69,3.81,5.2,4.05,8.57c0.04,0.51-0.24,1.03-0.37,1.55c-0.3-0.45-0.7-0.86-0.87-1.36
			C648.2,384.07,647.85,382.74,647.4,381.19z M643.89,383.48c1.98-1.23,2.49-3.39,1.33-5.43c-0.17-0.3-0.56-0.75-0.77-0.71
			c-0.36,0.07-0.82,0.41-0.94,0.74C642.84,379.91,642.89,381.72,643.89,383.48z"/>
		<path class="st1" d="M452.23,222.85c-0.5,1.77-0.99,3.69-1.6,5.57c-0.18,0.55-0.59,1.11-1.06,1.46c-0.37,0.27-0.97,0.23-1.47,0.33
			c0.17-0.42,0.36-0.84,0.51-1.26c0.65-1.73,1.7-3.42,1.85-5.2c0.38-4.47-0.93-8.67-2.84-12.7c-0.63-1.34-1.05-2.79-1.48-4.21
			c-0.08-0.25,0.26-0.63,0.41-0.95c0.26,0.23,0.65,0.41,0.77,0.7c1.16,2.93,2.42,5.84,3.35,8.85
			C451.41,217.74,451.7,220.18,452.23,222.85z"/>
		<path class="st1" d="M376.22,212.77c-0.92,3.06-1.84,6.13-2.8,9.18c-0.09,0.3-0.45,0.51-0.69,0.77c-0.2-0.29-0.58-0.59-0.58-0.88
			c0.02-0.71,0.13-1.43,0.35-2.11c0.82-2.54,1.68-5.06,2.58-7.57c0.19-0.53,0.61-0.98,0.93-1.47c0.54,0.35,1.29,0.57,1.57,1.06
			c1.58,2.79,3.05,5.64,4.55,8.48c0.36,0.68,0.71,1.37,1.03,2.07c0.13,0.3,0.14,0.65,0.21,0.98c-0.41-0.03-1,0.1-1.18-0.12
			c-0.45-0.54-0.73-1.22-1.05-1.86c-1.34-2.67-2.67-5.35-4-8.03c-0.12-0.24-0.26-0.48-0.4-0.72
			C376.56,212.63,376.39,212.7,376.22,212.77z"/>
		<path class="st1" d="M291.68,213.66c-1.63,2.85-3.08,5.4-4.54,7.95c-0.22,0.38-0.38,0.86-0.71,1.12c-0.5,0.38-1.12,0.61-1.69,0.9
			c0.18-0.52,0.29-1.07,0.55-1.54c1.63-2.97,3.27-5.94,4.95-8.88c0.31-0.54,0.83-0.95,1.26-1.42c0.48,0.5,1.2,0.92,1.39,1.51
			c1.04,3.22,1.96,6.48,2.87,9.74c0.08,0.28-0.17,0.66-0.27,0.99c-0.34-0.27-0.88-0.49-0.99-0.83c-0.65-2.12-1.18-4.28-1.79-6.42
			C292.43,215.83,292.09,214.9,291.68,213.66z"/>
		<path class="st1" d="M192.53,258.5c-0.68,1.83-2.4,2.81-1.49,4.72c0.06,0.12-0.45,0.69-0.49,0.66c-0.44-0.23-1.21-0.59-1.18-0.82
			c0.13-1.02,0.23-2.22,0.84-2.96c1.51-1.87,1.45-3.47-0.04-5.26c-0.43-0.52-0.6-1.31-0.73-2c-0.05-0.26,0.34-0.61,0.53-0.91
			c0.25,0.23,0.6,0.42,0.74,0.7c0.55,1.12,1.04,2.28,1.55,3.42c0.17,0,0.33,0,0.5,0.01c0.64-1.42,1.28-2.85,2.04-4.52
			c1.05,1.49,0.54,2.7-0.08,3.53c-1.43,1.92-0.98,3.37,0.58,4.86c0.59,0.57,1.08,1.29,1.46,2.02c0.17,0.33,0,0.85-0.02,1.28
			c-0.35-0.18-0.8-0.29-1.03-0.57C194.69,261.43,193.76,260.13,192.53,258.5z"/>
		<path class="st1" d="M483.7,267.66c0.03,2.98-0.8,5.71-2.39,8.22c-0.12,0.19-0.23,0.43-0.41,0.52c-0.4,0.18-0.83,0.27-1.25,0.4
			c0.07-0.38,0.02-0.85,0.22-1.15c1.92-2.77,2.77-5.84,2.44-9.17c-0.38-3.9-1.88-7.42-3.95-10.72c-0.27-0.42-0.65-0.79-0.83-1.24
			c-0.12-0.3,0.01-0.7,0.03-1.05c0.34,0.1,0.79,0.1,0.99,0.32c0.51,0.58,0.97,1.23,1.35,1.91
			C482.03,259.4,483.62,263.3,483.7,267.66z"/>
		<path class="st1" d="M366.43,369.35c0.15,0.74,0.42,1.21,0.29,1.52c-0.38,0.92-0.98,1.74-1.39,2.65
			c-2.27,5.02-2.79,10.06,0.21,14.96c0.69,1.12,1.92,1.91,2.89,2.87c0.23,0.23,0.38,0.54,0.57,0.82c-0.32,0.16-0.73,0.53-0.96,0.44
			c-0.6-0.23-1.21-0.58-1.67-1.03c-3.99-3.85-4.87-8.68-3.77-13.82c0.55-2.55,1.91-4.92,2.93-7.36
			C365.65,370.13,365.93,369.93,366.43,369.35z"/>
		<path class="st1" d="M446.75,351.56c-0.7,1.42-1.19,2.53-1.79,3.58c-0.2,0.34-0.69,0.51-1.05,0.76c-0.03-0.44-0.19-0.92-0.07-1.32
			c0.2-0.68,0.45-1.43,0.89-1.97c1.51-1.81,0.9-3.32-0.47-4.81c-0.52-0.58-1.04-1.17-1.47-1.82c-0.17-0.26-0.1-0.69-0.14-1.05
			c0.39,0.08,0.93,0.02,1.13,0.26c0.99,1.12,1.89,2.32,3.07,3.81c0.5-1.42,0.89-2.64,1.37-3.84c0.14-0.35,0.5-0.62,0.77-0.92
			c0.18,0.4,0.59,0.87,0.5,1.19c-0.4,1.32-1.03,2.57-1.42,3.9c-0.18,0.6-0.18,1.37,0.06,1.93c0.62,1.42,1.48,2.74,2.14,4.15
			c0.2,0.42,0.09,0.99,0.12,1.49c-0.44-0.31-1.04-0.52-1.29-0.94C448.3,354.63,447.63,353.23,446.75,351.56z"/>
		<path class="st1" d="M466.44,276c-0.33,1.5-1.31,1.56-2.01,0.93c-1.12-1.02-2.41-2.17-2.88-3.53c-1.95-5.66-1.81-11.46-0.56-17.26
			c0.09-0.42,0.26-0.88,0.55-1.19c0.21-0.23,0.65-0.24,1-0.35c0.05,0.33,0.22,0.71,0.12,0.97c-1.43,3.51-1.31,7.19-1.1,10.84
			c0.12,2.08,0.56,4.18,1.12,6.2C463.16,274.33,464.1,275.88,466.44,276z"/>
		<path class="st1" d="M607.3,299.38c0.62,1.44,1.24,2.87,1.86,4.31c0.14,0.02,0.29,0.03,0.43,0.05c0.34-1,0.64-2.02,1.04-3
			c0.18-0.45,0.56-0.82,0.84-1.22c0.16,0.49,0.5,1,0.42,1.45c-0.17,0.92-0.49,1.82-0.86,2.67c-0.95,2.13-0.3,4.87,1.56,6.32
			c0.34,0.26,0.66,0.53,1.03,0.81c-1.3,0.99-1.3,0.99-4.51-3.51c-0.56,1.05-1.04,2.01-1.58,2.93c-0.22,0.38-0.56,0.68-0.85,1.02
			c-0.14-0.54-0.52-1.17-0.36-1.6c0.39-1.03,1.15-1.92,1.53-2.95c0.25-0.68,0.3-1.56,0.11-2.26c-0.37-1.33-1-2.59-1.45-3.9
			c-0.09-0.28,0.13-0.67,0.21-1.01C606.9,299.45,607.1,299.42,607.3,299.38z"/>
		<path class="st1" d="M576.8,384.18c-0.17,1.03-0.22,2.1-0.53,3.09c-0.47,1.49-1.59,1.78-2.84,0.85c-2.73-2.04-3.35-7.01-1.21-9.6
			c1.05-1.26,2.47-1.19,3.18,0.38c0.73,1.63,1.1,3.42,1.63,5.14C576.96,384.1,576.88,384.14,576.8,384.18z M573.23,378.67
			c-0.18,1.29-0.33,2.17-0.41,3.06c-0.04,0.42,0.19,0.9,0.06,1.28c-0.61,1.79,0.05,3.31,1.87,4.13
			C575.97,384.67,575.47,380.83,573.23,378.67z"/>
		<path class="st1" d="M403.24,302.81c-1.38,2.75-2.63,5.28-3.94,7.78c-0.18,0.35-0.64,0.56-0.98,0.84
			c-0.07-0.44-0.35-0.97-0.19-1.31c0.62-1.36,1.44-2.63,2.05-4c0.75-1.67,1.35-3.41,2.05-5.1c0.15-0.37,0.51-0.66,0.77-0.98
			c0.32,0.32,0.81,0.59,0.95,0.98c0.61,1.67,1.08,3.39,1.68,5.06c0.63,1.77,1.37,3.51,2,5.29c0.13,0.37-0.02,0.85-0.05,1.27
			c-0.38-0.23-0.96-0.38-1.1-0.71c-0.85-2.05-1.6-4.13-2.36-6.22C403.81,304.82,403.58,303.91,403.24,302.81z"/>
		<path class="st1" d="M320.04,214.45c0.23-1.55,0.66-4.57,1.18-7.57c0.07-0.42,0.62-0.76,0.95-1.14c0.11,0.47,0.39,0.97,0.3,1.4
			c-0.96,4.37-1.37,8.75-0.71,13.23c0.36,2.42,1.35,4.41,3.07,6.13c0.37,0.37,0.43,1.05,0.63,1.6c-0.55-0.26-1.19-0.41-1.62-0.8
			C320.43,224.23,320.17,220.12,320.04,214.45z"/>
		<path class="st1" d="M601.43,305.83c0.03,0.61,0.12,0.83,0.04,0.93c-1.96,2.84-6.59,3.09-8.77,0.46c-0.74-0.9-1.36-1.9-2.05-2.85
			c-0.93-1.25-2.16-1.75-3.47-0.8c-1.45,1.05-2.73,2.34-4.06,3.55c-0.19,0.17-0.24,0.49-0.36,0.74c-0.24-0.12-0.49-0.24-0.74-0.36
			c0.15-0.68,0.07-1.65,0.49-1.99c1.63-1.3,3.33-2.57,5.18-3.53c1.4-0.73,2.73,0.08,3.7,1.22c0.72,0.85,1.31,1.8,1.97,2.7
			c1.51,2.04,2.95,2.35,5.22,1.18C599.45,306.64,600.37,306.29,601.43,305.83z"/>
		<path class="st1" d="M252.85,224.6c-2.39,0.83-4.29,1.22-6.31,0.4c-1.65-0.68-1.59-2.11-1.56-3.52c0.1-4.56,0.19-9.12,0.34-13.68
			c0.01-0.46,0.39-0.91,0.59-1.37c0.24,0.48,0.71,0.96,0.7,1.43c-0.05,4.62-0.19,9.23-0.27,13.85c-0.03,1.91,0.41,2.35,2.33,2.36
			c1.1,0.01,2.2-0.08,3.31-0.09C252.12,223.98,252.26,224.16,252.85,224.6z"/>
		<path class="st1" d="M161.47,339.6c0.5-1.2,0.97-2.42,1.53-3.59c0.17-0.36,0.59-0.61,0.9-0.92c0.12,0.38,0.44,0.83,0.33,1.13
			c-0.44,1.24-0.86,2.53-1.58,3.61c-0.71,1.08-0.84,1.95-0.13,3.02c0.62,0.92,1.18,1.89,1.68,2.88c0.13,0.25-0.08,0.67-0.13,1.01
			c-0.37-0.12-0.92-0.12-1.09-0.37c-0.71-1.1-1.31-2.28-2.41-3.45c-0.22,0.92-0.42,1.85-0.66,2.77c-0.1,0.37-0.29,0.71-0.44,1.07
			c-0.31-0.33-0.92-0.71-0.88-0.99c0.15-1.08,0.3-2.26,0.85-3.16c0.69-1.13,0.63-2.01-0.04-3.04c-0.57-0.89-1.09-1.82-1.55-2.77
			c-0.11-0.22,0.09-0.6,0.15-0.91c0.33,0.11,0.81,0.13,0.96,0.36c0.7,1.06,1.31,2.19,1.96,3.29
			C161.12,339.56,161.29,339.58,161.47,339.6z"/>
		<path class="st1" d="M556.06,393.05c-3.04-2.67-5.22-5.88-4.96-10.12c0.24-3.82,0.94-7.61,1.48-11.4
			c0.05-0.32,0.51-0.58,0.78-0.87c0.17,0.37,0.53,0.76,0.49,1.11c-0.3,2.37-0.58,4.75-1.06,7.09c-0.96,4.65-0.35,8.84,3.17,12.33
			c0.39,0.39,0.52,1.03,0.78,1.56C556.51,392.85,556.29,392.95,556.06,393.05z"/>
		<path class="st1" d="M447.65,375.08c3.23,0.77,6.09,1.8,8.44,3.91c1.27,1.14,1.43,2.53,0.51,3.9c-0.77,1.14-1.79,2.12-2.65,3.21
			c-0.82,1.04-1.54,2.15-2.35,3.19c-0.23,0.29-0.63,0.44-0.95,0.66c-0.08-0.39-0.36-0.88-0.22-1.14c0.59-1.06,1.23-2.1,1.98-3.05
			c0.86-1.09,1.9-2.03,2.79-3.1c0.98-1.17,0.85-2.42-0.48-3.09c-2.26-1.15-4.65-2.05-6.97-3.09c-0.44-0.19-0.79-0.57-1.18-0.86
			C446.97,375.42,447.37,375.22,447.65,375.08z"/>
		<path class="st1" d="M578.52,369.63c0.13,0.08,0.34,0.14,0.39,0.26c1.98,5.07,4.29,10.11,3.76,15.73
			c-0.17,1.88-1.04,3.7-1.68,5.51c-0.1,0.28-0.69,0.38-1.06,0.56c-0.04-0.39-0.24-0.87-0.08-1.15c2.88-5.24,1.37-10.37-0.38-15.49
			c-0.36-1.05-0.96-2.02-1.29-3.08c-0.22-0.72-0.16-1.51-0.23-2.28C578.14,369.67,578.33,369.65,578.52,369.63z"/>
		<path class="st1" d="M278.81,227.95c0.09-0.44,0.08-0.95,0.29-1.31c3.68-6.26,2.75-12.24-0.98-18.11c-0.37-0.58-0.37-1.4-0.54-2.1
			c0.57,0.51,1.29,0.93,1.7,1.55c3.43,5.18,4.57,10.72,2.29,16.66c-0.49,1.28-1.32,2.42-2,3.64
			C279.31,228.16,279.06,228.05,278.81,227.95z"/>
		<path class="st1" d="M565.67,268.35c0,1.17,0.06,2.22-0.03,3.26c-0.04,0.45-0.37,0.88-0.57,1.32c-0.23-0.38-0.59-0.74-0.68-1.15
			c-0.24-1.06,0-2.6-0.63-3.1c-0.67-0.54-2.12-0.1-3.22-0.08c-0.28,0-0.59,0.08-0.83-0.02c-0.31-0.13-0.56-0.39-0.83-0.6
			c0.26-0.23,0.51-0.63,0.79-0.66c1.31-0.14,2.64-0.17,4.1-0.25c-0.18-1.83-0.38-3.47-0.46-5.12c-0.02-0.43,0.38-0.88,0.59-1.32
			c0.24,0.43,0.63,0.85,0.7,1.31c0.24,1.63,0.38,3.28,0.58,5.16c1.31-0.19,2.38-0.43,3.47-0.48c0.52-0.03,1.05,0.28,1.57,0.43
			c-0.43,0.38-0.81,1-1.29,1.1C567.86,268.35,566.74,268.29,565.67,268.35z"/>
		<path class="st1" d="M684.41,350.48c-0.58,1.14-0.98,2.45-1.79,3.38c-1.03,1.18-2.53,1.37-3.97,0.58
			c-1.32-0.72-2.29-3.07-1.99-4.66c0.08-0.43,0.24-0.85,0.35-1.28c0.56-2.16,1.46-3.06,3.13-3.1c1.58-0.04,3.03,1.12,3.61,2.93
			c0.2,0.63,0.27,1.29,0.39,1.94C684.23,350.35,684.32,350.42,684.41,350.48z M682.72,350.34c0.1-0.05,0.2-0.11,0.3-0.16
			c-0.53-0.99-0.89-2.13-1.62-2.92c-0.94-1.01-2.37-0.63-2.81,0.65c-0.33,0.98-0.59,2.07-0.52,3.08c0.09,1.23,0.59,2.49,2.16,2.49
			c1.45,0,2.15-0.98,2.41-2.32C682.7,350.89,682.7,350.61,682.72,350.34z"/>
		<path class="st1" d="M371.24,380.95c0.22-1.01,0.24-2.12,0.71-3.01c0.83-1.57,2.67-1.52,3.4,0.09c1.18,2.58,1.21,5.31,0.35,7.98
			c-0.51,1.59-2.05,1.8-2.85,0.32c-0.86-1.6-1.25-3.45-1.85-5.2C371.08,381.08,371.16,381.01,371.24,380.95z M373.93,385.9
			c1.49-1.95,1.2-6.21-0.46-7.78C371.77,380.86,373.77,383.2,373.93,385.9z"/>
		<path class="st1" d="M257.62,215.33c0.34-1.69,0.86-4.47,1.47-7.23c0.08-0.39,0.56-0.7,0.86-1.04c0.14,0.46,0.44,0.95,0.38,1.39
			c-0.38,3.08-1.1,6.14-1.18,9.22c-0.08,3.49,1.13,6.57,4.65,8.22c0.39,0.18,0.58,0.78,0.86,1.19c-0.48-0.01-1.04,0.14-1.44-0.04
			C258.65,224.95,257.84,220.88,257.62,215.33z"/>
		<path class="st1" d="M314,323.72c-0.19,0.9-0.33,1.82-0.59,2.71c-0.1,0.34-0.48,0.6-0.73,0.9c-0.2-0.35-0.58-0.73-0.54-1.06
			c0.11-0.99,0.28-2,0.64-2.92c0.36-0.95,0.29-1.66-0.39-2.43c-0.7-0.79-1.33-1.64-1.89-2.54c-0.22-0.35-0.18-0.87-0.26-1.32
			c0.44,0.19,1.01,0.26,1.31,0.59c0.74,0.82,1.36,1.74,2.18,2.83c0.69-1.17,1.23-2.23,1.9-3.2c0.26-0.37,0.82-0.53,1.24-0.78
			c-0.02,0.45,0.13,1.05-0.1,1.32c-2.13,2.56-2.2,4.98,0.31,7.33c0.08,0.07,0.14,0.19,0.16,0.29c0.1,0.6,0.18,1.19,0.26,1.79
			c-0.46-0.36-1.01-0.65-1.37-1.09c-0.62-0.76-1.14-1.62-1.69-2.44C314.29,323.71,314.15,323.72,314,323.72z"/>
		<path class="st1" d="M585.11,353.37c-0.64,2.16-1.2,4.29-1.96,6.35c-0.19,0.53-1.03,0.86-1.62,1.18
			c-0.13,0.07-0.57-0.27-0.72-0.51c-0.07-0.11,0.19-0.45,0.33-0.67c0.6-0.94,1.54-1.82,1.74-2.84c1.07-5.36,0.05-10.37-2.95-14.97
			c-0.23-0.36-0.28-0.84-0.41-1.26c0.47,0.13,1.14,0.11,1.39,0.43c0.68,0.87,1.43,1.8,1.73,2.83
			C583.55,346.98,584.27,350.11,585.11,353.37z"/>
		<path class="st1" d="M260.38,382.68c-1.5,0.38-0.92,1.93-1.23,3.12c-0.13,0.49-0.53,0.92-0.8,1.38c-0.16-0.48-0.42-0.96-0.45-1.45
			c-0.04-0.77,0.07-1.54,0.13-2.46c-0.79-0.05-1.49-0.09-2.19-0.15c-1.16-0.1-1.56-0.94-1-1.73c1.17-1.67,2.56-3.19,3.93-4.72
			c0.2-0.23,0.75-0.16,1.12-0.22c-0.18,1.26-0.48,2.32-0.42,3.35C259.53,380.69,260,381.56,260.38,382.68z"/>
		<path class="st1" d="M555.36,339.54c0,0.49,0.17,1.07-0.03,1.46c-1.53,3.09-1.86,6.39-1.74,9.75c0.11,3.1,0.57,6.11,3.07,8.38
			c0.24,0.21,0.19,0.74,0.28,1.12c-0.42-0.09-0.96-0.04-1.25-0.28c-1.73-1.46-2.62-3.41-3.01-5.61c-0.84-4.71-0.64-9.3,1.4-13.71
			c0.2-0.42,0.49-0.8,0.74-1.19C555,339.48,555.18,339.51,555.36,339.54z"/>
		<path class="st1" d="M606.88,380.85c0.29-1.5,1.28-2.68,2.74-2.89c1.37-0.21,2.12,0.62,2.46,1.77c0.67,2.25,1.18,4.58,0.13,6.84
			c-0.32,0.68-1.05,1.57-1.64,1.61c-0.62,0.04-1.64-0.69-1.89-1.32C607.93,384.9,607.46,382.86,606.88,380.85z M610.35,386.88
			c1.29-1.77,1.39-5.72,0.27-7.09c-0.2-0.24-0.72-0.48-0.95-0.38c-0.41,0.18-0.98,0.61-1,0.96
			C608.57,382.62,608.73,384.84,610.35,386.88z"/>
		<path class="st1" d="M396.6,383.44c-0.76,2.34-1.47,4.7-2.32,7.01c-0.15,0.41-0.9,0.6-1.37,0.9c0.09-0.52,0.02-1.13,0.28-1.54
			c2.71-4.3,1.98-12-1.6-16.16c-0.22-0.25-0.52-0.47-0.65-0.75c-0.17-0.36-0.2-0.79-0.3-1.18c0.43,0.1,0.98,0.07,1.27,0.33
			c2.58,2.27,4.33,7.02,4.23,11.26C396.3,383.34,396.45,383.39,396.6,383.44z"/>
		<path class="st1" d="M249.55,376.21c-0.62,1.31-1.08,2.39-1.64,3.39c-0.17,0.31-0.65,0.45-0.99,0.67
			c-0.07-0.39-0.21-0.77-0.2-1.16c0-0.25,0.18-0.52,0.33-0.76c1.18-1.93,2.02-3.81-0.3-5.6c-0.37-0.28-0.34-1.08-0.49-1.63
			c0.18-0.09,0.37-0.18,0.55-0.27c0.82,0.96,1.64,1.93,2.61,3.08c0.73-1,1.31-1.86,1.98-2.66c0.2-0.24,0.61-0.31,0.93-0.45
			c0.06,0.38,0.14,0.76,0.15,1.15c0.01,0.14-0.14,0.3-0.22,0.44c-0.56,0.97-1.62,1.97-1.56,2.9c0.06,0.92,1.23,1.77,1.91,2.65
			c0.31,0.4,0.69,0.77,0.87,1.22c0.16,0.4,0.09,0.89,0.13,1.35c-0.39-0.18-0.9-0.27-1.15-0.57
			C251.5,378.81,250.62,377.6,249.55,376.21z"/>
		<path class="st1" d="M640.26,351.07c-0.45,0.72-0.85,1.58-1.45,2.25c-1.17,1.33-2.44,2.59-3.72,3.82
			c-0.25,0.24-0.73,0.25-1.11,0.37c0.03-0.39-0.08-0.91,0.12-1.15c1.09-1.25,2.24-2.46,3.42-3.63c1.59-1.58,1.65-2.5-0.25-3.71
			c-1.91-1.21-4.03-2.09-6.04-3.16c-0.34-0.18-0.59-0.52-0.88-0.79c0.35-0.17,0.76-0.56,1.04-0.48c3.17,0.89,5.99,2.4,8.2,4.88
			C639.9,349.82,639.98,350.37,640.26,351.07z"/>
		<path class="st1" d="M563.43,389.14c-0.3-0.5-0.77-0.98-0.85-1.52c-0.35-2.51-0.59-5.03-0.89-7.79c-0.71,1.16-1.29,2.19-1.98,3.14
			c-0.19,0.26-0.71,0.29-1.08,0.42c0.01-0.4-0.11-0.85,0.04-1.18c0.69-1.51,1.43-2.99,2.21-4.46c0.18-0.35,0.57-0.82,0.87-0.82
			c0.29,0,0.72,0.47,0.85,0.82c0.28,0.72,0.48,1.49,0.57,2.25c0.32,2.75,0.58,5.52,0.84,8.28c0.02,0.2-0.09,0.41-0.14,0.62
			C563.73,388.98,563.58,389.06,563.43,389.14z"/>
		<path class="st1" d="M433.97,379.2c5.59,0.15,11.19-0.2,16.76,0.81c0.28,0.05,0.49,0.5,0.73,0.76c-0.36,0.17-0.73,0.49-1.08,0.48
			c-4.95-0.2-9.9-0.44-14.84-0.71c-0.59-0.03-1.17-0.29-1.76-0.45C433.84,379.78,433.91,379.49,433.97,379.2z"/>
		<path class="st1" d="M167.94,347.15c1.91,0.17,3.51,0.81,3.77,2.77c0.11,0.81-0.4,2.12-1.04,2.49c-0.84,0.49-2.09,0.27-3.17,0.35
			c0.02-0.35-0.03-0.73,0.09-1.04c0.04-0.11,0.51-0.06,0.79-0.07c0.89-0.03,1.98,0.08,2.06-1.14c0.08-1.19-0.79-1.87-1.9-1.89
			c-1.66-0.04-2.12-0.76-2.19-2.38c-0.06-1.36,0.45-1.91,1.56-2.02c1.04-0.1,2.1,0.02,3.14,0.15c0.25,0.03,0.45,0.52,0.67,0.79
			c-0.32,0.14-0.63,0.38-0.96,0.41c-0.49,0.03-0.99-0.09-1.49-0.14C168.06,345.31,167.68,345.88,167.94,347.15z"/>
		<path class="st1" d="M303.14,275.6c-0.77-1.02-0.32-1.68,0.54-2.02c1.16-0.46,2.28-0.05,2.54,1.14c0.2,0.94-0.04,2.1-0.42,3.02
			c-0.56,1.35-1.43,2.58-2.41,4.29c1.28,0,2.13,0,2.98,0c0.76,0,1.53,0,2.29,0c0.02,0.2,0.03,0.4,0.05,0.61
			c-0.93,1.04-2.29,0.71-3.48,0.75c-2.95,0.1-3.61-1.1-2.14-3.69c0.55-0.97,1.22-1.88,1.68-2.88c0.25-0.55,0.19-1.23,0.32-2.29
			C304.24,275,303.76,275.26,303.14,275.6z"/>
		<path class="st1" d="M533.15,316.11c2.27-0.32,4.01-0.57,5.76-0.82c0.02-0.21,0.04-0.42,0.06-0.63c-1.01-0.48-2.37-0.71-2.93-1.5
			c-0.53-0.76-0.22-2.1-0.29-3.44c-0.2,0-0.68,0.06-1.13-0.02c-0.31-0.06-0.58-0.32-0.88-0.49c0.23-0.27,0.48-0.8,0.69-0.78
			c0.85,0.06,1.85,0.07,2.48,0.54c0.39,0.29,0.27,1.35,0.28,2.06c0,0.36-0.21,0.73-0.32,1.09c1.04,0.54,2.07,0.96,2.96,1.58
			c0.91,0.63,1.02,1.74,0.01,2.16c-1.59,0.66-3.34,0.98-5.06,1.28C534.4,317.2,533.89,316.59,533.15,316.11z"/>
		<path class="st1" d="M618.73,308.47c-0.42,0.32-0.8,0.7-1.25,0.96c-0.28,0.16-0.65,0.15-0.98,0.22c-0.03-0.31-0.17-0.65-0.08-0.92
			c0.3-0.95,2.11-1.85,3.07-1.52c1.39,0.48,1.06,1.61,0.69,2.5c-0.58,1.43-1.38,2.77-2.06,4.16c-0.35,0.71-0.64,1.46-1.06,2.43
			c1.03-0.16,1.73-0.33,2.43-0.34c0.29,0,0.58,0.34,0.87,0.54c-0.2,0.22-0.39,0.45-0.61,0.66c-0.07,0.07-0.21,0.09-0.32,0.08
			c-1.16-0.04-2.32-0.1-3.48-0.15c0.2-1.04,0.22-2.16,0.64-3.1c0.77-1.75,1.76-3.39,2.66-5.08
			C619.08,308.76,618.9,308.62,618.73,308.47z"/>
		<path class="st1" d="M475.37,219.44c-2.06,0-4.13,0.03-6.19-0.03c-0.41-0.01-0.8-0.37-1.2-0.57c0.36-0.24,0.73-0.7,1.09-0.71
			c4.24-0.04,8.47-0.03,12.7,0.03c0.82,0.01,1.65,0.29,2.43,0.57c0.34,0.12,0.58,0.53,0.87,0.81c-0.42,0.14-0.85,0.44-1.24,0.4
			c-2.81-0.27-5.62-0.61-8.43-0.92C475.39,219.17,475.38,219.31,475.37,219.44z"/>
		<path class="st1" d="M393.12,261.3c0.15-0.75,0.26-1.52,0.47-2.25c0.58-2.1,0.12-2.71-2.06-2.37c-2.25,0.35-4.48,0.85-6.71,1.29
			c-0.27,0.05-0.55,0.23-0.8,0.2c-0.6-0.08-1.2-0.24-1.8-0.37c0.5-0.31,0.97-0.79,1.51-0.91c2.55-0.56,5.12-1.07,7.69-1.49
			c1.39-0.23,2.86-0.34,3.61,1.27c0.56,1.21-0.27,3.84-1.4,4.76C393.46,261.37,393.29,261.34,393.12,261.3z"/>
		<path class="st1" d="M386.86,275.21c-0.11-0.51-0.32-1.02-0.33-1.53c-0.08-4.62-0.14-9.24-0.2-13.86c0-0.28-0.08-0.59,0.03-0.83
			c0.13-0.3,0.41-0.55,0.63-0.81c0.2,0.27,0.57,0.53,0.59,0.82c0.09,1.27,0.08,2.56,0.11,3.84c0.07,3.56,0.15,7.12,0.18,10.68
			c0.01,0.58-0.21,1.16-0.32,1.74C387.32,275.24,387.1,275.23,386.86,275.21z"/>
		<path class="st1" d="M483.75,215.07c-0.32,0.12-0.65,0.37-0.97,0.35c-4.95-0.28-9.89-0.58-14.83-0.93
			c-0.46-0.03-0.89-0.39-1.34-0.61c0.44-0.22,0.88-0.65,1.31-0.64c4.58,0.14,9.15,0.31,13.72,0.56c0.74,0.04,1.46,0.51,2.18,0.77
			C483.79,214.75,483.77,214.91,483.75,215.07z"/>
		<path class="st1" d="M655.09,386.88c0.7,0.2,1.4,0.22,1.82,0.57c0.75,0.62,1.68,1.38,1.85,2.21c0.11,0.55-0.89,1.51-1.6,1.96
			c-0.59,0.38-1.48,0.37-2.25,0.39c-0.23,0.01-0.48-0.46-0.71-0.71c0.26-0.23,0.5-0.49,0.78-0.69c0.1-0.07,0.35,0.09,0.48,0.04
			c0.68-0.28,1.34-0.6,2.01-0.9c-0.56-0.42-1.1-0.88-1.69-1.26c-0.27-0.17-0.64-0.16-0.96-0.28c-1.39-0.53-1.58-1.12-0.76-2.36
			c0.21-0.31,0.4-0.64,0.67-1.09c-0.34,0-0.55-0.02-0.74,0c-0.47,0.06-0.93,0.13-1.4,0.2c0.27-0.47,0.47-1.26,0.82-1.33
			c0.73-0.16,1.71-0.16,2.27,0.22c0.32,0.22,0.07,1.34-0.01,2.04C655.62,386.2,655.34,386.46,655.09,386.88z"/>
		<path class="st1" d="M474.69,383.63c-0.66,0.52-1.32,1.05-2.01,1.61c-0.11-0.06-0.38-0.17-0.37-0.21c0.17-0.62,0.2-1.59,0.6-1.77
			c0.87-0.4,1.93-0.53,2.9-0.49c0.2,0.01,0.66,1.31,0.48,1.85c-0.51,1.56-1.29,3.03-2.17,5.01c1.44-0.13,2.5-0.26,3.56-0.31
			c0.37-0.02,0.74,0.16,1.12,0.25c-0.28,0.35-0.54,0.71-0.84,1.05c-0.06,0.07-0.21,0.08-0.32,0.07c-1.45-0.13-3.36,0.25-4.23-0.53
			c-1.22-1.09,0.27-2.61,0.8-3.9c0.3-0.75,0.63-1.49,0.96-2.23C475,383.89,474.85,383.76,474.69,383.63z"/>
		<path class="st1" d="M442,383.01c2.92,0,5.1-0.03,7.28,0.03c0.42,0.01,0.83,0.37,1.24,0.57c-0.42,0.24-0.83,0.69-1.26,0.7
			c-4.46,0.16-8.93,0.26-13.4,0.33c-0.41,0.01-0.82-0.35-1.22-0.53c0.41-0.26,0.81-0.73,1.24-0.76
			C438.16,383.16,440.45,383.08,442,383.01z"/>
		<path class="st1" d="M505.32,358.93c1.3,0,2.19-0.07,3.06,0.03c0.39,0.05,0.74,0.46,1.1,0.71c-0.35,0.19-0.69,0.53-1.06,0.55
			c-1.05,0.07-2.12,0.07-3.17-0.01c-1.41-0.11-1.73-0.73-1.07-1.99c0.52-0.98,1.18-1.89,1.66-2.88c0.29-0.61,0.36-1.32,0.58-2.2
			c-0.49,0.1-0.68,0.14-0.88,0.19c-0.51,0.11-1.01,0.22-1.52,0.33c0.26-0.5,0.4-1.2,0.82-1.46c0.49-0.31,1.33-0.48,1.82-0.26
			c0.46,0.21,0.99,1.05,0.92,1.53c-0.17,1.17-0.63,2.31-1.06,3.43C506.29,357.49,505.87,358.01,505.32,358.93z"/>
		<path class="st1" d="M387.94,381.28c-0.62,1.07-0.99,1.71-1.46,2.52c-0.32-0.42-0.64-0.66-0.6-0.81c0.47-1.88,0.97-3.76,1.51-5.62
			c0.06-0.2,0.45-0.48,0.6-0.43c0.25,0.08,0.58,0.37,0.61,0.6c0.4,3.14,0.78,6.28,1.1,9.42c0.03,0.3-0.4,0.65-0.61,0.97
			c-0.21-0.34-0.58-0.66-0.62-1.02C388.25,385.16,388.12,383.4,387.94,381.28z"/>
		<path class="st1" d="M487.36,358.06c1.3-0.29,2.09-0.52,2.88-0.62c0.3-0.04,0.64,0.22,0.96,0.34c-0.19,0.29-0.35,0.61-0.58,0.85
			c-0.14,0.15-0.4,0.25-0.61,0.25c-1.27-0.03-2.55-0.1-3.82-0.15c0.41-1.09,0.78-2.19,1.25-3.25c0.35-0.79,0.83-1.51,1.25-2.26
			c-0.09-0.13-0.19-0.27-0.29-0.4c-0.8,0.22-1.6,0.44-2.52,0.69c-0.08-0.18-0.31-0.44-0.26-0.64c0.23-0.94,1.99-1.63,3.25-1.3
			c1.19,0.3,1.26,1.19,0.94,2.09c-0.3,0.87-0.8,1.68-1.25,2.5C488.29,356.65,487.95,357.13,487.36,358.06z"/>
		<path class="st1" d="M595.94,265.43c2.17-0.15,4.34-0.31,6.51-0.41c0.3-0.01,0.62,0.3,0.93,0.46c-0.21,0.28-0.36,0.69-0.65,0.83
			c-0.38,0.18-0.86,0.19-1.31,0.21c-2.9,0.09-5.81,0.13-8.71,0.26c-1.16,0.05-2.3,0.33-3.46,0.42c-0.32,0.03-0.67-0.21-1-0.32
			c0.18-0.3,0.3-0.76,0.56-0.87c0.6-0.25,1.28-0.45,1.92-0.47c1.73-0.06,3.46-0.02,5.19-0.02
			C595.94,265.49,595.94,265.46,595.94,265.43z"/>
		<path class="st1" d="M364.32,304.3c2.11-0.14,4.22-0.29,6.33-0.43c0.5-0.03,1.02-0.13,1.49-0.02c0.36,0.08,0.65,0.45,0.97,0.69
			c-0.34,0.19-0.68,0.54-1.03,0.55c-4.12,0.14-8.23,0.26-12.35,0.31c-0.45,0.01-0.91-0.38-1.36-0.58c0.48-0.24,0.94-0.65,1.43-0.68
			c1.5-0.09,3.01-0.03,4.51-0.03C364.32,304.16,364.32,304.23,364.32,304.3z"/>
		<path class="st1" d="M427.12,308.68c-0.23-0.31-0.25-0.36-0.29-0.39c-0.48-0.36-0.96-0.7-1.45-1.05c0.26-0.17,0.59-0.54,0.75-0.47
			c0.72,0.29,1.92,0.62,1.98,1.08c0.14,0.94-0.16,2.05-0.59,2.95c-0.56,1.18-1.42,2.22-2.44,3.77c1.34,0,2.25-0.06,3.14,0.03
			c0.33,0.04,0.63,0.43,0.95,0.66c-0.29,0.19-0.58,0.4-0.88,0.57c-0.09,0.05-0.22,0.04-0.33,0.02c-1.26-0.24-2.52-0.48-3.78-0.72
			c0.43-1.21,0.78-2.45,1.3-3.61C425.97,310.48,426.62,309.54,427.12,308.68z"/>
		<path class="st1" d="M466.91,317.58c1.18-0.18,1.98-0.37,2.79-0.39c0.35-0.01,0.71,0.35,1.06,0.53c-0.29,0.25-0.58,0.7-0.88,0.71
			c-1.32,0.03-2.65-0.07-3.98-0.12c0.3-1.24,0.57-2.48,0.93-3.71c0.21-0.73,0.56-1.41,0.98-2.42c-0.76,0.05-1.23,0.15-1.67,0.08
			c-0.41-0.07-0.79-0.34-1.19-0.52c0.3-0.25,0.6-0.71,0.9-0.71c0.9,0,2.14-0.13,2.6,0.37c0.45,0.5,0.32,1.77,0.08,2.6
			C468.23,315.14,467.57,316.18,466.91,317.58z"/>
		<path class="st1" d="M550.38,304.18c2.01,0,4.02-0.01,6.02,0.01c0.39,0,0.82,0.01,1.15,0.17c0.28,0.14,0.45,0.51,0.67,0.77
			c-0.26,0.16-0.52,0.47-0.78,0.47c-4.18-0.04-8.36-0.11-12.54-0.22c-0.34-0.01-0.67-0.39-1.01-0.6c0.38-0.23,0.74-0.65,1.13-0.67
			c1.78-0.07,3.58-0.03,5.36-0.03C550.38,304.11,550.38,304.15,550.38,304.18z"/>
		<path class="st1" d="M321.76,330.94c1.21-0.73,2.28-1.39,3.36-2.03c0.05-0.15,0.09-0.31,0.14-0.46c-2.79-0.52-2.33-2.43-2.06-3.98
			c-0.79-0.15-1.39-0.27-1.99-0.39c0.39-0.42,0.77-1.17,1.16-1.18c0.7,0,1.49,0.33,2.07,0.76c0.25,0.18,0.18,0.97,0.06,1.43
			c-0.27,1.06-0.12,1.75,1.07,2.16c1.05,0.37,1.28,1.29,0.55,2.14c-0.72,0.83-1.54,1.63-2.48,2.19
			C322.85,332.04,321.91,332.01,321.76,330.94z"/>
		<path class="st1" d="M377.43,345.55c-0.49,0.17-0.99,0.49-1.48,0.49c-3.84,0.04-7.68,0.04-11.52-0.01
			c-0.46-0.01-0.9-0.39-1.36-0.6c0.42-0.23,0.85-0.64,1.27-0.65c3.89-0.05,7.79-0.04,11.68-0.02c0.45,0,0.89,0.17,1.34,0.26
			C377.39,345.2,377.41,345.38,377.43,345.55z"/>
		<path class="st1" d="M627.53,350.74c-1.95,0-3.89,0.03-5.84-0.03c-0.37-0.01-0.73-0.39-1.1-0.6c0.38-0.23,0.77-0.65,1.15-0.65
			c2-0.04,4,0.04,6.01,0.06c1.89,0.02,3.79,0,5.67,0.07c0.41,0.02,0.81,0.38,1.22,0.59c-0.43,0.24-0.84,0.67-1.28,0.68
			c-1.95,0.07-3.89,0.03-5.84,0.03C627.53,350.84,627.53,350.79,627.53,350.74z"/>
		<path class="st1" d="M494.98,266.68c-2.01,0-4.02,0.03-6.02-0.03c-0.38-0.01-0.76-0.41-1.13-0.63c0.4-0.21,0.79-0.6,1.18-0.6
			c4.01,0.01,8.03,0.07,12.05,0.16c0.35,0.01,0.69,0.37,1.03,0.58c-0.36,0.25-0.72,0.7-1.09,0.71c-2.01,0.07-4.01,0.03-6.02,0.03
			C494.98,266.83,494.98,266.75,494.98,266.68z"/>
		<path class="st1" d="M355.1,353.84c-0.47,0.52-0.86,1.05-1.35,1.46c-0.2,0.17-0.59,0.11-0.89,0.16c-0.04-0.3-0.2-0.67-0.08-0.9
			c0.64-1.22,1.31-2.43,2.09-3.56c0.13-0.18,1.21-0.06,1.29,0.14c0.3,0.75,0.42,1.59,0.51,2.41c0.19,1.7,0.33,3.4,0.45,5.1
			c0.02,0.31-0.2,0.64-0.31,0.96c-0.32-0.23-0.86-0.42-0.92-0.7C355.57,357.29,355.37,355.65,355.1,353.84z"/>
		<path class="st1" d="M367.26,308.16c-1.95,0-3.89,0.03-5.84-0.03c-0.36-0.01-0.7-0.36-1.05-0.55c0.37-0.23,0.73-0.68,1.1-0.67
			c3.84,0.05,7.67,0.15,11.51,0.3c0.39,0.02,0.76,0.43,1.14,0.66c-0.4,0.2-0.79,0.55-1.19,0.57c-1.89,0.06-3.78,0.03-5.67,0.03
			C367.26,308.36,367.26,308.26,367.26,308.16z"/>
		<path class="st1" d="M600.49,381.96c-2.99,0-5.75,0-8.52,0c-1.11,0-2.23,0.07-3.34-0.03c-0.44-0.04-0.84-0.46-1.25-0.71
			c0.39-0.2,0.78-0.58,1.17-0.59c3.45-0.05,6.9-0.04,10.35-0.01C599.83,380.62,600.72,380.8,600.49,381.96z"/>
		<path class="st1" d="M488.11,307.3c-0.39,0.13-0.83,0.44-1.17,0.36c-3.69-0.92-7.4-0.84-11.13-0.32c-0.31,0.04-0.66-0.21-1-0.33
			c0.29-0.33,0.56-0.91,0.88-0.95c1.83-0.21,3.67-0.38,5.5-0.38c1.67,0,3.35,0.17,5.01,0.38c0.66,0.08,1.28,0.49,1.91,0.75
			C488.12,306.97,488.11,307.14,488.11,307.3z"/>
		<path class="st1" d="M656.89,353.06c0.98-1.11,2.49-1.2,3.76,0.01c1.28,1.23,1.52,3.55,0.32,4.45c-0.55,0.41-1.62,0.76-2.08,0.49
			c-0.64-0.37-1.04-1.3-1.35-2.07C657.22,355.15,657.15,354.28,656.89,353.06z M658.5,353.17c0.17,1,0.22,1.52,0.35,2.02
			c0.15,0.54,0.36,1.06,0.55,1.59c0.24-0.1,0.67-0.18,0.69-0.32c0.08-0.61,0.22-1.31,0-1.83
			C659.88,354.14,659.24,353.83,658.5,353.17z"/>
		<path class="st1" d="M412.33,381.6c-4.3,0-8.6,0-13.3,0c0.6-0.38,1.06-0.93,1.54-0.96c3.39-0.18,6.78-0.29,10.17-0.34
			c0.56-0.01,1.12,0.35,1.68,0.54C412.38,381.1,412.36,381.35,412.33,381.6z"/>
		<path class="st1" d="M552.9,308.74c-1.78,0-3.56,0.04-5.34-0.03c-0.37-0.01-0.73-0.43-1.09-0.66c0.34-0.21,0.68-0.61,1.02-0.62
			c3.5-0.04,7.01-0.04,10.51,0.04c0.44,0.01,0.86,0.62,1.3,0.95c-0.46,0.11-0.92,0.32-1.39,0.33c-1.67,0.04-3.34,0.02-5,0.02
			C552.9,308.76,552.9,308.75,552.9,308.74z"/>
		<path class="st1" d="M489.49,309.21c-0.78,0.16-1.56,0.43-2.35,0.46c-3.23,0.09-6.46,0.13-9.7,0.13c-0.37,0-0.74-0.41-1.12-0.64
			c0.4-0.2,0.79-0.58,1.19-0.59c3.56-0.15,7.13-0.24,10.69-0.31c0.43-0.01,0.86,0.2,1.28,0.3
			C489.5,308.78,489.49,308.99,489.49,309.21z"/>
		<path class="st1" d="M597.32,350.11c1.61,0,3.22-0.04,4.83,0.02c0.48,0.02,0.95,0.32,1.42,0.49c-0.46,0.27-0.91,0.75-1.38,0.76
			c-2.89,0.06-5.78,0.02-8.67,0.02c-0.61,0-1.21,0.09-1.81,0.04c-0.38-0.03-0.75-0.22-1.12-0.34c0.3-0.33,0.58-0.91,0.91-0.94
			c1.21-0.12,2.44-0.05,3.66-0.06C595.87,350.11,596.6,350.11,597.32,350.11z"/>
		<path class="st1" d="M602.78,268.47c-0.44,0.33-0.86,0.93-1.32,0.96c-3.55,0.23-7.1,0.37-10.65,0.48
			c-0.29,0.01-0.59-0.34-0.88-0.53c0.35-0.26,0.69-0.72,1.06-0.75c1.88-0.16,3.77-0.19,5.66-0.29c1.92-0.09,3.84-0.2,5.76-0.31
			C602.53,268.18,602.65,268.33,602.78,268.47z"/>
		<path class="st1" d="M495.49,268.29c1.62,0.1,3.41,0.17,5.19,0.34c0.42,0.04,0.8,0.41,1.19,0.64c-0.37,0.23-0.75,0.66-1.12,0.65
			c-3.57-0.06-7.14-0.17-10.71-0.33c-0.32-0.01-0.62-0.43-0.93-0.67c0.34-0.21,0.68-0.59,1.03-0.6
			C491.87,268.25,493.6,268.29,495.49,268.29z"/>
		<path class="st1" d="M370.69,349.77c-1.83-0.19-3.77-0.36-5.69-0.62c-0.32-0.04-0.58-0.5-0.88-0.77c0.3-0.18,0.59-0.48,0.91-0.52
			c0.49-0.06,1,0.07,1.5,0.08c2.6,0.04,5.19,0.06,7.79,0.09c0.45,0,0.91-0.11,1.32,0c0.42,0.12,0.77,0.45,1.15,0.69
			c-0.39,0.19-0.77,0.49-1.19,0.54C374,349.48,372.4,349.61,370.69,349.77z"/>
		<path class="st1" d="M486.08,380.26c1.84,0.12,3.56,0.18,5.27,0.38c0.4,0.05,0.75,0.59,1.12,0.9c-0.41,0.15-0.83,0.44-1.23,0.43
			c-3.49-0.13-6.99-0.3-10.48-0.5c-0.34-0.02-0.66-0.35-0.99-0.53c0.31-0.26,0.61-0.72,0.92-0.73c1.61-0.05,3.22,0.02,4.83,0.05
			C485.75,380.26,485.97,380.26,486.08,380.26z"/>
		<path class="st1" d="M494.49,384.99c-3.48,0-6.97,0.02-10.46-0.02c-0.37,0-0.73-0.32-1.1-0.49c0.29-0.27,0.57-0.78,0.85-0.78
			c3.6,0.07,7.2,0.19,10.8,0.37c0.33,0.02,0.63,0.48,0.95,0.73c-0.3,0.24-0.61,0.48-0.91,0.71
			C494.58,385.34,494.54,385.17,494.49,384.99z"/>
		<path class="st1" d="M623.36,380.66c1.87,0.19,3.75,0.31,5.59,0.61c0.42,0.07,0.73,0.76,1.09,1.16c-0.47,0.02-0.94,0.09-1.4,0.05
			c-1.21-0.11-2.42-0.38-3.63-0.37c-2.06,0.02-4.11,0.23-6.16,0.31c-0.31,0.01-0.63-0.24-0.95-0.37c0.26-0.3,0.49-0.84,0.78-0.87
			c1.55-0.17,3.1-0.22,4.66-0.31C623.34,380.81,623.35,380.73,623.36,380.66z"/>
		<path class="st1" d="M596.51,353.31c1.94-0.16,3.87-0.35,5.82-0.45c0.41-0.02,0.83,0.29,1.25,0.45c-0.35,0.28-0.69,0.8-1.05,0.82
			c-3.33,0.18-6.67,0.3-10,0.37c-0.3,0.01-0.6-0.47-0.91-0.72c0.35-0.2,0.68-0.55,1.04-0.57c1.28-0.07,2.56-0.03,3.84-0.03
			C596.51,353.22,596.51,353.27,596.51,353.31z"/>
		<path class="st1" d="M628.6,354.08c-1.61,0-3.22,0.05-4.83-0.03c-0.44-0.02-0.87-0.44-1.3-0.67c0.39-0.2,0.78-0.57,1.17-0.58
			c3.39-0.08,6.78-0.12,10.17-0.1c0.44,0,0.87,0.42,1.3,0.64c-0.45,0.2-0.89,0.57-1.34,0.59c-1.72,0.07-3.44,0.03-5.16,0.03
			C628.6,354.01,628.6,354.04,628.6,354.08z"/>
		<path class="st1" d="M402.01,356.08c0.05,1.32-0.63,2.23-1.87,2.36c-1.33,0.15-1.76-0.94-1.92-2.06
			c-0.13-0.88-0.24-1.75-0.31-2.63c-0.09-1.13,0.8-1.07,1.49-1.05C400.83,352.75,401.97,354.29,402.01,356.08z M399.71,357.04
			c0.21-0.03,0.43-0.06,0.65-0.08c0.59-0.98,0.28-1.83-0.41-2.63c-0.18,0.02-0.36,0.05-0.54,0.07
			C399.51,355.28,399.62,356.15,399.71,357.04z"/>
		<path class="st1" d="M406.63,384.33c-1.56,0-3.12,0.04-4.68-0.03c-0.34-0.01-0.66-0.4-0.99-0.61c0.32-0.23,0.64-0.64,0.97-0.66
			c3.23-0.17,6.46-0.3,9.69-0.38c0.32-0.01,0.66,0.4,0.99,0.62c-0.33,0.23-0.64,0.65-0.98,0.67c-1.67,0.07-3.34,0.03-5.01,0.03
			C406.63,384.09,406.63,384.21,406.63,384.33z"/>
		<path class="st1" d="M543.81,353.87c-0.69,0.86-1.03,1.38-1.47,1.77c-0.17,0.15-0.58,0.04-0.89,0.05c0.01-0.3-0.1-0.67,0.04-0.89
			c0.54-0.9,1.13-1.78,1.76-2.62c0.2-0.27,0.66-0.56,0.92-0.5c0.28,0.06,0.6,0.49,0.68,0.82c0.46,1.87,0.88,3.76,1.23,5.65
			c0.05,0.25-0.33,0.67-0.61,0.84c-0.14,0.08-0.68-0.2-0.75-0.41c-0.26-0.79-0.42-1.61-0.58-2.42
			C544.04,355.58,543.98,355.01,543.81,353.87z"/>
		<path class="st1" d="M392.19,312.69c-0.21,0.18-0.56,0.46-0.93,0.77c-0.61-1.19,0.21-3.76,1.26-3.99
			c0.31-0.07,1.02,0.44,1.09,0.78c0.19,1.03,0.1,2.11,0.24,3.15c0.14,0.97,0.46,1.92,0.65,2.89c0.06,0.34-0.04,0.71-0.07,1.07
			c-0.36-0.16-0.96-0.23-1.04-0.48C392.92,315.51,392.59,314.12,392.19,312.69z"/>
		<path class="st1" d="M594.16,383.62c1.45,0,2.91-0.07,4.35,0.04c0.49,0.04,0.93,0.56,1.39,0.86c-0.47,0.16-0.95,0.45-1.42,0.45
			c-2.46,0.01-4.91-0.05-7.36-0.08c-0.39-0.01-0.82,0.08-1.16-0.05c-0.35-0.13-0.61-0.48-0.91-0.74c0.31-0.17,0.61-0.49,0.92-0.5
			c1.39-0.06,2.79-0.02,4.19-0.02C594.16,383.59,594.16,383.6,594.16,383.62z"/>
		<path class="st1" d="M455.22,354.37c-0.8,0.4-1.46,0.72-2.12,1.05c0.26-0.73,0.4-1.52,0.79-2.17c0.39-0.66,1.02-1.19,1.54-1.77
			c0.36,0.76,0.86,1.49,1.03,2.29c0.32,1.46,0.49,2.96,0.62,4.46c0.03,0.33-0.34,0.7-0.52,1.06c-0.24-0.3-0.62-0.57-0.69-0.9
			C455.59,357.02,455.42,355.64,455.22,354.37z"/>
		<path class="st1" d="M577.2,315.1c-0.48-0.05-0.93-0.1-1.79-0.19c0.62-1.15,1.1-2.11,1.69-2.99c0.05-0.08,1.13,0.25,1.14,0.43
			c0.13,2.42,0.18,4.85,0.19,7.28c0,0.27-0.4,0.54-0.62,0.8c-0.2-0.33-0.57-0.65-0.58-0.99C577.16,318.01,577.2,316.57,577.2,315.1z
			"/>
		<path class="st1" d="M535.73,270.01c-1.23,0-2.46,0.06-3.68-0.03c-0.45-0.03-0.86-0.41-1.29-0.63c0.45-0.21,0.9-0.59,1.36-0.6
			c2.01-0.07,4.01-0.01,6.02-0.04c0.6-0.01,1.2-0.23,1.79-0.21c0.39,0.01,0.78,0.26,1.17,0.4c-0.29,0.34-0.55,0.97-0.86,0.99
			c-1.5,0.1-3.01,0.05-4.51,0.05C535.73,269.96,535.73,269.99,535.73,270.01z"/>
		<path class="st1" d="M545.33,392.93c-0.27-2.03-0.5-3.74-0.76-5.71c-0.4,0.43-0.56,0.71-0.81,0.85c-0.25,0.14-0.58,0.16-0.87,0.22
			c-0.07-0.3-0.28-0.67-0.18-0.88c0.41-0.85,0.87-1.69,1.44-2.43c0.14-0.18,1.13-0.03,1.14,0.05c0.37,2.34,0.66,4.7,0.93,7.05
			C546.24,392.25,545.87,392.44,545.33,392.93z"/>
		<path class="st1" d="M663.66,350.94c0.52-0.06,1.05-0.15,1.57-0.16c2.56-0.02,5.12-0.04,7.68,0.02c0.44,0.01,0.87,0.42,1.3,0.64
			c-0.4,0.21-0.79,0.6-1.2,0.61c-2.73,0.06-5.45,0.05-8.18,0.01c-0.45-0.01-0.89-0.33-1.33-0.51
			C663.56,351.35,663.61,351.14,663.66,350.94z"/>
		<path class="st1" d="M666.43,381.37c-1.34,0-2.69,0.04-4.02-0.03c-0.33-0.02-0.63-0.41-0.94-0.63c0.29-0.21,0.57-0.59,0.86-0.6
			c2.9-0.11,5.81-0.17,8.72-0.19c0.29,0,0.59,0.35,0.88,0.54c-0.32,0.24-0.63,0.67-0.97,0.68c-1.51,0.07-3.01,0.03-4.52,0.03
			C666.43,381.24,666.43,381.31,666.43,381.37z"/>
		<path class="st1" d="M351.74,312.95c-0.62,0.09-1.09,0.17-1.56,0.24c0.05-0.51-0.07-1.15,0.19-1.52c0.57-0.82,1.33-1.51,2-2.26
			c0.21,0.91,0.49,1.8,0.63,2.72c0.19,1.26,0.31,2.54,0.38,3.81c0.02,0.35-0.25,0.7-0.39,1.05c-0.3-0.27-0.82-0.5-0.88-0.83
			C351.9,315.07,351.85,313.96,351.74,312.95z"/>
		<path class="st1" d="M437.88,354.64c-0.62,0.4-0.95,0.69-1.34,0.85c-0.2,0.08-0.59,0.01-0.73-0.14c-0.13-0.14-0.14-0.53-0.04-0.72
			c0.44-0.83,0.91-1.64,1.45-2.41c0.23-0.32,0.66-0.5,1-0.75c0.23,0.33,0.63,0.65,0.67,1.01c0.16,1.6,0.26,3.21,0.29,4.82
			c0,0.3-0.43,0.61-0.66,0.92c-0.21-0.28-0.56-0.55-0.59-0.86C437.83,356.54,437.88,355.72,437.88,354.64z"/>
		<path class="st1" d="M354.01,385.71c-0.56,0.08-1.01,0.15-1.46,0.21c0.03-0.46-0.1-1.05,0.13-1.35c0.48-0.6,1.15-1.06,1.75-1.57
			c0.3,0.65,0.74,1.28,0.88,1.97c0.28,1.4,0.43,2.84,0.56,4.27c0.03,0.35-0.19,0.73-0.29,1.09c-0.32-0.23-0.86-0.42-0.93-0.71
			C354.37,388.32,354.22,387.01,354.01,385.71z"/>
		<path class="st1" d="M672.55,383.7c-0.39,0.12-0.77,0.33-1.16,0.33c-2.51-0.02-5.01-0.06-7.52-0.17c-0.4-0.02-0.77-0.45-1.16-0.68
			c0.38-0.2,0.76-0.59,1.14-0.59c2.45,0,4.9,0.07,7.35,0.16c0.45,0.02,0.89,0.23,1.33,0.36
			C672.54,383.31,672.55,383.51,672.55,383.7z"/>
		<path class="st1" d="M200.41,262.55c-0.11,0.24-0.17,0.55-0.36,0.72c-0.24,0.23-0.57,0.37-0.86,0.56c-0.11-0.34-0.4-0.76-0.3-1
			c0.46-1.06,1-2.1,1.63-3.07c0.09-0.14,1.15,0.07,1.16,0.19c0.21,1.65,0.34,3.31,0.42,4.97c0.01,0.23-0.35,0.47-0.53,0.71
			c-0.23-0.26-0.61-0.49-0.66-0.78c-0.12-0.74-0.1-1.5-0.14-2.25C200.66,262.58,200.53,262.57,200.41,262.55z"/>
		<path class="st1" d="M672.48,348.87c-2.49,0-4.99,0.04-7.49-0.03c-0.48-0.01-0.95-0.44-1.42-0.67c0.45-0.21,0.9-0.59,1.36-0.61
			c2.22-0.13,4.44-0.21,6.67-0.19c0.43,0.01,0.86,0.58,1.29,0.89C672.75,348.46,672.61,348.66,672.48,348.87z"/>
		<path class="st1" d="M346.62,228.11c-0.24-0.5-0.59-0.98-0.69-1.5c-0.39-2.12-0.71-4.26-1.01-6.39c-0.04-0.25,0.14-0.74,0.3-0.78
			c0.25-0.06,0.72,0.09,0.84,0.29c0.26,0.47,0.44,1.02,0.52,1.56c0.28,1.87,0.51,3.74,0.73,5.61c0.04,0.34-0.09,0.7-0.14,1.05
			C346.98,228,346.8,228.06,346.62,228.11z"/>
		<path class="st1" d="M430.44,226.07c-0.13-0.5-0.34-0.99-0.39-1.49c-0.21-2.04-0.39-4.09-0.5-6.13c-0.02-0.31,0.42-0.64,0.64-0.96
			c0.21,0.28,0.57,0.55,0.6,0.84c0.24,2.2,0.45,4.41,0.6,6.62c0.03,0.36-0.24,0.75-0.38,1.13
			C430.83,226.08,430.63,226.07,430.44,226.07z"/>
		<path class="st1" d="M512.69,312.81c-0.66,0.92-1.3,1.87-2.02,2.74c-0.13,0.15-0.66-0.06-1.01-0.1c0.11-0.32,0.12-0.73,0.34-0.96
			c1.46-1.56,1.31-2.81-0.48-4.16c-0.24-0.18-0.29-0.61-0.43-0.92c0.35-0.09,0.71-0.3,1.03-0.24
			C511.34,309.37,512.28,310.87,512.69,312.81z"/>
		<path class="st1" d="M547.26,226.4c0.17-1.66,0.32-3.43,0.57-5.19c0.04-0.31,0.49-0.57,0.75-0.85c0.18,0.35,0.53,0.7,0.52,1.04
			c-0.08,2.09-0.22,4.19-0.42,6.27c-0.03,0.28-0.44,0.52-0.67,0.78c-0.21-0.21-0.54-0.38-0.61-0.63
			C547.27,227.41,547.3,226.95,547.26,226.4z"/>
		<path class="st1" d="M377,280.36c-0.23-0.39-0.51-0.65-0.52-0.92c-0.04-2.04-0.06-4.09-0.02-6.13c0.01-0.3,0.35-0.6,0.54-0.9
			c0.25,0.24,0.72,0.48,0.72,0.73c0.04,2.15,0.02,4.3-0.04,6.46C377.69,279.83,377.31,280.04,377,280.36z"/>
		<path class="st1" d="M440.59,315.73c-0.83,1.18-1.55,2.27-2.36,3.3c-0.12,0.15-0.68-0.04-1.03-0.08c0.1-0.33,0.1-0.77,0.32-0.96
			c1.32-1.19,1.91-2.42,0.49-3.94c-0.14-0.15-0.13-0.71-0.07-0.73c0.34-0.12,0.92-0.29,1.03-0.14
			C439.51,313.87,439.93,314.65,440.59,315.73z"/>
		<path class="st1" d="M566.41,386.5c0-0.17-0.04-0.35,0.01-0.5c0.2-0.56,0.43-1.11,0.65-1.66c0.22,0.55,0.51,1.07,0.62,1.64
			c0.27,1.28,0.48,2.58,0.66,3.89c0.04,0.32-0.13,0.67-0.21,1c-0.35-0.15-0.95-0.24-1.02-0.48c-0.37-1.26-0.61-2.56-0.9-3.85
			C566.29,386.52,566.35,386.51,566.41,386.5z"/>
		<path class="st1" d="M567.92,361.82c-0.21-1.2-0.41-2.1-0.52-3.02c-0.12-0.98-0.2-1.98-0.22-2.97c0-0.26,0.25-0.58,0.48-0.76
			c0.08-0.06,0.6,0.19,0.62,0.34c0.2,1.9,0.35,3.81,0.48,5.71C568.76,361.25,568.45,361.39,567.92,361.82z"/>
		<path class="st1" d="M522.39,387.95c-0.33,0.58-0.58,1.12-0.93,1.58c-0.11,0.14-0.56,0.15-0.75,0.04
			c-0.17-0.09-0.34-0.54-0.26-0.66c0.92-1.41-0.3-2.35-0.69-3.48c-0.17-0.48-0.06-1.06-0.08-1.59c0.4,0.3,0.93,0.52,1.17,0.92
			C521.41,385.75,521.85,386.82,522.39,387.95z"/>
		<path class="st1" d="M380.4,387.99c0.07,0.83,0.19,1.66,0.2,2.48c0,0.31-0.25,0.62-0.38,0.93c-0.27-0.15-0.76-0.29-0.77-0.45
			c-0.1-1.76-0.14-3.52-0.15-5.28c0-0.13,0.43-0.39,0.63-0.36c0.2,0.02,0.5,0.32,0.52,0.51c0.06,0.72,0.02,1.44,0.02,2.16
			C380.45,387.98,380.42,387.98,380.4,387.99z"/>
	</g>
</g>
</svg>
