<?xml version="1.0" encoding="utf-8"?>
<!-- Generator: Adobe Illustrator 24.1.1, SVG Export Plug-In . SVG Version: 6.00 Build 0)  -->
<svg version="1.1" id="Слой_1" xmlns="http://www.w3.org/2000/svg" xmlns:xlink="http://www.w3.org/1999/xlink" x="0px" y="0px"
	 viewBox="0 0 841.89 595.28" style="enable-background:new 0 0 841.89 595.28;" xml:space="preserve">
<style type="text/css">
	.st0{clip-path:url(#SVGID_2_);}
	.st1{fill:#1F264A;}
</style>
<g>
	<defs>
		<rect id="SVGID_1_" x="168.3" y="200.46" width="506" height="195"/>
	</defs>
	<clipPath id="SVGID_2_">
		<use xlink:href="#SVGID_1_"  style="overflow:visible;"/>
	</clipPath>
	<g class="st0">
		<path class="st1" d="M423.43,301.55c2.2-0.83,26.58-1.54,27.59-0.47c-7.9,0.4-15.8,0.8-22.99,1.17c2.66,0.63,6,1.41,9.33,2.21
			c0.26,0.06,0.52,0.16,0.77,0.27c1.49,0.65,3.21,1.15,3.47,3.05c0.26,1.98-1.33,2.79-2.74,3.63c-2.6,1.56-5.27,3.03-7.8,4.71
			c-1.48,0.98-2.81,2.21-4.09,3.45c-1.4,1.36-1.04,2.32,0.89,2.78c3.99,0.95,7.99,0.48,11.99,0.15c5.73-0.47,11.46-0.99,17.19-1.46
			c0.58-0.05,1.18,0.15,1.77,0.23c0.01,0.16,0.01,0.33,0.02,0.49c-0.42,0.11-0.84,0.28-1.27,0.32c-7.08,0.62-14.15,1.34-21.24,1.78
			c-2.89,0.18-5.86-0.07-8.73-0.51c-2.92-0.44-3.55-2.6-1.36-4.59c2.11-1.92,4.45-3.61,6.81-5.23c1.92-1.32,4.04-2.34,6.01-3.57
			c2.09-1.31,2.07-2.58-0.14-3.63c-3.87-1.84-8.03-2.64-12.28-2.8C425.12,303.48,423.92,303.3,423.43,301.55z"/>
		<path class="st1" d="M667.34,318.21c-1.34,0.56-9.18-1.84-11.93-3.48c-0.39,1.97-0.04,4.13-1.76,5.68
			c1.18-6.48,0.21-13.05,1.06-19.56c1.14,2.7,0.38,5.58,0.83,8.49c2.39-2.68,4.36-5.45,4.96-9c0.42-2.48-0.58-3.71-3.11-3.78
			c-2.17-0.06-4.19,0.36-5.81,1.58c0.11,0.84,0.33,1.55,0.28,2.24c-0.39,5.63-0.83,11.25-1.25,16.88c-0.05,0.59,0.02,1.2-0.07,1.79
			c-0.05,0.35-0.3,0.67-0.72,0.95c-0.58-6.9,0.94-13.65,0.94-20.52c-0.42,0.23-0.82,0.45-1.38,0.75c-0.24-1.56,0.61-2.37,1.51-2.98
			c2.33-1.59,4.93-2.19,7.73-1.69c1.95,0.35,3.03,1.61,3.03,3.62c0,2.81-1.08,5.28-2.63,7.56c-0.76,1.12-1.66,2.15-2.41,3.27
			c-1.72,2.57-1.37,3.79,1.56,4.88c2.48,0.93,5.05,1.63,7.57,2.47C666.24,317.53,666.69,317.86,667.34,318.21z"/>
		<path class="st1" d="M360.21,272.66c0.48,1.01,1.23,2.56,1.98,4.12c-0.24,0.13-0.47,0.26-0.71,0.4c-0.8-1.31-1.61-2.62-2.43-3.95
			c-0.96,0.57-1.89,1.22-2.89,1.68c-4.6,2.13-8.97,0.55-11.15-4.03c-1.55-3.27-1.82-6.64-0.61-10.1c0.31-0.9,0.5-1.87,0.61-2.82
			c0.23-1.99,1.29-3.39,3.14-3.97c3.64-1.14,7.28-1.02,10.38,1.37c3.36,2.58,4.73,6.22,3.97,10.38
			C362.09,267.96,361.08,270.08,360.21,272.66z M353.08,265.13c0.41-0.8,1.18-0.25,1.69,0.33c1.54,1.73,2.98,3.56,4.63,5.55
			c0.54-1.07,1.17-2.01,1.5-3.05c1.22-3.9,0.94-7.57-2.02-10.72c-2.9-3.08-6.49-3.2-10.21-2.21c-0.95,0.25-1.7,1.24-2.54,1.9
			c0.24,0.1,0.49,0.19,0.73,0.29c0.08,0.48,0.41,1.21,0.21,1.39c-0.97,0.92-0.81,1.9-0.49,2.99c0.13,0.45,0.07,0.96,0.1,1.44
			c-0.12,0.04-0.25,0.08-0.37,0.11c-0.33-0.36-0.66-0.71-1.09-1.18c-0.91,3.11-0.44,5.99,0.94,8.7c2.47,4.86,8.81,5.47,12.31,1.03
			C356.74,269.6,354.98,267.46,353.08,265.13z"/>
		<path class="st1" d="M467.2,317.26c-0.23-1.89-0.46-3.78-0.72-5.98c-1.59,0-3.17,0-4.75,0c-0.01-0.24-0.01-0.47-0.02-0.71
			c1.48-0.13,2.96-0.27,4.67-0.42c-0.29-2.67-0.6-5.33-0.86-8c-0.2-2.05-0.34-4.11-0.45-6.17c-0.02-0.44,0.23-0.9,0.45-1.7
			c0.84,1.35,1.44,2.33,2.22,3.58c0.75-0.94,1.27-1.68,1.89-2.31c0.42-0.44,1-0.73,1.5-1.08c0.28,0.49,0.64,0.95,0.82,1.48
			c0.39,1.18,0.71,2.39,1,3.59c0.07,0.29-0.11,0.65-0.17,0.97c-0.28-0.18-0.72-0.3-0.81-0.55c-0.44-1.22-0.78-2.47-1.19-3.83
			c-1.3,1.02-1.93,3.47-4.56,1.96c0.45,4.17,0.87,8.08,1.31,12.23c3.48-0.17,6.81-0.36,10.15-0.48c7.32-0.27,14.64-0.53,21.96-0.72
			c0.89-0.02,1.79,0.34,2.68,0.52c-0.04,0.13-0.08,0.26-0.12,0.4c-11.43,0.43-22.87,0.85-34.43,1.28c0.1,2.06,0.2,3.95,0.3,5.84
			C467.78,317.19,467.49,317.22,467.2,317.26z"/>
		<path class="st1" d="M522.56,369.59c-0.8,1.18-1.37,2.24-2.15,3.09c-1.16,1.25-2.87,0.97-3.11-0.66
			c-0.31-2.08-0.39-4.34,0.12-6.35c0.58-2.29,3.36-2.62,4.91-0.77c0.64,0.76,1.09,1.76,1.37,2.72c1.05,3.56,2.18,7.12,2.93,10.75
			c0.62,3,0.97,6.11,0.96,9.16c-0.01,1.8-0.84,3.64-1.51,5.39c-0.44,1.16-1.48,2.19-2.76,1.74c-0.98-0.35-2.15-1.29-2.47-2.23
			c-1.07-3.09-0.59-6.23,0.75-9.17c0.8-1.76,1.96-3.36,2.87-5.08c0.3-0.56,0.55-1.35,0.38-1.91
			C524.2,374.07,523.37,371.9,522.56,369.59z M525.72,379.01c-0.2-0.07-0.4-0.14-0.61-0.21c-1.04,2.21-2.36,4.34-3.04,6.67
			c-0.55,1.86-0.53,3.96-0.38,5.92c0.06,0.8,1.13,1.52,1.74,2.28c0.64-0.58,1.51-1.03,1.9-1.75
			C527.6,387.67,526.47,383.33,525.72,379.01z M522.01,366.8c0.15-0.12,0.3-0.24,0.45-0.36c-0.9-0.52-1.8-1.44-2.71-1.45
			c-1.36-0.02-1.6,1.41-1.8,2.54c-0.1,0.58-0.16,1.22-0.03,1.78c0.23,0.99,0.63,1.95,0.96,2.92c0.73-0.87,1.58-1.66,2.15-2.62
			C521.52,368.76,521.7,367.74,522.01,366.8z"/>
		<path class="st1" d="M445.42,372.37c-0.59,1.31-0.93,2.36-1.51,3.26c-0.86,1.34-2.11,1.28-3,0c-1.42-2.05-1.41-7.59,0.04-9.54
			c0.81-1.08,1.87-1.09,2.57-0.08c0.88,1.26,1.57,2.68,2.14,4.11c2.32,5.75,3.68,11.67,2.76,17.91c-0.13,0.89-0.39,1.83-0.85,2.59
			c-1.04,1.71-2.86,1.66-3.37-0.25c-0.54-1.96-0.78-4.2-0.39-6.18c0.44-2.21,1.73-4.25,2.63-6.37c0.13-0.32,0.27-0.72,0.2-1.03
			C446.29,375.37,445.87,373.97,445.42,372.37z M447.2,378.71c-2.99,4.59-3.47,10.19-1.03,12.08
			C448.4,387,447.42,383.05,447.2,378.71z M442.37,375.5c2.4-2.17,2.79-7.91-0.24-9C440.46,369.02,440.54,373.38,442.37,375.5z"/>
		<path class="st1" d="M355.96,364c0.98-2.18,2.25-4.15,4.53-5.2c2.91-1.34,5.74,0.46,5.83,3.66c0.09,3.23-0.98,6.07-3.09,8.51
			c-0.92,1.06-1.89,2.07-3.01,3.29c0.68,0.43,1.21,0.86,1.81,1.13c1.58,0.71,3.28,1.19,4.77,2.05c1.33,0.76,2.46,1.88,3.64,2.9
			c0.17,0.15,0.03,0.63,0.04,0.96c-0.28-0.08-0.7-0.07-0.83-0.26c-1.6-2.31-4.18-2.98-6.57-3.98c-0.9-0.38-1.82-0.73-2.65-1.24
			c-1.45-0.89-1.5-1.73-0.43-3.04c1.4-1.71,3.01-3.33,4.03-5.25c0.79-1.51,1.09-3.41,1.14-5.15c0.07-2.28-1.97-3.45-4.11-2.63
			c-1.76,0.68-2.92,2.33-2.89,4.22c0.06,5.21,0.14,10.42,0.16,15.63c0,0.63-0.37,1.25-0.57,1.88c-0.21-0.06-0.42-0.13-0.63-0.19
			c0-2.36,0-4.73,0-7.09c-0.01-2.77,0.02-5.54-0.07-8.3c-0.02-0.63-0.42-1.24-0.65-1.86C356.26,364.02,356.11,364.01,355.96,364z"/>
		<path class="st1" d="M511.89,377.64c0.49,0.13,1.26,0.34,2.04,0.55c-0.02,0.2-0.04,0.41-0.07,0.61c-1.89,0-3.78,0-5.66,0
			c-0.08-0.08-0.16-0.17-0.24-0.25c0.6-0.36,1.2-0.71,1.9-1.12c-2.42-4.88-4.91-9.9-7.51-15.14c-1.31,5.46-2.58,10.73-3.87,16.14
			c1.14,0.17,1.99,0.29,2.84,0.42c0,0.21,0,0.41,0.01,0.62c-1.73,0.66-3.6,0.08-5.37,0.39c-0.07-0.18-0.15-0.35-0.22-0.53
			c0.55-0.32,1.11-0.65,1.68-0.98c1.51-6.65,3.05-13.37,4.64-20.38C504.67,364.97,507.72,371.4,511.89,377.64z"/>
		<path class="st1" d="M189.75,306.22c-0.27,1.01-0.54,1.74-0.66,2.5c-0.14,0.91,0.07,1.94-0.28,2.73c-1.07,2.43,0.02,3.95,1.7,5.61
			c2.64,2.62,1.92,5.52-1.6,6.76c-1.2,0.42-2.58,0.5-3.87,0.46c-1.16-0.04-1.32-0.97-0.97-1.91c0.64-1.72,1.31-3.44,2.01-5.13
			c0.62-1.49,0.62-2.73-0.42-4.19c-0.85-1.2-1.14-2.86-1.45-4.36c-0.29-1.4,0.12-2.91,1.46-3.49
			C187.15,304.56,188.62,305.2,189.75,306.22z M187.83,315.88c-0.57,1.5-0.98,2.83-1.59,4.08c-0.53,1.08-0.63,2.19,0.29,2.86
			c0.46,0.34,1.57,0.07,2.27-0.21c2.29-0.9,2.69-2.51,1.15-4.45C189.35,317.4,188.63,316.74,187.83,315.88z M187.41,312.93
			c0.24-2.07,0.48-4.14,0.71-6.19c-1.75-1.02-2.66-0.56-2.79,1.36C185.2,309.97,185.82,311.55,187.41,312.93z"/>
		<path class="st1" d="M265.57,313.56c0.55-2.31,1.03-4.3,1.51-6.29c0.21,0.04,0.43,0.07,0.64,0.11c0,0.81,0.1,1.64-0.03,2.43
			c-0.19,1.17-0.43,2.36-0.87,3.46c-0.54,1.35-0.09,2.17,0.91,3.08c1.15,1.05,2.15,2.29,3.13,3.51c0.86,1.08,0.71,2.24-0.1,3.29
			c-1.39,1.83-3.37,2.49-5.56,2.56c-1.3,0.04-2.29-1.91-1.89-3.64c0.42-1.79,1.03-3.54,1.34-5.35c0.15-0.87,0.02-1.95-0.39-2.71
			c-0.88-1.61-1.23-3.2-0.85-4.99c0.45-2.12,2.68-3.54,4.77-2.97c0.22,0.06,0.39,0.29,0.58,0.44c-0.2,0.21-0.38,0.42-0.59,0.61
			c-0.07,0.05-0.21,0.01-0.32,0.03C264.32,307.6,263.3,310.13,265.57,313.56z M265.68,324.8c1.16-0.59,2.57-1.07,3.65-1.95
			c0.5-0.41,0.78-1.86,0.44-2.37c-0.98-1.49-2.32-2.75-3.52-4.1C265.85,319.27,263.41,321.75,265.68,324.8z"/>
		<path class="st1" d="M263.57,275.15c-1.67,0.22-1.46-0.92-1.28-1.88c0.37-1.97,0.79-3.93,1.28-5.87c0.22-0.85,0.19-1.43-0.68-1.86
			c-0.42-0.21-0.78-0.59-1.1-0.95c-1.28-1.39-2.06-3.02-1.46-4.9c0.6-1.88,2.41-2.22,4.07-2.49c0.97-0.16,1.99-0.03,2.98-0.03
			c0.04,0.17,0.08,0.35,0.13,0.52c-0.49,0.24-0.98,0.48-1.46,0.71c-0.26,2.03-0.6,4.12-0.75,6.22c-0.04,0.54,0.38,1.25,0.8,1.66
			c0.97,0.93,2.15,1.63,3.1,2.57c0.93,0.91,1.05,2.28,0.16,3.1c-1.77,1.63-3.77,3-5.73,4.41c-0.29,0.21-0.86,0.03-1.3,0.03
			c-0.05-0.15-0.1-0.3-0.15-0.45c0.45-0.27,0.9-0.55,1.35-0.82c0.7-0.39,1.44-0.72,2.1-1.17c4.24-2.94,4.12-4.46-0.49-6.84
			c-0.05-0.02-0.1-0.02-0.34-0.05c-0.29,1.28-0.67,2.57-0.87,3.89C263.73,272.33,263.68,273.74,263.57,275.15z M264.91,258.08
			c-1.61,0.66-3.36,0.49-3.61,2.45c-0.21,1.58,0.98,3.38,2.88,4.24C264.41,262.6,264.64,260.49,264.91,258.08z"/>
		<path class="st1" d="M290.15,305.24c-1.49,4.86-2.97,9.71-4.48,14.64c1.69-0.97,2.95-2,4.39-2.47c2.42-0.8,4.08,0.64,3.94,3.16
			c-0.15,2.8-1.62,4.79-4.03,6.08c-2.13,1.13-4.61-0.04-4.85-2.56c-0.24-2.43-0.17-5,0.35-7.39c0.72-3.31,1.97-6.51,3.05-9.73
			c0.23-0.68,0.74-1.26,1.12-1.89C289.82,305.12,289.98,305.18,290.15,305.24z M286.39,322.08c-0.17-0.03-0.33-0.06-0.49-0.08
			c0.18,0.83,0.27,1.7,0.58,2.49c0.51,1.28,1.66,1.68,2.93,1.14c1.89-0.8,3.61-3.3,3.41-5.3c-0.07-0.64-0.66-1.58-1.22-1.76
			c-1.75-0.57-3.74,0.8-4.24,2.55C287.24,321.49,286.72,321.76,286.39,322.08z"/>
		<path class="st1" d="M407.78,243.75c-0.2,0.34-0.31,0.77-0.6,1c-2.35,1.94-2.78,4.65-3.13,7.44c-0.6,4.88,0.26,9.62,1.19,14.37
			c0.87,4.41,1.85,8.81,2.41,13.25c0.24,1.91-0.41,3.94-0.78,5.9c-0.11,0.58-0.66,1.07-1.01,1.6c-0.13-0.06-0.25-0.12-0.38-0.18
			c-0.04-0.24-0.2-0.54-0.11-0.72c2.02-4.02,1.34-8.14,0.42-12.25c-1.34-6.03-3.05-12.01-3.03-18.25c0.01-2.37,0.29-4.77,0.72-7.11
			c0.42-2.35,1.74-4.22,3.83-5.4C407.47,243.52,407.63,243.63,407.78,243.75z"/>
		<path class="st1" d="M374,227.31c-0.04,0.47-0.08,0.94-0.13,1.55c2.59-1.03,4.66-2.5,5.47-5.2c0.2-0.66-0.18-1.48-0.29-2.23
			c-0.69,0.18-1.56,0.15-2.04,0.56c-1.42,1.25-2.62,2.74-4.03,4.01c-0.66,0.59-1.6,0.87-2.42,1.29c-0.29-0.81-0.82-1.63-0.83-2.44
			c-0.08-4.61-0.03-9.22-0.01-13.83c0-0.36,0.11-0.73,0.17-1.09c0.17-0.04,0.34-0.08,0.51-0.12c0.14,0.55,0.39,1.09,0.39,1.64
			c0.03,4.34,0.01,8.68,0.01,13.02c0,0.52,0.06,1.04,0.12,2.02c0.91-0.96,1.54-1.65,2.21-2.3c1.24-1.2,2.42-2.51,3.82-3.5
			c0.62-0.44,1.94-0.59,2.51-0.22c0.64,0.43,1.11,1.59,1.11,2.43c-0.01,2.86-3.56,6.61-6.44,6.91c-0.57,0.06-1.19-0.37-1.79-0.57
			c0.34-0.72,0.67-1.44,1.01-2.16C373.57,227.16,373.79,227.24,374,227.31z"/>
		<path class="st1" d="M190.9,362.63c-2.09-0.37-3.86-0.31-4.08,1.68c-0.12,1.11,0.67,2.33,1.05,3.5c0.21-0.04,0.41-0.07,0.62-0.1
			c0.14-1.06,0.29-2.12,0.43-3.18c0.2-0.02,0.39-0.05,0.59-0.07c0.11,0.62,0.42,1.29,0.29,1.87c-0.45,2.13,0.44,3.32,2.33,4.17
			c1.22,0.55,2.34,1.36,3.44,2.15c1.7,1.23,1.78,3.02,0,4.12c-1.89,1.17-4,2-6.01,2.97c-0.09,0.04-0.23,0.01-0.3,0.07
			c-0.36,0.29-0.71,0.59-1.07,0.89c-0.11-0.61-0.33-1.22-0.31-1.82c0.11-2.43,0.22-4.88,0.51-7.3c0.15-1.33,0-2.28-1.07-3.27
			c-2.11-1.93-2.29-4.05-0.82-5.9C187.62,361.03,189.34,360.92,190.9,362.63z M188.93,379.07c2.26-1.19,4.14-2.11,5.94-3.15
			c0.95-0.55,1.27-1.49,0.22-2.22c-1.71-1.2-3.52-2.25-5.49-3.49C189.37,373.24,189.17,375.92,188.93,379.07z"/>
		<path class="st1" d="M278.31,321.52c-0.56-0.31-1.59-0.64-1.58-0.93c0.03-1,0.26-2.09,0.77-2.93c0.22-0.36,1.31-0.24,2-0.24
			c0.2,0,0.42,0.32,0.6,0.51c1.93,2.09,1.18,7.58-1.25,9.1c-1.85,1.17-3.62,0.59-3.81-1.64c-0.22-2.66-0.14-5.43,0.4-8.03
			c0.79-3.86,2.1-7.61,3.19-11.4c0.06-0.21,0.12-0.45,0.26-0.59c0.32-0.32,0.68-0.62,1.07-0.86c0.06-0.04,0.52,0.33,0.5,0.47
			c-0.06,0.44-0.23,0.87-0.41,1.28c-0.13,0.28-0.43,0.49-0.52,0.78c-1.69,5.25-3.46,10.49-3.6,16.09c-0.01,0.54-0.07,1.13,0.13,1.61
			c0.24,0.59,0.74,1.51,1.11,1.5c0.64-0.01,1.68-0.53,1.81-1.03c0.45-1.74,0.68-3.56,0.79-5.35c0.03-0.45-0.7-0.96-1.14-1.4
			c-0.04-0.04-0.55,0.28-0.7,0.52c-0.43,0.67-0.24,1.2,0.45,1.59c0.13,0.07,0.12,0.38,0.18,0.57
			C278.49,321.26,278.4,321.39,278.31,321.52z"/>
		<path class="st1" d="M436.96,268.65c-1.15-0.81-2.17-1.85-3.39-2.26c-0.96-0.32-2.25-0.05-3.28,0.3c-1.48,0.5-2.25,2.1-2,3.52
			c0.29,1.6,1.88,2.95,3.72,3.15c1.7,0.19,4.24-1.26,4.87-2.83c1.1,0.4,1,1.17,0.46,1.85c-1.91,2.44-6.24,2.79-8.56,0.74
			c-1.6-1.4-2.07-3.32-1.28-5.14c0.88-2.02,3.23-3.28,5.65-2.93c0.9,0.13,1.77,0.47,2.85,0.77c-0.42-2.6-0.93-5.17-1.23-7.76
			c-0.28-2.46-0.98-4.94-0.39-7.87C435.64,252.05,437.43,268.11,436.96,268.65z"/>
		<path class="st1" d="M591.16,346.37c-0.5,2.72-0.89,4.89-1.32,7.21c0.87,0.75,1.95,1.57,2.91,2.51c1.82,1.76,2.16,3.59,1.05,5.02
			c-1.35,1.75-4.29,1.96-6.29,1.33c-2.29-0.72-1.49-2.04-1.17-3.28c0.36-1.4,0.96-2.76,1.53-4.1c0.34-0.8,0.26-1.32-0.44-1.95
			c-0.78-0.71-1.47-1.61-1.96-2.55c-0.87-1.67-0.23-3.16,1.59-3.66C588.22,346.59,589.47,346.58,591.16,346.37z M589.3,354.36
			c-0.68,1.82-1.19,3.13-1.67,4.45c-0.43,1.19-0.02,2.22,1,2.76c1.4,0.74,2.73,0.07,3.89-0.77c0.95-0.68,1.09-1.7,0.39-2.57
			C591.89,356.95,590.68,355.82,589.3,354.36z M588.73,352.88c0.47-1.91,0.84-3.44,1.22-4.98c-0.11-0.17-0.22-0.33-0.33-0.5
			c-1.07,0.41-2.73,0.54-3.09,1.29C585.71,350.41,587.37,351.44,588.73,352.88z"/>
		<path class="st1" d="M551.56,202.67c0.32,3.02,0.62,6.04,0.97,9.06c0.36,3.1,0.78,6.2,1.21,9.6c0.64-1.05,1.11-1.92,1.67-2.73
			c1.39-2.01,2.95-2.78,4.25-2.18c1.36,0.63,2.08,2.9,1.56,4.91c-0.42,1.65-2.73,3.6-4.41,3.65c-0.29,0.01-0.82-0.29-0.84-0.49
			c-0.06-0.61,0.07-1.24,0.12-1.86c0.15-0.01,0.31-0.02,0.46-0.03c0.23,0.32,0.46,0.63,0.69,0.95c2.46-0.82,3.42-2.35,2.9-4.63
			c-0.37-1.62-1.59-2.14-2.67-0.89c-1.22,1.4-2.06,3.14-3.04,4.75c-0.22,0.36-0.25,0.84-0.49,1.2c-0.18,0.27-0.53,0.44-0.8,0.65
			c-0.17-0.3-0.46-0.58-0.49-0.89c-0.2-2.1-0.31-4.21-0.52-6.32c-0.44-4.36-0.94-8.72-1.4-13.09c-0.06-0.51-0.01-1.04-0.01-1.56
			C551.01,202.74,551.28,202.71,551.56,202.67z"/>
		<path class="st1" d="M206.04,275.71c0.57-4.18,1.14-8.36,1.71-12.53c-0.16-0.03-0.31-0.07-0.47-0.1c-0.95,1.15-1.78,2.43-2.88,3.4
			c-0.73,0.64-2.15,1.37-2.74,1.06c-0.76-0.4-1.27-1.76-1.39-2.76c-0.25-2.28,0.56-4.37,1.88-6.24c0.79-1.11,1.66-2.36,3.25-1.78
			c1.58,0.58,1.7,2.09,1.64,3.55c-0.01,0.26-0.11,0.51-0.21,0.98c1.35-0.92,1.96-0.23,1.83,0.85c-0.51,4.45-1.15,8.88-1.76,13.31
			c-0.02,0.12-0.21,0.21-0.33,0.31C206.41,275.75,206.22,275.73,206.04,275.71z M200.91,264.08c0.48,1.09,0.78,1.79,1.08,2.49
			c0.63-0.36,1.37-0.6,1.86-1.09c1.73-1.69,1.62-4.04,1.96-6.2c0.07-0.43-0.42-1.25-0.81-1.37c-0.4-0.12-1.24,0.27-1.45,0.67
			C202.58,260.4,201.75,262.3,200.91,264.08z"/>
		<path class="st1" d="M593.15,307.82c-1.28-0.19-2.36-0.36-3.44-0.52c-0.01-0.22-0.02-0.44-0.02-0.65c1.18-0.1,2.36-0.2,3.77-0.32
			c0.34-3.42,0.68-6.89,1.02-10.35c0.21-0.02,0.42-0.05,0.64-0.07c0.1,0.56,0.31,1.14,0.27,1.69c-0.22,2.96-0.51,5.91-0.77,8.93
			c2.08,0.28,4.13,0.56,6.34,0.86c-0.68,0.89-0.68,0.9-3.14,0.68c-1.07-0.09-2.14-0.24-3.41-0.38c-0.19,1.59-0.41,3.06-0.53,4.55
			c-0.12,1.51-0.15,3.03-0.2,4.55c-0.1,2.89,1.46,4.2,4.28,3.64c0.66-0.13,1.32-0.25,2.27-0.43c-0.26,0.55-0.32,0.94-0.52,1.04
			c-1.63,0.77-3.34,1.05-5,0.18c-1.59-0.83-2.26-2.3-2.16-4.06c0.13-2.54,0.34-5.08,0.51-7.62
			C593.07,308.99,593.11,308.45,593.15,307.82z"/>
		<path class="st1" d="M636.28,258.69c-0.91,3.12-1.74,6.07-2.65,9c-0.14,0.46-0.63,0.82-0.95,1.23c-0.07-0.52-0.29-1.09-0.17-1.56
			c0.97-3.65,2.01-7.29,3.04-10.93c0.09-0.3,0.36-0.55,0.81-1.21c0.09,2.83,2.11,3.72,3.58,5.02c1.58,1.4,3.31,2.64,4.88,4.05
			c2.16,1.94,1.77,3.67-1.08,4.35c-2.57,0.62-5.23,0.89-7.85,1.29c-1.08,0.17-2.17,0.28-3.25,0.41c-0.06-0.2-0.12-0.39-0.18-0.58
			c0.39-0.2,0.75-0.5,1.16-0.57c2.84-0.45,5.68-0.85,8.52-1.28c0.32-0.05,0.66-0.09,0.94-0.23c0.65-0.33,1.26-0.73,1.88-1.1
			c-0.4-0.6-0.7-1.33-1.24-1.79C641.39,262.8,638.96,260.88,636.28,258.69z"/>
		<path class="st1" d="M197.27,224.54c0.26,2.12,0.52,4.15,0.77,6.18c-0.17,0.03-0.34,0.06-0.51,0.08c-1.4-1.78-0.94-4.09-1.39-6.14
			c-1.4,0-2.69,0.04-3.99-0.01c-2.13-0.07-2.95-1.18-1.84-2.92c1.74-2.73,3.81-5.25,5.78-7.83c0.67-0.88,1.45-1.67,2.5-2.87
			c0,0.87,0.14,1.37-0.02,1.5c-1.75,1.42-1.34,3.38-1.38,5.22c-0.04,1.73-0.01,3.46-0.01,5.24c1.65,0.25,2.95-1.3,4.86-0.17
			C200.28,223.45,198.9,223.95,197.27,224.54z M196.17,216.19c-0.19-0.08-0.37-0.16-0.56-0.23c-1.64,2.31-3.29,4.63-4.93,6.94
			c0.13,0.2,0.26,0.4,0.38,0.6c1.25,0,2.51,0,3.76,0c0.99,0,1.41-0.43,1.37-1.49C196.12,220.07,196.17,218.13,196.17,216.19z"/>
		<path class="st1" d="M640.25,379.08c-0.23-6.67-0.46-13.34-0.7-20.08c-2.76,0-5.39,0-8.02,0c-0.11-0.1-0.21-0.19-0.32-0.29
			c0.37-0.28,0.74-0.81,1.12-0.82c5.58-0.16,11.17-0.26,16.76-0.34c0.31,0,0.91,0.37,0.9,0.41c-0.22,0.66-0.51,1.29-0.6,1.5
			c-1.12-0.35-1.85-0.74-2.61-0.78c-1.94-0.09-3.88-0.03-5.99-0.03c-0.09,7.02,0.51,13.72,0.46,20.42
			C640.92,379.07,640.58,379.07,640.25,379.08z"/>
		<path class="st1" d="M584.87,366.65c1.61-0.2,3.22-0.59,4.82-0.59c11.78,0.04,23.56,0.16,35.33,0.27c0.5,0.01,1,0.22,1.5,0.34
			c0.03,0.17,0.05,0.34,0.08,0.51c-0.46,0.17-0.93,0.49-1.39,0.48c-6.12-0.17-12.23-0.47-18.35-0.58
			c-5.05-0.09-10.1-0.02-15.14,0.07c-1.89,0.03-3.78,0.31-5.67,0.45c-0.37,0.03-0.75-0.09-1.13-0.14
			C584.91,367.19,584.89,366.92,584.87,366.65z"/>
		<path class="st1" d="M342.25,309.48c0.54-0.08,1.08-0.24,1.62-0.23c11.24,0.12,22.47,0.25,33.71,0.41c1.57,0.02,3.14,0.2,4.7,0.38
			c0.33,0.04,0.62,0.43,0.93,0.65c-0.35,0.15-0.71,0.44-1.06,0.43c-12.8-0.24-25.61-0.51-38.41-0.8c-0.51-0.01-1.01-0.22-1.52-0.35
			C342.23,309.81,342.24,309.65,342.25,309.48z"/>
		<path class="st1" d="M272.71,368.42c-1.29,1.04-2.19,1.98-3.29,2.59c-0.82,0.46-2.08,0.95-2.76,0.62
			c-0.67-0.33-1.26-1.7-1.16-2.53c0.21-1.83,0.79-3.64,1.42-5.38c0.23-0.63,0.97-1.17,1.6-1.55c2.1-1.24,3.95-0.27,4.17,2.14
			c0.08,0.83-0.17,1.68,0.83,2.24c0.32,0.18,0.38,0.99,0.38,1.51c0.07,3.92-0.2,7.8-1.48,11.55c-0.15,0.43-0.57,0.77-0.86,1.15
			c-0.06-0.51-0.29-1.07-0.15-1.51C272.49,375.86,272.83,372.39,272.71,368.42z M271.88,365.38c-0.37-0.84-0.54-1.95-1.18-2.41
			c-0.4-0.29-1.73,0.16-2.26,0.67c-1.72,1.69-2.2,3.9-1.81,6.24c0.05,0.31,1,0.8,1.36,0.68
			C270.01,369.91,271.57,367.6,271.88,365.38z"/>
		<path class="st1" d="M419.6,366.81c-0.09-0.46-0.24-0.93-0.26-1.39c-0.07-2.44,0-4.89-0.21-7.32c-0.1-1.14-0.8-2.22-1.07-3.37
			c-0.41-1.83,0.81-3.06,1.87-4.25c0.83-0.93,2.06-1.59,3.16-0.62c0.74,0.65,1.35,1.75,1.48,2.72c0.36,2.57-0.19,5.06-1.35,7.41
			c-1.39,2.82-1.24,3.16,1.67,4.51c2.06,0.96,2.15,1.04,2.6,2.36c-0.08,0.07-0.21,0.21-0.24,0.19c-1.79-1.04-3.67-1.96-5.33-3.18
			c-1.25-0.92-0.56-2.26-0.16-3.45c0.58-1.68,1.34-3.33,1.66-5.06c0.23-1.22-0.03-2.57-0.31-3.81c-0.08-0.38-1-0.86-1.47-0.8
			c-1.39,0.17-2.38,2.43-1.97,3.81c0.36,1.18,0.59,2.44,0.65,3.67c0.11,2.44,0.08,4.89,0.08,7.33c0,0.41-0.16,0.83-0.24,1.24
			C419.98,366.81,419.79,366.81,419.6,366.81z"/>
		<path class="st1" d="M293.97,375.28c1.27,2.34,2.85,2.79,4.7,1.34c1.61-1.26,1.44-3.46-0.49-4.1c-1.55-0.52-3.26-0.69-4.91-0.79
			c-1.94-0.13-2.24-0.46-1.96-2.38c0.28-1.95,0.35-3.92,0.64-5.87c0.06-0.39,0.65-0.99,1.02-1c2.97-0.09,5.95-0.1,8.92-0.03
			c0.44,0.01,0.87,0.59,1.58,1.1c-3.66,0-6.8,0-9.96,0c-0.4,2.33-0.79,4.61-1.15,6.72c2.01,0.35,3.99,0.57,5.9,1.05
			c1.45,0.36,2.5,1.32,2.58,2.97c0.09,1.71-0.74,2.96-2.24,3.63c-0.91,0.41-2.01,0.77-2.95,0.65c-0.77-0.1-1.57-0.84-2.1-1.5
			c-0.31-0.38-0.12-1.16-0.15-1.76C293.6,375.29,293.78,375.29,293.97,375.28z"/>
		<path class="st1" d="M288.69,363.9c-3.06,1.03-5.99,0.79-9.01,0.88c-0.23,2.4-0.47,4.79-0.71,7.31c1.02,0,1.92-0.05,2.82,0.01
			c1.45,0.09,2.93,0.09,4.33,0.42c1.92,0.45,2.56,2.1,1.55,3.78c-1.44,2.4-3.79,3.32-6.45,3.43c-1.37,0.06-1.78-0.94-0.99-2.62
			c0.36,0.6,0.63,1.04,0.93,1.55c2.09-0.2,4.02-0.8,5.34-2.6c0.92-1.25,0.63-2.25-0.87-2.5c-1.64-0.27-3.33-0.28-5-0.27
			c-2.59,0.02-2.99-0.4-2.67-2.9c0.23-1.82,0.27-3.68,0.51-5.5c0.06-0.44,0.55-1.15,0.88-1.18c2.91-0.23,5.83-0.33,8.74-0.46
			C288.15,363.26,288.23,363.4,288.69,363.9z"/>
		<path class="st1" d="M627.09,319.54c0.09,1.93-1.1,2.23-2.11,2.62c-1.33,0.51-2.72,0.42-3.44-0.91c-0.54-0.99-0.8-2.24-0.82-3.37
			c-0.03-2.1,0.21-4.21,0.35-6.54c-1.86,0.12-3.72,0.24-5.58,0.37c-0.02-0.19-0.03-0.38-0.05-0.57c1.76-1.14,3.88-0.64,5.78-0.97
			c1.13-3.69,1.25-7.61,2.92-11.06c0.23,0.06,0.47,0.12,0.7,0.18c-0.8,3.6-1.59,7.19-2.4,10.88c1.82,0.11,3.44,0.2,5.06,0.29
			c-0.01,0.3-0.03,0.61-0.04,0.91c-1.18,0-2.36,0.07-3.52-0.02c-1.17-0.09-1.82,0.15-1.82,1.52c-0.01,1.89-0.33,3.79-0.25,5.67
			c0.04,0.86,0.5,2.15,1.12,2.41c0.74,0.31,1.87-0.22,2.8-0.48C626.17,320.37,626.46,320.01,627.09,319.54z"/>
		<path class="st1" d="M358.77,336.78c-0.09-0.61-0.37-1.26-0.25-1.83c0.44-2.06,1.02-4.09,1.54-6.13c0.15-0.61,0.26-1.24,0.45-2.14
			c-1.9,0-3.61,0.06-5.31-0.02c-1.59-0.07-2.25-1.12-2.34-2.59c-0.15-2.51,0.99-4.59,2.32-6.57c-0.93-0.31-1.82-0.61-2.71-0.9
			c0.05-0.19,0.1-0.38,0.14-0.57c0.28-0.05,0.59-0.19,0.84-0.12c1.47,0.39,2.85,0.45,4.12-0.61c0.4-0.33,0.95-0.63,1.45-0.67
			c0.62-0.04,1.26,0.21,1.9,0.33c-0.33,0.52-0.58,1.12-1.01,1.52c-0.32,0.3-0.89,0.51-1.34,0.49c-1.71-0.08-2.63,1.03-3.17,2.32
			c-0.66,1.56-1.08,3.24-1.36,4.91c-0.06,0.38,0.87,1.26,1.42,1.33c1.49,0.2,3.01,0.1,4.52,0.08c1.29-0.01,1.83,0.64,1.54,1.85
			c-0.74,3.08-1.54,6.15-2.32,9.22C359.06,336.71,358.92,336.75,358.77,336.78z"/>
		<path class="st1" d="M536.91,372.44c1.01,2.78,1.86,5.13,2.71,7.47c-1.35-0.09-1.46-0.27-2.94-4.67c-0.66,0.74-1.2,1.82-2.02,2.12
			c-0.7,0.26-1.73-0.38-2.65-0.62c0,0.6-0.03,1.64,0.01,2.68c0.17,4.88,0.37,9.75,0.51,14.63c0.01,0.47-0.36,0.95-0.55,1.41
			c-0.18-0.46-0.5-0.91-0.52-1.37c-0.28-6.55-0.52-13.11-0.75-19.67c-0.02-0.51,0.16-1.01,0.24-1.52c0.16-0.05,0.31-0.1,0.47-0.16
			c0.8,1.26,1.61,2.52,2.62,4.1C535.01,375.36,535.83,374.1,536.91,372.44z"/>
		<path class="st1" d="M336.78,239.48c-0.49-0.37-1.04-0.67-1.45-1.11c-3.37-3.56-5.07-7.89-5.81-12.65
			c-1.01-6.47-0.49-12.76,2.41-18.73c0.85-1.75,1.22-1.94,2.59-1.85c-3.89,5.22-4.54,11.22-4.2,17.45
			c0.34,6.29,2.45,11.86,7.06,16.43C337.18,239.17,336.98,239.32,336.78,239.48z"/>
		<path class="st1" d="M615.48,348.14c-0.22-0.35-0.44-0.7-0.73-1.17c-0.44,0.48-0.96,0.89-1.3,1.42c-1.86,2.94-2.71,6.16-2.24,9.61
			c0.13,0.95,0.79,1.87,1.4,2.67c0.29,0.38,1.11,0.69,1.51,0.55c0.43-0.16,0.93-0.94,0.88-1.38c-0.12-0.96-0.49-1.92-0.92-2.8
			c-0.27-0.56-1.01-0.94-1.18-1.51c-0.13-0.42,0.25-1.46,0.47-1.48c2.48-0.22,4.97-0.29,7.46-0.39c0.11,0,0.23,0.18,0.61,0.5
			c-2.52,0.87-4.95,0.69-7.22,0.86c0.67,1.26,1.49,2.4,1.9,3.68c0.48,1.48-0.32,3.14-1.47,3.6c-1.42,0.55-2.53-0.14-3.21-1.24
			c-0.66-1.07-1.32-2.33-1.39-3.54c-0.24-4.18,0.62-8.11,3.81-11.14c0.38-0.36,1.3-0.6,1.69-0.38c0.41,0.23,0.49,1.07,0.71,1.64
			C616,347.82,615.74,347.98,615.48,348.14z"/>
		<path class="st1" d="M191.9,267.99c-1.77,0.24-3.2,0.47-4.63,0.62c-0.45,0.05-0.93-0.09-1.39-0.14c0.37-0.31,0.71-0.81,1.13-0.9
			c1.58-0.33,3.19-0.53,5.04-0.81c0.2-2.54,0.43-5.22,0.6-7.9c0.06-0.99-0.45-1.57-1.52-1.29c-2.12,0.55-4.23,1.15-6.81,1.85
			c0.43-0.6,0.66-1.27,1.05-1.39c2.12-0.63,4.26-1.27,6.44-1.61c1.47-0.23,1.96,1.06,1.94,2.26c-0.04,2.11-0.27,4.22-0.42,6.33
			c-0.04,0.59-0.1,1.17-0.16,1.81c0.99,0.21,1.89,0.4,2.79,0.59c0,0.19,0.01,0.38,0.01,0.58c-0.55,0.08-1.1,0.25-1.64,0.21
			c-1.02-0.07-1.47,0.26-1.52,1.34c-0.08,1.94-0.27,3.87-0.45,5.8c-0.03,0.27-0.23,0.53-0.36,0.79c-0.26-0.21-0.72-0.39-0.74-0.62
			c-0.08-0.86-0.08-1.73,0.01-2.59C191.43,271.43,191.65,269.93,191.9,267.99z"/>
		<path class="st1" d="M275.91,267.26c2.02,0,3.79-0.09,5.56,0.04c0.88,0.06,1.83,0.37,2.59,0.82c1.58,0.94,1.84,2.56,0.72,4.03
			c-1.54,2.01-3.68,3.2-6.04,3.88c-0.6,0.17-1.53-0.42-2.15-0.87c-0.19-0.14,0.14-0.99,0.23-1.51c0.18,0.02,0.36,0.03,0.54,0.05
			c0.15,0.41,0.3,0.82,0.51,1.4c2.53-0.62,4.73-1.78,6.22-3.96c0.81-1.18-0.14-2.09-1.16-2.33c-1.55-0.37-3.2-0.37-4.8-0.56
			c-1.08-0.13-2.15-0.31-3.22-0.47c0.35-1.05,0.67-2.11,1.06-3.14c0.39-1,1.03-1.94,1.23-2.97c0.43-2.13-0.84-3.17-2.96-2.6
			c-0.57,0.16-1.15,0.29-1.93,0.49c0.73-1.51,2.14-2.04,3.79-1.66c1.45,0.33,2.52,1.48,2.32,2.87c-0.2,1.31-0.71,2.58-1.18,3.83
			C276.92,265.44,276.44,266.23,275.91,267.26z"/>
		<path class="st1" d="M437.24,293.64c0.47-0.28,0.91-0.72,1.42-0.82c2.11-0.44,4.18-0.1,5.83,1.28c0.65,0.54,1.16,1.83,0.99,2.61
			c-0.15,0.65-1.35,1.39-2.16,1.5c-3.06,0.4-5.74-0.69-7.6-2.28c-2.09,0.42-3.73,0.86-5.41,1.03c-0.54,0.06-1.44-0.46-1.65-0.95
			c-0.22-0.51,0-1.4,0.34-1.93c1-1.56,2.47-1.89,4.26-1.09c0.54,0.24,1.05,0.56,1.65,0.88c0.27-0.4,0.55-0.8,1.15-1.68
			c0.13,0.46,0.28,0.7,0.24,0.89c-0.67,2.76,1.69,3,3.24,3.66c1.09,0.46,2.44,0.37,3.68,0.37c0.43,0,1.2-0.49,1.2-0.76
			c0-0.5-0.32-1.2-0.74-1.46c-1.55-0.98-3.25-1.45-5.1-0.88c-0.36,0.11-0.75,0.15-1.12,0.22
			C437.39,294.02,437.32,293.83,437.24,293.64z M429.56,295.53c1.75,0.69,3.13,0.42,4.39-0.79
			C431.73,293.1,430.69,293.26,429.56,295.53z"/>
		<path class="st1" d="M569.36,245.72c0.16,0.12,0.39,0.22,0.47,0.38c2.11,4.74,4.35,9.43,6.25,14.26
			c2.28,5.78,2.65,11.71,0.4,17.64c-0.49,1.29-1,2.63-2.78,2.74c-0.03-0.26-0.12-0.47-0.06-0.55c3.61-4.37,3.92-9.53,2.65-14.6
			c-1.15-4.58-3.23-8.93-4.97-13.36c-0.57-1.45-1.42-2.8-2.03-4.24c-0.27-0.64-0.27-1.39-0.39-2.1
			C569.04,245.83,569.2,245.77,569.36,245.72z"/>
		<path class="st1" d="M652.76,268.87c1.73,1.36,4.38,0.89,5.71-0.98c0.75-1.06,0.59-2.12-0.16-2.99c-1.12-1.3-2.39-2.49-3.64-3.69
			c-1.86-1.79-4.06-3.3-4.87-5.95c-0.69-2.24,0.17-4.21,2.3-5.26c1.8-0.88,4.84-0.83,6.16,1.68c-0.8-0.24-1.24-0.46-1.7-0.5
			c-1.29-0.11-2.69-0.47-3.87-0.13c-1.83,0.52-2.7,2.44-1.7,4.03c1.24,1.97,2.98,3.64,4.57,5.38c1.13,1.24,2.49,2.27,3.51,3.59
			c1.39,1.8,1.27,3.43-0.01,4.87c-1.47,1.66-4.49,2.51-6.07,1.7C652.22,270.22,652.17,269.88,652.76,268.87z"/>
		<path class="st1" d="M212.98,373.07c1.8-1.73,4.13-1.62,5.33,0.48c0.61,1.06,0.87,2.43,0.89,3.67c0.03,1.6-1.56,3.25-2.94,3.49
			c-1.37,0.24-3.15-0.51-3.65-2.13c-0.6-1.97-1.05-4.17-0.8-6.16c0.46-3.57,1.46-7.08,2.32-10.6c0.2-0.82,0.49-1.81,1.71-1.7
			c-0.78,2.7-1.73,5.27-2.22,7.93c-0.48,2.58-0.48,5.26-0.68,7.89c-0.02,0.21,0.03,0.43,0.07,0.65c0.26,1.67,1.47,3.02,2.71,3.04
			c1.14,0.02,2.35-1.36,2.47-2.81c0.14-1.71-0.87-3.48-2.24-3.72c-0.46-0.08-0.99,0.23-1.49,0.34c-0.46,0.09-0.93,0.15-1.4,0.22
			C213.04,373.46,213.01,373.27,212.98,373.07z"/>
		<path class="st1" d="M201.55,326.27c-2.38-0.23-3.1-1.09-2.31-3.32c1.07-3.01,2.38-5.92,3.51-8.91c0.46-1.21,0.76-2.49,1-3.77
			c0.27-1.42-0.45-2.08-1.73-1.43c-1.07,0.55-1.93,1.5-2.91,2.24c-0.29,0.22-0.67,0.33-1,0.48c0.02-0.4-0.11-0.9,0.08-1.18
			c1.12-1.63,2.67-2.7,4.64-3.01c1.29-0.2,2.42,0.88,2.06,2.43c-0.67,2.93-1.69,5.79-2.65,8.66c-0.56,1.69-1.3,3.32-1.95,4.98
			c-0.46,1.17,0.19,1.59,1.18,1.38c1.63-0.36,3.21-0.91,4.82-1.35c0.4-0.11,0.84-0.08,1.27-0.11c-0.27,0.4-0.45,1.01-0.81,1.15
			C205.04,325.18,203.29,325.7,201.55,326.27z"/>
		<path class="st1" d="M493.39,255.28c-2.52,0-5.04,0-7.64,0c0.7,5.89,0.99,11.33,0.62,16.78c-0.24,0.03-0.49,0.06-0.73,0.08
			c-0.1-0.61-0.28-1.22-0.3-1.83c-0.16-4.17-0.28-8.33-0.45-12.5c-0.03-0.69-0.22-1.38-0.33-2.04c-2.72-0.71-5.52,0.45-8.13-0.49
			C477.72,254.21,492.34,254.06,493.39,255.28z"/>
		<path class="st1" d="M217.11,258.04c-0.8,3.21-1.6,6.42-2.45,9.82c0.54-0.03,0.89-0.05,1.25-0.06c1.95-0.04,3.25,0.99,3.43,2.92
			c0.22,2.39-0.51,4.53-2.31,6.15c-1.77,1.6-3.66,0.97-4.01-1.38c-0.22-1.48-0.25-3.06,0.04-4.51c0.82-4.02,1.84-8,2.81-11.99
			c0.1-0.41,0.39-0.77,0.6-1.15C216.68,257.9,216.89,257.97,217.11,258.04z M214.02,271.17c0,1.3-0.09,2.56,0.04,3.78
			c0.06,0.57,0.46,1.42,0.89,1.55c0.43,0.13,1.38-0.33,1.59-0.77c0.69-1.42,1.32-2.92,1.62-4.46c0.12-0.62-0.52-1.7-1.12-2.05
			c-0.63-0.36-1.62-0.08-2.88-0.08c0.79,0.74,1.14,1.08,1.69,1.59C215.15,270.9,214.71,271,214.02,271.17z"/>
		<path class="st1" d="M656.64,222.24c-1.06,0.78-1.38-0.04-1.52-0.81c-0.28-1.49-0.57-3-0.63-4.51c-0.13-3.25-0.12-6.51-0.15-9.77
			c0-0.47,0.09-0.94,0.14-1.41c0.19-0.04,0.38-0.08,0.57-0.12c0.14,0.55,0.37,1.1,0.39,1.65c0.14,3.79,0.23,7.59,0.37,11.39
			c0.03,0.73,0.23,1.46,0.35,2.17c1.15-0.74,2.15-1.6,3.32-2.08c1.72-0.7,2.93-0.13,3.78,1.45c0.83,1.55,0.59,3.26-0.83,4.2
			c-0.87,0.57-1.97,1.02-2.99,1.1c-2.31,0.18-2.91-0.63-2.81-3.29c1.58-0.16,0.84,1.3,1.5,2.15c0.86-0.12,1.89-0.11,2.83-0.42
			c1.59-0.52,2.05-1.82,1.31-3.21c-0.66-1.24-1.83-1.53-3.17-0.62C658.2,220.72,657.45,221.53,656.64,222.24z"/>
		<path class="st1" d="M211.04,320.57c0.38-4.85,1.9-9.27,4.13-13.46c0.21-0.39,0.87-0.53,1.32-0.79c-0.1,0.45-0.15,0.92-0.31,1.35
			c-1.11,2.98-2.29,5.93-3.35,8.92c-0.36,1.01,0.46,1.12,1.22,1.19c2.37,0.21,3.46,1.32,3.55,3.57c0.09,2.22-0.99,3.51-3.13,3.73
			c-1.86,0.19-2.91-0.75-3.28-2.97C211.09,321.57,211.08,321.03,211.04,320.57z M212.31,320.68c0.02,2.3,0.57,3.25,1.75,3.29
			c1.5,0.04,2.3-0.83,2.29-2.51c-0.01-1.65-0.9-2.5-2.5-2.53C212.35,318.91,212.23,319.83,212.31,320.68z"/>
		<path class="st1" d="M287.96,221.66c-0.16,0.62-0.44,1.34-0.5,2.08c-0.1,1.19-0.02,2.39-0.11,3.58c-0.03,0.44-0.3,0.87-0.46,1.3
			c-0.16-0.03-0.33-0.05-0.49-0.08c0-2.22,0-4.44,0-6.81c-2.94-0.21-5.56-0.12-7.93,1.47c-0.35-1.08-0.25-1.52,0.91-1.81
			c1.78-0.45,3.61-0.67,5.43-0.97c0.42-0.07,0.84-0.06,1.53-0.1c0-2.01,0.07-3.95-0.02-5.89c-0.06-1.27-0.84-2.19-2.14-2.27
			c-1.67-0.09-3.35,0.01-5.02,0.07c-0.5,0.02-0.99,0.16-1.49,0.24c-0.07-0.15-0.14-0.31-0.21-0.46c0.36-0.26,0.7-0.74,1.08-0.76
			c1.99-0.12,4.01-0.37,5.97-0.13c2.19,0.27,3.1,1.81,3.1,4.46c0,0.81-0.18,1.63-0.12,2.44
			C287.57,219.24,287.8,220.45,287.96,221.66z"/>
		<path class="st1" d="M180.03,224.63c0.15-5.13,1.26-9.53,2.7-13.86c0.12-0.36,0.27-0.74,0.53-1c0.29-0.29,0.72-0.44,1.09-0.65
			c0.02,0.44,0.14,0.91,0.03,1.31c-0.96,3.46-2.15,6.87-2.86,10.38c-0.41,2.02-0.19,4.2-0.02,6.29c0.09,1.11,0.32,2.56,2.08,2.27
			c1.35-0.22,2.73-2.2,2.49-3.42c-0.21-1.06-1.64-1.59-3.12-1.23c-0.38,0.09-0.82-0.05-1.23-0.08c0.31-0.36,0.57-0.95,0.95-1.04
			c1.49-0.35,2.97-0.19,4.01,1.09c1.08,1.33,0.52,2.67-0.29,3.89c-0.9,1.35-2.12,2.25-3.83,1.89c-1.44-0.3-1.84-1.6-2.12-2.82
			C180.17,226.48,180.11,225.28,180.03,224.63z"/>
		<path class="st1" d="M289.89,275.62c3.09,0.87,5.12-1.94,7.95-1.62c-0.1,0.34-0.1,0.73-0.24,0.79c-1.97,0.75-3.9,1.65-5.94,2.11
			c-2.39,0.54-3.42-0.87-2.35-3.13c1.04-2.2,2.31-4.29,3.48-6.43c1.34-2.44,2.6-4.9,2.37-7.81c-0.12-1.6-0.78-2.06-2.23-1.37
			c-0.82,0.39-1.51,1.03-2.26,1.55c-0.34,0.24-0.69,0.48-1.23,0.86c0.28-2.48,4.11-4.66,5.72-3.5c0.56,0.41,0.94,1.32,1.05,2.06
			c0.38,2.45-0.32,4.74-1.45,6.89c-1.36,2.59-2.82,5.12-4.2,7.7C290.26,274.26,290.13,274.9,289.89,275.62z"/>
		<path class="st1" d="M178.18,308.19c-1.28,2.44-2.54,4.89-3.85,7.31c-0.17,0.31-0.55,0.49-0.84,0.73
			c-0.06-0.43-0.3-0.95-0.14-1.28c1.63-3.36,3.31-6.69,5.01-10.01c0.14-0.27,0.55-0.41,0.83-0.61c0.17,0.36,0.5,0.72,0.49,1.08
			c-0.07,3.03-0.13,6.07-0.32,9.1c-0.18,2.86-0.48,5.72-0.78,8.58c-0.04,0.41-0.34,0.8-0.52,1.2c-0.21-0.42-0.61-0.86-0.58-1.26
			c0.22-3.3,0.53-6.58,0.78-9.88c0.12-1.65,0.17-3.31,0.24-4.96C178.4,308.19,178.29,308.19,178.18,308.19z"/>
		<path class="st1" d="M266.13,214.99c0.18-0.57,0.23-1.22,0.55-1.7c0.86-1.32,3.3-2.12,4.82-1.67c1.26,0.38,2.04,1.37,1.82,2.56
			c-0.33,1.76-0.83,3.58-1.67,5.14c-0.94,1.75-2.35,3.24-3.55,4.86c-0.35,0.48-0.68,0.98-0.96,1.51c-0.76,1.49-0.49,2.08,1.14,2
			c1.94-0.09,3.86-0.46,5.79-0.72c0.47-0.07,0.94-0.18,1.41-0.27c0.07,0.17,0.14,0.35,0.21,0.52c-0.49,0.3-0.95,0.79-1.48,0.87
			c-2.08,0.32-4.18,0.7-6.28,0.7c-2.21,0.01-3.01-1.48-1.86-3.4c1.22-2.04,2.77-3.88,4.09-5.86c0.71-1.07,1.36-2.22,1.83-3.42
			c0.46-1.17,0.69-2.5-0.68-3.31c-0.97-0.57-3.02,0.12-3.79,1.18c-0.27,0.37-0.49,0.79-0.73,1.19
			C266.58,215.11,266.36,215.05,266.13,214.99z"/>
		<path class="st1" d="M343.54,224.21c-0.66,1.35-1.08,2.4-1.68,3.34c-0.28,0.44-0.98,0.98-1.36,0.9c-0.51-0.12-1.16-0.73-1.28-1.24
			c-0.68-2.88-0.8-5.79,0.14-8.65c0.31-0.94,0.89-1.56,2.04-1.51c1.99,0.1,4.76,3.65,4.33,6.14c-0.47-0.64-0.77-1.06-1.07-1.47
			c-0.72-1.01-1.34-2.11-2.18-3c-0.96-1-1.79-0.81-2.16,0.49c-0.75,2.64-0.64,5.3,0.01,7.93c0.18,0.05,0.37,0.11,0.55,0.16
			c0.77-1.92,1.55-3.84,2.32-5.76c0.21-0.02,0.42-0.05,0.62-0.07c0.32,1.06,0.64,2.12,0.95,3.18c0.47,1.59,0.95,3.18,1.39,4.77
			c0.07,0.25-0.03,0.55-0.05,0.83c-0.35-0.11-0.94-0.14-1.03-0.36c-0.47-1.15-0.83-2.34-1.17-3.53
			C343.73,225.79,343.7,225.2,343.54,224.21z"/>
		<path class="st1" d="M525.55,226.74c-1.75,1.18-2.59,0.77-2.79-0.88c-0.18-1.45-0.2-2.92-0.3-4.38c-0.02-0.36-0.07-0.72-0.15-1.4
			c-1.16,1.26-2.06,2.4-3.13,3.35c-0.59,0.52-1.47,0.72-2.22,1.07c-0.29-0.76-0.79-1.51-0.82-2.28c-0.11-2.68,0.08-5.33,1.97-7.51
			c1.64-1.9,3.67-1.71,4.29,0.69c0.76,2.9,0.95,5.95,1.34,8.94C523.88,225.36,523.53,226.59,525.55,226.74z M517.66,223.4
			c1.03-1.11,2.07-2.23,3.1-3.35c1.53-1.66,1.63-2.33,0.67-4.34c-0.66-1.39-1.41-1.52-2.42-0.33
			C517.08,217.67,517.16,220.41,517.66,223.4z"/>
		<path class="st1" d="M654.91,376.93c0.49-0.94,0.95-1.9,1.49-2.82c0.17-0.29,0.54-0.65,0.82-0.64c0.26,0,0.67,0.41,0.74,0.7
			c0.49,1.92,0.91,3.85,1.34,5.78c0.01,0.07-0.12,0.16-0.32,0.41c-1.76-1-1.43-2.95-2.03-4.55c-0.89,0.99-1.17,2.78-3.21,2.19
			c0.21,2.63,0.47,5.11,0.59,7.59c0.12,2.66,0.14,5.32,0.13,7.98c0,0.46-0.42,0.92-0.64,1.39c-0.22-0.07-0.45-0.14-0.67-0.21
			c0-3.38,0.11-6.77-0.03-10.15c-0.14-3.14-0.6-6.26-0.82-9.4c-0.04-0.58,0.37-1.19,0.58-1.79c0.14,0.05,0.29,0.09,0.43,0.14
			c0.36,1.12,0.72,2.23,1.08,3.35C654.55,376.91,654.73,376.92,654.91,376.93z"/>
		<path class="st1" d="M460.41,224.21c-0.76,1.63-1.25,2.89-1.93,4.04c-0.29,0.49-0.99,1.04-1.47,1.01
			c-0.47-0.03-1.1-0.67-1.32-1.19c-1.2-2.8-1.17-5.72-0.3-8.58c0.23-0.75,1.09-1.72,1.76-1.81c0.68-0.08,1.88,0.63,2.17,1.29
			c1.1,2.56,1.94,5.24,2.87,7.88c0.19,0.54,0.37,1.1,0.54,1.65c0.13,0.4,0.31,0.82,0.3,1.23c0,0.15-0.67,0.47-0.73,0.41
			c-0.34-0.35-0.74-0.75-0.85-1.2C461.07,227.49,460.8,226.01,460.41,224.21z M456.91,228.1c0.19,0.03,0.38,0.05,0.57,0.08
			c0.56-1.54,1.13-3.08,1.7-4.63c0.56-1.53,0.05-2.87-0.83-4.09c-0.76-1.06-1.4-1-1.81,0.2
			C455.57,222.52,455.64,225.36,456.91,228.1z"/>
		<path class="st1" d="M516.31,272.02c1.52-0.48,3.08-0.85,4.55-1.46c0.89-0.36,1.64-1.08,2.45-1.64c-0.61-0.73-1.1-1.61-1.85-2.16
			c-1.92-1.41-4.01-2.58-5.89-4.04c-0.95-0.73-1.72-1.8-2.32-2.85c-0.95-1.66-1.15-3.49,0.26-5c1.42-1.53,3.29-1.61,5.19-1.21
			c0.06,0.17,0.11,0.33,0.17,0.5c-0.45,0.15-0.9,0.42-1.36,0.43c-1.41,0.01-2.77,0.2-3.51,1.55c-0.83,1.5-0.21,3.02,0.74,4.07
			c1.28,1.42,2.91,2.55,4.45,3.73c1.37,1.05,2.92,1.89,4.2,3.04c1.65,1.51,1.45,3.07-0.55,3.98c-1.76,0.8-3.67,1.26-5.54,1.81
			c-0.28,0.08-0.66-0.17-0.99-0.26C516.3,272.34,516.31,272.18,516.31,272.02z"/>
		<path class="st1" d="M510.4,277.88c-0.89,1.06-1.37,0.25-1.85-0.37c-2.52-3.25-3.93-6.96-4.42-11.01
			c-0.67-5.48-0.17-10.8,2.22-15.87c0.35-0.74,0.56-1.54,0.84-2.31c0.22,0.04,0.43,0.08,0.65,0.13c-0.12,0.79-0.06,1.67-0.39,2.36
			c-2.15,4.54-2.72,9.31-2.33,14.25C505.51,269.87,507.01,274.22,510.4,277.88z"/>
		<path class="st1" d="M204.07,216.01c0.17-0.56,0.18-1.38,0.55-1.63c1.41-0.93,2.89-1.84,4.47-2.41c1.09-0.39,1.94,0.59,1.93,1.65
			c-0.01,1.54-0.05,3.2-0.6,4.6c-1.16,2.91-2.73,5.66-4.02,8.52c-0.89,1.97-0.48,2.5,1.71,2.45c0.97-0.02,1.95-0.15,2.92-0.17
			c0.52-0.01,1.03,0.13,1.84,0.24c-1.65,1.17-5.91,1.4-7.16,0.61c-1.1-0.69-1.12-1.72-0.67-2.72c0.88-1.98,1.96-3.87,2.79-5.87
			c0.85-2.03,1.74-4.09,2.16-6.23c0.39-2-0.44-2.44-2.35-1.56c-0.63,0.29-1.25,0.67-1.77,1.13c-0.49,0.44-0.83,1.05-1.24,1.59
			C204.44,216.16,204.25,216.08,204.07,216.01z"/>
		<path class="st1" d="M198.7,371.56c1.55-0.08,3.09-0.15,4.99-0.24c-0.14-2.24-0.13-4.44-0.47-6.59c-0.26-1.63-2.04-2.27-3.58-1.53
			c-0.47,0.23-0.91,0.51-1.36,0.76c-0.12-0.09-0.23-0.18-0.35-0.28c0.18-0.35,0.27-0.8,0.55-1.03c1.07-0.92,2.35-1.14,3.65-0.67
			c1.52,0.55,2.3,1.76,2.41,3.35c0.13,1.93,0.21,3.87,0.32,5.89c1.16,0.1,2.24,0.19,3.32,0.28c0.02,0.23,0.04,0.46,0.06,0.68
			c-1.12,0.17-2.24,0.35-3.39,0.53c-0.54,2.62,0.1,5.4-0.55,8.02c-0.23-0.02-0.46-0.03-0.69-0.05c0-2.65,0-5.3,0-7.96
			c-1.75-0.46-3.5,0.25-5-0.44C198.65,372.05,198.67,371.8,198.7,371.56z"/>
		<path class="st1" d="M453.44,392.89c-0.16-0.41-0.46-0.83-0.46-1.25c-0.03-5.86-0.03-11.71,0-17.57c0-0.4,0.37-0.79,0.56-1.19
			c0.34,0.3,0.83,0.53,1,0.91c0.4,0.87,0.64,1.81,1.07,3.07c0.58-0.98,0.97-1.77,1.5-2.45c0.3-0.39,0.81-0.77,1.25-0.8
			c0.26-0.02,0.73,0.63,0.82,1.04c0.34,1.55,0.58,3.13,0.57,4.76c-1.54-1.04-0.88-2.88-1.7-4.24c-0.52,0.77-0.95,1.58-1.52,2.25
			c-0.87,1.02-1.6,0.41-2.46-0.63c0,2.91,0,5.53,0,8.15c0,2.61,0,5.22,0,7.84C453.86,392.82,453.66,392.86,453.44,392.89z"/>
		<path class="st1" d="M366.88,222.81c-1.35,1.63-2.74,0.93-3.91,1.05c-1.22,0.12-2.46,0.03-3.8,0.03c0.34,2.48,0.64,4.75,0.95,7.03
			c-1.6-0.64-1.31-2.02-1.53-3.17c-0.24-1.21-0.4-2.44-0.6-3.71c-2.49-0.46-5.04,0.26-7.44-0.7c2.26-1.08,4.68-0.3,7.25-0.78
			c0-1.75,0-3.55,0-5.35c0.23-0.02,0.45-0.03,0.68-0.05c0.18,1.79,0.37,3.59,0.58,5.65C361.59,222.81,364.02,222.81,366.88,222.81z"
			/>
		<path class="st1" d="M632.23,314.39c-0.63-0.12-1.17-0.22-1.79-0.33c0.12-0.35,0.17-0.61,0.22-0.61c1.89-0.04,2.11-1.55,2.63-2.88
			c1.15-2.94,3.6-5.6,6.05-6.04c-0.37,0.44-0.69,0.94-1.13,1.3c-2.23,1.85-3.73,4.14-4.51,7.11c2.44,0.14,4.69,0.28,6.95,0.41
			c-0.01,0.21-0.03,0.42-0.04,0.63c-2.25,0.75-4.62-0.07-6.88,0.29c-0.63,3.01,0.86,5.24,3.82,5.94c0.45,0.11,0.85,0.45,1.28,0.68
			c-0.51,0.14-1.05,0.47-1.52,0.39C634.21,320.74,632.65,318.61,632.23,314.39z"/>
		<path class="st1" d="M179.19,260.08c-1.28,2.18-2.56,4.37-3.88,6.62c-1.25-0.51-0.54-1.3-0.21-1.9c1.17-2.13,2.44-4.22,3.62-6.35
			c0.45-0.81,0.77-1.7,1.15-2.56c0.16,0.02,0.32,0.04,0.47,0.06c0.07,0.47,0.21,0.93,0.21,1.4c-0.01,5.69-0.06,11.37-0.06,17.06
			c0,0.6,0.36,1.19,0.39,1.8c0.02,0.38-0.23,0.79-0.37,1.18c-0.33-0.21-0.8-0.34-0.96-0.63c-0.19-0.35-0.15-0.84-0.14-1.27
			c0.06-4.44,0.12-8.89,0.19-13.33c0.01-0.68,0-1.37,0-2.06C179.46,260.1,179.33,260.09,179.19,260.08z"/>
		<path class="st1" d="M378.12,378.88c0.63-0.93,1.1-1.72,1.68-2.41c0.27-0.32,0.78-0.63,1.17-0.61c0.27,0.01,0.7,0.57,0.74,0.92
			c0.25,2.22,0.41,4.45,0.62,6.93c-1.53-0.67-1.24-1.91-1.39-2.83c-0.17-1.04-0.04-2.13-0.04-3.46c-1.22,1.19-2.19,2.13-3.55,3.45
			c0,4.32,0,9.29,0,14.25c-0.25,0-0.5,0-0.75,0c-0.72-6.42-0.17-12.88-0.36-19.31c0.22-0.05,0.43-0.11,0.65-0.16
			C377.26,376.64,377.64,377.65,378.12,378.88z"/>
		<path class="st1" d="M447,257.64c-1.05-0.1-2.04-0.45-2.86-0.22c-2.82,0.81-3.44,4.01-1.09,6.01c1.56,1.32,3.42,2.27,5.1,3.46
			c0.92,0.65,1.84,1.36,2.57,2.2c0.9,1.03,0.75,2.29-0.4,2.94c-1.44,0.81-3.06,1.32-4.65,1.83c-0.28,0.09-0.77-0.46-1.17-0.72
			c0.37-0.2,0.73-0.44,1.12-0.58c1.29-0.45,2.66-0.75,3.89-1.34c0.96-0.45,0.66-1.35,0-1.86c-1.18-0.94-2.5-1.7-3.71-2.61
			c-1.5-1.13-3.1-2.19-4.37-3.55c-1.3-1.4-1.24-3.21-0.28-4.85c0.92-1.59,2.42-2.27,4.24-2.21
			C446.39,256.16,447.12,256.51,447,257.64z"/>
		<path class="st1" d="M433.16,216.78c-0.25-0.03-0.41,0-0.45-0.06c-1.37-1.78-3.03-1.99-4.83-0.61c-2.9,2.23-3.68,7.51-1.57,10.5
			c1.68,2.37,5.15,3.15,7.7,1.74c0.48-0.26,1-0.44,1.5-0.65c0.1,0.13,0.2,0.26,0.3,0.4c-0.31,0.35-0.57,0.77-0.95,1.03
			c-3.18,2.17-8.04,0.9-9.97-2.65c-2.46-4.52,0.16-11.96,5.33-12.42C432.46,213.86,433.61,214.81,433.16,216.78z"/>
		<path class="st1" d="M255.78,314.96c-0.82,1.51-1.6,3.03-2.47,4.51c-0.23,0.39-0.72,0.62-1.1,0.93c0.03-0.53-0.08-1.13,0.12-1.58
			c1.02-2.2,2.17-4.34,3.17-6.54c0.42-0.92,0.54-1.97,0.87-2.94c0.16-0.49,0.47-0.93,0.71-1.4c0.15,0.03,0.3,0.07,0.45,0.1
			c0.06,0.38,0.18,0.76,0.16,1.14c-0.24,4.21-0.54,8.42-0.75,12.63c-0.06,1.11,0.16,2.24,0.19,3.36c0.01,0.4-0.18,0.79-0.28,1.19
			c-0.32-0.28-0.89-0.55-0.9-0.83c-0.09-2.53-0.11-5.07-0.09-7.6c0.01-0.97,0.15-1.93,0.23-2.9
			C255.98,315.01,255.88,314.99,255.78,314.96z"/>
		<path class="st1" d="M261.3,220.12c-2.1,1.36-0.85,3.85-1.1,5.99c-1.14-0.18-1.31-0.45-1.21-2.31c0.05-1.07,0.2-2.14,0.3-3.28
			c-2.33,0-4.56,0-6.78,0c-0.07-0.15-0.13-0.29-0.2-0.44c0.53-0.25,1.05-0.66,1.6-0.71c1.4-0.12,2.82-0.13,4.22-0.1
			c0.93,0.02,1.36-0.22,1.44-1.24c0.38-4.44-0.85-5.71-5.32-5.4c-1.15,0.08-2.3,0.11-3.46,0.17c-0.03-0.17-0.06-0.35-0.08-0.52
			c0.13-0.15,0.26-0.42,0.4-0.42c2.05-0.1,4.12-0.39,6.15-0.19c2.19,0.21,2.93,1.18,3.29,3.39c0.1,0.64,0.02,1.3,0.12,1.94
			C260.83,217.99,261.06,218.95,261.3,220.12z"/>
		<path class="st1" d="M397.8,208.77c-0.4-1.88-0.8-3.76-1.23-5.83c-0.81,1.53-1.53,2.88-2.25,4.24c-0.21-0.02-0.43-0.04-0.65-0.06
			c-0.33-1.59-0.66-3.18-0.99-4.77c-0.1,0-0.2,0-0.29,0c-0.52,1.35-1,2.72-1.6,4.04c-0.19,0.4-0.72,0.65-1.1,0.97
			c-0.21-0.4-0.51-0.78-0.61-1.21c-0.24-1-0.44-2.01-0.56-3.02c-0.05-0.43,0.15-0.9,0.23-1.35c0.17-0.01,0.34-0.01,0.51-0.02
			c0.25,0.98,0.51,1.97,0.82,3.15c0.59-1.33,1.05-2.48,1.62-3.56c0.2-0.37,0.7-0.59,1.05-0.88c0.31,0.39,0.75,0.75,0.91,1.2
			c0.31,0.92,0.47,1.88,0.73,2.99c0.51-1.06,0.89-2.02,1.42-2.9c0.36-0.61,1.14-1.05,1.49-0.12c0.84,2.24,1.26,4.59,1.27,6.98
			C398.31,208.66,398.06,208.72,397.8,208.77z"/>
		<path class="st1" d="M560.75,253.4c-0.57,0.08-1.14,0.22-1.71,0.22c-3.32,0-4.8,2.1-3.38,5.15c0.6,1.28,1.72,2.33,2.66,3.44
			c1.04,1.24,2.28,2.33,3.18,3.67c1.26,1.88,0.68,3.76-1.37,4.69c-1.6,0.72-3.29,1.35-5.27,0.53c0.33-0.19,0.65-0.46,1-0.55
			c1.1-0.29,2.24-0.4,3.31-0.77c1.92-0.66,2.38-1.98,1.16-3.67c-0.88-1.22-2-2.27-3.08-3.33c-1.54-1.51-2.87-3.1-3.16-5.34
			c-0.22-1.72,0.52-3.69,1.92-4.35c1.52-0.72,3.14-0.87,4.7-0.2C560.73,253.06,560.74,253.23,560.75,253.4z"/>
		<path class="st1" d="M483.74,363.23c0,2.15,0,4.29,0,6.52c2.69,0,5.13,0,7.56,0c-0.2,0.9-0.27,0.98-1.88,1.17
			c-0.86,0.1-1.73,0.11-2.6,0.13c-0.91,0.02-1.82,0-3.02,0c0.26,2.23,0.49,4.23,0.78,6.67c-2.29-1.96-1.24-4.49-2.15-6.8
			c-2.39,0-4.92,0-7.46,0c0-0.23-0.01-0.47-0.01-0.7c2.47-0.7,5.11,0.03,7.69-0.41c0.15-2.24,0.29-4.43,0.43-6.63
			C483.3,363.2,483.52,363.21,483.74,363.23z"/>
		<path class="st1" d="M386.34,234.54c1.99-0.44,1.95-1.91,2.15-3.23c1.07-6.8-0.2-13.04-4.52-18.52c-0.47-0.59-1.07-1.07-1.56-1.64
			c-0.21-0.24-0.33-0.56-0.49-0.84c0.38-0.03,0.93-0.22,1.1-0.05c1.09,1.13,2.25,2.23,3.08,3.53c3.73,5.8,4.7,12.14,3.29,18.85
			c-0.24,1.12-0.52,2.45-2.14,2.4C386.94,235.04,386.64,234.72,386.34,234.54z"/>
		<path class="st1" d="M179.35,365.06c-1.16,2.53-2.31,5.05-3.47,7.57c-0.16-0.04-0.33-0.08-0.49-0.13c0.14-0.91,0.1-1.89,0.46-2.7
			c0.91-2.02,1.99-3.97,3.05-5.93c0.16-0.29,0.68-0.69,0.82-0.62c0.39,0.2,0.89,0.58,0.95,0.95c0.32,2.03,0.64,4.07,0.72,6.11
			c0.12,3.08,0.03,6.16,0.03,9.25c0.16-0.06,0.33-0.11,0.49-0.16c0.4,0.12,0.8,0.24,1.2,0.35c-0.29,0.49-0.49,1.1-0.9,1.41
			c-0.18,0.14-1.13-0.25-1.19-0.52c-0.32-1.42-0.59-2.87-0.66-4.32c-0.16-3.14-0.18-6.29-0.28-9.44c-0.02-0.58-0.13-1.16-0.2-1.74
			C179.68,365.12,179.51,365.09,179.35,365.06z"/>
		<path class="st1" d="M636.42,221.18c-0.46,0.41-0.87,1.08-1.4,1.2c-2.65,0.57-5.3,0.59-7.72-0.88c-2.26-1.37-3.27-3.74-2.49-6.49
			c0.84-2.93,2.58-5.28,5.66-6.2c0.76-0.23,1.74-0.11,2.51,0.17c0.92,0.34,1.43,1.1,0.62,2.41c-0.82-1.55-1.97-2.13-3.44-1.36
			c-2.22,1.17-3.76,2.98-4.31,5.43c-0.63,2.83,0.82,5.07,3.64,5.79c2.17,0.55,4.38,0.71,6.45-0.54
			C636.11,220.87,636.27,221.03,636.42,221.18z"/>
		<path class="st1" d="M254.78,259.53c1,6.04,0.08,11.8,0.76,17.48c-0.2,0.07-0.41,0.14-0.61,0.22c-0.21-0.51-0.59-1.01-0.61-1.53
			c-0.1-3.04-0.13-6.08-0.17-9.12c-0.01-1.03,0-2.06,0-3.56c-1.03,1.62-1.73,2.91-2.62,4.07c-0.81,1.06-1.51,2.41-3.13,2.52
			C250.48,266.3,252.48,263.15,254.78,259.53z"/>
		<path class="st1" d="M559.9,329.94c-0.27,0.12-0.54,0.33-0.81,0.33c-2.27,0.05-4.55,0.16-6.82,0.07c-2.05-0.08-2.52-1.03-1.4-2.71
			c1.04-1.58,2.22-3.07,3.31-4.61c0.31-0.44,0.7-0.9,0.8-1.4c0.19-0.97,0.21-1.98,0.29-2.98c-0.86-0.07-1.72-0.13-2.58-0.2
			c-0.74-0.06-1.49-0.14-2.23-0.2c0.66-0.3,1.3-0.71,1.99-0.87c0.83-0.19,1.75-0.36,2.56-0.18c1.41,0.32,1.96,1.62,1.54,2.78
			c-0.68,1.89-1.71,3.68-2.73,5.43c-0.7,1.2-1.62,2.26-2.58,3.58C554.26,329.67,557.18,328.64,559.9,329.94z"/>
		<path class="st1" d="M171.91,215.14c-1.14,1.88-2.07,3.42-3.23,5.34c-0.22-0.76-0.44-1.09-0.36-1.28
			c1.39-2.89,2.81-5.77,4.54-8.58c0.13,2.18,0.28,4.36,0.39,6.55c0.16,2.98,0.28,5.96,0.46,8.94c0.04,0.68,0.3,1.36,0.39,2.04
			c0.07,0.47,0.08,0.95,0,1.41c-0.02,0.13-0.62,0.32-0.65,0.28c-0.25-0.36-0.58-0.77-0.61-1.18c-0.24-3.41-0.41-6.82-0.63-10.23
			C172.16,217.46,172.04,216.49,171.91,215.14z"/>
		<path class="st1" d="M239.99,221.86c0.05-0.43-0.07-1.02,0.16-1.28c2.19-2.41,3.7-5.19,4.75-8.25c0.07-0.21,0.36-0.35,0.92-0.87
			c0.41,2.14,0.81,3.94,1.08,5.76c0.52,3.41,0.97,6.82,1.42,10.24c0.03,0.23-0.24,0.5-0.37,0.76c-0.3-0.18-0.78-0.3-0.86-0.54
			c-0.25-0.82-0.41-1.68-0.51-2.54c-0.38-3.37-0.72-6.75-1.09-10.3c-1.71,2.51-3.28,4.83-4.85,7.16
			C240.42,221.96,240.21,221.91,239.99,221.86z"/>
		<path class="st1" d="M488.78,325.27c-1.54,0.29-1.94-0.76-2.21-1.9c-0.44-1.83-0.84-3.68-1.26-5.52c-0.15-0.02-0.3-0.04-0.45-0.07
			c-0.89,2.29-1.78,4.57-2.67,6.85c-0.15-0.02-0.31-0.04-0.46-0.07c-0.12-0.76-0.22-1.53-0.38-2.29c-0.34-1.7-0.66-3.4-1.11-5.06
			c-0.13-0.5-0.71-0.87-1.01-1.34c-0.19-0.29-0.26-0.66-0.38-1c0.41,0.01,1.06-0.15,1.2,0.05c0.61,0.87,1.15,1.81,1.57,2.79
			c0.35,0.83,0.48,1.76,0.77,2.87c0.59-1.24,1.03-2.27,1.58-3.25c0.24-0.43,0.7-0.75,1.07-1.12c0.39,0.4,0.98,0.74,1.15,1.23
			c0.51,1.48,0.81,3.03,1.29,4.52C487.82,323.06,488.32,324.11,488.78,325.27z"/>
		<path class="st1" d="M259.4,365.9c-1.46,1.95-2.72,3.65-4.03,5.32c-0.08,0.1-0.53-0.1-0.69-0.13c1.63-2.77,3.21-5.46,4.79-8.14
			c0.18,0.02,0.35,0.04,0.53,0.06c0.64,5.84,1.29,11.67,1.9,17.51c0.03,0.25-0.34,0.55-0.76,1.19
			C259.83,376.28,259.58,371.18,259.4,365.9z"/>
		<path class="st1" d="M606.5,378.76c-0.34-0.58-0.44-0.97-0.7-1.16c-0.41-0.3-0.97-0.73-1.39-0.66c-2.51,0.43-4.86,2.9-5.29,5.39
			c-0.57,3.3,2.73,5.71,6.49,4.66c0.84-0.24,1.59-0.77,2.51-1.23c0.23,1.64-0.95,1.92-1.89,2.24c-2.86,0.95-6.44-0.21-7.67-2.41
			c-1.3-2.31-0.48-5.97,2.06-7.86c1.25-0.93,2.84-1.59,4.37-1.88C606.5,375.55,607.15,376.77,606.5,378.76z"/>
		<path class="st1" d="M598.69,362.09c-0.12-0.53-0.32-1.07-0.35-1.61c-0.13-3.36-0.22-6.72-0.33-10.08
			c-0.02-0.59-0.09-1.18-0.15-1.98c-1.17,0.12-2.24,0.24-3.36,0.35c0.72-1.71,9.64-2.65,11.41-0.92c-2.22,0-4.44,0-6.67,0
			c0,4.98,0,9.55,0,14.12C599.05,362.01,598.87,362.05,598.69,362.09z"/>
		<path class="st1" d="M543.86,379.08c0.44-2.31,1.05-4.61,1.29-6.94c0.26-2.63-1.86-4-3.57-5.59c1.52-0.4,2.39,0.57,3.14,1.43
			c2.05,2.34,1.85,5.12,1.12,7.86c-0.41,1.55-1.16,3.03-1.84,4.5c-0.14,0.31-0.65,0.58-1,0.6c-0.21,0.01-0.55-0.49-0.65-0.81
			c-0.78-2.6-1.53-5.2-2.24-7.81c-0.1-0.39,0.04-0.84,0.06-1.26c0.2-0.03,0.4-0.07,0.6-0.1c0.81,2.67,1.61,5.35,2.42,8.02
			C543.42,379.01,543.64,379.05,543.86,379.08z"/>
		<path class="st1" d="M573.31,308.94c0.2,1.9,0.4,3.8,0.63,5.93c1.05-0.13,1.99-0.21,2.93-0.37c0.77-0.13,1.53-0.35,2.29-0.53
			c0.07,0.29,0.14,0.58,0.22,0.87c-1.65,0.45-3.29,0.91-5.19,1.43c0.51,2.02,1.06,4.18,1.6,6.33c-0.29,0.07-0.57,0.14-0.86,0.22
			c-0.55-1.75-1.25-3.47-1.59-5.27c-0.23-1.21-0.65-1.55-1.79-1.38c-0.96,0.14-1.95,0.14-2.92,0.15c-0.47,0-0.93-0.13-1.41-0.2
			c0-0.23-0.01-0.45-0.01-0.68c1.8-0.18,3.61-0.35,5.41-0.53c0.24-2.06-0.56-4.04-0.08-5.96
			C572.79,308.94,573.05,308.94,573.31,308.94z"/>
		<path class="st1" d="M463.25,212.44c0.17-0.54,0.25-1.13,0.52-1.61c0.27-0.47,0.73-0.83,1.11-1.24c0.33,0.39,0.77,0.73,0.97,1.18
			c0.31,0.68,0.45,1.44,0.77,2.55c0.67-1.55,1.23-2.83,1.78-4.1c0.18-0.01,0.35-0.03,0.53-0.04c0.83,1.96,1.32,4.01,1.71,6.1
			c-0.21,0.08-0.43,0.17-0.64,0.25c-0.46-1.1-0.92-2.21-1.44-3.48c-0.31,0.62-0.51,1.23-0.89,1.68c-0.31,0.37-0.84,0.75-1.27,0.75
			c-0.31,0-0.73-0.56-0.91-0.96c-0.26-0.58-0.36-1.24-0.58-2.11c-0.44,1.16-0.75,2.14-1.2,3.06c-0.15,0.31-0.64,0.47-0.97,0.69
			c-0.22-0.33-0.58-0.64-0.64-1c-0.18-1.12-0.28-2.26-0.32-3.4c-0.01-0.29,0.3-0.58,0.46-0.88c0.2,0.27,0.49,0.51,0.57,0.81
			c0.14,0.56,0.15,1.15,0.21,1.73C463.1,212.43,463.18,212.43,463.25,212.44z"/>
		<path class="st1" d="M424.53,261.29c-1.68,0-3.27,0-5.03,0c0.28,4.27,0.55,8.52,0.83,12.77c-0.24,0.05-0.47,0.09-0.7,0.14
			c-0.2-0.74-0.51-1.47-0.56-2.22c-0.27-3.56-0.48-7.11-0.72-10.86c-1.88,0.11-3.62,0.22-5.36,0.33c-0.05-0.12-0.1-0.24-0.15-0.37
			c0.23-0.21,0.45-0.59,0.7-0.61c2.08-0.18,4.16-0.32,6.25-0.42c1.3-0.06,2.61-0.04,3.91-0.01
			C424.64,260.06,424.98,260.5,424.53,261.29z"/>
		<path class="st1" d="M553.78,301c-1.33,2.58-2.42,4.71-3.51,6.84c-0.17-0.04-0.33-0.07-0.5-0.11c-0.07-0.3-0.3-0.67-0.2-0.89
			c1.36-2.89,2.75-5.76,4.16-8.62c0.08-0.16,0.33-0.23,0.75-0.51c0.12,0.6,0.26,1.02,0.29,1.45c0.22,3.19,0.36,6.38,0.66,9.56
			c0.11,1.15,0.57,2.27,0.91,3.56c-0.62,0.49-1.4,0.27-1.63-1.01c-0.36-1.97-0.5-3.97-0.68-5.96
			C553.91,304.05,553.88,302.77,553.78,301z"/>
		<path class="st1" d="M498.52,214.82c-4.13-0.28-6.34,1.75-6.96,5.54c-0.28,1.72,0.29,3.33,1.81,4.24
			c2.19,1.32,4.49,1.54,6.61-0.32c0.39,1.12,0.25,1.4-0.89,1.94c-1.87,0.89-5.42,0.35-6.93-1.05c-1.71-1.59-2.23-4.33-1.3-6.8
			c1.12-2.96,3.71-4.83,6.4-4.56c0.41,0.04,0.8,0.33,1.2,0.51C498.48,214.48,498.5,214.65,498.52,214.82z"/>
		<path class="st1" d="M462.27,371.94c2.14,1.97,1.97,4.51,2.72,7.01c1.47-2.16,1.87-4.3,1.42-6.69c-0.48-2.49-1.97-4.11-4.41-5
			c0.1-0.2,0.19-0.39,0.29-0.59c0.53,0.09,1.12,0.06,1.59,0.28c2.93,1.38,4.62,5.42,3.58,9.11c-0.4,1.44-1.34,2.79-2.23,4.03
			c-0.54,0.75-1.23,0.55-1.47-0.45c-0.56-2.24-1.13-4.48-1.67-6.73C462.04,372.72,462.16,372.5,462.27,371.94z"/>
		<path class="st1" d="M619.35,265.57c0.22,1.83,0.44,3.67,0.67,5.59c0.82-0.06,1.57-0.12,2.55-0.19c-0.28-1.04-0.56-1.95-0.75-2.87
			c-0.07-0.36,0.06-0.75,0.1-1.13c0.32,0.27,0.75,0.48,0.92,0.82c0.28,0.57,0.34,1.25,0.59,1.84c0.28,0.66,0.68,1.26,1.12,2.05
			c-1.28,0.91-0.27,2.31-0.16,3.64c0.03,0.35-0.12,0.72-0.18,1.08c-0.3-0.26-0.77-0.47-0.86-0.79c-0.29-1.04-0.44-2.11-0.66-3.3
			c-0.76,0-1.53,0-2.53,0c0.12,0.98,0.27,1.86,0.31,2.76c0.01,0.3-0.29,0.61-0.45,0.91c-0.26-0.22-0.72-0.42-0.74-0.66
			c-0.28-3.08-0.5-6.16-0.72-9.25c-0.01-0.13,0.13-0.27,0.2-0.41C618.95,265.63,619.15,265.6,619.35,265.57z"/>
		<path class="st1" d="M605.98,219.49c2.27-1.06,4.94-0.08,7.26-0.91c-0.23-1.55-0.46-3.09-0.69-4.64c0.27-0.06,0.54-0.12,0.8-0.18
			c0.4,1.62,0.8,3.24,1.19,4.84c1.8,0.26,3.55,0.52,5.31,0.78c-0.03,0.27-0.05,0.54-0.08,0.81c-1.63-0.07-3.26-0.15-4.94-0.23
			c-0.12,1.64-0.24,3.16-0.36,4.68c-0.29-0.02-0.58-0.03-0.87-0.05c0-0.74-0.01-1.47,0-2.21c0.04-2.44,0.04-2.42-2.33-2.36
			c-1.74,0.04-3.48,0.01-5.22,0.01C606.04,219.85,606.01,219.67,605.98,219.49z"/>
		<path class="st1" d="M424.16,377.09c0.9-1.3,1.97-2.14,3.43-1.72c1.44,0.41,1.58,1.84,1.3,2.98c-0.42,1.75-1.14,3.45-1.87,5.11
			c-0.54,1.22-1.31,2.35-2.06,3.65c2.27,1.04,4.8-0.39,6.87,0.73c-0.02,0.18-0.04,0.37-0.07,0.55c-2.27,0-4.56,0.14-6.82-0.06
			c-1.23-0.1-1.25-1.16-0.72-2.13c1-1.85,2.1-3.66,2.99-5.57c0.41-0.89,0.57-1.97,0.59-2.97c0.02-1.3-0.64-1.58-1.8-0.93
			c-0.42,0.24-0.82,0.5-1.25,0.7C424.68,377.47,424.5,377.29,424.16,377.09z"/>
		<path class="st1" d="M372.76,275.42c-0.43,0.18-0.85,0.35-1.42,0.58c0.1,0.66,0.23,1.34,0.29,2.02c0.03,0.27-0.1,0.56-0.16,0.83
			c-0.29-0.16-0.76-0.25-0.84-0.48c-0.27-0.75-0.4-1.56-0.64-2.58c-0.64,0.15-1.82,0.27-1.83,0.45c-0.06,1.01,0.17,2.03,0.35,3.45
			c-0.45-0.26-1.14-0.42-1.27-0.78c-0.27-0.8-0.34-1.69-0.35-2.55c-0.04-2.29-0.01-4.59-0.01-7.3c1.79,1.71,0.96,3.81,1.39,5.6
			c0.59,0,1.16,0,1.91,0c-0.08-1.52-0.15-2.95-0.23-4.63c0.4,0.22,0.8,0.31,0.91,0.53c0.21,0.42,0.29,0.92,0.34,1.4
			c0.14,1.25-0.46,2.83,1.85,3.03C372.95,275.15,372.85,275.29,372.76,275.42z"/>
		<path class="st1" d="M361.7,292.68c0.1,0.64,0.24,1.27,0.28,1.91c0.25,3.99,0.49,7.97,0.72,11.95c0.03,0.46,0,0.92-0.25,1.4
			c-2.17-3.58-1.13-7.6-1.68-11.94c-1.12,1.95-2.02,3.54-2.96,5.11c-0.17,0.29-0.5,0.5-0.75,0.74c-0.12-0.39-0.45-0.88-0.32-1.15
			c0.54-1.12,1.22-2.16,1.84-3.25c0.89-1.58,1.77-3.17,2.66-4.76C361.4,292.71,361.55,292.69,361.7,292.68z"/>
		<path class="st1" d="M384.4,375.65c1.43,1.77,1.54,4.14,2.38,6.39c1.48-1.87,1.5-3.94,1.37-6.05c-0.15-2.37-2.16-3.19-3.97-4.35
			c1.6-0.52,3.12,0.2,4.14,1.7c1.51,2.21,1.42,6.4-0.22,8.81c-0.53,0.78-1.14,1.49-1.94,2.53c-0.85-3.2-1.59-6-2.33-8.81
			C384.03,375.8,384.22,375.73,384.4,375.65z"/>
		<path class="st1" d="M497.24,272.17c-1.02,0.26-1.8,0.47-2.83,0.73c0.18,0.81,0.37,1.62,0.52,2.43c0.05,0.3,0.01,0.62,0.01,0.93
			c-0.34-0.1-0.79-0.11-0.98-0.34c-0.26-0.31-0.41-0.77-0.45-1.19c-0.24-2.62-0.45-5.24-0.67-7.87c0.96,0.25,0.96,0.25,1.65,4.45
			c2.07,0.33,2.55-0.08,2.48-2.03c-0.04-1.01-0.01-2.02-0.01-3.03c0.15-0.02,0.3-0.05,0.45-0.07c0.17,0.29,0.46,0.57,0.5,0.87
			c0.35,2.58,0.68,5.17,0.92,7.76c0.03,0.36-0.46,0.77-0.71,1.15c-0.12-0.08-0.24-0.16-0.36-0.23
			C497.6,274.59,497.43,273.43,497.24,272.17z"/>
		<path class="st1" d="M505.8,226.49c0.18,1.3,0.37,2.61,0.62,4.39c0.59-1.07,0.88-1.8,1.36-2.39c0.34-0.42,0.91-0.66,1.38-0.97
			c0.3,0.47,0.68,0.9,0.89,1.41c0.21,0.49,0.24,1.04,0.44,1.94c0.61-0.88,1-1.55,1.5-2.13c0.3-0.34,0.79-0.76,1.14-0.72
			c0.33,0.04,0.71,0.6,0.87,1.01c0.47,1.16,0.83,2.36,1.32,3.78c-2.05-0.1-1.92-1.94-2.32-2.94c-0.92,0.64-1.83,1.28-2.74,1.92
			c-0.53-0.82-1.06-1.64-1.6-2.47c-0.42,0.66-0.92,1.59-1.55,2.42c-0.25,0.34-0.78,0.47-1.18,0.69c-0.19-0.36-0.47-0.71-0.54-1.1
			c-0.23-1.22-0.4-2.46-0.52-3.7c-0.04-0.38,0.19-0.8,0.3-1.2C505.38,226.45,505.59,226.47,505.8,226.49z"/>
		<path class="st1" d="M374.02,327.05c0.68-0.24,1.37-0.45,2.02-0.73c0.84-0.36,1.66-0.78,2.48-1.17c-0.37-0.71-0.57-1.62-1.14-2.09
			c-1.2-1-2.63-1.71-3.89-2.65c-1.08-0.81-2.28-1.72-1.85-3.32c0.44-1.66,1.9-2.3,3.4-2.68c0.41-0.1,0.96,0.37,1.46,0.58
			c-0.07,0.17-0.13,0.33-0.2,0.5c-0.26,0.01-0.57-0.06-0.77,0.05c-0.93,0.54-2,1.01-2.66,1.8c-0.19,0.22,0.73,1.64,1.4,2.21
			c1.11,0.94,2.46,1.58,3.64,2.45c1.81,1.32,2.26,2.57,1.52,3.78c-0.9,1.47-3.72,2.44-5.22,1.8
			C374.14,327.4,374.08,327.23,374.02,327.05z"/>
		<path class="st1" d="M439.92,232.56c2.92-3.65,2.92-3.65,4.16-0.68c1.48-0.09,1.87-3.18,3.95-1.49c0.85,0.69,1.29,3.32,0.61,4.18
			c-0.53-1.24-1-2.33-1.52-3.55c-0.9,0.74-1.62,1.64-2.56,2.02c-1.59,0.64-1.56-1-2.15-2.02c-0.63,1.01-1.18,1.95-1.8,2.84
			c-0.19,0.28-0.59,0.58-0.88,0.57c-0.24-0.01-0.62-0.44-0.68-0.73c-0.3-1.65-0.55-3.31-0.75-4.98c-0.03-0.28,0.28-0.59,0.44-0.89
			c0.21,0.26,0.55,0.5,0.6,0.78C439.57,229.85,439.72,231.13,439.92,232.56z"/>
		<path class="st1" d="M479.92,222.89c-2.5,0.19-4.89,0.36-7.38,0.55c-0.21-1.17,0.93-1.14,1.62-1.3c0.88-0.2,1.83-0.15,2.75-0.18
			c0.86-0.03,1.73-0.01,2.8-0.01c-0.17-1.03-0.34-1.91-0.45-2.79c-0.11-0.84-0.14-1.69-0.21-2.54c0.19-0.04,0.38-0.07,0.56-0.11
			c0.16,0.28,0.4,0.54,0.47,0.84c0.14,0.58,0.19,1.18,0.29,1.76c0.51,3.02,0.51,3,3.61,2.78c0.43-0.03,0.88,0.22,1.32,0.34
			c-0.44,0.25-0.86,0.66-1.32,0.73c-0.9,0.12-1.82,0.03-3.09,0.03c0.29,1.12,0.53,2,0.74,2.89c0.08,0.34,0.1,0.69,0.14,1.04
			c-0.41-0.1-1.03-0.08-1.19-0.34c-0.32-0.53-0.43-1.2-0.55-1.83C479.95,224.25,479.97,223.71,479.92,222.89z"/>
		<path class="st1" d="M484,295.84c0.38,1.54,0.77,3.08,1.19,4.78c0.67-1.27,1.19-2.41,1.85-3.46c0.47-0.75,1.45-1.08,1.8-0.14
			c0.94,2.51,1.62,5.12,2.15,7.78c-2.41-1.69-1.63-4.7-3.14-7.19c-0.9,2.2-1.72,4.2-2.54,6.19c-0.21-0.02-0.43-0.03-0.64-0.05
			c-0.54-2.55-1.07-5.1-1.61-7.65C483.38,296.02,483.69,295.93,484,295.84z"/>
		<path class="st1" d="M572.45,219.59c0.2,1.83,0.37,3.34,0.54,4.85c-1.05,0.1-1.26-0.12-1.42-1.7c-0.1-0.96-0.17-1.92-0.27-3.06
			c-1.69,0-3.27,0-4.84,0c1.3-1.65,3.16-0.56,4.92-1.37c0-1.8,0-3.74,0-5.68c0.26-0.01,0.51-0.01,0.78-0.02
			c0.1,1.87,0.2,3.74,0.3,5.67c1.52,0.22,2.98,0.43,4.44,0.65c-0.02,0.22-0.03,0.44-0.05,0.66
			C575.47,219.59,574.09,219.59,572.45,219.59z"/>
		<path class="st1" d="M528.03,209.54c0.14-0.21,0.22-0.42,0.38-0.54c0.47-0.37,0.98-0.7,1.46-1.05c0.18,0.52,0.38,1.04,0.53,1.56
			c0.24,0.8,0.51,1.59,0.63,2.4c0.06,0.4-0.19,0.84-0.29,1.26c-0.38-0.2-0.97-0.32-1.08-0.62c-0.26-0.69-0.28-1.47-0.41-2.34
			c-0.61,0.57-1.08,1.2-1.7,1.47c-0.2,0.09-0.81-0.72-1.24-1.12c-0.27,0.55-0.66,1.35-1.05,2.14c-0.16-0.03-0.32-0.06-0.48-0.09
			c-0.63-1.94-0.4-3.91-0.12-5.88c0.17-0.04,0.35-0.08,0.52-0.12c0.21,0.63,0.42,1.25,0.61,1.85c0.4-0.23,0.9-0.52,1.4-0.82
			C527.46,208.23,527.72,208.82,528.03,209.54z"/>
		<path class="st1" d="M667.68,206.4c-0.81,1.16-1.54,2.2-2.44,3.49c-0.71-1.93-1.31-3.56-1.93-5.23c0.97-0.5,0.97-0.5,2.32,2.21
			c0.78-0.7,1.59-1.42,2.4-2.15c0.44,0.8,0.89,1.61,1.33,2.41c0.1,0.18,0.19,0.36,0.29,0.53c0.53-0.71,0.99-1.49,1.6-2.13
			c0.77-0.81,1.61-0.7,2.09,0.3c0.44,0.92,0.7,1.92,0.94,2.92c0.07,0.29-0.22,0.67-0.35,1.01c-0.14-0.01-0.28-0.02-0.42-0.02
			c-0.36-1.14-0.73-2.28-1.29-4.03c-0.68,0.88-1.08,1.5-1.58,2.01c-1.36,1.41-2.06,1.24-2.73-0.62
			C667.86,206.91,667.8,206.73,667.68,206.4z"/>
		<path class="st1" d="M378.79,314.55c0.33,0.09,0.75,0.09,0.98,0.3c3.13,2.74,6.03,5.67,6.51,10.09c0.23,2.09-0.37,3.99-2.11,5.32
			c-1.17,0.9-2.14,0.67-2.89-0.52c0.06-0.08,0.13-0.21,0.2-0.22c3.02-0.08,4.48-2.57,3.45-5.96c-0.95-3.13-3.12-5.39-5.42-7.56
			c-0.35-0.33-0.69-0.68-1.03-1.02C378.58,314.85,378.69,314.7,378.79,314.55z"/>
		<path class="st1" d="M412.06,310.4c-6.77-1.55-13.56,0.45-20.34,0.1c-0.03-0.16-0.06-0.33-0.09-0.49
			c0.29-0.16,0.57-0.45,0.87-0.46c5.9-0.24,11.8-0.47,17.7-0.62c0.7-0.02,1.41,0.51,2.11,0.79
			C412.23,309.95,412.15,310.18,412.06,310.4z"/>
		<path class="st1" d="M371.23,331.69c-0.38-0.12-0.82-0.15-1.12-0.37c-5.15-3.7-6.24-13.02-2.07-17.81
			c0.35-0.4,0.97-0.57,1.51-0.65c-4.46,6.79-4.24,12.92,2.08,18.53C371.49,331.49,371.36,331.59,371.23,331.69z"/>
		<path class="st1" d="M661.91,367.35c1.53,0.92,2.5,2.38,3.23,3.97c1.18,2.57,1.31,5.15-0.42,7.55c-0.31,0.43-0.96,0.92-1.39,0.87
			c-0.36-0.04-0.8-0.78-0.94-1.28c-0.49-1.88-0.88-3.79-1.41-6.13c2.39,1.54,1.95,4,2.61,6c1.92-2.4,1.62-5.67-0.64-8.45
			c-0.55-0.68-1.04-1.42-1.56-2.13C661.57,367.62,661.74,367.49,661.91,367.35z"/>
		<path class="st1" d="M614.61,375.3c0.83,0.2,1.38,0.32,1.93,0.45c-0.43,0.49-0.86,0.98-1.56,1.77c0,0.64,0,1.75,0,2.86
			c-0.19,0.02-0.37,0.05-0.56,0.07c-0.25-1.04-0.5-2.07-0.78-3.26c-0.87,0-1.77,0.04-2.67-0.01c-1.71-0.08-2.28-1.05-1.36-2.45
			c1.08-1.63,2.48-2.89,4.64-3.24C614.39,373.01,614.52,374.34,614.61,375.3z M613.24,372.72c-1.17,1.11-2.1,1.99-3.03,2.87
			c0.1,0.12,0.2,0.24,0.3,0.36c0.96,0,1.92,0,2.95,0C613.39,374.92,613.33,374.06,613.24,372.72z"/>
		<path class="st1" d="M648.78,210.97c-1.89-0.19-2.08-1.71-2.42-3.5c-0.46,0.75-0.7,1.26-1.05,1.67c-0.37,0.42-0.85,0.75-1.28,1.12
			c-0.32-0.51-0.66-1.02-0.95-1.54c-0.1-0.18-0.08-0.42-0.15-0.91c-0.58,1.09-1.05,1.98-1.52,2.86c-0.17-0.02-0.35-0.04-0.52-0.06
			c-0.33-1.73-0.65-3.47-0.98-5.2c0.24-0.07,0.48-0.13,0.72-0.2c0.3,0.74,0.6,1.48,0.88,2.19c0.53-0.42,1.09-0.88,1.65-1.34
			c0.41,0.71,0.82,1.41,1.27,2.2c0.3-0.45,0.61-0.99,1-1.48c0.77-0.97,1.5-0.91,1.94,0.2C647.87,208.23,648.27,209.52,648.78,210.97
			z"/>
		<path class="st1" d="M223.59,266.79c0.35-0.21,0.69-0.59,1.04-0.59c4.99-0.06,9.98-0.07,14.96-0.07c0.17,0,0.34,0.21,0.72,0.46
			c-0.4,0.27-0.65,0.5-0.94,0.61c-0.24,0.09-0.53,0.04-0.81,0.04c-4.92,0-9.84,0-14.76,0C223.74,267.09,223.66,266.94,223.59,266.79
			z"/>
		<path class="st1" d="M529.33,275.38c1.84,0,3.61,0,5.39,0c0.02,0.16,0.04,0.32,0.06,0.48c-0.57,0.18-1.13,0.45-1.72,0.51
			c-1.29,0.13-2.59,0.22-3.89,0.21c-0.48,0-1.11-0.22-1.37-0.56c-0.17-0.22,0.1-0.91,0.33-1.3c0.82-1.39,1.78-2.7,2.52-4.13
			c0.27-0.52,0.32-1.61,0-1.87c-0.41-0.34-1.29-0.11-1.97-0.12c-0.41-0.01-0.81,0-1.22,0c0.31-0.37,0.61-1.06,0.93-1.07
			c1.08-0.01,2.39-0.11,3.15,0.46c0.51,0.39,0.55,1.94,0.24,2.77C531.19,272.34,530.2,273.78,529.33,275.38z"/>
		<path class="st1" d="M572.12,366.38c-6.19,0-11.94,0-17.92,0C555.34,365.16,570.72,365.04,572.12,366.38z"/>
		<path class="st1" d="M642.5,224.55c-0.34,0.52-0.76,1.32-1.33,1.99c-0.3,0.36-0.87,0.49-1.31,0.72c-0.19-0.36-0.44-0.69-0.54-1.07
			c-0.3-1.13-0.53-2.28-0.79-3.43c0.21-0.08,0.42-0.15,0.63-0.23c0.45,0.92,0.9,1.84,1.42,2.88c0.36-0.58,0.65-1.21,1.1-1.69
			c0.36-0.4,0.96-0.95,1.35-0.88c0.4,0.07,0.73,0.79,1,1.28c0.19,0.35,0.22,0.78,0.32,1.16c1.3-0.37,1.44-3.11,3.3-1.55
			c0.65,0.55,1.17,1.9-0.14,3.15c-0.26-0.92-0.43-1.56-0.63-2.25c-0.8,0.66-1.52,1.66-2.39,1.82
			C643.96,226.54,643.21,225.28,642.5,224.55z"/>
		<path class="st1" d="M563.11,313.73c-0.6,0.27-0.99,0.59-1.36,0.58c-4.93-0.07-9.86-0.18-14.8-0.3c-0.25-0.01-0.5-0.12-1.19-0.31
			c0.57-0.4,0.85-0.76,1.12-0.76c5.2,0.07,10.4,0.19,15.6,0.3C562.57,313.25,562.66,313.37,563.11,313.73z"/>
		<path class="st1" d="M436.42,371.37c-0.71,0.25-1.12,0.51-1.52,0.51c-5.58-0.04-11.16-0.11-16.74-0.2
			c-0.53-0.01-1.07-0.17-1.82-0.29C417.79,370.24,433.99,370.25,436.42,371.37z"/>
		<path class="st1" d="M398.55,221.04c5.62-0.26,11.24-0.52,16.87-0.78c0.07,0.15,0.14,0.29,0.2,0.44c-0.47,0.22-0.93,0.62-1.4,0.65
			c-4.81,0.25-9.62,0.46-14.43,0.64c-0.44,0.02-0.89-0.22-1.33-0.34C398.49,221.44,398.52,221.24,398.55,221.04z"/>
		<path class="st1" d="M437.79,331.69c-1.03,1.55-1.93,2.9-2.83,4.25c-0.22-0.05-0.43-0.1-0.64-0.16c-0.33-2.47-0.67-4.95-1.03-7.61
			c1.17,0.5,1.17,0.5,1.92,5.43c0.56-0.95,0.96-1.75,1.49-2.43c0.3-0.39,0.88-0.85,1.27-0.8c0.37,0.05,0.8,0.68,0.96,1.14
			c0.44,1.26,0.77,2.56,1.1,3.86c0.05,0.2-0.1,0.46-0.16,0.72C438.66,335.35,438.66,335.35,437.79,331.69z"/>
		<path class="st1" d="M444.91,211.07c-0.04,0.43-0.03,0.87-0.14,1.28c-0.36,1.33-1.03,2.53-2.58,2.45
			c-1.57-0.08-1.93-1.39-1.99-2.7c-0.05-1.18-0.08-2.39,0.12-3.54c0.11-0.65,0.61-1.54,1.13-1.71c0.56-0.19,1.66,0.11,2,0.57
			c0.77,1.03,1.21,2.3,1.78,3.47C445.13,210.95,445.02,211.01,444.91,211.07z M441.31,207.75c0,1.72-0.05,3.21,0.04,4.7
			c0.02,0.41,0.41,0.88,0.76,1.14c0.16,0.12,0.73-0.11,0.98-0.34C444.57,211.91,443.77,208.56,441.31,207.75z"/>
		<path class="st1" d="M493.09,307.08c0.02-0.29-0.03-0.54,0.05-0.59c2.97-1.97,2.45-4.79,1.45-7.39c-0.84-2.18-2.31-4.11-3.49-6.16
			c-0.16-0.28-0.29-0.59-0.16-1.2c0.38,0.19,0.88,0.28,1.13,0.58c2.67,3.09,4.42,6.59,4.24,10.77c-0.07,1.57-0.44,3.17-2.14,3.91
			C493.88,307.14,493.48,307.06,493.09,307.08z"/>
		<path class="st1" d="M472.49,265.35c-5.97,0-11.9,0-18.25,0C455.87,263.76,471.59,264.16,472.49,265.35z"/>
		<path class="st1" d="M223.68,316.02c0.37-0.26,0.74-0.73,1.12-0.74c4.27-0.05,8.54-0.04,12.81-0.02c0.16,0,0.33,0.23,0.73,0.53
			c-0.5,0.26-0.82,0.45-1.16,0.59c-0.14,0.06-0.32,0.01-0.48,0.01c-4.25,0-8.51,0-12.77,0
			C223.84,316.27,223.76,316.14,223.68,316.02z"/>
		<path class="st1" d="M231.71,221.75c-5.25,0-10.35,0-15.44,0c-0.05-0.17-0.1-0.35-0.15-0.52c0.34-0.19,0.65-0.5,1-0.55
			C223.42,219.87,230.58,220.35,231.71,221.75z"/>
		<path class="st1" d="M225.6,370.63c0.6-0.46,0.99-1.01,1.38-1.01c4.86-0.04,9.73,0,14.6,0.04c0.28,0,0.56,0.22,0.84,0.33
			c-0.11,0.21-0.22,0.43-0.33,0.64C236.77,370.63,231.44,370.63,225.6,370.63z"/>
		<path class="st1" d="M599.07,262.46c-5.64,0-10.89,0-16.36,0C584.65,260.69,597.51,260.5,599.07,262.46z"/>
		<path class="st1" d="M480.4,291.9c-2.35,4.75-3.41,9.33,1.73,13.11c-0.09,0.14-0.18,0.28-0.27,0.43c-0.49-0.16-1.07-0.2-1.47-0.49
			c-2.93-2.12-3.29-5.19-2.84-8.42c0.19-1.35,0.84-2.65,1.39-3.92c0.17-0.4,0.68-0.67,1.03-1
			C480.11,291.71,480.26,291.8,480.4,291.9z"/>
		<path class="st1" d="M392.29,264.69c-4.9,0-9.79,0-15,0c0.26-0.29,0.58-0.96,0.92-0.98c4.26-0.17,8.53-0.25,12.8-0.3
			c0.46-0.01,0.92,0.37,1.39,0.57C392.36,264.22,392.32,264.46,392.29,264.69z"/>
		<path class="st1" d="M610.1,255.8c1.33,2.2,1.73,13.63,0.39,14.56c-0.32-4.75-0.64-9.4-0.92-14.06
			C609.56,256.15,609.91,255.98,610.1,255.8z"/>
		<path class="st1" d="M411.33,313.94c-5.25,0-10.32,0-15.57,0C396.74,312.45,409.86,312.56,411.33,313.94z"/>
		<path class="st1" d="M416.46,224.49c-4.85,0.19-9.7,0.38-14.79,0.58C402.49,223.72,415.42,223.08,416.46,224.49z"/>
		<path class="st1" d="M502.74,206.2c-0.45,0.83-0.89,1.67-1.34,2.51c-1.22-0.79,0.18-3.78,2.19-4.83
			c0.98,2.03,1.14,8.96-0.13,10.18c-0.15-2.79-0.28-5.27-0.41-7.75C502.96,206.27,502.85,206.23,502.74,206.2z"/>
		<path class="st1" d="M411.18,369.84c-4.76,0-9.51,0-14.26,0C398.94,367.93,410.17,368.36,411.18,369.84z"/>
		<path class="st1" d="M603.4,254.67c2.6-1.46,13.16-0.96,14.4,0.63c-4.79,0-9.61,0-14.43,0
			C603.38,255.09,603.39,254.87,603.4,254.67z"/>
		<path class="st1" d="M602.55,348.7c0.1,0.45,0.25,0.9,0.29,1.35c0.29,3.51,0.55,7.03,0.82,10.55c0.02,0.32,0.08,0.69-0.05,0.96
			c-0.11,0.23-0.52,0.54-0.67,0.48c-0.29-0.11-0.69-0.45-0.71-0.71c-0.21-3.64-0.37-7.29-0.51-10.94c-0.02-0.57,0.15-1.15,0.23-1.73
			C602.15,348.67,602.35,348.69,602.55,348.7z"/>
		<path class="st1" d="M379.69,268.78c1.24-1.4,11.62-1.49,13.35-0.31c-0.85,0.17-1.41,0.37-1.97,0.37
			c-2.93-0.03-5.86-0.12-8.79-0.17C381.41,268.66,380.55,268.75,379.69,268.78z"/>
		<path class="st1" d="M558,369.49c4.7,0,9.41,0,14.11,0c0.03,0.16,0.06,0.31,0.08,0.47c-0.34,0.12-0.68,0.35-1.02,0.36
			c-3.79,0.1-7.57,0.2-11.35,0.23c-0.66,0-1.32-0.36-1.98-0.55C557.88,369.83,557.94,369.66,558,369.49z"/>
		<path class="st1" d="M455.73,330.59c-0.61,0.96-1.07,1.75-1.61,2.49c-0.14,0.19-0.53,0.19-0.81,0.28
			c-0.07-0.23-0.26-0.53-0.18-0.68c0.92-1.62,1.88-3.21,2.88-4.9c1.04,1.27,1.71,7.58,0.79,9.11
			C456.41,334.57,456.08,332.68,455.73,330.59z"/>
		<path class="st1" d="M471.81,268.43c-4.84,0.31-9.65,0.38-14.46-0.01C458.49,267.34,470.7,267.35,471.81,268.43z"/>
		<path class="st1" d="M548.64,263.21c-4.28-0.36-8.55-0.71-12.83-1.07c0.02-0.24,0.04-0.49,0.06-0.73
			c4.32-0.46,8.56,0.37,12.82,0.89C548.66,262.61,548.65,262.91,548.64,263.21z"/>
		<path class="st1" d="M585.22,321.6c-0.65-3.55-0.47-7.11-0.35-10.96C586.11,311.7,586.31,319.97,585.22,321.6z"/>
		<path class="st1" d="M489.88,313.2c-0.62,0.2-1.24,0.4-1.94,0.62c-0.37-1.39,0.56-1.55,1.48-1.65c1.07-0.11,1.95,0.28,1.73,1.5
			c-0.21,1.19-0.74,2.32-1.2,3.66c1.32-0.11,2.56-0.23,4.19-0.37c-1.2,1.35-4.1,1.97-4.86,1.21c-0.35-0.35-0.39-1.25-0.24-1.81
			c0.25-0.96,0.77-1.86,1.17-2.79C490.11,313.45,490,313.33,489.88,313.2z"/>
		<path class="st1" d="M570.17,274.42c-2.27-1.57-1.22-3.97-1.71-5.96c-1.04,0.93-1.99,1.77-2.93,2.61
			c-0.2-0.21-0.39-0.41-0.59-0.61c1.13-1.25,2.23-2.53,3.42-3.73c0.11-0.11,0.89,0.17,1.07,0.45c0.24,0.37,0.23,0.93,0.27,1.41
			C569.86,270.43,570,272.28,570.17,274.42z"/>
		<path class="st1" d="M598.42,265.61c-0.9,0.8-11.11,1.11-13.31,0.37c0.49-0.3,0.78-0.62,1.09-0.63c3.78-0.06,7.57-0.08,11.36-0.08
			C597.83,265.26,598.1,265.47,598.42,265.61z"/>
		<path class="st1" d="M544.39,206.7c0.14,2.66,0.27,5.33,0.41,7.99c-0.31,0.03-0.62,0.06-0.94,0.08c-0.18-1.95-0.37-3.9-0.54-5.75
			c-0.64,0.25-1.17,0.45-1.7,0.66c0.2-0.55,0.3-1.17,0.62-1.64c0.42-0.61,1.02-1.11,1.55-1.65
			C543.99,206.5,544.19,206.6,544.39,206.7z"/>
		<path class="st1" d="M523.15,332.71c2.54-2.7,2.09-5.75,0.63-8.91c0.36-0.21,0.72-0.42,1.09-0.62c0.1,0.43,0.11,0.91,0.31,1.29
			c1.39,2.64,1.15,5.25-0.18,7.78c-0.25,0.48-1.01,0.68-1.53,1.01C523.36,333.07,523.26,332.89,523.15,332.71z"/>
		<path class="st1" d="M449.56,331.6c-2.92,0-5.47,0-8.24,0C442.26,330.42,448.08,330.44,449.56,331.6z"/>
		<path class="st1" d="M451.06,335.02c-2.89-0.24-5.34-0.45-8.12-0.68C444.41,333.03,449.59,333.44,451.06,335.02z"/>
		<path class="st1" d="M539.69,210.15c-2.29,0.22-4.18,0.4-6.18,0.59C534.08,209.26,537.83,208.8,539.69,210.15z"/>
		<path class="st1" d="M585.3,303.03c0.51,1.02,0.89,1.75,1.22,2.51c0.02,0.06-0.36,0.29-0.55,0.44c-0.42-0.65-0.88-1.28-1.24-1.97
			C584.66,303.89,584.97,303.56,585.3,303.03z"/>
	</g>
</g>
</svg>
