<?xml version="1.0" encoding="utf-8"?>
<!-- Generator: Adobe Illustrator 24.1.1, SVG Export Plug-In . SVG Version: 6.00 Build 0)  -->
<svg version="1.1" id="Слой_1" xmlns="http://www.w3.org/2000/svg" xmlns:xlink="http://www.w3.org/1999/xlink" x="0px" y="0px"
	 viewBox="0 0 841.89 595.28" style="enable-background:new 0 0 841.89 595.28;" xml:space="preserve">
<style type="text/css">
	.st0{fill:#1F264A;}
</style>
<g>
	<path class="st0" d="M191.69,402.53c0-2.02-0.07-4.03,0.01-6.05c0.3-7.42,0.69-14.84,0.97-22.27c0.14-3.65,0.12-7.31,0.14-10.97
		c0-0.82-2.21-1.65-3.79-1.54c-8.57,0.59-17.15,1.16-25.72,1.74c0-0.23,0-0.46,0-0.68c3.07-0.16,6.15-0.25,9.2-0.48
		c5.73-0.43,11.44-0.95,17.11-1.43c0.7-3.95,0.7-3.95,3.34-4.33c0-3.69,0-7.41,0-11.19c-0.7-0.05-1.51-0.11-2.32-0.17
		c-0.02-0.11-0.04-0.21-0.06-0.32c0.83-0.13,1.65-0.26,2.63-0.42c0-1.14,0-2.29,0-3.7c-3.07,0.5-5.97,0.98-8.87,1.45
		c2.5-1.54,5.8-1.87,9.24-2.38c0-1.35,0-2.71,0-4.07c0.01-2.97,0-5.94,0.04-8.9c0.02-0.92,0.05-1.72-1.37-2.41
		c-1.01-0.5-1.54-1.36-2.36-2.13c-8.92,0.36-17.82,1-26.58,2.32c0-0.38,0-0.76,0-1.14c6.95-0.69,13.89-1.41,20.86-2.05
		c2.45-0.22,4.99-0.15,7.43-0.4c0.77-0.08,1.94-0.78,1.96-1.21c0.15-4.15,0.09-8.3,0.09-12.42c-3.98-0.82-4.6-1.68-3.35-3.98
		c-4.41-2.24-8.72-4.39-12.94-6.6c-1.28-0.67-2.38-1.47-3.47-2.26c-0.28-0.2-0.19-0.59-0.26-0.89c0.52,0.02,1.15-0.06,1.53,0.09
		c0.62,0.24,1.09,0.62,1.59,0.96c4.29,2.94,9.2,5.42,14.84,7.36c0.52,0.18,1.12,0.27,1.96,0.46c0-8.97,0-17.76,0-26.56
		c0.19-0.01,0.39-0.02,0.58-0.03c0.11,0.41,0.3,0.83,0.3,1.24c0.11,5.41,0.18,10.81,0.31,16.22c0.07,2.89,0.25,5.79,0.38,8.68
		c0.05,1.07,1.2,1.76,2.56,2.19c5.02,1.58,10.15,3.03,15.19,4.6c2.12,0.66,4.12,1.46,6.13,2.25c7.25,2.83,14.51,5.65,21.7,8.53
		c3.2,1.28,6.34,2.62,9.32,4.08c1.83,0.9,3.29,2.08,4.93,3.12c0.29,0.18,0.67,0.41,1.04,0.44c1.8,0.14,1.81,0.11,2.87,0.86
		c-0.73,0.05-1.37,0.1-2.35,0.17c0.59,0.39,0.97,0.71,1.46,0.95c4.73,2.33,9.32,4.79,14.28,6.94c5.31,2.3,9.31,5.32,13.74,8.13
		c7.87,4.99,15.98,9.85,24.03,14.73c0.46,0.28,1.32,0.45,2,0.45c25.11,0,50.22-0.02,75.33-0.05c0.69,0,1.38-0.13,2.06-0.09
		c0.49,0.02,0.95,0.22,1.42,0.34c-0.39,0.26-0.71,0.64-1.18,0.74c-0.69,0.14-1.49,0.08-2.25,0.08c-24.1-0.01-48.2-0.03-72.3-0.05
		c-0.75,0-1.51,0-2.69,0c2.16,1.45,4.05,2.77,6.05,4.04c1.74,1.1,3.6,2.13,5.39,3.2c0.4,0.24,0.92,0.46,1.12,0.76
		c0.22,0.34,0.15,0.74,0.2,1.13c-0.53-0.12-1.2-0.15-1.56-0.37c-4.31-2.67-8.54-5.39-12.88-8.05c-0.62-0.38-1.69-0.69-2.56-0.69
		c-24.48-0.09-48.96-0.24-73.43-0.14c-12.42,0.05-24.83,0.55-37.24,0.85c-1.58,0.04-2.74,0.73-2.76,1.62
		c-0.35,12.68-0.69,25.36-1.01,38.03c-0.02,0.56,0.16,1.13,0.25,1.69C193.21,402.53,192.45,402.53,191.69,402.53z M197.44,360.37
		c36.56-1.59,73.4-0.6,110.41-1.14c-2.79-1.87-5.88-3.5-8.7-5.29c-6.4-4.05-12.75-8.12-18.96-12.27c-4.15-2.78-9.07-4.93-14.43-7.19
		c1.88,1.48,3.66,2.67,5.07,4.01c6.17,5.86,10.85,12.18,15.26,18.57c0.21,0.3,0.57,0.57,0.74,0.89c0.15,0.28,0.12,0.6,0.17,0.9
		c-0.62-0.02-1.3,0.03-1.86-0.1c-0.28-0.06-0.37-0.45-0.53-0.7c-3.88-5.99-8.45-11.79-13.75-17.37c-4.16-4.37-10.33-7.74-16.1-11.3
		c-0.07-0.04-0.23-0.03-0.72-0.07c-10.67,4.89-21.53,9.88-32.14,14.75c0.62,0.64,1.01,1.04,1.66,1.7c-1.39-0.39-2.19-0.61-3.01-0.84
		c-1.24,0.65-2.42,1.27-3.66,1.92c0.62,0.43,1.14,0.8,1.75,1.23c-1.68,0.78-1.79-0.63-3.04-0.65c-6.62,3.3-13.92,6.3-19.77,9.85
		C196.42,358.41,196.87,359.29,197.44,360.37z M194.88,345.26c0,3.69,0,7.3,0,10.91c0.15,0.07,0.3,0.14,0.45,0.21
		c6.58-3.23,13.17-6.46,19.82-9.73c-1.28-1.07-2.52-2.11-3.76-3.14c0.18-0.09,0.37-0.17,0.55-0.26c1.34,0.96,2.68,1.93,4.11,2.95
		c1.39-0.72,2.67-1.38,4.01-2.07c-0.81-0.77-1.57-1.49-2.33-2.2c0.19-0.08,0.37-0.15,0.56-0.23c0.92,0.62,1.84,1.24,2.62,1.77
		c10.86-5,21.66-9.96,32.59-14.99c-1.17-0.66-2.18-1.36-3.39-1.88c-6.23-2.71-13.61-3.77-20.92-4.15
		c-10.02-0.52-20.15-0.23-30.24-0.27c-0.23,0-0.46,0.07-0.68,0.11c-0.19,1.21-0.6,2.3-2.67,2.84c-0.29,0.08-0.46,0.51-0.46,0.78
		c-0.06,4.42-0.09,8.83-0.07,13.24c0,0.27,0.45,0.67,0.87,0.79c1.48,0.42,1.61,0.93,0.7,1.64c-0.45-0.26-0.86-0.48-1.64-0.92
		c0,1.46,0,2.61,0,3.72c1.88,0.39,3.99-0.63,6,0.52C198.78,345.02,196.93,345.13,194.88,345.26z M196.65,305.59
		c-1.59,0.8-1.59,2.05-1.56,3.36c0.09,3.23,0.05,6.47,0.05,9.7c0,1.53,1.32,2.33,3.95,2.33c4.85,0,9.71-0.1,14.55,0
		c6.72,0.14,13.51,0.11,20.12,0.74c5.61,0.53,11.25,1.46,16.36,3.21c-1.35-0.76-2.66-1.56-4.21-2.1
		C229.49,317.1,214.59,309.8,196.65,305.59z"/>
	<path class="st0" d="M446.85,402.53c-1.09-3.92,1.05-7.51,3.2-11.08c0.78-1.3,1.02-2.54,0.51-3.88c-0.38-0.99-0.64-1.99-1.02-3.21
		c-0.51,0.82-0.72,1.5-1.32,2.01c-0.53,0.45-1.54,1.01-2.27,0.97c-0.72-0.03-1.74-0.68-1.96-1.18c-0.53-1.2-0.85-2.45-0.95-3.7
		c-0.11-1.44,0.02-2.89,0.24-4.32c0.07-0.42,0.79-0.8,1.21-1.21c0.18,0.44,0.5,0.87,0.53,1.32c0.16,2.2,0.22,4.39,0.37,6.59
		c0.03,0.39,0.32,0.77,0.5,1.16c0.22,0.02,0.44,0.03,0.65,0.05c0.36-0.87,0.84-1.73,1.06-2.62c0.34-1.43,0.45-2.88,0.78-4.31
		c0.08-0.33,0.64-0.63,0.99-0.94c0.35,0.3,0.93,0.59,1.01,0.91c0.67,2.62,1.23,5.26,2.31,7.96c0.59-0.85,1.18-1.71,1.77-2.56
		c0.14,0.03,0.27,0.05,0.41,0.08c-0.38,0.88-0.69,1.77-1.15,2.64c-0.6,1.1-0.74,2.16-0.44,3.34c1.01,3.99,1.47,8-0.33,11.98
		c-0.76,0-1.52,0-2.27,0c2.3-3.44,1.49-6.98,0.88-10.53c-0.95,1.81-1.84,3.62-2.5,5.47c-0.6,1.68-0.93,3.38,0.11,5.07
		C448.37,402.53,447.61,402.53,446.85,402.53z"/>
	<path class="st0" d="M371.89,402.53c0.12-1.06,0.31-2.12,0.32-3.18c0-0.3-0.53-0.59-0.82-0.89c-0.44,0.26-1.12,0.49-1.26,0.8
		c-0.44,1-0.88,1.98-2.92,2.08c-1.45,0.07-2.65-0.84-3.07-2.27c-0.17-0.59-0.17-1.21-0.14-1.81c0.03-0.56,0.2-1.11,0.32-1.73
		c-1.76-0.06-3.37-0.12-4.98-0.18c0-0.16-0.01-0.31-0.01-0.47c0.73-0.07,1.47-0.22,2.19-0.19c2.48,0.12,3.76-0.46,4.5-1.97
		c1.17-2.38,1.37-2.5-0.2-5.18c-0.32,0.83-0.43,1.54-0.89,2.15c-0.29,0.39-1.06,0.82-1.7,0.87c-0.47,0.04-1.34-0.45-1.55-0.81
		c-0.43-0.74-0.67-1.54-0.76-2.32c-0.2-1.66-0.3-3.33-0.37-5c-0.01-0.3,0.3-0.6,0.47-0.89c0.41,0.23,1.13,0.43,1.18,0.68
		c0.29,1.39,0.42,2.8,0.59,4.19c0.09,0.74,0.13,1.49,0.2,2.24c0.17,0,0.34,0,0.5,0.01c0.24-1.35,0.43-2.7,0.75-4.04
		c0.1-0.43,0.53-0.83,0.81-1.25c0.5,0.35,1.29,0.65,1.45,1.04c1.23,3.02,2.46,6.04,3.41,9.1c0.29,0.93,0.85,1.21,2.23,1.26
		c0.71,0.03,1.4,0.24,2.09,0.37c-0.03,0.15-0.06,0.29-0.09,0.44c-1.18,0.05-2.36,0.09-3.65,0.14c0,0.7,0,1.41,0,2.12
		c2.97,0.01,3.19,0.25,3.3,3.7c0.41,0.02,0.82,0.03,1.42,0.05c-0.54,0.36-0.98,0.65-1.43,0.95
		C373.15,402.53,372.53,402.53,371.89,402.53z M368.45,395.69c-2.44-0.29-2.55-0.24-2.6,1.04c-0.03,0.64-0.12,1.31,0.07,1.93
		c0.16,0.53,0.67,1.03,1.03,1.54C368.79,398.74,368.39,397.22,368.45,395.69z M368.23,394.47c-0.22-0.94-0.41-1.74-0.6-2.54
		c-0.08,0-0.17,0-0.25,0c-0.31,0.82-0.63,1.65-0.96,2.54C367.06,394.47,367.53,394.47,368.23,394.47z"/>
	<path class="st0" d="M508.94,193.39c1.2,3.3,2.6,6.58,3.52,9.91c0.59,2.15,0.66,4.38,0.61,6.57c-0.03,1.42-1.62,2.27-3.47,2.27
		c-1.99,0-3.61-0.94-4.09-2.27c-0.74-2.06,0.06-4.01,1.13-5.92c0.62-1.11,1.62-2.13,2.34-3.23c0.26-0.39,0.41-0.88,0.28-1.28
		c-0.58-1.79-1.28-3.56-2.06-5.69c-0.36,0.71-0.47,1.13-0.79,1.48c-0.2,0.23-0.67,0.46-1.07,0.5c-0.28,0.03-0.8-0.23-0.94-0.43
		c-0.45-0.61-0.78-1.26-1.15-1.9C505.15,193.39,507.04,193.39,508.94,193.39z M509.6,201.1c-1.89,2.71-3.23,5.49-2.25,8.48
		c0.25,0.76,0.92,1.52,2.31,1.31c0.69-0.11,1.45-0.91,1.55-1.44C511.73,206.63,510.88,203.87,509.6,201.1z"/>
	<path class="st0" d="M368.87,193.39c0.82,3.15,1.69,6.29,2.44,9.44c0.52,2.18,0.99,4.37,1.26,6.56c0.1,0.84-0.31,1.73-0.67,2.56
		c-0.44,1-1.56,1.66-3.34,1.74c-1.68,0.07-3.79-0.77-4.09-1.84c-0.32-1.17-0.45-2.42-0.09-3.58c0.48-1.57,1.48-3.08,2.26-4.62
		c0.22,0.02,0.43,0.05,0.65,0.07c-0.05,0.29-0.06,0.58-0.15,0.87c-0.48,1.45-1.14,2.89-1.4,4.35c-0.15,0.87,0.13,1.83,0.62,2.65
		c0.25,0.41,1.39,0.78,2.19,0.85c0.45,0.04,1.47-0.59,1.5-0.93c0.17-1.84,0.45-3.71,0.07-5.52c-0.85-3.95-2.07-7.87-3.13-11.81
		c-0.07-0.26-0.02-0.53-0.02-0.79C367.6,193.39,368.23,193.39,368.87,193.39z"/>
	<path class="st0" d="M232.96,193.39c2.22,4.11,4.51,8.22,4.31,12.63c-0.03,0.79-0.18,1.59-0.51,2.35c-0.35,0.8-1.14,1.45-2.7,1.52
		c-1.65,0.08-2.94-0.28-3.79-1.17c-1.74-1.84-1.69-3.82-0.81-5.74c0.76-1.67,2.09-3.24,3.04-4.88c0.32-0.55,0.47-1.21,0.31-1.78
		c-0.29-1-0.89-1.96-1.36-2.93C231.95,193.39,232.45,193.39,232.96,193.39z M233.18,197.98c-0.76,1.83-1.81,3.63-2.19,5.48
		c-0.28,1.38,0.17,2.84,0.63,4.23c0.14,0.42,1.39,0.7,2.13,1.04c0.49-0.44,1.29-0.85,1.42-1.32
		C236.05,204.2,234.84,201.11,233.18,197.98z"/>
	<path class="st0" d="M679.3,214.42c-2.05,0.17-2.62-0.07-2.64-1.21c-0.14-6.61-0.26-13.21-0.39-19.82c0.5,0,1.01,0,1.51,0
		c0.02,0.11,0.04,0.23,0.04,0.34c0.12,6.39,0.24,12.78,0.37,19.17c0.01,0.44-0.19,1,1.1,0.83
		C679.3,213.96,679.3,214.19,679.3,214.42z"/>
	<path class="st0" d="M553.99,193.39c-0.32,0.84-0.63,1.68-1,2.67c2.78,0,5.24,0,7.79,0c-2.14,1.37-4.9,1.12-7.75,0.94
		c-0.17,1.16,0.36,2.06,1.95,2.65c2.25,0.85,5.29,0.64,7.52-0.47c0.48,1.14-0.21,1.91-2.01,1.99c-1.56,0.07-3.17,0.08-4.7-0.09
		c-3.41-0.38-5.36-2.46-4.73-4.87c0.24-0.94,0.45-1.88,0.67-2.82C552.47,193.39,553.23,193.39,553.99,193.39z"/>
	<path class="st0" d="M481.68,193.39c0,1.22,0,2.44,0,3.67c0.95,0,2.14-0.05,3.31,0.01c2.06,0.11,3.06,0.87,2.33,2.02
		c-0.61,0.96-1.65,1.84-2.67,2.68c-0.27,0.22-1.19,0.16-1.81,0.23c-0.11-0.43-0.41-0.88-0.27-1.27c0.08-0.21,0.91-0.33,1.41-0.48
		c0.25-0.08,0.66-0.08,0.75-0.19c0.45-0.53,0.82-1.08,1.45-1.96c-1.68,0.05-2.94,0.07-4.19,0.11c-2.48,0.08-3.08-0.36-2.43-1.81
		c0.32-0.72,0.65-1.44,1.07-2.39c-1.29,0.13-2.26,0.23-3.8,0.39c0.71-0.5,1.07-0.75,1.43-1.01
		C479.41,193.39,480.54,193.39,481.68,193.39z"/>
	<path class="st0" d="M425.27,193.39c0.28,2.86,2.64,4.29,7.42,4.31c2.12,0.01,4.25-0.24,6.28-0.37c-0.23,1.06-2.79,1.67-7.42,1.51
		c-4.84-0.16-8.05-2.3-8.17-5.45C424.01,193.39,424.64,193.39,425.27,193.39z"/>
	<path class="st0" d="M313.59,193.39c1.03,3.52,1.57,7.16,6.81,9.59c-1.24,0.6-2.9,0.43-3.97-0.72c-1.28-1.38-2.39-2.84-3.25-4.33
		c-0.84-1.47-1.26-3.02-1.86-4.53C312.08,193.39,312.84,193.39,313.59,193.39z"/>
	<path class="st0" d="M452.15,193.39c0.61,2.05,1.73,3.98,4.17,5.51c1.11,0.69,2.45,1.24,3.78,1.9c0.6-0.46,0.98-0.76,1.36-1.05
		c0.14,0.02,0.28,0.03,0.42,0.05c-0.23,0.52-0.22,1.2-0.77,1.51c-0.44,0.26-1.69,0.25-2.37,0.08c-4.33-1.15-6.36-3.44-7.72-6
		c-0.34-0.65-0.51-1.33-0.76-2C450.89,193.39,451.52,193.39,452.15,193.39z"/>
	<path class="st0" d="M603.58,193.39c-0.29,1.58,0.25,2.13,2.87,2.32c3.19,0.23,6.41,0.27,9.62,0.41c0.73,0.03,1.45,0.14,2.16,0.35
		c-4.56,0.35-9.09,1.02-13.67,0.17c-2.64-0.49-3.16-1.8-3.24-3.25C602.07,193.39,602.82,193.39,603.58,193.39z"/>
	<path class="st0" d="M383.63,193.39c-0.11,1.06-0.12,2.12-0.35,3.17c-0.22,1.01-0.66,1.99-1.01,2.99c0.13,0.09,0.27,0.19,0.4,0.28
		c1.95-0.8,3.9-1.6,5.69-2.33c-0.38,1.16-3.82,3.19-5.94,3.39c-1.45,0.13-2.39-0.45-2.08-1.39c0.45-1.33,1.14-2.64,1.52-3.98
		c0.19-0.68-0.08-1.41-0.13-2.12C382.37,193.39,383,193.39,383.63,193.39z"/>
	<path class="st0" d="M584.27,193.39c-0.02,0.76,0.05,1.52-0.08,2.27c-0.18,1.05-1.37,1.59-2.99,1.79
		c-1.94,0.24-3.81,0.02-4.85-1.03c-0.9-0.92-1.3-2.01-1.93-3.03c0.63,0,1.26,0,1.89,0c0.42,0.71,0.58,1.54,1.33,2.08
		c0.65,0.46,1.93,0.75,2.98,0.82c1.31,0.08,1.88-0.59,2.06-1.33c0.13-0.52,0.29-1.04,0.44-1.56
		C583.52,193.39,583.9,193.39,584.27,193.39z"/>
	<path class="st0" d="M471.84,193.39c0.4,0.72,0.72,1.46,1.22,2.15c0.48,0.68,1.14,1.31,1.79,2.03c-0.95,0.63-2.21,0.49-2.92-0.57
		c-0.52-0.79-0.92-1.61-1.37-2.41c-0.2,0-0.4,0-0.61-0.01c-0.31,0.96-0.61,1.93-0.94,2.89c-0.05,0.16-0.2,0.4-0.39,0.43
		c-0.21,0.04-0.71-0.09-0.74-0.19c-0.17-0.56-0.45-1.16-0.3-1.71c0.25-0.88,0.8-1.74,1.22-2.61
		C469.82,193.39,470.83,193.39,471.84,193.39z"/>
	<path class="st0" d="M521.43,193.39c-0.09,0.86-0.18,1.73-0.29,2.73c0.88,0,1.75-0.12,2.47,0.03c1,0.2,2.36,0.49,2.68,0.96
		c0.38,0.55,0.14,1.49-0.45,1.98c-0.67,0.55-2,0.85-3.12,1.14c-0.3,0.08-0.89-0.25-1.35-0.39c0.29-0.22,0.57-0.46,0.9-0.67
		c0.11-0.07,0.36-0.06,0.53-0.1c1.28-0.29,2.77-0.62,2.35-1.61c-0.38-0.92-1.93-0.64-3.06-0.57c-2.61,0.15-3.01-0.13-2.46-1.7
		c0.2-0.59,0.18-1.2,0.27-1.8C520.42,193.39,520.93,193.39,521.43,193.39z"/>
	<path class="st0" d="M536.57,193.39c1.02,2.24,1.32,4.44-1.45,6.35c-1.47,1.01-3.39,1.29-5.61,1.08c0.09-0.14,0.12-0.26,0.18-0.26
		c5.81-0.59,6.17-3.64,5.31-6.18c-0.11-0.33-0.21-0.66-0.32-0.99C535.31,193.39,535.94,193.39,536.57,193.39z"/>
	<path class="st0" d="M343.5,193.39c-0.85,2.05-1.71,4.1-2.67,6.41c1.62-0.1,2.94-0.18,4.17-0.26c-0.76,0.8-2.95,1.41-4.42,1.15
		c-1.28-0.22-1.64-0.82-1.37-1.52c0.31-0.81,0.82-1.59,1.2-2.39c0.54-1.13,1.04-2.26,1.57-3.39
		C342.49,193.39,343,193.39,343.5,193.39z"/>
	<path class="st0" d="M262.48,193.39c-0.12,2.45,0.19,4.93-1.07,7.28c-0.4-0.02-0.8-0.03-1.2-0.05c0-2.41,0-4.82,0-7.23
		C260.97,193.39,261.73,193.39,262.48,193.39z"/>
	<path class="st0" d="M395.74,193.39c-0.12,1.57,0.08,3.18-0.45,4.7c-0.56,1.63-2.56,2.69-5.47,3.01c0.63-0.31,1.3-0.6,1.87-0.95
		c2.33-1.42,2.51-3.23,2.38-5.08c-0.04-0.56-0.15-1.13-0.22-1.69C394.48,193.39,395.11,193.39,395.74,193.39z"/>
	<path class="st0" d="M247.34,193.39c0.39,1.75,0.77,3.5,1.16,5.25c-1.54-0.07-1.57-0.07-2.03-1.71c-0.22-0.76-0.3-1.54-0.47-2.43
		c-1.61,1.05-1.72,2.71-4.23,3.41c1.22-1.67,2.26-3.09,3.3-4.53C245.83,193.39,246.59,193.39,247.34,193.39z"/>
	<path class="st0" d="M329.12,193.39c0.56,1.09,1.18,2.16,1.64,3.26c0.14,0.32-0.16,0.72-0.25,1.08c-0.43-0.28-1-0.51-1.27-0.84
		c-0.44-0.53-0.69-1.12-1.32-1.68c-0.25,0.92-0.51,1.84-0.76,2.77c-0.23-0.01-0.46-0.02-0.69-0.03c0-1.52,0-3.04,0-4.56
		C327.35,193.39,328.23,193.39,329.12,193.39z"/>
	<path class="st0" d="M304.13,193.39c1.33,2.39-1.42,5.17-5.63,5.64c-0.34,0.04-0.75-0.14-1.12-0.21c0.18-0.21,0.29-0.49,0.58-0.62
		c1.13-0.53,2.43-0.95,3.47-1.54c2.24-1.25,2.2-2.06,0.05-3.27C302.36,193.39,303.25,193.39,304.13,193.39z"/>
	<path class="st0" d="M326.84,402.53c-0.08-0.83-0.19-1.65-0.24-2.48c-0.04-0.54-0.01-1.08-0.01-1.87
		c-1.09,0.42-1.73,0.66-2.65,1.01c0.28-1.01,1.18-1.52,2.38-1.44c0.62,0.04,1.46,0.68,1.62,1.13c0.33,0.95,0.28,1.94,0.4,3.08
		c1.23-0.3,2.24-0.55,3.24-0.79c0.08,0.05,0.15,0.09,0.22,0.14c-0.65,0.4-1.3,0.81-1.94,1.21
		C328.86,402.53,327.85,402.53,326.84,402.53z"/>
	<path class="st0" d="M679.3,259.68c-0.96,0.47-1.78,0.53-1.87-0.38c-0.13-1.25-0.32-2.51-0.1-3.74c0.17-0.92,0.95-1.8,1.44-2.7
		c0.21-0.39,0.36-0.79,0.54-1.18C679.3,254.35,679.3,257.01,679.3,259.68z"/>
	<path class="st0" d="M313.22,402.53c0.45-1,0.6-2.11,1.41-2.99c1.22-1.3,3.22-1.13,4.25,0.26c0.38,0.51,0.51,1.09,0.76,1.64
		c-0.19,0.04-0.38,0.07-0.56,0.11c-0.35-0.48-0.63-0.99-1.07-1.45c-0.75-0.77-1.54-0.8-2.11,0.03c-0.5,0.74-0.55,1.59-0.79,2.39
		C314.48,402.53,313.85,402.53,313.22,402.53z"/>
	<path class="st0" d="M163.3,249.62c2.83,0.36,5.65,0.72,8.62,1.09c0.02,0.74-1.06,0.88-2.14,0.81c-2.17-0.13-4.32-0.35-6.47-0.54
		C163.3,250.54,163.3,250.08,163.3,249.62z"/>
	<path class="st0" d="M176.55,193.39c0.21,0.39,0.31,0.83,0.65,1.17c1.04,1.04,2.24,1.11,3.78,0.28c0.14,0.05,0.28,0.11,0.42,0.16
		c-0.46,0.4-0.82,1.07-1.4,1.15c-0.99,0.14-2.51,0.14-3.1-0.22c-1.14-0.69-1.78-1.68-2.62-2.54
		C175.03,193.39,175.79,193.39,176.55,193.39z"/>
	<path class="st0" d="M163.3,279.79c0.19,0.22,0.39,0.44,0.58,0.67c1.66,0.13,3.41-1.17,5.25,0.14c-0.65,0.04-1.08,0.04-1.48,0.11
		c-2.87,0.48-3.32,0.91-3.5,2.72c-0.08,0.85-0.56,1.69-0.85,2.53C163.3,283.91,163.3,281.85,163.3,279.79z"/>
	<path class="st0" d="M290.88,193.39c0.34,1.47,0.73,2.93,0.99,4.4c0.06,0.35-0.27,0.73-0.42,1.1c-0.43-0.26-1.18-0.5-1.25-0.79
		c-0.37-1.56-0.57-3.13-0.83-4.7C289.87,193.39,290.38,193.39,290.88,193.39z"/>
	<path class="st0" d="M163.3,235.45c1.47-0.25,2.92-0.63,4.41-0.72c1.67-0.11,2.02,0.44,1.08,1.45c-2.15-0.82-3.8-0.03-5.49,0.65
		C163.3,236.36,163.3,235.91,163.3,235.45z"/>
	<path class="st0" d="M198.89,193.39c0,1.57,0,3.14,0,4.71c-0.36,0.02-0.72,0.03-1.08,0.05c-0.27-1.59-0.55-3.17-0.82-4.76
		C197.62,193.39,198.25,193.39,198.89,193.39z"/>
	<path class="st0" d="M653.17,193.39c-1.27,0.71-2.41,1.55-3.85,2.1c-0.81,0.31-2.11,0.16-3.47,0.24c1.83-0.92,3.25-1.63,4.66-2.33
		C651.41,193.39,652.29,193.39,653.17,193.39z"/>
	<path class="st0" d="M211,193.39c-0.09,1.59,1.28,3.16,0.2,4.78c-1.57-1.47-0.99-3.21-1.72-4.78
		C209.99,193.39,210.5,193.39,211,193.39z"/>
	<path class="st0" d="M362.43,402.53c-0.3-1.18-0.6-2.37-0.91-3.57c1.35,0.16,1.99,1.35,2.04,3.57
		C363.19,402.53,362.81,402.53,362.43,402.53z"/>
	<path class="st0" d="M366.22,193.39c-0.59,0.46-1.17,0.93-1.77,1.39c-0.67-0.46-1.35-0.93-2.02-1.39
		C363.69,193.39,364.95,193.39,366.22,193.39z"/>
	<path class="st0" d="M446.47,338.71c-0.63,0.65-0.97,1.21-1.61,1.58c-0.62,0.36-1.62,0.77-2.33,0.71c-0.68-0.06-1.6-0.67-1.74-1.12
		c-0.49-1.6-0.82-3.23-0.97-4.85c-0.12-1.25,0.09-2.51,0.24-3.76c0.04-0.31,0.4-0.61,0.61-0.91c0.19,0.02,0.39,0.03,0.58,0.05
		c0.33,3.13,0.65,6.26,0.98,9.4c0.24,0.01,0.48,0.02,0.72,0.02c1.51-0.95,1.96-2.18,2.34-3.43c0.15-0.49,0.14-1,0.41-1.46
		c0.17-0.29,0.7-0.5,1.08-0.74c0.28,0.25,0.72,0.49,0.81,0.77c0.97,2.97,1.88,5.95,2.82,8.93c0.21,0.02,0.41,0.05,0.62,0.07
		c1.06-0.87,2.13-1.75,3.19-2.62c0.13,0.04,0.26,0.09,0.4,0.13c-0.72,0.9-1.31,1.85-2.18,2.7c-0.87,0.85-0.78,1.65-0.51,2.58
		c0.64,2.24,1.07,4.5,1.53,6.76c0.09,0.45-0.02,0.91-0.1,1.36c-0.24,1.42-1.43,2.3-3.14,2.34c-1.58,0.04-3.32-1.01-3.77-2.23
		c-1.09-2.93,0.07-5.67,2.06-8.3c0.71-0.94,0.81-1.73,0.32-2.69C447.96,342.32,447.3,340.59,446.47,338.71z M449.79,347.35
		c-0.53,1.24-1.31,2.46-1.53,3.72c-0.22,1.3-0.01,2.64,0.26,3.95c0.08,0.36,1.05,0.66,1.6,0.99c0.43-0.37,1.18-0.73,1.23-1.12
		C451.72,352.34,451.34,349.83,449.79,347.35z"/>
	<path class="st0" d="M635.62,343.59c0.87-2.14,1.73-4.28,2.6-6.41c0.12-0.02,0.23-0.03,0.35-0.05c0.16,0.28,0.39,0.55,0.46,0.83
		c1.15,4.27,2.5,8.53,3.33,12.83c0.51,2.66,0.33,5.37,0.21,8.05c-0.04,0.95-0.61,2.09-2.52,2.3c-2.1,0.24-3.11-0.76-4-1.71
		c-1.42-1.54-1.91-3.22-1.79-4.95c0.2-2.97,1.05-5.86,3.73-8.49c-0.08,0.35-0.09,0.71-0.24,1.05c-1.21,2.81-2.07,5.65-1.59,8.57
		c0.27,1.67,0.94,3.27,3.74,4.69c0.45-1.15,1-2.05,1.13-2.98c0.55-3.71-0.65-7.35-1.62-10.99c-0.39-1.46-0.76-2.92-1.21-4.63
		c-0.55,0.89-0.87,1.62-1.46,2.26c-0.35,0.38-1.14,0.85-1.73,0.85c-0.62,0-1.56-0.44-1.8-0.81c-0.54-0.84-0.85-1.75-1.03-2.64
		c-0.53-2.6-0.86-5.2-0.14-7.8c0.2-0.02,0.4-0.05,0.6-0.07c0.15,0.45,0.36,0.9,0.44,1.35c0.41,2.49,0.77,4.99,1.19,7.48
		c0.07,0.4,0.34,0.79,0.52,1.19C635.06,343.53,635.34,343.56,635.62,343.59z"/>
	<path class="st0" d="M469.92,299.78c-0.14,0.31-0.18,0.67-0.46,0.92c-0.42,0.38-1,0.98-1.54,0.98c-0.79,0.01-1.97-0.29-2.32-0.67
		c-0.83-0.92-1.52-1.94-1.82-2.97c-0.48-1.63-0.59-3.29-0.86-4.94c0.28-0.04,0.56-0.08,0.83-0.13c0.19,0.29,0.46,0.58,0.55,0.89
		c0.53,1.71,0.95,3.43,1.56,5.14c0.22,0.6,0.86,1.14,1.31,1.7c0.23-0.01,0.45-0.02,0.68-0.03c0.3-1.12,0.63-2.24,0.89-3.37
		c0.11-0.49,0.01-1,0.18-1.48c0.13-0.36,0.53-0.69,0.81-1.03c0.32,0.32,0.82,0.63,0.94,0.98c0.43,1.3,0.79,2.62,1.07,3.94
		c1,4.74,2.14,9.49,2.84,14.25c0.28,1.89-0.37,3.85-0.76,5.76c-0.17,0.85-0.83,1.71-2.52,1.73c-1.79,0.02-2.55-0.89-2.74-1.74
		c-0.34-1.61-0.71-3.28-0.36-4.87c0.46-2.09,1.43-4.16,2.52-6.17c0.64-1.18,1.18-2.25,0.75-3.52c-0.59-1.77-0.89-3.57-1.31-5.36
		C470.11,299.79,470.02,299.78,469.92,299.78z M471.1,320.18c2.02-1.82,2.38-8.24,0.8-11.49C470.19,312.64,469,316.37,471.1,320.18z
		"/>
	<path class="st0" d="M427.75,296.69c0.43-1.44,0.81-2.87,1.31-4.3c0.12-0.34,0.58-0.64,0.89-0.96c0.34,0.33,0.93,0.65,1,1
		c0.63,3.31,1.18,6.63,1.79,10.19c1.32-0.69,2.26-1.19,3.24-1.7c0.15,0.16,0.21,0.22,0.2,0.22c-3.7,2.05-2.28,4.53-1.67,6.97
		c0.34,1.35,0.45,2.72,0.59,4.09c0.04,0.41-0.15,0.83-0.32,1.23c-0.31,0.75-1.01,1.46-2.37,1.36c-1.04-0.08-2.37-0.44-2.93-0.94
		c-1.79-1.59-1.27-3.43-0.93-5.2c0.16-0.82,0.39-1.73,1.11-2.4c1.92-1.76,1.68-3.55,0.95-5.45c-0.46-1.21-0.65-2.45-1.02-3.9
		c-0.47,0.55-0.72,0.97-1.14,1.32c-0.34,0.29-0.87,0.49-1.33,0.73c-0.45-0.33-1.23-0.64-1.31-1c-0.37-1.65-0.6-3.32-0.78-4.98
		c-0.07-0.73,0.1-1.47,0.54-2.22C427.12,292.62,426.26,294.74,427.75,296.69z M432.12,305.77c-1.89,2.07-2.3,4.24-1.66,6.46
		c0.15,0.51,1.13,0.93,1.73,1.39c0.33-0.53,0.98-1.08,0.92-1.59C432.9,309.94,432.47,307.86,432.12,305.77z"/>
	<path class="st0" d="M653.96,318.99c0.51-0.13,1.02-0.26,1.53-0.39c0.01-0.08,0.03-0.15,0.04-0.23c-1.34-0.16-2.68-0.39-4.04-0.46
		c-12.88-0.67-25.74-1.45-38.63-1.92c-7.73-0.28-15.5-0.09-23.25-0.03c-1.36,0.01-2.72,0.43-4.38,0.49c0.81-0.35,1.56-0.9,2.45-1
		c2.9-0.33,5.84-0.59,8.78-0.7c9.54-0.36,19.02,0.21,28.51,0.72c9.1,0.49,18.23,0.83,27.34,1.32c2.15,0.12,4.26,0.56,6.36,0.91
		c0.37,0.06,0.92,0.48,0.84,0.61c-0.17,0.28-0.65,0.64-1.08,0.69c-1.44,0.16-2.91,0.21-4.38,0.29
		C654.01,319.19,653.99,319.09,653.96,318.99z"/>
	<path class="st0" d="M517.64,340.05c-1.08,2.21-2.27,4.4-3.21,6.63c-0.54,1.28-0.69,2.61-0.99,3.92c-0.04,0.18-0.07,0.42,0.08,0.56
		c0.61,0.61,1.29,1.19,1.95,1.78c0.82-0.47,2.16-0.87,2.37-1.43c0.62-1.61,1.13-3.3,1.05-4.94c-0.15-2.95-0.76-5.89-1.21-9.1
		c-0.9,0.87-1.44,1.54-2.22,2.1c-1.3,0.93-2.81,0.84-3.81-0.21c-0.49-0.51-0.77-1.12-1-1.7c-0.88-2.21-0.57-4.43-0.17-6.65
		c0.22-0.03,0.45-0.06,0.67-0.09c0.15,0.35,0.38,0.7,0.43,1.05c0.28,1.96,0.46,3.93,0.81,5.89c0.08,0.48,0.65,0.93,1.09,1.52
		c3.3-1.63,2.73-3.98,4.01-6.15c0.45,0.43,0.79,0.62,0.84,0.83c0.83,4.23,1.78,8.45,2.35,12.69c0.21,1.56-0.39,3.17-0.78,4.74
		c-0.13,0.54-0.65,1.07-1.18,1.53c-1.88,1.63-5.05,1.42-6.39-0.39c-1.01-1.36-0.99-2.77-0.29-4.13c1.13-2.17,2.45-4.31,3.75-6.45
		c0.43-0.71,1.02-1.38,1.54-2.06C517.42,340.01,517.53,340.03,517.64,340.05z"/>
	<path class="st0" d="M671.23,383.34c-0.46,0.78-0.8,1.69-1.5,2.47c-1.3,1.44-3.61,1.48-4.71-0.02c-1.2-1.65-1.99-3.43-2.7-5.18
		c-0.41-1.02-0.33-2.11-0.43-3.17c-0.02-0.23,0.16-0.47,0.25-0.71c0.17-0.01,0.35-0.02,0.52-0.03c0.13,0.39,0.33,0.77,0.36,1.16
		c0.17,2.45,0.94,4.83,2.71,7.05c0.35,0.43,1.12,0.74,1.7,1.11c0.55-0.39,1.42-0.73,1.59-1.17c0.54-1.39,0.8-2.83,1.21-4.24
		c0.08-0.26,0.39-0.48,0.59-0.73c0.3,0.21,0.77,0.39,0.86,0.63c1.88,4.92,3.81,9.83,5.5,14.77c0.47,1.39,0.3,2.88,0.22,4.32
		c-0.05,0.93-0.61,1.82-2.39,2.09c-1.85,0.28-3.05-0.36-3.91-1.19c-2.04-1.97-1.7-4.08-0.59-6.15c0.67-1.26,1.79-2.42,2.62-3.65
		c0.29-0.43,0.55-0.96,0.4-1.39C672.83,387.28,671.98,385.26,671.23,383.34z M674.09,390.99c-0.25-0.02-0.51-0.03-0.76-0.05
		c-0.66,1.87-1.62,3.74-1.85,5.63c-0.14,1.12,0.78,2.32,1.42,3.44c0.15,0.26,1.13,0.51,1.67,0.48c0.36-0.02,0.85-0.55,0.91-0.87
		C675.93,396.69,675.25,393.82,674.09,390.99z"/>
	<path class="st0" d="M329.46,321.57c-0.18,0.7-0.25,1.43-0.56,2.11c-0.36,0.8-1.6,0.98-2.18,0.3c-1.83-2.16-2.62-4.48-2.38-6.92
		c0.01-0.07,0.26-0.13,0.68-0.33c0.74,1.97,1.45,3.85,2.16,5.73c0.18-0.01,0.36-0.01,0.55-0.01c0.17-0.95,0.3-1.9,0.53-2.85
		c0.06-0.26,0.41-0.5,0.62-0.75c0.36,0.17,0.93,0.3,1.07,0.53c3.25,5.42,7.17,10.75,6.68,16.71c-0.07,0.76-0.49,1.58-1.12,2.25
		c-1.07,1.14-3.01,1.26-4.6,0.34c-2.52-1.46-2.72-3.35-1.93-5.19c0.71-1.67,2.15-3.23,3.13-4.86c0.33-0.55,0.57-1.24,0.33-1.78
		c-0.77-1.79-1.77-3.53-2.68-5.29C329.67,321.55,329.57,321.56,329.46,321.57z M333.17,328.59c-1.55,2.24-2.65,4.31-2.6,6.54
		c0.01,0.59,0.18,1.24,0.61,1.76c0.39,0.46,1.24,0.79,1.89,1.17c0.52-0.43,1.4-0.84,1.51-1.31
		C335.2,334.05,334.58,331.41,333.17,328.59z"/>
	<path class="st0" d="M535.49,300.67c-0.21,0.28-0.33,0.49-0.52,0.68c-0.81,0.83-1.98,0.92-2.78,0.09
		c-2.65-2.73-3.52-5.75-3.49-8.87c0-0.1,0.29-0.21,0.8-0.55c0.54,3.27,1.02,6.32,3.93,9.07c2.08-1.61,0.54-3.6,1.9-5.57
		c0.43,0.58,0.75,0.87,0.85,1.18c0.42,1.34,0.59,2.73,1.2,4.04c0.78,1.68,1.03,3.41,1.45,5.12c0.44,1.8,0.68,3.63,0.7,5.45
		c0.01,1-0.47,2.03-0.99,2.99c-0.51,0.94-1.72,1.53-3.47,1.4c-1.83-0.14-2.64-1.06-2.6-1.96c0.09-1.84,0.5-3.68,0.97-5.51
		c0.21-0.81,0.75-1.62,1.35-2.36C536.14,304.2,536.85,302.53,535.49,300.67z M536.8,304.63c-1.47,2.77-2.86,5.37-2.6,8.14
		c0.06,0.6,0.79,1.17,1.21,1.76c0.64-0.54,1.65-1.04,1.87-1.64C538.3,310.2,537.56,307.51,536.8,304.63z"/>
	<path class="st0" d="M578.26,342.88c-0.87-8.3-0.53-16.56,0.01-24.82c0.01-0.09,0.18-0.18,0.6-0.56c0.22,0.63,0.45,1.01,0.47,1.4
		c0.27,6.74,0.48,13.48,0.8,20.21c0.09,1.94,0.54,3.87,0.68,5.81c0.03,0.45-0.48,0.91-0.75,1.37c-0.58-0.29-1.36-0.52-1.69-0.9
		c-3.5-4-6.93-8.02-10.37-12.04c-0.17-0.2-0.28-0.41-0.41-0.62c0.14-0.08,0.28-0.16,0.42-0.24c0.4,0.26,0.9,0.49,1.18,0.8
		c2.75,2.9,5.46,5.83,8.19,8.74C577.67,342.32,577.97,342.59,578.26,342.88z"/>
	<path class="st0" d="M331.73,284.08c-3.11,1.38-5.47,0.95-6.44-1.3c-0.5-1.16-0.4-2.4-0.57-3.61c0.28-0.03,0.57-0.06,0.86-0.09
		c0.17,0.34,0.38,0.68,0.51,1.02c0.36,0.92,0.56,1.87,1.09,2.75c0.23,0.38,1.08,0.81,1.73,0.87c0.48,0.04,1.26-0.43,1.6-0.78
		c0.47-0.48,0.61-1.07,0.98-1.59c0.24-0.33,0.65-0.61,0.99-0.92c0.23,0.32,0.58,0.63,0.69,0.97c0.77,2.49,1.51,4.99,2.23,7.49
		c0.82,2.87,1.62,5.74,2.36,8.62c0.11,0.43-0.12,0.9-0.25,1.35c-0.25,0.85-0.94,1.54-2.4,1.71c-1.61,0.19-2.96-0.21-3.95-0.99
		c-1.95-1.55-2.03-3.83-0.22-5.45c0.07-0.06,0.13-0.14,0.22-0.18c3.27-1.68,3.4-3.69,2.02-5.99
		C332.44,286.72,332.2,285.39,331.73,284.08z M335.05,292.13c-0.22-0.02-0.45-0.04-0.67-0.07c-0.9,1.07-2.11,2.1-2.59,3.24
		c-0.38,0.92-0.13,2.03,0.35,2.96c0.26,0.5,1.6,0.79,2.45,1.17c0.42-0.51,1.21-1.03,1.18-1.53
		C335.68,295.97,335.32,294.05,335.05,292.13z"/>
	<path class="st0" d="M614.25,215.14c-0.59-0.06-1.17-0.15-1.76-0.16c-1.18-0.03-2.41-0.13-3.55,0c-1.59,0.18-3.06,0.68-3.36,1.75
		c-0.29,1.04,0.82,1.74,2.28,2.14c3.32,0.91,6.72,1.71,10.02,2.64c1.52,0.43,3.01,0.96,4.31,1.6c2.15,1.05,2.08,2.2-0.14,3.2
		c-0.99,0.45-2.13,0.91-3.3,1.05c-4.18,0.5-8.4,0.88-12.63,1.23c-0.53,0.04-1.17-0.44-1.77-0.68c0.66-0.27,1.43-0.85,1.96-0.77
		c3.97,0.56,7.64-0.28,11.37-0.79c1.07-0.15,2.06-0.54,3.04-0.87c1.44-0.49,1.27-1.13,0.03-1.57c-2.22-0.78-4.52-1.47-6.85-2.13
		c-2.21-0.63-4.58-1.08-6.72-1.78c-3.01-0.98-4.02-2.24-3.32-3.65c0.68-1.36,3.43-2.43,6.33-2.32c1.45,0.06,2.87,0.38,4.31,0.58
		C614.41,214.77,614.33,214.96,614.25,215.14z"/>
	<path class="st0" d="M542.26,219.24c1.8-2.04,2.77-4.1,4.62-5.87c0.26,0.06,0.52,0.12,0.78,0.19c-0.16,0.44-0.23,0.91-0.5,1.32
		c-1.05,1.63-2.24,3.22-3.2,4.87c-0.28,0.48-0.2,1.2,0.2,1.64c1.73,1.89,3.66,3.72,5.47,5.59c0.53,0.55,0.98,1.15,1.28,1.76
		c0.11,0.24-0.31,0.57-0.49,0.86c-0.42-0.17-1.02-0.29-1.25-0.53c-2.23-2.32-4.4-4.65-6.75-7.15c-2.1,2.72-4.1,5.31-6.11,7.92
		c-1.73-0.57-1.19-1.2-0.75-1.78c1.63-2.14,3.23-4.29,4.97-6.39c0.64-0.77,0.6-1.38-0.1-2.12c-1.18-1.25-2.24-2.55-3.24-3.85
		c-0.22-0.28,0-0.67,0.01-1.02c0.49,0.18,1.18,0.28,1.43,0.54C539.87,216.49,540.98,217.8,542.26,219.24z"/>
	<path class="st0" d="M507.78,368.92c-0.17,0.12-0.35,0.24-0.63,0.43c0-1.06,0-2.02,0-2.97c0.19-0.06,0.38-0.12,0.57-0.18
		c0.43,0.41,1.15,0.8,1.24,1.24c0.57,2.63,1.23,5.27,1.42,7.91c0.24,3.22,0.06,6.45,0.06,9.67c1.74,0.16,2.94,0.28,4.15,0.39
		c0.01,0.1,0.01,0.21,0.02,0.31c-1.19,0.1-2.37,0.2-3.83,0.32c0,1.86,0.01,3.74-0.01,5.63c-0.01,0.68-0.02,1.37-0.16,2.05
		c-0.06,0.28-0.5,0.53-0.77,0.8c-0.29-0.28-0.81-0.56-0.83-0.85c-0.1-2.17-0.11-4.34-0.14-6.51c-0.01-0.41,0-0.82,0-1.2
		c-2.22-0.19-4.21-0.37-6.19-0.54c0.03-0.14,0.06-0.29,0.09-0.43c1.95,0,3.89,0,6.14,0c-0.21-5.41-0.41-10.73-0.62-16.05
		C508.12,368.94,507.95,368.93,507.78,368.92z"/>
	<path class="st0" d="M644.93,215.72c0.2-0.18,0.41-0.35,0.8-0.68c-2.93-0.21-5.69-0.42-8-0.59c0.36,4.56,0.72,9.03,1.08,13.49
		c0.02,0.19,0.1,0.4-0.01,0.57c-0.21,0.31-0.53,0.59-0.8,0.89c-0.37-0.29-1.03-0.58-1.05-0.88c-0.2-2.66-0.26-5.32-0.42-7.98
		c-0.09-1.52-0.23-3.04-0.46-4.55c-0.22-1.42-0.58-1.58-2.94-1.59c-2.77-0.01-5.55,0-8.32-0.03c-0.4,0-0.79-0.21-1.19-0.32
		c0.33-0.23,0.62-0.49,1.01-0.68c0.21-0.1,0.6-0.1,0.91-0.1c7.5-0.07,15.01-0.16,22.39,0.9c0.59,0.08,1.08,0.4,1.62,0.6
		c-0.51,0.27-0.96,0.65-1.56,0.8c-0.89,0.22-1.89,0.27-2.84,0.4C645.07,215.89,645,215.81,644.93,215.72z"/>
	<path class="st0" d="M506.67,254.41c-0.14,0.19-0.18,0.47-0.43,0.56c-3.59,1.41-7.34,2.46-11.82,1.97
		c-3.54-0.38-5.96-1.6-6.62-3.68c-1.23-3.91-0.81-7.74,2.98-11.17c0.92-0.83,2.24-1.55,3.61-2.11c1.47-0.6,2.83-0.11,2.79,0.96
		c-0.04,1.07-0.41,2.14-0.95,3.21c-1.46-0.99,0.1-2.17-0.91-3.44c-1.04,0.67-2.1,1.22-2.9,1.89c-2.45,2.05-3.21,4.44-3.21,6.9
		c0,1.31,0.28,2.65,0.76,3.93c0.47,1.24,2.02,2.01,4.1,2.24c3.11,0.35,6.08,0.28,8.83-0.92c0.92-0.41,2.28-0.45,3.44-0.67
		C506.45,254.2,506.56,254.3,506.67,254.41z"/>
	<path class="st0" d="M271.92,321.12c0.87-1.48,1.56-2.78,2.4-4.04c0.25-0.37,0.91-0.87,1.4-0.88c0.53-0.01,1.34,0.42,1.59,0.78
		c0.97,1.36,1.81,2.75,2.61,4.14c0.59,1.02,1.04,2.07,1.59,3.18c-1.75,0.09-2.3-0.6-2.71-1.37c-0.89-1.65-1.76-3.31-2.75-5.2
		c-0.95,1.48-1.67,2.72-2.57,3.91c-0.3,0.4-1.16,0.97-1.59,0.92c-0.69-0.08-1.43-0.55-1.81-0.96c-1.21-1.33-2.25-2.71-3.38-4.07
		c-0.21-0.25-0.5-0.48-0.75-0.71c-0.19,0.02-0.38,0.03-0.57,0.05c0,1.45,0.03,2.91-0.03,4.36c-0.01,0.3-0.4,0.59-0.62,0.89
		c-0.39-0.25-1.12-0.5-1.1-0.74c0.11-2,0.32-3.99,0.6-5.99c0.04-0.26,0.78-0.74,0.97-0.7c0.65,0.13,1.44,0.36,1.74,0.69
		C268.61,317.19,270.16,319.06,271.92,321.12z"/>
	<path class="st0" d="M596.69,247.1c-0.11-0.41-0.25-0.81-0.32-1.22c-0.19-1.19-1.24-1.56-2.68-0.73c-1.37,0.79-2.72,1.77-3.3,2.83
		c-0.78,1.4-1.14,2.96-1.09,4.45c0.09,2.22,2.36,3.65,6.12,3.96c2.08,0.17,4.29,0.09,6.35-0.16c3.22-0.38,3.43-0.71,2.69-2.65
		c1.42,0.22,1.85,0.79,1.81,1.61c-0.04,0.82-0.37,1.49-1.81,1.8c-3.78,0.84-7.62,1.01-11.46,0.23c-3.4-0.69-5.18-2.3-5.61-4.35
		c-0.63-2.99,0.43-5.75,3.92-8.04c0.04-0.03,0.08-0.06,0.12-0.09c1.6-1.01,3.97-1.43,5.25-0.93
		C598,244.33,598.18,245.56,596.69,247.1z"/>
	<path class="st0" d="M232.29,251.74c-0.41,0.32-0.71,0.81-1.25,0.94c-3.9,0.95-7.88,1.36-11.85,0.18
		c-1.77-0.53-2.77-1.48-3.39-2.62c-1.72-3.17,0.25-9.34,5.74-11.73c1.06-0.46,2.23-0.95,3.47-1.1c1-0.13,2.71,0.01,3.13,0.4
		c0.73,0.71,0.62,1.69-0.74,2.45c-0.09-0.64-0.19-1.28-0.33-2.3c-1.73,0.57-3.32,0.92-4.56,1.52c-3.09,1.51-4.53,3.63-5,5.95
		c-0.27,1.3-0.37,2.67-0.02,3.95c0.54,1.99,2.61,3,5.93,2.95c2.35-0.04,4.7-0.39,7.04-0.62c0.51-0.05,1-0.16,1.5-0.24
		C232.06,251.56,232.17,251.65,232.29,251.74z"/>
	<path class="st0" d="M302.15,241.14c-0.15-0.48-0.31-0.96-0.48-1.48c-3.37,0.56-5.17,2.15-6.51,3.86c-1.64,2.1-2.23,4.35-1.25,6.66
		c1.52,3.59,8.57,4.32,12.2,3.36c0.48-0.13,0.78-0.48,1.24-0.66c0.31-0.12,0.98-0.24,1.08-0.16c0.26,0.19,0.51,0.64,0.36,0.73
		c-0.8,0.49-1.61,1.12-2.62,1.31c-5.69,1.05-13.43-0.45-14.44-5.21c-0.76-3.62,0.94-6.85,5.25-9.48c0.74-0.45,1.65-0.89,2.62-1.08
		c0.96-0.19,2.76-0.29,3.01-0.02c0.53,0.57,0.31,1.4,0.39,2.13C302.71,241.11,302.43,241.13,302.15,241.14z"/>
	<path class="st0" d="M408.42,244.23c0.37,0.3,0.89,0.57,1.09,0.91c0.76,1.32,1.52,2.66,2.1,4.01c0.32,0.75,0.92,0.96,2.12,0.89
		c1.44-0.08,2.9-0.13,4.34-0.08c0.7,0.02,1.38,0.3,2.07,0.47c-0.64,0.21-1.25,0.56-1.93,0.62c-1.74,0.14-3.51,0.14-5.39,0.21
		c0.56,1.71,1.11,3.36,1.65,5.02c0.06,0.19,0.23,0.39,0.15,0.56c-0.15,0.32-0.45,0.61-0.68,0.91c-0.39-0.24-1.02-0.46-1.13-0.74
		c-0.71-1.77-1.3-3.55-1.93-5.33c-0.04-0.11-0.11-0.21-0.22-0.65c-4.99,0.24-9.97,0.48-14.96,0.7c-0.46,0.02-0.93-0.09-1.4-0.14
		c0.29-0.26,0.5-0.69,0.88-0.76c1.45-0.24,2.94-0.43,4.43-0.5c3.45-0.16,6.9-0.23,10.52-0.35c-0.79-1.84-1.58-3.68-2.37-5.52
		C407.97,244.37,408.2,244.3,408.42,244.23z"/>
	<path class="st0" d="M245.98,288.61c1.39-5.76,2.73-11.3,4.08-16.84c2.7,0.99,8.87,14.79,6.77,15.96c-0.57-1.41-1.09-2.7-1.61-4
		c-0.32-0.02-0.57-0.05-0.82-0.05c-5.27-0.06-5.21-0.05-6.39,2.99C247.76,287.3,248.19,288.26,245.98,288.61z M251.12,274.52
		c-0.17,0.02-0.35,0.04-0.52,0.07c-0.58,2.84-1.16,5.67-1.76,8.59c2.12-0.09,4.04-0.17,6.03-0.26c-0.02-0.24,0.02-0.46-0.08-0.67
		C253.58,279.67,252.35,277.1,251.12,274.52z"/>
	<path class="st0" d="M583.94,382.95c2.13,0.37,4.02,0.7,5.92,1.03c-0.04,0.11-0.08,0.22-0.13,0.33c-1.87-0.17-3.74-0.34-5.88-0.53
		c0,2.78,0,5.5,0,8.22c-2.61-2.66-1.59-5.54-1.9-8.38c-1.43-0.2-2.83-0.4-4.23-0.6c0.03-0.15,0.07-0.3,0.1-0.46
		c1.34,0.07,2.67,0.14,3.94,0.21c0-3.38,0.16-6.76-0.06-10.14c-0.13-1.96-0.84-3.91-1.39-5.85c-0.09-0.3-0.73-0.55-1.4-1.02
		c0.1-0.09,0.4-0.37,0.7-0.66c0.43,0.24,1.14,0.44,1.25,0.73c0.83,2.1,1.88,4.19,2.21,6.32c0.53,3.33,0.55,6.69,0.79,10.03
		C583.89,382.44,583.92,382.7,583.94,382.95z"/>
	<path class="st0" d="M210.6,298.43c1.89,0.09,3.79,0.1,5.61,0.32c1.07,0.13,2.54,0.45,2.9,0.94c0.37,0.49-0.1,1.44-0.74,1.94
		c-2,1.57-5.01,2.33-7.78,3.25c-0.18-0.09-0.36-0.18-0.54-0.27c0.47-0.4,0.83-0.89,1.44-1.19c1.06-0.53,2.34-0.9,3.42-1.42
		c0.99-0.48,1.84-1.07,2.74-1.61c-0.08-0.14-0.15-0.28-0.22-0.42c-1.32-0.07-2.64-0.15-3.97-0.22c-1-0.06-2.02-0.07-3.01-0.16
		c-1.39-0.14-2.1-0.62-1.87-1.52c0.14-0.56,0.35-1.14,0.26-1.7c-0.11-0.64-0.45-1.27-0.87-1.85c-0.05-0.07-1.55,0.02-1.8,0.25
		c-0.61,0.58-1.37,1.35-1.2,1.95c0.5,1.79,1.48,3.52,2.15,5.3c0.14,0.35-0.23,0.78-0.37,1.17c-0.44-0.31-1.13-0.59-1.27-0.94
		c-0.73-1.84-1.48-3.69-1.88-5.56c-0.23-1.06,0.5-2.1,2.16-2.72c2.29-0.86,4.58-0.13,4.82,1.57
		C210.7,296.43,210.6,297.34,210.6,298.43z"/>
	<path class="st0" d="M449.3,255.03c0.26,1.11-0.68,1.54-1.97,1.72c-5.64,0.77-12.22-0.42-12.04-5.34c0.07-1.89,0.97-3.81,1.95-5.63
		c0.87-1.61,2.98-2.71,5.79-3.17c2.63-0.43,4.79,0.5,4.63,2.01c-0.03,0.26-0.38,0.5-0.59,0.75c-0.31-0.2-0.86-0.38-0.9-0.61
		c-0.26-1.26-1.65-1.32-3-0.89c-1.34,0.42-2.78,0.99-3.55,1.73c-1.99,1.91-2.73,4.11-2.4,6.33c0.47,3.15,5.53,4.81,10.44,3.55
		C448.16,255.37,448.63,255.22,449.3,255.03z"/>
	<path class="st0" d="M346.66,245.82c-0.1-0.62-0.14-1.25-0.33-1.86c-0.38-1.29-1.83-1.66-3.52-0.84c-1,0.49-1.94,1.12-2.54,1.81
		c-2.07,2.39-2.65,4.91-1.07,7.48c1.53,2.48,5.7,3.49,9.74,2.49c0.46-0.11,1.08,0.01,1.62,0.02c-0.28,0.29-0.45,0.69-0.87,0.87
		c-3.17,1.32-8.65,0.53-11.09-1.56c-3.76-3.22-2.62-9.07,2.33-11.64c0.78-0.4,1.82-0.69,2.82-0.84c1.85-0.29,3.18,0.15,3.58,1.26
		c0.32,0.9,0.19,1.86,0.26,2.8C347.29,245.82,346.98,245.82,346.66,245.82z"/>
	<path class="st0" d="M626.25,311.37c4.22-1.74,5.72-4.36,6.48-7.18c1.02-3.73-1.25-6.95-4.49-9.98c-1.95-1.82-4.08-3.56-6.11-5.35
		c-0.33-0.29-0.56-0.64-0.84-0.95c0.12-0.07,0.24-0.15,0.36-0.22c0.38,0.12,0.88,0.19,1.1,0.37c3.25,2.8,6.78,5.49,9.62,8.44
		c4.05,4.22,3.21,9.96-1.53,13.19c-1.14,0.78-2.73,1.32-4.11,1.98C626.58,311.57,626.42,311.47,626.25,311.37z"/>
	<path class="st0" d="M596,341.9c-0.73,1.47-1.47,2.94-2.21,4.41c-0.25,0-0.51,0-0.76-0.01c-0.12-0.38-0.44-0.78-0.32-1.12
		c0.48-1.33,1.01-2.67,1.7-3.96c0.39-0.73,0.31-1.29-0.41-1.91c-2.04-1.76-4.03-3.55-6.1-5.38c1.04-0.47,1.79,0.11,2.4,0.57
		c1.81,1.35,3.53,2.75,5.35,4.18c1.29-1.22,1.37-2.86,3.65-4.15c0.08,0.59,0.16,0.83,0.12,1.05c-0.03,0.18-0.2,0.36-0.34,0.53
		c-1.97,2.4-2.51,4.76,0.29,7.12c0.59,0.5,0.82,1.19,1.02,1.82c0.08,0.26-0.37,0.57-0.58,0.86c-0.39-0.19-0.95-0.34-1.13-0.58
		c-0.82-1.14-1.54-2.32-2.29-3.48C596.27,341.86,596.13,341.88,596,341.9z"/>
	<path class="st0" d="M179.91,314.27c-0.67,0.16-1.16,0.28-1.47,0.36c-0.16,0.69-0.31,1.32-0.47,1.95c-0.73-0.15-1.46-0.3-2.05-0.41
		c0.08-0.47,0.14-0.8,0.2-1.13c-0.52-0.03-1.05-0.1-1.57-0.07c-1.92,0.1-3.82,0.23-4.01,1.8c-0.02,0.2-0.72,0.37-1.1,0.56
		c-0.24-0.23-0.73-0.49-0.68-0.7c0.64-2.63,1.33-5.25,2.1-7.87c0.09-0.3,0.75-0.79,1.08-0.77c0.58,0.04,1.33,0.32,1.62,0.63
		c1.15,1.26,2.24,2.55,3.18,3.88C177.73,313.89,177.64,313.91,179.91,314.27z M173.09,310.33c-0.58,1.63-1.04,2.93-1.53,4.31
		c1.45-0.22,2.66-0.4,4.13-0.63C174.85,312.82,174.07,311.72,173.09,310.33z"/>
	<path class="st0" d="M562.82,290.29c-0.31,0.52-0.57,1.04-0.94,1.55c-3.77,5.12-4.44,10.4-2.16,15.82c0.66,1.58,1.84,3,3.93,4.07
		c0.44,0.23,1.07,0.32,1.91,0.57c-0.17,0.2-0.33,0.73-0.74,0.81c-0.53,0.1-1.37-0.05-1.88-0.27c-2.9-1.22-4.32-3.04-5.11-5.04
		c-2.35-5.9-1.23-11.55,3.53-16.91c0.25-0.28,0.59-0.52,0.89-0.78C562.45,290.16,562.64,290.22,562.82,290.29z"/>
	<path class="st0" d="M414.79,285.79c-3.61-0.14-6.55-1.39-7.07-3.15c-0.06-0.22-0.25-0.53-0.08-0.66c1.01-0.76-0.06-1.27-0.61-1.78
		c-1.21-1.15-1.07-1.62,0.93-2.2c2.73-0.79,5.58-1.24,8.58-0.68c2.91,0.54,4.68,1.78,5.17,3.58c0.43,1.59-0.4,3-2.64,3.89
		C417.83,285.28,416.23,285.46,414.79,285.79z M410,282.31c-0.1,0.06-0.2,0.12-0.3,0.18c-0.02,0.16-0.15,0.43-0.04,0.48
		c1.34,0.5,2.62,1.14,4.08,1.41c2.94,0.53,5.75-0.42,6.5-1.98c0.84-1.73-0.81-3.6-3.76-4.16c-3.06-0.57-5.77,0.01-8.45,1
		C408.71,280.29,409.35,281.3,410,282.31z"/>
	<path class="st0" d="M272.07,249.19c-3.03-0.14-5.97-0.28-8.92-0.41c-0.19-0.01-0.41,0.01-0.56-0.04
		c-0.79-0.28-1.56-0.57-2.34-0.86c0.86-0.05,1.71-0.17,2.56-0.15c2.94,0.08,5.89,0.21,9.13,0.33c0-1.47,0-2.8,0-4.13
		c0.26-0.02,0.51-0.03,0.77-0.05c0.29,1.32,0.58,2.64,0.9,4.13c2.21,0,4.41-0.04,6.59,0.02c1.05,0.03,2.12,0.18,3.09,0.41
		c0.52,0.13,0.84,0.55,1.26,0.84c-0.61,0.05-1.22,0.16-1.82,0.13c-2.92-0.11-5.84-0.26-9.16-0.41c0.68,1.66,1.24,3.04,1.82,4.45
		C273.54,253.27,272.99,252.54,272.07,249.19z"/>
	<path class="st0" d="M303.94,275.78c1.54-1.24,3.23-1.2,4.87-0.99c1.69,0.22,2.87,0.93,2.86,1.99c-0.02,0.97-0.38,1.95-0.76,2.9
		c-0.31,0.77-0.9,1.5-1.31,2.25c-0.38,0.71-0.32,1.2,1.29,1.33c2.17,0.18,4.32,0.5,6.44,0.86c2.19,0.37,2.6,1.25,0.9,2.15
		c-1.83,0.97-3.93,1.76-5.9,2.65c-0.51,0.23-0.95,0.51-1.53,0.82c-1.27-0.34-1.37-0.87-0.22-1.4c1.49-0.69,3.11-1.29,4.65-1.95
		c0.75-0.32,1.45-0.68,2.65-1.26c-2.62-0.3-4.66-0.59-6.73-0.76c-3.51-0.29-4.21-0.96-2.93-2.98c0.72-1.13,1.48-2.26,2.09-3.41
		c0.41-0.77,0.53-1.6-0.67-2.21c-1.18-0.6-2.51-0.59-3.89-0.26C305.33,275.62,304.86,275.65,303.94,275.78z"/>
	<path class="st0" d="M203.55,279.09c-1.53-2.57-4.26-4.27-7.19-5.87c-2.62-1.43-3.73-1.42-5.52,0.36
		c-1.25,1.24-1.98,2.68-2.87,4.04c-0.67,1.02-1.2,2.08-1.88,3.1c-0.17,0.26-0.69,0.44-1.05,0.66c-0.28-0.31-0.75-0.6-0.78-0.92
		c-0.06-0.48-0.01-1.03,0.32-1.46c1.83-2.36,3.58-4.75,5.78-6.99c0.55-0.55,2.74-0.88,4-0.74
		C198.38,271.71,203.78,276.28,203.55,279.09z"/>
	<path class="st0" d="M628.67,254.65c1.02,1.54,2.03,3.08,3.11,4.72c0.85-1.07,1.59-2.1,2.46-3.07c0.33-0.37,1.03-0.91,1.48-0.88
		c0.65,0.04,1.58,0.45,1.78,0.83c1,1.83,1.84,3.7,2.61,5.57c0.09,0.23-0.53,0.57-0.83,0.85c-0.38-0.26-0.96-0.49-1.09-0.79
		c-0.72-1.68-1.32-3.37-1.97-5.06c-0.18-0.01-0.36-0.02-0.54-0.03c-0.92,1.35-1.79,2.72-2.79,4.05c-0.31,0.41-0.95,0.72-1.44,1.08
		c-0.39-0.39-0.93-0.75-1.16-1.17c-0.81-1.47-1.54-2.96-2.23-4.46c-0.22-0.48-0.23-0.99-0.33-1.48
		C628.04,254.77,628.36,254.71,628.67,254.65z"/>
	<path class="st0" d="M320.37,380.74c-0.84,0.83-1.47,1.38-1.97,1.97c-1.31,1.54-1.25,2.98,0.66,4.41c0.89,0.66,1.38,1.53,1.9,2.34
		c0.16,0.24-0.13,0.6-0.22,0.9c-0.41-0.16-0.96-0.27-1.2-0.5c-1.03-0.99-1.98-2.01-3.21-3.3c-0.48,1.31-0.81,2.33-1.23,3.34
		c-0.13,0.32-0.48,0.6-0.73,0.9c-0.3-0.33-0.89-0.68-0.83-0.98c0.23-1.05,0.55-2.1,1.09-3.1c0.49-0.9,0.25-1.64-0.39-2.47
		c-0.74-0.95-1.25-1.99-1.64-3.01c-0.12-0.32,0.47-0.73,0.74-1.1c0.34,0.3,0.79,0.58,1,0.92c0.55,0.91,1,1.83,1.59,2.93
		C317.33,382.76,317.14,381.04,320.37,380.74z"/>
	<path class="st0" d="M606.08,296.67c0,1.43-0.07,2.86,0.03,4.28c0.04,0.52,0.3,1.11,0.78,1.54c1.24,1.1,2.68,2.11,3.98,3.18
		c0.31,0.26,0.36,0.63,0.52,0.96c-0.61-0.1-1.43-0.08-1.8-0.32c-1.03-0.66-1.86-1.43-2.78-2.16c-0.19-0.15-0.41-0.28-0.88-0.61
		c-0.37,1.65-0.7,3.12-1.04,4.6c-0.25-0.01-0.51-0.02-0.76-0.03c0-1.53-0.15-3.06,0.06-4.58c0.12-0.9-0.08-1.61-1.05-2.3
		c-1.58-1.14-3.08-2.31-4.58-3.49c-0.32-0.25-0.46-0.58-0.69-0.87c0.2-0.09,0.4-0.18,0.6-0.26c1.9,1.26,3.81,2.53,5.98,3.97
		c0.18-1.42,0.34-2.69,0.5-3.95C605.33,296.63,605.71,296.65,606.08,296.67z"/>
	<path class="st0" d="M645.51,330.72c1.01-0.85,2.43-1.2,4.23-1.14c1.74,0.06,2.46,0.78,2.61,1.65c0.14,0.81,0.07,1.68-0.26,2.48
		c-0.81,1.95-1.87,3.86-2.73,5.8c-0.3,0.68-0.31,1.41-0.5,2.39c1.98-0.13,3.67-0.24,5.4-0.36c-0.66,0.98-3.38,1.63-5.46,1.34
		c-1.69-0.24-1.96-1.04-1.68-1.87c0.59-1.78,1.35-3.53,2.04-5.3c0.49-1.25,1.2-2.49,1.4-3.76c0.22-1.39-0.89-1.76-3.05-1.24
		c-0.58,0.14-1.18,0.23-1.77,0.34C645.65,330.94,645.58,330.83,645.51,330.72z"/>
	<path class="st0" d="M379.75,287.52c-2.27,0.25-3.9,1.74-6.67,1.01c-3.17-0.84-5.24-2.2-5.75-4.31c-0.83-3.41,2.17-6.91,7.31-8.43
		c0.87-0.26,1.91-0.3,2.87-0.44c0.08,0.14,0.16,0.27,0.24,0.41c-0.47,0.15-0.92,0.33-1.41,0.45c-5.02,1.15-8.34,4.97-7.07,8.11
		c0.62,1.52,2.2,2.56,4.54,3.13c0.71,0.17,1.67,0,2.5-0.07c1.11-0.08,2.2-0.21,3.3-0.32C379.65,287.21,379.7,287.36,379.75,287.52z"
		/>
	<path class="st0" d="M565.46,248.26c0.88,1.05,0.19,1.84-1.67,1.79c-7.29-0.23-14.59-0.49-21.88-0.74
		c-1.45-0.05-2.9-0.08-4.34-0.16c-0.36-0.02-0.68-0.23-1.03-0.35c0.36-0.15,0.72-0.43,1.07-0.43c3.34,0.03,6.68,0.11,10.02,0.19
		c5.29,0.12,10.58,0.26,15.87,0.33C564.14,248.88,564.8,248.47,565.46,248.26z"/>
	<path class="st0" d="M416.49,398.61c2.45,0.27,4.98,0.56,7.49,0.84c-0.03,0.11-0.07,0.22-0.1,0.33c-4.26,0-8.51,0.01-12.77-0.02
		c-0.32,0-0.64-0.27-0.96-0.41c0.35-0.16,0.69-0.44,1.06-0.46c1.18-0.06,2.38-0.02,3.75-0.02c-0.49-2.51-0.96-4.88-1.46-7.45
		c-2.21,1.4-4.2,2.66-6.2,3.93c-0.18-0.1-0.37-0.2-0.56-0.3c1.84-1.98,4.96-3.32,7.22-5.09c0.28,0.03,0.56,0.06,0.84,0.09
		C415.37,392.91,415.93,395.76,416.49,398.61z"/>
	<path class="st0" d="M347.36,329.95c4.19-0.82,4.58-2.77,4.52-4.96c-0.08-3.63-1.89-6.86-5.5-9.74c-0.46-0.37-1.17-0.62-1.97-1.03
		c0.82-0.7,1.78-0.54,2.61,0.02c3.24,2.2,5.62,4.71,6.25,7.65c0.36,1.67,0.34,3.41,0.04,5.09
		C352.99,328.83,350.63,329.92,347.36,329.95z"/>
	<path class="st0" d="M403.49,370.59c-0.81,1.15-1.56,2.2-2.29,3.24c-0.24-0.04-0.48-0.08-0.72-0.12c0.43-1.09,0.73-2.21,1.34-3.26
		c0.43-0.73,0.37-1.27-0.32-1.91c-0.75-0.7-1.33-1.47-1.86-2.23c-0.15-0.21,0.11-0.52,0.19-0.78c0.38,0.15,0.89,0.25,1.11,0.46
		c0.75,0.73,1.4,1.49,2.14,2.29c2.19-1.48,2.76-3.64,5.81-4.47c0.21,0.1,0.42,0.2,0.64,0.3c-0.31,0.29-0.63,0.58-0.93,0.88
		c-0.5,0.48-0.93,0.99-1.5,1.45c-2.23,1.78-3.31,3.53-0.04,5.32c0.18,0.1,0.34,0.26,0.35,0.4c0.04,0.45,0.01,0.9,0,1.34
		c-0.54-0.26-1.17-0.48-1.6-0.8c-0.59-0.44-1-0.96-1.51-1.44C404.09,371.04,403.85,370.87,403.49,370.59z"/>
	<path class="st0" d="M458.45,259.42c1.17-1.08,2.2-2.18,3.47-3.15c0.63-0.49,1.72-1.05,2.58-1.04c0.63,0,1.42,0.84,1.81,1.39
		c0.5,0.72,0.81,1.51,0.94,2.28c0.06,0.38-0.45,0.8-0.7,1.21c-0.53-0.35-1.35-0.66-1.53-1.07c-0.36-0.85-0.39-1.75-0.55-2.64
		c-0.17-0.01-0.34-0.02-0.5-0.03c-1.22,1.14-2.35,2.32-3.7,3.4c-0.57,0.46-1.63,0.7-2.46,1.04c-0.52-0.48-1.24-0.92-1.51-1.45
		c-0.71-1.37-1.24-2.78-1.79-4.19c-0.08-0.21,0.1-0.47,0.23-0.96C457.32,255.76,456.7,257.83,458.45,259.42z"/>
	<path class="st0" d="M548.75,386.64c0.4-0.68,0.4-0.68,7.9-1.09c0-1.44,0-2.9,0-4.36c0.25-0.01,0.5-0.02,0.75-0.02
		c0.13,0.94,0.41,1.88,0.36,2.81c-0.06,1.19,0.3,1.86,2.68,1.95c1.95,0.08,3.87,0.6,5.75,1.01c0.58,0.13,0.97,0.55,1.45,0.83
		c-0.12,0.07-0.24,0.14-0.36,0.21c-2.94-0.42-5.88-0.84-9.11-1.31c0.3,1.88,0.57,3.58,0.84,5.27c-0.2,0.02-0.39,0.05-0.59,0.07
		c-0.22-0.51-0.46-1.01-0.64-1.52c-0.26-0.78-0.48-1.57-0.71-2.35c-0.45-1.52-0.52-1.55-3.12-1.51
		C552.22,386.65,550.49,386.64,548.75,386.64z"/>
	<path class="st0" d="M670.53,238.38c1.26,1.5,1.21,20.98-0.06,22.4C669.68,260.07,669.74,239.04,670.53,238.38z"/>
	<path class="st0" d="M614.46,255.9c0.55-1.18,1.63-1.65,3.26-1.76c1.62-0.11,2.45,0.41,2.91,1.26c0.95,1.74-0.02,3.27-1.35,4.78
		c-0.78,0.88-1.51,1.78-2.49,2.93c3.78,0,6.95,0,10.62,0c-0.81,0.4-1.21,0.76-1.65,0.78c-2.99,0.12-5.98,0.24-8.97,0.19
		c-0.5-0.01-1.43-0.94-1.31-1.35c0.24-0.86,1.05-1.67,1.62-2.5c0.79-1.14,1.8-2.26,2.26-3.44c0.22-0.57-0.59-1.29-0.94-1.94
		c-1.03,0.24-2.06,0.48-3.09,0.73C615.12,255.61,614.95,255.7,614.46,255.9z"/>
	<path class="st0" d="M531.1,391.53c-1.17-1.26-2.73-2.34-1.47-3.96c1.69-2.16,0.9-3.35-2.48-4.81c-0.48-0.21-0.91-0.46-1.2-0.83
		c2.81,0.02,3.97,1.47,5.87,2.43c0.87-1.21,1.72-2.39,2.56-3.56c0.2,0.03,0.41,0.06,0.62,0.09c0,0.32,0.1,0.67-0.02,0.97
		c-0.21,0.52-0.43,1.05-0.88,1.5c-1.53,1.56-0.64,2.75,1.28,3.91c0.71,0.43,1.09,1.05,1.62,1.59c-0.19,0.08-0.37,0.15-0.55,0.23
		c-1.43-0.79-2.85-1.58-4.24-2.34C530.14,388.1,531.32,389.88,531.1,391.53z"/>
	<path class="st0" d="M500.37,336.23c-0.69,1.7-1.39,3.4-2.18,5.37c-0.61-1.22-0.81-2.28-0.45-3.39c0.08-0.26,0.22-0.54,0.48-0.74
		c2.39-1.92,1.6-3.8-0.07-5.7c-0.54-0.62-0.83-1.31-1.23-1.98c0.31-0.07,0.61-0.15,0.92-0.23c1.02,1.32,2.04,2.64,3.12,4.04
		c0.65-0.6,1.21-1.12,1.77-1.63c0.21,0.06,0.41,0.13,0.62,0.19c-0.2,0.44-0.27,0.93-0.64,1.31c-0.97,0.99-0.81,1.87,0.08,2.86
		c0.99,1.1,1.69,2.29,2.45,3.45c0.22,0.34,0.21,0.74,0.04,1.17C502.8,339.75,502.66,337.79,500.37,336.23z"/>
	<path class="st0" d="M294.53,315.04c1.63,1.38,3.26,2.77,5.01,4.25c0.52-1.3,1-2.53,1.48-3.74c0.24,0.01,0.48,0.03,0.73,0.04
		c0,0.55,0.24,1.14-0.04,1.63c-1.37,2.4-0.69,4.5,2.02,6.42c0.35,0.25,0.26,0.72,0.38,1.08c-0.62-0.19-1.4-0.3-1.81-0.59
		c-0.72-0.51-1.21-1.14-2.01-1.94c-0.4,1.09-0.73,1.96-1.06,2.84c-0.21-0.01-0.43-0.01-0.64-0.02c0-0.97-0.19-1.96,0.05-2.91
		c0.22-0.88,0.14-1.62-0.68-2.37c-1.25-1.14-2.38-2.33-3.53-3.51c-0.28-0.28-0.41-0.62-0.6-0.93
		C294.05,315.21,294.29,315.12,294.53,315.04z"/>
	<path class="st0" d="M571.69,307.86c-1.78-0.84-2.88-1.84-1.99-3.08c1.04-1.44,0.13-2.47-1.49-3.45c-0.36-0.21-0.76-0.42-1.01-0.68
		c-0.15-0.15-0.04-0.4-0.04-0.6c0.33,0.02,0.77-0.04,0.98,0.06c0.96,0.48,1.86,1,2.83,1.54c0.51-1.25,1.03-2.53,1.55-3.8
		c0.2,0.02,0.41,0.03,0.62,0.05c0.1,0.23,0.29,0.46,0.28,0.68c-0.02,0.45-0.1,0.91-0.25,1.36c-0.63,1.81-1.33,3.61,0.99,5.25
		c0.4,0.28,0.5,0.79,0.47,1.19c-0.06,0.71-0.71,1.01-1.49,0.82c-0.43-0.96-0.78-1.72-1.12-2.49c-0.27,0.03-0.53,0.06-0.79,0.09
		C571.39,305.83,571.54,306.84,571.69,307.86z"/>
	<path class="st0" d="M180.58,246.92c2.87,1.36,2.88,3.66,4.48,5.56c0.75-0.86,1.36-1.73,2.21-2.5c1.64-1.49,3.48-1.37,4.74,0.25
		c0.73,0.93,1.54,1.84,2.18,2.79c0.09,0.14-0.57,0.46-0.88,0.7c-0.67-0.4-1.56-0.72-1.95-1.2c-0.65-0.79-0.98-1.68-1.44-2.53
		c-0.23-0.02-0.45-0.04-0.68-0.06c-0.73,0.85-1.37,1.73-2.22,2.54c-0.59,0.57-1.46,1.03-2.21,1.54c-0.51-0.56-1.17-1.08-1.49-1.67
		C182.34,250.54,181.49,248.73,180.58,246.92z"/>
	<path class="st0" d="M467.17,242.3c-1.39-1.49-2.78-2.98-4.23-4.53c-0.47,0.52-0.96,1.2-1.67,1.79c-0.48,0.4-1.28,0.65-1.93,0.97
		c-0.47-0.4-1.05-0.77-1.4-1.21c-0.8-1-1.51-2.03-2.22-3.05c-0.11-0.15-0.04-0.35-0.05-0.53c0.41-0.01,1.03-0.13,1.19-0.01
		c0.64,0.46,1.17,0.98,1.66,1.5c0.42,0.45,0.72,0.94,1.22,1.62c0.85-0.92,1.52-1.71,2.3-2.46c0.75-0.72,1.99-0.76,2.47-0.01
		c1.2,1.89,2.2,3.83,3.27,5.75C467.58,242.18,467.37,242.24,467.17,242.3z"/>
	<path class="st0" d="M522.48,256.74c-1.08,0.72-2.09,1.47-3.25,2.13c-0.63,0.35-1.54,0.53-2.32,0.78
		c-0.39-0.45-0.81-0.89-1.15-1.35c-0.66-0.9-0.26-2.13-2.26-2.64c-0.17-0.04-0.24-0.56-0.05-0.68c0.25-0.16,1.03-0.29,1.19-0.2
		c0.66,0.38,1.28,0.82,1.71,1.3c0.53,0.59,0.86,1.25,1.37,2.01c0.95-0.63,1.77-1.23,2.68-1.77c1.95-1.15,4.11-0.8,4.82,0.79
		c0.28,0.65,0.37,1.35,0.32,2.02c-0.03,0.33-0.56,0.65-0.87,0.98c-0.33-0.31-0.83-0.6-0.95-0.94c-0.27-0.75-0.35-1.53-0.5-2.29
		C522.98,256.84,522.73,256.79,522.48,256.74z"/>
	<path class="st0" d="M314.23,252.29c2.09,0.77,1.21,2.36,2.32,3.52c0.91-0.76,1.81-1.56,2.79-2.32c1.29-1,2.68-0.93,3.32,0.27
		c0.57,1.1,0.66,2.3,0.89,3.47c0.03,0.14-0.45,0.47-0.62,0.45c-0.36-0.04-0.88-0.21-0.96-0.39c-0.24-0.55-0.31-1.12-0.44-1.68
		c-0.12-0.51-0.23-1.03-0.75-1.62c-0.87,0.81-1.73,1.63-2.62,2.43c-0.42,0.37-0.82,0.85-1.42,1.02c-0.45,0.13-1.52-0.03-1.78-0.27
		c-0.42-0.38-0.41-0.94-0.57-1.42c-0.34-1.09-0.67-2.19-1-3.28C313.67,252.4,313.95,252.35,314.23,252.29z"/>
	<path class="st0" d="M584.64,220.11c3.15,0,6.3,0,9.45,0c0.44,0,0.96-0.07,1.3,0.05c0.48,0.16,0.84,0.47,1.25,0.71
		c-0.49,0.18-0.98,0.52-1.46,0.52c-2.89,0-5.78-0.08-8.68-0.13c-3.97-0.07-7.94-0.12-11.91-0.24c-0.53-0.02-1.04-0.36-1.56-0.55
		c0.53-0.13,1.05-0.37,1.58-0.38c3.34-0.03,6.68-0.02,10.02-0.02C584.64,220.09,584.64,220.1,584.64,220.11z"/>
	<path class="st0" d="M240.27,251.61c0.59,1.08,1.19,2.16,1.85,3.36c0.74-0.77,1.28-1.5,2.08-2.1c0.53-0.4,1.47-0.91,2.15-0.87
		c0.69,0.04,1.47,0.64,1.85,1.1c0.51,0.63,0.79,1.36,0.95,2.06c0.08,0.34-0.36,0.73-0.56,1.09c-0.42-0.28-1.02-0.53-1.21-0.86
		c-0.42-0.73-0.63-1.51-0.93-2.26c-0.17-0.01-0.34-0.03-0.51-0.04c-0.73,0.85-1.44,1.71-2.19,2.54c-0.36,0.4-0.67,0.89-1.25,1.1
		c-0.43,0.16-1.76,0.03-1.81-0.1c-0.59-1.6-1.03-3.22-1.5-4.84C239.56,251.74,239.91,251.67,240.27,251.61z"/>
	<path class="st0" d="M610.34,341.24c2.93,0,5.86,0,9.1,0c0-2.01,0-3.83,0-5.66c0.22-0.01,0.44-0.02,0.65-0.03
		c1.07,0.77,0.42,1.76,0.53,2.63c0.12,0.93,0.03,1.88,0.03,2.88c2.24,0.08,4.2,0.15,6.17,0.22c0.01,0.13,0.02,0.25,0.03,0.38
		c-1.73,0.71-3.85,0.13-5.86,0.44c0,1.39,0,2.81,0,4.23c-0.22,0.02-0.44,0.04-0.66,0.06c-0.16-0.77-0.38-1.54-0.46-2.31
		c-0.21-2.04-0.18-2.05-3.59-2.07c-1.58-0.01-3.15,0-4.73-0.04c-0.45-0.01-0.89-0.15-1.34-0.23
		C610.25,341.56,610.3,341.4,610.34,341.24z"/>
	<path class="st0" d="M289.93,285.07c-0.74-1.11-1.4-2.07-2.21-3.28c0.64,0.14,1.12,0.16,1.27,0.29c0.6,0.58,1.35,1.16,1.58,1.8
		c0.41,1.15,1.48,1.35,3.21,1.34c1.48-0.01,2.98,0.24,4.44,0.46c0.4,0.06,0.66,0.45,0.99,0.69c-0.45,0.03-0.91,0.11-1.36,0.09
		c-1.98-0.12-3.95-0.27-6.06-0.41c0.21,1.37,0.39,2.53,0.57,3.71c-0.2,0.03-0.39,0.05-0.59,0.08c-0.6-1.24-1.2-2.47-1.84-3.8
		c-2.92,0-5.87,0-8.82,0c-0.02-0.16-0.04-0.32-0.06-0.48C283.88,285.4,286.72,285.24,289.93,285.07z"/>
	<path class="st0" d="M293.04,327.7c-2.09,0.93-3.66,0.79-4.4-0.33c-0.73-1.12-1.25-2.32-1.44-3.52c-0.55-3.35,0.33-6.59,2.51-9.7
		c0.08-0.12,0.29-0.2,0.88-0.21c-0.15,0.48-0.25,0.97-0.45,1.44c-1.51,3.47-1.96,6.96-0.5,10.48
		C290.04,326.82,290.49,327.75,293.04,327.7z"/>
	<path class="st0" d="M182.77,235.65c0.45-0.55,0.82-0.87,0.97-1.22c0.42-0.96,1.31-1.64,2.92-1.89c1.55-0.24,2.73,0.22,3.57,0.93
		c1.79,1.52,2.23,3.2,1.13,4.96c-0.73,1.18-2.48,1.53-4.27,0.88C184.61,238.42,183.58,236.92,182.77,235.65z M190.99,236.85
		c-0.13-0.05-0.26-0.11-0.4-0.16c-0.05-0.3-0.05-0.61-0.14-0.91c-0.48-1.51-1.96-2.53-3.38-2.36c-1.64,0.2-2.74,1.77-2.23,3.17
		c0.03,0.07,0.03,0.15,0.07,0.22c0.51,0.95,3.14,2.32,3.96,1.95C189.82,238.33,190.3,237.51,190.99,236.85z"/>
	<path class="st0" d="M611.96,336.2c-0.64,0.07-0.77,0.11-0.88,0.1c-5.41-0.52-6.21-1.26-5.05-4.51c0.53-1.48,0.99-2.97,1.4-4.46
		c0.12-0.42-0.06-0.87-0.12-1.55c-1.53,0.44-2.76,0.79-4,1.14c0.85-0.98,2.1-1.67,3.83-1.59c0.63,0.03,1.61,0.78,1.65,1.22
		c0.11,1.16-0.15,2.34-0.38,3.5c-0.18,0.94-0.45,1.88-0.84,2.79c-0.53,1.24,0.14,2.05,2.09,2.54
		C610.34,335.56,610.93,335.83,611.96,336.2z"/>
	<path class="st0" d="M360.72,257.51c0.87-0.7,1.5-1.33,2.32-1.83c1.27-0.78,2.77-0.61,3.48,0.38c0.42,0.59,0.73,1.24,0.77,1.87
		c0.03,0.47-0.47,0.96-0.72,1.44c-0.36-0.44-0.83-0.85-1.05-1.31c-0.29-0.59-0.38-1.21-0.55-1.82c-0.2-0.03-0.41-0.05-0.62-0.07
		c-0.61,0.59-1.09,1.24-1.85,1.75c-0.65,0.44-1.61,0.73-2.43,1.08c-0.46-0.51-1.06-0.98-1.35-1.52c-0.58-1.07-1-2.17-1.45-3.26
		c-0.08-0.19,0.05-0.42,0.09-0.63c0.4,0.03,0.98-0.02,1.17,0.12c0.42,0.31,0.73,0.7,0.93,1.09
		C359.91,255.65,360.27,256.53,360.72,257.51z"/>
	<path class="st0" d="M268.59,285.93c-0.27,0.82-0.51,1.54-0.74,2.26c-0.22,0-0.45-0.01-0.67-0.02c-0.03-0.78-0.3-1.6-0.03-2.35
		c0.24-0.67-0.06-1.05-0.73-1.5c-1.23-0.83-2.36-1.7-3.34-2.67c2.34,0.25,3.19,1.63,4.96,2.37c0.72-0.87,1.39-1.71,2.07-2.53
		c0.28,0.08,0.56,0.15,0.84,0.23c-0.36,0.73-0.53,1.53-1.12,2.19c-0.7,0.79-0.35,1.27,0.71,1.71c1.14,0.47,2.29,0.93,3.42,1.41
		c0.62,0.27,1.21,0.56,1.95,0.9C274.08,288.39,273.96,288.35,268.59,285.93z"/>
	<path class="st0" d="M516.5,240.42c-0.03-0.49-0.41-1.17-0.01-1.43c0.51-0.33,1.68-0.5,2.46-0.41c1.95,0.22,3.12,1.61,2.87,3.1
		c-0.24,1.39-1.53,2.24-3.48,2.3c-2.25,0.07-3.88-0.73-4.41-2.15c-0.46-1.24-0.2-2.25,0.92-2.93c0.09,0.37,0.17,0.64,0.22,0.91
		c0.09,0.53-0.07,1.12,0.28,1.56c0.48,0.59,1.23,1.17,2.11,1.54c0.35,0.15,1.87-0.21,1.97-0.46c0.27-0.73,0.21-1.53,0.02-2.28
		c-0.06-0.22-0.94-0.48-1.48-0.51c-0.26-0.02-0.61,0.44-0.92,0.68C516.86,240.36,516.68,240.39,516.5,240.42z"/>
	<path class="st0" d="M468.05,380.62c9.57,0,19.14,0,28.98,0C495.78,381.3,469.85,381.42,468.05,380.62z"/>
	<path class="st0" d="M472.76,384.55c0.73-0.17,1.46-0.48,2.21-0.5c4.27-0.11,8.55-0.1,12.81-0.25c1.62-0.06,3.25-0.37,4.81-0.69
		c1.31-0.27,2.52-0.67,3.88-0.23c-3.76,1.61-7.74,2.34-12.44,1.97c-3.63-0.29-7.37-0.06-11.05-0.06
		C472.9,384.7,472.83,384.63,472.76,384.55z"/>
	<path class="st0" d="M488.42,337.74c-7.71,0.52-15.43,0.68-23.16,0.28C466.72,337.14,486.07,336.94,488.42,337.74z"/>
	<path class="st0" d="M384.25,354.44c1.29,0.16,2.61,0.27,3.87,0.5c2.61,0.49,4.97,1.23,6.84,2.5c2,1.35,2.04,2.78,0.85,4.32
		c-0.73,0.95-1.39,1.92-2.24,2.84c-0.95,1.03-2.68,1.34-4.54,1.46c0.72-0.29,1.56-0.52,2.14-0.9c0.6-0.38,0.99-0.89,1.4-1.37
		c0.45-0.53,0.7-1.13,1.23-1.62c2.28-2.15,1.9-3.77-1.7-5.13c-2.09-0.79-4.55-1.23-6.85-1.82c-0.4-0.1-0.82-0.18-1.23-0.27
		C384.1,354.78,384.17,354.61,384.25,354.44z"/>
	<path class="st0" d="M542.74,254.79c0.52-0.05,1.03-0.13,1.54-0.14c5.61-0.1,11.22-0.2,16.84-0.28c1.47-0.02,2.89,0.04,3.85-0.85
		c0.21-0.2,0.92-0.21,1.6-0.35c-1.14,1.95-1.74,2.22-4.67,2.22c-5.8-0.01-11.61-0.03-17.41-0.05c-0.58,0-1.15-0.08-1.73-0.13
		C542.75,255.06,542.74,254.93,542.74,254.79z"/>
	<path class="st0" d="M516.72,299.1c-3.85-0.26-7.57-0.53-11.29-0.77c-2.81-0.18-5.63-0.31-8.44-0.52
		c-0.51-0.04-0.97-0.34-1.45-0.52c0.52-0.11,1.06-0.35,1.57-0.33c5.83,0.28,11.65,0.58,17.47,0.92
		C516.8,298.01,516.96,298.17,516.72,299.1z"/>
	<path class="st0" d="M364.4,243.23c-1.23-0.59-1.08-1.48-1.26-2.32c-0.17-0.8-0.51-1.58-0.77-2.36c-0.24-0.02-0.48-0.03-0.73-0.05
		c-0.74,0.85-1.4,1.72-2.24,2.53c-0.39,0.37-1.13,0.61-1.71,0.9c-0.34-0.37-0.86-0.72-0.99-1.12c-0.46-1.38-0.79-2.77-0.93-4.2
		c2.29,0.84,1.37,2.42,2.45,3.66c0.65-0.62,1.26-1.25,1.94-1.84c1.14-1,2.49-1,3.52,0.03c0.44,0.44,0.76,0.97,0.87,1.49
		c0.24,1.06,0.31,2.13,0.46,3.2C364.81,243.17,364.6,243.2,364.4,243.23z"/>
	<path class="st0" d="M309.64,393.61c0.3-0.14,0.59-0.39,0.91-0.41c6.5-0.32,13.03-0.82,19.37,0.59c0.63,0.14,1.09,0.54,1.44,0.99
		c-7.17-1.14-14.36-0.9-21.53-0.88C309.77,393.81,309.7,393.71,309.64,393.61z"/>
	<path class="st0" d="M241.55,233.87c0.64-0.55,1.2-1.1,1.87-1.58c1.21-0.86,2.68-0.8,3.44,0.22c0.83,1.11,1.6,2.27,0.7,3.72
		c-1.95-0.99-1.21-2.47-2.59-3.59c-0.8,0.78-1.42,1.5-2.24,2.14c-0.41,0.32-1.23,0.69-1.75,0.64c-0.48-0.05-1-0.61-1.17-0.99
		c-0.57-1.29-0.99-2.61-1.56-4.19C240.76,231.16,240.56,232.67,241.55,233.87z"/>
	<path class="st0" d="M351.4,284.12c-0.67-1.53-1.26-2.86-1.97-4.47c3.19,1.16,2.95,2.88,3.43,4.45c2.3,0,4.49,0,6.67,0
		c0.02,0.11,0.05,0.22,0.07,0.32c-2.21,0.15-4.42,0.3-6.82,0.46c-0.09,0.8-0.19,1.61-0.29,2.41c-0.23,0.02-0.46,0.04-0.69,0.07
		c-0.25-0.78-0.5-1.55-0.76-2.34c-2.4,0-4.71,0-7.01,0c-0.01-0.13-0.03-0.27-0.05-0.4C346.29,284.47,348.58,284.32,351.4,284.12z"/>
	<path class="st0" d="M402.72,392.73c-0.81,0.33-1.1,0.54-1.38,0.54c-4.58-0.05-9.15-0.15-13.73-0.19c-1.49-0.01-2.99,0.14-4.49,0.2
		c-0.26,0.01-0.74-0.08-0.76-0.16c-0.04-0.19,0.01-0.47,0.22-0.58c0.31-0.16,0.79-0.27,1.2-0.28c5.33-0.1,10.66-0.2,16-0.22
		C400.62,392.04,401.46,392.42,402.72,392.73z"/>
	<path class="st0" d="M311.43,236c1.56-1.83,3.11-3.66,4.67-5.49c0.21-0.03,0.42-0.05,0.62-0.08c0.33,0.53,0.85,1.06,0.97,1.61
		c0.37,1.73,0.56,3.46,0.88,5.19c0.13,0.69,0.41,1.36,0.62,2.04c-0.26,0.05-0.51,0.09-0.77,0.14c-0.61-1.09-1.42-2.16-1.78-3.28
		c-0.37-1.16-0.3-2.38-0.44-3.87c-1.51,1.48-2.76,2.71-4.02,3.94C311.94,236.13,311.69,236.07,311.43,236z"/>
	<path class="st0" d="M610.95,237.96c0.63-0.64,1.14-1.24,1.76-1.79c0.8-0.71,1.92-0.75,2.49,0c1.27,1.63,2.18,3.35,2.24,5.17
		c-0.17,0.03-0.34,0.07-0.51,0.11c-0.93-1.59-1.87-3.18-2.93-4.98c-0.84,0.9-1.48,1.67-2.24,2.38c-0.31,0.29-0.89,0.47-1.35,0.7
		c-0.29-0.3-0.72-0.58-0.85-0.9c-0.35-0.84-0.43-1.73-0.9-2.55c-0.33-0.58-1.12-1.06-1.71-1.58
		C608.45,233.96,608.45,233.96,610.95,237.96z"/>
	<path class="st0" d="M325.45,375.82c-0.85,0.1-1.48,0.17-2.12,0.25c-0.05-0.11-0.1-0.22-0.15-0.33c0.82-0.14,1.71-0.46,2.43-0.35
		c0.56,0.08,1.23,0.68,1.29,1.07c0.21,1.47,0.19,2.95,0.25,4.42c0.02,0.49-0.05,0.99,0.03,1.48c0.16,1.12,0.66,1.27,2.34,0.85
		c0.47-0.12,1.01-0.13,2.05-0.25c-1.31,1.01-2.08,1.87-4.02,1.55c-1.87-0.31-2.3-1.19-2.23-2.22c0.11-1.71,0.3-3.41,0.4-5.12
		C325.74,376.73,325.55,376.3,325.45,375.82z"/>
	<path class="st0" d="M460.11,364.54c0.14,0.32,0.34,0.64,0.4,0.96c0.52,2.83,1.02,5.67,1.51,8.51c0.22,1.28,0.4,2.56,0.31,3.85
		c-2.66-4.3-2.68-8.77-3.01-13.22C459.58,364.61,459.84,364.57,460.11,364.54z"/>
	<path class="st0" d="M528.51,334.75c-2.09-4.28-1.32-8.34-1.29-12.39c0.28-0.03,0.55-0.07,0.83-0.1c0.19,0.23,0.55,0.45,0.56,0.68
		c0.16,3.77,0.27,7.54,0.38,11.31C528.98,334.32,528.86,334.38,528.51,334.75z"/>
	<path class="st0" d="M555.49,338.86c-0.33,0.08-0.71,0.26-0.97,0.21c-5.04-1-10.28-0.8-15.46-0.97c-0.71-0.02-1.41-0.25-2.11-0.38
		c0.68-0.15,1.37-0.45,2.04-0.43c4.74,0.14,9.49,0.32,14.22,0.55c0.82,0.04,1.6,0.42,2.4,0.64
		C555.57,338.61,555.53,338.74,555.49,338.86z"/>
	<path class="st0" d="M375.78,388.13c-1.23,0.07-2.62,0.37-3.63,0.12c-0.68-0.17-1.12-1.11-1.17-1.73c-0.13-1.36,0.13-2.74,0.09-4.1
		c-0.05-1.54-0.75-1.97-3.63-2.11c0.86-0.3,1.48-0.66,1.74-0.58c0.96,0.29,2.18,0.61,2.6,1.12c0.61,0.75,0.7,1.68,0.83,2.54
		c0.13,0.87,0.13,1.75,0.04,2.62c-0.09,0.98,0.21,1.66,2.2,1.5c0.28-0.02,0.58,0.1,0.87,0.15
		C375.73,387.81,375.76,387.97,375.78,388.13z"/>
	<path class="st0" d="M336.33,394.91c0.87-0.11,1.73-0.26,2.61-0.31c4.44-0.26,8.87-0.49,13.31-0.73c0.25-0.01,0.53-0.05,0.75,0
		c0.53,0.12,1.04,0.29,1.55,0.44c-0.5,0.22-0.97,0.59-1.5,0.62c-2.5,0.14-5.01,0.2-7.52,0.28c-2.44,0.07-4.89,0.14-7.34,0.18
		c-0.61,0.01-1.23-0.09-1.84-0.13C336.34,395.14,336.34,395.02,336.33,394.91z"/>
	<path class="st0" d="M596.5,223.36c-2.96,1.18-17.59,1.65-20.07,0.4C583.4,223.62,589.85,223.49,596.5,223.36z"/>
	<path class="st0" d="M665.25,271.76c2.32,0,4.66-0.05,6.97,0.03c0.7,0.03,1.98,0.53,1.93,0.67c-0.26,0.67-1.08,0.37-1.96,0.33
		c-2.62-0.14-5.27-0.06-7.91-0.06c-2.14,0-4.28,0.01-6.41-0.04c-0.43-0.01-0.85-0.28-1.27-0.44c0.43-0.15,0.86-0.41,1.3-0.42
		c2.45-0.04,4.9-0.02,7.35-0.02C665.25,271.79,665.25,271.78,665.25,271.76z"/>
	<path class="st0" d="M615.99,302.28c-1.34,1.1-2.42,1.99-3.49,2.87c-0.19-0.06-0.38-0.13-0.58-0.19c0.16-0.27,0.26-0.55,0.5-0.79
		c0.75-0.74,1.5-1.5,2.38-2.18c0.4-0.32,1.11-0.49,1.68-0.72c0.36,0.37,0.93,0.72,1.06,1.12c0.37,1.19,0.56,2.4,0.83,3.6
		c0.08,0.34,0.3,0.67,0.28,1c-0.02,0.34-0.25,0.67-0.39,1c-0.47-0.23-1.26-0.42-1.34-0.69c-0.38-1.3-0.58-2.63-0.83-3.94
		C616.03,303.09,616.03,302.82,615.99,302.28z"/>
	<path class="st0" d="M485,301.5c-0.41,0.55-0.81,1.1-1.29,1.74c-0.75-0.96-0.24-2.28,0.94-2.55c1.74-0.41,2.64,0.41,2.9,1.14
		c0.64,1.77,0.96,3.58,1.32,5.39c0.04,0.2-0.47,0.45-0.73,0.67c-0.29-0.21-0.78-0.4-0.84-0.63c-0.31-1.2-0.44-2.42-0.76-3.62
		c-0.19-0.73-0.61-1.43-0.93-2.15C485.42,301.49,485.21,301.49,485,301.5z"/>
	<path class="st0" d="M546.28,295.72c-1.52-4.16-2.8-8.35-2.67-12.62c0.32-0.02,0.64-0.04,0.96-0.06
		C545.41,287.25,546,291.47,546.28,295.72z"/>
	<path class="st0" d="M344.07,327.31c-2.42-1.08-1.27-2.84-1.96-4.43c-0.65,0.67-1.19,1.21-1.79,1.82
		c-0.82-0.95,0.74-3.22,2.11-3.25c0.43-0.01,1.22,0.36,1.28,0.61c0.41,1.71,0.68,3.43,0.99,5.14
		C344.49,327.24,344.28,327.28,344.07,327.31z"/>
	<path class="st0" d="M402.64,281.89c-1.13,0.11-1.76,0.24-2.38,0.21c-3.89-0.14-7.79-0.31-11.68-0.51
		c-0.38-0.02-0.71-0.31-1.07-0.47c0.33-0.13,0.68-0.39,1-0.37c4.27,0.18,8.53,0.39,12.79,0.62
		C401.6,281.39,401.88,281.59,402.64,281.89z"/>
	<path class="st0" d="M498.39,301.4c6.41-0.01,12.74,0.52,19.05,1.16c-0.02,0.12-0.03,0.25-0.05,0.37
		c-6.35-0.29-12.7-0.58-19.05-0.87C498.35,301.84,498.37,301.62,498.39,301.4z"/>
	<path class="st0" d="M278.8,195.96c1.93,0.53,3.47,7.11,2.51,8.68c-0.38-0.26-0.87-0.44-0.92-0.65
		C279.84,201.41,279.36,198.82,278.8,195.96z"/>
	<path class="st0" d="M651.66,392.69c-0.53,1.01-0.76,2.08-2.43,2c-1.95-0.09-1.45-1.23-1.49-2.02c-0.07-1.33-0.06-2.66,0.04-3.99
		c0.03-0.37,0.5-0.72,0.76-1.08c0.26,0.38,0.72,0.76,0.75,1.14c0.12,1.4,0.09,2.81,0.13,4.22c0.01,0.25,0.09,0.49,0.17,0.91
		C650.33,393.46,650.85,393.16,651.66,392.69z"/>
	<path class="st0" d="M592.51,303.69c-0.81,0.19-1.62,0.53-2.43,0.53c-3.27,0.01-6.54-0.07-9.8-0.15c-0.48-0.01-0.95-0.2-1.42-0.31
		c0.41-0.16,0.82-0.44,1.24-0.45c3.32-0.06,6.66-0.07,9.98-0.1c0.71,0,1.42,0,2.14,0C592.31,303.38,592.41,303.53,592.51,303.69z"/>
	<path class="st0" d="M574.75,215.01c-0.21-1.86-0.4-3.55-0.61-5.42c-0.98,0.64-1.89,1.23-2.97,1.94c0.08-0.91,2.18-2.86,3.12-2.95
		c0.39-0.04,1.24,0.24,1.26,0.4c0.17,1.84,0.23,3.68,0.26,5.53C575.8,214.63,575.28,214.76,574.75,215.01z"/>
	<path class="st0" d="M308.54,288.8c-1.66-0.88-3.11-1.66-3.37-2.99c-0.3-1.54-0.78-3.07-1.1-4.61c-0.06-0.3,0.26-0.62,0.41-0.94
		c0.27,0.26,0.67,0.5,0.77,0.78c0.34,0.92,0.56,1.86,0.83,2.8c0.4,1.41,0.65,2.86,2.24,4.04c0.19,0.14,0.26,0.34,0.35,0.52
		C308.72,288.45,308.64,288.53,308.54,288.8z"/>
	<path class="st0" d="M521.73,363.14c0.71,3.72,1.42,7.44,2.13,11.16c-0.17,0.01-0.33,0.02-0.5,0.04c-0.92-3.7-3.32-7.3-2.21-11.15
		C521.34,363.18,521.53,363.16,521.73,363.14z"/>
	<path class="st0" d="M414.46,201.05c-0.02,0.07-0.02,0.36-0.21,0.59c-0.18,0.21-0.58,0.53-0.85,0.51
		c-0.41-0.02-1.09-0.25-1.14-0.44c-0.45-1.91-0.8-3.82-1.13-5.74c-0.02-0.1,0.39-0.23,0.6-0.35c0.23,0.19,0.6,0.37,0.67,0.58
		c0.41,1.38,0.74,2.77,1.14,4.15C413.59,200.53,413.94,200.67,414.46,201.05z"/>
	<path class="st0" d="M658.59,276.08c5.35-0.19,10.69-0.39,16.04-0.58c0.02,0.16,0.03,0.32,0.04,0.48
		c-5.28,0.7-10.65,0.63-16.01,0.59C658.63,276.41,658.61,276.25,658.59,276.08z"/>
	<path class="st0" d="M312.13,322.68c-0.84,0.71-1.33,1.13-1.82,1.55c-0.23-0.08-0.45-0.15-0.68-0.23c0.69-0.75,1.34-1.52,2.11-2.23
		c0.1-0.09,0.95,0.02,1.31,0.17c0.22,0.09,0.18,0.42,0.25,0.64c0.45,1.65,0.9,3.29,1.36,4.95
		C312.14,326.41,311.95,324.74,312.13,322.68z"/>
	<path class="st0" d="M556.79,341.95c-5.2,0-10.4,0-15.6,0c0-0.12,0.01-0.23,0.02-0.35C546.42,341.13,551.64,341.11,556.79,341.95z"
		/>
	<path class="st0" d="M555.54,213.27c2.14-0.08,4.28-0.15,6.42-0.25c0.6-0.03,1.2-0.11,1.79-0.19c0.48-0.07,0.95-0.2,1.42-0.3
		c-0.13,0.45-0.03,1-0.43,1.32C564.24,214.26,556.35,213.95,555.54,213.27z"/>
	<path class="st0" d="M383.38,243.56c-0.35-1.64-0.69-3.28-1.03-4.92c-0.16-0.02-0.31-0.03-0.47-0.05c-0.7,0.66-1.41,1.32-2.11,1.98
		c-0.18-0.06-0.36-0.12-0.54-0.18c0.65-0.74,1.14-1.56,1.98-2.21c0.92-0.71,1.97-0.26,2.31,0.35c0.47,0.85,0.69,1.77,0.77,2.66
		c0.06,0.77-0.24,1.55-0.39,2.33C383.73,243.54,383.55,243.55,383.38,243.56z"/>
	<path class="st0" d="M398.61,285.27c-4.58,0-9.17,0-13.75,0c-0.05-0.09-0.11-0.19-0.16-0.28c0.47-0.14,0.94-0.4,1.4-0.4
		c4.03,0.06,8.06,0.16,12.1,0.26c0.15,0,0.3,0.11,0.45,0.16C398.62,285.1,398.62,285.18,398.61,285.27z"/>
	<path class="st0" d="M322.03,329.27c-0.79-0.56-1.89-1.04-2.29-1.69c-0.65-1.05-0.87-2.2-1.19-3.32c-0.06-0.2,0.28-0.43,0.43-0.65
		c0.32,0.14,0.85,0.24,0.93,0.42c0.39,0.88,0.58,1.79,1.02,2.65c0.41,0.8,1.06,1.57,1.61,2.35
		C322.37,329.11,322.2,329.19,322.03,329.27z"/>
	<path class="st0" d="M493.34,199.13c0.18-0.27,0.54-0.81,0.9-1.36c0.28,0.56,0.58,1.11,0.83,1.67c0.32,0.69,0.76,1.39,0.83,2.09
		c0.04,0.4-0.55,0.82-0.86,1.24c-0.42-0.27-1.09-0.51-1.2-0.82C493.56,201.14,493.53,200.31,493.34,199.13z"/>
	<path class="st0" d="M456.91,299.05c-4.3,0-8.23,0-12.4,0C445.48,298.32,454.02,298.4,456.91,299.05z"/>
	<path class="st0" d="M385.61,395.62c4.71,0,9.22,0,14.03,0C398.01,396.33,386.78,396.32,385.61,395.62z"/>
	<path class="st0" d="M354.93,200.99c-1.73-0.68-3.32-3.38-2.73-4.19c0.09-0.12,0.42-0.29,0.49-0.27c0.3,0.1,0.56,0.24,0.79,0.4
		c0.11,0.08,0.13,0.21,0.16,0.32C354.06,198.42,354.46,199.6,354.93,200.99z"/>
	<path class="st0" d="M376.49,241.89c-2.9,0-5.8,0-8.79,0C368.74,241.41,374.4,241.28,376.49,241.89z"/>
	<path class="st0" d="M207.07,247.21c-0.9-0.14-2.1-0.15-2.22-0.38c-0.28-0.52-0.04-1.14-0.01-1.72c0.43,0.13,1.04,0.19,1.24,0.4
		C206.47,245.9,206.61,246.38,207.07,247.21z"/>
	<path class="st0" d="M330.36,247.21c-1.98,0.55-2.39,0.41-2.8-1.1C328.44,246.45,329.33,246.8,330.36,247.21z"/>
	<path class="st0" d="M478.93,250.22c-0.32,0.66-0.41,1.03-0.69,1.35c-0.21,0.23-0.65,0.41-1.05,0.53c-0.13,0.04-0.68-0.2-0.67-0.28
		c0.06-0.26,0.19-0.56,0.48-0.75C477.41,250.8,477.98,250.62,478.93,250.22z"/>
	<path class="st0" d="M656.56,260.16c-0.53-0.52-0.98-0.79-1.06-1.09c-0.05-0.21,0.41-0.46,0.64-0.69c0.4,0.28,0.91,0.53,1.15,0.86
		C657.39,259.38,656.96,259.67,656.56,260.16z"/>
	<path class="st0" d="M181.2,367.84c-0.17,2.08-1.02,3.43-3.19,4.36c-1.99,0.86-4.53,0.53-5.66-0.78c-1.17-1.36-1.43-2.75,0.38-4.04
		c0.19-0.14,0.34-0.31,0.42-0.48c1.01-1.98,3.88-2.48,6.27-0.99C180.4,366.53,180.85,367.45,181.2,367.84z M173.26,368.2
		c-0.19,0.01-0.37,0.03-0.56,0.04c0.18,0.85,0.09,1.76,0.61,2.52c0.87,1.29,3.13,1.52,4.47,0.39c1-0.83,1.55-1.95,1.84-2.98
		c0.26-0.93-0.7-1.66-2.25-2.01c-1.57-0.35-2.77,0-2.77,0.99c0,0.8,0.52,1.6,0.83,2.47C174.72,369.15,173.99,368.67,173.26,368.2z"
		/>
</g>
</svg>
