<?xml version="1.0" encoding="utf-8"?>
<!-- Generator: Adobe Illustrator 24.1.1, SVG Export Plug-In . SVG Version: 6.00 Build 0)  -->
<svg version="1.1"
	 id="svg2" xmlns:cc="http://creativecommons.org/ns#" xmlns:dc="http://purl.org/dc/elements/1.1/" xmlns:inkscape="http://www.inkscape.org/namespaces/inkscape" xmlns:rdf="http://www.w3.org/1999/02/22-rdf-syntax-ns#" xmlns:sodipodi="http://sodipodi.sourceforge.net/DTD/sodipodi-0.dtd" xmlns:svg="http://www.w3.org/2000/svg"
	 xmlns="http://www.w3.org/2000/svg" xmlns:xlink="http://www.w3.org/1999/xlink" x="0px" y="0px" viewBox="0 0 1433.6 606.4"
	 style="enable-background:new 0 0 1433.6 606.4;" xml:space="preserve">
<style type="text/css">
	.st0{fill:#424F6F;}
</style>
<sodipodi:namedview  bordercolor="#666666" borderopacity="1" gridtolerance="10" guidetolerance="10" id="namedview4" inkscape:pageopacity="0" inkscape:pageshadow="2" inkscape:window-height="480" inkscape:window-width="640" objecttolerance="10" pagecolor="#ffffff">
	</sodipodi:namedview>
<g>
	<path class="st0" d="M349,486.2c-0.7,7.4-2.2,14-5.1,20.2c-4.5,9.5-11.3,17-19.3,23.7c-13.5,11.2-29.3,17.8-46,22.4
		c-12,3.3-24.3,4.8-36.7,5.1c-0.9,0-1.8,0.2-3,0.3c-0.1,1.1-0.3,2.1-0.3,3.1c0,8.7-0.1,17.3,0,26c0,2.4,0.7,4.7,0.8,7.1
		c0,0.8-0.8,1.7-1.2,2.6c-0.6-0.7-1.5-1.4-1.8-2.2c-0.3-1-0.2-2.1-0.2-3.2c0-9.7,0-19.5,0-29.2c0-1.3,0-2.6,0-4.1
		c-5.7-0.4-11-0.7-16.3-1.2c-16.4-1.5-32.2-5.6-47.2-12.5c-8.3-3.8-16.2-8.2-23.1-14.1c-10.7-9.2-19.4-19.8-22.7-33.9
		c-0.6-2.5-1-4.9-1.5-7.5c-20.4,0-40.6,0-61.5,0c0,2.2,0,3.9,0,5.6c0.1,16.3,0.4,32.5,0.3,48.8c-0.1,11.7-0.7,23.4-1.1,35.2
		c0,1-0.4,1.9-0.6,3.1c-2.4-0.8-1.8-2.4-1.7-3.8c0.3-6.5,0.9-13,0.9-19.6c0.1-22.3-0.1-44.5-0.2-66.8c0-0.6-0.2-1.3-0.3-2
		c-7.1-1.2-14.1,0.9-21-1c-0.1,0-0.1-0.5-0.4-1.4c7.2-0.2,14.2-0.3,21.8-0.5c0-10.4,0.1-20.5,0-30.6s-0.2-20.3-0.5-30.4
		S60.2,405.2,60,395c-0.2-10-1.4-20-1.2-30c0.5-0.1,1-0.1,1.5-0.2c0.3,1.5,0.8,3.1,0.9,4.6c0.7,13.7,1.3,27.4,1.9,41.1
		c0.1,1.6,0.1,3.2,0.2,5.2c1.5,0,2.8,0.2,4,0c8.6-1.7,17.2-1.8,25.9-1.6c15.2,0.4,30.3-0.9,45.5-1.8c7-0.4,14.1,0.1,21.2,0.2
		c1.4,0,2.9,0,4.5,0c1.4-16.1-1.2-31.5-2-47.3c-2.9,1.3-2,5.5-6,5.9c1.2-5.6,4.1-10.2,5.9-15.4c2.9,0.8,3.8,3,4.9,5.1
		c1,2,2,4.1,3.3,5.9c1.3,1.9,3.4,3.3,3.5,6c-2.9-1-2.9-1-9.1-9.5c0.9,16.2,1.8,32.3,2.8,49c1.6,0.1,3.4,0.2,5.3,0.2
		c10.8,0.1,21.6,0,32.4,0.2c1.8,0,3.5,0.7,5.3,1.1c0.5,0.1,1,0.3,1.5,0.2c8.3-0.8,16.6-1.6,25.5-2.4c0-15,0-30.1,0-46
		c-2.9,4.6-5.5,8.7-8,12.6c-2.3-0.5-1.6-1.7-1-2.8c1.4-2.7,2.7-5.5,4.2-8.2s3-5.4,4.5-8c2-3.3,3.8-3.3,5.9,0
		c1.1,1.7,1.9,3.5,2.8,5.3c1.8,3.5,3.7,7.1,5.5,10.7c0.7,1.4,1.2,2.9,1.8,4.4c-2.2,1-2.5-0.4-3.1-1.5c-2.1-4.3-4.3-8.6-6.5-12.8
		c-0.6-1.2-1.3-2.3-2-3.6c-1.4,2.8-2.5,43.8-1.3,50.2c5.5,0.5,11,0.9,16.5,1.5c21.9,2.4,42.5,9,60.9,21.3
		c11.4,7.6,21.1,17.2,26.4,30.3c2,4.9,2.8,10.2,4.1,15.4c0.3,1,0.3,2,0.4,3c22.6,1.5,44.9,3.2,67.2,4.2c22.1,1,44.3,1.1,67.4,1.6
		c-1.2,1-1.6,1.7-2.2,1.8c-0.9,0.2-1.9,0.1-2.8,0.1c-19.3-0.3-38.7-0.3-58-0.9c-14-0.5-27.9-2-41.9-2.8
		C369,486.9,359.2,486.6,349,486.2z M301.7,483.7c0.1-2.2,0.1-3.6,0.2-5.1c0.1-1.3,0.3-2.7,0.5-4c0.4,0,0.9,0,1.3,0
		c0.3,2.9,0.6,5.8,0.9,8.8c14,0,27.7,0,41.7,0c-0.2-9.5-3.2-17.9-8.2-25.4c-8.4-12.6-19.9-21.6-33.4-28.3
		c-16.9-8.4-34.9-12.9-53.6-14.5c-3.4-0.3-6.8-0.4-10.9-0.7c0.3,23.6-0.5,46.7,0.7,70.3C261.2,484.5,281.2,484.1,301.7,483.7z
		 M164.9,414.9c-9.4,0-18.2-0.2-27,0.1c-10.5,0.3-21,1.3-31.5,1.6c-8.3,0.3-16.5-0.1-24.8,0.2c-5.9,0.2-11.8,1.2-17.7,1.8
		c0,22.8,0,45.2,0,67.9c20.7,0.1,40.9,0.8,61.1-0.8c0.2-1.4,0.4-2.5,0.5-3.5c1-13.9,7.1-25.4,16.6-35.4c6-6.3,12.7-11.8,20.4-15.9
		c1.3-0.7,2.4-1.5,2.4-3.3C164.9,423.6,164.9,419.6,164.9,414.9z M128.1,487.9c0.4,2.8,0.5,4.7,0.9,6.7c3,13.4,10.8,23.8,21,32.6
		c7.6,6.6,16.3,11.5,25.5,15.6c18.4,8.2,37.8,11.8,57.8,12.4c1,0,2-0.2,3.1-0.3c1-22.6,4.1-44.8,1.6-67.3c-4.4,0-8.6,0-12.8,0
		c-17.6,0-35.2,0-52.8,0c-5.1,0-5,0-5.3,4.9c-0.1,1.3-0.5,2.5-0.8,3.8c-0.4,0-0.8-0.1-1.3-0.1c-0.1-1.3-0.2-2.7-0.2-4
		c0-1.4,0-2.8,0-4.3C152.2,487.9,140.4,487.9,128.1,487.9z M238.6,555.2c2.8,0,4.8,0.1,6.7,0c11.7-0.9,23.3-2.2,34.6-5.6
		c16.4-4.8,31.8-11.4,44.9-22.8c9.9-8.6,17.4-18.7,20.4-31.7c0.6-2.8,0.8-5.6,1.3-8.8c-14.4,0-28,0-42.1,0c0,1.7,0,3.1,0,4.5
		c0,1.3-0.2,2.7-0.3,4c-3.2-2.3-1.1-5.8-2.9-8.7c-20,0.4-40,0.8-60.3,1.3c0,11.6,0.3,22.7-0.1,33.7
		C240.4,532.2,239.4,543.4,238.6,555.2z M237.9,414.6c-5.3,0.3-10,0.3-14.6,0.7c-11.8,1-11.8,1.1-17.8,11.4
		c-5.7,9.7-11.5,19.4-17.3,29.1c-1.5,2.5-2.9,5-4.4,7.6c9.1,4.6,12.6,11.4,9.9,18.6c-1.4-1.1-1.5-1.1-1.5-3.3
		c0-6.6-4.2-12.7-9.9-12.3c-4,6.1-8,12.2-12.4,18.9c23.2,0,45.6,0.3,68-0.5C237.9,461.4,237.9,438.4,237.9,414.6z M165,485.2
		c-2.1-8.9-2.5-17.4-1.5-25.9c1-8.7,1.5-17.4,1.3-26.3c-19.6,8.7-38.9,33-36.4,52.2C140.4,485.2,152.3,485.2,165,485.2z
		 M178.9,465.2c0.4,0.1,0.7,0.2,1.1,0.3c9.3-15.8,18.6-31.6,27.9-47.3c-0.2-0.2-0.4-0.5-0.7-0.7c-1.3,0.2-2.6,0.3-3.8,0.6
		c-11.3,2.5-22.3,6.2-32.8,11.2c-2.5,1.2-3.4,2.7-3.4,5.4c-0.2,7.7-0.3,15.5-1.2,23.1c-1,8.6-0.5,17,1.7,26.1
		c3.9-5.7,7.4-10.9,11.1-16.3c-2.5-0.9-2.2-2.6-2.4-4.2c-0.3-3.1-0.6-6.3-1.3-9.4c-1-4.4,1.3-7.3,5.8-6.9c2.2,0.2,3.8,1.3,4.3,3.5
		c0.6,2.4-0.8,3.8-2.7,4.7c-1.2,0.6-2.5,0.8-4,1.3C178.6,459.5,178.8,462.4,178.9,465.2z M167.5,427.3c11.8-4.1,23.1-8.1,34.4-12.1
		c-11.3,0-22.7,0-34.4,0C167.5,419.5,167.5,423.4,167.5,427.3z M183.2,451.8c-1.7-2.3-3.7-2.9-4.8-1.6c-0.5,0.6-0.5,2.2,0,2.7
		C180.2,454.7,181.6,453.3,183.2,451.8z"/>
	<path class="st0" d="M707,394.4c-1.2,0.2-2.4,0.6-3.6,0.6c-14.5,0.4-29,0.6-43.6,1.1c-12.6,0.5-25.3,1.3-37.9,1.9
		c-9.8,0.4-19.7,0.7-29.6,1.1c-1.3,0-2.6,0-4.1,0c-1,4.9-0.4,9.4,1.8,14.8c-1.5-0.7-2.6-0.9-2.7-1.3c-0.7-2.4-1.4-4.8-1.8-7.3
		c-0.3-1.8-0.1-3.6-0.1-5.4c-13.7,0-26.8-0.5-39.9,0.1c-12.9,0.6-25.8,2.3-38.8,3.5c-0.1-0.4-0.3-0.8-0.4-1.3
		c0.8-0.4,1.5-1.1,2.3-1.1c13.8-0.7,27.4-4,41.3-3.7c10.9,0.3,21.8-0.3,32.8-0.6c0.6,0,1.3-0.2,2.6-0.3c-0.6-8.8-1.1-17.4-1.7-26.8
		c2.7-3.5,8.6-4.9,13.2-2.4c3,1.6,3.8,5,2,7.8c-2.1,3.3-6,5.4-11.3,6.4c0,5,0,10,0,15.3c40.1-0.6,79.6-4.5,119.2-4
		C706.9,393.4,706.9,393.9,707,394.4z M586.3,370.2c-0.6,3.9,0.8,6.4,3.8,8.5c1.8-1.1,3.9-1.9,5.5-3.4c1-0.9,1.8-2.8,1.6-4.1
		c-0.2-1-1.9-2-3.2-2.4C591.2,367.8,588.5,368.4,586.3,370.2z"/>
	<path class="st0" d="M115.9,111c-1.2,0.2-2.4,0.4-3.6,0.4c-13.4,0.9-26.8,1.7-40.3,2.5c-4,0.2-8,0.4-12,0.1
		c-3.5-0.3-4.5-2.4-2.4-5.2c2.2-2.9,5-5.5,7.9-7.8c7.4-5.9,15-11.5,22.4-17.4c2.5-1.9,4.8-4.2,7.8-6.8c-2-1.1-3.2-2.2-4.5-2.5
		c-6.9-1.4-13.8-2.8-20.8-3.9c-3.1-0.5-6.4-0.6-9.5-0.9c-2.3-0.2-2.3-0.2-3.2-2.5c4.6-1.5,55.1-0.8,58.3,1.5
		c-1.3,0.2-2.6,0.5-3.8,0.5c-8.8-0.1-17.6-0.2-26.4-0.4c-2.1,0-4.2,0-6.4,0.5c4,0.9,7.9,1.7,11.9,2.7c1.1,0.3,2.3,0.7,3.3,1.3
		c2.8,1.6,3.3,3.7,1.4,6.2c-1.3,1.8-3.1,3.3-4.8,4.7c-8.4,6.6-16.9,13-25.2,19.6c-2.6,2-5.3,4-7,7.7c1.8,0.2,3.1,0.5,4.5,0.4
		c8.2-0.5,16.5-1.3,24.7-1.7c8.1-0.5,16.2-0.7,24.4-0.9c1.1,0,2.3,0.4,3.5,0.7C116,110.3,116,110.7,115.9,111z"/>
	<path class="st0" d="M767.9,431.8c2.1,0.1,3.3,0.2,4.6,0.2c13.3-0.1,26.6-0.1,40-0.2c1.5,0,3.2-0.6,4.3,1.7
		c-0.8,0.2-1.5,0.6-2.2,0.6c-14.3,0.1-28.5,0.2-42.8,0.3c-0.8,0-1.6,0-2.4-0.1c-3.2-0.4-4.5-2.3-2.6-4.9c2.9-3.9,6.3-7.5,9.9-10.9
		c5.7-5.2,11.7-10.1,17.5-15.2c0.8-0.7,1.6-1.5,2.2-2.3c1.5-2.2,1.4-3.5-0.9-5c-6.3-4.2-13.2-7.1-20.5-8.4c-3.2-0.6-5.4-1.8-7.1-4.4
		c2.3-1.1,39.9-3.3,45.6-2.6c0.8,0.1,1.5,0.6,2.2,1.5c-6.5,1.1-13.1,0.8-19.6,1.2c-6.6,0.4-13.2,0.7-19.8,1.5
		c4.5,1.7,9,3.3,13.4,5.2c2.7,1.2,5.3,2.5,7.6,4.2c3,2.2,3.5,4.7,1.1,7.5c-3.2,3.7-6.9,7-10.5,10.3c-5.5,5-11.1,9.9-16.6,14.9
		C770.1,428.3,769.3,429.9,767.9,431.8z"/>
	<path class="st0" d="M1386.4,151.8c0.7,0.7,1.6,1.2,2.2,2c7.7,9.9,14,20.7,19.1,32.2c4.7,10.7,9.7,21.4,12,33
		c2.5,12,5.1,23.9,5.3,36.3c0.1,6.1-1.1,11.9-3.1,17.6c-2.5,7.3-5.4,14.5-8,21.7c-0.5,1.5-1,3-1.8,5.2c-0.8-1.1-1.6-1.7-1.6-2.3
		c0-1,0.5-2,0.9-3c2.4-6.5,4.8-13,7.3-19.5c3.9-10.2,4.8-20.6,3.1-31.4c-2-12.8-3.8-25.6-8.4-37.8c-5.7-15.1-12.2-29.9-21.2-43.3
		c-1.6-2.3-3.4-4.4-5-6.7c-0.7-1-1.2-2.2-1.7-3.3C1385.7,152.4,1386.1,152.1,1386.4,151.8z"/>
	<path class="st0" d="M670.4,479.5c1.5,5.9,0.7,12.7,5.8,17.6c4.5-4,2.8-9.9,4.8-14.4c0.3,0,0.7-0.1,1-0.1c1.1,5.3,2.3,10.5,3.4,16
		c1.4-0.5,2.3-0.8,3.9-1.4c-1.1,3.6-3.9,6.5-0.9,9.8c5.5,0,11.2,0,16.9,0c1.3,0,2.7,0,4,0.1c0.8,0.1,1.5,0.4,2.2,0.7
		c-0.3,0.5-0.7,1.1-1,1.6c-7.1,0-14.2,0-21.5,0c0.2,3,0.4,5.3,0.5,7.7c0,1.5,0,3-0.3,4.4c-0.4,1.9-1,4.1-3.6,4.1
		c-2.4,0.1-4.4-1-5-3.2c-0.7-2.8-1-5.7-1.3-8.6c-0.1-1.1,0.3-2.3,0.5-4c-6.6,0.3-12.9,0.5-19.5,0.8c0.4-2.6,2.1-2.4,3.4-2.5
		c4.7-0.3,9.3-0.5,14-0.7c3.8-0.2,6.6-3.9,5.6-7.5c-0.5-1.8-1-3.5-1.7-6c-0.9,1.2-1.4,1.9-1.8,2.5c-2.4,3.6-5.1,3.7-7.4,0
		c-2.4-3.7-3.5-8-3.8-12.5c-0.1-1.4,0-2.8,0-4.2C669.3,479.8,669.9,479.6,670.4,479.5z M686.1,523.1c1.7-4,1.3-7.9,0.3-11.8
		c-0.2-0.7-1.4-1.4-2.3-1.5c-0.6-0.1-1.7,1-1.8,1.5c-0.2,3-0.3,6,0,9C682.5,521.9,683.6,523.2,686.1,523.1z"/>
	<path class="st0" d="M1034.8,285c-2.6,1.6-3.7,0.6-4.8-1c-3-4.3-4.6-9.3-5.8-14.4c-4.8-19-5.2-38.3-3.7-57.6
		c0.8-10.7,2.4-21.5,4.4-32c1.8-9.7,4.1-19.3,9.3-27.9c0.3-0.5,0.5-1,0.8-1.4c0.6-1,1.2-2.5,2.6-1.4c0.4,0.3,0.2,2-0.3,2.7
		c-8.1,12.8-10.2,27.3-12.5,41.7c-3,18.8-3.6,37.7-1.5,56.6c1,8.7,3.3,17.2,5.4,25.7C1029.5,279.5,1031.3,282.7,1034.8,285z"/>
	<path class="st0" d="M1319.6,321.1c-0.8,0.2-1.6,0.6-2.4,0.7c-2.8,0.2-5.6,0.4-8.4,0.4c-23.8,0.4-47.7,0.7-71.5,1.2
		c-13.6,0.3-27.1,0.8-40.7,1.2c-1.3,0-2.5,0-3.8,0c-0.3-2.7,1.5-2.2,2.6-2.3c5.6-0.3,11.2-0.5,16.8-0.6c32.7-0.6,65.5-1.2,98.2-1.8
		c1.9,0,3.7-0.3,5.6-0.3c1.2,0,2.4,0.2,3.7,0.3C1319.6,320.3,1319.6,320.7,1319.6,321.1z"/>
	<path class="st0" d="M119,256.2c-1.7-11.8-3.4-23.1-5.1-34.1c-2.9-1.9-5.7,2.3-9.2-0.6c3.2-1.1,5.7-2,8.6-3.1
		c-0.2-3.5-0.5-7-0.8-10.9c-4.4,2.1-6.5,6.9-12,8.4c0.8-1.4,1-2.1,1.5-2.6c0.7-0.8,1.6-1.5,2.4-2.1c5.7-4.3,9.4-9.5,8.3-17.3
		c-0.3-2.4,0.6-5,1.3-7.4c0.4-1.6,1.8-3.1,3.6-2.4c1.1,0.4,2.6,1.9,2.6,3c0.2,2.6-0.3,5.2-0.8,7.8c-0.2,1.3-1,2.4-1.6,3.6
		c-0.9,2-2.6,4-2.7,6.1c-0.2,4.2,0.3,8.4,0.6,13.1c3.8-0.7,7-1.3,10.3-1.9c0.1,0.4,0.2,0.7,0.3,1.1c-2.4,2.8-6.6,1.8-9.9,4.1
		c0.8,5.8,1.6,11.8,2.5,17.8c0.7,4.6,1.4,9.2,2.1,13.8C121.1,253.9,121.3,255.4,119,256.2z M117.3,186.1c-3.1,3.7-2.3,7.3-1.9,10.9
		C117.5,193.9,119,190.6,117.3,186.1z"/>
	<path class="st0" d="M883.4,494.9c0.7,1.3,1.7,2.5,2.1,3.9c1.5,5.1,2.7,10.3,4,15.4c0.4,1.5,0.7,3,1.1,4.5c0.3,0,0.6,0.1,0.9,0.1
		c0.6-1.5,1.3-3.1,1.7-4.6c1.6-5.5,3.1-11,4.6-16.5c0.1-0.4,0.1-0.8,0.4-1.1c0.5-0.7,1.2-1.7,1.8-1.7c0.7,0,1.4,1,1.9,1.6
		s0.8,1.4,0.9,2.2c1.5,9.4,2.9,18.8,4.4,28.3c-2.8,0.6-2.7-1.3-3-2.6c-0.5-2.5-0.7-5-1-7.5c-0.6-4.5-1.1-9-1.7-13.5
		c-0.2-1.3-0.6-2.5-1.1-4.5c-4.1,8.3-3.8,17.4-8.8,24.6c-2.9-1.3-3.1-3.4-3.6-5.3c-1-4.1-1.8-8.3-2.8-12.5c-0.3-1.5-1-2.9-1.7-5.3
		c-3.1,10.2-4.2,20-7.4,29.1c-0.3,0-0.7,0-1,0.1c-0.3-0.7-1-1.5-0.8-2.1c2.3-10,4.7-19.9,7.2-29.9c0.2-0.9,0.6-1.7,0.9-2.5
		C882.6,495.1,883,495,883.4,494.9z"/>
	<path class="st0" d="M745,94c-2.4,4.2-6.3,1.7-8.9,3.7c0.8,4.7,1.7,9.5,2.5,14.3c0.7,4.2,1.3,8.4,1.8,12.6c0.1,0.9-0.4,1.8-0.6,2.7
		c-0.4,0-0.8,0.1-1.2,0.1c-0.3-1-0.7-1.9-0.9-2.9c-1.3-8.9-2.6-17.8-3.8-26.7c-5-0.9-9.5,0.2-13.9-1.3c3.7-2.7,8.2-0.5,12.8-2.1
		c-0.5-4.3-1.1-8.7-1.7-13.3c-4.3,1.5-7,6.2-12.7,5.1c0.8-0.9,1.2-1.5,1.7-1.8c0.9-0.5,2.1-0.6,3-1.1c4.6-2.8,9-5.5,7.5-12.3
		c-0.6-2.5,0.5-5.5,1.1-8.2c0.4-1.8,1.8-3,3.8-2.8c2.1,0.2,2.7,1.9,2.9,3.7c0.5,4.3-0.8,8.2-3.3,11.6c-1.5,2-2,4-1.6,6.3
		c0.6,4.2,1.2,8.4,1.8,12.9C738.6,94.4,741.4,94.2,745,94z M735.7,62.4c-2.8,2-3.5,6.2-1.9,11.2C735.4,69.7,737.7,66.5,735.7,62.4z"
		/>
	<path class="st0" d="M322.3,214.9c3.8-1.2,6.9-2.1,10.3-3.1c-1.1,3-1.9,3.5-10,5.5c-0.9,12,1,24.2,0.7,36.3c-0.5,0-1,0.1-1.5,0.1
		c-0.3-1.8-0.8-3.7-0.9-5.5c-0.4-9.1-0.6-18.1-0.9-27.2c0-1-0.1-2.1-0.2-3.3c-3.2-0.2-6.3-0.3-9.3-0.5c2.5-3.4,6.3-1,9.3-2.8
		c0-4.1,0-8.3,0-12.7c-4.2,0.7-7.1,5.7-12.2,3.4c1.6-0.8,3.2-1.5,4.8-2.3c0.5-0.2,0.9-0.6,1.4-0.8c4.8-2,7.1-5.3,6.4-10.8
		c-0.3-2.1,0.7-4.5,1.5-6.5c0.4-1,2-2.1,3-2s2.3,1.3,2.7,2.4c1.4,3,0.9,6.7-1.1,8.7C320.1,199.8,322.7,207.1,322.3,214.9z
		 M324.2,185.1c-2.5,2.8-1.9,6-1.7,9.4C325.8,191.4,326.3,188.2,324.2,185.1z"/>
	<path class="st0" d="M1257.6,379.9c1.5-4.3,3-8.6,4.4-13c0.3-0.1,0.5-0.1,0.8-0.2c0.4,0.8,1,1.6,1.1,2.4c1,9.8,2.1,19.6,2.8,29.4
		c0.3,3.4-0.1,6.9-0.7,10.3c-0.7,4-3.7,6.9-6.3,6.7c-3.3-0.1-5.7-3.3-6.1-7.8c-0.6-7.7,2-14.6,6.7-20.3c2.7-3.3,2.3-6,1.4-10.1
		c-1,1.5-1.5,2.5-2.3,3.3c-0.9,0.9-2.1,2.2-3,2c-1-0.1-2.2-1.5-2.6-2.6c-0.7-1.8-1.2-3.8-1.3-5.8c-0.3-4.6-0.3-9.3-0.3-13.9
		c0-0.6,0.6-1.3,0.9-1.9c0.3,0,0.6,0,1,0c0.1,1.2,0.3,2.3,0.4,3.5c0.3,4.9,0.5,9.8,0.9,14.7c0.1,1.1,0.7,2.2,1.1,3.3
		C1256.7,380,1257.1,380,1257.6,379.9z M1263.1,388c-3.9,3.5-5.2,7.6-6.3,11.6c-0.8,2.9-0.8,6-0.7,9.1c0,2.1,1,4.1,3.4,4.4
		c2.5,0.3,3.1-2,4-3.7c0.2-0.5,0.4-1,0.4-1.5C1264.8,401.4,1264.4,395.1,1263.1,388z"/>
	<path class="st0" d="M89.3,318.5c2.9-15.2,8.8-29.6,11.6-45.2c3.8,2.2,5,5.7,6.2,8.9c1.8,5,3.1,10.2,4.8,15.2
		c0.6,1.8,1.8,3.4,2.7,5.1c0.1,0.2,0.4,0.4,0.4,0.6c-0.7,5.5,3.3,8.9,6,12.9c0.2,0.3,0.3,0.7,0.3,1.1c0,0.1-0.1,0.3-0.3,1
		c-5.3-2.7-6.4-8.3-9.2-12.6c-5.3,0.7-10.6,1.2-15.8,2.1c-0.9,0.1-2,1.3-2.3,2.2c-0.8,2.2-1.1,4.7-1.7,7c-0.2,0.8-0.8,1.6-1.1,2.4
		C90.3,318.9,89.8,318.7,89.3,318.5z M111.3,303c-3.2-8.4-4.3-16.7-8.7-25c-2.6,9.3-5,17.9-7.7,27.2
		C100.8,304.5,105.7,303.8,111.3,303z"/>
	<path class="st0" d="M222.7,82.6c1.5-0.5,2.3-0.8,3.2-0.9c16.3-2.3,32.6-2.5,49-2.7c17.7-0.2,35.4-0.8,53.1-1.1
		c1.2,0,2.4,0.5,3.6,0.9c0.1,0,0,1.3-0.2,1.4c-1.2,0.2-2.4,0.2-3.7,0.2c-1.2,0-2.4-0.2-3.6-0.2c-23.3,0.5-46.6,0.8-69.9,1.5
		c-8.2,0.2-16.4,1.3-24.7,2C227.5,83.9,225.3,84.6,222.7,82.6z"/>
	<path class="st0" d="M1210,521.6c-0.5,1.3-0.5,2-0.9,2.2c-4,2.3-8.1,2.6-12.2,0.5c-3.6-1.9-5.9-4.9-5.9-9.2
		c0.1-6.3,6.4-10.1,11.8-6.8c2.3,1.4,4.1,3.7,6.1,5.6c0.5,0.4,0.6,1.2,0.9,1.8c0.4-0.2,0.7-0.5,1.1-0.7c-1.2-4.5-2.4-9.1-3.7-13.6
		c-2.2-7.8-4.7-15.6-6.7-23.4c-0.9-3.2-1.2-6.5-1.5-9.8c-0.1-1.1,0.4-2.3,0.6-3.5c0.3,0,0.6,0,0.9,0.1c0.3,0.5,0.8,1,0.8,1.5
		c-0.2,8.6,2.8,16.5,5.1,24.5c2.2,7.8,4.5,15.6,6.6,23.4c0.4,1.5,0.5,3.2,0.3,4.7c-0.2,1.7-1.6,2.2-2.8,0.9c-1-1-1.7-2.4-2.7-3.5
		c-1.6-1.8-3.1-3.7-4.9-5.2c-3-2.4-6.7-2.1-8.6,0.4c-1.7,2.3-1.2,7.1,1.2,9.2c2.7,2.3,5.9,3,9.3,2.3
		C1206.4,522.7,1207.7,522.2,1210,521.6z"/>
	<path class="st0" d="M1117.8,365.9c1,1.1,1.3,1.2,1.4,1.5c2.3,11.3,6.6,22.2,6.4,33.9c0,2.2-0.4,4.5-0.8,6.7
		c-0.5,2.2-1.9,3.9-4.2,4.2c-2.6,0.4-4.3-1.2-5.4-3.3c-2.2-4.1-2.9-8.6-2-13.1c0.9-4.6,2.5-8.9,5.9-12.4c0.6-0.6,1-1.9,0.9-2.8
		c-0.2-1.8-0.9-3.6-1.5-6.1c-0.7,1.7-1.1,2.8-1.6,3.8c-1.1,2-2.5,2.2-4.2,0.8c-3.4-2.8-5.4-11.7-3.4-16.4c2.3,2.2,1.2,5,1.7,7.4
		c0.6,2.6,1.2,5.1,3.6,7.5C1115.5,373.6,1116.6,370,1117.8,365.9z M1120.7,385c-3.9,4.3-5.3,8.7-5.6,13.5c-0.2,3.4,0.2,6.7,2.2,9.5
		c1.7,2.5,3.8,2.2,5.1-0.5c0.3-0.6,0.5-1.3,0.6-1.9C1123.7,398.9,1123.2,392.3,1120.7,385z"/>
	<path class="st0" d="M1122.4,514.9c3.6-0.3,6.8-0.5,10.7-0.8c-2.9,4-6.9,2-9.9,3.7c0.9,8.7,1.9,17.6,2.8,26.7
		c-2.9,0.4-2.7-1.5-2.8-3c-0.6-5.7-1.1-11.4-1.7-17.1c-0.2-2.2-0.7-4.4-1.1-7c-3.2,0-6.1,0-9.9,0c3-3.3,6.5-1.4,9.4-2.9
		c-0.6-4.1-1.2-8.2-1.9-12.7c-3.7,1.8-6.7,4.9-11.8,3.4c1.2-0.8,1.8-1.3,2.5-1.7c1.7-0.8,3.5-1.3,5.1-2.1c2.9-1.5,4.4-3.6,3.8-7.1
		c-0.3-1.8-0.2-3.7,0.2-5.6c0.2-1.4,0.9-2.8,1.8-3.8c0.5-0.6,2-1.1,2.8-0.8c0.7,0.3,1.6,1.5,1.6,2.4c0.3,3.2,0,6.4-2,9.2
		c-1.7,2.3-2,4.7-1.4,7.5C1121.4,506.9,1121.8,510.8,1122.4,514.9z M1119.8,492.7c0.4,0,0.9,0.1,1.3,0.1c0.2-1.8,0.4-3.7,0.5-5.5
		c-0.4,0-0.8-0.1-1.1-0.1C1120.2,489,1120,490.8,1119.8,492.7z"/>
	<path class="st0" d="M207.6,363.1c-1,2.3-1.8,4.8-3.1,6.9c-0.6,1-2.3,1.9-3.5,1.9c-0.9,0-2.3-1.5-2.6-2.5c-1.9-6.4-2.9-13-2.5-19.7
		c0-0.2,0.3-0.4,1.1-1.1c0.4,1.5,0.9,2.7,1.1,4c0.6,4.3,1.1,8.7,1.7,13c0.2,1.3,0.7,2.5,1.3,4.4c0.9-1,1.8-1.6,2-2.3
		c0.9-3.3,1.7-6.7,2.5-10c0.3-1.4,0.4-2.8,1.2-4.2c2.8,4.6,2.8,10.3,5.6,14.8c1.1,0.1,2.2,0.2,4.2,0.3c-1.4,1.3-2.1,2-3,2.8
		c0,0.3-0.1,0.7,0,1.1c0.8,3.6,1.8,7.2,2.5,10.9c0.2,1.1,0.1,2.4-0.1,3.5c-0.3,2.2-1.1,4.2-3.7,4.6c-2.3,0.3-4.5-1-5.6-3.6
		c-1.6-3.8-1.2-7.5-0.1-11.3c0.2-0.8,0.4-1.6,0.9-2.2C211.3,370.5,209.5,366.9,207.6,363.1z M211.8,373.1c-3,2.5-3.4,5.1-3.6,7.4
		c-0.2,2.2,0.3,4.5,0.9,6.6c0.2,0.8,1.7,1.6,2.7,1.7c0.6,0,1.4-1.3,1.9-2.1c0.3-0.7,0.5-1.6,0.3-2.3
		C213.4,380.9,212.7,377.5,211.8,373.1z"/>
	<path class="st0" d="M1057.7,554.3c4.4,0.5,4.9,0.2,7-3.9c4.4-8.7,3-17.5,0.1-26c-3-9-6.9-17.6-10.2-26.5
		c-2.1-5.6-4.1-11.3-5.3-17.1c-0.7-3.5-0.3-7.4,0.2-11c0.3-2.1,1.4-4.5,4.3-4.8c0.2,0.5,0.4,0.9,0.3,1c-4.7,6.2-3.6,12.9-1.4,19.4
		c3.3,9.4,7.2,18.6,10.7,27.9c3,8,5.9,16,6.2,24.7c0.1,5.5-0.8,10.6-3.8,15.3c-1.5,2.4-3.3,4.3-6.5,3.6c-0.9-0.2-1.6-1.1-2.4-1.7
		C1057.3,554.8,1057.5,554.5,1057.7,554.3z"/>
	<path class="st0" d="M623.5,428c-0.4-1.9-0.6-3.1-0.9-4.5c-2.4-0.1-3.7,1.1-4.5,2.9c-1.6,3.7-1.6,7.5,0.4,11.1
		c1.5,2.7,3.7,3.7,6.7,3c5.1-1,8.8-6,8.5-11.3c-0.2-3.8,2.4-7.2,6.2-8.2c3.1-0.8,6.1,1,7.7,4.7c1.2,2.8,1.7,5.6,0.7,8.5
		c-2.2,7.1-8.4,8.9-14.9,4.3c-1,0.7-2,1.4-3.1,2.1c-6.9,4.8-13.5,2.1-15.3-6.1c-0.7-3.1-0.6-6.2,0.9-8.9c0.9-1.6,2.4-3.1,4-4.2
		c1.8-1.3,3.6-0.6,4.9,1.1C626,424.4,625.7,426.1,623.5,428z M635.5,433.6c0.2,1.6-0.1,3.4,0.5,3.8c1.3,0.9,3.1,1.5,4.7,1.4
		c2.9-0.2,5.1-3.1,5.6-6.5c0.5-3.6-1.2-7.5-3.7-8.7c-1.8-0.9-4.9,0.4-6.1,2.5c-1.3,2.3-0.7,3.8,1.7,5.2c0.8,0.4,1.5,1,2.3,1.5
		c-0.1,0.3-0.2,0.5-0.3,0.8C639,433.6,637.7,433.6,635.5,433.6z"/>
	<path class="st0" d="M832.8,418.6c4.6-3.6,0.6-7.9,1.5-11.9c-4.1-0.4-5.3,3.5-8.3,4.4c-0.8-2,0.3-3.3,1.5-4.2
		c5.4-4.1,11.5-6.1,18.3-4.7c5.2,1.1,7.1,5.7,3.9,10c-1.6,2.2-4,3.8-6.2,5.4c-1.5,1-3.3,1.5-5.2,2.3c0.4,3.7,1,7.4,1.2,11.1
		c0.4,7.2,0.5,14.4,0.7,21.5c0,1-0.2,2.2-0.7,3.1c-0.2,0.5-1.2,0.6-2.3,1.2c1.5-10.1,0.6-19.6-0.4-29c-0.1-0.9-0.2-1.9-0.3-2.8
		C835.9,421,835.9,421,832.8,418.6z M837.6,417c5.1-0.6,8.6-3,10.8-7c1.2-2.1,0.2-4.1-2.2-5.1c-3.1-1.3-6.2-0.8-9.8,0.7
		C836.9,409.2,837.2,413,837.6,417z"/>
	<path class="st0" d="M627.4,292.8c-2.3,0-4,0.1-5.6-0.1c-0.9-0.1-2.3-0.6-2.6-1.3c-0.3-0.7,0.3-2.1,0.9-2.8
		c1.7-1.9,3.7-3.5,5.5-5.2c1-1,1.9-2.1,2.8-3.1c-0.1-0.3-0.2-0.6-0.3-0.9c-1.9-0.1-3.8-0.2-5.7-0.3c-1.9,0-3.8,0-6.5,0
		c1-1.2,1.2-1.9,1.6-1.9c3.7-0.1,7.4-0.4,11.1,0c2.5,0.3,3.2,2.4,1.7,4.5c-1.1,1.6-2.7,2.9-4.1,4.3c-1.2,1.2-2.6,2.3-4.4,3.9
		c1.6,0.2,2.6,0.3,3.5,0.4c4,0.4,5,1.9,3.2,5.5c-0.3,0.7-0.8,1.4-1.2,2.1c-0.3,0.7-0.6,1.4-1.1,2.4c0.9,0.2,1.5,0.3,2.2,0.4
		c5.4,0.5,7.3,3.2,5.6,8.4c-1,3-2.5,5.9-3.7,8.8c-0.9,2.2-1.7,4.5-2.4,6.8c-1.6,5.7-0.2,9,4.8,12.1c0.6,0.4,1.1,0.9,1.6,1.4
		c-0.1,0.3-0.2,0.6-0.2,0.8c-1.1-0.1-2.3,0.1-3.1-0.4c-3.4-2-7.5-7.9-5.9-12.5c1.1-3.3,2.1-6.6,3.3-9.8c1-2.7,2.4-5.3,3.4-8.1
		c1.1-3.4,0.1-4.7-3.3-5.1c-5.8-0.6-6.2-1.3-3.1-6.5C626,295.6,626.5,294.5,627.4,292.8z"/>
	<path class="st0" d="M455.3,220.8c3,1.6,5.6,1.1,8.6-0.6c-4.9-2.6-5.3-7-5.8-11.4c-0.4-3.7-1.2-7.4-1.6-11.1c-0.2-2-1-3.2-3.1-3.4
		c-3.4-0.3-6.9-0.6-10.3-1c-1-0.1-1.9-0.3-3.6-0.6c1.1-0.9,1.5-1.5,2-1.6c11.2-0.7,21.4,1.9,30,9.2c5.8,5,5.9,11.2,0.7,16.8
		c-3.6,4-8.1,6.5-13.5,7C456.1,224.6,455.3,223.8,455.3,220.8z M465.6,220.2c2.2-2.2,4.5-4,6.3-6.3c2.2-2.9,2.4-6.2,0.3-9.2
		c-3.2-4.5-7.6-6.9-13.4-8.4c0.9,6.2,1.5,12,2.8,17.7C461.9,216.1,463.9,217.8,465.6,220.2z"/>
	<path class="st0" d="M852.7,203.5c0,3.9,0.5,7.7-0.1,11.3c-0.6,3.4,2.5,7-0.1,10.2c-0.4,0-0.8,0.1-1.2,0.1
		c-0.3-1.6-0.8-3.1-0.9-4.7c-0.1-5.9,0.2-11.7,0-17.6c-0.1-4.9-0.6-9.8-1-14.7c-0.1-0.7-0.4-1.4-0.8-2.7c-1,1.3-1.6,2.1-2.3,3
		c-0.4-0.2-0.9-0.2-1.1-0.5c-0.9-1.3-0.5-2.5,0.7-3.5c2-1.7,4.2-2.6,7-2.7c4.6-0.1,9,0.1,13,2.7c4.9,3.1,5.7,7.9,1.7,12.1
		C863.9,200.6,859.1,203,852.7,203.5z M851.5,184.6c0.4,4.9,0.8,9.5,1.3,14.1c0.2,2,1.9,2.6,3.6,2c3.8-1.3,7.4-2.9,10-6.2
		c2.3-2.9,2-5.7-1.1-7.8C861.1,183.8,856.5,183.4,851.5,184.6z"/>
	<path class="st0" d="M1058,385.5c-0.7-2.9-1.2-5-1.6-7c-0.4-2.2-1.5-3.2-3.8-3.2c-3.3,0.1-6.6,0-9.8,0c-2.1,2.9-0.3,6.7-2.4,9.3
		c-0.4,0-0.7,0-1.1-0.1c-0.1-1.2-0.4-2.4-0.2-3.6c0.8-4.8,1.6-9.7,2.6-14.5c1.2-6,2.5-12,3.8-18c0.2-1.1,0.6-2.2,1-3.3
		c0.3-0.1,0.6-0.1,1-0.2c0.6,1.2,1.3,2.3,1.8,3.5c3,8.5,6,17,8.8,25.5c0.9,2.9,1.2,5.9,1.6,9C1059.8,383.5,1058.9,384.2,1058,385.5z
		 M1047.8,352.9c-0.2,0-0.4,0-0.6,0c-1.4,6.4-2.8,12.9-4.3,19.7c4.2,0,7.7,0,11.7,0C1052.2,365.9,1050,359.4,1047.8,352.9z"/>
	<path class="st0" d="M915.4,39c0.2,1,0.5,1.9,0.5,2.9c-0.5,12.1,2.3,23.8,3.3,35.7c1.1,12.1,1.6,24.2,2.4,36.2c0.1,1.1,0,2.1,0,3.3
		c1,0.2,1.8,0.5,3.1,0.8c-1.2,2.5-2.4,4.7-3.5,7c-0.4,0-0.8-0.1-1.1-0.1c-0.2-1.6-0.6-3.1-0.7-4.7c-0.4-8.9-0.4-17.9-1.1-26.7
		c-0.9-10.6-2.5-21.1-3.5-31.7c-0.6-6.3-0.9-12.7-1.2-19.1c-0.1-1.2,0.3-2.4,0.5-3.6C914.5,38.9,915,38.9,915.4,39z"/>
	<path class="st0" d="M622.1,45.4c0.2,1.2,0.7,2.3,0.7,3.5c0.5,17.6,0.8,35.2,1.3,52.7c0.3,9.9,0.7,19.7,1,29.6
		c0,1.2-0.1,2.5-0.2,3.8c-0.4,0.1-0.8,0.1-1.2,0.2c-0.3-1.2-0.9-2.4-0.9-3.6c-0.4-11.5-0.9-22.9-1.2-34.4c-0.4-15.9-0.7-31.7-1-47.6
		c0-1.4,0.2-2.7,0.3-4.1C621.2,45.5,621.6,45.5,622.1,45.4z"/>
	<path class="st0" d="M1304.5,334.6c1.5,0.3,1.9,0.2,2,0.4c5.7,9.9,11.8,19.6,16.8,29.8c4.4,8.9,6.5,18.7,3.9,28.7
		c-1.9,7.5-5.7,14-12.1,18.7c-0.9,0.7-2.2,1-3.3,1.5c-0.2-0.2-0.3-0.5-0.5-0.7c0.4-0.6,0.6-1.3,1.2-1.7
		c11.4-7.7,16.1-22.8,11.7-37.4c-2.8-9.4-7.4-17.9-12.7-26.1c-1.8-2.7-3.5-5.3-5.1-8.1C1305.5,338.3,1305.2,336.7,1304.5,334.6z"/>
	<path class="st0" d="M1339.7,192.3c-7.8-0.2-14.4-6.4-14.9-13.4c-0.2-3,0.3-5.8,2.8-7.9c0.8-0.7,1.3-1.6,1.9-2.5
		c6-8.7,16.8-6.1,19.8,1c2.4,5.6,3.1,11,0.3,16.5C1347.4,190.3,1343.7,192.2,1339.7,192.3z M1328.2,174.5c-0.2,0-0.4,0-0.6-0.1
		c-0.1,1.6-0.5,3.3-0.3,4.9c0.4,3.8,2.6,6.5,5.8,8.6c6.4,4.2,13.8,1.5,15.6-5.9c1.1-4.2,0.4-8.2-1.7-11.9c-2.2-3.9-5.7-5.5-9.6-4.6
		c-3.8,0.9-6.2,4.1-6.3,8.4c0,1.5,0,3,0,4.5c-0.4,0.1-0.9,0.1-1.3,0.2C1329.2,177.3,1328.7,175.9,1328.2,174.5z"/>
	<path class="st0" d="M1025.5,54.4c1.4,4.5,2.9,9,4.4,14c1.8-3.8,3.5-7.4,5.5-11.5c1.2,1.3,1.9,1.9,2.3,2.6c0.4,0.8,0.5,1.8,0.7,2.7
		c1,3.9,0.2,9,6.8,9.6c-2.8,1.9-6.2,1.2-7.1-1.2c-1-2.4-1.4-5.1-2.2-8c-2.9,3.2-2.8,8-7.1,11.1c-1.5-5.1-2.7-9.4-4-13.8
		c-0.2,0-0.5-0.1-0.7-0.1c-1.7,4.9-3.5,9.7-5.4,15.1c-3.1-2.9-2.4-6.4-3.3-9.2c-1-3-1.9-6-2.3-9.2c4,2.2,3.1,7.2,5.6,10.5
		c2.5-3.9,2.4-9,5.4-12.5C1024.5,54.3,1025,54.4,1025.5,54.4z"/>
	<path class="st0" d="M1222.5,385.4c0.2-3.1,0.4-6.2,0.5-9.4c0.8-1.3,1.9-2.7,2.5-4.3c2.1-5.9,4-11.8,6.1-17.7
		c0.4-1.3,1.3-2.4,1.9-3.6c0.4,0.1,0.7,0.1,1.1,0.2c1.3,8.3,2.5,16.6,3.8,24.8c1.8,0.5,3.2,1,4.6,1.4c0,0.3,0,0.6,0,0.8
		c-1.1,0.5-2.3,0.9-3.8,1.5c0.7,1.9,1.3,3.8,2,5.7c-2.6,0.8-2.6,0.8-4.7-6.6c-3.2-0.3-6.5-0.5-10.1-0.8c-0.9,3-1.6,5.6-2.4,8.2
		C1223.4,385.6,1223,385.5,1222.5,385.4z M1236,375.7c-1-6.2-1.8-11.7-2.7-17.2c-0.3,0-0.5-0.1-0.8-0.1c-1.8,5.4-3.6,10.8-5.5,16.7
		C1230.2,375.3,1232.8,375.5,1236,375.7z"/>
	<path class="st0" d="M385.9,302.7c-4.4-0.5-7.9-0.9-11.7-1.4c1.1-5.6,5.5-8.1,8.4-12.2c-3-0.4-5.8-0.7-8.5-1
		c-0.3-0.5-0.6-1-0.9-1.5c0.7-0.2,1.4-0.7,2.1-0.6c2.3,0,4.5,0.2,6.7,0.4c3.1,0.3,3.9,2,2.1,4.6c-1.4,1.9-3.2,3.6-4.7,5.4
		c-0.7,0.8-1.3,1.6-2.4,3.2c2.5,0.2,4.4,0.1,6.2,0.5c1.6,0.3,3.9,0.9,4.3,2c0.5,1.2-0.6,3.2-1.4,4.6c-1.2,2-2.9,3.7-4.8,6
		c1.6,0.1,2.7,0.3,3.8,0.3c4,0.2,5.2,1.7,4.2,5.7c-0.3,1.3-0.8,2.5-1.1,3.8c-1.3,4.6-2.2,9.3-1.8,14.2c0.1,0.6-0.1,1.3-0.2,1.9
		c-0.3,0.1-0.5,0.2-0.8,0.3c-0.4-0.9-1.3-1.8-1.2-2.6c0.3-4,0.6-7.9,1.2-11.8c0.4-2.8,1.3-5.6,2.2-9.1c-2.6,0-4.5,0.1-6.5,0
		c-2.8-0.2-3.5-1.6-1.9-3.9c1.2-1.6,2.6-3.1,3.8-4.6C383.9,305.6,384.7,304.4,385.9,302.7z"/>
	<path class="st0" d="M688.2,434.1c1,5.7,1.9,11.1,2.8,16.7c-3-1.2-3.4-2.9-5-17c-8.2-4.9-11.8-9.6-10.9-15.4
		c2.9,5.1,5,10.1,10.8,12.3c0.1-1.5,0.2-2.9,0.4-4.3c0.5-3.6,1-7.1,3.6-9.9c1.6-1.6,3.4-2.6,5.7-2c2.2,0.6,3,2.4,3.6,4.4
		c1.8,5.8-2.4,12.2-7.9,14.4C690.6,433.6,689.8,433.7,688.2,434.1z M688.1,431.2c6.8-1.3,10.5-6.9,8.7-12.1
		c-0.9-2.6-2.9-3.1-4.8-1.3c-0.9,0.9-1.9,2.1-2.1,3.3C689.1,424.2,688.7,427.5,688.1,431.2z"/>
	<path class="st0" d="M655.5,78.1c2.9-2,6.1-1.1,9.1-1.3c3-0.2,6.1,0,9,0c0-6.4,0-12.2,0-18c-0.2-0.1-0.5-0.2-0.7-0.3
		c-1.4,2.1-2.7,4.2-4.3,6.7c-0.5-0.9-1.2-1.6-1-1.9c2.1-4.5,4.3-9,7.4-13.6c0.3,1.3,0.8,2.5,0.8,3.8c0.2,5.7,0.1,11.5,0.3,17.2
		c0,1.8,0.4,3.6,0.6,5.5c7.1,0.8,14-0.5,20.7,1.2c-3.3,1.6-6.8,1.2-10.3,1.3c-3.6,0.1-7.2,0.1-10.8,0.2c-3.5,0.1-6.9,0.2-10.4,0.2
		C662.5,79,659,79.8,655.5,78.1z"/>
	<path class="st0" d="M854.4,334.8c0.5-2.6,2.1-2.7,3.7-2.9c5.1-0.7,10.3-1.4,15.4-2.1c1.6-0.2,3.1-0.7,5.4-1.3
		c-1.3-1.4-2.1-2.5-3.2-3.4c-5.1-4.1-10.2-8.1-15.7-12.5c-2.3,6.9-4.7,13.9-7.1,21c-0.2,0-0.5,0-0.7,0c-0.2-0.7-0.8-1.6-0.6-2.2
		c2-7.8,4.6-15.3,7.6-22.9c1.2,0.4,1.9,0.5,2.1,0.8c3.6,5.2,9,8.2,13.7,12.1c1.6,1.4,3.3,2.7,4.7,4.3c1.8,2.1,1.5,4.1-1.1,5.1
		c-2.7,1-5.6,1.4-8.5,2c-4.5,0.9-9.1,1.7-13.6,2.4C855.9,335.2,855.3,334.9,854.4,334.8z"/>
	<path class="st0" d="M835.1,295.6c9.4,0.3,18,0.6,26.6,0.8c8.5,0.2,17.1,0.7,25.6,0.6c8.6-0.2,17.1-1,25.6-1.5
		c0.1,0.3,0.3,0.5,0.4,0.8c-0.7,0.4-1.3,1.1-2.1,1.3c-11.2,2.2-22.5,2.1-33.8,1.9c-12.3-0.2-24.5-0.8-36.8-1.2
		C838.8,298.1,836.8,298.5,835.1,295.6z"/>
	<path class="st0" d="M941.7,496.7c4,4.7,7.9,9.5,11.9,14.2c0.3,0,0.6,0,1-0.1c0.8-4.4,1.7-8.7,2.5-13.1c0.3,0,0.6,0,0.9,0
		c0.2,0.8,0.7,1.6,0.6,2.3c-0.4,3.6-0.9,7.1-1.7,10.6c-0.5,2.3-0.4,3.9,1.4,5.7c2.6,2.6,4.9,5.6,7.1,8.6c1.5,2.2,1.1,2.8-1.5,3.9
		c-1-5.1-4.9-8.1-8.6-12.3c-1.1,5.4-4.4,9.3-3.6,14.6c0.3,2-1.2,3-4,3.3c0.7-3,1.1-5.6,1.9-8.2c1.1-3.8,3.7-7.8,3.1-11.3
		c-0.5-3.3-4.3-6.1-6.7-9.1c-1.3-1.7-2.8-3.2-4-5c-0.7-1-1-2.2-1.5-3.3C940.9,497.1,941.3,496.9,941.7,496.7z"/>
	<path class="st0" d="M834.1,279.8c1.8-9.1,7.1-16,10.4-24.4c1.3,1.2,2.1,1.7,2.4,2.3c2.5,5.4,6.8,9.1,11,13
		c1.2,1.1,2.3,2.2,3.1,3.6c1.5,2.4,0.9,4.4-1.9,4.6C851.1,279.6,843,282.1,834.1,279.8z M859.1,276.6c0.1-0.3,0.2-0.7,0.3-1
		c-4.8-5-9.6-10-14.5-15.2c-2.6,5.9-6.3,11.3-8.2,18.4C844.6,278.1,851.8,277.4,859.1,276.6z"/>
	<path class="st0" d="M1212.4,406.6c-1.1-0.5-2.3-0.8-3.2-1.5c-5.4-3.7-7.9-9.1-9.5-15.2c-2.1-8.3-1.5-16.6,0.2-24.9
		c1.5-7.6,4.3-14.8,7.9-21.7c0.8-1.6,2.2-3,3.5-4.3c0.4-0.4,1.3-0.3,2-0.4c0.1,0.6,0.2,0.9,0.1,1.1c-9.2,12.2-12.8,26.2-12.5,41.2
		c0.2,9.2,2.6,17.6,10.7,23.4c0.6,0.4,0.9,1.1,1.3,1.7C1212.7,406.1,1212.5,406.3,1212.4,406.6z"/>
	<path class="st0" d="M1050.4,165.7c1.3-3.2,3.6-4.1,6-4.3c4.1-0.3,8.3-1.1,12.2-0.3c5.9,1.1,7.3,6,3.1,10.3
		c-4.1,4.1-6.8,6.2-14.5,5.3c0,2.9-0.1,5.8,0.1,8.6c0.1,0.8,1.3,1.4,1.8,2.2c0.4,0.6,0.8,1.6,0.6,1.9c-0.4,0.5-1.4,0.9-2,0.7
		c-2-0.7-2.7-2.5-2.7-4.4c-0.2-4.9-0.4-9.9-0.5-14.8C1054.3,168.2,1053.8,166.1,1050.4,165.7z M1056.4,163.9c0.2,3.1,0.3,6,0.5,9.6
		c2.2,0.2,4.7,1.1,6.7,0.5c2.3-0.6,4.5-2.3,6.4-3.9c3-2.8,2.3-5.5-1.7-6.7C1064.5,162.3,1060.7,162.4,1056.4,163.9z"/>
	<path class="st0" d="M1088.2,213.3c-2.4-0.5-2.9-2.1-2.5-3.7c0.3-1.3,1.3-2.7,2.3-3.3c2.7-1.5,5.5-0.9,8,0.7
		c5.1,3.2,7.5,10.7,5.1,16.2c-1.8,4.1-5,6.3-9.6,6.7c-9.6,0.9-17.2-7.6-14.7-16.8c0.5-1.8,1.8-3.6,3.1-4.9c1.3-1.3,2.9-1.2,3.7,1.3
		c-3.4,0.3-4.5,2.5-4.9,5.5c-0.5,3.5,0.4,6.6,3,9.1c1,1,2.4,1.8,3.7,2.4c4.8,2.2,10.6,0.9,12.9-2.9c2.4-3.8,1.4-10.4-2.2-13.6
		c-1.2-1-2.7-1.8-4.2-2.1c-2.9-0.6-3.9,0.7-3.5,3.7C1088.5,212.1,1088.4,212.5,1088.2,213.3z"/>
	<path class="st0" d="M884.9,106.7c-3.4,4.5-6.2,2.4-10.9-7.4c-1.2,1.8-2.3,3.9-3.7,5.5c-2.5,2.7-5.6,2.2-7-1.1
		c-2.7-6.5-2.7-13,0.8-19.2c1.3-2.2,3.2-4.1,6.1-3.7c2.8,0.4,4.4,2.4,5.1,5c0.4,1.3,0.5,2.6,0.7,3.9c0.3,3.2,0.4,6.4,0.9,9.5
		C877.7,104.4,879.7,106.1,884.9,106.7z M863.6,95.2c0.4,2.1,0.5,4.2,1.1,6.2c0.3,1,1.3,2.4,2.1,2.5c0.9,0.1,2.4-0.9,2.7-1.8
		c1.5-3.6,2.9-7.4,3.9-11.2c0.4-1.4-0.1-3.2-0.7-4.6c-0.5-1.2-1.8-2.7-2.8-2.9c-1.1-0.2-2.7,1-3.5,2
		C864.1,88.2,863.7,91.6,863.6,95.2z"/>
	<path class="st0" d="M1101,270.4c0.2,5.6-2.8,10.1-7.6,12c-5.4,2.1-10.6,2.3-15.3-1.8c-3.6-3.1-4-9.8-0.9-13.4
		c0.3-0.3,0.6-0.8,0.8-0.8c3.1,0.5,3.9-2.4,5.7-3.7c3.5-2.5,7.4-3.1,11.3-1.3C1099,263.2,1101.2,266.4,1101,270.4z M1080.5,267.8
		c-4.3,3.5-4.2,8.8,0.2,11.9c5.4,3.8,14.8,1.1,17.3-4.9c1.4-3.5,0.7-7.6-1.9-9.9c-2.7-2.4-7.1-2.7-10.4-0.7
		c-1.8,1.1-2.7,2.4-1.9,4.6c0.3,0.9,0.4,1.9,0.7,2.8c-0.3,0.2-0.6,0.3-1,0.5C1082.6,270.7,1081.7,269.4,1080.5,267.8z"/>
	<path class="st0" d="M1326.2,213.7c-0.3,1.4-0.7,2.4-0.8,3.4c-0.4,3.7,1.5,6.9,5,8.2c5.5,2.1,13.5-0.3,16.9-5
		c1.6-2.3,1.9-4.7,0.8-7.1c-2-4.4-9.4-6.6-13.5-4.1c-2.3,1.5-2.9,3.7-2.7,6.2c0.1,1,0,2.1,0,3.8c-3.7-4.1-2.7-9.6,1.4-12.1
		c5.2-3.2,14.4-0.3,16.9,5.2c1.8,3.9,0.8,8-2.8,11.6c-4.3,4.2-12.7,5.9-18.3,3.5c-4.5-1.9-7-6.4-6.1-10.9
		C1323.4,214.8,1323.8,213.5,1326.2,213.7z"/>
	<path class="st0" d="M905.3,213.1c-0.9,2.2-1.7,4.1-2.8,6.8c-1.3-4.2,4.2-25.5,7.1-29.6c2.9,6.1,5.7,12.2,8.6,18.3
		c1.5,0.2,2.8,0.4,5,0.7c-1.4,1.2-2.2,1.9-2.8,2.4c0.3,3,0.7,5.8,0.9,8.6c0,0.2-1,0.5-1.6,0.8c-0.6-2.9-1.2-5.5-1.8-8
		C913.4,213.1,909.3,213.1,905.3,213.1z M905.5,210.4c3.9,0,7.1,0,10.9,0c-2.3-4.8-4.2-9-6.2-13.3c-0.3,0-0.6,0-0.9,0
		C908,201.4,906.8,205.7,905.5,210.4z"/>
	<path class="st0" d="M608,440.1c-2,1-3.8,2.4-5.9,2.8c-3.1,0.7-6.3,1.1-9.5,1c-8.6-0.4-13.3-8.6-9.5-16.4c1.8-3.8,4.8-6.4,8.7-7.8
		c1.1-0.4,2.4-0.5,3.5-0.4c3.6,0.2,4.9,2.6,3.3,5.8c-2.3,4.6-6.5,6.5-11.1,7.6c-0.9,0.2-1.8,0.2-2.7,0.4c-0.4,4.8,2.1,7.9,6.9,8.5
		c4.4,0.5,8.8,0.2,12.8-2c0.9-0.5,1.9-0.6,2.9-0.9C607.6,439.1,607.8,439.6,608,440.1z M585.1,430.1c6,0.5,11-3,11.5-8
		C591.2,421.1,586.4,424.4,585.1,430.1z"/>
	<path class="st0" d="M679.1,544.5c6.1-4.4,10.9-4,14.8,0.9c3.1,3.9,2.3,8.3-2.5,9.9c-2.6,0.8-5.7,0.5-8.5,0.2
		c-0.9-0.1-1.6-1.5-2.4-2.3c0.2-0.3,0.4-0.5,0.6-0.8c0.7,0.2,1.4,0.4,2.1,0.6c1.4,0.3,2.8,0.8,4.3,0.8c3,0.1,5.4-1.3,6-3.1
		c0.6-1.9-1.1-4.6-3.7-6c-2.8-1.6-5.7-1.5-7.2,0.6c-1.1,1.4-1.7,3.3-2.5,4.9c-0.4,0.8-0.8,1.7-1.2,2.5c-0.3-0.1-0.6-0.1-0.8-0.2
		c-0.3-0.8-0.6-1.6-0.8-2.4c-1.3-7.7-2.5-15.5-3.7-23.2c-0.3-1.8-1.1-3.6,1.3-5.6C676.2,529.3,677.7,536.9,679.1,544.5z"/>
	<path class="st0" d="M579.8,537c-1.7,0.4-2.5,0.6-3.8,1c0.5,2.6,0.7,5.2,1.6,7.6c0.9,2.2,2.7,4,4.5,6.7c-5.8-0.9-6.4-5.4-8.1-8.8
		c-1.8,1.6-3.3,3.3-5.1,4.5c-3.7,2.5-7.6,0.9-8.3-3.5c-0.8-5.5,0.2-10.6,3.8-15c3-3.6,5.9-3.8,9-0.4
		C575.6,531.3,577.4,533.9,579.8,537z M574.8,534.2c-0.9-1.1-1.6-2.2-2.5-3.2c-2.4-2.6-4.1-2.7-6.2,0.1c-2.9,3.7-4,8.1-3.2,12.7
		c0.5,3,2.5,3.9,4.8,1.9c2-1.6,3.5-3.9,4.9-6.1C573.6,538.1,574,536.3,574.8,534.2z"/>
	<path class="st0" d="M1215.9,176.7c-0.9,5.4-3,9.5-7.8,11.8c-3.7,1.8-6.5,1.3-9.4-1.6c-3.7-3.8-4.9-12.7-2.3-17.3
		c3-5.3,12.6-5.5,16.5,0C1214.4,171.7,1214.9,174.3,1215.9,176.7z M1197.5,179.6c0.7,1.7,1.2,3.2,1.9,4.6c1.3,2.4,3.6,3.5,6,2.9
		c3.7-0.9,5.9-3.5,7-7c1-3.3,0.9-6.6-1.6-9.4c-2-2.3-4.7-3-7.6-2.5c-3.6,0.6-5,2.7-4.2,6.3c0.3,1.5,0.8,2.9,1.2,4.5
		C1199.2,179.2,1198.5,179.3,1197.5,179.6z"/>
	<path class="st0" d="M257.5,115.2c-0.7,3.3-2.8,3.9-5.1,3.9c-3.4,0-5.9-1.9-7.2-4.9s-2.2-6.2-3.4-9.7c-2.6,3.1-3.7,6.9-5.4,10.4
		c-0.6,1.2-1.4,2.3-2.4,3.9c-2-8.3-3.7-15.8-5.4-23.1c2.1,0.3,2.1,0.2,4.2,6.5c0.9,2.7,1.5,5.5,2.3,8.6c2.9-3.5,3.7-8.1,7.7-11.4
		c0.7,2,1.3,3.3,1.7,4.6c0.8,2.8,1.3,5.7,2.4,8.4c1.8,4.4,4.5,5.2,8.9,3.2C256.1,115.4,256.5,115.4,257.5,115.2z"/>
	<path class="st0" d="M1057.4,444.4c3.6-5.6,7-7.2,12-6c4,0.9,5.4,4.4,3.3,7.9c-2.1,3.4-6.3,5-10.5,3.5c-2.8-1-5.4-2.7-8.2-4.1
		c-1.4,3-4,4.1-7.3,3.9c-2.9-0.2-3.9-2-2.8-4.7c1.4-3.3,4.8-4.5,8.8-3C1054.2,442.6,1055.7,443.5,1057.4,444.4z M1060,446.3
		c4.1,2.2,7.5,2.3,9.7-0.1c0.8-0.8,1.5-2.4,1.3-3.4c-0.2-0.9-1.7-1.9-2.8-2.1C1064,439.8,1061.4,441.6,1060,446.3z M1045.9,446.7
		c3.4,0.8,4,0.6,5.2-2.2C1047.6,443.5,1047.6,443.5,1045.9,446.7z"/>
	<path class="st0" d="M1141.9,88.7c-3.8,4.6-7.3,4-12.7-1.2c-1.2,1.2-2.3,2.5-3.7,3.5c-3.1,2.4-5.9,1.9-7.5-1.6
		c-2.5-5.6-2.3-11.2,1-16.4c2.5-3.8,6.3-3.5,8.5,0.6c0.4,0.7,0.6,1.5,0.9,2.2c1,3.1,1.9,6.2,3,9.3c1.3,3.6,3.4,4.7,7.1,3.9
		C1139.4,88.9,1140.3,88.9,1141.9,88.7z M1121.9,90.3c3.4-1,5.5-3.4,5.7-6.3s-0.9-6-1.9-8.8c-1.1-2.9-3.2-2.9-5-0.3
		C1117.8,78.9,1118.3,86.1,1121.9,90.3z"/>
	<path class="st0" d="M976.6,493.7c-4,0-8.1,0-12.3,0c0.1-0.6,0-1,0.1-1.1c4.3-1.9,8.8-1.6,13.3-1c0.7,0.1,1.5,1.4,1.8,2.3
		c3,10.9,5.8,21.9,8.9,32.7c2.5,8.6-2.7,9.6-9.1,9c-0.4,0-0.8-0.5-1.3-1.6c1.4-0.2,2.8-0.5,4.3-0.6c4.2-0.4,5-1.3,4-5.3
		c-1.3-5.2-3.1-10.2-4.5-15.3C980,506.6,978.4,500.5,976.6,493.7z"/>
	<path class="st0" d="M403.6,395.8c0.8,6,1.6,11.9,2.4,17.9c0.3,0,0.6,0,0.9,0.1c0.4-1,0.8-2,1.2-3c2.2-5.3,5.7-9.7,10.9-12.2
		c2.4-1.1,5.3-1.4,8-1.5c1.2-0.1,2.4,1.1,3.6,1.7c-0.1,0.3-0.2,0.6-0.3,0.9c-0.7,0.1-1.4,0.3-2,0.1c-4.3-1.3-7.9,0-11.1,2.7
		c-6.5,5.5-9.2,12.5-8.2,20.9c0.1,0.8,0.3,1.6,0.3,2.4c0,0.2-0.2,0.5-0.7,1.3c-0.7-0.9-1.5-1.5-1.7-2.3c-2.3-9.5-6-18.8-4.7-28.8
		C402.7,395.8,403.1,395.8,403.6,395.8z"/>
	<path class="st0" d="M441.9,86.8c-1.2,7.4,0.8,11,6.8,12.7c3.4,1,6.5,0.2,8.6-2.6c2.2-2.9,2.5-6.1,1-9.4c-1.5-3.1-4.1-4.5-7.4-4.4
		c-3.7,0.1-5.2,1.8-4.9,5.6c0.1,0.8,0,1.7,0,2.8c-3.6-2.4-3.2-7.4,0.4-9.6c5.5-3.4,13.2,0,14.8,6.6c1,4.3,0.1,8.3-3.3,11.3
		c-3.5,3-7.6,3.3-11.6,1.5c-4.1-1.8-7-5-7.4-9.7C438.8,89.9,438.4,87.3,441.9,86.8z"/>
	<path class="st0" d="M800.4,497.5c-3.5,3.2-4.8,7.6-8.7,8.9c-0.2-0.3-0.5-0.5-0.7-0.8c3.5-4.8,7-9.7,10.9-15.1
		c2.1,8.4,0.5,16.6,2.7,24.9c2.7-0.2,5.4-0.4,8.2-0.6c0.7,1.6-0.2,2.4-1.5,2.5c-7.1,0.4-14.3,0.7-21.4,1c-0.3,0-0.5-0.5-1.3-1.2
		c4.4-2,8.9-0.2,13.2-1.4C801.2,509.8,800.8,504,800.4,497.5z"/>
	<path class="st0" d="M1021.3,393.3c-2.8,0.1-4.9-1.4-6.9-3.1c-4.5-3.6-6.9-8.5-7.9-13.9c-2.7-13.9,1.5-26,10.7-36.5
		c0.6-0.7,1.5-1.1,2.3-1.6c0.3,0.3,0.6,0.5,0.9,0.8c-0.9,1.3-1.8,2.6-2.8,3.8c-7.3,9.3-11,19.6-9,31.6c1.2,7.4,4.6,13.2,11.6,16.6
		c0.6,0.3,1.1,0.9,1.6,1.4C1021.6,392.8,1021.4,393.1,1021.3,393.3z"/>
	<path class="st0" d="M1079.6,78.2c-1.3,0.5-2,0.9-2.8,1c-2.5,0.2-5,0.4-7.6,0.5c-16.1,0.6-32.1,1.2-48.2,1.7
		c-1.5,0-2.9-0.3-4.5-0.5c0.3-0.7,0.3-0.8,0.3-1c0.1-0.1,0.1-0.3,0.2-0.3c0.9-0.2,1.8-0.5,2.7-0.5c19.5-0.7,39-1.4,58.5-2.1
		C1078.5,77.1,1078.7,77.4,1079.6,78.2z"/>
	<path class="st0" d="M227,275.7c2.4-1.1,3.3,0.4,4.2,1.6c4.4,5.8,6.2,12.6,7.7,19.5c1.7,8.2,1.4,16.5-1.5,24.4
		c-1.1,2.8-2.7,5.4-4.5,7.9c-0.6,0.9-2.2,1.2-3.3,1.8c-0.3-0.3-0.5-0.6-0.8-0.9c0.4-0.9,0.6-2.1,1.3-2.5c4.9-2.8,5.6-7.9,6.6-12.6
		c2.4-11.4-0.3-22.2-5-32.6C230.6,280,228.7,278.1,227,275.7z"/>
	<path class="st0" d="M481.7,510.4c2.2,4.7,4.4,9.4,6.8,14.5c3.7-3.2,4.6-8.3,8.9-10.4c0.3,0.2,0.5,0.3,0.8,0.5
		c-0.3,0.7-0.4,1.5-0.8,2.1c-1.9,2.7-3.8,5.5-5.8,8.1c-1.4,1.8-1.5,3.4-0.2,5.4c1.9,3,3.4,6.2,5.1,9.5c-2.4,0.1-2.4,0.1-4.7-3.9
		c-1-1.8-2-3.6-3.5-6.3c-1.8,4.6-3.3,8.3-4.8,12c-0.3-0.1-0.6-0.1-1-0.2c-0.1-0.8-0.5-1.7-0.2-2.4c1.1-3.1,2.1-6.3,3.6-9.2
		c1-1.9,1-3.4,0-5.2c-1.7-3.3-3.2-6.7-4.7-10.2c-0.5-1.2-0.7-2.7-1-4C480.8,510.7,481.3,510.5,481.7,510.4z"/>
	<path class="st0" d="M923.1,531.8c4.8,0.7,9-1.5,13.6,0.4c-0.8,0.7-1.2,1.3-1.6,1.4c-3.4,0.4-6.9,0.7-10.3,0.8
		c-3.3,0.2-3.9-0.5-3.9-4c-0.1-4.5,0.3-9.1-0.1-13.5c-0.6-6.2-1.4-12.4-2.6-18.5c-0.9-4.9,0.1-6.5,5-6.3c1.6,0,3.2,0.4,4.8,0.7
		c0,0.4,0,0.9,0,1.3c-2.4,0.2-4.9,0.5-8.1,0.8C923.6,506.9,923.4,519.2,923.1,531.8z"/>
	<path class="st0" d="M1288.4,358.4c2.3,4,4.5,8,7,12.3c3.5-4,3.6-8.9,5.3-12.9c0.4,0.1,0.7,0.1,1.1,0.2c0.1,0.9,0.5,1.9,0.3,2.7
		c-0.8,2.9-1.6,5.9-2.8,8.7c-1.2,2.6-1.4,4.7,1,6.7c1.2,1,2,2.5,3.2,3.5c1.7,1.4,3.5,2.6,5.7,4.1c-0.5,1.7-2.1,1.6-3.5,0.7
		c-1.8-1.1-3.3-2.6-4.8-4.1c-1.3-1.2-2.4-2.7-4.1-4.5c-1.8,4-3.3,7.4-4.8,10.8c-0.3-0.1-0.7-0.1-1-0.2c0-1.1-0.3-2.3,0.1-3.3
		c0.8-2.4,1.8-4.7,2.9-7c0.8-1.6,0.6-2.9-0.4-4.4c-2-3-3.8-6.1-5.5-9.2C1287.1,360.7,1287.2,360.6,1288.4,358.4z"/>
	<path class="st0" d="M114.7,380.3c-0.5-0.9-1.2-1.8-1.6-2.8c-0.5-1.3-1-2.5-2.7-2.4c-1.8,0.1-2.5,1.3-2.9,2.8
		c-0.8,3.3,0.5,6,2.6,8.4c1.6,1.8,3.2,3.5,4.7,5.4c2.2,2.6,2.7,5.7,2.1,9c-0.4,2.3-1.2,4.1-3.8,4.4c-2.5,0.3-5.4-1.3-5.7-3.9
		c-0.4-2.7-0.4-5.6,0.2-8.2c0.6-2.8,1.2-4.9-1-7.6c-2.1-2.5-2.4-5.9-1-9.1c0.9-2.3,2.6-3.8,5.1-3.7c2.5,0.1,3.8,1.6,4.4,3.9
		c0.3,1.1,0.6,2.2,0.8,3.3C115.6,379.9,115.1,380.1,114.7,380.3z M110.7,391.5c-2.9,6.9-2.2,10,2.3,11.3
		C116.1,398.7,115.3,394.6,110.7,391.5z"/>
	<path class="st0" d="M334.3,294.1c-4.2,6.2-6.9,12.5-10.8,18c-0.4-0.2-0.7-0.3-1.1-0.5c0.2-0.9,0.3-1.9,0.8-2.7
		c2.1-4,4.2-8,6.6-11.9c2.1-3.5,2.9-6.7-0.2-10.1c-1.1-1.1-1.8-2.6-2.5-4.1c-0.5-1.1-0.5-2.3-0.2-3.7c6.8,10.8,14.8,20.8,19.6,32.9
		c-2.6,0.7-2.7-0.9-3.3-1.9C340.4,305,337.5,299.8,334.3,294.1z"/>
	<path class="st0" d="M682.2,232.6c0.8-1.2,1.5-2.3,2.3-3.5c4.3-6.2,7.3-12.9,7.8-20.6c0.4-5.7-0.8-11.1-3-16.3
		c-1.6-3.8-3.5-7.4-5.1-11.2c-0.5-1.1-0.5-2.5-0.7-3.7c0.3-0.1,0.6-0.2,0.8-0.3c0.4,0.3,1,0.5,1.1,0.8c2,4.2,3.9,8.4,5.7,12.7
		c6.4,14.7,3.9,28.2-5.4,40.8c-0.6,0.9-1.6,1.5-2.4,2.2C682.9,233.3,682.5,232.9,682.2,232.6z"/>
	<path class="st0" d="M926.6,410.5c3.5-5.5,6.4-10.2,9.9-15.6c0.5,1.4,1,2.2,1,3c0.3,4.8,0.5,9.6,0.8,14.3c0.1,1.3,0.1,2.7,0.4,4
		c1,4.2,1.5,4.6,5.9,4.6c0.8,0,1.6,0,2.4,0.2c0.3,0.1,0.6,0.4,1.5,1.1c-1.3,0.4-2.1,1-3,1c-5.6-0.1-11.2,0.9-16.7-0.2
		c0-0.5-0.1-0.9-0.1-1.4c2.9-0.3,5.7-0.6,8.3-0.8c-0.6-5.9-1.2-11.6-1.9-17.4C931.8,405,931.6,409.7,926.6,410.5z"/>
	<path class="st0" d="M988,86.4c0-1.7,0-2.7,0-3.6c-0.4-0.1-0.6-0.3-0.8-0.3c-5.9,1.3-9.6,4.9-10.9,10.8c-1.3,5.7,1.2,10,6.8,11.7
		c4.4,1.3,8.9,1.5,13.4,0.4c1.1-0.3,2.3-0.4,3.4-0.7c0.2,0.2,0.3,0.5,0.5,0.7c-0.5,0.5-0.9,1.4-1.5,1.6c-6.2,2.1-12.4,1.9-18.3-0.5
		c-4.7-1.9-6.9-5.6-6.8-10.7c0.1-7.1,4.9-13.6,11.7-15.4c1.9-0.5,3.9-0.5,5,1.3C991.3,83.5,990.3,85,988,86.4z"/>
	<path class="st0" d="M1070.6,577c0.2,0.3,0.5,0.5,0.5,0.7c0,2.8-1.9,3.2-4,3.2c-2.9,0.1-4.9-1.6-5.4-4.3c-0.3-2.1,0.8-4.3,2.9-4.5
		c2.4-0.2,4.9,0.4,7.8,0.7c1.5-3.5,4.5-5.4,8.8-4.8c3.8,0.5,6.2,3.4,5.8,6.7c-0.5,3.7-3.5,6.1-7.5,5.2c-2.3-0.5-4.3-1.9-6.5-2.9
		c-2-0.9-4-2-6.1-2.6c-1.2-0.4-2.9-0.3-2.8,1.7c0.1,1.8,1.3,2.6,3,2.3C1068.4,578.2,1069.5,577.5,1070.6,577z M1080.7,577.8
		c2.4,0,3.9-1.3,4-3.5c0.1-2.4-1.6-3.8-4.5-3.9c-3.1-0.1-5.2,1.4-5.3,3.6C1074.9,575.7,1078,577.8,1080.7,577.8z"/>
	<path class="st0" d="M1242.3,518.6c-2.5-2-5.1-3.9-7.8-6c-2.9,3.1-3.2,8.1-6.4,11.1c-0.4-0.2-0.7-0.3-1.1-0.5
		c0.4-1.3,0.7-2.6,1.2-3.8c1.3-3.2,4.1-6.4,3.8-9.4c-0.2-2.8-3.6-5.3-5.5-8c-1.5-2.2-2.9-4.5-3.8-7.2c4.8,2.8,6.4,8.6,11.2,11.8
		c1.8-4.1,3.6-8.3,5.4-12.4c0.4,0.1,0.8,0.2,1.1,0.3c0,0.9,0.2,1.9,0,2.7c-1,2.8-2.2,5.4-3.3,8.1c-1.6,4.2-1,6.1,2.6,8.7
		c1.3,0.9,2.4,2.1,3.7,3.1C1243.1,517.7,1242.7,518.2,1242.3,518.6z"/>
	<path class="st0" d="M154.5,326.6c-1-0.6-2.2-1-3.1-1.8c-2.3-2-4.6-4.1-6.5-6.4c-1.3-1.6-2.6-3.5-3.1-5.5
		c-2.7-10.6-2.7-21.4-0.1-32.1c0.5-2,1.4-4,2.4-5.9c0.4-0.8,1.4-1.4,2.2-2c0.2,0.2,0.5,0.4,0.7,0.5c0,0.5,0.1,1.1-0.2,1.4
		c-2.8,4.2-3.8,9.1-4.2,14c-0.6,7.3-0.6,14.6,1.1,21.9c0.7,2.9,1.8,5.2,4,7.2c2,1.8,3.9,3.6,5.8,5.5c0.7,0.7,1.2,1.5,1.7,2.3
		C155,326,154.8,326.3,154.5,326.6z"/>
	<path class="st0" d="M924.4,185.7c6.3,5.5,13.2,10.2,18,17.3c6,8.9,2.6,22.1-7.1,26.7c-0.8,0.4-1.9,0.4-2.8,0.5
		c-0.1-0.3-0.3-0.6-0.4-0.9c0.7-0.6,1.4-1.2,2.2-1.7c9.7-6,11.7-17,4.3-25.6c-3-3.5-6.6-6.5-10-9.7c-1.5-1.5-3.2-2.8-4.7-4.3
		c-0.4-0.4-0.3-1.3-0.5-1.9C923.8,185.9,924.1,185.8,924.4,185.7z"/>
	<path class="st0" d="M94.2,52.9c-1-0.2-2.1-0.3-3.1-0.5c-1.6-0.4-3.2-1.1-3.2-3s1.3-3.4,3.1-3.6c1.9-0.2,3.9,0.1,5.8,0.5
		c1.2,0.3,2.4,1.2,3.5,1.9c1.5,1,2.8,1.5,4.7,0.5c3.2-1.7,6.5-1,9.4,0.9c1,0.7,1.8,1.9,2.3,3.1c0.9,2.3-0.2,4.2-2.7,4
		c-2.4-0.1-5.1-0.6-7.1-1.8c-3.5-2.1-6.9-3.9-11.1-2.1C95.4,53,94.7,52.8,94.2,52.9C94.2,52.8,94.2,52.9,94.2,52.9z M114.5,54
		c-2-3.7-4.4-4.5-8.6-2.7C108.4,53.5,111,55,114.5,54z M97,50.4c-2.9-3-4.3-3.1-6.9-0.3C92.8,50.2,94.9,50.3,97,50.4z"/>
	<path class="st0" d="M489.4,99.5c-3.8,0-7.1,0-10.4,0c-4.2,0-5.5-1.3-4.5-5.3c0.9-3.3,2.3-6.5,3.5-9.7c0.2-0.5,0.9-0.8,2.1-1.9
		c0,5.5-3.9,9.2-3.3,14.1c3.6,0,7.1,0,10.7,0c1.6,0,1.9-1.2,1.9-2.5c-0.1-1.7-0.3-3.5-0.2-5.2c0.1-1.6,0.4-3.2,0.7-4.8
		c0.4,0,0.9,0,1.3,0c0.2,3.7,0.5,7.4,0.7,11.4c1.2-0.1,2.2-0.1,3.3-0.2c0.1,0.3,0.3,0.5,0.4,0.8c-1.1,0.9-2.2,1.9-3.7,3.2
		c0.2,1.6,0.5,3.7,0.6,5.8c0,0.9-0.3,2.4-0.8,2.5c-1.8,0.5-1.8-1.1-1.9-2.2C489.5,103.5,489.5,101.6,489.4,99.5z"/>
	<path class="st0" d="M1085.7,526.8c-1.9-0.7-1.7-2.3-1.1-3.8c1.2-3.4,2.4-6.8,3.9-10c1.2-2.4,0.8-4.2-0.9-6.1c-1.8-2-3.4-4.1-5-6.2
		c-0.6-0.7-1-1.6-1-2.8c4.5,1.3,5.8,6,9.4,8.9c1.4-3.7,2.5-6.9,3.7-10.1c0.4,0.1,0.7,0.1,1.1,0.2c0,1.2,0.2,2.4,0,3.6
		s-0.6,2.4-1.2,3.4c-3,5-1,8.9,2.8,12.1c1.6,1.4,1,2.3,0.7,3.9c-3.7-1.1-3.7-5.3-7.1-7.3C1089.2,517.4,1087.5,521.9,1085.7,526.8z"
		/>
	<path class="st0" d="M79,237.6c-0.8-1.2-1.4-1.6-1.4-2.1c-1.7-17.8-3.3-35.6-5-54c3.1,1.4,2.8,3.7,3,5.4
		c1.2,11.6,2.3,23.3,3.3,34.9c0.4,4.2,0.7,8.5,0.9,12.7C79.8,235.3,79.4,236.1,79,237.6z"/>
	<path class="st0" d="M174.4,214.2c-3.7,5-7.8,4.2-11.3-2.9c-0.9,1.4-1.3,2.6-2.2,3.4c-2.6,2.4-5.9,1.7-7.1-1.5
		c-1.7-4.8-1.3-9.5,1.3-13.8c0.7-1.2,2.5-2.2,3.8-2.2c0.9,0,2.1,1.7,2.8,2.8c0.7,1.3,0.9,2.8,1.1,4.2c0.2,1.1-0.2,2.4,1.6,2.7
		c0.4,0.1,0.8,1.2,1,1.9c0.3,1.1,0.3,2.4,0.7,3.5c0.9,2.5,2.5,3.2,5,2.2c0.7-0.3,1.5-0.6,2.2-0.8
		C173.6,213.7,173.8,213.9,174.4,214.2z M162.6,208.7c-3.5-2.2-0.9-7-4.6-9.4c-2.4,3.6-3.4,7.2-2.5,11.3c0.2,1.1,1.1,2.7,1.7,2.8
		c1.1,0,2.3-0.8,3.2-1.6C161.3,210.9,161.8,209.8,162.6,208.7z"/>
	<path class="st0" d="M518.3,227.2c-0.2-1.3-0.6-2.6-0.5-3.9c0.6-13.7,0-27.4-1.1-41c-0.3-4.2-0.6-8.4-0.9-12.6
		c0.4-0.1,0.8-0.3,1.1-0.4c0.4,0.8,1.2,1.7,1.3,2.5c1.5,17.5,2.6,35,1.9,52.6c0,0.9-0.4,1.9-0.6,2.8
		C519,227.2,518.7,227.2,518.3,227.2z"/>
	<path class="st0" d="M504.1,214.1c0,3.2-1.9,3.9-3.7,4.1c-3.6,0.5-5.6-1.8-6.9-5c-1.4,1.2-2.6,2.3-3.8,3.3
		c-3.6,2.9-7.8,1.7-9.2-2.7c-1.1-3.5-0.6-6.9,1.4-9.9c2.3-3.5,5.9-4.1,8.7-1c2,2.2,3.2,5,4.7,7.7c0.5,0.9,0.6,2,1.1,3
		c1.1,2.3,2.5,2.8,4.9,1.9C502,215.1,502.7,214.7,504.1,214.1z M486,203.3c-0.5,0.3-1.5,0.7-1.9,1.4c-0.8,1.4-1.5,2.9-1.7,4.4
		c-0.3,2.3-0.5,5.1,2,6.3c2.8,1.3,4.3-1.2,6-2.8c1.3-1.2,2-2.6,0.9-4.6C490.2,205.7,489,203.9,486,203.3z"/>
	<path class="st0" d="M660.3,208.9c-1.8,5.1-5.1,4.9-9.7,0c-1.5,1-2.9,2.2-4.6,3c-3.3,1.6-5.7,0.6-7-2.8c-1.4-3.7,0-10.3,2.9-13
		c2.7-2.6,6-2.3,8.2,0.6c2,2.6,3,5.6,2.9,8.9c0,4.1,1.5,5.3,5.2,3.8C658.8,209.1,659.3,209.1,660.3,208.9z M640.4,205.1
		c0.4,3.8,1.6,5.4,4,4.8c5.2-1.2,7.4-7.3,4.2-11.5c-1.7-2.3-4.3-2.4-5.7,0.1C641.8,200.6,641.2,202.9,640.4,205.1z"/>
	<path class="st0" d="M585.2,199.8c0.7-2,1.1-4.6,2.5-6.3c3.2-3.9,7.2-3.9,11.1-0.4c5.7,5.1,4.6,14.1-2.1,17.4c-4,2-7.9,0.7-9.6-3.3
		C586.2,205,585.9,202.6,585.2,199.8z M587.6,200.3c0.5,2.2,0.7,3.8,1.3,5.3c1.4,3.5,4.2,4.4,7.4,2.4c2.8-1.8,4.1-4.5,3.6-7.9
		c-0.5-3.3-2.3-5.6-5.4-6.8c-2.2-0.9-3-0.3-3.8,2.2c-0.2,0.6-0.6,1-0.9,1.6C589,198.2,588.2,199.4,587.6,200.3z"/>
	<path class="st0" d="M567.4,479c1.7,3.3,3.4,6.7,5.3,10.4c2.8-3.4,3.3-7.7,6.3-10.3c0.3,0.2,0.7,0.4,1,0.5
		c-0.5,1.3-0.8,2.6-1.4,3.8c-1.3,2.9-3.7,5.8-3.7,8.7c0,2.7,2.5,5.4,3.9,8c0.2,0.4,0.6,0.7,0.5,1c0,0.7-0.2,1.4-0.3,2.1
		c-0.6-0.3-1.4-0.6-1.7-1.1c-1.4-2.1-2.6-4.3-4.2-7c-1.4,3.6-4,5.9-3.5,9.5c0.1,0.6-1.1,1.3-1.7,2c-0.5-0.8-1.6-1.7-1.4-2.4
		c0.4-1.8,1.1-3.6,2.1-5.1c2.7-4.4,2.9-8.5-0.2-12.8c-1.1-1.5-1.7-3.3-2.3-5.1c-0.2-0.6,0.1-1.4,0.2-2.1
		C566.7,479.1,567.1,479,567.4,479z"/>
	<path class="st0" d="M672,116.6c0-2.5,1-3.2,3-2.7c4,1.1,6.8-0.5,9.9-3.8c-1.6-1-2.8-2.1-4.2-2.6c-2.8-1.1-5.9-1.7-8.7-2.9
		c-4.6-1.9-5.5-5.3-1.9-8.6c2.6-2.3,6-3.9,9.1-5.5c1.3-0.7,1.5-0.3,2.9,1.4c-2.5,1.1-5,2.2-7.4,3.4c-0.9,0.5-1.8,1.1-2.6,1.9
		c-2.7,2.6-2.4,4.2,1.1,5.5c2.5,0.9,5.1,1.5,7.6,2.4c1.1,0.4,2.2,0.9,3.2,1.5c3.1,2.1,3.4,5.3,0.4,7.5
		C680.8,116.7,676.6,117.5,672,116.6z"/>
	<path class="st0" d="M34.3,380.2c-3.6,1.4-7.4,2.6-11.5,2.3c-3-0.2-4.4-1.4-4.5-3.6c-0.1-2,1.4-4.1,3.8-4.5
		c2.5-0.4,5.2-0.1,8.4-0.1c-0.5-2.9-1-6.1-1.6-9.3c-0.6-3.2-1.3-6.4-1.9-9.5c0.4-0.1,0.8-0.3,1.2-0.4c0.5,1,1.3,2,1.6,3.1
		c1.1,4.9,2,9.9,3,14.9C33.3,375.4,33.7,377.7,34.3,380.2z M30.9,379.2c-3.2-2.9-6.2-3.7-8.7-2.2c-0.7,0.4-1,1.6-1.5,2.5
		c0.2,0.3,0.4,0.6,0.7,1C24.4,380.1,27.4,379.7,30.9,379.2z"/>
	<path class="st0" d="M1386,281.9c0.8-1.3,1-1.8,1.3-2.1c7.2-7.3,8.9-16.7,4.2-25.9c-3-5.9-6.5-11.6-9.7-17.5
		c-0.6-1.2-1.1-2.4-1.6-3.6c0.4-0.2,0.7-0.4,1.1-0.6c0.6,0.7,1.4,1.3,1.9,2.1c3.5,6.1,7.1,12.2,10.3,18.5c3.9,7.6,3.8,15.4,0.1,23.1
		C1392.3,278.5,1390.5,281.1,1386,281.9z"/>
	<path class="st0" d="M1162.5,206.9c-0.6-3.4,1-4.5,2.8-4.9c2.7-0.7,5.5-1.4,8.2-1.3c4,0.1,7.9,0.9,11.8,1.6c1,0.2,2,0.8,2.9,1.3
		c4.5,2.8,4.9,7.2,0.7,10.3c-3.5,2.6-7.5,4.1-12,3.2c-2.6-0.5-2.9-1.3-1.5-4.1c3.6,2.4,9.2,1.9,12.4-1.1c2.2-2.1,2.2-4.2-0.4-5.9
		c-1.2-0.8-2.6-1.6-3.9-1.8c-3.9-0.6-7.9-1-11.9-1.1C1168.4,203,1165.3,203.8,1162.5,206.9z"/>
	<path class="st0" d="M222.9,218.6c0.2-1.5,0.3-3,0.7-4.4s1.2-2.7,1.9-4c1.1-1.9,1.2-3.6-0.3-5.5c-1.7-2.2-3.1-4.6-4.6-7
		c-0.4-0.6-0.5-1.3-0.3-2.3c3.7,1.7,4.8,5.9,8.2,9.2c1.1-3.9,2.1-7.3,3-10.6c0.3,0,0.7,0,1,0.1c0.1,1.1,0.4,2.2,0.2,3.2
		c-0.3,2-0.4,4.2-1.4,5.8c-2.2,3.7-0.9,6.4,1.4,9.3c2.1,2.8,4,5.8,5.5,9.1c-3.2-0.3-3.8-3.2-5.3-4.9c-1.6-1.9-3-4-4.8-6.5
		c-1.5,3.3-2.8,6.2-4,9C223.8,218.8,223.4,218.7,222.9,218.6z"/>
	<path class="st0" d="M892.5,224.2c-5.4,2.2-11.9-1.8-14.2-7.6c-2.4-6-2-12.1,0.1-18c1.8-5.3,3.9-10.5,8.8-13.9
		c1.4-0.9,2.7-2.2,4.7-0.3c-1.6,1.1-3.2,1.8-4.2,3c-6.6,7.4-9.9,15.9-7.9,26c1,5.2,4.5,7.9,9.2,9.6
		C890.1,223.4,891.3,223.8,892.5,224.2z"/>
	<path class="st0" d="M209.2,310.6c-3.1,3.5-4,8.2-7.2,11.3c-0.3-0.1-0.6-0.3-0.9-0.4c0.2-0.8,0.1-1.7,0.5-2.4
		c1.4-2.9,2.8-5.7,4.5-8.4c1.3-2,1-3.5-0.2-5.4c-1.8-2.9-3.2-6.1-4.6-9.2c-0.4-0.9-0.3-2-0.4-3.1c0.4-0.1,0.7-0.2,1.1-0.3
		c2,4,4.1,8,6.5,12.9c2.2-3.5,3.9-6.3,5.9-9.5c1.6,3-0.3,4.4-1,6c-0.8,1.8-1.8,3.5-2.8,5.3c1.1,3.6,5.2,5.8,5.5,9.8
		c-0.3,0.2-0.7,0.4-1,0.7C213.1,315.5,211.2,313.1,209.2,310.6z"/>
	<path class="st0" d="M1246,241.8c0.2-0.8,0.2-1,0.3-1.1c5-2.4,7.8-6.5,9.2-11.8c1.4-5.6,0.4-10.8-1.8-15.9
		c-1.7-3.9-3.7-7.6-5.6-11.5c-0.8-1.6-1.5-3.3-0.9-5.1c0.6,0,1,0,1.1,0.1c2.9,6,6,11.8,8.4,18c3.1,7.7,2.4,15.5-2.3,22.5
		c-1.3,2-3.6,3.4-5.6,4.8C1248.2,242.1,1247.1,241.8,1246,241.8z"/>
	<path class="st0" d="M525.9,296.2c0-5.2,0-9.8,0-14.9c3.2,2.1,1.8,4.9,2.2,7c0.4,2.5,0.5,5,0.8,8c5,0,9.9,0,14.8,0
		c0,0.4,0.1,0.8,0.1,1.2c-2,1.9-4.7,0.8-7.1,1c-2.5,0.2-5,0-7.7,0c-0.2,3.2-0.3,5.8-0.5,8.5c-3-2.2-1.4-5.4-2.9-8.3
		c-3.3,0-6.9,0-10.9,0c1.4-2.9,3.5-2.4,5.3-2.5C522,296.1,523.8,296.2,525.9,296.2z"/>
	<path class="st0" d="M1127.4,348.5c1.1-2.1,2.4-0.9,3.1,0.1c1.9,2.5,3.8,5.1,5.4,7.9c3.9,6.7,6.2,13.9,5.5,21.7
		c-0.5,5.2-2.2,9.9-5.7,13.8c-1.9,2-2.4,2.1-5.5,1.3c1.5-1.1,3-2,4.1-3.1c3.1-3.4,4.5-7.6,4.8-12c0.7-11.1-3.7-20.5-11-28.6
		C1127.8,349.1,1127.6,348.8,1127.4,348.5z"/>
	<path class="st0" d="M524.5,172.4c1.3,16.6,2.6,33.3,3.9,50c0,0.4-0.6,0.8-0.9,1.2c-1.9-2.8-5.5-40.6-4.8-49.3
		c0.1-0.7,0.6-1.4,1-2.2C523.9,172.2,524.2,172.3,524.5,172.4z"/>
	<path class="st0" d="M448,310.3c-3.2,1.3-3.9-0.5-4.2-2.3c-0.4-2.5-0.6-5-0.9-7.7c-5.1-1.1-9.9,1.2-14.9,1.2
		c0.8-2.5,0.8-2.5,6.6-3.2c2.6-0.3,5.2-0.7,8.3-1.1c0-3.8,0-7.6,0-11.5c0.4,0,0.8-0.1,1.1-0.1c1.8,3.5,0.6,7.5,1.8,11.3
		c2.9,1.3,6.8-0.3,9.9,3.7c-3.7-0.3-6.6-0.6-10-0.9C445.7,303.5,444.8,307,448,310.3z"/>
	<path class="st0" d="M1084.3,385c-3.2-1.5-3.5-5.6-6.7-7.6c-1.2,2-2.5,3.9-3.7,5.9c-1.1,1.8-1.2,4.3-4.1,5.4c0.2-3.8,2-6.2,3.4-8.8
		c3.7-6.5,3.7-4-0.5-10.2c-0.7-1.1-1.8-2-2.5-3.1c-0.4-0.6-0.4-1.5-0.7-2.9c4.5,1.8,5.1,6.2,8.6,8.3c1-1.4,1.8-2.9,2.8-4.2
		c0.9-1.3,1.9-2.6,2.8-3.9c0.4,0.2,0.8,0.4,1.1,0.6c-0.5,1.2-0.7,2.6-1.5,3.5c-4,4.5-4.1,8.8,0.3,13.1c0.8,0.8,1.1,2,1.6,3.1
		C1084.9,384.5,1084.6,384.7,1084.3,385z"/>
	<path class="st0" d="M633.1,506.6c0.8-3.9-0.5-7.4,1.4-10.2c0.3,0,0.7,0,1,0c0,3.2,0,6.3,0,9.4c4,1.7,8-0.4,11.3,1.5
		c0,0.4,0,0.9,0,1.3c-3.4,0.2-6.9,0.4-10.7,0.6c0.2,4.2,0.5,8.2,0.7,12.2c-0.4,0.1-0.9,0.1-1.3,0.2c-2.4-3.6-0.5-8.3-2.5-12.5
		c-2.3,0-4.8,0.2-7.3-0.1c-2.2-0.2-4.8,0.7-7.1-2.3C623.8,506.6,628.4,506.6,633.1,506.6z"/>
	<path class="st0" d="M619.7,177c-0.5,1.7-0.9,3.5-1.5,5.1c-3.3,9.6-4.5,19.4-4,29.5c0.2,4.7,1.6,8.8,4.8,12.4
		c0.4,0.5,0.6,1.2,0.9,1.9c-0.2,0.2-0.4,0.5-0.7,0.7c-0.8-0.6-1.8-1.1-2.5-1.9c-3-3.1-4.4-7-4.7-11.2c-1-12,0.7-23.6,5-34.9
		c0.3-0.8,1-1.4,1.5-2.1C618.9,176.7,619.3,176.9,619.7,177z"/>
	<path class="st0" d="M800.7,109.7c-5.7,1.4-10.8-1.3-13.6-6.4c-2.5-4.5-2.7-9.4-2.2-14.4c0.7-6.8,3.2-12.9,7.2-18.3
		c0.9-1.2,1.8-2.6,4.3-1.9c-0.7,1.1-1.1,1.8-1.6,2.5c-5.7,7.1-8.2,15.1-7.6,24.1c0.5,6.6,4.2,11.9,10.4,13
		C798.4,108.3,799.1,108.9,800.7,109.7z"/>
	<path class="st0" d="M88.1,232.9c-0.5-1.3-1.3-2.6-1.5-3.9c-0.6-4.6-1.1-9.3-1.6-13.9c-0.9-9.3-1.7-18.6-2.5-27.9
		c-0.1-1.1,0-2.3,0-3.4c2.3-0.5,2.1,1.1,2.2,2.2c0.8,7.7,1.6,15.4,2.4,23c0.7,7.2,1.4,14.3,2.1,21.5c0.1,0.7-0.1,1.4-0.1,2.1
		C88.7,232.7,88.4,232.8,88.1,232.9z"/>
	<path class="st0" d="M508.2,105.1c1.9-0.4,3.9-0.8,6.2-1.2c-0.4-3.9-0.7-7.8-1.2-12.2c-2.8,2.4-3.8,6-7.2,7.4
		c-0.2-0.6-0.5-1.1-0.4-1.3c2.7-4.3,5.5-8.6,8.9-13.7c2,6.9,0.7,13.4,2.8,19.9c2.7,0,5.6,0,8.5,0c0,0.4,0.1,0.8,0.1,1.2
		c-2.9,1.8-6.4,1.3-9.5,1.3c-2.7,0-5.7,1.6-8.3-0.2C508.1,105.9,508.1,105.5,508.2,105.1z"/>
	<path class="st0" d="M808.5,79.9c3,2.8,3.6,7.4,6.9,10.2c2.5-2.4,3.5-6.3,8-8c-1.2,4.7-5.4,6.9-6.4,11.5c2.5,2.5,5.3,5.3,8,8.1
		c-2.4,1-3.3,0.9-5.3-1.3c-1.4-1.6-2.6-3.2-4.5-5.5c-1.6,3.6-3,6.6-4.4,9.6c-0.2,0-0.5,0-0.7-0.1c-0.2-0.8-0.6-1.6-0.6-2.3
		c0.1-0.9,0.3-1.9,0.9-2.6c3.6-4.7,2.8-9.1-0.7-13.5c-1.2-1.5-1.7-3.6-2.5-5.5C807.7,80.4,808.1,80.2,808.5,79.9z"/>
	<path class="st0" d="M653.7,437.4c5.8,0.8,11-0.8,16.6-4.5c-2-0.7-3.3-1.4-4.7-1.7c-3-0.7-6.1-0.9-9-1.8c-1.8-0.5-3.7-1.5-5.1-2.8
		c-1.6-1.4-1.2-3.4,0.6-5.2c1.8-1.9,3-1.9,5.4,0c-1.6,0.9-3.2,1.7-4.8,2.6c0,0.4,0,0.7,0,1.1c1.5,0.7,2.9,1.6,4.4,2
		c2.8,0.7,5.7,1.1,8.6,1.7c1.7,0.4,3.4,0.8,4.9,1.6c2.2,1.2,2.5,2.9,0.6,4.4c-4.6,3.8-10,5.5-15.9,5c-0.7-0.1-1.3-1.1-1.9-1.7
		C653.5,437.9,653.6,437.7,653.7,437.4z"/>
	<path class="st0" d="M1141.7,195.1c0.6-0.7,1.1-1.5,1.8-2.2c8.5-8.6,8.8-18.9,0.7-28c-3-3.3-5.9-6.7-9.5-10.7
		c1.5,0.1,2.5-0.2,2.8,0.2c4.2,4.6,8.8,9,12.2,14.1c5.8,8.7,1.9,20.3-4.6,26.1c-0.7,0.7-1.8,1-2.7,1.4
		C1142.1,195.7,1141.9,195.4,1141.7,195.1z"/>
	<path class="st0" d="M175.7,314.7c-3.9,0.7-5.3-2.7-8.3-4.1c-1.4,3.1-2.7,6.2-4,9.3c-0.3,0-0.6,0-0.9,0c-0.2-0.8-0.7-1.8-0.4-2.5
		c0.7-2.3,1.5-4.6,2.7-6.6c1.5-2.5,1-4.4-0.5-6.5c-1.3-1.8-2.5-3.8-3.6-5.8c-0.5-0.9-0.6-2-0.9-3c0.4-0.2,0.7-0.3,1.1-0.5
		c2.1,3.2,4.3,6.3,6.5,9.5c2.8-2.4,2.3-6.5,5.8-8.7c0.1,1.2,0.3,2,0.1,2.5c-0.8,2.1-1.6,4.3-2.7,6.2c-1.6,2.6-0.9,4.4,1.2,6.2
		C173.2,311.9,174.4,313.4,175.7,314.7z"/>
	<path class="st0" d="M600.6,508.7c-11.5,3-44.3,4.8-48.4,2.8c3.4-1.9,6.7-0.9,9.8-1.2c3.3-0.3,6.6-0.5,9.9-0.8
		c3.2-0.3,6.4-0.6,9.5-0.9c3.3-0.3,6.6-0.6,9.9-0.8C594.5,507.7,597.7,506.5,600.6,508.7z"/>
	<path class="st0" d="M389.7,230.5c8.8-8.2,7.2-17.5,4-27c-1.1-3.4-3-6.5-4.3-9.9c-0.8-2.1-2-4.3-1-6.6c0.4-0.3,0.8-0.7,1.2-1
		c0.2,0.7,0.3,1.3,0.5,1.9c1.9,4.8,3.8,9.6,5.7,14.4c3.1,7.6,3.3,15.2,0.8,23c-0.8,2.5-2.3,4.5-4.8,5.5
		C391.4,231.1,390.6,230.7,389.7,230.5z"/>
	<path class="st0" d="M841.7,66.1c4.5,9.9,11.3,18.7,9.5,30.4c-0.7,4.3-1.9,8.3-4.7,11.7c-1,1.2-2,2.6-3.9,1.6
		c0-0.4-0.2-0.8-0.1-0.9c7.8-8,8.1-17.2,4.3-26.9c-1.6-4.1-3.8-7.9-5.7-11.9C840.6,68.9,839.7,67.5,841.7,66.1z"/>
	<path class="st0" d="M355.5,224.5c-2.8,1.1-5.3-0.2-7.6-1.7c-3.8-2.4-6.1-6-6.9-10.3c-1.6-8.5-0.6-16.7,2.5-24.7
		c0.5-1.3,0.9-3.3,3.7-2.2c-0.8,1.6-1.7,3-2.2,4.6c-2.1,7.1-3.3,14.3-1.8,21.6c1.1,5.4,4.2,9.1,9.6,10.6c1,0.3,1.9,0.7,2.8,1
		C355.6,223.8,355.6,224.1,355.5,224.5z"/>
	<path class="st0" d="M951.5,71c-0.4,1-0.5,2.2-1.1,3c-3.1,4-6.4,7.8-9.5,11.8c-1.4,1.8-2.4,3.8-3.9,6.3c6.5,1.5,12.4,0.4,18.3,0.8
		c0.1,0.3,0.2,0.6,0.3,0.9c-0.6,0.4-1.1,1.3-1.7,1.3c-4.9,0.1-9.9,0.2-14.8-0.1c-3.5-0.2-4.9-2.9-3.1-5.9c1.7-3,3.8-5.7,5.9-8.5
		c2.7-3.5,5.5-6.8,8.2-10.2C950.7,70.7,951.1,70.8,951.5,71z"/>
	<path class="st0" d="M144.4,186.2c-3.3,5.7-4.8,11.9-4.7,18.3c0,3.8,0.4,7.7,1.1,11.5c0.9,4.6,3.5,8,8.6,8.8c0.3,0,0.6,0.4,1.1,0.8
		c-1.6,1.9-3.4,1.4-5,0.6c-3-1.5-5.1-3.9-6.1-7.1c-3.3-10.7-2.7-21.2,1.8-31.5c0.4-0.9,1.6-1.5,2.4-2.2
		C143.8,185.5,144.1,185.8,144.4,186.2z"/>
	<path class="st0" d="M1162.3,497.3c-0.2,1.2-0.3,2.4-0.7,3.5c-0.7,2.3-1.4,4.6-2.4,6.7c-1.5,3.2-0.9,5.8,1.7,8.2
		c1.2,1.1,2.2,2.5,3.4,3.8c-2.1,0.6-2.1,0.6-6.9-3.5c-0.8,1.9-1.5,3.8-2.3,5.6c-0.4-0.1-0.9-0.2-1.3-0.4c0.2-1.8,0.3-3.8,0.8-5.5
		c0.6-2.1,0.3-3.8-1.2-5.4c-1.7-2-3.2-4.2-4.7-6.4c-0.5-0.7-0.6-1.6-0.6-2.6c3.5,1.4,4.6,5.3,7.7,7.5c2.5-3.8,2.5-8.6,5.3-11.9
		C1161.6,497,1161.9,497.1,1162.3,497.3z"/>
	<path class="st0" d="M359.2,217.8c1.1-5.2,4.9-9.1,7-13.8c-1.5-3-3-5.9-4.8-9.3c3.1-0.1,3.1,1.8,4,3c0.8,1.1,1.6,2.3,2.6,3.8
		c1.7-2,3.1-3.6,5-5.8c0.9,4.2-2.6,5.5-3,9.1c2.1,2.8,4.8,6.2,7.4,9.6c-2.2,0.7-2.2,0.7-5-2.6c-1.4-1.6-2.7-3.2-4.5-5.3
		c-2.6,4.3-4.9,8.3-7.3,12.2C360,218.2,359.6,218,359.2,217.8z"/>
	<path class="st0" d="M1100.3,159.5c0.6,0.7,1.4,1.4,1.9,2.2c3.7,5.9,7.3,11.8,11,17.6c0.8,1.3,2.3,2.2,4.1,3.9
		c-0.1,0.5-0.4,1.8-0.9,3.9c-4.9-3.8-6.1-9.3-9.8-13.2c-3.3,2.7-3.2,7.7-6.7,10.2c-0.3-0.1-0.6-0.2-0.9-0.4c0.3-1,0.4-2.1,0.9-3
		c1.1-2.3,2.2-4.6,3.5-6.7c1.4-2.2,1.3-4-0.2-6.2c-1.6-2.3-2.8-4.9-4.2-7.3C1099.5,160.1,1099.9,159.8,1100.3,159.5z"/>
	<path class="st0" d="M1212.2,226.1c0.4-1.3,0.7-2.6,1.3-3.7c1.7-3.1,3.5-6.2,5.4-9.3c1.1-1.7,1.1-3.3,0.3-5.2
		c-1.2-2.7-2.2-5.5-3.3-8.2c2.3-1.3,2.5,0.4,2.9,1.3c2.3,5.6,4.5,11.3,6.9,16.9c1.1,2.7,2.5,5.4,3.8,8.5c-3.8,0-3.9-3.1-4.9-5
		c-1.2-2.2-2-4.5-3.3-7.5c-2.8,4.7-5.3,8.9-7.7,13C1213.1,226.5,1212.6,226.3,1212.2,226.1z"/>
	<path class="st0" d="M772.2,311.2c5.1,1.6,10.4-0.7,14.5,2.6c0,0.4-0.1,0.7-0.1,1.1c-2.2-0.2-4.4-0.4-6.6-0.5c-2.4-0.1-4.8,0-7.4,0
		c-0.3,1-0.6,2-1,3.2c-2-1.9-4.5-14.7-3.8-18.7c2.4,0.4,1.7,2.6,2.3,4s0.8,3.1,1.2,4.9c3-1.4,4.3-4.2,6.1-6.6c1.3,2.5,1.1,3-1,5.4
		C775.1,308,773.8,309.4,772.2,311.2z"/>
	<path class="st0" d="M1209.5,229.8c-0.4,0.4-0.8,1-1.3,1.2c-6.2,1.8-13.1-1.7-14.4-7.9c-1.9-8.9,0.3-16.8,6.6-23.5
		c0.8-0.8,1.9-1.3,2.9-1.9c0.3,0.3,0.6,0.6,0.9,1c-0.7,0.8-1.3,1.7-2,2.5c-4.7,5.3-7.1,11.4-6.5,18.6c0.5,6.2,3.5,9.1,9.7,9.2
		c1.3,0,2.6,0,3.9,0C1209.3,229.1,1209.4,229.5,1209.5,229.8z"/>
	<path class="st0" d="M1343.8,267.3c0.2-1.2,0.3-2.5,0.8-3.6c1.3-3.2,2.6-6.4,4.1-9.5c0.9-1.9,0.8-3.4,0-5.3c-1-2.2-2.9-4.2-2-7.6
		c0.9,1,1.6,1.4,2,2.1c1.9,3.8,3.6,7.7,5.6,11.5c2.2,4,4.6,7.9,7.2,12.3c-0.8-0.2-2-0.1-2.4-0.6c-1.6-1.8-3-3.7-4.2-5.7
		c-1.1-1.8-2-3.7-3.5-6.5c-2.3,5-4.1,9.2-6,13.4C1344.7,267.6,1344.2,267.4,1343.8,267.3z"/>
	<path class="st0" d="M250.6,226.3c0-0.4,0-0.8,0.1-0.9c8.5-8.4,8.1-18.2,4.2-28.4c-1.2-3.2-2.8-6.3-4.1-9.5
		c-0.3-0.8-0.3-1.8-0.5-3.2c1,0.5,1.5,0.5,1.7,0.8c4,7.8,8.2,15.6,7.9,24.8c-0.2,5.4-1.5,10.6-5,14.9
		C253.8,225.9,252.7,227.5,250.6,226.3z"/>
	<path class="st0" d="M530.3,415c2.5,2.8,3,6,3.2,9.1c0.2,4.8,0.1,9.6,0.3,14.4c0.1,2.3,0.5,4.6,0.8,7.4c-0.9,0.7-2.1,1-2.6-0.9
		c-0.4-1.3-0.4-2.6-0.4-3.9c-0.1-5.3-0.2-10.7-0.3-16c0-1.4-0.4-2.8-1.3-4.4c-1.6,2.7-3.1,5.4-4.7,8.1c-0.4-0.2-0.7-0.4-1.1-0.6
		C524.9,423.3,527.7,419.2,530.3,415z"/>
	<path class="st0" d="M200.4,205.7c3.2,0.8,6.5-1.4,10.4,0.3c-3.5,2.7-7.2,1.4-10.3,2.8c0,3,0,6,0,8.9c-0.3,0.1-0.6,0.1-0.9,0.2
		c-2.3-2.4-0.5-6.1-2.2-8.9c-4.2-1.2-9.1,0.7-13.4-1.6c4.2-1.6,8.7-0.5,13.4-1.4c-0.2-2.8-0.3-5.5-0.5-8.2c0.3-0.1,0.7-0.2,1-0.3
		C200.4,199.6,198.5,203.4,200.4,205.7z"/>
	<path class="st0" d="M1098.1,101.7c-2.2-1.5-1.9-3.3-1.9-4.9c-0.3-8.8-0.5-17.6-0.8-26.3c-0.1-3.2-0.5-6.4-0.7-9.5
		c-0.1-1.1,0-2.3,0-3.4c0.3-0.1,0.7-0.2,1-0.3c0.4,0.9,1.1,1.7,1.2,2.6c0.6,7.2,1.2,14.3,1.5,21.5c0.3,5.7,0.2,11.4,0.3,17.2
		C1098.5,99.4,1098.3,100.3,1098.1,101.7z"/>
	<path class="st0" d="M760.3,310.6c-8.7-12.1-16.4-24.1-23.7-36.3c0.3-0.3,0.6-0.5,0.9-0.8c0.7,0.6,1.6,1,2.1,1.7c2,2.9,4,6,5.9,9
		c4.5,6.8,8.9,13.5,13.3,20.3c0.9,1.3,1.6,2.7,2.2,4.2C761.2,309.2,760.6,309.9,760.3,310.6z"/>
	<path class="st0" d="M691.4,482.1c3.6,1.3,7.4-2.2,10.6,2.1c-3.7,0.3-6.7,0.7-9.7,0.7c-3.4,0-4.1-1-2.9-4.2c1.2-3.4,2.6-6.7,3.9-10
		c0.4-1.2,0.7-2.4,1.1-3.9c-4,0.4-5.1,3.8-7.9,5.8c-0.2-1.1-0.6-2.1-0.3-2.3c1.9-2,3.8-4.1,6.1-5.6c2.4-1.5,4.2-0.3,4.2,2.6
		c0,1.7-0.6,3.4-1.2,5C694.1,475.4,692.7,478.7,691.4,482.1z"/>
	<path class="st0" d="M204.6,68.7c0.3,1.3,0.6,2.7,0.9,4c0.3,1.3,0.3,2.6,0.7,3.9c0.6,2.1,1.8,3.2,4.1,2.3c0.8-0.3,1.6-0.2,2.9-0.4
		c-1.2,3-3.4,3.4-5.4,2.9c-3.9-1-4.2-4.7-5-9c-2.2,3.5-4,6.3-5.9,9.3c-2.1-2.7-2.5-10.6-1.1-14.6c1.3,0.9,1.3,0.9,1.9,7.7
		c2-2.3,3.7-4.4,5.5-6.5C203.7,68.4,204.1,68.6,204.6,68.7z"/>
	<path class="st0" d="M177.7,104.1c2.8,0,5.1,0,7.4,0c0.4,2.6-1.3,2.2-2.5,2.3c-9.7,0.6-12.7,0.3-14.1-2c2.2-0.2,4.2-0.3,6.7-0.5
		c-0.2-2.9-0.4-5.6-0.7-8.5c-2.9,0.3-3.5,4.9-6.9,3.2c2.1-3,4.1-5.9,6.2-8.7c0.3-0.4,1.3-1,1.5-0.8c0.5,0.4,1.1,1.1,1.2,1.8
		C177,95.1,177.3,99.3,177.7,104.1z"/>
	<path class="st0" d="M1335.3,237.7c-8.7,12.8-9.1,24.7,4.3,35c-0.2,0.2-0.3,0.5-0.5,0.7c-1.1-0.3-2.3-0.4-3.2-1
		c-3.2-2-5.7-4.8-7-8.5c-3-8.3-2.7-16.5,2.1-24.1C1332.5,237.5,1332.7,237.5,1335.3,237.7z"/>
	<path class="st0" d="M1095.4,189.6c-3.6,1.8-7.5,0.8-9.4-2.4c-1.4-2.4-2.4-5.1-3-7.8c-1.5-6.7-0.5-13.2,2.6-19.4
		c1-1.9,2.3-3.3,4.2-4c0.2,0.2,0.5,0.4,0.7,0.6c-0.3,0.7-0.6,1.6-1.1,2.2c-5.4,6.8-6.5,18.5-2.2,26c0.8,1.4,2.7,2.4,4.2,3.3
		C1092.5,188.7,1093.8,189,1095.4,189.6z"/>
	<path class="st0" d="M399.9,279.1c4.9,0,9.1,0,13.2,0c0.1,0.3,0.2,0.7,0.3,1c-0.6,0.4-1.3,1.2-1.9,1.2c-3.2,0.1-6.4,0.3-9.6,0.1
		c-3.3-0.2-4.4-1.9-3.6-5.2c0.5-2.2,1.5-4.2,2.2-6.4c0.6-1.9,1-3.8,1.4-5.7c-0.2-0.2-0.5-0.4-0.7-0.6c-2,1.3-4.1,2.6-6.4,4.1
		c0.6-3.6,4.6-7,7.2-6.5c1.8,0.3,2.4,1.8,2.1,3.3c-0.4,2.5-1.1,4.9-1.8,7.3C401.7,273.9,400.9,276.1,399.9,279.1z"/>
	<path class="st0" d="M894.3,328.1c4.5,1.5,8.9-0.5,13.2,2c-2.4,1.9-4.7,0.8-6.7,1c-2.2,0.2-4.5,0-7.1,0c-0.3,0.7-0.6,1.7-1,2.7
		c-0.3,0-0.6,0.1-0.9,0.1c-2.3-4.7-1.4-10.1-3.3-15.7c2.4,1.4,2.4,1.4,4.3,7.7c1.2-1.5,2.4-2.7,3.3-4.1c1-1.4,1.8-2.8,2.9-4.6
		c1.8,2.7,0,4.3-1.1,5.8C896.9,324.8,895.7,326.3,894.3,328.1z"/>
	<path class="st0" d="M1150.2,59.7c1,13.3,1.9,26.7,4.8,40.3c-0.8-0.3-1.8-0.4-2.2-0.9c-0.6-0.8-1.1-1.9-1.2-2.9
		c-1.2-11.5-2.4-22.9-3.4-34.4c-0.1-0.7,0.4-1.5,0.6-2.3C1149.2,59.6,1149.7,59.7,1150.2,59.7z"/>
	<path class="st0" d="M1304.2,247c-0.8-2.9,0.6-4.6,2.8-5.5c4.1-1.8,8.3-1.9,12.3,0.1c4.3,2.2,5.2,6.6,2.2,10.2
		c-2.3,2.7-5,4.8-8.6,5.4c-0.7,0.1-1.7-0.3-2.4-0.8c-0.3-0.2-0.2-1.6,0.1-1.8c0.6-0.3,1.5-0.4,2.3-0.3c2.9,0.3,8.3-4.1,7.9-6.9
		c-0.2-1.3-1.3-3-2.5-3.6c-4.5-2.7-9.6-1.4-12.8,2.7C1305.3,246.8,1305,246.8,1304.2,247z"/>
	<path class="st0" d="M1172.3,46.9c-2,0-3.3-0.2-4.5,0c-2.7,0.6-3.5,2.9-1.5,4.7c2,1.7,4.4,3,6.7,4.3c1.7,1,3.6,1.8,5.2,2.9
		c1.4,0.9,1.3,2.2,0.2,3.4c-1.7,1.9-7.8,3.3-10.9,2.4c2.2-3,6.3-1.7,9-4.2c-2.9-1.5-5.7-2.6-8.2-4.3c-1.8-1.2-3.6-2.8-4.8-4.6
		c-1.4-2.1-0.3-4.8,1.9-6.2C1168,43.6,1169.9,43.9,1172.3,46.9z"/>
	<path class="st0" d="M1037.2,112.5c2.9,1.5,5.3,1.3,7.7-1.6c-2-1.5-3.9-2.9-5.8-4.2c-1.9-1.3-4-2.3-5.7-3.7c-2.7-2.4-2-5.6,1.5-6.8
		c2.4-0.8,5.3-0.5,7.6,0.9c-2.4,2.2-6.3-0.5-8.3,2.8c0.8,2.1,3,2.7,4.7,3.9c2,1.3,4.1,2.4,6,3.9c2.9,2.4,2.6,5.2-0.8,6.9
		c-1.6,0.8-3.5,1.1-5.3,1.2C1036.8,116,1036.3,114.8,1037.2,112.5z"/>
	<path class="st0" d="M1171.7,524.5c5.7-4,7.6-10.4,4.8-17c-1.9-4.4-4.5-8.4-6.8-12.6c-0.7-1.3-1.3-2.7-1.9-4
		c0.2-0.2,0.4-0.3,0.7-0.5c0.5,0.2,1.3,0.3,1.6,0.7c2.9,4.9,6.2,9.7,8.5,14.9c2.6,5.6,2.1,11.5-1,16.9
		C1176.1,525.3,1174.5,525.7,1171.7,524.5z"/>
	<path class="st0" d="M1030.7,455.2c-0.5-1.2-0.9-2.4-1.6-4c-3.6,0-7.4,0-11.5,0c1-3.3,3.4-2,5.1-2.2c1.8-0.3,3.7-0.1,5.5-0.1
		c0.3-4.2-3.1-7.4-1.7-11.2c0.3-0.1,0.7-0.2,1-0.3c1.2,3.5,2.5,7,3.7,10.4c3,0.6,5.9-1.5,9.1,0.2c-2.4,2.6-5.6,1.3-8.1,2.9
		c-0.1,1.2-0.2,2.7-0.3,4.3C1031.5,455.2,1031.1,455.2,1030.7,455.2z"/>
	<path class="st0" d="M1131.7,54.7c3.7-1.1,6.3,1,7.3,5.2c0.7,3.3-0.7,5.6-4.5,6.1c0.8-1.4,1.4-2.6,2.3-4.2c-8.1,0-15.7,0-23.3,0
		c-0.2,0-0.3-0.6-0.9-1.6c8.1-0.5,15.8-0.1,23.5-0.3C1135.4,57.8,1135.4,57.8,1131.7,54.7z"/>
	<path class="st0" d="M1367.9,271.9c-0.8-4.2-1.7-8.4-2.5-12.6c0.4-0.1,0.9-0.3,1.3-0.4c0.9,2,1.8,4.1,2.8,6.5
		c0.7-1.3,1.2-2.3,1.8-3.2c0.4-0.6,1.3-1.5,1.7-1.4c0.7,0.2,1.5,1,1.8,1.7c0.9,2.2,1.6,4.5,2.5,6.7c0.2,0.6,0.8,1,1.4,1.5
		c1.5-0.6,2.8-1.2,4.5-1.9c0.1,2.6-1.4,3.6-3,3.9c-1.2,0.2-3.1-0.2-3.9-1c-1.5-1.7-2.4-3.9-3.7-6.2c-1.2,2.3-2.4,4.5-3.6,6.6
		C1368.7,272,1368.3,271.9,1367.9,271.9z"/>
	<path class="st0" d="M187.6,81.6c5.2,3.3,9.7,7.2,11.8,13.2c1.4,4.1,2.2,8.4,0.4,12.5c-0.9,2.1-2.6,3.9-4.3,5.5
		c-1.3,1.2-2.9,1.3-3.5-0.7c1.7-1.3,3.7-2.1,4.5-3.6c1.1-1.8,1.6-4.2,1.7-6.4c0.2-5.5-2-10-5.8-13.9
		C190.5,86.3,187.9,84.9,187.6,81.6z"/>
	<path class="st0" d="M259.3,65.2c2.9-5.2,5.4-9.8,8-14.4c0.1-0.1,0.5-0.1,1.3-0.3c1.8,8.3-0.4,17.1,3.1,25.2
		c-3.2-1.8-3.8-4.8-4.1-7.9c-0.4-3-0.5-6-0.7-9.4C263.9,60.5,263.5,64.6,259.3,65.2z"/>
	<path class="st0" d="M567,273.6c1,1.9,2,3.8,3.2,5.7c3.5,5.8,7,11.6,10.4,17.5c1.2,2.1,2.4,4.1,3.3,6.4c0.5,1.2,0.5,3.7,0.2,3.8
		c-2.5,0.8-1.6-1.6-2.2-2.7c-3.3-5.8-6.5-11.6-9.9-17.3c-1.6-2.8-3.4-5.4-4.9-8.2c-0.7-1.4-1-3-1.5-4.6
		C566.1,273.9,566.6,273.8,567,273.6z"/>
	<path class="st0" d="M895.3,81.7c3.5-1.1,6-2,8.6-2.8c0-0.3,0-0.7,0-1c-1.4-0.9-2.9-1.8-4.3-2.7c-1.7-1.1-3.5-2-5-3.3
		c-2.7-2.3-3-4.1-1.7-6.7c1.4-2.9,4.1-4.2,8.4-3.5c-1.5,0.9-2.3,1.6-3.3,2c-4.4,2.2-4.6,4.9-0.4,7.6c1.8,1.2,3.9,1.8,5.5,3.1
		c1.3,1.1,3.2,2.9,3,4.1c-0.2,1.3-2.4,2.6-3.9,3.4c-1.4,0.7-3.1,0.9-4.6,1C897.2,83.1,896.6,82.4,895.3,81.7z"/>
	<path class="st0" d="M1147.8,525.6c-3.2,1.4-4.6-0.3-5.6-1.8c-1.6-2.7-3.2-5.6-4-8.6c-1.7-6.7-1.1-13.4,0.9-20
		c0.3-1,1.2-1.9,1.8-2.9c0.4,0.2,0.7,0.3,1.1,0.5c-0.2,1-0.4,2.1-0.7,3.1c-1.8,5.4-2,11-1.3,16.5
		C1140.6,517.6,1142.7,522.2,1147.8,525.6z"/>
	<path class="st0" d="M870.4,268.2c2.1,2.8,0.6,6.3,1.8,9.7c1.9-2,3.6-3.9,5.4-5.8c0.3,0.2,0.6,0.4,0.9,0.6c-0.1,3.5-4.3,5-4.6,8.5
		c1.8,0.3,3.7,0.7,6.1,1.1c-2.6,2.6-5.1,1.2-7.6,1.7c-0.3,0.8-0.7,1.9-1,2.8C869.2,287,868.4,274,870.4,268.2z"/>
	<path class="st0" d="M295.8,106.1c-2.4,0.1-4.9,0.3-7.9,0.4c0.7,3,1.4,5.6,2.2,9.1c-1.3-0.6-2.2-0.8-2.5-1.3
		c-0.5-0.7-0.6-1.7-0.8-2.6c-1.5-5.7-1.1-4.7-6.4-4.4c-1.6,0.1-3.2,0-5.7,0c3.1-3.2,6.7-1.6,9.5-3.1c0-2,0-3.9,0-6.1
		c3.3,0.8,1.5,4.2,3.3,5.4c2.6,1.5,6.3-1,8.6,1.5C295.9,105.4,295.8,105.7,295.8,106.1z"/>
	<path class="st0" d="M698.7,519.6c-0.7,0.3-1.4,0.6-2,1c-0.5,0.3-1,0.7-1.6,1.2c-0.5-2.8,0.2-3.8,2.6-4.3c1.9-0.4,3.8-0.1,3.9,2.2
		c0.1,1.8-0.3,3.7-1,5.4c-0.9,2.2-2.3,4.2-3.6,6.6c4.2,1.1,8.5-0.5,12.3,1.8c-0.7,0.3-1.3,0.8-2,0.8c-3.5,0.1-6.9,0.2-10.4,0.1
		c-2.9-0.1-3.5-1.4-2.1-3.9c1.1-2.1,2.5-4.1,3.6-6.2c0.6-1.2,0.9-2.6,1.3-3.9C699.3,520,699,519.8,698.7,519.6z"/>
	<path class="st0" d="M599.6,305.3c-1.8,2.6-3.1,4.6-4.5,6.7c-2-1.8-2.6-3.2-4.4-10.3c2.2,0.1,2.2,0.1,4.3,4.8
		c0.9-0.8,1.7-1.6,2.6-2.3c2-1.7,3.2-1.5,4.4,0.8c0.7,1.3,1.2,2.7,1.8,4c1.8,4,1.8,4,6.1,3.8c0.3,0,0.7,0.3,1.1,0.4
		c-1.8,2.6-4.6,3-6.8,0.7c-1.1-1.1-1.8-2.6-2.5-4C601,308.7,600.5,307.3,599.6,305.3z"/>
	<path class="st0" d="M1105.4,99c-0.6-1.4-1.1-2.1-1.1-2.8c-0.8-10.8-1.6-21.7-2.4-32.6c0-0.2,0.5-0.5,1-1c0.4,0.8,0.9,1.4,1,2
		C1105.6,74.4,1106.7,95.4,1105.4,99z"/>
	<path class="st0" d="M258.8,303.1c3.4-2,30.5-2.8,35.4-1.4c-1.4,0.7-2.2,1.4-3,1.4c-10,0.3-20,0.5-30,0.7
		C260.4,303.9,259.6,303.4,258.8,303.1z"/>
	<path class="st0" d="M69,131c-1.3,2.8-2.4,5.2-3.6,7.7c-2-2.7-2.8-10.1-1.7-14.4c3,1.4,1,4.6,2.4,6.5c1.1-1.5,2.2-2.9,3.9-5.1
		c0.8,1.7,1.7,2.8,1.9,4c1,5.2,0.9,5.3,4.9,7.6C73.2,139.7,72.7,139.3,69,131z"/>
	<path class="st0" d="M316.4,118c-3.1-5.4-1.3-11.7-3.4-17.3c-2.9,0.8-2.4,5.8-7,5.2c2.7-4.1,5.2-7.8,7.6-11.5
		c0.3,0.1,0.7,0.2,1,0.3C316.4,102.3,316.8,110.1,316.4,118z"/>
	<path class="st0" d="M1189.1,370.3c-2.3-0.2-4.6-0.6-7-0.6c-7.8-0.1-15.6-0.2-23.5-0.2c-1.3,0-2.9,0.6-3.7-1.7
		c1.2-0.2,2.2-0.6,3.1-0.6c8.4,0,16.7,0,25.1,0.2c2.2,0.1,4.6,0.1,6.3,1.7C1189.3,369.5,1189.2,369.9,1189.1,370.3z"/>
	<path class="st0" d="M906.1,407.6c-10.7,0-21.5,0-32.2,0c-0.4,0-0.7-0.6-1.1-1c2.3-1.4,23.9-2,31.6-1c0.7,0.1,1.4,0.7,2.1,1
		C906.4,407,906.3,407.3,906.1,407.6z"/>
	<path class="st0" d="M964,203.4c1.4-0.2,2.8-0.7,4.2-0.7c20.4-0.4,26.7,0.2,30.5,3.1c-4.2,1.2-7.9-0.5-11.5-0.4
		c-4,0.2-8-0.2-11.9-0.4c-3.7-0.2-7.5,0.6-11.2-0.6C964.1,204.1,964.1,203.8,964,203.4z"/>
	<path class="st0" d="M590.2,476.3c3.3,1.6,6.9-0.2,9.4,2.6c-3.5,1-7.1,1.1-10.5-0.2c-1.8-0.7-1.2-2.7-0.6-4.2
		c0.9-2.3,1.9-4.5,2.8-6.8c-0.3-0.2-0.6-0.3-0.8-0.5c-0.9,1.1-1.8,2.2-3.2,3.7c-0.3-1.2-0.7-2-0.5-2.5c0.7-1.2,1.5-2.6,2.6-3.4
		c1-0.7,2.6-0.7,3.9-1c0.2,1.4,0.8,2.8,0.4,4C592.8,470.8,591.5,473.4,590.2,476.3z"/>
	<path class="st0" d="M445.5,210.7c-11,1.5-22.1,1.6-33.2,1.4c-0.1-0.4-0.2-0.7-0.3-1.1c0.6-0.4,1.2-1.1,1.9-1.1
		c2.5-0.1,5.1,0,7.6-0.1c6-0.2,12-0.6,18-0.8c2-0.1,4.1,0,6.1,0.1C445.5,209.6,445.5,210.1,445.5,210.7z"/>
	<path class="st0" d="M446.9,405.9c1.1-0.9,1.6-1.7,2.3-1.9c1.5-0.4,3.1-0.6,4.7-0.6c8.2-0.1,16.5-0.2,24.7-0.2
		c0.6,0,1.3,0.2,1.9,0.3c0.1,2.2-1.5,2-2.8,2c-4.8,0.1-9.6,0.1-14.3,0.2c-4.8,0.1-9.5,0.4-14.3,0.6
		C448.7,406.3,448.2,406.1,446.9,405.9z"/>
	<path class="st0" d="M139.1,107.7c-0.7,0.2-1.4,0.6-2,0.5c-5.6-0.7-8.9-4.2-9.1-9.8c-0.2-5.1,0.9-10.1,3.9-14.3
		c1-1.4,2.2-3.4,5.2-1.8c-4.5,3.1-5.9,7.4-6.6,12c-0.2,1.6-0.3,3.2-0.2,4.8c0.3,3.2,1.7,5.5,5,6.4c1.2,0.3,2.4,0.9,3.6,1.4
		C139,107.1,139.1,107.4,139.1,107.7z"/>
	<path class="st0" d="M637.8,261.9c1.8-3.8,4.8-5.6,7.6-5.3c2.1,0.2,2.8,1.6,2.3,3.4c-0.6,2-1.6,3.9-2.5,5.9
		c-0.7,1.6-1.4,3.2-2.3,5.3c2.9,0.5,5.5,0.9,8.9,1.4c-1.2,0.9-1.6,1.5-2.1,1.6c-1,0.2-2.1,0.1-3.2,0.1c-6-0.4-7.5-1.8-4.3-7.2
		c1.3-2.3,2.2-4.8,2.8-8C642.8,259.9,640.7,260.7,637.8,261.9z"/>
	<path class="st0" d="M538.6,198.4c6.6-3.1,14-2.4,21-2.9c9.1-0.6,9.1-0.4,11.4,1.7c-10.9,0.7-21.6,1.5-32.2,2.2
		C538.7,199.1,538.7,198.7,538.6,198.4z"/>
	<path class="st0" d="M348.3,85c10.6-0.3,21.3-0.6,31.9-0.9c0.1,0.4,0.2,0.8,0.2,1.1c-0.7,0.4-1.4,1-2,1c-9.3,0.3-18.6,0.6-27.8,0.8
		c-0.8,0-1.6-0.5-2.4-0.7C348.3,86,348.3,85.5,348.3,85z"/>
	<path class="st0" d="M1124.1,186.2c2.3-0.4,3.8-0.7,5.8-1.1c-0.4-2-0.8-3.9-1.2-6.1c-1.3,0.3-2.4,0.6-4.6,1.1c1.7-2.7,3-4.6,4.5-7
		c3.6,3.5,1.9,8.4,4.3,12.3c2,0,4.3,0,6.6,0c0.1,0.3,0.2,0.6,0.3,0.9c-1,0.5-2,1.2-3.1,1.4C1132.5,188.5,1126.9,188,1124.1,186.2z"
		/>
	<path class="st0" d="M479.3,503.8c0.6-0.7,1.2-1.5,1.9-2.2c0.9-0.9,2.1-1.7,2.9-2.7c4.7-6,3.2-11.4-3.9-14.1c-2-0.8-4.1-1.3-6-2.6
		c3.8-1.7,7,0.3,10,1.9c3.7,2,5.5,5.4,4.7,9.7c-0.9,5.2-4.1,8.6-8.5,10.9C480,504.4,479.7,504.1,479.3,503.8z"/>
	<path class="st0" d="M1029.4,511.3c-0.5,0.3-1,1-1.4,1c-10.1-0.3-20.2-0.7-30.3-1.1c-0.5,0-0.9-0.7-1.3-1.1
		c0.1-0.3,0.1-0.6,0.2-0.9c10.9,0.4,21.8,0.8,32.7,1.2C1029.2,510.7,1029.3,511,1029.4,511.3z"/>
	<path class="st0" d="M1160.6,96.6c-0.5-0.6-1-1-1.2-1.5c-1.3-5.3-2.9-27.2-2-30.4c0.6,0.7,1.3,1.1,1.5,1.7
		C1160.2,71,1161.6,94.3,1160.6,96.6z"/>
	<path class="st0" d="M541.3,204.8c10.9-1,21.4-1.2,32-1c0.1,0.4,0.1,0.8,0.2,1.2c-0.5,0.3-1,0.9-1.4,0.9c-10,0.2-19.9,0.4-29.9,0.5
		C542,206.4,541.8,205.8,541.3,204.8z"/>
	<path class="st0" d="M1237.3,225.3c3.9-0.7,7-1.2,10.8-1.9c-3,3.7-10.3,5.1-14.7,3.1c0.9-1.3,1.7-2.6,2.6-3.8s1.9-2.3,2.9-3.4
		c-0.2-0.2-0.3-0.4-0.5-0.6c-1.4,0.3-2.7,0.6-4.2,1c-0.9-2.1,0.8-2.4,2-3c1.7-0.8,3.5-1,4.8,0.4c0.5,0.6,0.4,2.3-0.1,3.2
		C1240.2,221.8,1239,223.1,1237.3,225.3z"/>
	<path class="st0" d="M258,101.2c1.9,0.1,3.7,0.3,6,0.4c-1.1-3.6-4.5-3-6.4-5c0.7-1.6,1.5-3.3,2.5-5.4c-1.9-0.5-3.5-0.9-5.2-1.3
		c1.5-1.8,3.6-2.2,5.4-1.2c2,1.1,2.1,2.7,0.8,6.9c1.3,0.8,2.8,1.5,3.8,2.6c0.8,1,1.4,2.7,1.1,3.8c-0.2,0.9-1.9,1.5-3.1,1.9
		c-1,0.3-2.2,0.3-3.1,0c-0.9-0.4-1.6-1.4-2.4-2.1C257.5,101.5,257.8,101.4,258,101.2z"/>
	<path class="st0" d="M764.6,49.6c-1.6,0.8-2.5,1.1-3.2,1.6c-0.9,0.6-1.8,1.4-2.7,2.1c0.8,0.9,1.5,2.1,2.5,2.7
		c1.4,0.9,3.3,1.3,4.6,2.3c1.1,0.9,1.7,2.4,2.6,3.6c-1.2,0.7-2.3,1.8-3.5,2.1c-1.3,0.4-2.9,0.3-4.3,0.2c-0.4-0.1-0.8-1.1-1.2-1.7
		c0.5-0.2,1.1-0.7,1.7-0.7c1.5-0.1,3,0,4.4,0c0.1-0.3,0.1-0.7,0.2-1c-2-1-4-1.9-6-3c-3.2-1.7-4.1-3.6-3.1-6
		C757.8,49.4,760.3,48.5,764.6,49.6z"/>
	<path class="st0" d="M966.5,210.3c8.8-0.3,17.5,0.9,26.3,1.2c1,0,2,0.6,3,1c0,0.3-0.1,0.6-0.1,0.9c-0.7,0.2-1.4,0.5-2,0.4
		c-7.9-0.4-15.7-0.8-23.6-1.3c-1.3-0.1-2.5-0.6-3.8-0.9C966.4,211.1,966.5,210.7,966.5,210.3z"/>
	<path class="st0" d="M626,217.4c-2.4-6.5-3-26.3-0.5-30.6c0.3,1.7,0.7,2.7,0.7,3.7c0.1,3.2-0.1,6.4,0,9.6c0.2,4.4,0.6,8.7,0.9,13.1
		c0.1,1.4-0.1,2.9-0.1,4.3C626.7,217.4,626.4,217.4,626,217.4z"/>
	<path class="st0" d="M352,93.6c9.5,0,19,0,28.8,0c-2.4,2.4-10.5,3.1-26,2.4c-1.1,0-2.1-0.6-3.2-0.9C351.8,94.6,351.9,94.1,352,93.6
		z"/>
	<path class="st0" d="M1064.2,40.8c-2,0.6-3.4,0.9-4.7,1.3c-0.2-0.3-0.3-0.6-0.5-0.9c0.8-0.7,1.5-1.8,2.5-2.2c1.3-0.5,3.2-1,4-0.5
		s0.9,2.7,0.6,3.9c-0.7,2.8-1.8,5.5-2.9,8.8c2.7-0.3,5.1-0.6,7.5-0.9c0.1,0.3,0.3,0.5,0.4,0.8c-0.6,0.5-1.1,1.2-1.7,1.5
		c-0.8,0.4-1.8,0.7-2.7,0.7c-1.9-0.1-3.8-0.4-5.7-0.6c0.3-1.6,0.4-3.3,0.9-4.9C1062.5,45.6,1063.3,43.4,1064.2,40.8z"/>
	<path class="st0" d="M680.5,220.4c-2.4-6.2-5-25.5-3.7-29.7c0.6,1,1.3,1.6,1.4,2.3c1.3,8.3,2.5,16.6,3.6,24.9
		c0.1,0.9-0.2,1.8-0.3,2.7C681.2,220.5,680.9,220.4,680.5,220.4z"/>
	<path class="st0" d="M589.3,526.1c2.5,0.2,4.5,0.3,7.1,0.5c-2.4,1.9-7.6,2.8-8.9,1.7c-0.6-0.5-1-1.9-0.8-2.7
		c0.4-1.4,1.3-2.6,1.9-3.9c0.6-1.4,1.1-2.9,1.7-4.3c-0.3-0.3-0.5-0.5-0.8-0.8c-1.3,0.7-2.7,1.4-4.3,2.3c-0.2-0.5-0.7-1.3-0.5-1.6
		c0.8-1,1.7-2.1,2.8-2.6c1.1-0.4,3-0.5,3.7,0.2c0.8,0.8,1.2,2.7,0.9,3.9C591.5,521.2,590.4,523.5,589.3,526.1z"/>
	<path class="st0" d="M644.3,308.9c3.4-1.8,4.3-1.6,6,1.4c2.3,4.3,2.3,4.3,6.7,3.5c-0.4,2-1.3,3.1-3.3,3.2c-4.4,0.3-4.2-4.1-6.5-6.8
		c-1.2,1.8-2.4,3.4-4,5.8c-0.9-3.8-1.6-6.7-2.3-9.6c0.3-0.2,0.7-0.4,1-0.6C642.7,306.9,643.5,307.9,644.3,308.9z"/>
	<path class="st0" d="M750.5,47c-0.7,1.4-1.5,2.7-1.9,4.2c-0.9,2.9-1.8,5.8-2.2,8.8c-0.5,4.4,1,7.9,5.7,9.2c0.3,0.1,0.5,0.6,0.8,1.1
		c-2.3,1.7-4.1,0.4-5.5-1c-2.4-2.3-3.4-5.3-3.5-8.6c-0.1-4.7,1.4-8.9,3.7-12.8c0.4-0.7,1.2-1.1,1.9-1.6
		C749.8,46.5,750.1,46.8,750.5,47z"/>
	<path class="st0" d="M336.9,167.3c-1.8,2.3-4,2.1-6,2.2c-6.8,0.2-13.6,1.8-21.2,1.3C312.3,168.5,332,166.3,336.9,167.3z"/>
	<path class="st0" d="M76,41.7c3.6,2.3,1.8,5.7,3.7,7.9c1.7,0.2,3.7,0.4,5.7,0.7c0,0.4,0,0.8,0.1,1.2c-1.6,0.4-3.3,0.8-5.2,1.2
		c-0.3,1-0.6,2-1.1,3.9c-1.1-1.6-1.7-2.6-2.6-3.9c-1.9,0-4,0-6.1,0c-0.1-0.4-0.1-0.7-0.2-1.1c2-0.5,4-1,6.3-1.6
		C76.4,47.6,76.2,45.1,76,41.7z"/>
	<path class="st0" d="M629.4,190.8c0.4,0.7,0.9,1.2,0.9,1.7c0.5,7.9,0.9,15.8,1.3,23.7c0,0.5-0.3,1.1-0.5,2.1
		C628.2,212.6,627.3,194.1,629.4,190.8z"/>
	<path class="st0" d="M1031.8,519.3c-0.6,0.4-1.1,1.2-1.7,1.3c-8.3,1.4-16.6,1.1-24.9,0.9c-0.5-2.4,0.9-2.2,2.1-2.2
		c5.4-0.1,10.9-0.1,16.4-0.3c2.6-0.1,5.2-0.4,7.8-0.6C1031.6,518.6,1031.7,519,1031.8,519.3z"/>
	<path class="st0" d="M1052,57.4c-0.2-8.8,3.6-17.2,2.6-26.2c0.5,0,1.1,0,1.6,0c0.2,0.9,0.7,1.8,0.6,2.7c-0.3,4.1-0.6,8.2-1.1,12.3
		c-0.4,3.4-1.1,6.8-1.8,10.2c-0.1,0.4-0.5,0.8-0.8,1.2C1052.8,57.6,1052.4,57.5,1052,57.4z"/>
	<path class="st0" d="M1041.2,42.4c2.6,1.1,4.5,1.8,6.2,2.7c2.9,1.6,3,3.9,0.3,5.9c-1.1,0.7-2.3,1.4-3.6,1.6
		c-0.7,0.2-1.6-0.5-2.5-0.7c0-0.3,0.1-0.5,0.1-0.8c1.7-0.8,3.5-1.5,6.3-2.7c-2.1-1.1-3.4-1.8-4.7-2.4c-2-0.9-4.7-1.2-4.2-4.3
		c0.3-2.3,3.5-3.5,7.6-2.7C1044.8,40.2,1043.2,41.1,1041.2,42.4z"/>
	<path class="st0" d="M293.3,308.1c-2.6,1.6-13.7,2.5-22.7,2c-1-0.1-2.1-0.4-3.8-0.8C270.4,307.5,289.8,306.8,293.3,308.1z"/>
	<path class="st0" d="M1161.4,375.3c7.9-1.4,15.8,0.2,23.7,0.1c0.7,0,1.5,0.6,2.5,1.1C1184.4,378.1,1164.9,377.4,1161.4,375.3z"/>
	<path class="st0" d="M213.6,182c0.4-0.4,0.9-1,1.3-1c7.8,0,15.6,0.1,23.4,0.3c0.3,0,0.5,0.8,1,1.6c-8.8,0-17.1,0-25.5,0
		C213.8,182.6,213.7,182.3,213.6,182z"/>
	<path class="st0" d="M905.5,415c-3.5,2.5-21.5,0.8-25.4-1.8c4.7-1.5,8.9,0,13,0.4C897.3,414,901.4,414.6,905.5,415z"/>
	<path class="st0" d="M360.3,307.1c1.4,6.1,1.5,12,0.7,18.5c-2.8-2-1.6-4.3-1.8-6.1c-0.2-2.1,0-4.2,0-6.9c-1.4,1.1-2.3,1.9-3.3,2.6
		C355.5,311.4,357.6,309.2,360.3,307.1z"/>
	<path class="st0" d="M422.3,90.5c-2.3,2-20.9,3.9-25.5,2.6c2.5-2.4,5.5-1.6,8.2-1.9c2.9-0.3,5.8-0.6,8.7-0.9
		c2.8-0.3,5.7-0.5,8.5-0.8C422.2,89.9,422.3,90.2,422.3,90.5z"/>
	<path class="st0" d="M936.7,100.3c4-1.7,22.2-1.5,24.6,0.1c-2,1.2-16.1,1.9-22.2,1.1C938.5,101.4,937.8,100.8,936.7,100.3z"/>
	<path class="st0" d="M829.6,80.6c0-0.8-0.2-1.7,0-2.4c0.5-1.4,1.3-2.6,2-3.9c1.8-3.4,1.4-5.1-1.9-7.4c-2-1.4-4.1-2.6-6.2-3.9
		c0.5-0.7,0.7-1.1,0.8-1.1c4.2,0.8,7.6,2.9,10,6.5c0.6,0.9,1,2.4,0.7,3.4c-0.8,3.3-2.6,6.2-4.4,9C830.3,80.8,830,80.7,829.6,80.6z"
		/>
	<path class="st0" d="M1172.1,205.9c0.9,3.2,0.6,21.8-0.4,23.9c-1.7-1.7-2-5-1.5-18.2C1170.4,207.4,1170.4,207.4,1172.1,205.9z"/>
	<path class="st0" d="M113.5,142.9c-0.2-3.6-0.5-7.1-0.7-11.1c-1,0.6-1.9,1.2-3.4,2.1c0.4-3.9,1.9-6.5,4.1-9.4
		c0.6,1,1.4,1.7,1.5,2.4c0.5,5.3,0.7,10.6,0.4,15.9C114.7,142.9,114.1,142.9,113.5,142.9z"/>
	<path class="st0" d="M500.1,184.8c-4.1,1.2-22,0.8-23.9-0.5C479.1,182.4,496.9,182.6,500.1,184.8z"/>
	<path class="st0" d="M294.1,206.1c-2.2,1.9-20.2,2.3-23.6,0.8c0.8-0.5,1.4-1.1,2-1.2C279.7,205.5,286.9,205.1,294.1,206.1z"/>
	<path class="st0" d="M674.3,212.2c-1.8-7.7-1.6-15.6-1.5-23.4c0.3-0.1,0.5-0.2,0.8-0.3c0.5,0.6,1.3,1.2,1.3,1.9
		c0.4,7,0.7,14.1,0.9,21.1c0,0.2-0.3,0.4-0.4,0.6C675,212.1,674.6,212.1,674.3,212.2z"/>
	<path class="st0" d="M764.4,503.2c-4.1,1.4-23,1.3-26.1-0.1c2.8-1.8,5.7-1.1,8.4-1.2c2.9-0.1,5.8-0.1,8.8,0
		C758.3,502.1,761.2,501.2,764.4,503.2z"/>
	<path class="st0" d="M1311.8,271.5c-4.2-2.5-6.9-16.6-4.4-24.3c0.4,1,1,2,1.1,3.1c0.4,3.7,0.5,7.4,1,11.1
		C1310,264.6,1310.9,267.7,1311.8,271.5z"/>
	<path class="st0" d="M454.2,414.2c1.1-1.1,1.6-2,2-2c7.1,0,14.3,0.1,21.4,0.2c0.2,0,0.3,0.4,0.6,0.8c-0.2,0.3-0.5,1.1-0.8,1.1
		C470,414.2,462.6,414.2,454.2,414.2z"/>
	<path class="st0" d="M774.3,44.2c0.5,0.3,1.2,0.5,1.5,1c2.6,4.6,4.5,9.5,3.9,14.8c-0.2,2.1-1.6,4.1-2.6,6.1
		c-0.3,0.5-1.4,0.6-2.5,0.6c4.9-6.5,2.8-12.8,0-19c-0.4-1-0.7-2-1-3.1C773.8,44.4,774.1,44.3,774.3,44.2z"/>
	<path class="st0" d="M405.7,327c-0.5-4.7-1-8.8-1.5-13.2c-1.5,0.9-2.6,1.5-3.7,2.2c-0.3-0.2-0.5-0.4-0.8-0.7
		c1.1-2.2,2.2-4.4,3.4-6.7C407,311.4,408.8,323.7,405.7,327z"/>
	<path class="st0" d="M126.8,169.4c-2.1,1.8-19.4,2.8-22.9,1c0.6-0.2,1.2-0.5,1.8-0.6C112.7,168.8,119.7,168.6,126.8,169.4z"/>
	<path class="st0" d="M807.4,72.2c2.6-2.8,18.6-4.1,22.5-1.8C822,72,814.7,71.7,807.4,72.2z"/>
	<path class="st0" d="M1056.9,87.6c0.7,7.6,1.4,14.6,2.1,21.5c0,0.1-0.4,0.3-0.9,0.8c-3.1-4.4-2.8-9.4-2.8-14.3
		C1055.2,93.1,1054.1,90.2,1056.9,87.6z"/>
	<path class="st0" d="M692.5,89.3c0.8,0.9,1.5,1.3,1.5,1.8c0.1,6.9,0,13.8,0,21.1C691.7,109.5,690.9,97.2,692.5,89.3z"/>
	<path class="st0" d="M128.1,178.3c0.5-0.8,1-1.6,1.6-2.3c3-4,2.5-6.8-1.8-9.6c-1.1-0.7-2.4-1.2-3.4-2c-0.4-0.3-0.6-1-1-1.7
		c4.6,0,9.4,3.5,10.3,7.3c0.8,3.3-1.3,7-5,8.7C128.5,178.7,128.3,178.5,128.1,178.3z"/>
	<path class="st0" d="M238.7,192.9c1.6-3.6,4.3-6.6,2.5-9.8c-1.5-2.7-4-4.9-6.2-7.3c4-0.1,8,3.3,8.8,7.6
		C244.8,187.7,243.1,191.4,238.7,192.9z"/>
	<path class="st0" d="M903.8,275.5c-1,0-1.8,0-3.3,0c1.2-2.4,2.1-4.3,3.2-6.3c2.7,2.6,4.3,13.3,2.8,17.6c-2-1.5-1.4-3.6-1.7-5.4
		C904.3,279.6,904.1,277.8,903.8,275.5z"/>
	<path class="st0" d="M334.8,157.9c4.7,1.4,8.7,6.2,9.1,10.8c0.3,3.1-1.5,6.6-4.2,7.9c0.1-0.9,0.1-1.7,0.4-2.3
		c2.4-5.8,1.7-8.7-3.2-12.9c-1-0.9-1.9-1.9-2.8-2.8C334.3,158.4,334.5,158.1,334.8,157.9z"/>
	<path class="st0" d="M882.1,67.7c-1.3,0.8-1.9,1.5-2.6,1.5c-6.6,0.1-13.1,0-19.9,0C861.6,67.3,875,66.2,882.1,67.7z"/>
	<path class="st0" d="M659.2,185.7c1.6-1.2,3.2-2.3,5.4-4c-3-1.9-5.6-3.5-8.9-5.5c1.5-0.3,2.4-0.7,2.9-0.4c2.3,1.1,4.6,2.1,6.6,3.6
		c2,1.4,1.9,2.8,0.2,4.7c-2,2-4.1,4-6.3,6.1c-1.7-1.5,0.3-3,0.3-4.5C659.3,185.6,659.2,185.7,659.2,185.7z"/>
	<path class="st0" d="M815,291.7c-6.3,2.3-13,1.7-19.6,1.8c-0.7,0-1.3-0.6-2-0.9c0.1-0.4,0.1-0.7,0.2-1.1c7.1-0.4,14.2-0.8,21.3-1.2
		C815,290.8,815,291.2,815,291.7z"/>
	<path class="st0" d="M565.7,433.3c-6.5,0.3-12.9,0.6-19.4,0.8c-0.4,0-0.9-0.5-1.6-0.9c0.7-0.6,1.2-1.2,1.6-1.2
		c6-0.3,11.9-0.5,17.9-0.7c0.6,0,1.1,0.7,1.7,1C565.9,432.7,565.8,433,565.7,433.3z"/>
	<path class="st0" d="M819,299.5c-0.6,0.4-1.2,0.9-1.9,1c-4.3,0.7-16.6,0.3-19.1-0.7c1.8-2.4,4.4-1.1,6.5-1.4
		c2.4-0.2,4.8-0.1,7.2-0.1c2.3,0,4.7,0,7,0C818.8,298.7,818.9,299.1,819,299.5z"/>
	<path class="st0" d="M356.8,185.8c2.9-2.2,17.3-2.3,22-0.5c-1.5,1.4-1.5,1.4-10.7,1.1C364.5,186.3,360.8,186.9,356.8,185.8z"/>
	<path class="st0" d="M743.4,512.9c3.1-2.4,17-1.9,21.9,1c-4.3,1.1-7.8,0.1-11.3-0.2C750.6,513.5,747,514.3,743.4,512.9z"/>
	<path class="st0" d="M168.3,177.3c3.7,1.8,7.2,3.8,9,7.9c1.2,2.8-1,6.5-4.7,7.7c0.5-1.2,0.8-2.2,1.3-3c2-3.6,1.9-4.2-1.3-7
		c-1.2-1-2.5-1.9-3.7-2.9c-0.5-0.5-0.9-1.1-1.4-1.7C167.7,178,168,177.7,168.3,177.3z"/>
	<path class="st0" d="M882.5,77.6c0.3-3.2,1.5-6.5,0.6-9.2c-0.8-2.6-3.8-4.4-5.9-6.5c1.8-1.1,5.9,1,7.7,4.1
		C887.2,69.7,886,75.5,882.5,77.6z"/>
	<path class="st0" d="M659.3,185.6c-6.6-0.7-13.2-1.4-19.9-2.1c0-0.4,0-0.7-0.1-1.1c0.7-0.3,1.5-0.8,2.2-0.8c5,0.4,10,0.9,15.1,1.3
		c1.8,0.1,2.6,1,2.5,2.8L659.3,185.6z"/>
	<path class="st0" d="M379.7,193.2c0.2-1.2,0.3-2.4,0.6-3.6c0.3-1.6,1-3.1,1.2-4.6c0.3-3-0.3-5.6-3.4-6.9c-0.5-0.2-0.9-0.8-1.5-1.3
		c3.2-1,5.7,0.6,6.9,3.9c1.2,3.6,0.1,8.8-2.7,12.6C380.4,193.3,380.1,193.3,379.7,193.2z"/>
	<path class="st0" d="M694.6,320.1c6.4-5.7,3.4-11-1-16.3c3.2-0.2,4.4,2.1,5.6,4c2,3.4,1.6,8.9-0.7,11.6
		C697.5,320.7,697.1,320.7,694.6,320.1z"/>
	<path class="st0" d="M1056.4,580c-6.2,0-12.4,0-18.6-0.1c-0.1-0.5-0.1-1-0.2-1.4c1-0.3,1.9-0.9,2.9-0.8c5.4,0.2,10.9-0.8,16.1,0.7
		C1056.5,578.9,1056.4,579.4,1056.4,580z"/>
	<path class="st0" d="M152.1,186.7c2.5-1.4,14.9-2.3,19.4-1.2c-1,0.7-1.6,1.4-2.2,1.5C162.6,188.3,153.9,188.1,152.1,186.7z"/>
	<path class="st0" d="M159.5,94.2c-1.1,0.8-1.6,1.4-2.1,1.4c-5.1,0.4-10.3,0.7-15.4,0.9c-0.4,0-0.8-0.5-1.2-0.8
		C143.2,93.9,153.8,93,159.5,94.2z"/>
	<path class="st0" d="M496.6,177.9c4.5-0.6,7.7,2.8,7.9,7.3c0.2,3.4-1.6,5.2-6.4,5.8c0.7-1,1-1.8,1.5-2.3c3-2.7,3-5.8-0.2-8.5
		C498.5,179.3,497.5,178.6,496.6,177.9z"/>
	<path class="st0" d="M735.6,308.6c0.1-2.1,5.2-12.2,8.9-16c-0.1,1.3,0,2.6-0.4,3.8C742.9,300.4,737.7,307.5,735.6,308.6z"/>
	<path class="st0" d="M560.4,308.1c1.3-5.9,5.6-10,8.8-15.4c1,2.8,1,2.8-1.2,6.1c-1.1,1.7-2.3,3.3-3.3,5s-1.9,3.4-2.8,5.1
		C561.3,308.6,560.9,308.4,560.4,308.1z"/>
	<path class="st0" d="M1272.8,395.1c0-5.2,0-10,0-14.7c0.3,0,0.7-0.1,1-0.1c2.5,2.9,1.7,6.6,1.8,10
		C1275.7,392.3,1275.4,394.5,1272.8,395.1z"/>
	<path class="st0" d="M1096.9,379.5c0.6,0.6,1.3,1.2,1.6,1.9c1,2.8,1.9,5.7,2.7,8.6c0.2,0.8,0,1.7-0.4,2.6c-3.5-3.6-4.4-8-4.7-12.6
		C1096.4,379.8,1096.7,379.7,1096.9,379.5z"/>
	<path class="st0" d="M84.2,134.7c4.7,0,9.3,0,14,0c0.1,0.2,0.2,0.4,0.3,0.6c-0.6,0.4-1.2,1.1-1.9,1.2
		C92.3,137.4,86,136.8,84.2,134.7z"/>
	<path class="st0" d="M857.3,435.6c-1.6-2.5-1.7-10.7-0.1-13.7C859,424.1,859.1,432.9,857.3,435.6z"/>
	<path class="st0" d="M469.2,109.1c-2.7-3.7-2.7-10.2,0-12.5C469.2,100.8,469.2,104.6,469.2,109.1z"/>
	<path class="st0" d="M185,310c2.5,3.4,2.8,8.4,0.9,11.5C184.7,319.7,184.1,313.3,185,310z"/>
	<path class="st0" d="M885,278.3c3.5-1.5,7-1.8,10.5,0C891.9,279.5,888.5,279.8,885,278.3z"/>
	<path class="st0" d="M93.8,130.9c-2.3,1.4-5.7,1.6-10.3,0.4c0.6-0.6,1-1.4,1.5-1.5C87.7,129.1,92.2,129.8,93.8,130.9z"/>
	<path class="st0" d="M473.3,305.2c0.6,2.3,1.1,4.7,1.8,7.4c-3.6-1.6-3.9-2.6-2.8-7.1C472.7,305.4,473,305.3,473.3,305.2z"/>
	<path class="st0" d="M1294.1,182.6c-2.9,0.8-4.9,1.9-7.4,0.8C1289.1,180.9,1290.8,180.7,1294.1,182.6z"/>
	<path class="st0" d="M503.8,313.5c-2.6-2.2-3-3.6-1.6-6.4C503.8,309,504.5,310.9,503.8,313.5z"/>
	<path class="st0" d="M1133.9,279.5c-2.1,1.6-4.1,1.9-6.5,0.2C1129.7,277.7,1131.8,278.4,1133.9,279.5z"/>
	<path class="st0" d="M1272.4,225.9c1.8-2.1,3.8-2.3,6.3-1.2C1276.7,226.8,1274.5,227.1,1272.4,225.9z"/>
	<path class="st0" d="M1269.8,274.9c2.4-2.3,4.1-2.4,6.9-0.3C1274.3,275.7,1272.2,275.6,1269.8,274.9z"/>
	<path class="st0" d="M1150.9,247.4c-1.5,3.8-2.2,4.2-4.8,2.8C1148.7,247.3,1148.7,247.3,1150.9,247.4z"/>
	<path class="st0" d="M1118.6,251.3c1.9-2.9,2.6-2.9,5.3-0.6C1122.2,250.9,1120.4,251.1,1118.6,251.3z"/>
	<path class="st0" d="M486.9,306.4c0.6,1.4,1.2,2.9,1.8,4.4c-3.4,0.8-3.8,0.1-2.7-4.1C486.3,306.6,486.6,306.5,486.9,306.4z"/>
	<path class="st0" d="M1187.4,275.9c-1.4,2.6-3.4,2.2-5.4,2.5C1183,275.8,1183,275.8,1187.4,275.9z"/>
	<path class="st0" d="M1176.9,248c1.7-0.2,3.4-0.4,5.3-0.6c-1.3,3-2.4,3.2-5.3,1.5C1176.9,248.6,1176.9,248.3,1176.9,248z"/>
	<path class="st0" d="M1207.2,247.9c2.5-1,4.2-1.6,6.2-2.4C1213.1,248.8,1211.4,249.5,1207.2,247.9z"/>
	<path class="st0" d="M1308.5,224.9c-2.6,1.1-4.4,1.8-6.5-0.4C1304.2,223.5,1306,223.1,1308.5,224.9z"/>
	<path class="st0" d="M1251.6,275c-2.2,0-3.6,0-5.3,0C1248.1,272.5,1248.6,272.5,1251.6,275z"/>
	<path class="st0" d="M1215.3,276.5c1.4-2,2.8-2.4,5,0C1218.1,276.5,1216.7,276.5,1215.3,276.5z"/>
	<path class="st0" d="M1235.5,246.8c1.1-0.4,2.3-0.8,3.9-1.4C1238.3,248.5,1238.3,248.5,1235.5,246.8z"/>
	<path class="st0" d="M1161.1,279.8c-1.4,0.1-2.8,0.2-4.7,0.3c2.5-2.7,2.7-2.7,4.9-1.2C1161.2,279.2,1161.2,279.5,1161.1,279.8z"/>
	<path class="st0" d="M1250.9,183.6c2,0,3,0,4.3,0C1253.7,185.8,1253.7,185.8,1250.9,183.6z"/>
	<path class="st0" d="M856.5,413.3c1.3-2.7,2.3-2.3,3.5,0.3C858.5,413.5,857.5,413.4,856.5,413.3z"/>
	<path class="st0" d="M1307.2,181.1c1.2-0.3,2.4-0.6,4.3-1.1c-1.1,3-2.6,2.6-4,2.3C1307.4,181.9,1307.3,181.5,1307.2,181.1z"/>
	<path class="st0" d="M365.1,72.9c0.1,1.2,0.3,2.3,0.4,3.5c-0.4,0.1-0.8,0.1-1.2,0.2c-0.3-1.1-0.5-2.3-0.8-3.4
		C364.1,73.1,364.6,73,365.1,72.9z"/>
	<path class="st0" d="M1096.4,251.2c-1.7,0.4-2.7,0.7-4.1,1C1093.7,250.1,1093.7,250.1,1096.4,251.2z"/>
	<path class="st0" d="M1068.1,250.6c0.9,0.2,1.8,0.3,2.8,0.5c-0.1,0.4-0.2,1-0.2,1c-0.9,0-1.8,0-2.7-0.1
		C1068,251.6,1068.1,251.1,1068.1,250.6z"/>
	<path class="st0" d="M1290.2,226.3c0.8-0.6,1.7-1.1,2.5-1.7c0.3,0.4,0.5,0.7,0.8,1.1c-0.8,0.6-1.7,1.2-2.5,1.7
		C1290.7,227,1290.5,226.7,1290.2,226.3z"/>
	<path class="st0" d="M1292.9,271.5c-0.8,0.5-1.5,1.1-2.3,1.6c-0.3-0.3-0.5-0.6-0.8-1c0.7-0.6,1.4-1.2,2.1-1.8
		C1292.3,270.7,1292.6,271.1,1292.9,271.5z"/>
	<path class="st0" d="M694.5,121.3c0.7,0.5,1.3,1,2,1.6c-0.2,0.3-0.5,0.7-0.7,1c-0.7-0.5-1.4-0.9-2.2-1.4
		C693.9,122,694.2,121.6,694.5,121.3z"/>
	<path class="st0" d="M1271.5,185.3c-0.4-0.6-0.8-1-0.8-1.4s0.6-0.7,0.9-1c0.4,0.4,0.8,0.8,1.1,1.3
		C1272.7,184.4,1272,184.8,1271.5,185.3z"/>
	<path class="st0" d="M1234.9,184.9c0.8-0.1,1.7-0.1,2.5-0.2c0.1,0.4,0.1,0.8,0.2,1.2c-0.8,0.1-1.6,0.3-2.5,0.4
		C1235,185.8,1234.9,185.3,1234.9,184.9z"/>
	<path class="st0" d="M1058.2,118.8c0.4,0.5,0.8,0.9,0.8,1c-0.3,0.3-0.6,0.7-1,0.8c-0.1,0.1-0.7-0.6-0.7-0.7
		C1057.5,119.6,1057.8,119.3,1058.2,118.8z"/>
	<path class="st0" d="M227.5,493.7c3.5-0.1,6.2,2.9,6.4,6.8c0.2,4.1-2.3,6.9-6,6.9s-5.9-2.9-6-7.9
		C221.9,495.3,223.4,493.7,227.5,493.7z M231.5,500.6c0-2.7-1.8-4.6-4-4.5c-2.1,0.1-3.1,1.5-3.2,4.2c0,2.9,1.4,4.8,3.7,4.7
		C230.2,505,231.5,503.3,231.5,500.6z"/>
	<path class="st0" d="M176.4,507c-2.3,0.3-4.6,0.6-7.1,1c0,1.5,0,2.9,0,4.6c2.5,0.2,4.9,0.5,7.3,0.7c0,0.4,0,0.9,0,1.3
		c-2.2,0.4-4.5,0.8-7.3,1.2c0.8,2.8,1.5,5.6,2.5,9.4c-1.4-0.9-2.1-1.1-2.4-1.6c-2.7-4.7-2.5-10-2.6-15.1c0-0.9,0.7-2,1.5-2.6
		C169.6,504.7,174.3,505,176.4,507z"/>
	<path class="st0" d="M185.4,532.4c-3.4-2.7-1.5-6.2-3.3-8.9c-0.5,0-1.4-0.1-2.9-0.2c0.9-1.6,1.4-2.9,2.3-3.8c1.2-1.1,2.4-0.2,2.7,1
		C185.2,524.2,186,527.9,185.4,532.4z"/>
	<path class="st0" d="M286.4,513.3c3-0.1,5.6-0.2,8.3-0.4c-2,3.4-5.3,2-8.1,3c-0.3,2.1-0.6,4.3-1,7c-0.9-0.7-1.4-1-1.4-1.2
		c-0.2-4.8-0.3-9.5-0.3-14.3c0-0.7,0.7-1.9,1.3-2.1c3.6-1,7.3-1.3,11.1-0.4c-2.8,2.7-6.6,1.2-9.9,2.7
		C286.4,509.4,286.4,511.2,286.4,513.3z"/>
	<path class="st0" d="M303.9,530.5c-2.8,1.2-5.7,0.7-8.6,0.2c-0.3,0-0.6-2.4-0.3-3.4c0.8-2.1,2.1-4,2.9-5.6c-0.7-1.2-1.2-2-1.7-2.8
		c0.9-0.4,2-1.2,2.7-1s1.6,1.5,1.6,2.3c0,1.3-0.6,2.5-1.1,3.7c-0.6,1.4-1.4,2.8-2.2,4.6c2.4,0.2,4.6,0.4,6.7,0.6
		C303.8,529.6,303.9,530,303.9,530.5z"/>
	<path class="st0" d="M208.3,479.1c-0.4-1.2-1-2.4-1.2-3.7c-0.3-1.9-1.1-3.2-2.6-4.6c-2.3-2.2-4.2-5-5.8-7.9c4.2-0.1,4,5,7.7,5.9
		c0.2-0.8,0.4-1.6,0.7-2.4c0.9-2.6,1.6-5.4,3-7.7c2.1-3.4,5.3-2.8,6.8,0.9c1.7,4.2-0.2,9.9-4.2,12c-0.9,0.5-1.9,0.8-3.3,1.4
		c0,1.8,0,3.8,0,5.8C209,478.9,208.7,479,208.3,479.1z M213.8,459.2c-3.3,1.5-4.7,5-4.1,10.6C214.8,468.8,216.7,463.9,213.8,459.2z"
		/>
	<path class="st0" d="M209.6,448.2c-0.3-5.6-2.8-10.8-2.5-16.8c2.7,0.7,2.2,2.5,2.4,3.9c0.3,1.4,0.7,2.8,1,4.5
		c2.2-2.2,4.1-4.4,6.3-6.2c2.3-1.9,5-2.6,8.7-0.6c-3,1-5.6,1.3-7.4,2.6c-2,1.5-3.6,3.8-4.8,6.1c-1.1,2-1.5,4.4-2.2,6.7
		C210.6,448.3,210.1,448.3,209.6,448.2z"/>
</g>
</svg>
