<?xml version="1.0" encoding="utf-8"?>
<!-- Generator: Adobe Illustrator 24.1.1, SVG Export Plug-In . SVG Version: 6.00 Build 0)  -->
<svg version="1.1"
	 id="svg2" xmlns:cc="http://creativecommons.org/ns#" xmlns:dc="http://purl.org/dc/elements/1.1/" xmlns:inkscape="http://www.inkscape.org/namespaces/inkscape" xmlns:rdf="http://www.w3.org/1999/02/22-rdf-syntax-ns#" xmlns:sodipodi="http://sodipodi.sourceforge.net/DTD/sodipodi-0.dtd" xmlns:svg="http://www.w3.org/2000/svg"
	 xmlns="http://www.w3.org/2000/svg" xmlns:xlink="http://www.w3.org/1999/xlink" x="0px" y="0px" viewBox="0 0 1364.8 745.6"
	 style="enable-background:new 0 0 1364.8 745.6;" xml:space="preserve">
<style type="text/css">
	.st0{fill:#1F254A;}
</style>
<sodipodi:namedview  bordercolor="#666666" borderopacity="1" gridtolerance="10" guidetolerance="10" id="namedview4" inkscape:pageopacity="0" inkscape:pageshadow="2" inkscape:window-height="480" inkscape:window-width="640" objecttolerance="10" pagecolor="#ffffff">
	</sodipodi:namedview>
<g>
	<path class="st0" d="M933.5,267.6c-5.5,0-10.9,0.6-16.1-0.2c-6.9-1-10.9,1.4-14.3,7.4c-3.9,6.7-9.1,12.8-13.8,19
		c-5.4,7.2-8.3,15.4-9.7,24.2c-0.1,0.7-0.2,1.3-0.3,2c-1.5,15.7-10.8,23.4-26,27.3c-7.3,1.9-14.8,2.4-22.2,1
		c-16.2-3-22.5-11.9-21-28.3c0.9-9.5,4.7-17.8,10.4-25.1c9.6-12.2,17.2-25.6,25.2-38.8c4.6-7.6,10.3-14.5,15.9-21.5
		c2.3-2.8,5.1-5.6,9.5-4.8c0.7,0.1,1.8-1,2.4-1.8c10.3-14.2,25.1-22.5,40.4-29.9c7.3-3.5,15-6.3,22.6-9.2c2.3-0.9,4.9-1.2,7.4-1.8
		c0.1,0,0.3,0,0.4,0c5.1-3.4,10.5-0.2,15.7-0.4c2.3-0.1,3.5-0.5,4.7-2.5c7-11.9,17.8-16.4,31.1-15.2c5,0.5,9.8,2.4,14.1,4.9
		c9.8,5.7,19.3,11.8,28.9,17.7c1.6,1,3.2,2,4.6,3.2c2.4,2.1,4.5,1.8,7.2,0.3c12.5-7.1,26.5-10.5,40.1-14.6c0.5-0.1,1.3-0.4,1.5-0.2
		c2,2.6,5,1.3,7.4,1.5c6.9,0.6,12.9,3,18.4,7.1c4,3.1,8.1,6.1,11.9,9.4c2.2,1.9,3.9,2,6.3,0.4c8.5-5.5,17.9-8.9,28.1-9.4
		c4-0.2,7.7,0.1,11.3,2.7c2.5,1.8,5.8,2.9,8.9,3.1c20.3,1.8,33.9,13.7,45,29.2c2.6,3.6,3.9,8.5,4.7,13c1.8,10.8,1.6,21.9-0.5,32.6
		c-2.7,14.4-10.7,25.4-22,34.7c-11,9-23.8,13.3-37,17.2c-20.3,6-40.7,4.3-61,0.5c-10.3-1.9-19.5-7.2-27.6-13.8
		c-1.9-1.6-3.3-2.1-5.6-1.3c-13.6,4.8-27.5,4.7-41.4,2.2c-5.1-0.9-9.9-3.1-14.9-4.5c-1.9-0.5-4.4-1-6.1-0.3
		c-10.5,4.2-21.2,4-31.9,2.1c-11.5-2.1-22.4-6-32.3-12.4C943.9,288,936.7,279.3,933.5,267.6z M1134.2,202c8.4,15.2,8.8,16.8,7.9,34
		c-0.1,2.3,1,3,2.7,3.8c5.6,2.5,11.2,4.9,16.6,7.8c5.6,3,10.3,7.2,12.9,13.2c3.8,8.6-0.1,14.7-9.5,14.9c-4.9,0.1-9.8-0.3-14.8-0.7
		c-6.6-0.5-13.3-1.2-19.9-2c-3.2-0.4-5.2,0.7-7.1,3.2c-9,12-20.1,21.6-34,27.7c-1,0.5-2,1.1-3,1.7c0.4,0.7,0.5,1.1,0.7,1.4
		c0.7,0.6,1.4,1.2,2.1,1.8c11.2,7.9,23.5,13,37.3,13.9c3.5,0.2,6.9,0.7,10.4,0.9c28.9,1.5,55.5-4.5,78-24c7.8-6.8,13-15.1,15.8-24.9
		c3.3-11.7,3.1-23.7,1.9-35.7c-0.8-7.5-3.9-14-9.2-19.5c-10.2-10.7-20.9-20.3-36.6-21.5c-5.4-0.4-10-2.6-14.7-4.9
		c-1.7-0.8-3.8-1.5-5.7-1.5c-6.5,0-12.8,1.2-18.7,3.7C1143,197.2,1138.6,199.7,1134.2,202z M1130.7,201.7
		c-7-5.6-13.4-11.4-21.4-15.4c-6.9-3.4-14.3-1.2-21.3-2.8c-12.3,3.5-24.6,6.9-36,13.1c-0.9,0.5-1.7,1.1-3.4,2.3c1,0.4,1.5,0.6,2,0.9
		c6.4,3.9,11,9.6,15.5,15.4c4.3,5.4,6.7,11.6,6.1,18.5c-0.6,8.6-1.5,17.2-2.3,25.8c-1,10.5-7,18.2-14.3,25.1
		c-7.8,7.3-17.3,11.9-27,16.1c-1.2,0.5-2.4,1.2-4,1.9c13,8.1,48.1,8.9,56.9,1.5c-0.2-0.7-0.5-1.5-0.8-2.2c-3.1-8.8,0.4-19,8.2-24.3
		c7.2-4.8,15.1-7.2,23.7-7c3.2,0.1,6.4,0.3,9.6,0c1.4-0.1,3.3-0.7,4.1-1.8c6.8-8.5,10.7-18.3,12.9-29.1c-1.4-0.6-2.5-1.2-3.7-1.8
		c-3.8-1.7-7.6-3.2-11.3-5.1c-3.6-1.8-5.8-4.6-5.8-8.9c0.1-4.2,0.8-8.3,3.4-11.7C1124.6,208.9,1127.4,205.6,1130.7,201.7z
		 M869.3,232.4c-0.3-0.2-0.7-0.5-1-0.7c-1.9,1.6-4.1,2.8-5.6,4.7c-5.4,6.9-11.1,13.7-15.6,21.2c-7.9,13.3-15.7,26.6-25.3,38.8
		c-5.4,6.9-9.2,14.7-9.8,23.7c-0.9,14.5,1.9,23.3,19,26.4c7.3,1.3,14.6,0.9,21.8-1c14-3.7,22.9-10.7,24.4-25.8
		c1.1-10.4,4.7-19.9,11.2-28.3c5.1-6.6,10-13.5,14.9-20.3c0.9-1.2,1.5-2.6,2.4-4.1c-1.3-0.5-2-0.8-2.8-1
		c-11.6-2.9-21.3-8.9-29.2-17.9c-3.3-3.8-5.4-7.9-4.4-13.1C869.6,234.2,869.3,233.3,869.3,232.4z M1010.9,228.6
		c4.4,3.9,5.7,8.9,5.7,14.4c0,3.1-1.4,5.2-4.2,6.1c-2.5,0.9-5.1,1.5-7.7,1.9c-2.1,0.3-2.9,1.1-3.2,3.2c-1.1,10.8-0.2,21.3,3.5,31.5
		c2.4,6.7,7.1,11.5,13.4,14.7c1.2,0.6,3,0.9,4.1,0.5c12.4-4.7,24.4-10.2,33.9-19.8c5-5,9.9-10.5,10.9-17.8c1.4-10.5,2.4-21.1,3-31.8
		c0.2-3.2-0.7-6.8-2.2-9.6c-4.5-8.2-10.6-15.2-18.4-20.7c-2.3-1.6-4.2-1.6-6.5-0.2c-4,2.4-8,4.7-12,7.1
		C1022.7,213.3,1015.9,219.9,1010.9,228.6z M876.7,226.4c0.3,0.4,0.6,0.8,0.8,1.2c1.4-0.4,2.8-0.7,4.1-1.3c7-2.7,14.1-2.5,21.3-1.3
		c6.4,1,13.5,8,14.2,13.7c0.8,6.2,0.2,12.2-3,17.8c-1.5,2.6-2.7,5.4-4.4,8.8c7.1,0,13.4-0.1,19.7,0c3.3,0.1,4.6-1.4,5.1-4.6
		c1.1-6.3,4.5-11.1,10.4-14.3c5.1-2.7,10.3-3.4,15.8-3.3c1.4,0,3.1-0.6,4.1-1.6c4-4,7.7-8.4,11.7-12.4c2.6-2.6,5.5-4.8,8.8-7.6
		c-4.5-1.3-8.2-2.1-11.8-3.4c-4.7-1.7-9.1-4.1-11.1-9c-2-5-2.7-10.3-1.4-15.7c0.3-1.3,0.6-2.5,0.9-4c-0.8-0.3-1.4-0.7-2-0.7
		c-6.8-0.9-13.7-0.6-20.2,1.4c-18.3,5.4-35.2,13.8-50.6,25C884.4,218.4,880.7,222.6,876.7,226.4z M999.6,251.2
		c-3.3,0-6.3,0.5-9.1-0.1c-6.6-1.3-13.2-3-19.8-4.7c-5.2-1.4-5.6-1.4-7.5,3.5c-2.4,6.3-6.8,10.4-13.2,12.4
		c-3.4,1.1-6.9,2.1-10.3,3.1c-4.1,1.2-4.6,1.8-3.1,5.9c3.2,8.4,8.8,14.9,15.9,20.1c10,7.3,21.5,11.2,33.4,13.6
		c8.6,1.7,17.5,2.3,26.1-0.4c1.6-0.5,3-1.2,5-2c-2-1.5-3.3-2.5-4.7-3.6c-4.9-3.6-8.1-8.4-9.9-14.2c-3.1-9.4-4-19-3.2-28.8
		C999.5,254.7,999.5,253.2,999.6,251.2z M965.1,187.5c6.4,1.5,12.1,2.8,17.8,4.2c12.9,3.1,17,13,10.1,24.3c-0.3,0.5-0.6,0.9-0.9,1.3
		c-0.5,0.9-1,1.8-1.6,2.9c6.3,2.2,12.3,4.3,19,6.6c7.5-13.6,21.1-20.7,34.3-28.2c-0.4-0.8-0.4-1-0.5-1.1
		c-13.9-9.7-27.1-20.6-44.2-24.8c-4.4-1.1-8.4-1.9-12.7-1.3C976.8,172.8,970,178.2,965.1,187.5z M894.7,226.4
		c-7.4-0.9-13.7,2-20,4.9c-3,1.4-3.8,4.1-3.5,7c0.3,2.2,1,4.5,2.3,6.2c8,10.4,18.4,17.2,31.3,19.9c1,0.2,2.9-0.3,3.3-1.1
		c4.2-7.1,8.4-14.4,7.1-23.1c-0.4-2.3-1.6-4.7-3-6.7C907.8,227.7,901.7,225.7,894.7,226.4z M1141.4,240.4
		c-2.8,11.1-6.6,21-13.4,29.9c1.2,0.4,1.7,0.6,2.2,0.6c7.8,0.9,15.6,1.8,23.4,2.5c3.8,0.3,7.7,0.5,11.6,0.3
		c7.5-0.4,10.5-4.7,7.4-11.6c-1.5-3.4-4.1-6.5-6.9-9C1158.9,247.1,1150.1,244.6,1141.4,240.4z M965.9,243c4.1,1.2,7.2,2,10.2,3.1
		c6.2,2.4,12.6,3.3,19.2,3.3c5.2,0,5,0,6.6-5.1c1.3-4.2,2.7-8.4,4.6-12.3c1.2-2.5,0.8-3.8-1.6-4.6c-5-1.7-10.1-3.4-15.2-4.9
		c-1-0.3-2.6,0.4-3.5,1.2c-4.9,4.1-9.8,8.2-14.5,12.5C969.6,237.9,968.1,240.3,965.9,243z M985.3,206c1.8,4.6,0.1,9,3.4,12.5
		c3.6-4.8,6.9-9.6,5.3-15.7c-1.4-5.5-6.2-7.8-11.2-9.1c-5.1-1.4-10.4-2.5-15.5-3.7c-1.8-0.4-3.4-0.5-4,1.9
		c-1.8,6.7-1.9,13.5,2.5,19.1c4.9,6.2,12.3,7,20.4,8.4c-1.3-3.7-2.2-6.4-3.1-9c-0.4,0-0.7,0-1.1,0.1
		C982.9,209.1,983.8,207.9,985.3,206z M1084.2,303.7c16.1-6,28.5-16.2,38-30.6c-3.1-0.5-6.1-0.4-9.1-0.5c-9.1-0.2-17.3,2.3-24.7,7.7
		C1081.9,285.2,1079.6,296.5,1084.2,303.7z M1132,204.2c-6.2,5-11.2,10.8-11.5,19.4c-0.1,2.7,0.6,5.3,3,6.5c5.1,2.7,10.4,5,15.7,7.5
		C1143.1,227.6,1139.2,210.3,1132,204.2z M936.2,263.5c12.9,0.6,24.7-7.6,25.8-17.7C952.4,242.9,936.2,249.5,936.2,263.5z
		 M1009.3,230.7c-2.9,6-5.4,11.7-6.3,18.9c3.4-0.9,6.1-1.4,8.7-2.3c1-0.4,2.1-1.3,2.6-2.3C1016,241.4,1013.5,233.7,1009.3,230.7z"/>
	<path class="st0" d="M449.5,284.5c-6.4-6.1-7.4-13.5-4.7-22.6c-13.6,0.4-26.5,0.7-40.3,1.1c0.7,6,1.3,11.6,2,17.3
		c-2.1-1.3-2.1-1.3-3-7.8c-0.4-2.9-0.7-5.8-1.2-9.4c-3.6,0-7.2,0-10.7,0c0-0.5,0-1,0-1.5c2.4-0.1,4.8-0.4,7.2-0.3
		c2.6,0.1,3.6-0.9,3.3-3.6c-0.4-3-0.6-6.1-0.9-9.2c-1.8-0.4-3.3-0.8-5.6-1.4c2.3-1,5.1-1.4,5.3-2.4c0.6-2.8,0.2-5.8,0.2-9.4
		c-2,0.9-3.4,1.7-5,2.2c-1.4,0.4-2.8,0.6-4.2,0.8c-0.1-0.4-0.2-0.7-0.3-1.1c1.9-0.8,3.7-1.6,5.6-2.3c2.6-1.1,4.4-2.7,4.7-5.8
		c0.3-3,1.4-5.8,4.4-7.2c0.9-0.4,2.6-0.6,3.2,0c0.7,0.5,1,2.3,0.6,3.2c-1.1,2.1-2.3,4.4-4,5.8c-2.3,2-3,4.1-2.9,6.9
		c0.4,9.4-1.3,8.2,8.4,8.2c2.3,0,4.6,0,6.9,0.7c-4.6,1.8-9.5,0.9-15.1,1.6c0.3,3.7,0.4,7.5,1.1,11.2c0.1,0.7,2.3,1.4,3.5,1.4
		c8.9-0.1,17.9-0.5,26.8-0.7c2.3-0.1,4.5-0.1,6.8-0.1c1.7-0.1,3.6,0.3,4.1-2.1s0.9-4.8-1.6-6.5c-6.5-4.6-6.6-4.7-3.3-12
		c0.5-1,0.8-2.1,1.4-3.7c-2.1,0-3.7,0-6.2,0c2.4-2.3,4.5-2.4,6.5-1.8c2.1,0.6,1.8,2.4,1.2,4c-0.8,2.2-2,4.4-2.6,6.7
		c-0.3,1.1,0.3,3.3,1.1,3.6c5.4,2.1,6.9,5.9,5.1,11.5c3.9,0,7.3,0,10.8,0c2.8-11.5,6.2-22.9-3-33.4c0.2-0.2,0.5-0.5,0.7-0.7
		c1,0.8,2.3,1.5,3.1,2.5c4,5.7,4.7,12.1,3.8,18.7c-0.5,4.2-1.6,8.3-2.5,13.1c1.6,0,2.9,0,4.2,0c12.5-0.1,25.1-0.4,37.6-0.3
		c3.4,0,4.8-1.2,5.1-4.4c0.3-3.1,1.1-6.2,1.9-10.1c-3.6,0.7-6.5,1.2-9.3,1.8c-0.2-0.3-0.5-0.5-0.7-0.8c1.8-3.3,3.7-6.6,5.5-10
		c-0.3-0.3-0.6-0.6-0.9-0.9c-4,2.3-8.1,4.6-12.3,7.1c0.3,1,0.9,1.9,0.8,2.7c-0.1,0.9-0.5,2.3-1.2,2.6s-2.4-0.1-2.7-0.7
		c-1.4-2.7-3.5-2.4-5.8-1.7c-0.3,0.1-0.5,0.1-0.8,0.2c-3.4,0.5-5.8-0.4-6-2.4c-0.1-1.8,2.2-3.5,5.4-3.8c1.4-0.1,2.9,0,4.9,0
		c0.5-9.4,0-18.9,3-28c0.1,9.8-1.7,19.6-0.5,30.2c3-1.6,5.3-3,7.7-4.3c2.3-1.3,4.6-2.7,7-3.8c0.8-0.4,2.1-0.3,2.9,0.1
		c0.5,0.3,0.6,1.8,0.3,2.5c-1,2.6-2.2,5-3.5,7.8c0.7,0,1.2,0.1,1.7,0c5.6-0.7,6.7,0.4,5.6,6c-0.6,3-1.2,6-1.9,9.1
		c3.6,0.8,6.8,1.5,10,2.4c0.1,0,0,0.9,0,1.5c-2.6-0.3-5-0.6-7.4-1c-2.4-0.3-3.1,0.8-3.5,3.1c-1.2,8,1.2,15.3,3.9,22.6
		c0.4,1,0.7,2,0.4,3.2c-3.7-3.8-4.6-8.8-5.6-13.5c-1-4.8-0.8-9.9-1.1-15.2c-1.3-0.1-2.6-0.3-3.9-0.2c-16.9,0.1-33.9,0.4-50.8,0.4
		c-2.9,0-4.1,0.9-4.8,3.8c-1.4,5.9,0,11,3.4,15.9c0.5,0.8,1,1.6,1.4,2.4C450.3,284.1,449.9,284.3,449.5,284.5z"/>
	<path class="st0" d="M751.1,107.5c1.3-0.2,2.7-0.4,4-0.5c4.3-0.2,8.5-0.5,12.8-0.6c2.2-0.1,3.1-1,3-3.2c-0.1-3,0-6.1,0-9.3
		c-2.6-0.1-4.6-0.2-6.6-0.3c-0.2-0.3-0.4-0.7-0.6-1c4-0.9,9.5-0.8,6.5-7.4c-2.4,1.2-4.9,2.4-7.5,3.7c-0.2-0.4-0.4-0.8-0.6-1.1
		c0.8-0.5,1.5-1.2,2.3-1.6c4.3-2.2,7.2-5.1,7.6-10.4c0.1-2.4,1.5-4.8,2.6-7c0.3-0.7,1.9-1.4,2.5-1.1c0.7,0.3,1.5,1.8,1.3,2.5
		c-0.8,2.8-1.3,6-3,8.1c-2.9,3.7-2.8,7.5-2.3,12.1c4.9-0.6,9.6-1.1,14.4-1.6c0.1,0.4,0.2,0.8,0.3,1.3c-1,0.3-2,0.6-2.9,0.8
		c-1.3,0.3-2.6,0.4-4,0.6c-9.2,1.6-8.1-0.4-8,9.8c0,1.3,0.2,2.6,0.3,4.4c1.4,0.1,2.7,0.3,3.9,0.2c9.7-0.2,19.5-0.5,29.2-0.6
		c2.6,0,4-0.8,4.1-3.5c0.1-1.9,0.3-3.7,0.4-5.6c0.1-2-0.6-3.4-2.6-4.5c-3.4-1.9-3.5-3-1.7-6.4c0.8-1.6,1.7-3.1,3-5.5
		c-2,0.5-3,0.8-3.9,1c-0.8,0.2-1.6,0.2-2.7-0.3c0.7-0.5,1.3-1.3,2-1.4c2-0.3,4-0.3,6-0.4c-0.4,1.7-0.8,3.5-1.3,5.1
		c-0.3,0.9-0.8,1.7-1.4,2.4c-1.1,1.6-1.1,3,0.9,3.9c3.3,1.4,3.8,4.2,3.7,7.3c-0.1,2.4-0.4,4.7-0.6,7c8.2,2.5,13.4-1.7,12.4-9.8
		c-0.8-5.8-3.5-10.8-6.8-15.6c-0.8-1.1-1.5-2.3-2.7-4.1c8.5,3.4,13.5,20.1,9.4,29.7c1.1,0.1,2.1,0.4,3,0.3
		c9.6-0.2,19.2-0.5,28.8-0.6c2.5,0,3.8-0.7,3.7-3.4c-0.1-1.7,0.1-3.5,0.3-5.2c0.2-3.3-0.8-5.6-4.3-6.7c-2.8-0.9-3.1-2.3-1.5-4.9
		c0.8-1.2,1.8-2.3,2.6-3.6c1.6-2.5,1.1-3.6-1.9-4c-1.1-0.2-2.2-0.2-4-0.4c3.3-1.9,6.7-1.7,8.2,0.1c1.7,2.2,0.2,4-0.9,5.8
		c-0.9,1.3-1.8,2.6-2.9,4.2c3,1.9,6.6,3,6.7,7.2c0.1,3.3,0,6.6,0,10.7c5.4-0.3,10.8-0.5,16.2-0.8c0,0.6,0.1,1.1,0.1,1.7
		c-5.5,0.4-10.9,0.9-16.6,1.3c-1.4,7.5-0.1,14.3,2.9,20.9c-5.9-5.7-5.2-13.1-5.5-20.7c-1.4-0.1-2.6-0.3-3.9-0.2
		c-13.2,0.2-26.4,0.5-39.6,0.8c-4.1,0.1-4.3,0.2-4.6,4.2c-0.5,7.1-0.3,14.1,3.1,20.7c0.2,0.3,0.3,0.8,0.3,1.1c0,0.2-0.2,0.4-0.8,1.3
		c-5.7-8.4-4.7-17.6-4.5-26.7c-1.1-0.2-1.8-0.4-2.6-0.4c-10,0.2-20,0.5-30,0.6c-3.1,0-4,1.1-3.7,4.1s0.4,6,0.6,9.4
		c2.2,0,3.9-0.1,5.5,0c2.7,0.1,3.4,1.1,2.3,3.6c-1.1,2.6-2.5,5-3.7,7.5c-0.2,0.4-0.2,1-0.3,2.2c2.3-0.4,4.3-0.7,6.3-1
		c4.7-0.7,6,0.7,4.7,5.2c-1.2,4-2.7,7.8-3.9,11.8c-1.9,6.4-2.3,12.8-0.6,19.3c0.2,0.8,0.1,1.7,0.2,2.5c-0.3,0.1-0.6,0.2-0.9,0.3
		c-0.5-1.5-1.3-2.9-1.6-4.4c-1.8-8.3,0.1-16.1,2.8-23.9c0.9-2.7,1.8-5.5,3.1-9.4c-3.1,0.6-5.4,1-7.6,1.4c-2.3,0.4-4.8,1.1-4.7-2.7
		c-5.7-6.7-3-14.9-4.2-22.4c-0.1-0.8-0.2-1.6-0.3-2.7c-6.6,0-13.1,0-19.7,0C751.1,108.3,751.1,107.9,751.1,107.5z M773.7,123.7
		c0.6,2.8,1,5,1.4,7.1c0.4,0,0.8,0,1.2,0c1.2-2.3,2.4-4.6,3.9-7.7C777.6,123.4,776.1,123.5,773.7,123.7z"/>
	<path class="st0" d="M489.3,81.9c6.6,0.5,7,0.9,6.5,6.6c-0.4,3.8-1,7.7-1.4,11.5c-0.2,1.5,0,3.1,0,4.8c1.4,0.2,2.4,0.4,3.5,0.4
		c14.4-0.3,28.8-0.6,43.2-0.8c3,0,4.2-1.2,4.8-4.1c0.7-3.4,2.1-6.6,2.9-10c0.8-3.1,0.1-4.3-3.1-4.6c-7.5-0.7-9.3-2.8-3.4-9.7
		c1.5-1.7,2.6-3.8,4.4-6.4c-3.1-0.4-5.2-0.6-7.6-0.9c2.4-1.8,6.3-2.3,7.7-0.6c0.7,0.9,1.1,2.8,0.6,3.8c-1.1,2.2-2.8,4.2-4.2,6.3
		c-0.9,1.3-1.7,2.6-2.9,4.4c2.3,0.5,3.9,0.9,5.6,1.2c4.8,0.9,6,2.8,4.7,7.6c-0.8,2.9-1.9,5.8-2.7,8.8c-0.3,1-0.3,2-0.6,3.7
		c4.1-0.2,7.7-0.4,11.4-0.6c1.2-0.1,2.4-0.3,3.6-0.2c1,0.1,1.9,0.7,2.8,1.1c-0.4,1-0.8,1.9-1,2.4c-2.4-0.5-4.2-1.2-6-1.2
		c-2.4-0.1-4.8,0.2-7.2,0.4c-3.8,0.3-4.3,0.9-3.6,4.7c0.5,2.3,1.3,4.6,1.9,6.9c0.2,0.8,0.4,1.7,0.6,2.5c-0.3,0.1-0.6,0.3-0.9,0.4
		c-0.6-1.1-1.5-2.2-1.9-3.4c-0.7-2.4-1.6-4.9-1.8-7.4c-0.2-3-1.6-3.3-4.2-3.3c-14.3,0.4-28.5,0.6-42.8,0.9c-4,0.1-4.1,0.2-3.8,4.1
		c0.2,2.3,0.3,4.5,0.4,6.8c-0.5,0.1-1,0.1-1.5,0.2c-0.3-2.3-0.6-4.7-0.9-7c-0.5-4.1-0.4-4.1-4.6-4.1c-8.9,0-17.9,0-26.8,0.1
		c-1.3,0-2.6,0.2-4.7,0.3c0.4,5.4,0.8,10.6,1.2,15.8c-0.2,0.1-0.5,0.2-0.7,0.3c-0.4-0.8-1.1-1.5-1.2-2.4c-0.5-3.6-0.9-7.1-1-10.7
		c-0.1-2.4-1-3.3-3.4-3.2c-2.1,0.1-4.3,0-6.4,0c0-0.5,0-1-0.1-1.5c3-0.3,6-0.6,9.2-0.9c0-5.3,0-10.4,0-15.5
		c-1.9-0.7-3.5-1.3-5.1-1.8c0.1-0.3,0.1-0.6,0.2-0.9c1.5-0.1,3-0.2,4.7-0.3c0.3-3.3,0.2-6.5,0.9-9.6c0.7-3.6,1.7-7.2,3.2-10.6
		c0.5-1.2,2.8-2.5,4-2.3c1.1,0.2,2.5,2.4,2.6,3.8c0.2,2.4-0.2,5-0.9,7.4c-0.5,1.9-2,3-3.9,2.2c1.1-2.1,2.4-3.9,2.9-5.9
		c0.4-1.8-0.1-3.8-0.2-5.7c-0.5-0.1-0.9-0.2-1.4-0.4c-0.9,1.3-2.2,2.6-2.5,4c-1,4.9-1.6,9.9-2.2,14.9c-0.3,2,1,2.5,2.7,2.5
		c2.6,0,5.1,0,7.8,0.3c-1.8,1.9-4.2,1.5-6.5,1.6c-4,0.1-4,0.1-4,4.1c0,3.2,0.1,6.4,0.2,9.6c0,1.9,0.6,2.9,2.8,2.9
		c10.1-0.1,20.3,0,30.4-0.2c1,0,2.6-1.1,2.7-1.9c0.8-5.5,1.3-11.1,1.9-16.7c0.1-0.6-0.2-1.3-0.2-1.8c-0.4-0.3-0.6-0.5-0.9-0.5
		c-6.2-0.4-6.5-0.9-4.1-6.6c0.7-1.7,1.3-3.4,2.3-5.7c-2,0.4-3.2,0.7-5.3,1.1c1.5-2.9,3.6-3.7,5.7-3.3c2.6,0.5,1.5,2.7,1,4.2
		C491.5,76.6,490.4,79.1,489.3,81.9z"/>
	<path class="st0" d="M853.4,430.7c-3.3,0.4-6.5,0.8-10.2,1.3c0.7,9.1,3.1,18.1,0.4,27c-0.4,0.1-0.8,0.2-1.2,0.3
		c-0.7-1.4-1.4-2.9-2.1-4.3c0.3,0,0.6,0,0.9,0c0.6-1.8,1.7-3.7,1.6-5.5c-0.2-4.9-0.9-9.8-1.3-14.7c-0.2-2.6-1.5-3.4-3.9-3.3
		c-1.3,0.1-2.5-0.1-3.8-0.2c0-0.4-0.1-0.8-0.1-1.1c2.1-0.3,4.1-0.6,6.7-1c-0.3-3.9,0.8-8.8-1.2-11.5c-4.1-5.4-2.2-11.1-2.9-16.7
		c-0.5-4.4-0.2-4.4-4.7-4.4c-4,0-8,0.1-12,0.1c-1.2,0-2.5-0.2-3.7-0.9c6.3-1.8,12.9-0.5,19.9-1.6c-0.3-4.4-0.5-8.7-0.8-13.2
		c-2.4-0.2-4.5-0.3-6.5-0.4c-0.1-0.3-0.1-0.7-0.2-1c1.9-0.4,3.7-0.9,6.1-1.4c0-1.4,0-3,0-4.5c0.1-4.4,0.1-8.8,0.4-13.1
		c0.2-2.1,0.9-4.7,3.6-4.6c2.8,0.1,2.8,2.7,3,4.8c0.1,1.9,0,3.8,0,5.6c-0.5,0-1,0.1-1.4,0.1c-0.3-2.7-0.6-5.4-0.9-8.1
		c-0.4-0.1-0.7-0.2-1.1-0.3c-0.5,1-1.3,2.1-1.4,3.1c-0.2,4.9-0.1,9.8-0.1,14.8c0,1.7,1,2.3,2.6,2.3c2-0.1,4-0.1,6-0.1
		c1.1,0,2.1,0.3,3.2,0.4c0,0.4,0,0.8,0,1.2c-3.6,0.2-7.1,0.4-11.3,0.6c0.3,4.7,0.6,9.1,0.8,13.8c11.6,0.8,22.9,1.6,34.2,2.5
		c0,0.4,0,0.8,0.1,1.2c-1.4,0.1-2.9,0.5-4.3,0.4c-8-0.5-15.9-1.1-23.9-1.6c-0.9-0.1-1.9,0-2.8-0.1c-2.2-0.2-3.1,0.8-3,3
		c0.1,3.5,0,6.9,0,10.4c0.3,0.1,0.6,0.2,1,0.3c0.5-0.9,0.8-2,1.5-2.8c1.4-1.4,2.9-2.9,4.6-3.9c0.5-0.3,2.2,0.8,2.7,1.6
		c1.1,1.6,0.5,4.2-1.7,7c0-2.5,0-4.5,0-6.5c-3.1-0.2-4.2,1.8-4.3,3.6c-0.1,6.1,0.2,12.2,0.6,18.3c0,0.6,1.7,1.5,2.7,1.6
		c2.6,0.2,5.2,0.1,7.8,0.1C853.3,429.9,853.3,430.3,853.4,430.7z"/>
	<path class="st0" d="M1148,393.8c-3,1-6.1,3.6-9.1,0.6c-3.2-3.3-0.2-6.4,0.9-9.4c-3.4-2.4-6-2.5-8.5,0.4c-2,2.2-3.3,5-4.8,7.7
		c-0.9,1.6-1.3,3.4-2.4,6.2c-2.4-3.1-4.2-5.4-6.4-8.2c-0.8,1.2-1.5,2.2-2.1,3.2c-2.8,4.3-4.9,4.3-7.6,0c-0.3-0.4-0.5-0.9-1.1-1.8
		c-0.8,1.1-1.4,2-2,2.9c-2.7,3.9-7.2,3.9-9.8-0.1c-2.3-3.6-2.6-7.5-0.8-11.4c1.9-4.3,6-5,9.3-1.6c0.7,0.7,1.3,1.7,2.1,2.7
		c0.7-0.3,1.4-0.7,2.5-1.1c1,4-0.5,8.6,4.1,11.9c1.8-3,3.5-5.8,5.6-9.2c1.9,3.1,3.5,5.7,5.6,9.1c0.8-2.1,1.1-3.6,1.9-4.7
		c1.7-2.6,3.4-5.3,5.6-7.6c1.1-1.1,3.2-2,4.6-1.8c4,0.6,8,1.5,11.7,2.9c1.2,0.4,2,2.6,2.6,4.1c0.5,1.2,0.3,2.6,0.4,4.7
		c2.5-1.6,4.6-3,6.7-4.4c0.2,0.3,0.5,0.7,0.7,1c-1.4,1.3-2.7,2.7-4.2,3.8c-2.2,1.6-2.8,3.4-1.9,6.2c1.5,5.2,2.7,10.6,3.8,15.9
		c0.6,3,0.7,6.3-2.8,8c-2.6,1.3-6.2-0.1-8.8-3.2c-3.5-4.4-3.9-9.3-1.9-14.3c1.2-3,3.2-5.8,4.8-8.7c0.6-1,1.3-2,2-3
		C1148.4,394.3,1148.2,394,1148,393.8z M1149.7,398.8c-0.5,0-0.9-0.1-1.4-0.1c-3.9,4.5-6.5,9.5-5.3,15.7c0.4,2.1,1.7,4.2,3.3,5.7
		c1.3,1.1,3.6,1.9,5.2,1.6c2.4-0.5,2.2-3.1,1.9-5C1152.3,410.7,1151,404.8,1149.7,398.8z M1094.9,389.3c0.4,1.2,0.8,3.2,1.8,4.8
		c1.8,3,4.6,2.8,6.7-0.1c2.3-3.2,1.9-6.3-0.3-9.2c-1-1.3-3.1-2.8-4.4-2.6c-1.3,0.2-2.4,2.4-3.3,3.9
		C1095,386.8,1095.1,387.7,1094.9,389.3z M1142.5,393.8c2.4-0.1,5.2-2.9,5.1-5.2c0-2.1-1.3-3.1-3.3-3.1c-2.2,0-4.9,3.1-4.9,5.5
		C1139.6,392.8,1140.6,393.9,1142.5,393.8z"/>
	<path class="st0" d="M1054.2,101.8c-2.6,2-4.6,3.9-7,5.4c-2,1.2-4.3,2.2-6.6,2.7c-4.9,1.1-8.4-1.5-9-6.5
		c-0.7-5.4,1.3-10.2,3.9-14.8c0.6-1,1.3-2,2.3-3.5c-4.2-1.5-8.1-3.2-12.1-4.3c-2.8-0.8-5.1,0.7-5.6,3.6c-0.4,2.3-0.1,4.7,0,7
		c0,0.7,0.3,1.5,0.3,2.2c0,0.2-0.6,0.5-0.9,0.7c-2.5-3-2.6-9.5-0.3-13c1.9-2.8,5-3.3,9.7-1.7c4.2,1.5,8.5,2.9,13,4.4
		c-0.1,0.2-0.3,0.8-0.7,1.2c-4.8,3.6-6.8,8.7-7.7,14.4c-0.4,2.8-0.5,5.7,2.2,7.6c2.6,1.9,5.5,1.1,7.9-0.3c2.5-1.4,4.8-3.3,7.2-5
		c1.7-1.2,2.1-2.8,1.4-4.9c-1.2-3.9-0.5-7.7,1.4-11.2c0.5-1,1.3-2.2,2.3-2.6c1.2-0.6,2.9-1.1,4-0.7c0.8,0.3,1.7,2.4,1.4,3.4
		c-1,3.7-2.1,7.4-3.8,10.7c-1.8,3.4-1.5,4.9,2.3,5.9c5.1,1.3,11.6-1.4,14.1-6.1c0.5-0.9,0-2.4-0.3-3.5c-0.6-2.4-1.7-4.7-1.7-7.1
		c0-2.3,1.9-3.8,4.4-3.6c2.4,0.2,2.8,2.2,2.9,4.1c0,1.4,0,3-0.5,4.3c-1.2,3,0.1,4.4,2.7,5.5c2.7,1.2,5.3,2.5,7.9,3.9
		c4.4,2.6,4.6,6.2,0.3,9c-2.5,1.7-5.3,3.3-8.6,2.1c-0.5-0.2-0.8-0.8-1.2-1.2c2.7-0.7,5.4-1,7.7-2c1.3-0.5,2.6-2.1,2.8-3.4
		c0.1-0.9-1.5-2.4-2.6-3c-3.3-1.9-6.9-3.5-10.7-5.5C1070.9,103.9,1063.8,108.3,1054.2,101.8z M1059.1,83.8c-5.1,3-6.6,8.2-4.1,12.8
		C1058,92.9,1059.7,89.1,1059.1,83.8z M1076.3,92.4c0.3-2.7,0.7-4.5,0.7-6.2c0-0.6-0.7-1.2-1.2-1.8c-0.7,0.5-1.8,0.8-2,1.4
		C1073,88,1073.4,90.1,1076.3,92.4z"/>
	<path class="st0" d="M187.5,101.6c-1.4-0.2-2.5-0.4-3.7-0.5c-4.6-0.2-6.5-1.8-6.1-6.1c0.2-3.1,1.3-6.2,2.6-9.1
		c0.6-1.2,2.8-2.5,4.1-2.2c1,0.2,2.1,2.4,2.5,3.8c1.3,5.5,2.3,11.1,4.2,16.9c1.7-2.5,3.4-5,5.1-7.4c0.4,0.2,0.8,0.5,1.2,0.7
		c-1,2-1.8,4.2-3.2,5.9c-2.7,3.3-2.9,6.6-2.4,10.7c0.7,5.5,0.7,11.1,0.2,16.7c-0.4,4.4-2.8,6.6-5.3,6.4c-2.5-0.2-4.2-2.9-4.3-7.2
		c-0.1-6.1,1.5-11.9,4.2-17.3C189.1,107.5,189.1,107.6,187.5,101.6z M189.2,113.4c-3.6,5.6-5.3,11.6-4.6,18.1
		c0.1,1.3,1.5,2.5,2.4,3.7c1-1.1,2.4-2.1,2.8-3.4C191.6,125.7,191,119.5,189.2,113.4z M184.8,85.2c-4,2.2-5.9,6.1-5.2,10.3
		c0.2,1.3,1.5,2.5,2.3,3.7c1.1-1.2,2.9-2.3,3.1-3.6C185.4,92.4,184.9,89.1,184.8,85.2z"/>
	<path class="st0" d="M206.9,396.6c-1.3,0.2-2.6,0.6-4,0.6c-12.9,0.3-25.9,0.6-38.8,0.6c-26,0.1-52,0-78,0c-5.1,0-10.1-0.1-15.2-0.3
		c-1.3-0.1-2.7-0.6-4-1c0.1-0.3,0.2-0.6,0.3-0.9c46.5,0,93,0,139.4,0C206.8,396,206.9,396.3,206.9,396.6z"/>
	<path class="st0" d="M130.8,134.1c7-0.5,11.1-5.1,11.7-13.3c0.6-7.8-1.2-15.3-3.2-22.8c-3.5-13.3-7.5-26.4-7.8-40.3
		c-0.1-4.3,0.4-8.8,1.5-13c1.2-4.6,4.9-7.1,8.7-6.9c0.7,0,1.3,0.5,2.6,1c-1.1,0.5-1.5,0.8-1.9,0.8c-4.8,0-6.8,3.1-8,7
		c-1.9,6.7-1.4,13.6,0,20.2c2.3,11.3,5.3,22.5,7.6,33.9c1.3,6.4,2.3,12.9,2.5,19.3c0.2,6-2,11.5-7.7,14.9
		C134,136.5,132.5,136.3,130.8,134.1z"/>
	<path class="st0" d="M1148.9,684.8c-1,1.1-1.5,1.9-2.2,2.5c-2,1.8-3.9,1.6-5.2-0.9c-1-2.1-1.7-4.4-2.6-6.9
		c-1.5,1.3-2.7,2.5-4.2,3.5c-2.7,1.8-5,1.1-6-1.9c-2.1-6.1-1.1-11.9,2.3-17.2c0.9-1.5,3.6-2.6,5.4-2.5c2.5,0.1,2.8,2.7,3.1,4.9
		c0.6,4.7,1.2,9.4,2.1,14.1c0.4,2.1,1.4,4.1,2.1,6.1c0.5,0,1,0.1,1.4,0.1c1.4-2.8,2.9-5.6,4.8-9.3c0.8,2.6,1.3,4.2,1.9,6.3
		c1.2-1.4,2.3-2.6,3.9-4.3c0.8,1.5,1.5,2.5,2,3.6c1.5,3.8,3,4.7,7,3.5c1.7-0.5,3.3-1.3,5.3-2.2c-1.4,3.1-3.7,4.2-7.4,4.6
		c-3.9,0.3-5.9-1.8-7.1-5.7c-1.6,2.4-2.9,4.4-4.7,7C1150,688,1149.5,686.7,1148.9,684.8z M1137.5,669.5c0.1,0,0.1,0,0.2,0
		c-0.1-1.1,0-2.2-0.3-3.1c-0.4-1.2-1.1-2.2-1.7-3.3c-1.1,0.7-2.4,1.1-3.1,2.1c-3.3,4.5-3.6,9.6-2.2,14.7c0.2,0.8,2.2,2,2.4,1.8
		c1.7-1.5,3.9-3.1,4.6-5.1C1138.2,674.6,1137.5,672,1137.5,669.5z"/>
	<path class="st0" d="M753.8,479.6c4,13.2,8,26.4,12.1,39.6c0.6,1.8,1.7,3.4,2.8,5.5c-2,0.9-3.1-0.3-3.8-2.2c-0.7-2-1.3-4-1.9-6.1
		c-0.5-1.9-1.6-2.5-3.5-2.4c-3.3,0.2-6.7,0.3-10,0.1c-2.6-0.1-4,0.9-4.3,3.4c-0.3,2.2-0.5,4.4-0.8,7c-2.5-1.6-1.9-3.7-1.5-5.4
		c1.1-4.7,2.5-9.3,3.6-13.9c2-8.2,3.8-16.3,5.7-24.5c0.1-0.5,0.4-0.9,0.6-1.4C753.2,479.6,753.5,479.6,753.8,479.6z M747,511.9
		c5,0,9.5,0,14.6,0c-2.6-8.8-5-16.8-7.5-24.9c-0.2,0-0.5,0-0.7,0C751.3,495.2,749.2,503.5,747,511.9z"/>
	<path class="st0" d="M377.2,498.3c-0.2,1.3-0.4,2.7-0.6,4c-1.2,6.7-2.5,13.4-3.6,20.1c-0.3,2,0.1,4,0.1,6.1
		c0.4,0.2,0.8,0.4,1.2,0.5c1.5-1.1,3.2-2.1,4.5-3.4c6.9-7,7.9-19.6,2.4-27.3c-2.4-3.4-5.8-5-9.9-5.3c-4.8-0.3-9,3.8-9.2,9.1
		c-0.1,3.1,0.3,6.3,0.5,10.2c-0.9-1-1.6-1.4-1.7-2c-0.3-3.1-1-6.4-0.6-9.5c0.6-4.9,3.4-8.5,8.4-9.5c5.6-1.2,10.3,0.9,13.8,5.3
		c7.2,9.2,4.8,25.5-4.6,32.5c-3.7,2.8-7,1.8-7-2.6c0-9.7,2.2-19.2,4.8-28.5C376.3,498.1,376.8,498.2,377.2,498.3z"/>
	<path class="st0" d="M1040.6,520.2c-1.4,1.3-2.4,2.3-3.5,3.2c-3.2,2.5-5.9,1.8-7-2.1c-1.6-5.6-1-11.2,2.2-16.1
		c1-1.6,3.7-2.8,5.6-2.8c2.6,0,2.8,2.7,3.1,4.8c0.7,5,1.4,10,2.3,14.9c0.3,1.8,1.3,3.5,2,5.3c0.4,0,0.9,0,1.3,0.1
		c1.4-2.7,2.8-5.5,4.6-9c0.8,2.3,1.4,4,2.1,6c1.3-1.4,2.3-2.7,3.9-4.5c0.9,1.7,1.5,2.7,2,3.9c1.5,3.8,2.7,4.5,6.7,3.4
		c1.7-0.5,3.4-1.4,5.4-1.6c-0.8,2.5-3.1,3.2-5.4,3.7c-4.2,1-5.6,0.2-9.3-5c-1.3,2-2.5,3.9-4.2,6.4c-0.8-2-1.3-3.3-1.8-4.5
		c-0.3,0-0.7,0-0.8,0.1c-3,4.6-6.1,3.8-7.9-1.7C1041.5,523.3,1041.1,521.9,1040.6,520.2z M1030.5,515.3c0.2,0.1,0.5,0.2,0.7,0.3
		c0,0.9-0.1,1.9,0.2,2.8c0.5,1.4,1.3,2.8,1.9,4.2c1.4-0.8,2.9-1.5,4.3-2.4c2.6-1.6,0.8-4,1.1-6.1c0.3-2.5,0.3-5,0.2-7.5
		c0-0.9-0.9-2.5-1.4-2.5c-1,0-2.5,0.6-2.9,1.4C1033,508.7,1031.8,512,1030.5,515.3z"/>
	<path class="st0" d="M475.7,657.7c-0.2,1.2-0.5,2.5-0.7,3.7c-1.2,6.9-2.6,13.9-3.7,20.9c-0.3,1.7,0.6,3.5,0.9,5.3
		c1.6-0.9,3.7-1.4,4.9-2.7c6.4-7.1,7.8-15.3,4.4-24.1c-1.6-4.2-4.6-7.1-9.2-8.1c-6.2-1.4-11.3,2.2-11.8,8.5
		c-0.2,2.4,0.3,4.8,0.4,7.2c0,0.8,0,1.7,0,2.9c-3.7-4.6-3.3-12.9,0.5-17.3c3.5-4.1,9.8-4.9,15-1.9c4.2,2.4,6.6,6.2,7.7,10.7
		c2.3,9.5,0.2,18-7.1,24.8c-1.4,1.3-3.9,2.3-5.6,1.9c-2.4-0.5-2.6-3.3-2.3-5.4c1.4-8.5,2.9-17.1,4.5-25.6c0.1-0.4,0.6-0.7,0.9-1.1
		C475,657.4,475.4,657.5,475.7,657.7z"/>
	<path class="st0" d="M889.8,351.7c4.8,18.7,6.3,38,9,57.6c-6.5,0-12.6,0.3-18.6-0.1c-3.4-0.3-5.6-3.2-5.5-5.9
		c0.1-2.7,2.8-5.1,6.4-5.6c5.4-0.6,9.9,1.6,14.3,5c-1.1-17.1-3.6-34-7.3-50.8C888.6,351.9,889.2,351.8,889.8,351.7z M895.2,407.6
		c-2.9-5.7-9.6-9.2-14.8-7.7c-1.5,0.4-3.2,2.1-3.6,3.5c-0.2,0.9,1.6,3.1,2.9,3.5C884.7,408.6,889.9,407.8,895.2,407.6z"/>
	<path class="st0" d="M866.8,684.4c-1-0.5-2.1-0.9-2.9-1.6c-0.5-0.4-0.5-1.2-0.8-1.8c-0.9-2.5-1.2-5.8-3-7.1
		c-1.6-1.2-4.8-0.2-7.3-0.2c-0.9,0-1.9,0-2.8,0c-5.7,0-6.6,0.8-6.8,6.5c0,1.1,0,2.2,0,4.1c-2.7-2-2.1-4.1-1.7-5.8
		c1-4.5,2.4-9,3.5-13.5c2-8.2,3.8-16.3,5.7-24.5c0.1-0.5,0.4-1,0.8-2c1.2,2.8,2.5,5.1,3.3,7.5c3.4,11.1,6.6,22.2,9.9,33.3
		c0.5,1.5,1.6,2.9,2.4,4.3C866.9,683.8,866.9,684.1,866.8,684.4z M860.1,671.2c-2.6-8.7-5.1-16.8-7.5-24.9c-0.3,0-0.5,0.1-0.8,0.1
		c-2.1,8.1-4.2,16.3-6.3,24.7C850.4,671.2,854.9,671.2,860.1,671.2z"/>
	<path class="st0" d="M664.9,651.6c0,13.6,0,27.2,0,40.8c-0.3,0.1-0.6,0.1-0.9,0.2c-0.2-0.8-0.5-1.7-0.6-2.5
		c-0.3-10.4-0.5-20.8-0.8-31.1c0-1.3,0-2.7-0.6-3.9c-1.6-3.3-1.3-4.6,2.2-5.6c5-1.3,9.9-0.8,14.3,1.6c2.5,1.3,4.7,3.5,6.5,5.7
		c2.2,2.8,1.7,6.5-0.7,9.1c-3.1,3.4-11.4,5.6-15.6,3.9c-1.2-0.5-2.3-1.7-3-2.8c-0.2-0.4,1-1.6,2.1-2.6c-0.4,4.2,2.3,4.3,4.6,4
		c3.1-0.5,6.3-1.3,9-2.7c3.5-1.9,3.8-5.2,1.5-8.5C679.2,651.8,671,649.3,664.9,651.6z"/>
	<path class="st0" d="M570,505.3c-1,3.4,0.9,4,3.1,3.8c2.4-0.2,4.8-0.4,7-1.2c6.9-2.5,7.8-8,2.2-12.7c-3.8-3.1-10.8-4.4-16-2.9
		c0,6.8,0,13.7,0,20.6c0,6.8,1,13.6,0.2,20.3c-0.3,0-0.7,0.1-1,0.1c-0.2-0.8-0.6-1.6-0.6-2.4c-0.3-10.5-0.5-21-0.8-31.5
		c0-1.3-0.2-2.7-0.7-3.8c-1.5-3-1.3-4.2,1.9-5.2c4.9-1.6,9.9-1,14.4,1.2c2.5,1.3,4.8,3.3,6.6,5.5c2.7,3.2,2.4,7.2-0.8,10
		c-4.3,3.7-9.5,4.8-14.9,3.5c-1.3-0.3-2.4-1.9-3.2-3.1c-0.2-0.2,1-1.4,1.5-2.2C569.2,505.3,569.6,505.3,570,505.3z"/>
	<path class="st0" d="M782.8,426.5c4.4,1.2,7.1,0.3,9.9-3.5c4.6-6.1,4.8-13,2.9-19.8c-1.7-5.8-4.5-11.4-6.9-17
		c-2.3-5.4-5.3-10.6-6.9-16.1c-1.4-4.9-1.7-10.2-1.9-15.3c-0.1-3.1,1.3-6,4-8c2.4-1.8,4.4-1.8,6.4,0.2c-6.9,1.5-9,4.4-8.7,12
		c0.3,7.8,3.5,14.7,6.6,21.6c3.1,7.1,6.4,14.1,9.1,21.3c2,5.2,1.9,10.8,0.3,16.1c-1.6,5.4-4.7,9.5-10.3,11.2
		C785,429.7,783.5,429.3,782.8,426.5z"/>
	<path class="st0" d="M427.1,44.6c-7.3,2.8-7.1,9.1-7.3,15c-0.5,13.4,3.3,26,7,38.7c1.6,5.6,3.1,11.3,4.3,17c0.9,4.1,0.2,8.3-2,12
		c-2.1,3.5-7.8,3.1-10.1-1c1.1,0.3,2,0.5,2.8,0.8c4.4,1.3,6.1,0.7,6.8-3.8c0.6-4,0.6-8.3-0.3-12.2c-2.2-9.5-5.3-18.7-7.7-28.1
		c-2.4-9.5-3.8-19.1-2.3-28.9c0.4-2.6,1.5-5.1,2.7-7.4C422.2,44.6,424.4,43.7,427.1,44.6z"/>
	<path class="st0" d="M1179.7,378.7c-0.3-4.4,1.3-8.6-1.2-12.7c-4.5,7.8-2.6,16.2-2.9,24.6c3.2,0.5,6,0.9,8.7,1.2
		c0,0.4-0.1,0.8-0.1,1.3c-1.4,0-2.8,0.1-4.2,0c-4-0.2-4.3,0.1-4.3,4.1c0,7.4,0,14.9,0,22.5c1.5,0,2.3,0,4,0c-1,1.4-1.5,2.7-2.3,3
		s-2.3-0.3-2.8-1s-0.4-2-0.4-3.1c-0.1-7.3-0.3-14.6-0.3-22c0-2.6-0.9-3.7-3.5-3.5c-2.2,0.1-4.4,0-7.4,0c2.2-2.8,4.5-1.9,6.4-1.9
		c4.3-0.1,4.3,0,4.3-4.2c0-3.9-0.3-7.8,0.1-11.6c0.3-3.3,1.2-6.5,2.3-9.6c0.3-0.9,2-2,3-1.9c0.9,0.1,2.4,1.6,2.4,2.5
		c0.1,3.5-0.1,7.1-0.4,10.7C1181,377.6,1180.2,378.1,1179.7,378.7z"/>
	<path class="st0" d="M342,86.9c3.7,0,7.3,0,11,0c5.3-0.1,5.3-0.1,5.3-5.6c0-4.1,0-8.2,0-13.1c-3.4,2.8-4,7-6.9,9.8
		c-1.2-3,1.2-4.6,1.9-6.5c0.9-2.2,2.1-4.3,3-6.5c0.9-2.1,1.7-4.3,3.3-6.4c1.1,4.7,0.5,9.3,0.6,13.9s0,9.2,0,14.4c10.4,0,20.2,0,30,0
		c0,0.4,0,0.8,0.1,1.2c-1.3,0.2-2.6,0.5-4,0.5c-7.2,0.1-14.4,0-21.6,0.1c-1.7,0-3.3,0.6-4.9,0.9c-0.4,0.1-0.9,0.5-1.1,0.4
		c-4.6-2.7-9.6-0.5-14.4-1.1c-0.8-0.1-1.7-0.4-2.5-0.5C342,88,342,87.4,342,86.9z"/>
	<path class="st0" d="M121.5,150.5c-1.8,7.8-4.4,14.9-3.8,22.4c0.5,0.3,0.9,0.7,1.4,1c0.4-0.8,0.6-1.8,1.1-2.5
		c3.5-5,4.8-10.6,4.8-16.6c0-5.9-2-9.6-5.8-10.8c-4-1.2-10.1,1.3-12.9,5.3c-2.3,3.3-2.6,6.9-1.8,10.7c0.3,1.2,0.5,2.4,0.8,4.2
		c-3.4-3.3-4.1-9-2.2-13.4c2.6-5.8,7.3-8.7,13.5-9.1c4.2-0.2,7.9,2.2,9.2,6.3c2.8,9.8,0.4,18.7-5.8,26.6c-0.6,0.8-2.1,1.3-3,1.2
		c-0.6-0.1-1.3-1.6-1.3-2.5c-0.1-7.5,1.2-14.8,4.1-21.8C119.9,151.2,120.4,151.1,121.5,150.5z"/>
	<path class="st0" d="M1208.3,103c-30,4.5-59.8,4.9-89.6,5.3c-0.3,0-0.6-0.5-1.6-1.4c2-0.2,3.3-0.4,4.6-0.5
		c16.1-0.5,32.2-0.7,48.3-1.5c10.5-0.5,20.9-2.1,31.4-3C1203.6,101.7,1206.1,101,1208.3,103z"/>
	<path class="st0" d="M517.6,667.5c-5,1-9.3,2-14.2,3c1.8,1.6,3.3,2.7,4.5,4c1.1,1.1,2.2,2.4,2.9,3.7c2.1,4,0.4,7.1-4,7.8
		c-5,0.8-10.9-2.1-13.9-6.9c-4.9-7.9-2.2-20,5.8-24.6c1.9-1.1,4.5-1.4,6.8-1.4c2,0.1,3.6,1.4,3.5,3.4c-2.5-0.5-5-1.7-7.2-1.3
		c-3.7,0.7-6,3.7-7.7,7c-4.1,8-1,17.8,6.7,21c0.5,0.2,1,0.4,1.5,0.5c2.5,0.6,5.5,1.2,6.8-1.4c1.4-2.6-0.6-4.8-2.6-6.5
		c-1.6-1.4-3.5-2.5-5.2-3.7c-0.9-0.6-1.8-1.3-2.8-2C502.1,667.8,514.8,665.9,517.6,667.5z"/>
	<path class="st0" d="M84,271.3c-2.5,0.6-5.1,1.2-7.6,1.7c-5.3,1.2-5.3,1.1-5.2,6.4c0.1,7.4,0.3,14.9,0.4,22.3c0,0.5-0.1,1-0.2,1.5
		c-0.3,0.1-0.6,0.2-0.8,0.2c-0.3-1.1-0.9-2.1-0.9-3.2c-0.2-6.9-0.3-13.8-0.4-20.8c0-1.4,0-2.8,0-4.7c-4.4,0.6-8.2,1.2-12.1,1.7
		c-0.1-0.4-0.2-0.9-0.3-1.3c1.8-0.4,3.5-0.9,5.3-1.3c6.9-1.3,6.8-1.3,7.5-8.3c0.5-4.6,1.1-9.2,2-13.8c0.5-2.8,1.6-5.5,4.3-7.5
		c2.8,2.3,1.3,4.6,1.1,6.8c-0.3,0.2-0.7,0.4-1,0.6c-0.3-0.7-0.7-1.4-1.4-2.7c-2.8,7.6-3.2,14.7-3.3,22.6c4.4-0.7,8.4-1.3,12.4-2
		C83.8,270.3,83.9,270.8,84,271.3z"/>
	<path class="st0" d="M400,510.7c5.3-2.4,16.5-3.9,19.1-2.5c-4.8,1-9.2,2-14,3.1c1.9,1.7,3.5,2.9,4.9,4.3c1.1,1.1,2.1,2.4,2.7,3.8
		c1.7,3.7,0.1,6.6-3.9,7.4c-4.8,1-10.9-2-14-6.7c-5.1-7.8-2.5-20,5.5-24.7c2.1-1.2,5-1.4,7.5-1.4c1.7,0.1,3.4,1.4,2.7,3.7
		c-1.9-0.8-3.6-2.2-5.3-2.1c-2,0.2-4.1,1.3-5.7,2.5c-6.3,5-7.3,16.5-1.8,22.3c1.7,1.7,4.1,3,6.3,3.9c2.4,1,5.4,1.3,6.9-1.2
		c1.5-2.6-0.6-4.8-2.5-6.5c-1.5-1.3-3.2-2.3-4.8-3.5C402.5,512.5,401.5,511.8,400,510.7z"/>
	<path class="st0" d="M338.9,506.2c-0.3-11.6-4.5-22.2-4.3-33.3c0.3-0.1,0.6-0.2,0.9-0.2c0.3,0.5,0.8,0.9,0.9,1.4
		c1.7,11.1,3.3,22.1,4.9,33.2c0.5,3.7,0.7,7.3-3,9.5c-4.2,2.5-8.9,3.1-13.4,1c-3.7-1.7-4.6-6.7-2.4-11.3c1.9-4,6.5-6,10.3-4.2
		C334.8,503.2,336.5,504.7,338.9,506.2z M330.1,517.3c2.2-0.6,4.4-0.9,6.5-1.8c3.1-1.3,3.5-2.7,1.6-5.6c-1.1-1.6-2.4-3.2-3.9-4.5
		c-2.2-2-5.8-2.4-7.7-1.1c-2.4,1.5-3.9,5.7-3.1,8.5C324.3,515.7,326.4,517,330.1,517.3z"/>
	<path class="st0" d="M1121.2,89.5c1.2-1.3,2.4-2.6,3.5-4c5.1-6.3,11.9-8.3,19.5-7.7c1.3,0.1,3.5,1.5,3.5,2.4c0.1,1.4-1,3.3-2.1,4.3
		c-5,4.2-11,5.7-17.4,6.3c-1,0.1-2.1,0.1-3.3,0.2c-0.3,3.1,1.7,4.7,3.8,5.5c7.7,2.9,15.5,3.4,23.3,0.1c0.3-0.1,0.7-0.1,1.1-0.2
		c-0.8,2.6-1.5,3.5-5.1,3.7C1137.4,100.7,1126,103,1121.2,89.5z M1145.8,80.5c-7.3-2.8-18.6,1.9-19.6,7.9
		C1133.4,89.6,1143.3,85.7,1145.8,80.5z"/>
	<path class="st0" d="M362.3,220.9c-5.4,0.9-7.2,3-8.2,8.3c-1.6,8.6-0.3,17,2,25.3c1.8,6.3,4.2,12.4,5.7,18.7
		c1.2,5,1.8,10.2,1.9,15.3c0,4.3-2.3,7.9-6.1,10.2c-2.6,1.5-4.2,0.8-5.1-2.1c4.1,1,6,0.1,8.1-3.9c1.9-3.6,2.2-7.5,1.2-11.3
		c-1.8-7.4-4-14.6-6.1-21.9c-3-9.9-5.3-19.8-3.4-30.3c0.6-3.7,1.9-7,5.1-9.1C358.8,219.1,360.5,218.5,362.3,220.9z"/>
	<path class="st0" d="M1080,463.4c3.1,8.8,6.2,17.1,8.9,25.5c6.1,19,4.5,37-7.2,53.7c-1.3,1.8-1.8,4-3,5.9c-0.5,0.9-1.7,1.4-2.5,2.1
		c-0.3-0.3-0.6-0.6-1-0.8c0.6-1.2,1.1-2.5,1.8-3.6c3.1-5.3,6.5-10.4,9.2-15.9c6-12.6,5.2-25.7,1.4-38.7c-2.2-7.5-5.3-14.8-7.8-22.2
		C1079.2,467.5,1077.8,465.5,1080,463.4z"/>
	<path class="st0" d="M218.4,51.6c1.9,15.7,3.9,31.4,5.8,47.3c-2.6,0.6-5.4,1.3-8.2,1.9c-4,0.8-7.4-0.8-10.2-3.4
		c-2.9-2.8-2.4-7,1-9.2c3.1-2,6.5-2,10-0.8c1.1,0.4,2.1,0.9,4,1.7c-1.1-12.8-3.9-25-3.3-37.4C217.7,51.6,218.1,51.6,218.4,51.6z
		 M221.9,97.6c-0.4-6.5-5.9-10.6-11.7-8.7c-1.6,0.5-3.6,2.2-4,3.7c-0.3,1.2,1.2,3.3,2.5,4.4C212.8,100.4,217.3,98.5,221.9,97.6z"/>
	<path class="st0" d="M214.5,677c-2.1-3.6,1.4-23.9,4.5-27.7c5.1,8,6.1,17.2,9.1,26.8c2.6-9.4,5-17.9,7.3-26.4
		c0.4,0.1,0.9,0.2,1.3,0.2c-0.2,1.5-0.2,2.9-0.5,4.4c-2,7.9-4,15.7-6.1,23.6c-0.3,1.1-1.4,2-2.1,2.9c-0.6-1.1-1.5-2-1.9-3.2
		c-1.6-5.9-3-11.9-4.6-17.8c-0.4-1.6-1.2-3.2-2.4-4.8C216.9,662.2,215.1,669.4,214.5,677z"/>
	<path class="st0" d="M135.2,443.2c-3.9-8.4-10.1-15.7-12.1-25c0.3-0.1,0.6-0.3,0.9-0.4c3.2,6.2,6.4,12.4,9.6,18.6
		c0.4-0.1,0.9-0.3,1.3-0.4c-0.3-3-0.4-5.9-0.9-8.9c-0.8-4.7-2-9.4-2.9-14.1c-0.7-3.7,0-4.8,3.6-5.7c1.8-0.4,3.7-0.8,5.5-0.8
		c8.1-0.1,16.2-0.1,24.3-0.1c1.2,0,2.3,0.4,3.5,0.6c0,0.4-0.1,0.9-0.1,1.3c-1.2,0-2.4,0-3.6,0c-8.1,0-16.2,0.1-24.3,0.2
		c-1.2,0-2.4,0.2-3.6,0.4c-3.6,0.7-3.9,1.2-3.3,4.8c1.2,6.9,2.5,13.9,3.4,20.8c0.4,2.8,0.1,5.6,0.1,8.5
		C136.3,443,135.8,443.1,135.2,443.2z"/>
	<path class="st0" d="M437.3,665.5c-0.3-11.5-4.4-22.2-4.4-33.4c0.3-0.1,0.5-0.2,0.8-0.3c0.3,0.3,0.8,0.6,0.9,1
		c1.8,12,3.6,23.9,5.2,35.9c0.6,4.3-1.3,6.8-5.1,8.3c-5.4,2.1-11,1.3-13.3-1.8c-2.5-3.4-2.1-8.3,1-11.7c2.6-2.9,6.4-3.5,10.2-1.4
		C434,663,435.4,664.2,437.3,665.5z M429.5,676.2c0.7-0.1,2.3-0.3,3.8-0.8c4.9-1.6,5.5-3.3,2.5-7.4c-0.9-1.2-1.9-2.2-3-3.2
		c-2.5-2.2-6-2.6-8-1.1c-2.4,1.7-3.8,5.9-2.9,8.6C422.8,675,424.9,676.2,429.5,676.2z"/>
	<path class="st0" d="M114.9,517.7c-0.6-9.4,3.2-18.1,4.9-27.4c3.6,3.5,4.8,7.9,6.1,12.3c1.3,4.4,2.4,8.9,4.1,13.4
		c2.3-8.5,4.7-17.1,7.2-26.3c1.3,3.1-5.1,29.3-7.7,32.3c-0.7-1.5-1.4-2.6-1.7-3.9c-1.6-6-3.1-12.1-4.7-18.2
		c-0.4-1.5-1.1-2.9-1.7-4.3c-0.4,0-0.8,0-1.2,0c-1.4,7.4-2.8,14.8-4.2,22.3C115.6,517.8,115.2,517.8,114.9,517.7z"/>
	<path class="st0" d="M1173.5,708.9c0.6-1.1,1.1-2.2,1.8-3.3c2.4-3.8,4.9-7.6,7.1-11.5c7.9-14,8-28.7,3.5-43.7
		c-2.3-7.8-5.4-15.3-8.1-22.9c-0.6-1.6-1.6-3.4,0.6-4.7c3,8.6,6.1,16.8,8.8,25.2c6.1,19,4.7,37-7.1,53.6c-1.3,1.9-1.9,4.3-3.2,6.3
		c-0.5,0.8-1.8,1.2-2.7,1.8C1174.1,709.5,1173.8,709.2,1173.5,708.9z"/>
	<path class="st0" d="M694.1,283.4c-5.3-5.9-9.1-12.8-12.3-20.1c3.1,1.3,3.7,4.5,5.4,6.9c1.8,2.6,3.5,5.3,5.2,8
		c0.3-0.1,0.7-0.2,1-0.2c-0.1-1.6-0.1-3.2-0.4-4.8c-0.7-5.1-1.6-10.3-2.1-15.4c-0.4-4,0.8-5.6,4.9-5.7c9.7-0.4,19.4-0.3,29.2-0.4
		c0.3,0,0.6,0.4,1.7,1.2c-2.2,0.3-3.6,0.6-5.1,0.7c-7.3,0.1-14.7,0-22,0.2c-6.7,0.1-7.3,0.8-6.4,7.6c0.7,5.7,1.7,11.3,2.5,17
		c0.2,1.6,0,3.3,0,4.9C695.1,283.2,694.6,283.3,694.1,283.4z"/>
	<path class="st0" d="M1045.6,400c-2.4,0.7-4.7,1.8-7.1,2c-4.4,0.3-8.8,0.2-13.2,0.1c-2.2-0.1-4.1,0-4.5,3.1
		c-2.3-1.6-2.8-3.5-2.2-5.5c2-7.2,4.1-14.3,6.3-21.4c0.4-1.3,1.7-2.2,3-3.8c1.3,1.4,2.6,2.5,3.6,3.8c3.6,4.6,7.4,9.1,10.7,13.9
		c1.6,2.3,2.3,5.3,3.4,7.9V400z M1044.1,399.4c-4.6-9-11-15.2-16-22.4c-0.3,0.1-0.7,0.2-1,0.4c-2.2,7.3-4.3,14.6-6.7,22.6
		C1028.5,400,1035.8,400.6,1044.1,399.4z"/>
	<path class="st0" d="M734.4,57.4c-0.3,0.5-0.4,1.2-0.8,1.6c-3.8,3.7-4.9,8.3-5,13.4c-0.2,11,2.3,21.7,4.6,32.3
		c1.1,5.1,2.4,10.2,2.8,15.3c0.3,3.7-0.4,7.7-1.3,11.4c-0.5,1.9-2.1,3.7-3.7,5c-1.3,1.1-3.2,1.2-4.1-1.5c4.2,0.6,5.4-2.1,6.4-5.1
		c1.6-4.9,1.2-9.7,0.3-14.6c-2-9.9-4.3-19.8-5.9-29.7c-0.9-5.2-0.9-10.6-0.7-15.9c0.2-5.2,2.3-9.6,6.6-12.7
		C733.7,57,734,57.2,734.4,57.4z"/>
	<path class="st0" d="M967.5,638.9c0.9-0.4,1.7-1,2.6-1.2c6.2-1,12.3-2.2,18.5-2.7c8-0.6,11.3,2.3,12.3,10.2
		c0.5,4.1,0.3,8.2,0.4,12.4c0,7.6,0,15.2,0,22.8c0,1.4-0.2,2.8-0.3,4.1c-0.4,0-0.8,0.1-1.2,0.1c-0.1-1.3-0.4-2.6-0.4-3.8
		c0-10.4,0.1-20.8,0-31.2c-0.1-11.2-2.5-13.4-13.7-12.4c-4.6,0.4-9.2,1.4-13.8,2.1c-1.3,0.2-2.6,0.4-3.8,0.6
		C967.8,639.6,967.7,639.3,967.5,638.9z"/>
	<path class="st0" d="M239.5,149.2c-2.7-4.7-3.8-9.4-3.4-14.1c0.4-5.3,1.5-10.5,2.7-15.6c1-4.1,2.8-8,3.9-12.1
		c1.1-3.9,0-5.2-3.8-5.7c-7.8-0.9-7.9-1.3-3.8-7.9c1.3-2,2.1-4.3,3.2-6.7c-3.8-0.9-3.8-0.9-8.9,1.3c0.4-2.4,0.9-3.2,3.9-3.6
		c1.9-0.3,4.6-0.2,5.8,1c0.9,0.8,0.3,3.7-0.4,5.4c-1,2.5-2.7,4.8-4.5,7.9c1.9,0.3,3.2,0.5,4.5,0.6c5.5,0.6,7.3,2.9,5.9,8.3
		c-0.8,3.1-1.9,6.1-3.1,9.1c-3.8,9.7-5.2,19.5-1.5,29.6c0.1,0.4,0.2,0.8,0.2,1.2C240.3,148.1,240,148.3,239.5,149.2z"/>
	<path class="st0" d="M901.2,525.3c-0.1-1.4-0.3-2.8-0.3-4.2c0-9.4,0-18.9,0-28.3c0-2.5-0.1-5.1-0.5-7.5c-1-5.8-3-7.7-8.9-7.4
		c-6,0.3-11.9,1.4-17.8,2.2c-1.4,0.2-2.8,0.5-4.2,0.7c-0.1-0.3-0.3-0.6-0.4-0.9c0.7-0.4,1.4-1.2,2.2-1.3c6.4-1,12.9-2.2,19.3-2.7
		c7.5-0.5,10.5,2,11.7,9.4c0.4,2.3,0.4,4.8,0.4,7.2c0,9.6,0,19.2,0,28.7c0,1.4-0.2,2.8-0.3,4.1C902.1,525.4,901.6,525.3,901.2,525.3
		z"/>
	<path class="st0" d="M409.4,276.5c3.6-0.6,6.7-1.3,9.7-1.6c2.6-0.2,3.9,1.4,3.3,4.2c-0.6,2.6-1.8,5-2.7,7.5c-1,2.7-2.1,5.3-3.2,8.2
		c1.1,0.5,1.7,0.8,2.3,0.9c5,0.9,6.2,2.2,6.2,7.4c0.1,7.9-0.2,15.7,0.2,23.5c0.4,6.5,1.6,12.9,2.4,19.3c0.1,0.7,0.1,1.5,0.2,2.2
		c-0.3,0.1-0.6,0.2-0.9,0.3c-0.5-0.9-1.2-1.8-1.3-2.7c-0.9-5-2-9.9-2.2-15c-0.4-8.1-0.2-16.2-0.3-24.3c0-1.9-0.1-3.7-0.3-5.6
		c-0.2-1.9-1.3-2.9-3.4-3.2c-4.8-0.7-5.5-1.9-3.8-6.3c1.1-3.1,2.8-6.1,3.9-9.2c0.5-1.4,0.5-3.1,0.8-4.6c-1.5-0.1-3-0.2-4.5-0.2
		C413.8,277.4,411.8,278.8,409.4,276.5z"/>
	<path class="st0" d="M607.6,259.5c1.3,7.2,2.5,14.4,3.8,21.6c0.4,0,0.8,0.1,1.2,0.1c0.9-1.4,1.6-2.9,2.6-4.2
		c0.9-1.3,1.9-2.4,2.9-3.6c1.1,1.1,2.1,2.2,3.2,3.3c1.3,1.5,2.4,3.2,3.9,4.4c2.6,2,5,1.5,6-1.6c2.3-6.9,0.9-13.6-1.9-20.1
		c-0.4-0.8-1.5-1.3-2.5-2c1.3-2.1,2.6-1.2,3.5-0.1c0.9,1.3,1.8,2.8,2,4.3c0.8,4.8,1.6,9.7,1.7,14.5c0.1,4.1-2.3,7.4-4.9,7.9
		c-3.9,0.7-6.2-1.7-8.3-4.4c-0.8-1-1.4-2.1-2.4-3.6c-1.6,2.4-2.9,4.5-4.4,6.4c-1.7,2-3.6,1.7-4.1-0.8c-1.4-7-2.4-14.1-3.5-21.2
		c0-0.3,0.3-0.6,0.5-1C607.2,259.5,607.4,259.5,607.6,259.5z"/>
	<path class="st0" d="M161.9,388c-4.5-6.6-7.6-13.7-10.1-21.1c0.4-0.2,0.8-0.4,1.2-0.6c1.6,3.3,3.2,6.5,5.1,10.4
		c-0.6-5-1.3-9.3-1.7-13.7c-0.3-3.8,1.1-5.6,4.9-5.9c7.7-0.7,15.4-1.1,23.1-1.6c0.6,0,1.1,0.4,1.7,0.6c0,0.3,0,0.6,0,0.8
		c-0.9,0.2-1.7,0.5-2.6,0.6c-6.9,0.5-13.8,0.8-20.7,1.4c-4.2,0.4-4.9,1.2-4.3,5.4c0.7,5.1,1.9,10.2,3,15.2
		C162,382.2,163.4,384.9,161.9,388z"/>
	<path class="st0" d="M290,681.7c-0.1-1.5-0.4-3-0.4-4.5c-0.2-5.9-0.2-11.7-0.5-17.6c-0.1-1.7-0.9-3.4-1.5-5.4
		c5.1-6.2,18.1-5.9,23.2,1c2.7,3.6,2.5,6.6-0.9,9.5c-3.1,2.6-6.9,3.6-10.8,3.1c-3.3-0.4-4.6-3-2.7-6.1c0.7,2.6,1.7,4.6,4.7,4.2
		c3.7-0.5,7.2-1.5,9-4.9c0.6-1.1,0.1-3.2-0.7-4.4c-3.6-5.8-12.7-5.7-17.4-3.4c-0.8,0.4-1.2,2.3-1.2,3.4c0.3,7.7,0.7,15.4,1.1,23.1
		c0,0.7-0.5,1.3-0.8,2C290.8,681.8,290.4,681.7,290,681.7z"/>
	<path class="st0" d="M143.9,417.2c5-1.1,10.1-1.5,14.9,0.7c2.3,1,1.9,3,0.6,4.7c-1.8,2.3-3.7,4.4-6.3,7.5c4.2,0,7.5,0,10.7,0
		c0,0.5,0,1,0,1.6c-2.9,0.1-5.8,0.3-8.7,0.4c-4.8,0.2-6.4,1.7-7.4,7.6c5.6,0,11.1,0,16.6,0c0,0.5,0,0.9,0,1.4
		c-2.4,0.2-4.8,0.5-7.2,0.6c-2.7,0.1-5.3,0.2-8,0.1c-3.3-0.1-4.3-1.5-3.2-4.7c0.5-1.3,1.1-2.6,1.8-4.2c-1.8-0.3-3.3-0.5-5.5-0.9
		c3.2-2.7,7.4-0.4,9.7-3.8c1.9-2.8,4.4-5.2,6.8-7.9C153.9,417,148.5,419.4,143.9,417.2z"/>
	<path class="st0" d="M191.6,522.5c-0.1-1.4-0.4-2.7-0.4-4.1c-0.2-6-0.2-12-0.5-18c-0.1-1.7-0.9-3.4-1.4-5.4
		c5.3-6.2,17.8-5.9,23.2,1c2.5,3.2,2.5,6.5-0.6,9.2s-7,3.9-11.1,3.4c-3.4-0.4-4.6-3-3-5.6c0.9,1.1,1.6,3,2.7,3.3
		c1.8,0.4,4,0.2,5.8-0.4c2.7-0.9,5.9-2,5.9-5.6c0-3.3-2.6-5.2-5.3-6.4c-3.8-1.7-7.7-1.7-11.7-0.5c-1.9,0.6-2.8,1.6-2.7,3.8
		c0.5,7.7,0.8,15.4,1.2,23.1c0,0.8-0.5,1.6-0.7,2.4C192.4,522.6,192,522.6,191.6,522.5z"/>
	<path class="st0" d="M617.7,515.7c1.6-0.2,3.1-0.6,4.7-0.4c2.8,0.2,4.9-0.6,6.5-2.9c1.2-1.8,2.7-3.3,3.8-5.1c2-3.2,1.2-5-2.5-5.6
		c-2.9-0.5-5.8-0.4-8.7-0.6c-0.9-0.1-1.8-0.2-3.5-0.5c4.3-2.4,14-1.6,16.5,0.8c1.6,1.5,1.6,3.4,0.6,5.1c-1.6,2.7-3.4,5.3-5.4,8.4
		c3.4,0.2,6.6,0.4,9.7,0.7c0,0.5,0,0.9,0,1.4c-3,0.1-6.1,0.4-9.1,0.2c-2.7-0.2-4.2,1-5.3,3.3c-1.4,3-0.7,4.7,2.6,5.2
		c2.2,0.3,4.5,0,6.8,0c1.1,0,2.2,0,3.8,0c-3.7,3-12,3-14.4,0.2c-0.9-1-1.1-2.9-1.1-4.3c0-1.2,0.7-2.5,1.2-3.9
		c-2.3-0.3-4.2-0.5-6.2-0.7C617.7,516.5,617.7,516.1,617.7,515.7z"/>
	<path class="st0" d="M1294.6,82.1c0,4.5,1.5,6.8,5.5,8.1c5.1,1.6,10.3,2.7,15.4-0.3c0.7-0.4,1.6-0.4,3.4-0.7
		c-2.4,2.9-5,4.3-7.7,4.2c-4.1-0.1-8.2-0.5-12.1-1.5c-3.7-1-6.1-3.8-6.6-7.7c-0.5-4,1.5-7,4.5-9.2c3.6-2.7,7.7-4.2,12.3-3.7
		c2.3,0.2,4.2,1.1,4.7,3.6c0.6,2.7-0.9,4.7-3.1,5.4c-3.4,1-7,1.4-10.5,1.8C1298.6,82.2,1296.7,82.1,1294.6,82.1z M1295.2,79.4
		c5.5,1.2,9.9,1,14.1-0.6c1.2-0.4,1.8-2.2,2.7-3.4c-1.2-0.7-2.5-2.1-3.8-2.1C1303.3,72.9,1299.2,75,1295.2,79.4z"/>
	<path class="st0" d="M413.2,390.2c-2.6-0.4-4.6-0.7-6.5-1.1c0-0.4,0-0.7,0-1.1c1.7-0.1,3.4-0.3,5.1-0.3c3.6,0,5.4-1.3,6.3-4.7
		c0.7-2.8-0.1-4.1-3-4.4c-2.1-0.2-4.2,0.1-6.4,0.3c-1.1,0.1-2.2,0.3-3.6-0.3c0.5-0.4,1-1.1,1.6-1.2c2.8-0.4,5.6-0.9,8.3-0.7
		c4.6,0.2,6.3,3,4.8,7.5c-0.4,1.1-0.9,2.2-1.5,3.6c3.9,0.5,7.5,1,11,1.5c0,0.4,0,0.8,0,1.1c-0.8,0.1-1.6,0.4-2.4,0.4
		c-1.6-0.1-3.2-0.4-4.8-0.5c-6.3-0.5-10.9,3.2-12.6,9.9c4.3,2.7,9.2,1,13.8,1.1c0.3,0.4,0.6,0.8,0.9,1.2c-0.6,0.2-1.2,0.5-1.9,0.5
		c-4,0-8,0.4-11.9-0.1c-3.3-0.4-4-2.6-2.3-5.6C409.6,395.1,411.2,393,413.2,390.2z"/>
	<path class="st0" d="M194.5,385.5c-1,0.4-1.9,1.1-2.9,1.1c-3.8,0.3-7.7,0.5-11.5,0.4c-3.7-0.1-4.3-1.7-2.2-4.9
		c0.4-0.7,0.9-1.3,1.4-1.9s0.9-1.2,1.6-2.3c-2-0.4-3.7-0.7-5.3-1c0-0.3,0-0.7,0-1c1.7-0.2,3.5-0.4,5.2-0.6c3.1-0.3,5.5-3.5,4.9-6.4
		c-0.4-2.4-2.5-2.8-4.3-2.7c-3.9,0.3-7.7,1.1-12.2,1.8c0.8-0.9,1.4-2.1,2.3-2.3c3.5-0.7,7.1-1.5,10.6-1.5c4.8,0.1,6.5,2.9,5.2,7.6
		c-0.2,0.8-0.5,1.5-0.8,2.6c1.8,0.4,3.5,0.8,5.2,1.2c0.1,0.3,0.2,0.7,0.4,1c-6.1-0.3-10.6,1.8-13.1,8c5.1,0.9,10.1,0.3,15.1-0.4
		C194.2,384.8,194.4,385.1,194.5,385.5z"/>
	<path class="st0" d="M530.5,84.2c0-12.1,0-23.5,0-34.8c0.4,0,0.7-0.1,1.1-0.1c0.2,1.3,0.5,2.6,0.5,3.9c0.1,8.8,0.2,17.6,0.4,26.3
		c0,2.2,0.5,4.4,0.8,7c-3.7,2.9-7.8,5.7-13.4,4.4c-3.7-0.9-5.9-5-4.6-8.7c1-3.1,4.2-4.4,7.9-2.7C525.5,80.4,527.5,82.2,530.5,84.2z
		 M528.7,87.7c0.1-0.5,0.1-1,0.2-1.6c-1.8-1.5-3.4-3.4-5.5-4.4c-1.6-0.7-3.8-0.7-5.5-0.2c-0.6,0.2-0.8,2.8-0.7,4.3
		c0.3,2.4,2.2,3.4,4.3,3.2C524,88.9,526.4,88.2,528.7,87.7z"/>
	<path class="st0" d="M728.3,674.2c3.4,0.2,6.4,0.3,9.4,0.4c0,0.3,0.1,0.6,0.1,1c-0.7,0.3-1.4,0.7-2.2,0.7c-2.5,0.1-5.1-0.2-7.6,0.2
		c-1.4,0.2-3,1-3.8,2.1c-2.7,3.6-1.5,5.9,3,6.3c1.7,0.2,3.4-0.1,5.2-0.1c1.2,0,2.5,0,4.2,0c-3.5,2.7-11.8,3-14.1,0.4
		c-1-1.1-1.3-3-1.4-4.6c-0.1-1.1,0.7-2.2,1.3-3.9c-2.2-0.3-4.2-0.5-6.2-0.7c-0.1-0.3-0.1-0.6-0.2-0.9c0.9-0.2,1.9-0.8,2.8-0.6
		c7.2,1.2,9.7-4.3,12.6-8.9c1.5-2.4,0.7-4-2.2-4.6c-2.8-0.6-5.8-0.6-8.7-0.8c-1.1-0.1-2.2-0.2-3.3-0.3c0-0.3-0.1-0.7-0.1-1
		c0.9-0.2,1.8-0.7,2.7-0.7c3.6,0.2,7.2,0.2,10.7,1c3.6,0.8,4.6,3.3,2.9,6.7c-1,2-2.5,3.8-3.7,5.6
		C729.2,672.4,728.8,673.2,728.3,674.2z"/>
	<path class="st0" d="M155.6,176.2c0,11.7,0,23.4,0,35.1c-0.3,0-0.6,0-1,0.1c-0.2-0.6-0.6-1.1-0.6-1.7c-0.1-11.8-0.1-23.6,0-35.4
		c0-2.1,0.5-4.3,1.4-6.1c0.6-1.1,2.4-2.2,3.7-2.3c1,0,2.8,1.4,3,2.5c0.6,2.9,0.8,6,0.6,9c-0.1,1.1-1.6,2.1-2.4,3.1
		c-0.9-0.8-1.9-1.6-2.7-2.5c-0.5-0.5-0.8-1.3-1.1-1.9C156.2,176,155.9,176.1,155.6,176.2z M159.4,177.4c0.4-0.1,0.7-0.1,1.1-0.2
		c1.8-5.2,0.6-9.2-2.9-8.7C158.2,171.5,158.8,174.4,159.4,177.4z"/>
	<path class="st0" d="M482.1,169.4c-3.8-2-6.4-5.3-8.3-9.2c-2.1-4.2-2.5-8.7-1.5-13.2c1-4.2,2.2-8.4,3.5-12.9
		c-1.2,0.1-2.1,0.1-3,0.2c-4.7,0.7-5.5-0.4-4-5c0.7-1.9,1.3-3.8,1.9-5.6c0.1-0.2-0.1-0.5-0.3-0.8c-2.6,0.3-5.2,0.5-7.8,0.8
		c-0.1-0.4-0.1-0.9-0.2-1.3c3.5-0.8,7-1.6,10.5-2.4c0.3,0.2,0.6,0.5,0.8,0.7c-1.3,3.8-2.5,7.5-3.9,11.8c1.7-0.2,2.7-0.2,3.7-0.4
		c4.3-0.7,5.1,0.1,3.7,4.4c-0.6,2-1.4,4-2.1,6c-3.1,9.5-1.8,17.8,6.3,24.4c0.5,0.4,0.8,1.2,1.2,1.7
		C482.7,168.9,482.4,169.2,482.1,169.4z"/>
	<path class="st0" d="M507.8,387.7c0-7.1,0-13.3,0-19.5c-0.2-0.1-0.5-0.2-0.7-0.4c-1.9,2.2-3.8,4.4-5.7,6.6
		c-0.3-0.2-0.6-0.5-0.9-0.7c2.7-4.6,5.4-9.2,8.1-13.8c0.3,0.1,0.6,0.1,0.9,0.2c0.1,1.4,0.2,2.7,0.2,4.1c0.1,6.5,0,13.1,0.2,19.6
		c0.2,4.2,0.4,4.2,4.5,4.2c4.7,0,9.4,0,14.1,0c0,0.4,0.1,0.8,0.1,1.3c-1,0.2-2,0.6-3,0.7c-18.5,0.8-30.6,0.2-34.6-2.2
		C497.1,387.7,502.5,387.7,507.8,387.7z"/>
	<path class="st0" d="M341.4,323c-4.6-2.5-5.4-5.3-3.2-8.4c3.8-5.3,11.7-5,15.2,0.6c3.3,5.3,3,14.9-0.9,19.7c-0.9,1.1-2.5,2-3.8,2
		c-0.7,0-1.9-2.2-1.9-3.4c-0.1-4.6,0.1-9.3,0.3-14c0-0.8,0.6-1.7,0.9-2.5c0.3,0,0.6,0,0.9,0c0,5.8,0,11.7,0,18.4
		c1.4-1.1,2.1-1.5,2.5-2.1c3.1-5.5,3.4-11.2,0.6-16.8c-2-3.9-6.3-4.9-9.9-2.7c-2.9,1.7-3.4,3.6-1.8,6.6
		C340.4,320.9,340.7,321.5,341.4,323z"/>
	<path class="st0" d="M149,153.9c-3.8-5.6-8.5-5.8-12.5,0c-1.7,2.4-2.5,5.5-3.1,8.5c-0.6,2.7,0.8,5,3.3,6.2c2.6,1.2,5.5,1.4,8.1-0.1
		c2-1.2,1.6-2.6-0.1-3.7c-1.5-1-3-1.8-4.7-2.8c3.7-3,9.5-3.4,13.3-0.9c-3,0.2-5.4,0.4-7.8,0.5c0.1,0.6,0,0.9,0.1,1
		c1.4,1.6,3.7,3.2,2.2,5.4c-1.1,1.6-3.5,2.9-5.5,3.3c-7.2,1.2-11.9-3.7-10.7-10.9c0.9-5.3,3.5-9.5,8.4-11.9c3.3-1.7,7.1-0.9,8.9,1.9
		c0.6,0.9,0.7,2.2,1.1,3.3C149.7,153.8,149.4,153.8,149,153.9z"/>
	<path class="st0" d="M881.6,657.7c3.2-2.1,8.3-2,10.6-0.1c3.4,2.7,2.3,6.1,1.1,10c2.6,0.2,4.8,0.3,7,0.4c0,0.4,0.1,0.8,0.1,1.2
		c-1.8,0.2-3.6,0.5-5.4,0.6c-3.3,0.2-9.5,6.2-9.3,9.5c0,0.8,1.3,2.1,2.2,2.2c2.2,0.3,4.5,0.1,6.7,0.1c1.1,0,2.2-0.3,4.2-0.6
		c-2,2.9-4.4,2.7-6.4,2.8c-3,0.1-6.6,0.7-8.3-2.4c-1.7-3.1,1-5.4,2.5-7.8c0.6-0.9,1.1-1.7,2-3.2c-1.9-0.2-3.3-0.2-4.7-0.4
		c-1.3-0.1-2.5-0.3-3.7-0.8c2.2-1.9,4.7-1.2,7-1.1c2.7,0.1,4.2-1,5-3.5c1.1-3.5-0.2-5.7-3.9-6.3
		C886.3,657.9,884.3,657.9,881.6,657.7z"/>
	<path class="st0" d="M784,497.6c8.4-3.2,12.9,0.9,11.4,10.9c2.2,0,4.4,0,7.1,0c-1.5,2.6-3.5,2-5.1,2.1c-4,0.3-9.7,5.4-9.9,9.2
		c0,0.8,1.2,2.2,1.9,2.3c2.3,0.3,4.7,0.2,7.1,0.1c1.1,0,2.2-0.3,4-0.5c-3.6,3.1-10.8,3.7-13.6,1.7c-1.8-1.3-2.3-2.9-1.2-4.9
		c1.3-2.3,2.7-4.5,4.4-7.5c-3.1-0.3-5.8-0.5-8.5-0.8c0-0.3,0-0.7,0-1c2.3-1.4,5-0.5,7.5-0.5c2.6,0,3.9-1.1,4.7-3.4
		c1.2-3.7-0.2-6-4.1-6.5c-1.9-0.2-3.8-0.3-5.7-0.4C784,498.2,784,497.9,784,497.6z"/>
	<path class="st0" d="M411,151.6c-0.2,3.9-0.5,7.8-0.7,12.1c4.7-2.9,6.8-9.2,5.4-15c-1-4.4-3.8-7.1-8.3-7.2c-2-0.1-4.2,0.6-6,1.5
		c-3.5,1.9-3.8,3.6-1.7,7.1c0.5,0.9,1.1,1.7,1.7,2.8c-4.3-1-6.4-6.1-4.1-9.1c2.7-3.6,6.5-5.1,10.9-4.3c4.2,0.7,7.7,2.8,9,7.4
		c1.9,6.6,0.5,12.4-3.8,17.5c-0.8,0.9-2.4,1.2-3.7,1.7c-0.5-1.2-1.3-2.3-1.3-3.5c-0.1-3.7-0.1-7.5,1.5-11
		C410.3,151.6,410.7,151.6,411,151.6z"/>
	<path class="st0" d="M843.1,55.8c0.2,0.6,0.5,1.1,0.5,1.7c-0.9,11.3,0.6,22.3,2.5,33.4c0.6,3.7,0,4.5-3.7,4.7
		c-3.4,0.1-6.8-0.4-9.1-3.2c-1-1.2-1.7-3.5-1.2-4.9c0.4-1.1,2.7-2.2,4.1-2.2c2.2-0.1,4.4,0.8,6.9,1.4c-0.5-5.3-1-10.5-1.4-15.7
		c-0.3-5-1.2-10.1,0.5-15C842.5,55.8,842.8,55.8,843.1,55.8z M843.9,92.9c-1.3-4-4.7-6.3-8.1-5.8c-2.3,0.3-2.9,1.6-1.5,3.6
		C836.1,93.1,839.8,94,843.9,92.9z"/>
	<path class="st0" d="M713.9,158.4c-0.8,4.7-1.5,9.4-2.3,14.1c0.3,0.2,0.7,0.3,1,0.5c0.7-0.4,1.6-0.7,2.1-1.2c3.9-4,5.1-11.1,2.8-16
		c-1.8-3.9-5.7-5.4-9.6-3.9c-3.8,1.5-5.4,5-4.1,9.1c0.4,1.2,0.7,2.3,1.3,4.2c-3.8-3-4.6-7-2.9-10.7c1.7-3.6,6.1-5.8,10.4-5
		c2.8,0.5,4.8,2.1,6.3,4.5c3.4,5.8,1.8,15.5-3.4,19.8c-1,0.8-2.8,1.6-3.8,1.2c-0.9-0.4-1.7-2.3-1.6-3.6c0.1-4.6,0.7-9.1,2.9-13.2
		C713.2,158.2,713.6,158.3,713.9,158.4z"/>
	<path class="st0" d="M541.3,377.7c4.3-0.9,8.1-0.9,11.7,0.7c3.1,1.3,4.1,3.8,3.1,7.3c-0.5,1.8-1.3,3.5-2,5.5c1.1,0.1,2,0.2,2.9,0.3
		c0.8,0.1,1.6,0.4,2.6,1.1c-5.4,0.6-10.5,1.3-11.6,8.2c4.2,2.2,9,0.8,13.6,2.1c-0.7,0.3-1.4,1-2.1,1c-3.2,0-6.4,0.1-9.5-0.3
		c-4.2-0.5-5.1-2.6-3-6.4c0.5-0.9,0.9-1.8,1.5-3c-1.9-0.3-3.5-0.5-5-0.8c0-0.4,0-0.8,0-1.1c1.5-0.2,3-0.3,4.4-0.5
		c3.4-0.3,6.6-4.3,6.4-8.2c-0.1-2.7-1.9-4-6.1-4.3c-2-0.2-4-0.2-5.9-0.4C542.2,378.8,542.1,378.5,541.3,377.7z"/>
	<path class="st0" d="M370.9,311.3c-8.9,2.1-10.3,15.5-6,20.5c0.6,0.7,1.4,1.5,2.2,1.6c1.6,0.2,3.2,0,4.8-0.1
		c-0.3-1.4-0.3-3-0.9-4.3c-0.5-1.2-1.7-2-2.5-3.1c-1.4-1.8-1.1-3.4,1-4.2c4.4-1.6,9-2.4,13.7-1.2c0.4,0.1,0.7,0.3,0.8,1.1
		c-4.6,0.5-9.1,0.9-14.7,1.5c1.8,2.3,2.9,3.7,3.9,5.2c1.5,2,2.1,4.2,0.4,6.2c-1.6,1.9-3.9,1.9-6.2,1.1c-3.9-1.4-5.5-4.6-6.3-8.1
		c-1.3-5.8,0.2-11.1,4.1-15.5C366.4,310.6,368.1,309,370.9,311.3z"/>
	<path class="st0" d="M718.7,263.2c-2.5,0-5,0-7.4,0c-2.3,0-4.7,0-7,0c0-0.3-0.1-0.7-0.1-1c0.6-0.3,1.2-0.8,1.8-0.8
		c4.1-0.1,8.3-0.2,12.4,0c3.2,0.1,3.9,1.6,2.2,4.5c-1.4,2.3-3.1,4.5-5.1,7.4c2.2,0.2,3.6,0.3,5,0.4c1.2,0.2,2.4,0.4,3.5,0.6
		c0,0.4-0.1,0.8-0.1,1.2c-2.1,0-4.3,0-6.4,0c-4.7,0-5.4,0.6-6.5,5.8c4.5,2.7,9.1-0.1,14.1-0.3c-3.3,3.3-11.9,4.6-14.7,2.3
		c-0.9-0.7-1.2-2.5-1.2-3.8c0-1.1,0.7-2.2,1.3-3.5c-1.8-0.4-3.4-0.7-5.6-1.1c3.5-1.3,6.7-1.7,9-3.4c2.3-1.7,3.7-4.7,5.6-7.1
		C719.1,264,718.9,263.6,718.7,263.2z"/>
	<path class="st0" d="M119.1,366c0.8,3.5,1.4,6.6,2.3,10.4c0.9-1.3,1.5-2.1,2-2.9c1.4-2.1,2.6-4.4,4.2-6.3c0.9-1.1,2.6-1.4,4-2.1
		c0.6,1.3,1.4,2.5,1.7,3.8c0.4,1.9,0.3,4,0.6,5.9c0.9,5.5,3.1,6.9,8.7,5.5c1-0.2,2-0.3,3.3-0.5c-3.2,4.2-10.1,4.1-12.2,0
		c-1.2-2.4-1.5-5.3-2.1-8c-0.3-1.4-0.3-2.8-0.9-4.3c-5.4,4.2-7.1,10.6-9.6,16.5C119.2,381.9,117.6,368.7,119.1,366z"/>
	<path class="st0" d="M766.8,443.3c-2.1-4.2-0.5-8.1,3.5-9.3c4.1-1.2,8.5,0.6,11.2,4.9c3.4,5.5,3.9,11.3,0.8,17
		c-0.8,1.4-2.2,2.7-3.6,3.5c-2.1,1.1-4.2,0.5-4.6-2c-0.9-6.2-0.2-12.4,2.2-18.3c0.1-0.1,0.5-0.2,1.3-0.4c-0.2,1.3-0.4,2.3-0.5,3.4
		c-0.5,4.1-1.1,8.2-1.4,12.3c-0.1,1.1,0.8,2.3,1.3,3.4c1-0.6,2.3-0.9,3-1.7c4.5-5.3,2.3-16.4-3.9-19.6c-4.3-2.3-7.8-0.5-8.6,4.5
		C767.4,441.7,767.1,442.4,766.8,443.3z"/>
	<path class="st0" d="M741.8,202c0-11.3,0-22.5,0-33.8c0-1,0.4-2.1,0.9-3.1c0.9-1.9,2.4-3.6,4.6-3c1.5,0.5,2.8,2.1,4,3.2
		c0.3,0.3,0.5,1,0.4,1.5c-0.4,1.8-0.4,4.8-1.5,5.2c-2.4,1.1-2.9-1.8-3.9-3.4c-0.5-0.8-0.7-1.7-1.8-2.6c-0.4,1.5-1,3.1-1,4.6
		c-0.1,8.6,0,17.3,0,25.9c0,1.9-0.3,3.7-0.5,5.6C742.7,202.1,742.3,202,741.8,202z"/>
	<path class="st0" d="M288.4,227.2c0.1,2.2,0.3,4.4,0.4,6.5c0.1,2.2,0,4.4,0,6.6c0.3,0,0.6,0.1,0.9,0.1c2.6-3.6,5.2-7.2,7.8-10.8
		c0.4,0.2,0.8,0.3,1.2,0.5c0.2,1.4,0.4,2.7,0.5,4.1c0.2,2.2,0.2,4.5,0.7,6.7c0.5,2.3,2.1,3.9,4.7,4.3c2.6,0.4,3.9-1,4.8-3.2
		c0.2-0.5,0.7-1,1.4-2c0.8,3.5-0.6,5.4-2.8,6.7c-2.1,1.3-6.6,0.4-8-1.7c-1.2-1.9-1.9-4.3-2.6-6.5c-0.3-1.1-0.2-2.3-0.4-4
		c-4.6,3.5-5.2,9.1-8.5,12.8c-0.4-0.1-0.7-0.2-1.1-0.3c0-6.6,0-13.1,0-19.7C287.7,227.2,288.1,227.2,288.4,227.2z"/>
	<path class="st0" d="M76.5,92.1c-1.6,0-3.1,0-4.7,0c-0.2,0-0.5,0.2-0.6,0.3c0,7,0,14,0,20.9c-0.3,0-0.6,0.1-0.9,0.1
		c-2.5-6.7-0.5-13.8-1.3-20.7c-3.7-0.4-3.9-0.4-4,3.2c-0.2,3.9-0.2,7.7-0.3,11.6c0,1.1-0.3,2.2-0.4,3.3c-0.4,0-0.7,0-1.1,0
		c0-5.8,0-11.6,0-17.8c-3,0-5.4,0-8.1,0c2.4-2.2,9.1-3.2,18.2-3c1.2,0,2.5,0.7,3.7,1C76.8,91.4,76.7,91.7,76.5,92.1z"/>
	<path class="st0" d="M1037,635.4c-0.7,2-1.1,3.3-1.7,4.6c-4.5,10.1-6.3,20.6-4.3,31.5c1.2,6.8,3.4,13.2,10.8,16.6
		c-2.3,1.6-3.8,0.3-5.1-0.7c-4-3.3-5.9-7.9-7-12.7c-3.2-13.5-1-26.4,5.4-38.6C1035.2,636,1035.6,635.9,1037,635.4z"/>
	<path class="st0" d="M274.2,256.3c6.4-3.3,54.8-1.1,59.5,2.6C314,256.1,294.1,256.9,274.2,256.3z"/>
	<path class="st0" d="M1206.1,67.4c-2.6,2.6-7.9,3.3-11,1.8c-2.5-1.1-3.5-3.7-3.1-7.5c0.2-1.8,0.5-3.7,0.7-5.5
		c0-0.1-0.1-0.2-0.4-0.7c-1.2,0-2.6,0-4.1,0c-0.1-0.3-0.1-0.5-0.2-0.8c0.7-0.4,1.4-1.1,2.1-1.1c3.6,0.1,4-2.2,4.2-4.9
		c0.1-2,0.4-4.1,0.9-6.1c2.5,3,0.5,6.5,1.1,10.5c4.7,0,9.3,0,14,0c0,0.5,0,0.9,0,1.4c-1.2,0.1-2.4,0.3-3.6,0.3c-1.5,0.1-2.9,0-4.4,0
		c-7.4,0-8.3,1-8.3,8.4c0,3.1,1.1,4.5,4.2,4.6C1200.5,67.9,1203,67.6,1206.1,67.4z"/>
	<path class="st0" d="M938.2,477.1c-0.5,1.3-0.8,2.6-1.4,3.8c-4.3,9.6-6.1,19.6-4.5,30c1.2,7.3,3.2,14.3,10.7,18.1
		c-0.1,0.3-0.2,0.5-0.3,0.8c-0.9-0.1-1.8,0-2.6-0.3c-3.8-1.9-5.8-5.4-7.3-9.2c-5-12.9-3.6-25.6,1.3-38.2c0.7-1.9,1.8-3.7,2.7-5.5
		C937.4,476.8,937.8,476.9,938.2,477.1z"/>
	<path class="st0" d="M1185.6,137c2.4,0.1,4.4,0.2,6.4,0.3c0.1,0.4,0.1,0.8,0.2,1.2c-1.6,0.2-3.2,0.6-4.9,0.7
		c-4.6,0.2-6.8,2.5-7.3,7.8c3.2,0,6.4,0,9.5,0c0,0.4,0,0.7,0.1,1.1c-3.3,1.1-6.7,1.4-10.1,0.7c-2.3-0.5-2.1-2.5-1.4-4.2
		c0.6-1.6,1.5-3,2.4-4.8c-2.2-0.5-4-0.9-5.8-1.3c0-0.4,0-0.8,0-1.2c1.5,0,3.1,0,4.6,0c3.8,0.1,7.9-6.1,5.9-9.3
		c-0.7-1-2.6-1.5-4.1-1.7c-1.4-0.2-2.9,0.2-4.9,0.4c2.6-2.6,6.6-3.4,9-1.7C1189.9,128.4,1186.4,132.5,1185.6,137z"/>
	<path class="st0" d="M1288,132.6c0.7-1,1.1-2.6,2-2.9c3-1,6.1-2,9.2-2.1c4.1-0.2,5.9,2.8,4,6.4c-1.6,3-4,5.6-6,8.4
		c-1.1,1.6-2.3,3.1-3.4,4.7c0.1,0.4,0.2,0.7,0.4,1.1c2.7,0,5.4,0.2,8.1,0s5.4-0.8,8.4-0.5c-0.5,0.4-1,1.2-1.5,1.3
		c-4.9,0.5-9.7,1.1-14.6,1.1c-2.8,0-3.6-2-1.9-4.5c1.8-2.8,4.1-5.2,6.1-7.8c1.5-2.1,4.4-4.4,2.8-6.9c-1.7-2.7-5.1-1.2-7.7-0.4
		c-1.7,0.5-3.1,1.7-4.7,2.6C1288.7,132.7,1288.3,132.6,1288,132.6z"/>
	<path class="st0" d="M691.8,110.9c-2.8,0.2-5.7,0.5-8.9,0.8c0.4,5.5,0.8,10.9,1.1,16.2c-3-1.9-2.2-4.9-2.5-7.5
		c-0.4-2.7-0.4-5.5-0.6-8.8c-1.5,0.1-2.9,0.1-4.7,0.2c0.3,6.2,0.5,11.9,0.8,17.6c-2.3-0.8-2.4-0.9-2.4-7.6c0-3.2,0-6.3,0-9.5
		c-1.9-0.5-3.2-0.7-4.6-1.1c2.1-1.7,18-2.5,21.8-1.2C691.8,110.3,691.8,110.6,691.8,110.9z"/>
	<path class="st0" d="M912.1,397.8c-2.8-0.5-5.1-0.9-7.5-1.3c0-0.4,0-0.7,0.1-1.1c2,0,3.9-0.1,5.9,0c2.4,0.2,4.5,0.3,5.4-2.7
		c0.8-2.9-0.6-4.6-2.9-5.8c-1.7-0.9-3.6-1.6-5.3-2.9c2.6-1.3,4.7,0.4,6.8,1.5c4.1,2.2,4,5.8,2.8,9.9c2,0.4,3.7,0.7,5.4,1.1
		c0,0.4,0,0.7,0,1.1c-2.4,0.1-5.2-0.4-7.2,0.6c-2.2,1.1-3.6,3.6-5.8,6.1c4.7,1.9,8.7,0.8,12.6,0.2c0.1,0.3,0.1,0.5,0.2,0.8
		c-0.5,0.4-1.1,1.2-1.6,1.3c-3.4,0.2-6.9,0.5-10.3,0.3c-2.5-0.1-3-1.9-1.8-4C909.8,401.2,910.9,399.7,912.1,397.8z"/>
	<path class="st0" d="M472.9,392.1c-3.7,0-7.4,0-11.8,0c0.3,4.6,0.5,8.6,0.7,12.6c-0.2,0.1-0.3,0.3-0.5,0.4c-0.5-0.7-1.3-1.3-1.4-2
		c-0.4-2.2-0.5-4.5-0.6-6.7c-0.2-4.1-0.1-4.1-4.3-4.3c-3.3-0.1-6.7-0.2-10-0.3c-0.9,0-1.7-0.4-3.2-0.7c3.2-1.9,6-0.9,8.6-1
		c2.8-0.2,5.5,0,8.6,0c0-3.4,0-6.6,0-9.8c0.4,0,0.8-0.1,1.2-0.1c0.3,2.2,0.9,4.4,0.9,6.6c-0.1,3,1.2,4,4.1,3.8
		c2.6-0.1,5.3,0.1,8,0.2C472.9,391.2,472.9,391.6,472.9,392.1z"/>
	<path class="st0" d="M523.6,140.4c3.7,0,7,0,10.3,0c0.1,0.2,0.2,0.5,0.3,0.7c-0.6,0.5-1.1,1.3-1.7,1.3c-2.6,0.2-5.3,0.4-7.9,0.1
		c-3.1-0.4-3.7-2-2.1-4.8c1-1.8,2.3-3.5,3.8-5.6c-2.2-0.4-4.1-0.7-6-1.1c0-0.4,0-0.7,0-1.1c1.9-0.1,3.8-0.3,5.6-0.4
		c2.8-0.2,4.7-2.6,4.6-5.7c0-2.4-1.4-3.3-4.9-3.2c-1,0-2,0-3.3,0c2.3-2.2,5.3-2.5,7.7-1.3c3.8,2,1.9,5.3,1.9,8.4
		c1.2,0.3,2.5,0.5,3.8,0.8c0.2,0.3,0.3,0.6,0.5,0.9C529.9,130.5,526,134.2,523.6,140.4z"/>
	<path class="st0" d="M799.9,451.4c1.1,1.9,2.3,3.2,2.6,4.6s0.3,3.4-0.5,4.4c-0.8,0.9-2.9,1.4-4.2,1.2c-4.1-0.6-7.5-5.9-8-11.7
		c-0.5-6.1,1.8-11.6,5.7-13c1.2-0.4,3.1-0.5,4,0.2c1.5,1.1,1.4,2.9,0,4.9c-0.6-1.3-1.1-2.4-1.9-4.2c-1.6,1.4-3.2,2.3-4.1,3.7
		c-2.9,4.3-2.3,12.2,1.2,16.1c0.9,0.9,2,1.7,3.2,2.2c0.7,0.3,2,0.1,2.5-0.4s0.5-1.8,0.2-2.5c-0.5-1.3-1.5-2.5-2.2-3.8
		c-1.1-2-0.4-3.4,1.7-3.8c2.4-0.4,4.9-0.4,7.4-0.6c0.1,0.4,0.1,0.9,0.2,1.3C805.3,450.3,802.8,450.8,799.9,451.4z"/>
	<path class="st0" d="M1038.3,479c-3.2-0.4-5.6-0.6-8.1-0.9c0-0.4,0-0.9,0-1.3c1.6-0.1,3.3-0.1,4.9-0.2c1.8-0.1,4.2,1,4.9-2
		c0.6-2.7-0.7-5.3-3.5-6.4c-1-0.4-2.1-0.7-3.8-1.2c6.2-1.8,8.4,0.5,9.9,9.4c1.4-0.2,2.8-0.5,4.2-0.5c1.2,0,2.4,0.3,3.6,0.4
		c0,0.3,0,0.6,0,0.9c-3,0.6-6.5,0.4-8.9,1.9c-2.5,1.6-3.9,4.8-5.8,7.2c0.2,0.4,0.4,0.7,0.6,1.1c3.7-0.2,7.3-0.4,11-0.6
		c0,0.4,0.1,0.8,0.1,1.2c-3.8,1-7.5,2.1-11.6,0.9c-2.1-0.6-2.1-2.2-1.3-3.8C1035.6,483.3,1036.8,481.4,1038.3,479z"/>
	<path class="st0" d="M1131.7,626.4c5.1-2.7,8.6,1,9,9.1c2.6,0.7,5.6-1.7,8.6,1c-3.6,0.7-7.1,0.5-9.5,2s-3.7,4.6-5.5,7.1
		c0.2,0.4,0.3,0.8,0.5,1.2c3.6-0.2,7.3-0.3,11.3-0.5c-2.8,2.4-9.7,3.3-12.3,2.1c-2-1-1.6-2.6-0.8-4c1-1.8,2.2-3.6,3.7-6
		c-1.8-0.2-3.1-0.3-4.3-0.5c-1.2-0.1-2.5-0.3-3.7-0.5c0-0.4,0-0.8,0-1.2c1.7-0.1,3.3-0.1,5-0.2c1.9-0.1,4.2,0.9,4.8-2.1
		c0.5-2.6-0.7-5.1-3.3-6.1C1134.2,627.1,1133.1,626.8,1131.7,626.4z"/>
	<path class="st0" d="M396.5,658.5c3.4,3.3,2.4,7.9,4.1,12.5c1.5-2.3,2.7-4.4,4.1-6.2c0.7-0.9,1.8-1.4,2.7-2c0.7,1,1.5,2,1.9,3.1
		c0.4,1,0.2,2.1,0.4,3.2c0.8,6.1,1.1,6.4,7.1,7.9c-2.2,2.1-5.2,2-6.7-0.6c-1-1.6-1.5-3.6-2-5.5c-0.4-1.5-0.6-3-0.9-4.5
		c-0.3-0.1-0.6-0.2-0.9-0.3c-2.2,3.9-4.4,7.8-6.6,11.7c-0.3-0.1-0.7-0.1-1-0.2C397.9,671.2,397.2,664.9,396.5,658.5z"/>
	<path class="st0" d="M611.8,534.7c-5.1,0.7-9-1.4-10.9-5.2c-2.6-5.2-2.4-10.6-1.5-16c1.3-8.8,3.7-17.2,9.6-24.1
		c0.8-0.9,2-1.5,3-2.3c0.2,0.3,0.4,0.5,0.6,0.8c-1.4,1.7-2.9,3.4-4.1,5.2c-5.6,8.8-8,18.5-7.6,28.9c0.2,5.8,2.5,10.4,8.9,11.5
		C610.3,533.5,610.7,533.9,611.8,534.7z"/>
	<path class="st0" d="M1045.5,400.1c3.8-2.7,7.6-3.4,11.8-0.7c3.7,2.3,4.4,5.9,4.3,9.7c-0.1,3.9-2.1,7.2-5.6,9.1
		c-2.1,1.1-3.4,0.1-2.9-2.3c0.8-3.6,2-7.2,3.1-10.7c0.5-1.5,1.4-2.9-0.4-4.3s-5.8-1.9-7.1-0.4c-0.8,1-0.7,2.8-0.8,4.2
		c-0.1,0.8,0.3,1.7,0.5,2.8C1045.6,405.7,1045.2,404.7,1045.5,400.1L1045.5,400.1z M1055,416.1c4.7-3.3,5.7-6.6,3.4-11.3
		C1057.2,408.7,1056.2,412,1055,416.1z"/>
	<path class="st0" d="M496.5,292.6c-1,0-2.1,0.2-3,0c-3.1-0.7-4.6,0.8-5.7,3.6c-1.6,4.3-0.5,6,4.1,5.6c1.4-0.1,2.7-0.3,4.6-0.6
		c-3.1,3.1-8.4,3.4-10.7,0.9c-1.8-1.9-0.8-3.9-0.2-6c0.4-1.6,0.5-3.2,0.8-5.3c0.6-0.4,2.1-1.1,2.9-2.2c3.2-4.8,1.5-8.1-4.3-8.5
		c-1.6-0.1-3.2-0.2-4.8-0.3c-0.2,0-0.3-0.4-0.5-0.6c2.7-1.6,9.6-1.5,11.3,0.7c1.1,1.4,1.3,3.6,1.4,5.5c0.1,1.5-0.7,3-1.1,4.7
		c2,0.5,3.6,1,5.3,1.5C496.6,291.9,496.6,292.3,496.5,292.6z"/>
	<path class="st0" d="M711.4,647c-6.1,5.8-9.2,13.1-10.7,21c-0.9,4.9-1.2,10-1,15c0.2,4.7,2.6,8.3,7.8,9.4c0.6,0.1,1.3,0.4,1.9,0.7
		c0.2,0.1,0.2,0.4,0.3,0.7c-3.5,1.1-8.3-0.8-9.9-4.6c-1.3-3-2.4-6.4-2.3-9.6c0.3-11.2,2.7-21.9,10-30.9c0.8-1,2-1.7,3-2.6
		C710.7,646.4,711,646.7,711.4,647z"/>
	<path class="st0" d="M834.7,125.4c3-1.3,6.1-1.5,8.9,0.2c3.4,2.1,1.2,5.5,1.2,8.8c2.6,0,5.1,0,7.6,0c0,0.4,0.1,0.7,0.1,1.1
		c-1.8,0.3-3.6,0.6-5.5,0.9c-4.8,0.7-5.7,1.5-6.8,6.9c3.9,1.9,7.9,0,12.2,0.1c-1.7,2.7-4.2,2.2-6.3,2.5c-0.9,0.2-1.9,0.2-2.8,0.1
		c-5.4-0.1-6.3-1.6-4.3-6.6c0.2-0.5,0.3-1,0.6-1.8c-1.8-0.4-3.3-0.7-4.9-1c0-0.3,0-0.6-0.1-0.9c1.4-0.2,2.8-0.4,4.3-0.6
		c2.7-0.3,4.4-2.5,4.3-5.5c-0.1-3.1-2.4-3-4.5-3.1c-1.4-0.1-2.8,0-4.2,0C834.8,126.1,834.8,125.8,834.7,125.4z"/>
	<path class="st0" d="M707.8,95.5c-19.7-0.4-39.3-0.7-59.9-1.1c3.5-2.1,50.2-2.1,57.8-0.5c0.8,0.2,1.6,0.8,2.4,1.2
		C708,95.2,707.9,95.3,707.8,95.5z"/>
	<path class="st0" d="M432.6,146.7c-0.5-1.4-0.7-2.2-1-3c-5.1,3.1-7.4,12.1-4.5,17c1.2,2.1,2.5,2.4,6.5,1.5c-1.1-1.4-2-2.5-3-3.5
		c-3-3-2.3-5.9,1.8-7c2.3-0.6,4.8-1.3,7.7,1.1c-2.8,0.3-4.9,0.3-6.8,0.7c-2.7,0.6-3,1.8-1.2,3.8c0.5,0.6,1.4,1,1.7,1.7
		c0.6,1.2,1.7,3,1.2,3.8c-0.6,1.1-2.4,2-3.8,2.2c-2.8,0.3-4.8-1.2-6-3.7c-2.6-5.5-0.8-14.5,3.9-18.4c1-0.8,3.3-1.6,4.1-1
		C434.6,142.8,434.4,144.7,432.6,146.7z"/>
	<path class="st0" d="M319,517.8c-4.3,2.3-7.1,1.5-8.5-2.6c-0.9-2.6-1.2-5.4-1.8-8.1c-0.3-0.1-0.6-0.3-0.9-0.4
		c-1.2,1.9-2.4,3.9-3.4,5.8c-1.1,2-2,4.1-3,6.1c-0.4-0.1-0.7-0.2-1.1-0.4c-0.7-6.3-1.5-12.6-2.2-19.3c2.7,1.3,2.2,3.8,2.7,5.7
		c0.5,2.1,0.8,4.3,1.3,7.4c1.6-2.5,2.6-4.3,3.9-5.9c0.8-1.1,2.1-1.8,3.1-2.7c0.7,1.3,1.4,2.6,2,4c0.2,0.6,0.2,1.3,0.3,2
		C312.1,516.3,312.3,516.5,319,517.8z"/>
	<path class="st0" d="M867,474.8c0,18.7,0,37.3,0,56c-0.3,0.1-0.6,0.1-0.9,0.2c-0.3-1.4-0.7-2.7-0.7-4.1
		c-0.1-11.2-0.1-22.4-0.1-33.5c0-4.9,0-9.8,0-14.8c0-1.2,0.1-2.5,0.2-3.7C865.9,474.8,866.5,474.8,867,474.8z"/>
	<path class="st0" d="M499.1,420.6c3.5-1,6.2-1.6,8.8-2.6c0.7-0.2,1.5-1.6,1.4-2.1c-0.2-0.8-1.2-1.9-2-2.1c-1.9-0.5-3.9-0.4-5.9-0.6
		c-3.6-0.3-4.5-1.3-4.3-4.8c0.2-2.1,0.7-4.1,1-5.7c5.9,0.2,11.2,0.4,16.6,0.6c0,0.3,0.1,0.7,0.1,1c-0.8,0.2-1.5,0.6-2.3,0.6
		c-3.2,0.1-6.4,0.2-9.6,0.2c-2.3,0-3.9,0.5-3.9,3.3c-0.1,2.9,1.8,2.7,3.7,2.9c1.6,0.1,3.3-0.1,4.7,0.6c1.5,0.7,3.6,2.1,3.8,3.4
		c0.3,1.3-1.1,3.5-2.5,4.4c-1.9,1.2-4.4,1.8-6.7,2.2C501.2,422.1,500.1,421.1,499.1,420.6z"/>
	<path class="st0" d="M436,500c-1.7-1-3.5-2-5.5-3.2c-0.6,1.5-1.1,2.8-1.6,4.1c-0.2,0-0.5,0-0.7-0.1c0-1.4,0-2.8,0-4.4
		c-2.1-0.4-3.9-0.8-5.8-1.1c0-0.3,0-0.6,0-0.9c1.7-0.3,3.4-0.6,5.4-0.9c-1.1-2.7-2.2-5.2-3.2-7.8c0.4-0.2,0.8-0.4,1.2-0.6
		c1.4,2.2,2.7,4.5,4.3,7c1.9-2.2,3.4-4,4.9-5.8c0.3,0.2,0.6,0.4,0.9,0.6c-1,2-2,4-3.3,6.5c3.4,0.2,6.3,0.4,9.2,0.6
		c0,0.4,0,0.8,0,1.2c-2.2,0.2-4.4,0.5-7,0.8c0.7,1.1,1.3,2.1,1.8,3.1C436.4,499.5,436.2,499.8,436,500z"/>
	<path class="st0" d="M745.3,695.3c3.6-7.9,9.3-15,9.3-24.2c0.1-9-4.1-16.5-9.7-24.2c5,1.9,9.8,11.5,11.4,19.4
		C758.3,675.8,751.2,690.6,745.3,695.3z"/>
	<path class="st0" d="M526.5,655.4c-2.2-0.3-3.9-0.5-5.6-0.8c0-0.4,0-0.7,0-1.1c1.7-0.3,3.5-0.6,5.4-0.9c-1.1-2.7-2.2-5.2-3.3-7.8
		c0.4-0.2,0.9-0.4,1.3-0.6c0.6,1.2,1.2,2.4,1.8,3.5s1.4,2.1,2.3,3.7c1.8-2.2,3.2-4,4.7-5.8c0.3,0.2,0.6,0.3,1,0.5
		c-0.9,2-1.9,3.9-3,6.4c3.2,0.3,6.2,0.6,9.2,0.8c0,0.4,0,0.8,0,1.2c-2.2,0.2-4.5,0.4-7.2,0.6c0.8,1.3,1.4,2.3,2,3.3
		c-0.2,0.2-0.3,0.4-0.5,0.7c-1.8-1-3.5-1.9-5.5-3c-0.6,1.4-1.3,2.7-1.9,4c-0.2,0-0.5-0.1-0.7-0.1
		C526.5,658.7,526.5,657.2,526.5,655.4z"/>
	<path class="st0" d="M153.8,273.5c-2.4-0.5-4.2-0.8-6.1-1.2c0-0.4,0-0.7,0-1.1c1.5-0.1,3.1-0.4,4.6-0.2c2.8,0.4,4.2-0.9,5-3.4
		c0.9-2.7,0.1-4.8-2.4-6c-2.2-1.1-4.5-1.8-7.2-2.8c7.9-2.3,12.8,3.2,11,12c2.5,0.2,5,0.4,7.4,0.6c0,0.5,0,0.9,0,1.4
		c-2.1,0.1-4.2-0.1-6.3,0.3c-1.6,0.3-3.4,0.9-4.3,2c-0.9,1-0.8,2.9-1.1,4.4c1.3,0.2,2.6,0.5,3.9,0.7c0.7,0.1,1.4,0.2,3,0.4
		c-3,1.8-5.6,2.7-7.6,1.2C150.8,279.7,152.7,276.7,153.8,273.5z"/>
	<path class="st0" d="M1348.5,104.1c-4.3,2.5-56.8,2.3-60.3,0C1308.3,104.1,1328.4,104.1,1348.5,104.1z"/>
	<path class="st0" d="M648.3,487.8c6.2,6.6,9.7,14.6,9.8,23.8c0.1,9.7-5.1,17.4-10.8,24.7c2.9-8.1,8.9-15,8.9-24.1
		c0-9-3.8-16.6-9.3-23.6C647.4,488.3,647.9,488.1,648.3,487.8z"/>
	<path class="st0" d="M1076.7,404.1c-0.2-1.8-0.2-2.8-0.4-4.7c-2.2,1-4.2,1.5-5.8,2.6c-3.6,2.7-4.7,7.4-3,10.6
		c1.4,2.5,3.8,3.3,7.7,2.1c-1.4-1.6-2.6-3-4.1-4.8c3.3-1,6.5-1.3,9.7-0.5c0,0.3,0.1,0.6,0.1,0.9c-1.5,0.3-2.9,0.7-4.3,1
		c-0.1,0.4-0.3,0.6-0.3,0.9c0.2,1.8,1.1,3.7-1,5c-1.7,1.1-5.9,0.3-7.9-1.4c-2.8-2.5-3.5-7-1.6-11c1.9-4.1,6.5-7.3,9.9-6.8
		C1078.7,398.3,1079.3,400.6,1076.7,404.1z"/>
	<path class="st0" d="M655.6,125c4.6-0.6,9.3-1.2,13.9-1.8c0.1,0.2,0.3,0.5,0.4,0.7c-0.7,0.5-1.4,1.2-2.2,1.3
		c-3.9,0.6-7.9,1.2-11.8,1.5c-1,0.1-2.6-0.6-2.9-1.3c-0.3-0.8,0.1-2.4,0.8-3.2c2.6-3,5.5-5.8,8.1-8.8c1.1-1.3,1.7-3,2.6-4.6
		c-0.2-0.3-0.5-0.7-0.7-1c-3.5,0.6-7,1.3-10.5,1.9c-0.1-0.4-0.1-0.7-0.2-1.1c3.4-1.8,7.1-2.9,11.1-2.5c2.6,0.3,2.7,2.7,1.7,4.3
		c-1.7,2.8-3.7,5.4-5.8,8c-1.5,1.9-3.4,3.5-5,5.2C655.1,124.2,655.4,124.6,655.6,125z"/>
	<path class="st0" d="M94.2,380.5c-3.1-1.4-6.3-2.7-9.4-4.1s-6.4-2.9-6.4-6.8c0-4.2,3-6.6,6.7-8.1c2.4-1,4.9-1.9,7.2,0.7
		c-0.8,0.1-1.5,0.2-2.3,0.2c-3.2,0-6,1.1-8.1,3.6c-2.5,2.9-2,5.8,1.4,7.6c3.1,1.6,6.3,2.8,9.5,4.2c1.1,0.5,2.2,1,3.1,1.8
		c1.4,1.2,1.1,2.6-0.2,3.7c-2.4,1.9-10.1,3-14.2,1.4c4.7-1,8.8-1.8,12.8-2.6C94.2,381.5,94.2,381,94.2,380.5z"/>
	<path class="st0" d="M932.2,652.8c-3.9,5.2-10,4.5-15.2-1.3c-6,4.2-6,4.2-9.3-1c-1.4,2-2.6,3.9-4,5.9c-2.3-2.9-3-7-1.4-10.7
		c0.5,1.7,0.9,3.5,1.4,5.2c0.3,0.2,0.6,0.5,0.8,0.7c1-1.8,1.9-3.7,2.9-5.5c0.5,0.3,1,0.5,1.5,0.8c0.8,1.8,1.7,3.7,2.8,6.1
		c2-1.9,3.8-3.6,5.4-5.1c2.2,2.3,3.8,5.3,6.3,6.2C925.7,654.9,928.9,653.4,932.2,652.8z"/>
	<path class="st0" d="M813.4,494.1c2.1-2.2,3.7-3.9,5.2-5.6c2.1,2.3,3.6,5.5,6,6.3c2.5,0.9,5.8-0.6,8.7-1
		c-2.3,5.1-10.3,4.3-14.6-1.6c-1.7,1.1-3.3,2.9-5.1,3.1c-1.3,0.1-2.8-2-4.7-3.5c-0.4,0.5-1.1,1.5-1.7,2.5c-0.6,0.9-1.3,1.8-2.4,3.5
		c-1.8-4.2-2.3-7.6-2-11.1c0.3-0.1,0.7-0.2,1-0.3c0.5,1.9,1,3.7,1.6,6c1.6-1.8,3-3.3,4.8-5.4C811.4,489.6,812.3,491.5,813.4,494.1z"
		/>
	<path class="st0" d="M740.1,148.8c0.5,7.3,0.8,14.7-2.4,21.7c-1.4,3.1-4.4,3.5-6.8,1.1c-1.1-1.1-2.1-2.5-2.5-4
		c-1.5-5.7-1.4-11.4-0.2-17.1c0.3,0,0.6-0.1,0.9-0.1c0.2,0.8,0.5,1.5,0.4,2.3c0,2.9-0.4,5.8-0.2,8.8c0.1,2.1,0.4,4.3,1.2,6.2
		c0.6,1.4,2.3,2.3,3.5,3.4c0.9-1.2,2.5-2.3,2.7-3.6c0.8-4.7,1.2-9.5,1.6-14.2c0.1-1.5,0-3,0-4.5C739,148.7,739.6,148.8,740.1,148.8z
		"/>
	<path class="st0" d="M1182.1,61.1c-4.1,1.9-10.7-2-12.6,5.4c3.2,2.6,7.3,0.4,11,1.6c-3,2.1-10.6,2.3-12.5,0.2
		c-0.6-0.6-0.7-1.9-0.6-2.8c0.1-1,0.9-1.9,1.4-3c-1.3-0.5-2.4-1-3.5-1.4c0-0.3,0-0.6,0-0.8c1.2-0.1,2.5-0.1,3.6-0.4
		c1.3-0.4,2.8-0.9,3.6-1.9c2-2.5,1.2-4.2-2-4.4c-0.7-0.1-1.3,0.1-2,0c-0.6,0-1.2-0.2-2-0.3c2.3-2,5.6-2.3,7.7-0.8
		c2.7,1.9,1,4.3,0.4,7c2.5,0.2,4.9,0.4,7.3,0.7C1182.1,60.4,1182.1,60.7,1182.1,61.1z"/>
	<path class="st0" d="M94.7,76.2c-4.6,3-44.1,3-48.5-0.1C62.4,77.9,78.5,75.5,94.7,76.2z"/>
	<path class="st0" d="M1338.4,47.9c-1.2-0.5-2.2-0.9-3.4-1.4c2.8-1.5,3.7-2.6,7.1-8.3c0,2.5,0,4.3,0,6.5c1.9,0.4,3.9,0.8,5.9,1.2
		c0,0.3-0.1,0.7-0.1,1c-0.8,0.1-1.7,0.3-2.5,0.3c-4.7,0.1-4.7,0.2-5.7,4.8c-0.2,0.9-0.3,1.8-0.4,2.8c-0.7,5.6,1.5,7.4,6.9,5.7
		c1.3-0.4,2.6-0.9,4.6-1.6c-2.2,3.4-6.9,4.9-10.2,3.8c-2.6-0.8-3.8-3.2-3.4-6.9C1337.5,53.2,1338,50.6,1338.4,47.9z"/>
	<path class="st0" d="M1135.5,151.7c-2.7,1-3.2-1.2-3.6-3.1c-0.5-3-0.7-6.1-1-9.1c-0.2-1.6-0.3-3.1-0.5-5.6
		c-2.9,3.6-5.4,6.5-7.8,9.5c-0.4-0.3-0.8-0.6-1.2-0.9c1.8-2.7,4-5.3,5.5-8.1c1.6-3,2.5-6.3,4.6-9.5c0.2,1,0.5,2,0.6,3.1
		c0.5,5.7,0.7,11.4,1.4,17.1C1133.7,147.2,1134.7,149.1,1135.5,151.7z"/>
	<path class="st0" d="M666.8,79.5c3-5.6,6.1-11.1,9.1-16.7c0.2,0,0.4,0.1,0.6,0.1c1,8.9,2,17.9,3,26.6c-2-0.7-2-0.7-3.1-8.8
		c-0.5-3.4-0.9-6.8-1.4-10.8c-2.6,3.8-4.9,7.1-7.2,10.5C667.5,80.1,667.1,79.8,666.8,79.5z"/>
	<path class="st0" d="M1150.4,135.7c0-3.2,0-5.7,0-8.3c0.4-0.1,0.8-0.1,1.1-0.2c0.5,2.5,1,5.1,1.6,8.3c3.7,0,7.6,0,11.6,0
		c0,0.5,0,0.9,0,1.4c-2.7,0.2-5.3,0.4-8,0.6c-4.1,0.3-4.2,0.4-4,4.4c0.1,1.4,0.1,2.7,0.2,4.1c-0.4,0.1-0.7,0.1-1.1,0.2
		c-0.3-1.3-0.8-2.5-0.9-3.8c-0.5-4.8-0.4-4.8-5.4-4.9c-1.9,0-3.7-0.3-5.5-0.4c0-0.5,0-0.9,0-1.4
		C1143.3,135.7,1146.7,135.7,1150.4,135.7z"/>
	<path class="st0" d="M350.2,384.4c12.8,0,25.5,0,38.3,0c0.1,0.3,0.2,0.6,0.2,0.8c-0.8,0.3-1.6,0.8-2.5,0.8
		c-11.3,0.1-22.6,0.1-33.8,0.1c-0.9,0-1.7-0.5-2.6-0.8C350,385,350.1,384.7,350.2,384.4z"/>
	<path class="st0" d="M55.5,112.2c-4.8,0.3-9.5,0.6-15.2,1c0.9-2.2,1.2-3.6,1.9-4.7c2-3.3,4.3-6.4,6.2-9.8c1-1.9,2.8-4.8,0.5-6
		c-2.6-1.4-3.4,1.8-4.5,3.8c-0.1,0.2-0.4,0.2-1,0.3c-1-2.5,0.4-4.2,2-5.2c1.2-0.8,3.5-1.4,4.6-0.8c1,0.6,1.9,3.1,1.5,4.3
		c-1.3,3.6-3.1,6.9-4.9,10.3c-0.9,1.7-2.1,3.3-3.5,5.4c4.6,0,8.5,0,12.5,0C55.5,111.3,55.5,111.7,55.5,112.2z"/>
	<path class="st0" d="M965.2,690.7c-1.8-3.4-2.2-51.7-0.2-56.8c0.2,1.4,0.6,2.8,0.6,4.2c0,13.6,0,27.1,0,40.7c0,3.1,0.2,6.1,0.2,9.2
		C965.9,688.6,965.5,689.4,965.2,690.7z"/>
	<path class="st0" d="M342.8,114.7c2.8-0.5,5.6-1,8.4-1.5c0.1,0.4,0.2,0.8,0.3,1.3c-2.9,1.2-5.9,2.4-9.2,2c-2.3-0.2-2.9-2.2-1.1-4.5
		c3-3.9,6.4-7.5,9.5-11.3c1.2-1.5,2.1-3.4,3.2-5.1c-0.3-0.3-0.7-0.7-1-1c-2.4,1.2-4.7,2.4-7.2,3.7c0.4-3,6.2-6.6,8.6-5.3
		c0.7,0.4,1.4,2.1,1.1,2.9c-0.7,2.1-1.8,4.2-3.1,5.9c-2.3,3.1-5,5.8-7.5,8.8c-0.9,1.1-1.7,2.2-2.5,3.3
		C342.4,114.1,342.6,114.4,342.8,114.7z"/>
	<path class="st0" d="M1165.1,657.2c-16-3-32.2-1.2-48.7-1.9c2.5-2.3,36.4-2.5,45.9-0.6c1.1,0.2,2.2,1.1,3.2,1.6
		C1165.4,656.6,1165.3,656.9,1165.1,657.2z"/>
	<path class="st0" d="M1066.8,498c-16.2-2.8-32.3-1.1-48.3-2.4c5.2-2,10.6-1,15.9-1.2c5.7-0.2,11.4,0.1,17.2,0.1
		C1063,494.7,1065.5,495.2,1066.8,498z"/>
	<path class="st0" d="M376.7,101.7c-2,0.5-4.1,1.1-6.1,1.3c-6.6,0.6-6.7,0.5-7.3,7.2c-0.3,3.4,0,6.7,0,10.4c-3-1.9-2.2-5-2.2-7.6
		c0-2.9,0.4-5.7,0.6-8.9c-2.3,0-4,0-6.5,0c2.3-3.1,7.6-0.7,7.6-5.8c4.1,5.6,9.1,1.7,13.5,2.1C376.5,100.8,376.6,101.3,376.7,101.7z"
		/>
	<path class="st0" d="M354.4,397.9c1.8-2.7,5.5-3.6,7.5-2.2c4.1,2.9-0.1,5.9-0.1,9.3c1.8,1.1,3.8,2.1,5.6,3.4
		c3.8,2.7,3.7,5.9-0.5,7.9c-2.3,1.1-5,1.6-7.6,2c-0.8,0.1-1.8-0.9-3.2-1.6c3.7-0.6,6.5-0.7,9.1-1.7c3.5-1.3,3.6-3.2,0.6-5.3
		c-0.4-0.3-0.9-0.6-1.3-0.8c-5-3-5-3-3.3-8.4c0.8-2.6,0.2-3.4-2.6-3.2C357.1,397.3,355.8,397.6,354.4,397.9z"/>
	<path class="st0" d="M142.7,286.8c-3.1,1.2-5.2-0.1-6.4-1.8c-1.8-2.6-3.8-5.5-4.2-8.4c-1.1-8.1,0.6-15.9,5.1-22.9
		c1.3-1.9,2.6-4.4,5.6-4c0.3,0.3,0.6,0.6,0.9,1c-1.6,1.3-3.6,2.3-4.7,3.9c-4.5,6.8-6.2,14.4-5,22.5
		C134.7,281.2,136.4,282.9,142.7,286.8z"/>
	<path class="st0" d="M285.5,276.8c-1.9,1-3.9,1.9-6,3c-0.7-2.5,1.4-3.3,2.8-3.8c1.6-0.5,3.7-0.7,5.1,0c0.7,0.3,1.1,3,0.6,4.2
		c-1.1,2.8-2.8,5.4-4.4,8c-0.8,1.4-1.8,2.8-2.7,4.2c0.1,0.3,0.3,0.6,0.4,0.9c3.6-0.3,7.2-0.6,11.6-0.9c-1.1,1-1.6,1.8-2.1,1.8
		c-3,0.4-6.1,0.9-9.1,0.9c-3.3,0-3.9-1.4-2.2-4.4c1.8-3.1,3.9-6,5.7-9.1c0.7-1.1,0.9-2.6,1.3-3.8
		C286.2,277.4,285.9,277.1,285.5,276.8z"/>
	<path class="st0" d="M962.9,497.4c0,8.8,0,17.5,0,26.1c-1.7-1.5-1.7-1.5-1.7-8.8c0-3.3,0-6.5,0-9.8c-0.3-0.1-0.5-0.1-0.8-0.2
		c-1.6,2-3.2,3.9-4.8,5.9c-0.3-0.2-0.7-0.4-1-0.7c2.4-4.3,4.7-8.5,7.1-12.8C962.1,497.2,962.5,497.3,962.9,497.4z"/>
	<path class="st0" d="M1058.8,663.9c-1.7,2-3.3,3.9-5,5.9c-0.3-0.2-0.6-0.4-0.9-0.7c2.4-4.2,4.7-8.4,7.3-13.1c2.1,3.1,1,6.1,1.2,9
		s0,5.9,0,8.8c0,3,0,6,0,9.8c-2.9-3.2-1.8-6.6-1.9-9.6c-0.2-3.3,0-6.6,0-9.9C1059.3,664.1,1059.1,664,1058.8,663.9z"/>
	<path class="st0" d="M898.3,610.4c1,1.8,2.2,3.2,2.6,4.7c0.4,1.4,0.4,3.6-0.4,4.4c-1,1-3.5,1.7-4.5,1.1c-2.3-1.3-4.6-3.2-6-5.4
		c-2-3.3-2.4-7.1-1.4-10.8c0.4,0,0.8-0.1,1.2-0.1c0.1,1,0.1,2.1,0.4,3.1c0.7,2.8,1.2,5.7,2.4,8.3c0.6,1.4,2.5,2.3,3.9,3.1
		c0.6,0.3,2,0,2.4-0.5s0.4-1.8,0.1-2.5c-0.6-1.3-1.6-2.5-2.3-3.7c-0.8-1.5-0.7-3.2,1.1-3.5c2.7-0.6,5.6-0.6,8.4-0.8
		c0.1,0.5,0.1,0.9,0.2,1.4C903.9,609.5,901.3,609.9,898.3,610.4z"/>
	<path class="st0" d="M1268.8,99.5c-13.6,0-26.5,0-39.5,0C1232.3,97.4,1265.6,97.5,1268.8,99.5z"/>
	<path class="st0" d="M291.7,410c-1.8-6.5-0.6-13-0.1-20.5c-2.3,2.3-4,4-5.7,5.6c-0.3-0.2-0.5-0.5-0.8-0.7c2.6-4,5.1-8,7.7-12.1
		C294,384.2,293.2,405.9,291.7,410z"/>
	<path class="st0" d="M368.6,383.1c-2.3-5.5-2.5-11.7-4.2-18c-2.5,3.4-4.7,6.3-6.9,9.3c-0.4-0.3-0.7-0.5-1.1-0.8
		c2.9-4.9,5.8-9.8,9.2-15.4c1.6,8.8,3,16.7,4.4,24.6C369.4,382.8,369,383,368.6,383.1z"/>
	<path class="st0" d="M295.9,508.2c0.5,4.4-0.9,8.1-3.9,11.1c-1.9,1.9-4.7,1.5-5.3-0.7c-1.8-6.4-1.1-12.9-0.5-19.3c0.5,0,1,0,1.5,0
		c0,3.2-0.1,6.4,0,9.6c0.1,3.2-0.7,6.6,1.4,9.8C293.7,516.4,293.7,511.7,295.9,508.2z"/>
	<path class="st0" d="M394.9,667.7c0,4.2-1.6,7.8-4.5,10.8c-2,2-5.1,1.3-5.6-1.4c-1.4-6.2-0.5-12.5-0.6-18.7c0.5,0,0.9-0.1,1.4-0.1
		c0.2,1,0.4,2,0.4,3c0.1,4.2,0,8.5,0.2,12.7c0.1,1.2,0.9,2.3,1.4,3.4c1.1-0.8,2.6-1.5,3.1-2.6c1.3-2.4,2.1-5,3.1-7.5
		C394.2,667.4,394.5,667.6,394.9,667.7z"/>
	<path class="st0" d="M67.9,46.3c0,9.1,0,18.2,0,28.1c-2.4-3.3-1.6-6.7-1.8-9.9c-0.1-3.4,0-6.7,0-10.1c-0.3-0.1-0.6-0.1-0.9-0.2
		c-1.5,2.2-2.9,4.5-4.6,7c-0.4-2.8,1.7-7.4,6.2-14.8C67.1,46.4,67.5,46.3,67.9,46.3z"/>
	<path class="st0" d="M565.4,369.6c4.8,0.2,8.8,0.4,12.8,0.6c0,0.5,0,1,0,1.5c-4.4,0.1-8.9,0.6-13.3-0.5c-0.6-0.2-1.1-2.3-0.9-3.3
		c0.5-2.2,1.5-4.2,2.2-6.4c0.5-1.5,0.7-3,1.2-5.5c-2.7,1-4.5,1.7-6.4,2.4c1-2.8,3.6-4.6,5.8-3.9c2.8,0.9,2.4,3.2,1.9,5.3
		C567.8,362.9,566.6,365.9,565.4,369.6z"/>
	<path class="st0" d="M876.4,555.9c1.4,4.3,2.5,7.7,3.5,11.1c-1.9,0.1-1.9,0.1-4.5-6c-1.9,2.7-3.6,5.2-5.8,8.5
		c-2.3-5.7-1.8-10.7-2.9-15.5c0.6-0.1,1.1-0.2,1.7-0.3c0.6,3.3,1.3,6.6,2,10.7C872.4,561.4,874.1,559,876.4,555.9z"/>
	<path class="st0" d="M969,723.3c1.8-2.6,3.4-5,5-7.3c0.3,0,0.7,0,1,0.1c1.1,3.4,2.2,6.7,3.3,10.1c-1.8,0.2-1.8,0.2-4.5-5.9
		c-1.9,2.7-3.6,5.2-5.4,7.7c-0.4-0.1-0.7-0.2-1.1-0.2c-1.3-4.7-1.5-9.6-1.6-14.6C968.5,715.7,967,719.8,969,723.3z"/>
	<path class="st0" d="M893.6,460.1c-3.2,0.6-6.3,1.3-9.5,1.6c-2.3,0.2-3.4-1.5-3.3-3.6c0.1-1.8,0.6-3.7,0.9-5.5
		c0.9-4.8,1.7-9.7,2.6-14.5c0.1-0.6,0.4-1.1,1-1.6c2.5,7.9-3.1,15.2-2.3,23.6c3.7-0.6,7-1.1,10.3-1.6
		C893.5,459,893.5,459.5,893.6,460.1z"/>
	<path class="st0" d="M943.3,389.2c11.2-0.2,22.4-0.5,33.3-0.7C974.2,391.5,950.5,392.7,943.3,389.2z"/>
	<path class="st0" d="M323.6,664.6c9.7-0.4,19.5-0.9,29.8-1.4C350.3,666.3,328.9,667.5,323.6,664.6z"/>
	<path class="st0" d="M169.2,254.4c5.6,2.9,7.6,8.3,8.6,14.1c1.2,6.7,0.3,13.1-3.9,18.6c-0.3-0.1-0.6-0.1-1-0.2c0.1-0.7,0-1.4,0.2-2
		c5.2-11,4.1-19.6-4-28.5c-0.3-0.4-0.5-0.9-0.7-1.3C168.7,254.8,169,254.6,169.2,254.4z"/>
	<path class="st0" d="M117.6,249c-3,3.3-5.2,2.5-8.3-3.1c-1.1,1.5-2.1,2.9-3.2,4.3c-2.3-2.5-3.5-7.6-2.3-11.4c0.7,2.1,1.4,4.3,2.3,7
		c1.6-2.3,2.8-4.2,4.1-6c0.3,0.1,0.6,0.1,0.9,0.2c0.2,0.9,0.6,1.8,0.7,2.8C112.4,248.5,112.4,248.5,117.6,249z"/>
	<path class="st0" d="M235.6,266.1c-3.4,2.7-30.4,3.3-35.7,1.1c1.7-0.3,2.6-0.7,3.5-0.7c5.3,0,10.6,0.2,15.9,0.1
		c4,0,7.9-0.3,11.9-0.5C232.6,266,234.1,266.1,235.6,266.1z"/>
	<path class="st0" d="M254.6,505.4c-9.7,2.3-19.6,1.4-29.4,1.6c0-0.5-0.1-1-0.1-1.5c9.8-0.5,19.6-1,29.3-1.5
		C254.5,504.5,254.6,504.9,254.6,505.4z"/>
	<path class="st0" d="M621.8,97c-10.9,0-21.7,0-32.9,0C592.6,95.2,618.5,94.8,621.8,97z"/>
	<path class="st0" d="M990.9,380.1c-0.3,1.8-0.6,3.5-0.8,5.3c-0.3,4.1-1,8.2-0.6,12.3c0.5,4.7,4.9,6.2,8,3.3c0.6-0.5,1-1.1,1.7-1.8
		c0.5,2.8-0.6,4.5-3.3,5.1c-3.4,0.8-6.4-0.9-8-4.4c-1.7-4-0.6-15.9,2-19.9C990.4,380,990.7,380,990.9,380.1z"/>
	<path class="st0" d="M106.5,365.8c-0.2,1.1-0.4,2.2-0.5,3.3c-0.3,3-0.9,6.1-0.8,9.1c0.1,4.6,2.6,5.9,6.6,3.5
		c1.4-0.9,2.5-2.6,3.4-4.1c0.5-0.8,0.5-1.9,1-3.8c0.7,1.4,1.2,2,1.2,2.6c0,4.8-5,9.1-9.7,8.3c-1.2-0.2-2.7-1.2-3.4-2.3
		C102.1,378.8,103,369.3,106.5,365.8z"/>
	<path class="st0" d="M432.7,255c-3.4,0.4-5.7-1-6.4-4.3c-1.6-7.3-1.4-14.6,1.7-21.5c0.8-1.7,2.3-3,4.1-4.1
		c-2.9,4.9-4.7,10-4.7,15.5C427.4,246,426.3,251.8,432.7,255z"/>
	<path class="st0" d="M1196.1,124.6c4.2-0.3,7.3-0.4,10.8-0.7c-2.2,2.4-10,3.6-11.4,1.7c-0.7-1-0.6-3-0.1-4.2c1.1-2.6,2.6-5,4-7.5
		c-0.2-0.2-0.4-0.5-0.6-0.7c-1.8,0.5-3.5,1-5.6,1.5c1.6-2.7,4.6-4.3,6.5-3.2c0.8,0.5,1.5,2.2,1.3,3.1c-0.4,1.8-1.6,3.3-2.4,5
		C1197.9,121,1197.2,122.3,1196.1,124.6z"/>
	<path class="st0" d="M303.7,90.7c-4.7,3.2-23.8,1.9-29.4-1.2c1.2-0.8,1.2-0.8,5.1-0.1c2.1,0.4,4.2,0.5,6.3,0.8c2,0.2,4,0.4,6,0.5
		c2.1,0.1,4.3,0,6.4,0C300,90.7,301.9,90.7,303.7,90.7z"/>
	<path class="st0" d="M874.6,603.3c0,5.2,0,9.4,0,14.3c7-2.7,5.6-8.7,6.7-14.5c0.8,1.5,1.2,2.1,1.3,2.7c0.6,4.5-0.4,8.6-3.7,11.7
		c-1.1,1-3.3,1.7-4.6,1.3c-1-0.3-2-2.5-2-3.8c-0.1-3.2,0.3-6.4,0.6-9.5C872.9,604.9,873.6,604.5,874.6,603.3z"/>
	<path class="st0" d="M1057.8,142.8c0.6,1.1,1,1.4,1,1.7c-0.2,2.8-3.1,4.9-7.3,5.3c-3.6,0.3-5.8-0.8-6.4-3.9
		c-0.9-5.1,1-9.5,3.5-14.1c1.9,1.8,1.1,3,0.5,4.5c-1.1,2.4-1.9,4.9-2.2,7.5c-0.3,3.3,1.5,4.5,4.8,4
		C1054.3,147.3,1056.7,146.3,1057.8,142.8z"/>
	<path class="st0" d="M269.7,669.6c-8.8,0-17.6,0-26.6,0c2.3-1.6,22.4-2.3,26.6-1C269.7,669,269.7,669.3,269.7,669.6z"/>
	<path class="st0" d="M1319.8,129.4c-0.5,2.7-1.3,5.4-1.6,8.1c-0.3,2.5-1.1,5.5,2,7.1c2.9,1.4,5.9,0.2,8.4-3.2
		c0.1-0.2,0.4-0.2,1.2-0.5c-0.1,1,0.1,1.9-0.2,2.5c-1.5,3-5.5,4.2-9.5,3.2c-3.2-0.8-4.1-3.2-4-6.1c0-4.1,0.2-8.1,2.7-11.5
		C1319.1,129.2,1319.4,129.3,1319.8,129.4z"/>
	<path class="st0" d="M502.4,69c5.3,4.5,8.5,10.3,8.2,17.7c-0.3,8.5-1.1,10.4-5.4,11.9c3.6-4.9,4.3-10.3,3.3-15.3
		C507.4,78.4,504.5,73.8,502.4,69z"/>
	<path class="st0" d="M144.8,509.8c8.8-0.8,17.6-1,26.5-0.3c-2.5,1.9-5.5,1.2-8.3,1.4c-3.2,0.2-6.4,0.3-9.5,0.1
		C150.6,510.8,147.5,511.7,144.8,509.8z"/>
	<path class="st0" d="M1001.8,508.8c-8.7,0.9-17.4,0.6-26.1,0.6c0-0.5,0-1,0-1.5c8.7,0,17.4,0,26,0
		C1001.8,508.2,1001.8,508.5,1001.8,508.8z"/>
	<path class="st0" d="M480.6,96.6c-6.7-3.6-6.8-23.3,0.1-30.3c0,1,0.2,1.8,0,2.3c-4.1,9-4.9,17.9-0.1,26.9
		C480.8,95.8,480.6,96.2,480.6,96.6z"/>
	<path class="st0" d="M1101.2,668.1c-9.6,0-18.3,0-27.4,0C1076.4,666.3,1098,666,1101.2,668.1z"/>
	<path class="st0" d="M238,278.2c-9.9-0.8-19.8-1.6-30.3-2.4c3.5-2.2,26.4-0.7,30.4,1.6C238.1,277.6,238,277.9,238,278.2z"/>
	<path class="st0" d="M465.1,292.7c-3.5,1.6-21.6,1.9-25.7,0.5C440.9,292,459.9,291.4,465.1,292.7z"/>
	<path class="st0" d="M258.4,388c-8.9,0.1-17.8,0.1-26.6-1.5c0-0.5,0-0.9,0.1-1.4c8.9,0.4,17.7,0.8,26.6,1.2
		C258.5,386.9,258.5,387.5,258.4,388z"/>
	<path class="st0" d="M237.3,396.9c8.5-0.7,17-1.2,25.6-1.2c0,0.6,0,1.1,0.1,1.7c-8.5,0.4-17.1,0.9-25.6,1.3
		C237.4,398,237.3,397.5,237.3,396.9z"/>
	<path class="st0" d="M442.6,679.5c0.5-0.8,1.3-3.4,1.9-3.3c2.1,0.3,4.6,0.9,5.9,2.3c1.1,1.2,1.4,3.8,1,5.5
		c-0.4,1.4-2.3,2.9-3.8,3.3c-2.1,0.6-3.8-0.8-4.4-3.1C442.9,682.9,442.9,681.6,442.6,679.5z M444.9,678.2c0,1.7-0.3,3.5,0.1,5
		c0.3,0.9,1.7,1.9,2.8,2c0.5,0.1,1.7-1.5,1.9-2.5C450.2,680,448.7,678.6,444.9,678.2z"/>
	<path class="st0" d="M275.6,102.4c5.4-1.5,23.4-0.4,25.3,1.2c-8.2,0-16.8,0-25.4,0C275.5,103.2,275.6,102.8,275.6,102.4z"/>
	<path class="st0" d="M797.6,72.3c-2.5,8.5-3.2,16.9,1.6,25C792.9,93.8,791.9,79.2,797.6,72.3z"/>
	<path class="st0" d="M382.3,103.8c-0.1,5.6-0.3,11.1-0.3,16.7c0,0.6,1,1.1,1.6,1.8c1.5-0.9,2.8-1.8,4.8-3.1
		c-0.6,3.1-2.2,4.7-4.3,4.7c-1.3,0-3.4-1.4-3.9-2.6C378,115.3,379.7,109.4,382.3,103.8z"/>
	<path class="st0" d="M344.5,521.1c0.6-1.5-1.1-4.3,2.3-4.5s6.1,2.3,6.5,5.7c0.3,2.9-1.2,5.4-3.6,5.8
		C346.2,528.8,344.2,526.1,344.5,521.1z M346.6,518.8c0,2-0.3,3.7,0.1,5.3c0.2,0.8,1.7,2,2.5,1.9s1.9-1.4,2.1-2.3
		C351.9,521.2,350.4,519.6,346.6,518.8z"/>
	<path class="st0" d="M296.1,274.8c4.2-2.3,19.9-2,22.6,0C310.8,274.8,303.5,274.8,296.1,274.8z"/>
	<path class="st0" d="M783.7,671.9c8.7,0.3,17.4,0.6,26.1,1c-2.6,2.3-23.4,1.6-26.2-0.1C783.7,672.5,783.7,672.2,783.7,671.9z"/>
	<path class="st0" d="M983.8,604.5c-0.8,3.3-1.6,6.6-2.3,9.9c-0.9,4.4-0.3,5,4.1,4.3c1.8-0.3,3.6-0.7,5.5-1.1c0.2,0,0.5,0.2,0.7,0.3
		c-1.8,2.2-8.8,3.9-11,2.6c-0.6-0.4-1.1-1.1-1.4-1.8c-0.9-2.4,1.6-12.2,3.6-14.4C983.3,604.4,983.6,604.5,983.8,604.5z"/>
	<path class="st0" d="M683.9,506.9c2.5-1.4,23.6-1.1,27,0.3C708.1,508.6,687.1,508.4,683.9,506.9z"/>
	<path class="st0" d="M99,255.6c-4.3-1.7-6-4.6-6-10.2c0-6.3,2-11.2,5.8-12.7c-0.3,0.9-0.5,1.4-0.7,1.9c-3.3,6.6-5.5,13.1,0.6,19.4
		C98.9,254.4,98.9,255,99,255.6z"/>
	<path class="st0" d="M685.1,513.6c3-1.2,22.7-0.6,26.2,0.8C709,515.9,688.3,515.2,685.1,513.6z"/>
	<path class="st0" d="M318.3,235.5c0-8.4-1-16.8,0.2-25.2c0.4,0,0.8,0,1.2,0c0,8.4,0,16.8,0,25.2
		C319.2,235.4,318.7,235.5,318.3,235.5z"/>
	<path class="st0" d="M576,393.1c3.9-1.8,23.4-1.9,25.9-0.2C593.3,393.6,584.7,393.9,576,393.1z"/>
	<path class="st0" d="M809.3,666.8c-9,0-18,0-27,0C784.5,664.8,805.7,665,809.3,666.8z"/>
	<path class="st0" d="M1240,105.8c8.7,0,17.4,0,26.4,0C1263.3,108.8,1246.1,109,1240,105.8z"/>
	<path class="st0" d="M642.4,265.5c3.9-1.5,23.5-1,27.3,1c-9.5,0-18.4,0-27.3,0C642.4,266.2,642.4,265.8,642.4,265.5z"/>
	<path class="st0" d="M698.5,129.4c2.3-1.9,3.7-3,5.6-4.6c-0.3,3.5-2.2,5-4.5,6c-0.6,0.3-2.2-0.8-2.7-1.6c-1.3-2-0.4-13.9,1.6-16.4
		C698.5,118,698.5,123.2,698.5,129.4z"/>
	<path class="st0" d="M309.3,396.9c7.8,0.8,15.8-0.3,23.4,2.4c0,0.4-0.1,0.7-0.1,1.1c-7.8-0.6-15.7-1.2-23.5-1.8
		C309.1,398,309.2,397.5,309.3,396.9z"/>
	<path class="st0" d="M975.7,395.7c-8.2,2.4-16.5,1.2-24.7,0c0-0.3-0.1-0.6-0.1-0.9c0.5-0.2,1-0.6,1.5-0.6
		c7.3,0.5,14.5,1.6,21.8,0.1c0.5-0.1,1.1,0.3,1.7,0.5C975.8,395.1,975.7,395.4,975.7,395.7z"/>
	<path class="st0" d="M352.9,669.9c-4,1.9-22.8,2.1-25.3,0C335.7,669.9,343.9,669.9,352.9,669.9z"/>
	<path class="st0" d="M918.6,567.6c-0.2-4.3-0.4-8.7-0.6-13.3c-2.1,0.9-3.8,1.7-6,2.7c2.6-3,4.6-5.3,7.3-8.4
		c1.3,6.9,0.9,12.9,0.9,18.8C919.6,567.6,919.1,567.6,918.6,567.6z"/>
	<path class="st0" d="M524,418c-1-7-1.6-14.1-1.2-21.2c0.5,0,1-0.1,1.5-0.1c0.4,7,0.9,14.1,1.3,21.1C525,417.9,524.5,417.9,524,418z
		"/>
	<path class="st0" d="M1017.9,708.9c1.1,5.9,0.7,11.9,0,17.9c-1.7-4.3-0.8-8.9-1.5-13.4c-2,1-3.7,1.8-5.3,2.5c2.1-2.7,4-5.1,5.8-7.5
		C1017.2,708.6,1017.5,708.7,1017.9,708.9z"/>
	<path class="st0" d="M379.1,416.4c-0.4-7.3-0.9-14.7-1.3-22c2.2,1.7,3.6,17.9,2.5,21.9C379.9,416.3,379.5,416.4,379.1,416.4z"/>
	<path class="st0" d="M490.7,130.2c6.6-0.3,13.2-0.6,20.4-1C508.1,131.8,494.7,132.6,490.7,130.2z"/>
	<path class="st0" d="M647.6,274.4c8.3-1,16.5-1.3,25.6-0.7C670.3,275.6,650.4,276.1,647.6,274.4z"/>
	<path class="st0" d="M229.3,510.7c8.1,0,16.2,0,24.5,0c-2.2,1.7-21,2.4-24.6,0.9C229.2,511.3,229.3,511,229.3,510.7z"/>
	<path class="st0" d="M85,113.6c1.5-1.2,2.5-2,3.8-3c0.5,2.8-1,4.1-2.8,4.7c-2.2,0.6-3.2-1.1-3.5-2.9c-0.8-5.4-0.2-10.7,1.6-16
		C85.2,101.8,82.6,107.5,85,113.6z"/>
	<path class="st0" d="M1151.7,56.2c0.2,4.1,0.5,8.1,0.8,13.2c2.9-1.7,4.7-2.8,6.6-3.9c-0.3,2.5-2.5,4.8-4.9,5.1
		c-2.9,0.3-3.7-1.9-3.9-4c-0.3-3.4-0.1-6.9-0.1-10.4C1150.7,56.2,1151.2,56.2,1151.7,56.2z"/>
	<path class="st0" d="M120.4,251.2c5.4-5.1,1.3-9.5-0.4-14.1c-0.4-1.1-1.1-2.2-1.6-3.3c0.2-0.2,0.5-0.3,0.7-0.5
		c0.5,0.3,1.2,0.5,1.4,0.9c1.6,3.9,3.4,7.8,4.5,11.8C125.9,249.4,124.9,250.3,120.4,251.2z"/>
	<path class="st0" d="M368.6,104.8c0,5.9,0,11.8,0,17.7c-2.4-2.2-2.9-12.1-0.9-17.7C368,104.8,368.3,104.8,368.6,104.8z"/>
	<path class="st0" d="M325.4,291.8c0.9-0.5,1.8-1,2.7-1.5c0.2,0.5,0.5,1.1,0.4,1.2c-0.9,0.8-2,2.3-2.8,2.2c-1.2-0.2-2.5-1.3-3.2-2.4
		c-1.8-2.8-1.7-9.9,0.1-14.5C324.5,282,321.3,287.6,325.4,291.8z"/>
	<path class="st0" d="M906.7,554.9c-3.8,1.9-16.1,2-19,0C893.7,554.9,899.8,554.9,906.7,554.9z"/>
	<path class="st0" d="M799.5,135.5c7.2,0,14.4,0,22,0C819.1,137.4,803.3,137.7,799.5,135.5z"/>
	<path class="st0" d="M1004.4,714.3c-6.1,1.5-12.2,1.5-18.4,0.4C992.1,713.2,998.3,713.7,1004.4,714.3z"/>
	<path class="st0" d="M941,618.6c-0.8-1.7-1.5-3.2-2.3-4.7c4.6-2.2,1.6-6.6,3-9.8C944,606.5,943.7,614.8,941,618.6z"/>
	<path class="st0" d="M856.7,350.8c0,5.9,0,11.8,0,18.4C854.7,366.5,854.6,355.2,856.7,350.8z"/>
	<path class="st0" d="M306.7,294c-1.2-5-1.3-10-1.3-15.1c0.5-0.1,1-0.1,1.5-0.2c0.4,5,0.8,10.1,1.3,15.1
		C307.7,293.9,307.2,294,306.7,294z"/>
	<path class="st0" d="M1327.4,56.2c-4.4,4.1-9.4,3.5-14.5,3c0-0.3-0.1-0.7-0.1-1C1317.7,57.5,1322.5,56.9,1327.4,56.2z"/>
	<path class="st0" d="M302.1,278.1c0.3,4.7,0.5,9.5-0.1,14.2c-0.4,0-0.8,0-1.3,0c0-4.7,0-9.4,0-14.1
		C301.3,278.1,301.7,278.1,302.1,278.1z"/>
	<path class="st0" d="M992.4,717.4c3.2,0.2,6.3,0.4,9.5,0.6c0,0.4-0.1,0.9-0.1,1.3c-3.2,0.9-6.4,0.2-9.5-0.5
		C992.3,718.4,992.4,717.9,992.4,717.4z"/>
	<path class="st0" d="M894.1,558.2c3.1,0.2,6.2,0.5,9.3,0.7c0,0.5-0.1,1.1-0.1,1.6c-3.1-0.2-6.2-0.5-9.3-0.7
		C894,559.3,894.1,558.8,894.1,558.2z"/>
	<path class="st0" d="M1202,231.9c0.5,0.7,0.9,1.5,1.4,2.2c0.3-0.1,0.6-0.2,0.8-0.3c-0.7-4.2-1.1-8.6-2.4-12.7
		c-0.4-1.2-3-1.7-4.7-2.6c0,0.1,0-0.3,0.1-0.4c5.7-2.2,14.9,2.1,16.8,7.9c0.9,2.9,0.1,5.8-2.5,7.3c-2.3,1.3-4.8,2.2-7.3,2.9
		c-0.9,0.2-2.4-0.5-3-1.3c-0.5-0.6-0.1-1.9-0.1-2.9C1201.3,232,1201.7,232,1202,231.9z M1206.2,233.4c3.6-0.8,5.9-1.9,6-5.2
		c0.2-3.1-3.3-6.4-8.2-7.5C1204.8,225,1205.5,228.9,1206.2,233.4z"/>
	<path class="st0" d="M1164.6,220.3c-1.9-2.4-3.9-2.3-6-0.7c-2.7,2-4.3,6.5-3.2,9.3c0.9,2.4,3.1,3.4,6.5,3.1c1.2-1.8-2.2-5,1.7-6
		c2.9-0.7,5.9-1.3,9.1,1.7c-3.3,0-5.8,0-8.4,0c-0.1,0.8-0.3,1.3-0.3,1.8c0.2,4.6-1.6,6-6,4.4c-3.9-1.4-5.7-4.9-4.7-9.4
		s5.1-8.3,8.8-7.9C1164.4,216.7,1165.5,217.8,1164.6,220.3z"/>
	<path class="st0" d="M1215.5,242.6c-0.9,1.2-1.6,1.9-2.9,3.5c0-4.6,0-8.2,0-11.9c0.3-0.1,0.6-0.1,0.9-0.2c0.3,1.3,0.6,2.7,1,4.4
		c2-0.4,3.4,0.1,3.5,2.8c0.4,6.1,0.9,6.3,6.6,4.1c0.1,1.9-0.6,2.7-2.9,3.1C1218.3,249,1217.3,248.2,1215.5,242.6z"/>
	<path class="st0" d="M1182.3,230.2c4.2,0,8.4,0,12.9,0C1192.6,232.1,1186.4,232.4,1182.3,230.2z"/>
	<path class="st0" d="M1192.6,225.7c-4,1.1-8,2-12.2,0.9c0-0.4-0.1-0.8-0.1-1.1c4.1-0.4,8.1-0.7,12.2-1.1
		C1192.6,224.8,1192.6,225.3,1192.6,225.7z"/>
	<path class="st0" d="M1081,228.7c1.6-3.1,4.2-2.7,6.5-2.1c4.8,1.1,8.4,4.1,10.5,8.6c2,4.2,1.7,8.4-1.6,11.9
		c-3.3,3.4-7.5,5.1-12.3,4.5c-2.7-0.4-2.9-2-0.5-4.5c0.3,0.4,0.6,0.8,0.9,1.1c0.5,0.5,1.1,1.1,1.6,1.6c0.5-0.7,1.5-1.3,1.4-1.9
		c-0.2-5.9-0.6-11.7-1.1-17.6c-0.1-0.7-1.5-1.6-2.4-1.8C1083.1,228.1,1082.1,228.5,1081,228.7z M1089.7,248.6c5.5-2,7.8-5,7.5-9.1
		c-0.3-4.4-3.6-8.4-8.7-9.9C1088.9,236,1089.3,242,1089.7,248.6z"/>
	<path class="st0" d="M1102.9,259.8c-0.7-1.3-1.4-2.5-2.2-3.9c-0.8,0.5-1.6,0.9-2.9,1.6c0-3.4,0-6.2,0-10
		C1100.5,251.8,1104.8,254.4,1102.9,259.8z"/>
	<path class="st0" d="M1117.9,251.2c1-0.9,2-1.7,3.7-3.2c0.5,4.7,0.8,8.4,0.3,12.1c-0.3,0-0.6,0-0.9,0.1c-0.7-2.9-1.5-5.9-2.2-8.8
		C1118.5,251.3,1118.2,251.2,1117.9,251.2z"/>
	<path class="st0" d="M838.4,311.3c1.6,1.4,2.4,2.2,3.8,3.4c0-5.2,0.1-9.7-0.1-14.3c0-0.6-1.7-1.5-2.6-1.7c-1.8-0.2-3.6,0.1-6.1,0.2
		c2.7-4,7.8-0.1,9.4-3.4c2.2,1.1,4.2,2.1,6.2,3c0.8,0.4,1.8,0.6,2.6,1c3,1.4,5.7,3.2,5.9,6.9c0.2,4-2.4,6.5-5.6,7.9
		c-2.9,1.2-6.1,1.9-9.2,2.2C840.1,316.8,838.1,315.4,838.4,311.3z M844.7,314c4,0.2,6.9-1.2,9.3-3.7c2.3-2.4,2-5.2-0.5-7.3
		c-2.5-2.1-5.4-3.2-8.8-3.1C844.7,304.7,844.7,309.3,844.7,314z"/>
	<path class="st0" d="M857.5,315.6c5.1,0.2,6.4,3.1,6.3,5.3c-0.1,2.2-2.1,4.3-4,4.2c-2.4-0.1-3.1-1.9-3.1-3.8
		C856.6,319.3,857.2,317.4,857.5,315.6z"/>
	<path class="st0" d="M1035.7,284.3c-0.3-0.7-0.7-1.4-0.9-2.1c-3.1-12.5-6.2-25-9.1-37.6c-0.9-3.9-1.6-7.8-2.3-11.7
		c-0.1-0.6,0.4-1.4,0.7-2.6c0.6,1,0.9,1.4,1,1.8c3.1,12.5,6.1,25.1,9.2,37.6c0.7,2.9,2.3,5.5,3,8.4c0.4,2-0.1,4.2-0.2,6.3
		C1036.7,284.3,1036.2,284.3,1035.7,284.3z"/>
	<path class="st0" d="M1033,223.3c4.7,15.3,9.1,30.7,12.2,46.4c-0.4,0.2-0.7,0.3-1.1,0.5c-0.5-1-1.2-2-1.5-3.1
		c-3.6-13.5-7.1-27-10.7-40.4c-0.3-1-0.3-2-0.5-3C1032,223.6,1032.5,223.5,1033,223.3z"/>
	<path class="st0" d="M1043.6,215.5c3.8,13.1,7.7,26.2,11.6,39.5c-2.4,0.6-2.8-1.4-3.3-3.1c-1.1-3.7-1.9-7.5-3-11.2
		c-2-7.1-4-14.1-6-21.1c-0.3-1.2-0.5-2.5-0.7-3.8C1042.7,215.7,1043.1,215.6,1043.6,215.5z"/>
	<path class="st0" d="M1016.7,251.4c0.4,0.9,1,1.7,1.3,2.6c2.5,8.7,5,17.4,7.5,26c0.6,1.9,1.5,3.6,2.1,5.5c0.2,0.7-0.4,1.5-0.6,2.3
		c-0.6-0.4-1.4-0.6-1.7-1.2c-0.4-0.6-0.6-1.5-0.8-2.2c-2.7-9.5-5.3-18.9-7.9-28.4c-0.4-1.4-0.6-2.9-0.9-4.3
		C1016,251.6,1016.3,251.5,1016.7,251.4z"/>
	<path class="st0" d="M1009.3,255.8c2.7,11.1,5.4,22.3,8.2,33.4c-2.8-1.8-9.4-27.4-9.3-33.1C1008.5,256,1008.9,255.9,1009.3,255.8z"
		/>
	<path class="st0" d="M1056.7,222.7c-1.8-3-2.6-6.3-2.6-9.8c0.4-0.1,0.8-0.2,1.2-0.3c0.9,3.3,1.7,6.5,2.6,9.8
		C1057.5,222.5,1057.1,222.6,1056.7,222.7z"/>
	<path class="st0" d="M912.4,210.8c2,0,4.1,0,6.1,0c1.8,0,3.7-0.2,5.5,0.3c1.4,0.3,2.6,1.4,3.8,2.3c2.2,1.4,4.7,2.7,6.5,4.5
		c3.5,3.4,3.3,7.8-0.8,10.5c-2.7,1.8-6,2.7-9.1,3.6c-0.7,0.2-1.9-0.6-2.7-1.2c-0.3-0.2-0.1-1.7,0-1.7c1.1-0.1,2.3-0.1,3.1-0.1
		c-0.4-3.9-0.9-8.1-1.1-12.3c-0.1-2.4-1.1-3.3-3.3-3.6c-2.7-0.3-5.4-0.7-8.1-1C912.4,211.7,912.4,211.2,912.4,210.8z M926.9,214.7
		c-0.4,0.3-0.8,0.6-1.3,1c0.1,2.6,0,5.3,0.5,7.8c0.4,1.8,1.5,3.4,2.3,5.2c1.8-1,3.8-1.8,5.2-3.1c1.6-1.5,1.7-3.8,0-5.3
		C931.7,218.1,929.2,216.5,926.9,214.7z"/>
	<path class="st0" d="M945.5,238.8c-3.9-2.5,0.3-8.1-6.2-8.8c2-1.4,3.4-2.5,5.5-4C945,230.2,945.3,234.1,945.5,238.8z"/>
	<path class="st0" d="M969.9,268.3c-3.8,0.2-6.4,0.3-10,0.5c5.2-3.7,16-3.1,19.7,0.5c3.5,3.4,3.1,9.3-0.8,12.3
		c-2.6,2-6.3,2.8-9.6,2.2C969.4,278.8,969.7,273.8,969.9,268.3z M972,281.9c5.8-0.8,8.5-3.4,8.1-7.5c-0.4-3.6-3.5-5.7-8.1-5.3
		C972,273.3,972,277.4,972,281.9z"/>
	<path class="st0" d="M983.2,295.1c3.1,0,5.5,0,7.9,0c0,0.4,0,0.8,0,1.1c-3.5,1.4-7.1,1-11.8,0.6c2.5-3.5,4.4-6.3,6.6-9.3
		c-1.4-0.8-2.3-1.4-3.4-2c0.3-0.4,0.5-0.9,0.8-0.9c3.6-0.3,5.1,1.6,3.6,4.8C986.1,291.1,984.8,292.6,983.2,295.1z"/>
	<path class="st0" d="M882,248.3c-0.1-1.2-0.5-2.2-0.2-2.8c1.5-3.3,3.3-6.5,4.9-9.8c1.2-2.5,2-2.7,3.8-0.4c1.2,1.4,2.4,2.9,3.4,4.4
		c3,4.5,2.2,6.3-3.2,7c-1.4,0.2-2.9,0.3-4.3,0.6C885.2,247.4,883.9,247.8,882,248.3z M893.3,244.2c0.2-0.4,0.3-0.8,0.5-1.2
		c-1.5-2-3-4-5-6.8c-1.4,3.2-2.3,5.5-3.7,8.7C888.5,244.6,890.9,244.4,893.3,244.2z"/>
	<path class="st0" d="M898.9,246.6c0.3-1.7-0.2-4.1,2.8-4.2c2.6-0.1,4.3,1.5,4.2,4.2c-0.1,2.3-0.7,4.3-3.5,4.5
		C900.1,251.2,898.9,249.7,898.9,246.6z"/>
	<path class="st0" d="M973,198.3c2.3,2.7,4.6,5.4,6.7,8.3c0.3,0.5-0.4,2.5-1.1,2.8c-2.3,0.9-4.8,1.7-7.2,2c-2,0.3-2.9-1.4-2.1-3.5
		C970.5,205,971.6,202,973,198.3z M978.3,208c-1.7-2-2.8-3.4-4.3-5.1c-1.1,2.4-2,4.1-2.8,5.9c0.2,0.2,0.5,0.4,0.7,0.6
		C973.7,209,975.5,208.6,978.3,208z"/>
	<path class="st0" d="M1094.5,297.5c-2.3-2.9-2.2-13.8-0.1-18.5C1095.5,284.8,1094.1,290.7,1094.5,297.5z"/>
	<path class="st0" d="M1102.5,277.3c0.1,1.4,0.2,2.7,0.3,4.1c0.2,2.3,0.6,4.7,0.7,7c0,0.7-0.5,1.5-0.8,2.3c-0.6-0.5-1.7-1-1.7-1.6
		c-0.1-3.9-0.1-7.8-0.1-11.7C1101.5,277.3,1102,277.3,1102.5,277.3z"/>
	<path class="st0" d="M1085.1,298.6c0.3-4.5,0.6-9,1-13.5c0.5,0,0.9,0.1,1.4,0.1c0.6,4.5-0.2,9-0.7,13.5
		C1086.2,298.6,1085.6,298.6,1085.1,298.6z"/>
</g>
</svg>
