<?xml version="1.0" encoding="utf-8"?>
<!-- Generator: Adobe Illustrator 24.1.1, SVG Export Plug-In . SVG Version: 6.00 Build 0)  -->
<svg version="1.1" id="Слой_1" xmlns="http://www.w3.org/2000/svg" xmlns:xlink="http://www.w3.org/1999/xlink" x="0px" y="0px"
	 viewBox="0 0 841.89 595.28" style="enable-background:new 0 0 841.89 595.28;" xml:space="preserve">
<style type="text/css">
	.st0{fill:#424F6F;}
</style>
<g>
	<path class="st0" d="M203.5,197.44c-0.16,0.93-0.21,1.9-0.53,2.79c-0.21,0.55-0.76,1.17-1.33,1.38c-0.31,0.11-0.98-0.55-1.58-0.93
		c0.38,2.02,0.8,4.06,1.15,6.12c0.14,0.81,0.73,0.75,1.37,0.79c4.32,0.24,8.65,0.49,12.97,0.76c0.53,0.03,1.05,0.21,1.57,0.33
		c0.03,0.17,0.05,0.34,0.08,0.5c-0.55,0.15-1.13,0.49-1.66,0.43c-2.49-0.25-4.96-0.72-7.45-0.91c-2.09-0.16-4.22-0.03-6.43-0.03
		c-0.06,0.15-0.19,0.49-0.43,1.1c-0.91-2.14-2.77-1.4-4.26-1.46c-3.75-0.16-7.51-0.14-11.26-0.22c-0.47-0.01-0.92-0.13-1.37-0.47
		c5.31-0.5,10.61-0.25,15.7-0.18c-0.29-3.39-0.57-6.7-0.85-10.01c0.48,0,0.96,0,1.44,0c0.24,1.07,0.49,2.14,0.73,3.21
		c0.19,0,0.38,0,0.57,0c0.24-1.07,0.48-2.14,0.72-3.21C202.92,197.44,203.21,197.44,203.5,197.44z"/>
	<path class="st0" d="M430.9,398.48c-0.1-1.42-0.17-2.84-0.29-4.26c-0.1-1.28-0.24-2.57-0.37-3.91c-2.12,0.12-4.15,0.24-6.18,0.35
		c-0.03-0.24-0.05-0.47-0.08-0.71c2.03-0.2,4.05-0.4,6.18-0.62c0-0.6,0.01-1.15,0-1.69c-0.08-3.32-0.56-6.66,0.76-9.89
		c0.07-0.16,0.1-0.37,0.23-0.47c0.5-0.38,1.03-0.71,1.55-1.06c0.43,0.73,0.88,1.46,1.28,2.2c0.02,0.03-0.25,0.27-0.39,0.28
		c-0.14,0.01-0.37-0.12-0.44-0.24c-0.24-0.4-0.42-0.83-0.64-1.27c-1.8,1.37-1.73,7.22-1.21,11.92c1.3,0,2.61,0,3.93,0
		c0.03,0.17,0.05,0.34,0.08,0.51c-1.29,0.18-2.58,0.37-4.08,0.58c0.14,1.54,0.34,3.07,0.4,4.6c0.04,1.22-0.1,2.45-0.16,3.68
		C431.28,398.48,431.09,398.48,430.9,398.48z"/>
	<path class="st0" d="M526.25,398.48c-0.58-2.49-1.15-4.98-1.74-7.52c-1.68,0-3.28,0-4.91,0c0.32-0.85,0.58-0.98,1.95-0.99
		c0.85-0.01,1.7,0,2.74,0c-0.08-0.95-0.15-1.84-0.24-2.73c-0.27-2.83-0.19-5.62,1.21-8.26c0.14-0.27,0.29-0.56,0.49-0.79
		c0.53-0.62,1.12-1.41,2.1-0.86c0.93,0.52,1.31,1.39,0.61,2.52c-0.34-0.58-0.68-1.16-1.1-1.87c-1.56,1.08-2.03,2.6-2.16,4.03
		c-0.22,2.36-0.05,4.74-0.03,7.11c0.01,0.73,0.51,0.92,1.25,0.87c0.84-0.05,1.68-0.01,2.53-0.01c0.01,0.21,0.03,0.42,0.05,0.63
		c-1.11,0.14-2.22,0.27-3.55,0.43c0.66,2.49,1.3,4.96,1.95,7.43C527.02,398.48,526.64,398.48,526.25,398.48z"/>
	<path class="st0" d="M406.63,398.48c-4.97-4.07-5.46-9.28-4.53-14.8c0.49-2.93,1.64-5.68,3.37-8.21c0.38-0.55,0.79-1.11,1.32-1.53
		c0.34-0.27,0.91-0.3,1.38-0.44c-0.24,0.34-0.49,0.67-0.71,1.01c-1.04,1.64-2.33,3.21-3.05,4.96c-2.11,5.09-2.78,10.28,0.18,15.31
		c0.82,1.39,2.3,2.47,3.48,3.69C407.59,398.48,407.11,398.48,406.63,398.48z"/>
	<path class="st0" d="M544.46,398.48c-2.78-0.52-3.95-2.4-4.71-4.58c-2.08-5.96-2.04-11.84,1.07-17.54
		c0.45-0.82,1.21-1.55,1.98-2.18c0.29-0.23,1.01-0.04,1.57,0.2c-2.08,0.52-2.68,2.08-3.29,3.47c-2.46,5.64-2.4,11.31,0.11,16.94
		c0.63,1.42,1.56,2.59,3.49,2.72c0.82,0.06,0.8,0.48,0.36,0.98C544.84,398.48,544.65,398.48,544.46,398.48z"/>
	<path class="st0" d="M594.16,398.48c0.85-2.41,1.94-4.79,2.5-7.25c0.68-2.98-0.21-5.84-1.83-8.5c-1.29-2.13-2.61-4.24-3.85-6.39
		c-0.65-1.13-0.48-1.49,0.37-1.76c0.51,1.04,0.94,2.07,1.51,3.06c1.06,1.84,2.25,3.63,3.27,5.49c2.71,4.9,1.85,9.74-0.48,14.52
		c-0.13,0.27-0.22,0.55-0.33,0.83C594.93,398.48,594.54,398.48,594.16,398.48z"/>
	<path class="st0" d="M665.53,398.48c-0.67-1.08-1.51-2.1-1.99-3.25c-2.31-5.53-1.75-11.02,0.67-16.4c0.35-0.77,1.17-1.37,1.96-1.96
		c-3.77,7.38-5.13,14.6,0.81,21.61C666.49,398.48,666.01,398.48,665.53,398.48z"/>
	<path class="st0" d="M673.33,386c-0.77-1.52-1.36-1.61-2.78-0.43c-2.41,1.99-1.55,6.05,1.6,7.51c0.38,0.18,0.79,0.31,1.18,0.46
		c0,0.26,0,0.52,0,0.78c-2.81-0.45-4.28-2.16-4.97-4.48c-0.63-2.13,0.07-3.93,2.03-5.29c0.9-0.62,1.86-0.89,2.94-0.38
		C673.33,384.78,673.33,385.39,673.33,386z"/>
	<path class="st0" d="M644.01,393.72c1.38,0.58,2.5,1.23,3.71,1.52c1.12,0.27,2.36,0.17,3.57,0.24c-1.19,1.56-3.88,1.13-7.56-1.06
		c-1.75,0.58-3.31,1.32-4.96,1.59c-2.99,0.49-5.35-0.68-7.05-2.89c-0.91-1.18-0.89-2.49-0.06-3.37c1.07-1.14,2.72-1.56,4.15-0.81
		c1.3,0.68,2.43,1.63,3.86,2.61c-0.3-2.5-0.58-4.92-0.88-7.33c-0.44-3.53-0.91-7.05-1.32-10.58c-0.05-0.46,0.13-0.95,0.2-1.43
		c0.18,0.01,0.35,0.03,0.53,0.04c0.93,7.39,1.85,14.78,2.8,22.33c0.54-0.31,1.08-0.61,1.7-0.97c-1.24-1.48-2.09-3.03-1.75-4.84
		c0.14-0.74,0.39-1.63,0.96-2.08c0.67-0.53,1.76-0.94,2.64-0.9c1.15,0.05,1.49,1.1,1.62,2.04
		C646.48,389.95,645.77,391.83,644.01,393.72z M639.76,394.92c-0.12-2.02-2.64-4.99-4.8-5.31c-0.79-0.12-1.95,0.25-2.49,0.78
		c-0.39,0.38-0.31,1.51,0.02,2.09C633.81,394.82,636.67,395.71,639.76,394.92z M643.44,392.91c1.45-1.46,2.09-3.05,1.8-4.85
		c-0.09-0.54-0.61-1.36-1.07-1.44c-0.51-0.09-1.27,0.43-1.72,0.86c-0.36,0.34-0.51,0.92-0.58,1.42
		C641.69,390.39,642.24,391.69,643.44,392.91z"/>
	<path class="st0" d="M322.92,382.61c1.57-0.25,2.97-0.54,4.4-0.68c0.88-0.08,1.17-0.37,1.33-1.16c0.58-2.76,1.28-5.49,1.96-8.23
		c0.09-0.35,0.32-0.67,0.48-1.01c0.18,0.03,0.37,0.05,0.55,0.08c-0.06,0.45-0.09,0.91-0.19,1.35c-0.64,2.79-1.3,5.57-1.94,8.36
		c-0.03,0.11,0.04,0.24,0.12,0.61c1.87,0,3.77,0,5.67,0c0.01,0.16,0.02,0.33,0.03,0.49c-0.4,0.07-0.8,0.19-1.21,0.2
		c-1.25,0.03-2.51-0.03-3.75,0.06c-0.38,0.03-1.04,0.46-1.03,0.7c0.08,2.28,0.19,4.56,0.48,6.83c0.13,1,0.8,1.93,2.07,2.08
		c1.3,0.15,1.99-0.65,2.48-1.62c0.08-0.16,0.31-0.27,0.47-0.4c0.15,0.06,0.3,0.12,0.45,0.18c-0.25,0.54-0.37,1.18-0.76,1.61
		c-0.79,0.86-1.81,1.47-3.15,1.06c-1.29-0.39-2.17-1.27-2.39-2.41c-0.36-1.86-0.51-3.76-0.7-5.65c-0.07-0.72-0.01-1.46-0.01-2.39
		c-1.8,0.28-3.52,0.54-5.31,0.81c-0.39,2.22-1.68,3.86-3.89,4.97c0.98,1.2,2.26,1.76,3.77,2.05c1.76,0.35,2.59-0.66,3.31-1.94
		c0.59,1.12,0.02,2.31-1.27,2.61c-0.93,0.21-2.03,0.24-2.95,0.01c-3.89-0.97-6.88-4.89-4.64-9.02c0.51-0.94,1.26-1.67,2.52-1.67
		c1.26,0,2.2,0.52,2.76,1.56C322.67,382.22,322.79,382.4,322.92,382.61z M318.32,387.58c2.04-0.65,3.53-2.39,3.6-4.1
		c0.04-1.09-0.53-1.86-1.69-2.12c-1.1-0.25-1.72,0.43-2.1,1.22C317.35,384.23,317.14,385.9,318.32,387.58z"/>
	<path class="st0" d="M254.11,327.62c0.13,0.21,0.36,0.41,0.39,0.63c0.74,5.24,3.4,9.88,5.6,14.66c2.87,6.23,5.91,12.4,7.63,19
		c1.72,6.6,2.12,13.18-0.63,19.66c-0.49,1.16-1.22,2.25-1.87,3.36c-0.12,0.21-0.39,0.46-0.62,0.49c-0.27,0.03-0.62-0.12-0.85-0.28
		c-0.1-0.07-0.1-0.48,0.02-0.56c2.48-1.73,2.9-4.36,3.56-6.83c1.63-6.12,0.84-12.2-1.32-18.03c-2.4-6.47-5.39-12.75-8.07-19.13
		c-1.39-3.31-2.72-6.64-3.98-10c-0.34-0.91-0.3-1.93-0.43-2.9C253.72,327.66,253.92,327.64,254.11,327.62z"/>
	<path class="st0" d="M179.9,384.11c-0.41,0.19-0.83,0.52-1.25,0.52c-0.28,0-0.71-0.41-0.84-0.71c-2.8-6.86-5.7-13.7-6.75-21.02
		c-1.02-7.1-0.77-14.19,0.55-21.23c0.99-5.28,2.34-10.51,3.55-15.76c0.05-0.21,0.25-0.39,0.76-0.54c0,0.58,0.11,1.19-0.02,1.75
		c-1,4.32-2.16,8.61-3.05,12.94c-2.72,13.2-1.68,26.12,3.84,38.67c0.55,1.25,1.01,2.53,1.58,3.76c0.21,0.45,0.65,0.81,0.99,1.21
		C179.47,383.85,179.68,383.98,179.9,384.11z"/>
	<path class="st0" d="M315.54,221.5c0.41,2.89,0.82,5.79,1.23,8.69c1.32-2.36,0.88-7.58-0.5-9.68c-0.27-0.4-0.95-0.97-1.23-0.89
		c-0.54,0.17-1.25,0.69-1.34,1.15c-0.31,1.6-0.66,3.27-0.49,4.87c0.39,3.66,1.12,7.28,1.61,10.93c0.53,3.96,0.93,7.92,1.39,11.89
		c0.1,0.89,0.24,1.77,0.36,2.66c-0.21,0.04-0.41,0.08-0.62,0.11c-0.2-0.56-0.51-1.11-0.58-1.69c-0.52-4.22-0.93-8.45-1.48-12.66
		c-0.46-3.48-1.21-6.93-1.57-10.41c-0.19-1.86,0.1-3.78,0.36-5.66c0.15-1.07,0.88-2,2.2-2.1c1.38-0.11,2.02,0.83,2.48,1.83
		c1.57,3.37,1.41,6.85,0.75,10.34c-0.07,0.35-0.54,0.64-0.82,0.96c-0.31-0.28-0.74-0.51-0.9-0.86c-1.33-2.81-1.46-5.8-1.55-8.79
		c-0.01-0.22,0.19-0.45,0.29-0.68C315.27,221.51,315.41,221.51,315.54,221.5z"/>
	<path class="st0" d="M521.05,228.21c-0.38,0.31-0.6,0.48-0.81,0.65c-0.72,0.61-1.63,1.33-2.51,0.74c-0.68-0.47-1.23-1.48-1.23-2.26
		c-0.01-1.17,0.29-2.43,0.87-3.47c0.91-1.62,3.12-1.59,3.97,0.05c0.59,1.14,0.79,2.46,1.05,3.72c0.26,1.28,0.37,2.59,0.55,3.95
		c0.88-0.29,1.99-0.53,1.49,0.4c-1.14,2.11,0.24,3.96,0.28,5.92c0.04,2.02,0.28,4.06,0.1,6.06c-0.1,1.11-0.73,2.24-1.39,3.22
		c-1.15,1.72-3.24,1.66-4.14-0.2c-0.54-1.12-0.67-2.52-0.57-3.76c0.24-2.93,1.57-5.61,3.12-8.15c0.74-1.21,0.89-2.27,0.36-3.53
		C521.74,230.52,521.45,229.43,521.05,228.21z M523.23,235.19c-0.16-0.04-0.33-0.08-0.49-0.12c-0.77,1.66-1.73,3.27-2.24,4.99
		c-0.53,1.76-0.77,3.63-0.8,5.45c-0.01,0.65,1,1.3,1.54,1.95c0.58-0.44,1.38-0.78,1.7-1.33
		C525.05,242.53,523.77,238.85,523.23,235.19z M517.34,226.71c0,1.66,0.58,2.37,1.38,2.13c1.92-0.57,2.9-3.01,1.82-4.5
		c-0.68-0.94-1.82-1-2.38,0C517.68,225.2,517.51,226.2,517.34,226.71z"/>
	<path class="st0" d="M450.7,219.45c-1.15,1.4-1.24,2.92-1.31,4.41c-0.19,4.36,0.63,8.63,1.55,12.88c0.77,3.57,1.6,7.12,2.39,10.69
		c0.09,0.39,0.06,0.8,0.1,1.52c-0.49-0.35-0.81-0.46-0.85-0.62c-1.68-8.07-4.31-16.01-4.12-24.33c0.03-1.36,0.31-2.77,0.82-4.05
		c0.27-0.69,1.26-1.53,1.98-1.58c0.71-0.05,1.77,0.67,2.2,1.32c2.06,3.11,2.31,6.55,1.89,10.05c-0.05,0.38-0.54,0.72-0.83,1.08
		c-0.29-0.35-0.74-0.67-0.86-1.06c-0.88-3.06-1.7-6.12-2.55-9.19C451.03,220.24,450.88,219.93,450.7,219.45z M451.86,219.5
		c0.82,3.11,1.64,6.21,2.46,9.32C454.6,225.48,454.4,222.24,451.86,219.5z"/>
	<path class="st0" d="M410.83,248.96c-0.18-0.34-0.42-0.67-0.52-1.03c-1.82-6.7-3.03-13.5-3.02-20.41c0-2.3,0.07-4.69,1.47-6.8
		c1.33-2,3.19-2.08,4.58-0.09c1.48,2.13,1.78,4.56,1.82,6.99c0.02,1.28-0.28,2.57-0.55,3.83c-0.07,0.32-0.58,0.71-0.96,0.79
		c-0.25,0.05-0.83-0.36-0.91-0.65c-0.72-2.59-1.38-5.2-2.02-7.8c-0.05-0.22,0.18-0.49,0.58-0.73c0.68,2.66,1.36,5.33,2.04,7.99
		c0.18-0.03,0.37-0.06,0.55-0.1c0.57-3.42,0.56-6.81-1.46-9.95c-0.88-1.36-1.91-1.27-2.8,0.11c-1.37,2.12-1.35,4.5-1.34,6.82
		c0.02,6.57,1.19,13.01,2.84,19.39c0.13,0.49,0.14,1.01,0.21,1.52C411.16,248.89,411,248.93,410.83,248.96z"/>
	<path class="st0" d="M371.16,356.21c-0.84-6.37-2.98-12.17-3.14-18.2c0.2-0.03,0.39-0.06,0.59-0.08
		c1.17,5.97,2.34,11.95,3.56,18.12c0.69-0.46,1.14-0.75,1.63-1.08c-0.92-1.58-1.57-3.14-0.02-4.6c0.41-0.39,1.2-0.82,1.65-0.71
		c0.42,0.1,0.91,0.92,0.88,1.4c-0.09,1.3-0.44,2.57-0.72,4.01c1.45,1.08,2.45,1.07,3.98-0.23c0.13,0.03,0.26,0.07,0.39,0.1
		c-0.16,0.43-0.2,0.95-0.5,1.26c-0.8,0.83-2.67,0.59-4.99-0.57c-1.83,1.31-3.87,2.34-6.32,1.74c-1.16-0.28-2.26-0.89-3.29-1.49
		c-0.81-0.48-1.07-1.4-0.39-2.03c0.46-0.43,1.49-0.75,2.08-0.58c1.05,0.3,1.99,0.98,2.93,1.55
		C370,355.13,370.4,355.57,371.16,356.21z M369.79,356.59c0.06-0.12,0.13-0.24,0.19-0.36c-1.16-0.72-2.3-1.48-3.51-2.14
		c-0.26-0.14-0.77,0.1-1.16,0.16c0.1,0.38,0.07,0.89,0.34,1.11C366.81,356.33,368.2,356.78,369.79,356.59z M374.47,353.94
		c1.1-1.12,1.29-2.2,0.59-3.42C373.64,351.59,373.47,352.52,374.47,353.94z"/>
	<path class="st0" d="M339.06,272.59c1.24,6.19,1.8,12.15,1.73,18.14c-0.17,0.04-0.34,0.08-0.5,0.12c-0.15-0.36-0.42-0.72-0.42-1.08
		c-0.07-5.9-0.61-11.75-1.88-17.54c-0.09-0.41-0.01-0.84-0.01-1.26c0.13-0.02,0.26-0.04,0.39-0.07c0.25,0.28,0.49,0.56,0.76,0.87
		c1.88-0.6,3.75-1.26,5.67-1.8c0.99-0.28,2.06-0.42,3.1-0.48c2.23-0.14,3.43,0.68,3.8,2.7c0.29,1.62,0.45,3.27,0.51,4.9
		c0.17,4.71,0.27,9.43,0.39,14.14c0.01,0.34,0.02,0.75-0.17,0.99c-0.21,0.25-0.66,0.34-1.01,0.5c0.02-0.29,0.03-0.57,0.07-0.86
		c0.05-0.33,0.21-0.67,0.2-0.99c-0.26-6.01-0.48-12.02-0.83-18.02c-0.12-2.12-1.22-2.93-3.54-2.48
		C344.52,270.92,341.82,271.83,339.06,272.59z"/>
	<path class="st0" d="M268.98,272.41c0.11,0.44,0.22,0.88,0.31,1.27c1.93-0.57,3.83-1.27,5.8-1.69c3.49-0.75,5.61,0.61,5.8,3.83
		c0.26,4.54,0.28,9.09,0.41,13.63c0.03,1.19,0.13,2.38,0.19,3.57c-0.18,0.04-0.36,0.08-0.53,0.12c-0.19-0.56-0.52-1.12-0.54-1.69
		c-0.15-4.76-0.21-9.53-0.36-14.29c-0.03-0.85-0.18-1.73-0.46-2.54c-0.56-1.58-1.62-2.31-3.37-1.92c-2.21,0.49-4.33,1.31-6.47,2.06
		c-0.28,0.1-0.56,0.6-0.56,0.91c0.04,5.07,0.12,10.13,0.2,15.2c0,0.21,0,0.56,0.12,0.61c1.67,0.76,0.12,1.43,0.2,2.13
		c-0.19,0.04-0.38,0.08-0.56,0.11c-0.22-0.5-0.62-0.99-0.63-1.5c-0.13-6.28-0.21-12.56-0.29-18.84c0-0.34,0.16-0.68,0.24-1.01
		C268.65,272.39,268.81,272.4,268.98,272.41z"/>
	<path class="st0" d="M353.03,223.03c-0.18,1.17-0.64,2.68-0.62,4.19c0.1,7.2,0.82,14.34,2.74,21.36c0.06,0.21,0.17,0.41,0.2,0.62
		c0.04,0.32,0.03,0.64,0.04,0.96c-0.33-0.24-0.86-0.43-0.95-0.73c-0.53-1.79-1.15-3.59-1.37-5.43c-0.64-5.42-1.24-10.85-1.57-16.29
		c-0.13-2.16-0.01-4.47,1.42-6.4c0.43-0.58,1.39-1.35,1.9-1.25c0.68,0.14,1.42,0.99,1.67,1.66c1.08,2.89,0.95,5.89,0.68,8.88
		c-0.04,0.39-0.5,0.75-0.76,1.13c-0.32-0.28-0.82-0.52-0.93-0.86C354.61,228.21,353.8,225.52,353.03,223.03z M355.71,229.97
		c0.21-0.03,0.42-0.06,0.63-0.08c0-1.46,0.12-2.94-0.03-4.38c-0.15-1.36-0.56-2.7-0.93-4.03c-0.07-0.24-0.52-0.39-0.79-0.58
		c-0.08,0.29-0.23,0.58-0.23,0.87c-0.01,0.6,0,1.22,0.11,1.81C354.85,225.71,355.29,227.84,355.71,229.97z"/>
	<path class="st0" d="M594.35,273.43c0.75-1.99,2.88-2.87,5.34-3.15c2.45-0.27,4.03,0.75,4.53,2.92c0.51,2.19,0.93,4.43,1.1,6.66
		c0.24,3.24,0.24,6.49,0.31,9.74c0.01,0.41-0.17,0.83-0.26,1.25c-0.16,0-0.32,0-0.49,0c-0.08-0.46-0.21-0.91-0.24-1.37
		c-0.23-4.41-0.4-8.82-0.69-13.23c-0.07-1.06-0.4-2.14-0.77-3.16c-0.57-1.61-2.06-2.41-3.84-1.94c-2.2,0.58-3.74,1.01-3.5,3.75
		c0.44,5.05,0.64,10.12,0.93,15.18c0.02,0.43-0.05,0.87-0.08,1.3c-0.15,0.02-0.3,0.04-0.45,0.07c-0.12-0.3-0.34-0.6-0.36-0.9
		c-0.32-4.93-0.59-9.86-0.92-14.79C594.92,275.08,594.62,274.43,594.35,273.43z"/>
	<path class="st0" d="M500.26,350.94c-0.43,0.05-0.9,0.21-1.29,0.12c-2.54-0.6-4.57-0.19-5.95,2.04c-0.99,1.59-2.21,3.08-3.55,4.92
		c4.1,0.74,7.71-0.09,11.39,0.51c-0.35,0.15-0.7,0.42-1.06,0.43c-2.88,0.11-5.76,0.22-8.65,0.22c-1.99,0-2.66-0.82-1.77-2.36
		c1.16-2.01,2.61-3.89,4.06-6.01c-1.58,0.08-3.17,0.16-4.85,0.25c-0.23-0.56-0.14-0.81,0.74-0.94c0.89-0.13,1.84-0.25,2.72-0.13
		c1.96,0.29,3.37-0.3,4.33-1.82c0.83-1.31,1.78-2.56,2.45-3.93c0.6-1.24,0.18-1.75-1.33-1.63c-1.61,0.13-3.19,0.56-4.79,0.84
		c-0.45,0.08-0.91,0.11-1.51-0.09c0.19-0.19,0.35-0.51,0.58-0.56c1.82-0.38,3.63-0.86,5.48-1.01c2.51-0.2,3.39,0.84,2.41,2.91
		c-0.74,1.57-1.91,2.97-2.89,4.45c-0.14,0.21-0.32,0.41-0.56,0.72c1.41,0.18,2.71,0.34,4.01,0.5
		C500.24,350.57,500.25,350.75,500.26,350.94z"/>
	<path class="st0" d="M235.89,219.67c-6.61,7.99-13.55,15.46-18.46,24.35c2.21,0.14,4.04-1.38,5.91-0.38
		c0.01,0.13,0.02,0.26,0.03,0.39c-2.13,0.34-4.26,0.72-6.4,1c-1.01,0.13-1.21-0.53-1.08-1.27c0.26-1.58,0.58-3.16,0.83-4.74
		c0.14-0.86,0.18-1.72,0.58-2.57c0.83,1.88,0.01,3.74-0.07,5.56c2.11-2.94,4.13-5.99,6.4-8.88c3.24-4.14,6.64-8.18,10.04-12.22
		C234.12,220.36,234.51,219.46,235.89,219.67z"/>
	<path class="st0" d="M312.34,387c-0.72-5.12-1.34-10.52-0.9-15.97c0-0.04,0.24-0.07,0.4-0.11c0.62,6.58,1.23,13.13,1.88,20.05
		c-0.54-0.68-0.94-1.1-1.23-1.58c-0.83-1.36-1.8-2.6-3.59-2.98c-0.55-0.12-1.41-0.15-1.71,0.14c-0.32,0.3-0.21,1.04-0.15,1.57
		c0.03,0.31,0.3,0.63,0.53,0.9c1.64,1.92,6.28,2.75,8.7,1.6c0.21-0.1,0.55,0.01,0.83,0.03c-0.17,0.31-0.3,0.85-0.52,0.89
		c-1.36,0.21-2.74,0.48-4.1,0.39c-2.08-0.13-4.09-0.7-5.51-2.21c-0.5-0.54-0.87-1.26-1.04-1.95c-0.39-1.57,0.67-2.65,2.4-2.29
		C309.77,385.77,311.09,386.5,312.34,387z"/>
	<path class="st0" d="M192.47,236.39c0,1.69,0.03,3.39-0.05,5.08c-0.01,0.15-0.88,0.5-1.07,0.38c-2.19-1.35-4.32-2.78-6.69-4.32
		c1.53-0.71,1.96,0.3,2.62,0.68c0.76,0.43,1.44,0.99,2.49,1.74c-0.36-0.86-0.52-1.39-0.78-1.87c-3-5.52-5.92-11.06-9.07-16.51
		c-0.89-1.55-2.43-2.79-3.65-4.19c-0.14-0.16-0.09-0.44-0.13-0.67c0.34,0.01,0.84-0.12,1,0.04c1.04,1.06,2.24,2.07,2.95,3.3
		c2.96,5.14,5.77,10.36,8.61,15.55c0.92,1.69,1.76,3.42,2.77,5.39c0.11-1.68-0.41-3.26,0.41-4.64
		C192.08,236.36,192.27,236.38,192.47,236.39z"/>
	<path class="st0" d="M256.31,211.51c0,1.09,0,2.19,0,3.3c0,1.98,0.11,3.96-0.05,5.93c-0.08,0.98-0.63,2.05-2.06,1.94
		c-1.4-0.1-2.01-1.06-2.21-2.22c-0.44-2.47,0.68-4.57,1.97-6.63c1.02-1.62,1.04-2.23,0.19-3.8c-0.88,0.12-1.92,0.54-2.38,0.24
		c-0.55-0.36-0.83-1.34-0.81-2.04c0.03-0.92,0.35-1.88,0.79-2.72c0.26-0.49,1.01-0.79,1.53-1.17c0.35,0.52,0.86,1.01,1.03,1.58
		c0.43,1.45,0.66,2.95,1.07,4.41C255.52,210.75,255.98,211.09,256.31,211.51z M255.51,214.14c-0.19-0.01-0.38-0.02-0.58-0.03
		c-1.19,1.77-2.28,3.61-1.99,5.76c0.09,0.69,0.82,1.32,1.26,1.97c0.44-0.6,1.19-1.18,1.25-1.81
		C255.61,218.08,255.51,216.11,255.51,214.14z M253.05,205.44c-1.25,1.36-1.49,2.87-0.68,4.16
		C253.62,208.84,253.92,206.97,253.05,205.44z"/>
	<path class="st0" d="M461.6,275.99c0.08,0.3,0.23,0.6,0.23,0.89c-0.02,3.75,0.36,7.53-1.1,11.18c-0.14,0.34,0.01,0.85,0.2,1.2
		c0.42,0.77,1.01,1.47,1.43,2.25c0.21,0.37,0.21,0.84,0.3,1.27c-0.16,0.04-0.32,0.08-0.47,0.12c-0.73-1.08-1.46-2.16-1.96-2.9
		c-0.79,0.57-1.64,1.2-2.51,1.79c-2.42,1.67-5.06,0.76-5.57-1.94c-0.33-1.76,0.02-3.45,1.01-5c0.81-1.27,2.12-1.62,3.4-0.74
		c1.23,0.85,2.21,1.98,3.42,3.09c1.34-3.61,0.76-7.45,1.03-11.19C461.21,276.01,461.41,276,461.6,275.99z M455.28,291.77
		c1.29,0,3.79-1.9,3.97-3.05c0.03-0.19-0.01-0.45-0.14-0.6c-0.86-1.03-1.64-2.13-2.65-3.03c-1.04-0.92-2.2-0.74-2.59,0.49
		c-0.47,1.45-0.63,3.02-0.64,4.54C453.22,291.11,454.13,291.68,455.28,291.77z"/>
	<path class="st0" d="M199.91,376.36c-0.3,0-0.67,0.1-0.89-0.02c-1.14-0.64-2.36-1.21-3.32-2.02c-1.43-1.22-1.41-3.25-0.18-4.61
		c1.15-1.27,2.88-1.49,4.69-0.61c2.74,1.33,4.85,5.2,4.31,7.97c-0.4,2.05-1.65,3.49-3.92,4.07c-2.14,0.55-4.94-0.42-6.41-2.14
		c-1.1-1.29-1.59-2.75-1.43-4.38c0.09-0.91,0.25-1,1.32-0.98c-0.86,2.64,0.16,4.94,2.74,6.17c3.33,1.59,6.76-0.17,6.78-3.55
		c0.01-2.42-1.12-4.46-3.19-6.01c-1.51-1.13-3.1-1.08-4.11-0.01c-1.1,1.16-0.92,2.78,0.57,3.89c0.97,0.72,2.1,1.27,3.16,1.9
		C199.99,376.15,199.95,376.25,199.91,376.36z"/>
	<path class="st0" d="M396.74,290.48c-0.62,1.22-2.24,1.9-3.54,1.57c-3.05-0.77-5.65-2.15-7.13-4.83c-1.38-2.48-0.5-5.09,2.2-6.44
		c2.61-1.31,5.71-1.12,7.99,0.5c1.8,1.27,1.62,2.69-0.41,3.62c-2.7,1.24-5.54,1.22-8.43,0.87c-0.22-0.03-0.45-0.07-0.85-0.13
		c0.54,2.26,2.17,3.49,4.07,4.55C392.57,291.28,394.57,291.59,396.74,290.48z M385.97,284.61c3.54,0.69,6.46,0.79,9.29-0.42
		c1.58-0.68,1.65-1.38,0.22-2.34c-2.13-1.43-5.55-1.41-7.5,0.17C387.22,282.64,386.77,283.56,385.97,284.61z"/>
	<path class="st0" d="M357.43,386.11c-2.25-0.64-4.42-0.44-6.76,0.43c0.57,0.57,1.1,0.99,1.49,1.49c0.82,1.05,1.71,2.09,2.3,3.25
		c0.29,0.56,0.24,1.6-0.16,2.01c-0.42,0.42-1.5,0.54-2.22,0.43c-2.12-0.33-3.76-1.36-4.93-3.06c-2.61-3.8-0.81-9.84,3.58-11.86
		c1.8-0.83,2.76-0.72,3.55,0.42c-0.06,0.06-0.13,0.19-0.17,0.18c-2.83-0.64-4.52,0.8-5.88,2.7c-2.35,3.29-1.51,8.02,1.81,9.99
		c0.74,0.44,1.66,0.68,2.53,0.86c0.99,0.2,1.54-0.39,1.08-1.22c-0.61-1.1-1.44-2.12-2.22-3.14c-0.35-0.46-0.87-0.81-1.26-1.25
		c-0.66-0.74-0.54-1.53,0.47-1.72c1.85-0.35,3.76-0.5,5.66-0.62c0.43-0.03,0.89,0.44,1.34,0.68
		C357.56,385.82,357.5,385.97,357.43,386.11z"/>
	<path class="st0" d="M197.33,287.6c0.22,2.19,1.38,3.87,3.55,4.53c1.96,0.6,4.13,0.63,6.35,0.93c-0.28,0.15-0.66,0.48-1.09,0.56
		c-5.02,0.89-9.27-1.8-10.03-6.32c-0.35-2.07,1.14-4.98,3.09-6.03c2.01-1.08,4.99-0.83,7.05,0.58c1.43,0.98,1.72,2.42,0.29,3.4
		c-1.31,0.91-2.99,1.49-4.6,1.91C200.53,287.52,198.99,287.46,197.33,287.6z M197.18,286.6c2.46,0.14,4.77-0.12,6.98-0.89
		c0.64-0.22,1.25-0.64,1.75-1.09c0.82-0.73,0.68-1.53-0.26-2.07c-1.71-0.99-3.55-1.61-5.56-0.73
		C197.94,282.77,197.27,284.49,197.18,286.6z"/>
	<path class="st0" d="M306.55,337.39c1.03,6.63,2.05,13.27,3.1,20.02c-2.15,0-4.09,0.07-6.02-0.04c-0.71-0.04-1.47-0.42-2.08-0.81
		c-0.91-0.58-1.35-1.56-0.82-2.39c0.38-0.59,1.36-1.1,2.14-1.19c1.78-0.22,3.44,0.22,4.63,1.59c0.17,0.2,0.41,0.36,0.62,0.53
		c0.03,0.02,0.09-0.01,0.22-0.02c-0.66-5.89-2.57-11.66-2.3-17.64C306.22,337.43,306.39,337.41,306.55,337.39z M307.95,356.6
		c-1.12-1.8-2.57-2.94-4.84-2.8c-0.52,0.03-1.39,0.42-1.44,0.73c-0.07,0.47,0.28,1.25,0.72,1.48
		C304.09,356.89,305.95,357.01,307.95,356.6z"/>
	<path class="st0" d="M219.1,285.15c2.12,0.79,4.24,0.58,6.3-0.1c0.48-0.16,1-0.76,1.07-1.2c0.06-0.38-0.39-1.07-0.8-1.24
		c-1.79-0.73-3.7-0.67-5.45,0.05c-1.71,0.7-2.85,1.96-2.84,3.75c0.01,2.73,1.58,4.66,4.13,5.96c1.89,0.96,3.93,1.36,6.12,0.97
		c0.29-0.05,0.64,0.12,0.96,0.18c-0.25,0.21-0.46,0.55-0.75,0.62c-4.52,1.08-11.67-2.12-11.4-7.99c0.09-1.96,1.33-3.34,3.17-4.19
		c1.96-0.9,4.07-0.95,6.16-0.31c1.1,0.34,1.7,1.09,1.72,2.17c0.01,1.13-0.71,1.9-1.8,2.07c-1.87,0.29-3.79,0.38-5.69,0.42
		c-0.42,0.01-0.85-0.53-1.28-0.81C218.84,285.39,218.97,285.27,219.1,285.15z"/>
	<path class="st0" d="M549.55,217.06c0,0.24,0.07,0.5-0.01,0.72c-1.01,2.61-2.01,5.23-3.11,7.82c-0.32,0.74-0.22,1.24,0.28,1.88
		c1.16,1.48,2.19,3.04,3.24,4.59c0.21,0.31,0.24,0.72,0.42,1.28c-0.63-0.03-1.06-0.04-1.42-0.06c0-2.53-2.07-3.86-3.47-5.95
		c-0.9,1.98-1.64,3.69-2.46,5.35c-0.2,0.41-0.7,0.7-1.05,1.05c-0.16-0.11-0.32-0.23-0.48-0.34c0.91-1.83,1.75-3.7,2.77-5.49
		c0.53-0.94,0.47-1.61-0.2-2.47c-1.44-1.84-2.86-3.71-3.17-6.03c-0.05-0.36,0.04-0.74,0.08-1.38c1.43,2.71,2.69,5.12,3.96,7.52
		c0.16-0.03,0.32-0.07,0.48-0.1c1.51-2.74,1.86-5.94,3.68-8.56C549.23,216.95,549.39,217,549.55,217.06z"/>
	<path class="st0" d="M569.73,216.87c0,0.94,0.11,1.9-0.02,2.83c-0.52,3.92-2.32,7.46-4.02,11.04c-0.7,1.47-1.15,3.04-1.82,4.53
		c-0.21,0.47-0.75,0.81-1.34,1.13c-0.43-1.3,0.46-2.27,0.92-3.31c0.48-1.08,1.05-2.13,1.58-3.2c-3.08-3.43-4.03-7.66-5.92-11.52
		c0.16-0.1,0.32-0.2,0.47-0.3c0.29,0.33,0.68,0.63,0.85,1c1.1,2.4,2.1,4.82,3.23,7.2c0.39,0.82,1.03,1.54,1.74,2.58
		c2.32-4.04,3.39-7.95,3.67-12.07C569.3,216.82,569.52,216.85,569.73,216.87z"/>
	<path class="st0" d="M651.11,386.77c-1.67,0.23-3.11,0.43-4.55,0.63c-0.03-0.16-0.06-0.32-0.09-0.49c1.38-0.73,2.99-0.79,4.38-0.98
		c0.64-3.34,1.25-6.59,1.9-9.84c0.04-0.19,0.37-0.32,0.66-0.57c-0.47,3.5-0.92,6.85-1.42,10.51c2.32,0,4.32,0,6.31,0
		c0,0.17,0.01,0.35,0.01,0.52c-1.95,0.58-4.03,0-6.28,0.33c-0.07,2.4-0.06,4.82,0.59,7.23c0.09,0.33,0.14,0.72,0.35,0.98
		c0.39,0.46,0.85,1.12,1.35,1.17c0.41,0.04,0.9-0.7,1.37-1.08c0.24-0.2,0.52-0.35,0.78-0.53c0.04,0.27,0.22,0.65,0.09,0.79
		c-0.59,0.62-1.21,1.55-1.93,1.64c-0.69,0.08-1.95-0.6-2.19-1.19c-0.66-1.64-1.03-3.39-1.3-5.13
		C650.96,389.49,651.11,388.19,651.11,386.77z"/>
	<path class="st0" d="M592.11,232.78c0.86-0.25,1.7-0.57,2.58-0.74c0.88-0.17,1.79-0.19,2.67-0.27c0.07-0.22,0.14-0.34,0.14-0.46
		c0.01-3.07,0.01-6.14-0.16-9.23c-1.28,2.1-1.55,4.61-3.39,6.4c-0.15-0.06-0.29-0.11-0.44-0.17c1.34-3.29,2.68-6.58,4.03-9.87
		c0.18,0.03,0.37,0.06,0.56,0.1c0.05,0.44,0.12,0.88,0.13,1.32c0.09,3.55,0.21,7.09,0.21,10.64c0,1.1,0.43,1.46,1.57,1.44
		c0.91-0.02,1.83,0.03,2.72,0.18c0.27,0.04,0.46,0.52,0.68,0.8c-0.37,0.12-0.81,0.43-1.1,0.34c-2.81-0.85-5.61-0.6-8.43-0.13
		c-0.53,0.09-1.06,0.16-1.6,0.24C592.23,233.16,592.17,232.97,592.11,232.78z"/>
	<path class="st0" d="M180.75,200.2c-2.4-0.24-4.35-0.49-6.3-0.61c-1.21-0.08-1.9,0.39-1.85,1.67c0.06,1.54-0.13,3.09-0.21,4.67
		c2.48,0,4.92,0,7.35,0c0.03,0.13,0.06,0.27,0.1,0.4c-0.53,0.16-1.05,0.43-1.59,0.46c-1.58,0.08-3.17,0.08-4.75,0.06
		c-0.96-0.01-1.4,0.35-1.39,1.22c0.01,0.99-0.07,1.99-0.06,2.98c0.03,1.55,0.73,2.1,2.45,1.92c0.86-0.09,1.7-0.28,2.56-0.35
		c0.61-0.06,1.24-0.01,2.16-0.01c-0.36,0.41-0.45,0.63-0.58,0.64c-1.52,0.21-3.03,0.49-4.56,0.56c-2.05,0.09-2.98-0.71-2.94-2.53
		c0.06-2.55,0.27-5.09,0.43-7.64c0.04-0.61,0.11-1.21,0.14-1.81c0.11-3.02,0.11-3.06,3.59-3.08c1.24-0.01,2.5,0.11,3.7,0.36
		C179.59,199.22,180.08,199.77,180.75,200.2z"/>
	<path class="st0" d="M248.64,355.63c-0.41-0.83,0.32-1.71,1.79-1.98c3.47-0.64,6.97,1.49,7.61,4.68c0.44,2.19,0.04,4.21-1.77,5.89
		c-1.99,1.85-4.63,1.79-6.33-0.26c-1.66-2.01-1.92-4.3-1.25-6.68c0.3-1.06,0.99-1.28,1.87-0.76c-1.87,1.86-1.44,5.93,0.79,7.54
		c1.25,0.91,2.72,0.81,4.05-0.27c1.81-1.48,2.36-3.99,1.34-6.23c-0.99-2.18-2.85-3.29-5.57-3.04
		C250.29,354.62,249.48,355.25,248.64,355.63z"/>
	<path class="st0" d="M228.71,375.66c-0.01,1.83-0.72,3.2-2.05,4.31c-1.82,1.53-4.09,1.37-5.65-0.37c-1.59-1.78-1.68-4.3-0.27-6.21
		c0.15-0.2,0.14-0.53,0.11-0.8c-0.16-1.2,0-2.2,1.4-2.81c1.43-0.63,2.65-0.36,3.7,0.53C227.72,371.79,228.55,373.69,228.71,375.66z
		 M221.46,374.05c-1.29,1.42-0.77,4.33,0.9,5.52c1.05,0.75,2.16,0.77,3.19,0.09c1.58-1.04,2.44-2.51,2.16-4.28
		c-0.31-1.97-1.09-3.82-3.16-4.86c-0.93-0.47-1.96-0.22-2.56,0.58c-0.48,0.64-0.34,1.29,0.37,1.93c0.71,0.64,1.18,1.51,1.84,2.39
		C222.79,375.72,222.36,374.56,221.46,374.05z"/>
	<path class="st0" d="M436.94,239.24c0.2-0.67,0.24-1.02,0.4-1.31c2.73-4.74,2.54-9.69,1.07-14.64c-0.94-3.17-2.28-6.23-3.26-9.39
		c-0.38-1.22-0.27-2.56-0.33-3.85c-0.01-0.3,0.18-0.6,0.27-0.9c0.13-0.01,0.27-0.01,0.4-0.02c0.1,0.35,0.3,0.72,0.27,1.06
		c-0.2,2.48,0.62,4.77,1.41,7.09c1.11,3.3,2.36,6.59,3.02,9.96c0.73,3.71,0.12,7.41-1.86,10.83c-0.15,0.27-0.34,0.52-0.54,0.76
		C437.72,238.94,437.55,238.97,436.94,239.24z"/>
	<path class="st0" d="M227.72,360.49c-0.27,1.65-0.63,3.13-1.95,4.32c-2.07,1.87-5.22,1.43-6.45-0.94
		c-0.99-1.92-1.06-3.96-0.44-5.95c0.3-0.95,0.92-1.96,1.73-2.61c1.86-1.5,4.76-0.64,5.98,1.75
		C227.14,358.13,227.35,359.34,227.72,360.49z M219.86,357.89c-0.51,1.97-0.61,3.88,0.38,5.7c0.94,1.73,3.3,1.99,4.82,0.61
		c1.83-1.66,2.05-5.18,0.31-7.21c-0.55-0.64-1.42-1.23-2.27-1.43c-0.63-0.15-1.6,0.25-2.12,0.69c-0.23,0.19,0.23,1.12,0.49,1.67
		c0.17,0.36,0.55,0.63,0.84,0.94c-0.12,0.14-0.24,0.27-0.36,0.41C221.32,358.84,220.69,358.43,219.86,357.89z"/>
	<path class="st0" d="M402.21,347.25c-0.22-0.61-0.41-0.99-0.48-1.39c-0.3-1.7-1.23-2.04-2.75-0.97c-3.37,2.36-2.82,7.72,1,9.43
		c0.68,0.31,1.51,0.36,2.27,0.53c0.1-0.12,0.19-0.24,0.29-0.36c-0.55-0.66-1.08-1.33-1.66-1.97c-1.61-1.79-1.18-2.92,1.37-3.25
		c1.42-0.18,2.87-0.16,4.31-0.23c0.03,0.18,0.06,0.37,0.09,0.56c-0.43,0.09-0.86,0.23-1.29,0.27c-1.14,0.12-2.31,0.14-3.44,0.32
		c-0.99,0.15-1.3,0.67-0.58,1.46c0.61,0.67,1.27,1.31,1.77,2.04c0.76,1.11,0.29,1.83-1.14,1.9c-2.37,0.12-4.6-1.34-5.55-3.63
		c-1.34-3.23-0.37-6.5,2.43-8.07c0.95-0.53,1.96-0.81,2.94-0.07C402.64,344.47,402.91,346.03,402.21,347.25z"/>
	<path class="st0" d="M319.68,283.8c-0.48-0.06-0.97-0.12-1.45-0.2c-0.51-0.09-1.03-0.19-1.89-0.36c0,2.25-0.09,4.4,0.03,6.53
		c0.07,1.3,0.76,1.53,2,0.92c0.19-0.09,0.42-0.11,0.63-0.17c0.1,0.1,0.21,0.2,0.31,0.3c-0.37,0.33-0.69,0.89-1.11,0.95
		c-0.64,0.09-1.61,0.04-1.94-0.32c-0.53-0.58-0.85-1.45-0.89-2.21c-0.12-1.93-0.04-3.88-0.04-6.09c-1.54,0.11-3.18,0.24-5.07,0.38
		c1.48-1.77,3.52-0.97,5.35-1.33c0-1.85,0-3.69,0-5.52c-0.32-0.13-0.95-0.27-0.94-0.38c0.05-1.05,0.15-2.12,1.33-3.18
		c0.25,0.7,0.52,1.14,0.54,1.59c0.08,1.9,0.15,3.81,0.1,5.71c-0.05,1.89-0.11,1.88,1.89,2.37c0.45,0.11,0.87,0.34,1.3,0.51
		C319.78,283.47,319.73,283.64,319.68,283.8z"/>
	<path class="st0" d="M453.36,382.39c-2.23-0.95-2.46-0.83-3.59,1.03c-1.35,2.21-1.36,4.47-0.52,6.78c0.6,1.64,1.77,2.33,4.19,2.25
		c-1.1-0.94-1.98-1.65-2.82-2.4c-0.28-0.25-0.64-0.65-0.59-0.92c0.05-0.28,0.53-0.64,0.88-0.7c2.36-0.41,4.71-0.84,6.7-2.18
		c0.05-0.03,0.18,0.03,0.68,0.14c-1.82,2.21-4.52,2.23-7.07,2.9c0.87,0.77,1.73,1.4,2.38,2.17c0.32,0.38,0.49,1.09,0.31,1.5
		c-0.13,0.29-0.97,0.43-1.49,0.43c-1.62-0.02-2.81-0.74-3.62-2c-1.81-2.84-1.35-7.18,1.03-9.65c1.14-1.18,2.53-1.26,3.41-0.19
		C453.37,381.7,453.31,381.98,453.36,382.39z"/>
	<path class="st0" d="M332.64,219.98c1.29,2.5,2.57,5,3.96,7.69c1.57-2.96,2.36-6,3.91-8.74c0.18,0.05,0.36,0.11,0.54,0.16
		c-0.09,0.42-0.11,0.85-0.27,1.25c-1.03,2.51-2.13,5-3.11,7.53c-0.21,0.53-0.2,1.28,0.05,1.78c0.54,1.09,1.32,2.08,1.98,3.13
		c0.13,0.2,0.12,0.46,0.18,0.78c-1.27,0.12-1.45-0.77-1.86-1.38c-0.44-0.66-0.79-1.37-1.18-2.05c-0.15-0.03-0.3-0.05-0.44-0.08
		c-0.46,1.3-0.89,2.6-1.38,3.89c-0.11,0.29-0.4,0.53-0.61,0.8c-0.18-0.3-0.58-0.66-0.5-0.89c0.41-1.19,0.86-2.38,1.47-3.5
		c0.57-1.04,0.67-1.9,0.02-3c-1.19-2.02-2.14-4.15-3.17-6.25c-0.13-0.27-0.17-0.58-0.25-0.87
		C332.2,220.14,332.42,220.06,332.64,219.98z"/>
	<path class="st0" d="M521.79,339.09c-1.94,3.76-3.03,7.72-3.63,12c1.05,0,1.96,0,2.87,0c0.03,0.19,0.05,0.38,0.08,0.57
		c-0.98,0.13-1.95,0.26-3.21,0.42c0,1.25-0.12,2.58,0.03,3.89c0.19,1.62,1.97,2.02,4.28,1.11c-0.19,0.35-0.3,0.9-0.6,1
		c-2.04,0.68-4.41,0.41-4.63-2.22c-0.11-1.24-0.02-2.5-0.02-4c-1.58,0-3.19,0-5.06,0c0.8-1.17,1.76-0.98,2.61-0.96
		c2.71,0.06,2.55,0.04,3.11-2.33c0.66-2.78,1.6-5.5,2.5-8.23c0.18-0.55,0.72-1.01,1.09-1.51
		C521.4,338.93,521.6,339.01,521.79,339.09z"/>
	<path class="st0" d="M584.08,360.75c-3.05-1.05-5.9-2.41-8.18-4.58c-0.95-0.89-0.79-1.98-0.08-3c0.85-1.21,1.88-2.35,2.48-3.64
		c0.59-1.28,1.08-2.73,1.03-4.09c-0.12-2.81-2.55-3.9-5.29-2.55c-0.66,0.33-1.16,0.89-1.77,1.3c-0.3,0.2-0.68,0.31-1.32,0.58
		c1.19-2.39,4.06-3.76,6.32-3.2c1.85,0.45,2.7,1.73,2.98,3.33c0.32,1.77-0.01,3.46-1.03,5.01c-0.76,1.15-1.56,2.29-2.36,3.42
		c-0.94,1.32-0.91,2.11,0.52,2.99c1.9,1.16,3.93,2.15,5.9,3.23c0.41,0.23,0.78,0.52,1.17,0.79
		C584.33,360.47,584.21,360.61,584.08,360.75z"/>
	<path class="st0" d="M169.83,228.29c0.74,2.05,1.54,4.06,3.88,5.41c0.13-3.14,0.25-6.14,0.38-9.14c0.18,0,0.36,0,0.54,0.01
		c0.6,1.43,0.17,2.95,0.24,4.42c0.07,1.55,0.01,3.11,0.01,4.91c2.33-1.12,2.2-3.18,2.54-5c0.13,0.01,0.25,0.02,0.38,0.02
		c0.14,0.28,0.4,0.55,0.42,0.83c0.07,1.51-0.84,4.23-2.83,4.91c-0.34,0.12-0.68,0.68-0.7,1.06c-0.09,1.64-0.06,3.29-0.1,4.94
		c-0.01,0.38-0.15,0.75-0.24,1.13c-0.16,0-0.31,0-0.47,0c-0.08-0.42-0.21-0.83-0.21-1.25c0-1.6,0.01-3.21,0.07-4.81
		c0.02-0.65-0.14-1.04-0.83-1.45c-1.82-1.09-2.99-2.67-3.53-4.59c-0.11-0.4-0.02-0.84-0.02-1.26
		C169.52,228.37,169.67,228.33,169.83,228.29z"/>
	<path class="st0" d="M576.17,387.12c-0.53,0.13-1.06,0.33-1.6,0.38c-1.1,0.1-2.22,0.04-3.3,0.21c-1.62,0.26-1.73,0.61-0.75,1.75
		c0.32,0.38,0.66,0.74,0.95,1.14c0.53,0.73,0.67,1.59-0.17,2.08c-0.62,0.36-1.75,0.6-2.3,0.32c-1-0.49-2.03-1.29-2.53-2.18
		c-1.32-2.37-1.53-4.91-0.38-7.4c0.32-0.68,0.93-1.35,1.61-1.76c0.61-0.36,1.71-0.65,2.19-0.38c0.5,0.27,0.59,1.24,0.73,1.93
		c0.07,0.33-0.16,0.71-0.25,1.07c-0.18,0.01-0.35,0.02-0.53,0.03c-0.11-0.76-0.23-1.51-0.4-2.66c-0.86,0.61-1.69,0.98-2.17,1.58
		c-1.64,2.04-1.05,6.65,0.98,8.36c0.34,0.29,0.75,0.59,1.18,0.7c0.35,0.09,0.95,0.04,1.15-0.17c0.2-0.21,0.19-0.77,0.03-1.05
		c-0.34-0.56-0.88-1.03-1.28-1.57c-0.79-1.06-0.56-2.08,0.77-2.35c1.92-0.39,3.92-0.48,5.89-0.7
		C576.05,386.67,576.11,386.89,576.17,387.12z"/>
	<path class="st0" d="M315.96,349.27c1.53-0.1,3.05-0.2,4.68-0.3c0.37-3.15,0.36-6.36,1.43-9.46c0.4,3.13-0.44,6.22-0.36,9.66
		c1.44,0,2.85,0,4.26,0c0,0.21,0.01,0.42,0.01,0.62c-1.37,0.06-2.73,0.13-4.43,0.21c0.21,1.92,0.36,3.8,0.65,5.65
		c0.16,1.05,0.66,2.2,1.91,2.35c0.73,0.08,1.57-0.66,2.64-1.16c-0.08,0.36-0.04,0.84-0.28,1.13c-1.39,1.68-4.04,1.2-4.77-1.04
		c-0.6-1.84-0.79-3.81-0.92-5.74c-0.07-1.05-0.38-1.37-1.5-1.29c-1.1,0.08-2.2,0.02-3.3,0.02
		C315.96,349.71,315.96,349.49,315.96,349.27z"/>
	<path class="st0" d="M425.03,240.71c-2.18-1.92-4.77-3.62-5.08-6.68c-0.66-6.56-1.28-13.13,0.62-19.61c0.3-1.01,0.9-1.95,1.36-2.93
		c0.17,0.05,0.34,0.09,0.5,0.14c0.04,0.22,0.2,0.5,0.11,0.66c-1.72,2.87-2.09,6.04-2.15,9.18c-0.07,4.1,0.19,8.22,0.48,12.31
		c0.12,1.67,1.05,3.11,2.48,4.27c0.83,0.68,1.52,1.5,2.27,2.25C425.44,240.43,425.23,240.57,425.03,240.71z"/>
	<path class="st0" d="M596.8,354.06c-1.65,0.14-3.11,0.26-4.57,0.38c-0.02-0.14-0.04-0.27-0.06-0.41c1.4-0.98,3.18-0.67,4.77-0.85
		c1.15-3.83,2.29-7.62,3.42-11.41c0.23,0.04,0.46,0.07,0.69,0.11c-0.06,0.54-0.06,1.09-0.21,1.61c-0.79,2.76-1.64,5.51-2.45,8.27
		c-0.12,0.41-0.18,0.84-0.33,1.54c1.48-0.17,2.81-0.32,4.13-0.47c0.07,0.07,0.14,0.14,0.2,0.21c-0.27,0.23-0.51,0.61-0.82,0.67
		c-0.88,0.18-1.8,0.23-2.7,0.36c-0.36,0.05-1,0.2-1,0.31c-0.02,1.3-0.3,2.73,0.21,3.86c0.47,1.05,2.28,0.88,4.03,0.03
		c-0.12,0.36-0.11,0.91-0.36,1.04c-1.19,0.6-2.44,0.65-3.7,0.05c-1.18-0.56-1.6-1.4-1.44-2.57
		C596.73,355.98,596.73,355.16,596.8,354.06z"/>
	<path class="st0" d="M368.37,222.48c2.48,2.53,4.96,5.06,7.67,7.84c0.74-2.8,1.45-5.46,2.16-8.12c0.1-0.01,0.2-0.02,0.29-0.03
		c0.09,0.32,0.29,0.65,0.24,0.95c-0.26,1.49-0.39,3.02-0.91,4.44c-1.14,3.05-2.52,6.03-3.74,9.06c-0.45,1.11-0.72,2.28-1.07,3.42
		c-0.15,0.01-0.3,0.02-0.45,0.02c-0.05-0.55-0.28-1.15-0.1-1.64c0.68-1.89,1.39-3.77,2.27-5.59c0.51-1.05,0.47-1.9-0.33-2.73
		c-1.85-1.93-3.74-3.83-5.57-5.77c-0.43-0.46-0.7-1.04-1.05-1.56C367.97,222.68,368.17,222.58,368.37,222.48z"/>
	<path class="st0" d="M378.87,214.48c0.12,0.12,0.31,0.22,0.36,0.36c1.67,4.95,3.55,9.85,4.92,14.87c1.11,4.07,0.82,8.18-1.69,11.92
		c-0.83,1.24-1.32,1.5-2.42,1.49c0.03-0.17,0.01-0.38,0.11-0.47c3.33-2.73,3.7-6.33,3.47-10.02c-0.29-4.81-2.13-9.28-4.03-13.73
		c-0.46-1.08-0.81-2.21-1.15-3.33c-0.1-0.32-0.01-0.68-0.01-1.03C378.57,214.52,378.72,214.49,378.87,214.48z"/>
	<path class="st0" d="M466.93,220.38c1.09,2.51,2.17,5.02,3.26,7.53c0.13,0,0.25,0.01,0.38,0.01c0.66-1.91,1.29-3.83,2-5.73
		c0.18-0.47,0.58-0.87,0.89-1.31c0.01,0.5,0.16,1.03,0.02,1.49c-0.46,1.54-0.82,3.15-1.6,4.56c-1.24,2.26-0.1,3.86,1.38,5.47
		c0.4,0.43,0.86,0.82,1.2,1.29c0.21,0.3,0.23,0.71,0.34,1.07c-0.15,0.07-0.29,0.14-0.44,0.21c-1.2-1.38-2.4-2.76-3.75-4.31
		c-0.35,1.26-0.66,2.4-1,3.53c-0.07,0.24-0.27,0.46-0.42,0.69c-0.17-0.26-0.52-0.54-0.47-0.76c0.23-1.1,0.49-2.2,0.87-3.27
		c0.36-1,0.25-1.85-0.25-2.83c-1.05-2.08-1.91-4.24-2.8-6.38c-0.14-0.35-0.1-0.75-0.14-1.14
		C466.57,220.47,466.76,220.42,466.93,220.38z"/>
	<path class="st0" d="M328,211.83c0,0.2,0.07,0.42-0.01,0.59c-3.13,6.8-3.71,13.85-2.16,21.01c0.37,1.69,1.72,3.21,2.63,4.81
		c0.1,0.18,0.28,0.33,0.4,0.51c0.03,0.05-0.03,0.16-0.12,0.52c-0.51-0.29-1.03-0.46-1.35-0.78c-1.56-1.57-2.25-3.49-2.68-5.51
		c-1.44-6.81-0.53-13.44,1.88-19.95c0.19-0.51,0.66-0.93,1-1.4C327.73,211.7,327.87,211.77,328,211.83z"/>
	<path class="st0" d="M539.68,238.83c-0.52-0.07-1.07-0.06-1.55-0.22c-2.84-0.94-4.32-3.03-5.15-5.43c-2.38-6.91-1.27-13.57,2.18-20
		c0.17-0.32,0.54-0.55,0.82-0.82c0.14,0.08,0.27,0.15,0.41,0.22c-0.21,0.48-0.41,0.96-0.64,1.43c-2.92,5.85-4.06,11.87-2.08,18.17
		c0.87,2.77,2.34,5.13,5.77,5.92c0.14,0.03,0.25,0.22,0.37,0.34C539.76,238.57,539.72,238.7,539.68,238.83z"/>
	<path class="st0" d="M571.02,272.09c0.07,0.38,0.21,0.75,0.2,1.13c-0.1,2.55-0.23,5.11-0.37,7.66c-0.05,0.94-0.38,1.99,1.32,2.01
		c0.2,0,0.39,0.3,0.88,0.69c-0.95,0-1.55,0-2.4,0c0,1.7-0.06,3.38,0.04,5.05c0.03,0.47,0.48,1.24,0.84,1.29
		c0.61,0.08,1.31-0.28,1.95-0.5c0.15-0.05,0.2-0.31,0.35-0.4c0.21-0.12,0.48-0.15,0.72-0.23c0.02,0.23,0.14,0.51,0.04,0.68
		c-0.62,1.09-1.68,1.47-3,1.38c-1.17-0.08-1.77-0.78-1.83-1.7c-0.12-1.55-0.04-3.11-0.05-4.67c0-0.3,0-0.6,0-1.18
		c-1.71,0.16-3.32,0.3-4.94,0.45c1.32-1.47,3.18-1.13,5.06-1.33c0.18-3.44,0.35-6.88,0.53-10.33
		C570.58,272.09,570.8,272.09,571.02,272.09z"/>
	<path class="st0" d="M245.61,339.8c0.29-0.8,0.7-2.28,1.38-3.66c0.69-1.37,2.21-1.47,3.59-0.36c1.7,1.37,2.75,3.09,3.15,5.1
		c0.2,1.01,0.33,2.06,0.3,3.08c-0.04,1.39-0.72,2.5-2.28,3c-1.53,0.49-3.05,0.12-4.16-1.02
		C246.12,344.38,245.68,342.51,245.61,339.8z M253.16,343.25c-0.29-2.23-0.66-4.57-2.69-6.29c-0.53-0.45-1.34-0.64-2.03-0.96
		c-0.33,0.71-0.66,1.43-0.99,2.14c-0.17,0.37-0.33,0.74-0.51,1.11c-0.12,0.26-0.4,0.54-0.35,0.76c0.36,1.59,0.6,3.23,1.26,4.72
		c0.61,1.35,2.1,1.78,3.48,1.43C252.48,345.88,253.17,344.82,253.16,343.25z"/>
	<path class="st0" d="M604.32,344.71c1.29-1.05,6.87-1.39,7.69-0.62c0.38,0.36,0.56,1,0.6,1.52c0.37,4.65,0.73,9.3,0.97,13.96
		c0.04,0.81-0.26,2.13-0.84,2.37c-1.18,0.49-2.66,0.44-4.02,0.54c-0.1,0.01-0.25-0.53-0.37-0.81c0.32-0.09,0.69-0.32,0.95-0.24
		c2.5,0.78,3.54,0.04,3.35-2.36c-0.35-4.48-0.68-8.96-0.98-13.44c-0.05-0.78-0.4-1.09-1.23-1.06c-1.63,0.07-3.26,0.13-4.89,0.19
		C605.25,344.77,604.95,344.74,604.32,344.71z"/>
	<path class="st0" d="M196.4,341.32c-0.14,1.67-0.46,3.21-1.9,4.38c-1.66,1.34-4.03,1.05-5.18-0.66c-1.12-1.67-1.19-3.41-0.35-5.21
		c0.15-0.33,0.01-0.76,0.04-1.15c0.06-0.81-0.16-1.86,0.31-2.36c0.5-0.52,1.72-0.79,2.55-0.68c2,0.25,3.42,1.33,3.95,3.16
		C196.06,339.62,196.21,340.47,196.4,341.32z M190.07,339.9c-0.97,1.4-1,2.83-0.23,4.12c0.42,0.7,1.34,1.37,2.18,1.58
		c1.08,0.27,1.99-0.43,2.54-1.33c0.99-1.61,0.94-3.3,0.43-5.02c-0.45-1.52-1.5-2.52-3.23-2.76c-0.57-0.08-1.29,0.13-1.79,0.41
		c-0.25,0.15-0.39,0.96-0.2,1.12c0.36,0.31,0.99,0.37,1.57,0.56c0.11,0.41,0.26,0.94,0.46,1.64
		C191.16,340.11,190.68,340.02,190.07,339.9z"/>
	<path class="st0" d="M463.18,212.64c-0.01,0.24,0.06,0.51-0.06,0.7c-2.17,3.6-2.21,7.59-2.4,11.5c-0.14,2.91,0.11,5.87,0.53,8.77
		c0.32,2.18,1.3,4.24,3.89,5.26c-0.08,0.15-0.16,0.29-0.24,0.44c-0.5-0.11-1.22-0.08-1.46-0.36c-1.01-1.23-2.14-2.46-2.71-3.86
		c-0.65-1.59-0.97-3.36-1.03-5.07c-0.19-5.02,0.03-10.04,1.55-14.92c0.29-0.93,0.9-1.78,1.37-2.67
		C462.8,212.49,462.99,212.56,463.18,212.64z"/>
	<path class="st0" d="M221.43,332.73c-1.39,0-2.62,0-3.99,0c0.21,4.42,0.42,8.75,0.64,13.24c0.9-0.07,1.75-0.17,2.59-0.2
		c0.23-0.01,0.46,0.19,0.69,0.29c-0.16,0.18-0.31,0.53-0.47,0.53c-2.67,0.02-5.35-0.01-8.02-0.04c-0.03,0-0.06-0.15-0.18-0.46
		c1.44,0,2.81,0,4.45,0c-0.23-4.55-0.45-8.86-0.68-13.33c-1.51,0.16-2.85,0.3-4.19,0.45c-0.04-0.13-0.08-0.25-0.13-0.38
		c0.99-1.06,2.56-0.8,3.88-0.89C220.73,331.61,220.89,331.67,221.43,332.73z"/>
	<path class="st0" d="M356.91,372.22c3.35,2.13,5.97,4.79,7.3,8.36c2.04,5.43,1.78,10.62-2.11,15.4c-0.11,0.14-0.2,0.32-0.35,0.4
		c-0.57,0.32-1.15,0.6-1.73,0.89c0.3-0.44,0.55-0.93,0.92-1.33c3.42-3.82,4.19-8.15,3.1-12.84c-0.9-3.88-3.13-7.02-6.59-9.47
		c-0.41-0.29-0.68-0.74-1.01-1.11C356.59,372.42,356.75,372.32,356.91,372.22z"/>
	<path class="st0" d="M513.84,387.35c2.96-0.26,6.08-4.59,5.73-6.76c-0.2-1.25-1.03-2.1-2.24-2.69c-3.1-1.51-7.71-0.85-10.13,1.46
		c-0.66,0.63-1.09,1.31-0.67,2.22c0.09,0.19-0.04,0.47-0.08,0.74c-1.23-0.57-1.5-1.77-0.49-2.92c2.12-2.42,4.99-3.47,8.38-3.14
		c1.25,0.13,2.55,0.49,3.67,1.03c2.31,1.11,3.05,3.21,2.18,5.43c-0.89,2.25-2.55,3.93-4.72,5.25
		C514.68,388.46,514.07,388.48,513.84,387.35z"/>
	<path class="st0" d="M541.63,290.73c0-0.62-0.01-1.25,0-1.87c0.07-4.37,0.17-8.74,0.2-13.12c0.01-0.94-0.23-1.89-0.38-2.82
		c-0.19-1.23-1.09-1.84-2.38-1.84c-2.5,0.01-5.01,0.06-7.13,1.56c-0.23,0.16-0.6,0.15-0.91,0.21c-0.09-0.17-0.18-0.33-0.26-0.5
		c0.93-0.51,1.81-1.26,2.81-1.47c1.9-0.38,3.88-0.56,5.84-0.6c1.61-0.04,2.57,0.81,2.91,2.24c0.22,0.93,0.41,1.88,0.41,2.82
		c0,4.63-0.06,9.27-0.14,13.9c-0.01,0.54-0.23,1.07-0.35,1.61C542.04,290.81,541.84,290.77,541.63,290.73z"/>
	<path class="st0" d="M396.2,227.11c-0.21-2.22-0.42-4.32-0.62-6.43c0.2-0.04,0.4-0.07,0.61-0.11c0.13,0.3,0.33,0.58,0.37,0.89
		c0.22,1.63,0.42,3.27,0.6,4.9c0.08,0.7,0.4,1.08,1.25,1.11c1.1,0.04,2.2,0.16,3.3,0.27c0.44,0.04,0.86,0.15,1.28,0.46
		c-1.7,0.78-3.45,0-5.32,0.23c0.38,2.73,0.75,5.46,1.13,8.19c-0.21,0.03-0.42,0.06-0.62,0.09c-0.17-0.5-0.41-1-0.49-1.51
		c-0.33-2.01-0.64-4.03-0.92-6.04c-0.1-0.76-0.47-1.18-1.35-1.18c-1.68,0.01-3.35,0.02-5.03,0.02c-0.36,0-0.73-0.05-1.08-0.26
		C391.45,226.42,393.8,227.14,396.2,227.11z"/>
	<path class="st0" d="M593.03,361.27c-0.1,0.43-0.07,0.74-0.22,0.86c-1.75,1.43-5.15,0.49-5.49-1.61c-0.38-2.3-0.56-4.63-0.71-6.95
		c-0.15-2.29-0.1-4.58-0.23-6.87c-0.14-2.36,0.71-3.29,3.35-3.34c1.48-0.03,2.96,0.04,4.44,0.07c0.01,0.2,0.02,0.41,0.03,0.62
		c-0.43,0.07-0.86,0.19-1.3,0.21c-1.34,0.04-2.68-0.02-4.02,0.08c-1.06,0.08-1.58,0.7-1.56,1.69c0.1,3.5,0.15,7.01,0.3,10.51
		c0.05,1.16,0.31,2.32,0.54,3.46c0.32,1.62,1.12,2.09,2.95,1.77C591.66,361.66,592.2,361.48,593.03,361.27z"/>
	<path class="st0" d="M253.16,372.93c-1.49,1.71-1.59,4.21-0.28,6.07c0.62,0.88,1.4,0.99,2.32,0.46c2.9-1.64,3.08-6.94,0.21-8.62
		c-0.89-0.52-2.1-0.61-3.33-0.95c-0.06,0.63-0.1,0.94-0.12,1.24c-0.14,0.06-0.28,0.11-0.42,0.17c-0.25-0.36-0.74-0.75-0.68-1.07
		c0.06-0.33,0.6-0.76,1.01-0.84c2.85-0.57,5.23,0.74,6.13,3.29c0.99,2.79,0.25,5.6-1.91,7.25c-1.55,1.19-3.19,0.92-4.16-0.71
		c-1.04-1.76-1.31-3.61-0.61-5.52C251.69,372.69,252.16,372.53,253.16,372.93z"/>
	<path class="st0" d="M476.78,214.89c0.14,0.25,0.33,0.49,0.4,0.76c1.09,4.21,2.44,8.38,3.16,12.64c0.65,3.79-0.12,7.59-1.81,11.16
		c-0.2,0.41-0.62,0.74-1.18,1.38c-0.09-0.6-0.21-0.82-0.14-0.96c2.82-5.2,2.84-10.6,1.36-16.09c-0.67-2.48-1.44-4.94-2.13-7.41
		c-0.13-0.45-0.11-0.93-0.16-1.4C476.46,214.95,476.62,214.92,476.78,214.89z"/>
	<path class="st0" d="M573.37,212.83c0.55,0.78,1.19,1.51,1.64,2.34c2.14,3.96,3.69,8.08,4.03,12.51c0.25,3.32-0.38,6.47-2.47,9.28
		c-0.24,0.33-0.85,0.44-1.29,0.65c0.16-0.37,0.24-0.78,0.48-1.1c1.79-2.34,2.46-5,2.35-7.76c-0.21-5.24-1.91-10.11-4.93-14.61
		c-0.21-0.31-0.27-0.71-0.4-1.06C572.98,212.99,573.17,212.91,573.37,212.83z"/>
	<path class="st0" d="M238.85,203.36c-1.75-1.45-3.3-1.32-5.03,0.5c-2.06,2.17-2.37,4.7-1.23,7.31c1.11,2.54,3.43,3.59,6.37,3.71
		c1.18,0.05,2.19-0.13,2.53-1.43c1.01,0.59,0.83,1.11,0.16,1.59c-1.44,1.05-3.11,0.77-4.69,0.46c-3.35-0.66-5.46-2.96-5.95-6.26
		c-0.4-2.73,1.23-6.01,3.82-7.21c0.9-0.42,2.11-0.47,3.16-0.41C238.96,201.67,239.27,202.36,238.85,203.36z"/>
	<path class="st0" d="M362.98,222.73c0.39-2.08,0.89-4.83,1.45-7.58c0.06-0.28,0.48-0.5,0.73-0.75c0.05,0.34,0.22,0.72,0.13,1.02
		c-1.94,6.5-1.4,12.94,0.7,19.3c0.46,1.39,1.37,2.65,2.04,3.99c0.16,0.32,0.18,0.7,0.26,1.05c-0.37-0.18-0.9-0.29-1.08-0.57
		c-1.66-2.61-2.88-5.38-3.31-8.37C363.53,228.38,363.33,225.93,362.98,222.73z"/>
	<path class="st0" d="M531.03,359.81c-0.19-1.05-0.17-1.81-0.47-2.46c-1.61-3.57-1.99-7.3-1.88-11.09c0.04-1.27-0.46-1.71-1.85-1.6
		c-1.13,0.09-2.28,0.02-3.42,0.02c-0.04-0.12-0.09-0.24-0.13-0.37c0.29-0.15,0.58-0.41,0.89-0.43c1.01-0.06,2.02-0.04,3.03-0.04
		c1.93-0.01,2.4,0.39,2.45,2.11c0.03,1.08-0.09,2.18,0.07,3.25c0.33,2.17,0.79,4.34,1.25,6.49c0.15,0.67,0.52,1.31,0.7,1.98
		c0.63,2.33-0.02,3.06-2.67,2.96c-0.91-0.03-1.82-0.13-2.7-0.32c-0.25-0.05-0.38-0.54-0.56-0.83c0.32,0,0.64-0.02,0.96,0.01
		C528.05,359.58,529.41,359.69,531.03,359.81z"/>
	<path class="st0" d="M230.28,230.62c0.68,1.64,1.14,3.4,3.54,4.07c0-2.71,0-5.27,0-7.84c0.21-0.01,0.41-0.02,0.62-0.03
		c0.8,2.38,0.13,4.9,0.73,7.56c0.89-1.09,1.79-2.18,2.68-3.27c0.11,0.08,0.23,0.16,0.34,0.24c-0.23,1.5-1.08,2.75-2.5,3.59
		c-0.8,0.48-1.02,0.99-1.03,1.79c-0.02,1.77-0.14,3.54-0.24,5.32c-0.01,0.23-0.11,0.46-0.17,0.69c-0.15,0.03-0.29,0.06-0.44,0.09
		c-0.15-0.45-0.45-0.91-0.44-1.35c0.06-1.68,0.28-3.35,0.31-5.04c0.01-0.36-0.4-0.9-0.78-1.07
		C230.8,234.47,229.49,232.42,230.28,230.62z"/>
	<path class="st0" d="M344.02,214.54c0.43,0.53,0.97,1.01,1.27,1.6c3.77,7.26,4.71,14.66,1.22,22.24c-0.13,0.28-0.23,0.59-0.43,0.82
		c-0.14,0.16-0.44,0.22-0.67,0.32c-0.06-0.22-0.23-0.47-0.16-0.65c0.42-1.11,0.97-2.17,1.33-3.29c2.24-6.99,1.07-13.6-2.76-19.92
		c-0.16-0.27-0.22-0.58-0.33-0.87C343.68,214.71,343.85,214.62,344.02,214.54z"/>
	<path class="st0" d="M443.89,343.62c0.12,0.37,0.26,0.73,0.35,1.11c0.68,2.79,1.32,5.58,2.04,8.35c0.07,0.26,0.55,0.54,0.9,0.61
		c0.79,0.17,1.62,0.19,2.42,0.33c0.34,0.06,0.65,0.26,0.91,0.63c-3.49-0.06-6.91-0.35-10.36-0.46c0.01-0.24,0.03-0.47,0.05-0.71
		c0.97,0,1.95-0.01,2.92,0c2.27,0.03,2.34,0.02,1.91-2.01c-0.31-1.47-0.82-2.9-1.31-4.59c-1.08,1.78-2.01,3.32-3.01,4.97
		c-0.53-0.76-0.51-0.75,0.62-2.71c0.51-0.88,0.96-1.8,1.32-2.74c0.34-0.9,0.53-1.85,0.79-2.78
		C443.6,343.62,443.75,343.62,443.89,343.62z"/>
	<path class="st0" d="M430.96,227.19c1.76-2.54,1.81-5.56,3.57-7.84c0.22,0.09,0.44,0.18,0.65,0.26c-1.11,2.81-2.09,5.68-3.37,8.43
		c-1.29,2.78-2.57,5.53-2.8,8.6c-0.17,0.02-0.33,0.05-0.5,0.07c-0.12-0.48-0.45-1.01-0.32-1.43c0.62-2.08,1.3-4.15,2.09-6.18
		c0.29-0.75,0.29-1.27-0.33-1.84c-0.87-0.8-1.69-1.65-2.5-2.5c-0.5-0.52-1.07-1.04-1.35-1.66c-0.19-0.42,0.05-1,0.36-1.51
		C426.94,224.22,429.89,225.01,430.96,227.19z"/>
	<path class="st0" d="M195.15,363.18c-0.54-3.5-1.08-6.94-1.64-10.58c-1.5,0.23-2.69,0.41-3.88,0.6c-0.1-0.05-0.19-0.11-0.29-0.17
		c0.34-0.3,0.64-0.78,1.04-0.86c0.92-0.19,1.9-0.2,2.85-0.25c1.25-0.07,2.49-0.14,3.74-0.15c0.37,0,0.74,0.2,1.1,0.3
		c-0.02,0.15-0.04,0.3-0.06,0.45c-1.11,0.11-2.22,0.22-3.45,0.34c0.52,3.49,1.04,6.97,1.58,10.56c0.38-0.06,0.79-0.16,1.2-0.18
		c0.29-0.02,0.58,0.07,0.87,0.11c-0.2,0.25-0.4,0.49-0.61,0.74c-0.02,0.03-0.09,0.04-0.14,0.04c-2.21-0.03-4.42-0.06-6.64-0.33
		C191.99,362.61,193.44,363.47,195.15,363.18z"/>
	<path class="st0" d="M383.06,356.54c0.49-0.88,0.8-1.43,1.22-2.19c0.93,0.75,0.42,1.39,0.04,1.93c-0.46,0.65-1.25,1.34-1.94,0.49
		c-0.72-0.89-1.2-2.03-1.42-3.13c-0.35-1.69-0.4-3.43-0.59-5.24c-0.81-0.06-1.62-0.12-2.43-0.17c-0.02-0.17-0.04-0.34-0.06-0.51
		c0.79-0.12,1.57-0.24,2.51-0.38c0.39-2.66,0.32-5.44,1.37-8.02c0.21,0.02,0.41,0.05,0.61,0.07c-0.34,2.6-0.69,5.2-1.04,7.87
		c1.46,0.13,2.72,0.23,3.98,0.34c-0.01,0.18-0.02,0.37-0.03,0.55c-1.22,0-2.44,0-3.83,0C381.6,351.06,381.38,353.75,383.06,356.54z"
		/>
	<path class="st0" d="M406.89,358.95c0.86-1.04,1.96-1.99,2.54-3.15c1.9-3.83,1.29-7.68-0.29-11.47c-0.71-1.7-1.6-3.33-2.27-5.04
		c-0.38-0.97-0.46-2.04-0.68-3.06c0.16-0.05,0.31-0.11,0.47-0.16c0.18,0.19,0.43,0.35,0.52,0.57c0.9,2.31,1.69,4.66,2.68,6.94
		c1.57,3.64,2.32,7.34,1.04,11.14c-0.46,1.36-1.47,2.58-2.37,3.79c-0.29,0.39-1.04,0.49-1.58,0.72
		C406.93,359.13,406.91,359.04,406.89,358.95z"/>
	<path class="st0" d="M393.07,338.4c-1.48-0.24-1.86,0.71-2.26,1.49c-1.36,2.6-1.69,5.4-1.6,8.22c0.06,1.93,0.28,3.88,0.71,5.78
		c0.42,1.91,1.29,3.67,4.02,3.88c-0.51,1-1.25,0.72-1.92,0.45c-1.64-0.66-2.42-2-2.84-3.42c-1.37-4.65-1.37-9.32,0.17-13.94
		c0.35-1.05,1.04-2.05,1.77-2.93C391.85,337.04,392.62,337.22,393.07,338.4z"/>
	<path class="st0" d="M537.56,351.32c0.52-0.06,1.04-0.18,1.56-0.17c7.54,0.08,15.09,0.18,22.63,0.24c0.55,0.01,1.11-0.29,1.67-0.39
		c0.3-0.05,0.68-0.08,0.92,0.04c0.18,0.09,0.31,0.5,0.23,0.68c-0.1,0.22-0.43,0.41-0.7,0.52c-0.2,0.08-0.47,0.03-0.71,0.02
		c-8.07-0.1-16.14-0.2-24.21-0.31c-0.47-0.01-0.93-0.14-1.4-0.22C537.55,351.59,537.56,351.45,537.56,351.32z"/>
	<path class="st0" d="M465.26,397.71c0.71-0.84,1.75-1.59,2.06-2.54c0.6-1.79,1.08-3.69,1.07-5.55c-0.04-4.93-1.95-9.47-4.06-13.94
		c-0.09-0.19-0.15-0.39-0.19-0.6c-0.01-0.06,0.08-0.15,0.29-0.48c0.42,0.47,0.91,0.8,1.1,1.24c2.19,5.1,4.24,10.22,3.82,15.83
		c-0.16,2.08-0.76,4.01-2.41,5.55c-0.38,0.36-0.91,0.58-1.38,0.86C465.46,397.96,465.36,397.84,465.26,397.71z"/>
	<path class="st0" d="M500.11,296.09c2.58-1.51,2.98-3.82,3.31-6.11c0.33-2.29-0.37-4.43-1.27-6.57c-1.09-2.57-1.99-5.22-2.91-7.85
		c-0.15-0.42-0.02-0.92-0.02-1.39c0.14-0.03,0.29-0.05,0.43-0.08c0.15,0.22,0.42,0.43,0.44,0.66c0.21,3.15,1.86,5.89,3.12,8.72
		c1.26,2.83,1.71,5.7,0.77,8.62c-0.43,1.34-1.25,2.6-1.99,3.85C501.58,296.63,500.92,296.88,500.11,296.09z"/>
	<path class="st0" d="M241.94,239.48c0.36,1.24,0.12,2.32,1.47,2.75c0.14,0.05,0.28,0.46,0.21,0.62c-0.12,0.24-0.39,0.5-0.66,0.59
		c-0.17,0.05-0.57-0.15-0.68-0.33c-0.37-0.6-0.66-1.24-1.03-1.96c-0.58,0.75-1.1,1.43-1.62,2.1c-0.14-0.06-0.28-0.12-0.42-0.18
		c-0.1-1.27,1.29-2.1,1.55-3.43c-0.96,0-1.87,0-3.03,0c0.73-1.36,1.98-0.68,3.02-1.06c0-1.33,0-2.74,0-4.15
		c0.15-0.01,0.3-0.03,0.45-0.04c0.77,1,0.16,2.26,0.62,3.64c0.56-0.93,1.01-1.68,1.59-2.64c0.8,1.41-0.43,2.2-0.58,3.22
		c1.06,0.19,2.13,0.33,3.16,0.59c0.36,0.09,0.61,0.5,0.91,0.76c-0.38,0.02-0.77,0.11-1.14,0.06
		C244.56,239.89,243.37,239.69,241.94,239.48z"/>
	<path class="st0" d="M506.93,223.23c0.29-0.55,0.38-1.07,0.65-1.17c1.27-0.47,2.56-0.99,3.9-1.19c1.09-0.17,1.91,0.53,1.74,1.58
		c-0.19,1.18-0.49,2.39-1.04,3.46c-0.9,1.76-2.06,3.42-3.09,5.12c-0.23,0.37-0.39,0.77-0.82,1.6c2.67-0.19,4.99-0.35,7.3-0.51
		c0.05,0.09,0.11,0.17,0.16,0.26c-0.36,0.22-0.7,0.59-1.09,0.63c-1.82,0.18-3.64,0.34-5.46,0.35c-1.59,0.01-2.09-0.78-1.35-2.04
		c1.06-1.84,2.27-3.61,3.32-5.46c0.48-0.83,0.81-1.76,1.06-2.67c0.36-1.33-0.24-1.81-1.71-1.35
		C509.44,222.16,508.43,222.64,506.93,223.23z"/>
	<path class="st0" d="M507.23,360c1.39,0.32,2.73-0.65,3.97-0.04c0.01,0.18,0.02,0.36,0.04,0.54c-1.33,0.17-2.67,0.44-4.01,0.46
		c-0.96,0.02-1.12-0.71-1.1-1.5c0.08-2.32,0.19-4.65,0.1-6.96c-0.06-1.59-0.46-3.17-0.65-4.75c-0.2-1.7,0.92-2.77,2.38-3.55
		c1.1-0.58,2.3-0.57,3.38,0.17c0.17,0.12,0.29,0.31,0.68,0.74c-0.63-0.03-0.98,0.02-1.26-0.08c-2.21-0.76-4.27,0.46-4.19,2.57
		c0.05,1.25,0.35,2.49,0.42,3.73c0.12,2.19,0.16,4.38,0.22,6.56C507.25,358.58,507.23,359.26,507.23,360z"/>
	<path class="st0" d="M290.79,284.98c0-2.75,0.46-5.42,2.01-7.85c0.21-0.34,0.45-0.69,0.77-0.93c0.19-0.14,0.57-0.08,0.87-0.1
		c-0.04,0.23,0,0.51-0.13,0.68c-3.01,3.88-3.18,8.14-1.93,12.52c0.56,1.97,1.8,3.66,3.94,4.56c0.72,0.3,1.61,0.3,2.41,0.45
		c0.24,0.05,0.45,0.16,0.68,0.25c-0.14,0.2-0.3,0.56-0.43,0.56c-0.93-0.04-1.97,0.05-2.75-0.3c-3.72-1.65-4.99-4.7-5.43-8.16
		C290.73,286.11,290.79,285.54,290.79,284.98z"/>
	<path class="st0" d="M343.59,394.86c-0.53-0.25-1.2-0.39-1.58-0.77c-1.54-1.51-1.98-3.46-2.12-5.4c-0.34-4.57,0.26-9.07,1.81-13.44
		c0.36-1.01,1.05-1.93,1.65-2.86c0.13-0.2,0.51-0.25,0.78-0.38c0.01,0.27,0.16,0.61,0.02,0.78c-2.52,3.34-2.89,7.21-3.23,11.03
		c-0.2,2.25-0.05,4.59,0.4,6.81C341.61,392.05,342.73,393.32,343.59,394.86z"/>
	<path class="st0" d="M559.28,392.32c-0.34,0.31-0.63,0.74-1.04,0.9c-3.66,1.38-7.59-0.89-7.69-4.45c-0.09-3.23,1.18-5.93,4.19-7.82
		c0.92-0.58,2.04-1.03,3.06-0.29c0.94,0.68,1.02,1.68,0.36,2.8c-0.15-0.36-0.35-0.7-0.43-1.07c-0.27-1.16-0.83-1.43-2.05-0.94
		c-3.23,1.3-5.21,6.36-3.62,9.21c0.88,1.57,3.15,2.43,5.19,1.92c0.59-0.15,1.15-0.38,1.72-0.57
		C559.07,392.12,559.18,392.22,559.28,392.32z"/>
	<path class="st0" d="M588.63,383.5c-1.25-1.44-1.79-1.54-3.69-0.45c-2.16,1.24-2.98,3.18-2.83,5.36c0.14,2.12,1.05,3.97,3.5,4.8
		c1.3,0.44,2.53,0.46,3.59-0.55c0.23-0.22,0.64-0.29,1.18-0.51c-0.74,1.92-2.56,2.61-4.67,2.02c-2.77-0.77-4.04-2.63-4.5-5.06
		c-0.66-3.5,1.72-6.89,5.45-7.6c0.6-0.11,1.45,0.1,1.94,0.44c0.37,0.26,0.36,0.96,0.52,1.47
		C588.96,383.44,588.8,383.47,588.63,383.5z"/>
	<path class="st0" d="M478.16,279.08c-0.82,0-1.69-0.15-2.46,0.03c-1.97,0.46-2.7,2.03-1.51,3.5c0.89,1.09,2.11,1.98,3.26,2.89
		c0.93,0.74,2.03,1.32,2.95,2.08c1.17,0.96,0.97,1.86-0.45,2.38c-1.31,0.48-2.65,0.92-4.01,1.26c-0.3,0.07-0.75-0.36-1.13-0.56
		c0.28-0.22,0.53-0.55,0.86-0.62c1.46-0.36,2.95-0.64,4.87-1.04c-0.78-0.69-1.19-1.13-1.68-1.48c-1.27-0.92-2.61-1.76-3.86-2.71
		c-0.61-0.47-1.15-1.05-1.6-1.65c-0.81-1.08-1.01-2.3-0.23-3.43c0.85-1.23,2.24-1.76,3.84-1.63c0.48,0.04,0.93,0.46,1.39,0.71
		C478.31,278.9,478.24,278.99,478.16,279.08z"/>
	<path class="st0" d="M459.66,396.39c2-0.98,1.98-2.65,2.14-4.21c0.46-4.51-0.96-8.75-2.4-12.98c-0.35-1.04-0.76-2.05-1.1-3.09
		c-0.1-0.3-0.02-0.65,0.3-1.04c0.18,0.23,0.45,0.43,0.54,0.68c1.53,4.33,3.4,8.6,3.58,13.2c0.08,2.09-0.27,4.22-0.67,6.29
		c-0.11,0.59-1.09,1.05-1.7,1.53C460.31,396.8,460.01,396.58,459.66,396.39z"/>
	<path class="st0" d="M208.11,250.77c-0.03,0.5-0.02,0.58-0.03,0.59c-2.2,0.53-4.39,1.13-6.63,1.5c-0.38,0.06-1.31-0.84-1.37-1.36
		c-0.18-1.53-0.14-3.1-0.03-4.65c0.22-3.11,0.53-6.21,0.83-9.32c0.03-0.27,0.2-0.52,0.3-0.78c0.12,0,0.25,0.01,0.37,0.01
		c0.07,0.46,0.23,0.92,0.2,1.38c-0.27,3.89-0.62,7.77-0.87,11.66c-0.15,2.38,0.46,2.73,3.05,2.02
		C205.26,251.45,206.61,251.14,208.11,250.77z"/>
	<path class="st0" d="M472.43,295.53c-1.02-0.13-1.77-0.1-2.41-0.33c-2.66-0.94-4.29-2.73-4.78-5.26
		c-0.78-4.06,0.39-7.79,2.56-11.33c0.02-0.04,0.05-0.08,0.08-0.11c0.55-0.34,1.09-0.69,1.64-1.03c-0.26,0.48-0.47,0.97-0.77,1.43
		c-2.25,3.47-3.38,7.17-2.5,11.16c0.54,2.45,2.37,3.97,5.09,4.59c0.23,0.05,0.45,0.12,0.67,0.2
		C472.08,294.88,472.1,295,472.43,295.53z"/>
	<path class="st0" d="M472.92,365.08c-1,0.74-1.99,1.49-2.99,2.23c-0.17-0.18-0.33-0.37-0.49-0.55c0.96-0.77,1.82-1.69,2.91-2.25
		c1.22-0.62,2.43,0.32,2.12,1.67c-0.33,1.43-0.89,2.82-1.46,4.2c-0.59,1.41-1.33,2.78-1.95,4.18c-0.23,0.5-0.32,1.06-0.57,1.94
		c1.23-0.21,2.17-0.4,3.12-0.52c0.92-0.12,1.92-0.46,2.83,0.53c-1.93,0.28-3.64,0.61-5.36,0.74c-1.12,0.08-1.7-0.71-1.31-1.8
		c0.56-1.56,1.32-3.06,1.96-4.6c0.59-1.41,1.17-2.83,1.68-4.27c0.14-0.4,0.02-0.87,0.02-1.31
		C473.25,365.2,473.09,365.14,472.92,365.08z"/>
	<path class="st0" d="M371.34,290.76c-1.62-3.74-3.24-7.48-4.86-11.22c0.23-0.09,0.45-0.18,0.68-0.27c1.27,2.58,2.55,5.16,4.02,8.13
		c0.41-2.82,0.77-5.26,1.16-7.92c0.92,0.62,1.24,0.86,0.85,1.86c-0.63,1.64-0.67,3.47-0.92,5.23c-0.2,1.39-0.34,2.78-0.51,4.17
		C371.61,290.75,371.48,290.76,371.34,290.76z"/>
	<path class="st0" d="M420.07,386.73c0.61-0.18,1.38-0.22,1.79-0.58c1.76-1.56,3.13-3.33,2.43-5.74c-0.49-1.69-1.94-2.55-4.01-2.49
		c-1.92,0.06-3.36,1.07-3.8,2.64c-0.1,0.37-0.27,0.73-0.46,1.25c-0.8-1.16-0.37-2.59,0.83-3.57c1.55-1.26,4.07-1.59,5.94-0.79
		c1.76,0.76,2.85,2.53,2.6,4.54c-0.32,2.53-1.81,4.42-4.28,5.64c-0.35,0.18-1.01,0.21-1.31,0.02c-0.24-0.16-0.15-0.73-0.2-1.12
		C419.76,386.59,419.92,386.66,420.07,386.73z"/>
	<path class="st0" d="M443.11,377.17c-0.02,0.33,0.03,0.57-0.06,0.62c-2.3,1.38-2.59,3.65-3.02,5.78c-0.61,3.01-0.63,6.06,0.79,8.91
		c0.59,1.18,1.69,2.16,2.55,3.24c0.22,0.27,0.36,0.6,0.55,0.9c-0.37-0.07-0.81-0.05-1.09-0.23c-2.03-1.36-3.04-3.29-3.59-5.45
		c-0.98-3.83-0.55-7.56,0.95-11.2C440.67,378.57,441.29,377.38,443.11,377.17z"/>
	<path class="st0" d="M609.99,278.98c1.09-0.29,1.27,0.53,1.44,1.11c0.66,2.12,1.21,4.27,1.84,6.4c0.27,0.89,0.63,1.76,1.08,2.98
		c0.75-2.69,1.38-5,2.07-7.3c0.12-0.4,0.56-0.73,0.85-1.09c0.09,0.08,0.17,0.16,0.26,0.24c-0.72,2.84-1.42,5.68-2.2,8.51
		c-0.09,0.33-0.59,0.57-0.9,0.86c-0.32-0.29-0.8-0.54-0.92-0.89c-0.82-2.39-1.54-4.81-2.32-7.21
		C610.83,281.42,610.43,280.29,609.99,278.98z"/>
	<path class="st0" d="M320.29,293.8c0.48-0.4,0.62-0.6,0.8-0.66c3.01-0.97,3.79-3.24,4.05-5.74c0.33-3.31-0.96-6.38-1.84-9.51
		c-0.19-0.67-0.43-1.33-0.59-2c-0.07-0.28-0.01-0.58-0.01-0.87c0.12-0.02,0.24-0.05,0.37-0.07c0.18,0.22,0.46,0.41,0.53,0.66
		c0.86,3.27,1.82,6.53,2.48,9.83c0.44,2.16-0.01,4.36-1.42,6.2c-0.67,0.88-1.78,1.5-2.77,2.15
		C321.63,293.95,321.09,293.8,320.29,293.8z"/>
	<path class="st0" d="M337.17,357.4c-0.25,1.2-1.19,1.61-2.54,1.13c-1.87-0.67-2.62-2.17-3.01-3.73c-1.02-4.08-0.6-8.17,0.24-12.22
		c0.14-0.7,0.75-1.32,1.14-1.97c0.14,0.05,0.28,0.1,0.42,0.16c0.03,0.2,0.14,0.42,0.07,0.58c-1.89,4.15-1.66,8.44-1.04,12.74
		c0.12,0.87,0.59,1.74,1.09,2.51c0.81,1.24,1.56,1.38,3.08,0.82C336.77,357.36,336.97,357.4,337.17,357.4z"/>
	<path class="st0" d="M370,383.99c1.07-0.08,1.95-0.17,2.84-0.21c6.14-0.29,12.27-0.59,18.41-0.85c0.57-0.02,1.15,0.22,1.73,0.34
		c-0.02,0.15-0.04,0.3-0.05,0.45c-0.29,0.05-0.57,0.12-0.87,0.14c-6.52,0.28-13.03,0.55-19.55,0.83c-0.23,0.01-0.51,0.04-0.68,0.16
		C370.7,385.65,370.43,384.91,370,383.99z"/>
	<path class="st0" d="M345.56,341.14c0.59,1.04,1.12,2.12,1.79,3.12c1.08,1.63,2.42,3.13,3.34,4.82c1.6,2.94,2.12,6,0.19,9.05
		c-0.07,0.11-0.11,0.27-0.21,0.33c-0.49,0.27-1.01,0.51-1.51,0.76c-0.26-0.46-0.53-0.91-0.79-1.37c0.14-0.09,0.28-0.18,0.42-0.28
		c0.28,0.2,0.56,0.39,0.86,0.61c0.08-0.08,0.19-0.16,0.26-0.26c1.88-2.76,1.43-5.58,0-8.3c-0.82-1.55-1.99-2.94-2.99-4.41
		c-0.59-0.88-1.21-1.76-1.68-2.69c-0.19-0.37-0.03-0.89-0.03-1.34C345.33,341.16,345.45,341.15,345.56,341.14z"/>
	<path class="st0" d="M258.06,200.51c0.39,0.18,0.98,0.27,1.15,0.56c2.62,4.27,4.5,8.71,2.45,13.6c-0.53,1.25-1.83,2.24-2.83,3.32
		c-0.14,0.16-0.56,0.11-1.08,0.2c0.2-0.4,0.23-0.64,0.38-0.74c3.13-2.08,3.72-5.03,3.33-8.22c-0.37-3.04-1.66-5.83-3.56-8.37
		C257.96,200.75,258.01,200.63,258.06,200.51z"/>
	<path class="st0" d="M552.69,275.46c-0.25,0.76-0.34,1.26-0.57,1.71c-1.42,2.78-2.51,5.65-2.41,8.73c0.04,1.2,0.47,2.46,1.03,3.57
		c0.57,1.13,1.67,1.83,3.21,1.53c-0.09,1.06-0.53,1.3-1.64,0.85c-2.07-0.84-3.21-2.4-3.45-4.33c-0.53-4.23,0.82-8.12,3.05-11.79
		C551.94,275.67,552.08,275.67,552.69,275.46z"/>
	<path class="st0" d="M267.89,314.27c-0.08,1.07-0.24,2.14-0.23,3.2c0.02,1.64,1.04,2.13,2.66,1.37c0.21-0.1,0.41-0.21,0.62-0.28
		c0.06-0.02,0.17,0.07,0.35,0.15c-0.07,1.11-1.12,1.25-1.96,1.41c-1.13,0.21-2.36-0.6-2.49-1.7c-0.15-1.32-0.04-2.66-0.04-4.17
		c-0.8,0.04-1.62,0.08-2.43,0.13c-0.04-0.18-0.08-0.35-0.11-0.53c0.88-0.23,1.77-0.46,2.78-0.73c0.18-1.33,0.37-2.73,0.55-4.13
		c0.18,0.01,0.35,0.02,0.53,0.03c0.61,1.3-0.15,2.67,0.05,4.09c0.82,0.11,1.7,0.23,2.59,0.35c0,0.18,0.01,0.35,0.01,0.52
		C269.91,314.06,269.04,314.15,267.89,314.27z"/>
	<path class="st0" d="M378.13,268.73c-0.58,0.48-1.21,0.92-1.72,1.45c-0.47,0.5-0.8,1.11-1.19,1.67c-0.13-0.03-0.26-0.06-0.39-0.09
		c0-0.29-0.13-0.67,0.02-0.85c0.81-0.94,1.54-2,2.57-2.7c1.23-0.83,2.23-0.24,1.99,1.13c-0.23,1.31-0.76,2.58-1.2,3.85
		c-0.34,0.99-0.81,1.95-1.09,2.95c-0.45,1.57-0.17,1.8,1.56,1.47c0.38-0.07,0.76-0.22,1.13-0.18c0.38,0.04,0.73,0.25,1.1,0.39
		c-0.02,0.11-0.05,0.22-0.07,0.33c-0.82,0.14-1.64,0.32-2.46,0.42c-2.03,0.25-2.8-0.47-2.28-2.34c0.46-1.63,1.21-3.19,1.79-4.79
		c0.29-0.8,0.47-1.64,0.7-2.46C378.44,268.9,378.29,268.81,378.13,268.73z"/>
	<path class="st0" d="M317.56,356.54c0.37,0.9-0.76,2.01-2.24,1.81c-3.08-0.41-5.35-4.19-4.08-6.76c0.42-0.85,1.12-1.31,2.16-1.19
		c1.06,0.12,1.92,0.67,1.88,1.65c-0.05,1.23-0.38,2.46-0.66,3.67c-0.04,0.17-0.48,0.26-0.74,0.39c-0.05-0.23-0.17-0.47-0.13-0.68
		c0.2-0.89,0.52-1.76,0.66-2.65c0.12-0.75-0.18-1.54-1.14-1.44c-0.5,0.05-1.18,0.72-1.32,1.21c-0.51,1.9,0.93,4.25,3.01,4.72
		C315.68,357.44,316.61,356.83,317.56,356.54z"/>
	<path class="st0" d="M577.67,276.47c0.1,0.19,0.22,0.38,0.28,0.58c1.12,3.34,2.34,6.67,3.27,10.05c0.3,1.1-0.02,2.4-0.33,3.55
		c-0.17,0.63-0.84,1.24-1.45,1.65c-0.45,0.3-1.18,0.26-1.78,0.37c0.39-0.33,0.73-0.75,1.19-0.99c1.18-0.59,1.6-1.63,1.47-2.63
		c-0.27-2.13-0.71-4.25-1.27-6.33c-0.44-1.63-1.18-3.19-1.76-4.8c-0.14-0.37-0.14-0.79-0.2-1.19
		C577.29,276.65,577.48,276.56,577.67,276.47z"/>
	<path class="st0" d="M358.52,299.77c-2.89,2.22-2.7,5.33-3.23,8.51c-0.39-0.48-0.65-0.65-0.66-0.83c-0.08-2.56,0.32-5.04,2.01-7.16
		c0.45-0.56,1.4-1.2,2.01-1.12c0.62,0.08,1.49,0.95,1.59,1.56c0.35,2.17,0.42,4.37,0.57,6.57c0.01,0.13-0.28,0.28-0.43,0.42
		c-0.19-0.2-0.53-0.39-0.54-0.6c-0.04-1.3,0.02-2.6-0.02-3.9C359.78,302.01,359.56,300.84,358.52,299.77z"/>
	<path class="st0" d="M509.67,380.44c0.23,0.4,0.59,0.78,0.67,1.21c0.71,3.7,1.35,7.4,2.07,11.1c0.14,0.73,0.51,1.41,0.73,2.13
		c0.1,0.32,0.21,0.71,0.11,1.01c-0.14,0.38-0.49,0.71-0.75,1.06c-0.23-0.34-0.61-0.66-0.66-1.02c-0.42-3.09-0.72-6.19-1.19-9.27
		c-0.25-1.62-0.79-3.2-1.2-4.8c-0.1-0.4-0.2-0.8-0.29-1.2C509.32,380.58,509.49,380.51,509.67,380.44z"/>
	<path class="st0" d="M343,347.73c-0.2-0.32-0.41-0.65-0.68-1.08c-1.69,0.6-2.49,1.81-2.71,3.33c-0.24,1.67,0.02,3.31,1.82,4.2
		c1.35,0.67,2.85,0.78,4.11-0.48c0.7,0.77,0.18,1.13-0.42,1.44c-1.32,0.66-3.51,0.41-4.76-0.53c-2.83-2.14-2.21-7.14,1.1-8.57
		c0.45-0.19,1.3-0.14,1.66,0.13c0.36,0.27,0.33,0.96,0.47,1.46C343.4,347.66,343.2,347.7,343,347.73z"/>
	<path class="st0" d="M619.21,268.73c0.09-0.27,0.1-0.63,0.3-0.78c0.63-0.45,1.29-0.92,2.03-1.19c1.37-0.51,2.5,0.15,2.42,1.48
		c-0.1,1.54-0.45,3.07-0.74,4.59c-0.2,1.05-0.5,2.09-0.75,3.11c1.08,0.94,3.3-0.56,3.84,1.45c-1-0.07-1.78-0.17-2.55-0.17
		c-1.8,0.01-2.41-0.55-2.07-2.13c0.33-1.52,0.78-3.03,1.15-4.54c0.1-0.42,0.23-0.86,0.18-1.27c-0.07-0.6-0.29-1.19-0.45-1.78
		c-0.65,0.23-1.32,0.43-1.94,0.71c-0.37,0.16-0.67,0.46-1,0.69C619.49,268.84,619.35,268.78,619.21,268.73z"/>
	<path class="st0" d="M532.6,291.08c-0.27-0.82-0.7-1.62-0.77-2.45c-0.33-4.48-0.58-8.96-0.83-13.44c-0.02-0.33,0.15-0.66,0.45-0.98
		c1.29,5.54,1.27,11.16,1.63,16.74C532.93,290.99,532.76,291.03,532.6,291.08z"/>
	<path class="st0" d="M607.06,305.92c-0.19-2.92-0.36-5.5-0.53-8.09c-0.21-0.01-0.42-0.02-0.63-0.03c-2.23,1.99-2.27,4.58-1.87,7.3
		c-0.22,0-0.44,0-0.67,0c-0.18-0.69-0.47-1.37-0.51-2.06c-0.14-2.02,0.57-3.84,1.89-5.45c0.3-0.37,0.96-0.75,1.4-0.71
		c0.42,0.04,1.05,0.61,1.09,0.99c0.26,2.44,0.4,4.89,0.53,7.33C607.77,305.37,607.46,305.54,607.06,305.92z"/>
	<path class="st0" d="M280.11,304.75c1.08-0.28,2.2-0.49,3.24-0.86c0.59-0.21,1.07-0.66,1.6-1c-0.48-0.45-0.9-0.95-1.44-1.33
		c-1.06-0.73-2.29-1.29-3.26-2.1c-0.85-0.71-1.16-1.77-0.45-2.73c0.65-0.88,1.67-1.3,2.87-1.09c0.27,0.05,0.51,0.26,0.7,0.73
		c-0.43,0.04-0.86,0.08-1.29,0.12c-1.58,0.15-2.2,1.3-1.14,2.37c0.68,0.69,1.67,1.13,2.53,1.68c1.02,0.65,2.61,0.96,2.41,2.43
		c-0.19,1.41-1.75,1.57-2.91,2.01c-0.57,0.21-1.2,0.33-1.82,0.37c-0.36,0.02-0.75-0.21-1.12-0.33
		C280.06,304.93,280.08,304.84,280.11,304.75z"/>
	<path class="st0" d="M352.62,332.43c-0.87,0.66-1.74,1.32-2.69,2.03c-0.18-1.37,2.01-3.22,3.19-2.76c0.42,0.16,0.85,1,0.75,1.42
		c-0.34,1.43-0.96,2.8-1.4,4.21c-0.36,1.18-0.62,2.39-0.93,3.61c1.34,0.3,1.9-1.45,3.27-0.44c-0.83,0.52-1.5,1.08-2.3,1.4
		c-1,0.4-1.69-0.14-1.63-1.02c0.09-1.32,0.35-2.64,0.71-3.92c0.41-1.44,1.02-2.83,1.54-4.25
		C352.97,332.64,352.79,332.53,352.62,332.43z"/>
	<path class="st0" d="M248.49,201.25c-0.16,0.4-0.26,0.83-0.47,1.2c-1.65,2.82-2.12,5.83-1.59,8.94c0.3,1.77,1.18,3.31,3.33,3.88
		c0.08,0.02,0.15,0.11,0.2,0.18c0.04,0.07,0.05,0.16,0.1,0.38c-1.02,0.38-1.8-0.08-2.48-0.64c-1.49-1.24-2.16-2.85-2.27-4.64
		c-0.17-2.98,0.22-5.88,1.88-8.53c0.22-0.35,0.53-0.65,0.8-0.98C248.17,201.11,248.33,201.18,248.49,201.25z"/>
	<path class="st0" d="M574.41,360.49c-0.24-0.48-0.64-0.95-0.68-1.45c-0.36-4.26-0.68-8.52-0.95-12.78
		c-0.03-0.53,0.27-1.08,0.41-1.62c0.17,0.01,0.33,0.03,0.5,0.04c0.05,0.3,0.13,0.59,0.15,0.89c0.24,4.13,0.45,8.26,0.72,12.38
		c0.02,0.28,0.51,0.52,0.56,0.82c0.09,0.52,0.03,1.07,0.03,1.6C574.89,360.41,574.65,360.45,574.41,360.49z"/>
	<path class="st0" d="M300.93,291.22c0.34-0.05,0.68-0.08,1.01-0.17c0.41-0.11,0.82-0.26,1.2-0.43c1.79-0.82,1.83-1.41,0.23-2.45
		c-1.01-0.65-2.07-1.28-2.92-2.08c-1.45-1.35-1.34-3.76,0.13-4.77c0.33-0.23,0.93-0.38,1.28-0.27c0.28,0.09,0.36,0.66,0.57,1.09
		c-1.58-0.06-2.46,0.76-1.93,1.99c0.44,1.01,1.43,1.86,2.3,2.67c0.59,0.55,1.43,0.87,2.07,1.38c0.74,0.59,0.83,1.33,0.31,2.1
		c-0.58,0.88-2.46,1.62-3.71,1.44C301.3,291.55,301.12,291.38,300.93,291.22z"/>
	<path class="st0" d="M234.86,343.36c-2.23-1.23-4.05-0.87-5.39,1.03c-0.79,1.12-1.4,2.33-2.1,3.51c-1.19-0.85-2.26-5.28-1.31-6.76
		c0.17,0.75,0.33,1.51,0.5,2.26c0.19,0.8,0.4,1.59,0.66,2.64c0.64-0.94,1.1-1.69,1.64-2.41c1.1-1.48,2.69-2.03,4.6-1.83
		C234.3,341.89,235.17,342.12,234.86,343.36z"/>
	<path class="st0" d="M533.66,315.82c-0.11,0.24-0.16,0.72-0.45,0.95c-1.31,1.02-3.25,0.44-3.76-1.13
		c-0.27-0.85-0.36-1.75-0.54-2.65c-0.83,0.07-1.61,0.14-2.38,0.2c-0.06-0.16-0.11-0.33-0.17-0.49c0.52-0.17,1.03-0.46,1.57-0.5
		c0.94-0.07,1.16-0.48,1.21-1.26c0.04-0.72,0.36-1.43,0.56-2.15c0.22,0.05,0.44,0.09,0.66,0.14c-0.09,0.45-0.2,0.9-0.26,1.36
		c-0.05,0.46-0.05,0.93-0.08,1.46c1.03,0.05,1.94,0.09,2.86,0.13c0.03,0.17,0.05,0.34,0.08,0.51c-0.92,0.14-1.84,0.27-2.85,0.41
		c-0.21,1.21-0.2,2.49,0.91,3.29C531.45,316.42,532.56,315.97,533.66,315.82z"/>
	<path class="st0" d="M367.89,300.82c-0.7-0.06-1.41-0.13-2.15-0.19c0,2.91,0,5.73,0,8.56c-0.16,0.03-0.32,0.07-0.47,0.1
		c-0.18-0.59-0.49-1.18-0.51-1.78c-0.06-2.24-0.02-4.48-0.02-6.78c-1.48-0.07-2.64-0.12-3.79-0.18c0-0.18,0-0.35-0.01-0.53
		c0.42-0.08,0.84-0.22,1.26-0.22c1.63-0.02,3.27-0.04,4.9,0.05c0.4,0.02,0.78,0.41,1.17,0.64
		C368.14,300.59,368.01,300.71,367.89,300.82z"/>
	<path class="st0" d="M417.5,381.53c0.08,0.63,0.16,1.14,0.2,1.67c0.27,3.49,0.49,6.98,0.81,10.46c0.06,0.65,0.5,1.26,0.62,1.91
		c0.05,0.24-0.31,0.54-0.48,0.82c-0.23-0.23-0.6-0.43-0.67-0.69c-1.23-4.41-1.29-8.9-1.21-13.41c0-0.16,0.08-0.33,0.17-0.47
		C417,381.73,417.16,381.7,417.5,381.53z"/>
	<path class="st0" d="M260.86,283.14c-0.38,0.02-0.78,0.13-1.13,0.05c-4.61-1.08-9.32-1.16-14.04-1.24
		c-0.68-0.01-1.35-0.37-2.03-0.56c0.63-0.08,1.25-0.22,1.88-0.23c4.68-0.05,9.34,0.08,13.91,1.08c0.51,0.11,0.99,0.33,1.48,0.5
		C260.9,282.88,260.88,283.01,260.86,283.14z"/>
	<path class="st0" d="M374.64,387.27c5.64-0.19,11.03-0.37,16.61-0.56c-0.59,0.85-0.59,0.86-5.32,1.07
		c-1.92,0.09-3.85,0.14-5.77,0.2C375.49,388.12,375.49,388.12,374.64,387.27z"/>
	<path class="st0" d="M557.34,280.35c-0.38,0.04-0.83-0.03-1.1,0.14c-0.52,0.32-1.18,0.73-1.32,1.2c-0.11,0.39,0.31,1.07,0.72,1.4
		c0.96,0.78,2.11,1.36,3.07,2.14c1.26,1.04,1.16,2.2-0.12,3.23c-1.14,0.91-2.19,1.3-3.47,1.06c0.74-0.44,1.24-0.78,1.77-1.06
		c2.25-1.19,2.31-1.99,0.18-3.4c-0.77-0.51-1.62-0.94-2.35-1.51c-0.89-0.69-1.21-1.64-0.64-2.58c0.55-0.9,1.45-1.52,2.72-1.37
		c0.27,0.03,0.51,0.25,0.77,0.38C557.49,280.12,557.42,280.24,557.34,280.35z"/>
	<path class="st0" d="M275.7,315.97c1.46,0,2.54,0,3.63,0c0.01,0.18,0.03,0.37,0.04,0.56c-1.17,0.1-2.34,0.2-3.95,0.33
		c0.47,0.92,0.74,1.72,1.28,2.33c0.22,0.24,1.05,0.04,1.67,0.04c0.35,0.79,0.01,1.26-0.99,1.16c-1.23-0.11-2.18-1.07-2.54-2.35
		c-0.15-0.54-0.56-1.02-0.94-1.68c1.55-0.58,1.17-2.38,1.93-3.68c0.12-0.21,0.46-0.33,0.69-0.49c0.07,0.25,0.25,0.53,0.19,0.75
		C276.45,313.85,276.11,314.75,275.7,315.97z"/>
	<path class="st0" d="M202.65,365.39c-0.97-2.24-2.06-4.32-2.02-6.62c0.2-0.05,0.39-0.11,0.59-0.15c0.44,1.48,0.88,2.97,1.38,4.68
		c1.45-1.74,2.43-3.77,5.07-3.77c0.55,0,1.11,0.44,2.01,0.83c-0.64,0.24-0.86,0.41-1.03,0.38c-1.92-0.41-2.79-0.17-3.87,1.26
		c-0.56,0.74-0.98,1.58-1.47,2.37C203.1,364.71,202.87,365.05,202.65,365.39z"/>
	<path class="st0" d="M351.43,300.06c-0.86,0.3-1.85,0.4-1.98,0.75c-0.23,0.64-0.21,1.58,0.17,2.13c0.56,0.82,1.6,1.37,2.29,2.14
		c0.4,0.45,0.88,1.35,0.66,1.63c-0.46,0.58-1.3,1.02-2.08,1.26c-0.6,0.18-1.35-0.02-2.03-0.05c-0.04-0.16-0.07-0.33-0.1-0.49
		c0.56-0.15,1.12-0.3,1.68-0.46c0.57-0.16,1.14-0.32,1.71-0.48c0.09-0.16,0.19-0.32,0.28-0.48c-1.02-0.78-2.14-1.47-3.04-2.35
		c-1.56-1.54-1.02-3.69,0.98-4.38C351.06,298.9,351.44,299.18,351.43,300.06z"/>
	<path class="st0" d="M341.73,301.11c-0.74,1.27-1.32,2.26-2.08,3.55c1.81,0,3.18,0,4.68,0c-0.58,0.79-0.58,0.79-4.25,1.03
		c-0.19,1.09-0.19,1.09,2.81,2.88c-0.71,0.6-1,0.57-2.52-0.26c-1.57-0.85-1.91-2.26-1.11-4.84
		C339.59,302.4,340.02,301.38,341.73,301.11z"/>
	<path class="st0" d="M431.24,347.85c-0.27,0.15-0.52,0.39-0.81,0.42c-4.74,0.59-9.48,0.64-14.22,0.28c0-0.2-0.01-0.39-0.01-0.59
		c4.97-0.13,9.94-0.26,14.92-0.39C431.15,347.67,431.19,347.76,431.24,347.85z"/>
	<path class="st0" d="M538.78,313.17c1.42-0.09,2.81-0.18,4.2-0.27c0.02,0.15,0.05,0.3,0.07,0.46c-1.11,0.95-2.72,0.29-4.37,0.9
		c0.79,0.81,1.49,1.52,2.17,2.22c-0.68,0.5-1.2,0.41-2.01-0.52c-0.55-0.62-1.01-1.31-1.56-2.03c0.67-1.37,0.07-3.34,2-4.36
		c0.32-0.17,0.71-0.24,1.27-0.19C539.57,310.5,538.22,311.4,538.78,313.17z"/>
	<path class="st0" d="M534.97,302.43c0.12,0.75,0.12,0.75,2.23,2.16c-0.82,0.57-1.83,0.44-2.52-0.3c-1.56-1.69-0.57-5.99,1.62-6.91
		c0.25-0.1,0.57-0.06,0.9-0.08c-0.89,1.28-1.71,2.45-2.53,3.62c0.14,0.13,0.28,0.25,0.41,0.38c1.24-0.38,2.48-0.76,3.73-1.14
		c0.08,0.19,0.17,0.39,0.25,0.58C537.74,301.27,536.42,301.82,534.97,302.43z"/>
	<path class="st0" d="M541.69,295.18c-0.32,0.52-0.35,0.68-0.45,0.73c-1.75,0.8-1.82,0.95-0.76,2.49c0.5,0.73,1.2,1.36,1.69,2.09
		c0.39,0.57,0.93,1.31,0.8,1.85c-0.19,0.8-0.75,1.76-1.49,2.14c-0.59,0.3-1.67-0.16-2.53-0.28c0.02-0.18,0.04-0.36,0.06-0.54
		c0.46-0.04,0.93-0.15,1.38-0.09c1.23,0.16,2.05-0.61,1.57-1.62c-0.33-0.7-0.96-1.28-1.4-1.94c-0.61-0.92-1.3-1.82-1.7-2.82
		c-0.17-0.42,0.16-1.24,0.57-1.54C539.89,295.32,540.7,295.36,541.69,295.18z"/>
	<path class="st0" d="M507.87,283.57c0.58-0.23,1.01-0.55,1.42-0.55c4.17-0.02,8.35,0.02,12.52,0.05c0.38,0,0.82,0.04,1.11,0.21
		c0.28,0.17,0.42,0.54,0.61,0.82c-0.32,0.03-0.65,0.12-0.96,0.09c-0.84-0.08-1.68-0.31-2.52-0.31c-3.88-0.01-7.75,0.05-11.63,0.07
		C508.35,283.95,508.28,283.85,507.87,283.57z"/>
	<path class="st0" d="M592.62,302.34c-0.55,2.01,0.56,2.92,2.8,3.05c-1.37,1.19-3.22,0.55-3.69-1.06c-0.23-0.79-0.36-1.6-0.56-2.56
		c1.2-0.86,0.21-3.04,2.55-4c-0.45,1.29-0.8,2.31-1.21,3.5c1.08,0,1.9,0,2.93,0C594.86,302.64,593.53,302.02,592.62,302.34z"/>
	<path class="st0" d="M597.78,304.3c0.31,0.06,0.66,0.23,0.93,0.17c0.44-0.1,0.94-0.29,1.19-0.59c0.14-0.18-0.05-0.73-0.27-0.98
		c-0.65-0.75-1.51-1.36-2.05-2.15c-0.53-0.78-0.98-1.71-1.06-2.6c-0.12-1.37,1.51-2.09,2.99-1.32c-0.32,0.18-0.56,0.41-0.83,0.44
		c-1.41,0.16-1.6,0.98-1.02,1.84c0.76,1.13,1.78,2.11,2.7,3.15c1.2,1.37,0.69,2.79-1.19,3.05c-0.5,0.07-1.08-0.31-1.63-0.48
		C597.62,304.66,597.7,304.48,597.78,304.3z"/>
	<path class="st0" d="M277.78,301.96c-0.95,0.42-1.9,0.84-2.93,1.29c-0.32,1.37,0.78,1.71,2.15,1.78c-0.8,0.89-1.94,0.9-2.55,0.09
		c-0.51-0.68-0.83-1.47-1.25-2.24c0.43-1.05,0.88-2.2,1.38-3.33c0.16-0.35,0.44-0.68,0.74-0.94c0.16-0.13,0.5-0.1,0.75-0.14
		c-0.01,0.26,0.07,0.55-0.04,0.76c-0.47,0.88-0.99,1.74-1.49,2.61c0.13,0.09,0.26,0.17,0.38,0.26c0.88-0.24,1.76-0.48,2.64-0.72
		C277.64,301.57,277.71,301.77,277.78,301.96z"/>
	<path class="st0" d="M484.83,225.84c0.51-0.19,1.03-0.53,1.55-0.54c4.47-0.07,8.94-0.08,13.42-0.09c0.17,0,0.34,0.11,0.97,0.33
		c-0.71,0.25-1.05,0.48-1.4,0.49c-3.41,0.05-6.83,0.06-10.24,0.08c-1.37,0.01-2.74,0-4.11,0
		C484.95,226.02,484.89,225.93,484.83,225.84z"/>
	<path class="st0" d="M244.99,285.17c1.69-1.16,13.68-0.34,14.59,0.92C254.72,285.78,249.98,285.48,244.99,285.17z"/>
	<path class="st0" d="M402.91,290c-0.83,0.27-1.44,0.46-2.43,0.79c0.96,0.58,1.58,0.94,2.18,1.33c0.66,0.43,1.37,0.82,1.93,1.33
		c0.99,0.9,0.77,2.03-0.45,2.7c-1.22,0.67-2.33,0.73-3.18-0.02c0.74-0.16,1.39-0.22,1.95-0.46c0.49-0.2,1.07-0.54,1.24-0.94
		c0.11-0.25-0.38-0.84-0.75-1.1c-0.87-0.6-1.84-1.08-2.75-1.64c-0.91-0.56-0.94-1.31-0.28-2C401.06,289.27,401.9,289.04,402.91,290z
		"/>
	<path class="st0" d="M530.81,297.82c-0.26-0.07-0.56-0.24-0.77-0.17c-0.51,0.15-1.14,0.32-1.41,0.67c-0.18,0.24,0.05,0.9,0.32,1.2
		c0.51,0.56,1.2,0.98,1.79,1.49c1.35,1.17,1.23,2.11-0.36,3.01c-0.36,0.21-0.73,0.45-1.13,0.56c-0.34,0.09-0.73,0-1.1-0.01
		c0.24-0.27,0.47-0.54,0.71-0.8c0.06-0.06,0.16-0.09,0.24-0.13c1.96-0.92,1.99-1.17,0.34-2.51c-0.46-0.37-1.06-0.7-1.32-1.17
		c-0.33-0.6-0.74-1.58-0.44-1.93c0.55-0.63,1.56-0.98,2.44-1.3c0.19-0.07,0.65,0.44,0.99,0.69
		C531.02,297.57,530.92,297.69,530.81,297.82z"/>
	<path class="st0" d="M210.66,295.37c0.93-0.3,1.86-0.6,3.03-0.98c-1.12-0.6-2.06-1.07-2.96-1.6c-1.05-0.63-1.69-1.53-1.16-2.64
		c0.21-0.43,1.04-0.83,1.61-0.86c0.48-0.02,0.99,0.52,1.48,0.81c-0.08,0.12-0.16,0.24-0.24,0.36c-0.17-0.01-0.35-0.01-0.52-0.02
		c-0.47-0.05-0.93-0.1-1.39-0.15c0.17,0.54,0.16,1.27,0.55,1.57c0.82,0.64,1.88,1.02,2.78,1.59c0.39,0.24,0.98,0.78,0.9,0.99
		c-0.17,0.4-0.69,0.79-1.17,0.96c-0.87,0.3-1.81,0.43-2.72,0.63C210.78,295.81,210.72,295.59,210.66,295.37z"/>
	<path class="st0" d="M619.82,387.67c-4.58,0-9.16,0-13.79,0c1.42-0.99,11.77-1.35,13.78-0.5
		C619.82,387.33,619.82,387.5,619.82,387.67z"/>
	<path class="st0" d="M492.57,279.94c0.07,0.4,0.18,0.79,0.22,1.19c0.25,3.32,0.49,6.64,0.7,9.97c0.01,0.23-0.24,0.48-0.37,0.72
		c-0.21-0.2-0.57-0.37-0.6-0.59c-0.13-0.72-0.16-1.46-0.2-2.2c-0.16-2.59-0.31-5.18-0.44-7.78c-0.02-0.43,0.1-0.87,0.16-1.31
		C492.22,279.94,492.39,279.94,492.57,279.94z"/>
	<path class="st0" d="M418.81,351.5c4.2,0,8.4,0,12.94,0c-0.6,0.28-1.05,0.64-1.53,0.68c-1.53,0.11-3.07,0.12-4.6,0.14
		c-1.87,0.03-3.74,0.05-5.61,0.05c-0.41,0-0.83-0.09-1.24-0.14C418.78,351.98,418.79,351.74,418.81,351.5z"/>
	<path class="st0" d="M486.98,227.68c0.3-0.11,0.6-0.29,0.9-0.31c3.49-0.2,6.99-0.37,10.49-0.55c0.38-0.02,0.79-0.04,1.15,0.06
		c0.21,0.06,0.36,0.33,0.53,0.51c-0.22,0.11-0.43,0.31-0.66,0.32c-3.54,0.17-7.08,0.33-10.62,0.47c-0.55,0.02-1.12-0.04-1.67-0.06
		C487.05,227.97,487.01,227.83,486.98,227.68z"/>
	<path class="st0" d="M560.67,347.57c0.59,0.03,1.28-0.1,1.77,0.12c1.13,0.51,2.26,1.1,3.19,1.85c0.43,0.35,0.76,1.34,0.52,1.73
		c-0.86,1.4-1.98,2.68-3.03,3.98c-0.05,0.06-0.39-0.08-0.84-0.18c0.79-0.94,1.43-1.77,2.15-2.55c1.26-1.38,1.13-2.49-0.62-3.38
		c-0.99-0.5-2.13-0.77-3.21-1.14C560.63,347.85,560.65,347.71,560.67,347.57z"/>
	<path class="st0" d="M213.79,205.53c0.29-0.21,0.55-0.57,0.87-0.61c1.41-0.17,4.02,1.5,4.48,2.78c0.52,1.47-0.33,3.43-1.86,4.27
		c-0.16,0.09-0.34,0.23-0.51,0.23c-0.29-0.01-0.57-0.12-0.85-0.19c0.14-0.19,0.24-0.42,0.42-0.56c0.38-0.31,0.91-0.52,1.2-0.88
		c0.71-0.87,1.3-2.03,0.48-2.86c-0.85-0.86-2.23-1.29-3.39-1.88c-0.17-0.09-0.44-0.01-0.66-0.01
		C213.91,205.71,213.85,205.62,213.79,205.53z"/>
	<path class="st0" d="M485.3,279.76c0.32-0.26,0.63-0.72,0.97-0.74c3.67-0.23,7.37-0.62,10.94,0.63c0.16,0.05,0.27,0.22,0.36,0.65
		c-0.45,0-0.93,0.1-1.33-0.02C492.72,279.25,489.17,279.62,485.3,279.76z"/>
	<path class="st0" d="M269.26,299.43c-0.65,0.24-0.78,0.28-0.9,0.33c-0.43,0.17-0.86,0.34-1.3,0.51c0.25,0.38,0.42,0.84,0.78,1.11
		c0.54,0.41,1.25,0.65,1.83,1.02c0.98,0.64,0.98,1.23-0.05,1.8c-0.83,0.46-1.69,1.07-2.91,0.39c0.82-0.4,1.64-0.79,2.66-1.29
		c-0.95-0.56-1.84-0.93-2.49-1.51c-0.45-0.4-0.94-1.22-0.77-1.63c0.25-0.58,1.05-1.02,1.72-1.37
		C268.03,298.71,268.56,299.11,269.26,299.43z"/>
	<path class="st0" d="M521.3,286.89c-3.69-0.14-7.43-0.27-11.49-0.42C511.89,285.05,520.95,285.71,521.3,286.89z"/>
	<path class="st0" d="M604.7,384.72c0.45-0.2,0.89-0.53,1.36-0.57c2.11-0.14,4.23-0.17,6.33-0.28c0.99-0.05,1.98-0.24,2.98-0.31
		c0.36-0.02,0.72,0.15,1.09,0.23c-0.26,0.21-0.49,0.57-0.77,0.59c-2.82,0.21-5.64,0.36-8.46,0.54c-0.75,0.05-1.5,0.14-2.25,0.2
		C604.9,384.99,604.8,384.86,604.7,384.72z"/>
	<path class="st0" d="M408.23,292.96c0.06-0.85,0.13-1.67,0.19-2.49c0.2-0.01,0.4-0.02,0.6-0.04c0.12,0.85,0.23,1.7,0.35,2.57
		c0.68,0.12,1.34,0.2,1.96,0.39c0.21,0.07,0.32,0.42,0.46,0.63c-0.24,0.06-0.49,0.2-0.73,0.17c-0.51-0.05-1.01-0.17-1.63-0.29
		c-0.1,0.8-0.19,1.48-0.28,2.17c-0.19,0.02-0.38,0.04-0.57,0.05c-0.12-0.67-0.24-1.34-0.37-2.1c-0.88-0.08-1.78-0.17-2.68-0.25
		c-0.01-0.17-0.02-0.33-0.03-0.5C406.37,293.18,407.23,293.08,408.23,292.96z"/>
	<path class="st0" d="M284.72,319.77c-0.78-0.73-1.09-8.14-0.37-8.91C285.05,311.81,285.35,318.94,284.72,319.77z"/>
	<path class="st0" d="M179.62,360.24c0.73-0.66,7.63-0.72,8.84-0.07C187.77,360.84,181.06,360.9,179.62,360.24z"/>
	<path class="st0" d="M610.21,297.65c1.42,0.78,2.13,7.16,1.07,8.18C610.91,302.96,610.56,300.31,610.21,297.65z"/>
	<path class="st0" d="M234.11,290.04c1.12,1.05,0.99,6.43,0,7.11C234.11,294.69,234.11,292.36,234.11,290.04z"/>
	<path class="st0" d="M555.29,231.33c0.94,2.22-0.55,4.66,1.44,6.63c-0.24,0.61-0.72,0.77-1.36,0.16
		C554.49,237.31,554.33,232.64,555.29,231.33z"/>
	<path class="st0" d="M238.82,289.85c-2.86,0-5.61,0-8.47,0C231.52,288.42,237.7,288.47,238.82,289.85z"/>
	<path class="st0" d="M576.54,375.4c0.24,0.26,0.51,0.43,0.49,0.56c-0.29,2.39-0.61,4.77-0.94,7.19
		C574.98,382.23,575.23,377.49,576.54,375.4z"/>
	<path class="st0" d="M620.57,295.39c-0.59-2.47-0.71-4.98-0.34-7.63C621.05,288.35,621.35,293.6,620.57,295.39z"/>
	<path class="st0" d="M287.94,311.04c-0.79-0.18-1.39-0.4-1.99-0.43c-1.54-0.07-3.08-0.02-4.62-0.08c-0.36-0.01-0.7-0.29-1.05-0.45
		c0.33-0.14,0.66-0.39,1-0.39c1.97,0,3.95,0.04,5.92,0.11C288.35,309.85,288.5,310.23,287.94,311.04z"/>
	<path class="st0" d="M546.47,316.47c0-2.41,0-4.59,0-6.93C547.57,310.45,547.62,315.6,546.47,316.47z"/>
	<path class="st0" d="M377.05,296.8c-0.12-2.4-0.24-4.81-0.36-7.21c0.21-0.03,0.42-0.07,0.63-0.1c0.13,0.33,0.35,0.65,0.38,0.98
		c0.17,1.84,0.31,3.69,0.4,5.54c0.02,0.31-0.26,0.63-0.4,0.94C377.48,296.9,377.26,296.85,377.05,296.8z"/>
	<path class="st0" d="M414.53,291.02c0.08,0.37,0.21,0.74,0.24,1.11c0.15,1.63,0.28,3.26,0.38,4.9c0.01,0.2-0.18,0.42-0.28,0.63
		c-0.22-0.11-0.63-0.21-0.64-0.34c-0.18-2.07-0.31-4.14-0.45-6.21C414.03,291.07,414.28,291.04,414.53,291.02z"/>
	<path class="st0" d="M543.5,308.46c1.01-1.24,5.99-0.89,7.49,0.71c-1.17-0.18-2.34-0.41-3.52-0.53
		C546.21,308.53,544.94,308.52,543.5,308.46z"/>
	<path class="st0" d="M579.45,374.9c-2.48,0.47-4.8,0.9-7.24,1.36C572.86,374.83,578.14,373.89,579.45,374.9z"/>
	<path class="st0" d="M335.32,309.11c-1.32-1.01-1.6-5.35-0.49-6.57C335,304.73,335.16,306.92,335.32,309.11z"/>
	<path class="st0" d="M418.17,290.58c-2.29,0-4.44,0-6.88,0C412.67,289.53,416.98,289.61,418.17,290.58z"/>
	<path class="st0" d="M588.28,305.53c-1.04-0.92-0.96-6.2,0-7.03C588.28,300.95,588.28,303.24,588.28,305.53z"/>
	<path class="st0" d="M607.79,297.21c1.63-1.26,5.02-1.36,6.1-0.41c0.23,0.2,0.21,0.64,0.15,1.06
		C612.22,296.37,610.11,297.29,607.79,297.21z"/>
	<path class="st0" d="M563.68,287.81c0.15,0.42,0.35,0.73,0.38,1.05c0.1,1.24,0.16,2.48,0.2,3.72c0.01,0.2-0.23,0.41-0.35,0.62
		c-0.2-0.14-0.57-0.27-0.58-0.42c-0.09-1.53-0.12-3.07-0.14-4.6C563.17,288.11,563.37,288.04,563.68,287.81z"/>
	<path class="st0" d="M309.54,289.72c0.1,0.34,0.23,0.67,0.3,1.01c0.21,0.99,0.41,1.98,0.57,2.98c0.03,0.19-0.16,0.41-0.24,0.62
		c-0.31-0.2-0.86-0.37-0.9-0.6c-0.21-1.28-0.29-2.59-0.42-3.88C309.08,289.8,309.31,289.76,309.54,289.72z"/>
	<path class="st0" d="M485.64,294.25c0-1.56,0-3.12,0-4.7C486.53,290.03,486.74,293.14,485.64,294.25z"/>
	<path class="st0" d="M588.44,294.5c0.24,0.24,0.47,0.38,0.58,0.57c0.23,0.41,0.41,0.85,0.61,1.27c-0.17,0.03-0.45,0.13-0.49,0.08
		c-0.37-0.46-0.71-0.94-1.02-1.43C588.07,294.92,588.28,294.73,588.44,294.5z"/>
	<path class="st0" d="M586.86,227.48c-0.53,0-1.05,0-1.58,0c0.04-0.35,0.08-0.69,0.12-1.04c0.53,0.18,1.07,0.36,1.6,0.54
		C586.96,227.14,586.91,227.31,586.86,227.48z"/>
</g>
</svg>
