<?xml version="1.0" encoding="utf-8"?>
<!-- Generator: Adobe Illustrator 24.1.1, SVG Export Plug-In . SVG Version: 6.00 Build 0)  -->
<svg version="1.1" id="Слой_1" xmlns="http://www.w3.org/2000/svg" xmlns:xlink="http://www.w3.org/1999/xlink" x="0px" y="0px"
	 viewBox="0 0 841.89 595.28" style="enable-background:new 0 0 841.89 595.28;" xml:space="preserve">
<style type="text/css">
	.st0{clip-path:url(#SVGID_2_);}
	.st1{fill:#1F264A;fill-opacity:0.68;}
</style>
<g>
	<defs>
		<rect id="SVGID_1_" x="147.29" y="193.45" width="548" height="209"/>
	</defs>
	<clipPath id="SVGID_2_">
		<use xlink:href="#SVGID_1_"  style="overflow:visible;"/>
	</clipPath>
	<g class="st0">
		<path class="st1" d="M661.55,402.44c0-1.35,0-2.7,0-4.45c-10.98-0.02-21.64,0-32.65-0.01c-0.66-7.37-0.2-14.32-0.31-21.24
			c-0.02-0.79,0.33-1.6,0.49-2.31c10.86,0,21.42,0,32.19,0c0-6.74,0-13.42,0-20.5c-3.4-0.02-6.85-0.06-10.29-0.07
			c-3.38-0.02-6.74,0-9.67,0c-4.3,1.36-8.2,2.53-12.06,3.82c-5.86,1.96-11.67,4.04-17.52,6c-5.38,1.8-10.81,3.46-16.2,5.24
			c-5.51,1.82-11.04,3.58-16.47,5.61c-3.09,1.15-5.86,1-8.98-0.06c-19.8-6.73-39.68-13.24-59.5-19.9c-3.7-1.24-7.41-0.37-11.43-0.79
			c-0.08,1.25-0.2,2.32-0.2,3.39c-0.02,13.72-0.01,27.45-0.02,41.18c0,1.37-0.06,2.74-0.1,4.11c-0.5,0-1,0-1.5,0
			c0-16.45,0-32.9,0-49.31c0.67-0.37,1.08-0.71,1.54-0.81c0.6-0.13,1.25-0.14,1.87-0.07c6.49,0.73,12.52-1.07,18.55-3.14
			c14.53-4.97,29.1-9.81,43.67-14.68c3.63-1.21,7.28-2.36,11.07-3.58c0.58-3.17,0.53-6.29,0.29-9.33c-3.91,0-7.47,0-11.04,0
			c-3.75,0-7.5,0-11.25,0c-3.62,0-7.25,0.11-10.86-0.03c-3.54-0.13-7.15,0.61-10.76-0.52c0-7.65,0-14.98,0-22.28
			c1.07-1.62,2.7-1.1,4.12-1.11c12-0.03,23.99-0.02,35.98-0.02c1.22,0,2.43,0,3.84,0c-0.2-3.12-0.38-5.87-0.57-8.96
			c-14.11,0-28.55,0-42.92,0c-0.95-3.6-0.83-21.03,0.11-23.54c14.28,0,28.57,0,43.1,0c-0.08-1.61-0.19-3.03-0.22-4.46
			c-0.04-1.48-0.01-2.96-0.01-4.72c-3.17-0.41-6.73-0.1-10.28-0.16c-3.75-0.05-7.5-0.01-11.25-0.01c-3.62,0-7.24,0-10.87,0
			c-3.59,0-7.18,0-11.18,0c-0.04-7.93-0.02-15.47-0.02-23.39c14.67,0,28.97,0,43.62,0c0-3.32,0-6.26,0-9.39
			c-28.72,0-57.79,0-86.89,0c-21.72,7.21-43.51,14.45-65.42,21.72c-21.78-7.25-43.56-14.5-65.24-21.72c-29.15,0-58.22,0-87.17,0
			c0,3.09,0,6.01,0,9.21c0.48,0.22,1.24,0.63,2.04,0.9c20.3,6.77,40.62,13.54,60.94,20.25c1.38,0.46,2.9,0.7,4.36,0.71
			c9,0.06,17.99,0.03,26.99,0.03c1.23,0,2.46,0,4.11,0c0.09,3.81,0.18,7.34,0.27,11.04c14.45,0,28.72,0,43.19,0
			c0,7.63,0,15.31,0,23.42c-2.88,0.04-5.7,0.09-8.52,0.11c-2.87,0.02-5.74,0.01-8.62,0.01c-2.87,0-5.74,0-8.62,0
			c-2.88,0-5.74,0-8.62,0c-2.85,0-5.7,0-8.72,0c0,3.07,0,5.87,0,8.96c1.41,0,2.63,0,3.85,0c15.36,0,30.73-0.01,46.1,0.01
			c1.44,0,3.04-0.5,4.4,1.02c0,7.15,0,14.47,0,22c-0.46,0.27-1.01,0.87-1.48,0.82c-4.07-0.41-8.12,0.31-12.19,0.14
			c-3.99-0.17-7.99-0.04-11.99-0.04c-4.12,0-8.25,0-12.37,0c-4,0-7.99,0-12,0c-1.36,0-2.72,0-4.36,0c-0.38,2.79-0.07,5.96-0.11,9.35
			c20.29,6.76,40.57,13.52,60.84,20.27c1.9-3.51,5.14-6.74,2.44-11.48c2.46,0,4.96,0,7.51,0c-2.23,4.28-0.5,8.23,0.8,12.47
			c1.34,0.07,2.8,0.13,4.4,0.22c0.88,2.46,0.35,4.96,0.44,7.39c0.1,2.37,0.02,4.74,0.02,7.12c0,2.47,0,4.94,0,7.72
			c11.05,0,21.81,0,32.78,0c0,7.87,0,15.41,0,23.37c-5.5,0.04-10.83,0.02-16.17,0.02c-5.37,0.01-10.73,0-16.4,0
			c-0.11,1.56-0.21,3.01-0.31,4.46c-0.5,0-1,0-1.5,0c-0.05-1.45-0.09-2.88-0.14-4.43c-11-0.11-21.58,0.05-32.51-0.11
			c-0.7-7.15-0.2-13.98-0.32-20.77c-0.02-0.92,0.26-1.85,0.4-2.76c4.7,0.52,29.88,0.31,32.32-0.23c0-6.69,0-13.36,0-20.24
			c-4.03,0.13-7.84-0.58-11.63,0.69c-19.91,6.71-39.86,13.33-59.76,20.08c-2.86,0.97-5.46,0.9-8.3-0.06
			c-19.32-6.51-38.72-12.8-57.99-19.45c-4.43-1.53-8.73-1.21-13.11-1.24c-0.65,4.64-0.52,17.99,0.16,20.53c10.57,0,21.15,0,32,0
			c0.67,7.68,0.6,15.36-0.2,23.4c-3.66,0.25-7.26,0.09-10.84,0.12c-3.49,0.03-7,0.01-10.5,0.01c-3.58,0-7.17,0-11.05,0
			c0,1.76,0,3.11,0,4.46c-0.5,0-1,0-1.5,0c-0.07-1.36-0.15-2.7-0.23-4.34c-10.81,0-21.51,0-32.09,0c-0.95-2.73-1.2-14.5-0.58-23.07
			c2.59-0.9,5.34-0.28,8.02-0.39c2.74-0.11,5.5-0.02,8.25-0.02c2.63,0,5.25,0,7.87,0c2.74,0,5.47,0,8.59,0
			c0.02-3.87,0.05-7.57,0.07-11.26c0.01-3.58,0.01-7.16,0.02-11.09c3.38,0,6.35,0.11,9.31-0.04c1.83-0.08,3.73-0.29,5.46-0.86
			c20.31-6.7,40.59-13.48,60.88-20.23c0.22-0.08,0.4-0.25,0.71-0.44c0-3.03,0-6.12,0-9.15c-3.54,0-7.09,0-10.63,0
			c-3.62,0-7.24,0-10.87,0c-3.75,0-7.5,0-11.25,0c-3.62,0-7.25,0.09-10.87-0.02c-3.55-0.11-7.17,0.54-10.84-0.48
			c0-7.84,0-15.4,0-23.15c3.68-0.61,7.29-0.22,10.87-0.29c3.62-0.07,7.24-0.02,10.87-0.02c3.62,0,7.24,0,10.87,0s7.24,0,10.87,0
			c3.58,0,7.18,0,10.92,0c0-3.05,0-5.75,0-8.88c-3.57-0.03-7.14-0.06-10.71-0.07c-3.62-0.02-7.24,0-10.87,0c-3.63,0-7.24,0-10.87,0
			c-3.62,0-7.24,0-10.87,0c-3.6,0-7.19,0-11.16,0c-0.04-2.9-0.09-5.48-0.1-8.06c-0.02-2.62-0.06-5.24,0.01-7.87
			c0.08-2.55-0.37-5.15,0.38-7.61c18.27,0,36.16,0,54.2,0c0-3.06,0-6.02,0-9.21c-1.05-0.05-2.01-0.13-2.97-0.13
			c-8.87-0.01-17.74-0.05-26.61,0.03c-1.83,0.01-3.73,0.25-5.46,0.82c-19.23,6.37-38.43,12.84-57.64,19.29
			c-1.52,0.51-3.03,1.07-4.65,1.65c-10.15-3.37-20.34-6.77-30.54-10.15c-11.02-3.66-22.05-7.31-33.08-10.95
			c-0.93-0.31-1.9-0.65-2.86-0.66c-6.61-0.06-13.23-0.03-19.79-0.03c-0.7,2.73-0.86,26.28-0.21,31.17c21.41,0,42.87,0,64.24,0
			c0.87,2.7,1.11,14.59,0.54,22.91c-1.15,1.07-2.59,0.57-3.9,0.57c-18.99,0.04-37.98,0.02-56.97,0.02c-1.24,0-2.48,0-3.77,0
			c-0.88,1.35-0.47,2.76-0.47,4.06c-0.02,27.96-0.01,55.92-0.01,83.88c0,1.37-0.03,2.74-0.04,4.12c-0.5,0-1,0-1.5,0
			c-0.04-1.37-0.1-2.74-0.1-4.11c-0.01-27.82-0.01-55.65-0.01-83.47c0-1.36,0-2.7,0-4.48c-11.01,0-21.8,0-32.78,0
			c0-7.87,0-15.3,0-22.97c2.54-0.96,5.29-0.29,7.97-0.41c2.74-0.12,5.5-0.03,8.24-0.03c2.62,0,5.25,0,7.87,0c2.74,0,5.47,0,8.62,0
			c0.03-3.72,0.06-7.29,0.07-10.85c0.01-3.62,0-7.24,0-10.85c0-3.6,0-7.18,0-10.98c1.27-0.1,2.23-0.25,3.18-0.25
			c5.5-0.02,10.99,0.05,16.49-0.04c1.71-0.03,3.49-0.25,5.1-0.78c20.33-6.7,40.63-13.47,60.94-20.23c0.58-0.19,1.12-0.53,2.03-0.98
			c0-3.41,0-6.97,0-10.91c1.71,0,3.04,0,4.39,0c26.85,0,53.7,0.01,80.56-0.02c1.59,0,3.27-0.07,4.75-0.55
			c20.93-6.88,41.82-13.84,63.09-20.89c0.09-2.03,0.17-4.1,0.26-6.17c0.5,0,1,0,1.5,0c0,1.99,0,3.99,0,6.1
			c7.24,2.43,14.37,4.82,21.48,7.19c11.98,3.99,24.02,7.83,35.92,12.05c4.9,1.74,9.79,2.39,14.94,2.36c20-0.1,39.99-0.04,59.98-0.04
			c1.24,0,2.47,0,4.03,0c-0.41-0.82-0.67-1.33-1.02-2.02c-2.61-0.09-5.28-0.9-7.63,1.22c-0.49-1.19-0.48-2.07,0.4-2.87
			c2.17-1.96,1.65-4.78,2.17-7.25c0.08-0.4-0.62-0.96-1.09-1.64c2.53,0,4.97,0,7.36,0c-1.34,2.53-0.45,5.31-0.7,7.63
			c0.71,1.75,1.3,3.18,2.01,4.91c4.76,0,9.72,0,15.09,0c0,3.79,0,7.33,0,11.16c14.87,0,29.31,0,43.68,0
			c0.75,2.87,0.91,18.24,0.32,22.95c-0.07,0.06-0.15,0.16-0.26,0.22c-0.1,0.07-0.22,0.12-0.33,0.15c-0.24,0.05-0.49,0.11-0.73,0.11
			c-13.99,0.01-27.99,0.01-42.18,0.01c-0.7,3.12-0.27,6.16-0.3,9.3c14.49,0,28.76,0,43.32,0c0.19,0.41,0.74,1.04,0.74,1.69
			c0.05,6.74,0.02,13.48-0.01,20.23c0,0.34-0.25,0.68-0.54,1.43c-1.17,0.08-2.49,0.25-3.8,0.25c-11.87,0.02-23.75,0.01-35.62,0.01
			c-1.23,0-2.47,0-3.92,0c0,3,0,5.8,0,8.96c1.31,0,2.52,0,3.73,0c12,0,23.99-0.02,35.99,0.01c1.32,0,2.79-0.45,4.03,1
			c0,7.25,0,14.69,0,22.46c-1.07,0.17-2.01,0.46-2.94,0.46c-12.5,0.03-24.99,0.03-37.49,0.01c-0.96,0-1.93-0.19-3.28-0.34
			c-0.53,3.22-0.18,6.4-0.2,9.66c16.5,5.51,32.9,10.99,49.29,16.47c3.99,1.33,7.99,2.61,11.94,4.05c3.52,1.28,7.12,0.83,10.91,0.84
			c0.17-0.85,0.33-1.66,0.49-2.48c3.12-3.66,3.71-6.98,1.53-10.29c1.46,0,2.69,0,3.9,0c1.24,0,2.47,0,3.92,0
			c-0.81,4.42-0.94,8.59,0.85,12.6c1.53,0.23,3.05,0.47,4.72,0.73c0,7.37,0,14.34,0,21.72c10.87,0.35,21.57-0.08,32.25,0.24
			c0,7.74,0,15.48,0,23.22c-10.63,0.02-21.27,0.05-32,0.08c-0.1,1.73-0.16,3.08-0.24,4.42
			C662.55,402.44,662.05,402.44,661.55,402.44z M358.96,221.76c0.02,0.19,0.04,0.4,0.06,0.59c3.77,1.18,7.56,2.28,11.3,3.54
			c3.86,1.3,7.65,2.81,11.52,4.08c6.56,2.15,13.18,4.12,19.74,6.28c5.86,1.93,11.69,3.96,17.49,6.06c1.5,0.54,2.83,0.58,4.33,0.08
			c5.39-1.8,10.82-3.46,16.22-5.24c5.74-1.9,11.43-3.92,17.16-5.84c9.15-3.05,18.3-6.05,28.19-9.31
			c-21.63-7.2-42.55-14.17-63.36-21.1C400.58,207.89,379.78,214.82,358.96,221.76z M574.71,332.18c-21.19,7.06-42,14.01-63.24,21.09
			c21.53,7.17,42.51,14.15,63.33,21.09c21.11-7.06,42.09-14.08,63.13-21.11C616.87,346.22,595.78,339.2,574.71,332.18z
			 M268.28,275.79c21.18-7.05,42.12-14.02,63.46-21.12c-2.07-0.61-3.61-1.02-5.14-1.53c-18.54-6.16-37.09-12.3-55.6-18.53
			c-1.88-0.63-3.48-0.66-5.38-0.01c-19.1,6.4-38.23,12.7-57.35,19.04c-0.86,0.28-1.68,0.72-2.85,1.23
			C226.62,261.93,247.38,268.84,268.28,275.79z M303.54,353.31c1.79,0.56,3.31,1.03,4.83,1.54c18.32,6.09,36.64,12.15,54.93,18.32
			c2.51,0.85,4.77,0.92,7.22-0.03c2.88-1.12,5.84-2.02,8.77-3c16.73-5.57,33.46-11.13,50.75-16.88
			c-21.47-7.15-42.44-14.14-63.17-21.05C345.63,339.29,324.63,346.28,303.54,353.31z M420.68,299.28c-0.93-0.04-1.54-0.1-2.14-0.1
			c-34.94,0.02-69.89,0.05-104.83,0.08c-0.11,0-0.22,0.09-0.32,0.16c-0.1,0.08-0.18,0.17-0.23,0.21c0,6.73,0,13.4,0,20.22
			c0.81,0.04,1.41,0.1,2.02,0.1c34.94-0.02,69.89-0.04,104.83-0.07c0.11,0,0.23-0.08,0.31-0.16c0.1-0.07,0.18-0.17,0.35-0.35
			C420.68,312.86,420.68,306.27,420.68,299.28z M245.07,308.52c0.6-5.06,0.45-17.15-0.22-19.72c-31.93,0-63.87,0-95.77,0
			c-0.59,4.91-0.46,17.18,0.19,19.72C181.21,308.52,213.15,308.52,245.07,308.52z M313.13,286.78c32.18,0,64.2,0,96.31,0
			c0-6.88,0-13.55,0-20.36c-32.19,0-64.21,0-96.31,0C313.13,273.3,313.13,279.97,313.13,286.78z M617.89,299.43
			c-6.95-0.64-83.15-0.4-85.75,0.23c0,6.69,0,13.36,0,20.02c6.5,0.64,83.05,0.4,85.75-0.26
			C617.89,312.84,617.89,306.25,617.89,299.43z M532.31,266.25c-0.69,5.21-0.52,18.15,0.14,20.53c28.44,0,56.86,0,85.36,0
			c0-6.89,0-13.57,0-20.56c-9.57,0-18.99,0-28.42,0c-9.52,0-19.03,0-28.55,0C551.39,266.23,541.93,266.24,532.31,266.25z
			 M532.08,253.85c28.75,0,57.16,0,85.55,0c0.58-4.64,0.46-17.06-0.15-19.75c-28.42,0-56.83,0-85.4,0
			C532.08,240.72,532.08,247.15,532.08,253.85z M411.32,396.24c0.87,0.05,1.47,0.11,2.08,0.11c20.48-0.02,40.96-0.05,61.44-0.09
			c0.1,0,0.2-0.12,0.29-0.19c0.1-0.08,0.17-0.18,0.37-0.38c0-3.24,0.05-6.61-0.02-9.98c-0.05-3.32,0.25-6.65-0.21-10.11
			c-4.48,0-8.72,0-12.96,0c-4.24,0-8.5-0.18-12.74,0.05c-4.29,0.23-8.56-0.08-12.83-0.05c-4.24,0.03-8.49-0.04-12.74,0.01
			c-4.2,0.05-8.41-0.25-12.69,0.21C411.32,382.63,411.32,389.22,411.32,396.24z M694.38,375.6c-3.81,0-7.29,0-10.76,0
			c-3.61,0-7.24-0.02-10.85,0c-3.44,0.01-6.96-0.4-10.29,0.21c-3.66,0.66-7.11-0.58-10.69-0.28c-3.46,0.3-6.98,0.01-10.48,0.08
			c-3.57,0.08-7.17-0.38-10.92,0.35c0,6.82,0,13.47,0,20.11c6.04,0.62,61.29,0.4,64-0.25C694.38,389.26,694.38,382.67,694.38,375.6z
			 M258.31,396.05c6.22,0.67,61.51,0.44,64.1-0.23c0.53-10.53,0.32-17.54-0.61-19.96c-4.14-0.49-59.87-0.35-63.49,0.18
			C258.31,382.64,258.31,389.23,258.31,396.05z M554.1,209.78c-0.46,2.61-0.89,4.97-1.3,7.31c0.96,0,2.23,0,3.73,0
			c-0.27-2.74,0.32-5.27-0.48-7.94C555.21,209.42,554.56,209.64,554.1,209.78z M652.9,340.72c-0.47,2.59-0.92,5.06-1.42,7.76
			c1.11-0.09,2.13-0.18,3.1-0.26c0-2.74,0-5.15,0-7.5C653.97,340.72,653.5,340.72,652.9,340.72z M432.54,348.49
			c1.14-0.08,2.08-0.14,3.12-0.22c0-2.7,0-5.16,0-7.63c-0.7,0.04-1.27,0.07-1.73,0.1C433.48,343.27,433.04,345.7,432.54,348.49z
			 M657.46,352.1c-2.44-3.26-5.12-1.54-7.49-2.01c-0.35,0.75-0.61,1.32-0.94,2.01C651.84,352.1,654.26,352.1,657.46,352.1z
			 M429.87,351.36c2.8,1.37,5.41,1.06,8.29,0.46C436.11,349.62,432.77,349.45,429.87,351.36z"/>
		<path class="st1" d="M495.32,349.89c-1.19,0-2.39,0-3.51,0c0.11-1.59,0.22-3.03,0.34-4.65c-1.31,0-2.44,0-3.68,0
			c0.05,1.57-0.54,3.22,1.27,4.63c-1.43,0-2.62,0-3.82,0c0.73-3.32,1.37-6.66-0.44-10.24c1.31-0.08,2.48-0.14,3.7-0.22
			c-0.32,1.4-0.61,2.67-0.98,4.3c1.39,0.07,2.43,0.13,3.71,0.19c0.16-1.65,0.74-3.08-1.65-4.29c1.95,0,3.15,0,4.37,0
			C494.56,343.08,493.5,346.55,495.32,349.89z"/>
		<path class="st1" d="M501.87,347.05c-0.17,1.83-1.22,2.41-2.44,3.11c-0.84-0.36-1.73-0.74-2.53-1.09
			c-0.35-0.96-0.65-1.77-1.02-2.75c0.36-1,0.76-2.15,1.09-3.06c1.9-1.46,3.24-0.64,4.54,0.49c2.02-1.92,4.38-1.17,6.79-1.15
			c0.17,0.6,0.29,1.05,0.47,1.71c-0.8,0-1.43,0-2.15,0c0,1.89,0,3.68,0,5.6c-0.89,0-1.85,0-3.19,0c1.52-1.86,1.62-3.71,1.1-5.61
			c-2.33,0.6-4.54,1.16-7.13,1.83c0.63,0.8,1.24,1.58,1.91,2.43C500.21,348.02,500.88,347.63,501.87,347.05z M498.48,344.18
			c0.01,0.12,0.01,0.25,0.01,0.37c0.42-0.02,0.84-0.05,1.25-0.08c-0.01-0.1-0.01-0.19-0.02-0.29
			C499.31,344.18,498.9,344.18,498.48,344.18z"/>
		<path class="st1" d="M362.19,241.25c-2.19,2.71-0.65,5.51-1.36,8.1c0.94,1.12,2.41,2.07,1.22,3.9c-0.75-0.61-1.48-1.21-2.24-1.83
			c-2.56-0.59-4.87-0.15-6.78,1.87c-0.71-1.02-0.76-2,0.02-2.75c2.26-2.16,2.56-4.88,2.45-7.68c-0.47-0.52-0.86-0.97-1.44-1.61
			C356.83,241.25,359.38,241.25,362.19,241.25z M357.36,242.37c-0.6,2.62-1.18,5.18-1.75,7.64c0.98,0,2.26,0,3.48,0
			c0-2.7,0-5.12,0-7.64C358.45,242.37,358,242.37,357.36,242.37z"/>
		<path class="st1" d="M441.11,345.52c-0.41-0.24-0.82-0.48-1.24-0.73c1.49-2.38,1.49-2.38,4.63-1.83c0.26,1.97,0.55,4.07,0.86,6.43
			c-1.48,0.19-2.93,0.38-4.63,0.58c-0.42-0.59-0.88-1.26-1.42-2.01c0.66-0.91,1.22-1.68,1.79-2.46c0.68-0.3,1.36-0.59,2.27-0.99
			c-0.61-0.52-0.86-0.73-1.18-1.01C441.8,344.23,441.46,344.88,441.11,345.52z M442.5,346.26c-0.42,0.55-0.84,1.1-1.58,2.08
			C442.63,348.26,443.2,347.84,442.5,346.26z"/>
		<path class="st1" d="M363.16,248.23c1.27-0.73,2.33-1.33,3.53-2.02c-0.4-0.36-0.73-0.67-1.07-0.98c-0.69,0.54-1.28,1-2.09,1.63
			c-0.14-0.69-0.36-1.1-0.24-1.32c1.06-1.84,2.68-1.21,4.58-0.97c0.36,2.02,0.72,3.99,1.14,6.33c-1.83,0.08-3.63,0.16-5.72,0.26
			C363.25,250.03,363.2,249.13,363.16,248.23z M366.64,247.25c-0.91,0.73-1.48,1.2-2.05,1.66c0.17,0.24,0.35,0.48,0.52,0.72
			c0.52-0.1,1.03-0.19,1.53-0.29C366.64,248.67,366.64,248.21,366.64,247.25z"/>
		<path class="st1" d="M359.89,253.02l-0.2,0.07l0.03-0.19L359.89,253.02z"/>
		<path class="st1" d="M560.39,215.3c1.19-0.7,2.25-1.33,3.65-2.15c-0.73-0.19-1.23-0.49-1.61-0.38c-0.59,0.17-1.09,0.62-1.9,1.12
			c0.55-2.43,0.55-2.43,3.74-2.42c1.21,1.35,1.71,2.88,0.91,4.68c0.37,0.44,0.73,0.88,1.07,1.3c-1.24,2.04-3.38,0.14-4.54,1.52
			C560.43,217.46,560.43,217.46,560.39,215.3z M564.02,215.9c-1.6-0.49-2.02,0.09-1.95,1.85
			C563.02,216.85,563.52,216.37,564.02,215.9z"/>
		<path class="st1" d="M660.05,345.51c-0.4-0.24-0.81-0.48-1.22-0.73c1.76-2.82,2.03-2.89,4.86-1.24c0.17,1.81,0.35,3.72,0.55,5.87
			c-1.42,0.17-2.88,0.35-4.48,0.55c-0.43-0.46-0.9-0.99-1.52-1.67C658.9,347.3,659.47,346.4,660.05,345.51c0.68-0.3,1.37-0.6,2.26-1
			c-0.6-0.51-0.85-0.73-1.16-0.99C660.76,344.24,660.4,344.88,660.05,345.51z M661.83,345.81c-0.79,1.01-1.22,1.55-2.02,2.55
			c1.14-0.05,1.67-0.07,2.4-0.1C662.09,347.47,662.01,346.95,661.83,345.81z"/>
		<path class="st1" d="M283.04,339.56c1.64,0,2.74,0,3.89,0c-1.34,3.5-1.53,6.85,0.16,10.34c-1.27,0-2.48,0-3.69,0
			c0.38-1.48,0.75-2.94,1.15-4.49c-1.5-0.08-2.64-0.14-3.88-0.2c-1.53,1.6-0.33,3.07,0.59,4.7c-1.46,0-2.67,0-3.93,0
			c1.42-3.46,1.52-6.8,0.11-10.29c1.04,0,2.24,0,3.82,0c-0.67,1.35-1.9,2.52-0.82,4.16c1.09,0,2.28,0,3.58,0
			C284.51,342.25,284.51,340.91,283.04,339.56z"/>
		<path class="st1" d="M291.45,348.21c0.67-0.38,1.38-0.79,2.12-1.21c0.11,0.36,0.26,0.59,0.2,0.76c-0.44,1.52-1.65,2.05-3.37,2.35
			c-0.69-0.59-1.51-1.29-2.26-1.94c0-1.33,0-2.44,0-3.5c2.43-2.81,2.55-2.83,5.5-1.03c1.78-2.03,4.07-0.81,6.19-1.16
			c0.43,0.58,0.79,1.04,1.42,1.89c-0.83,0.07-1.23,0.16-1.62,0.12c-0.43-0.05-0.85-0.2-1.48-0.35c-0.21,2.1-0.57,3.94,1.35,5.68
			c-1.34,0.11-2.27,0.18-3.34,0.26c0-2.02,0-3.91,0-6.17c-1.11,0.64-1.92,1.12-3.01,1.75c-0.82,0-1.92,0-2.98,0
			C289.18,347.31,290.39,347.69,291.45,348.21z M291.48,344.52c-0.01-0.15-0.04-0.31-0.05-0.46c-0.46,0.05-0.92,0.11-1.39,0.17
			c0.02,0.15,0.03,0.31,0.05,0.46C290.56,344.64,291.02,344.58,291.48,344.52z"/>
		<path class="st1" d="M293.65,212.53c1.98-1.99,4.15-0.83,6.18-1.2c0.43,0.56,0.79,1.03,1.46,1.91c-1.24-0.1-1.99-0.16-3.07-0.25
			c-0.1,1.22-0.19,2.4-0.28,3.51c0.52,0.65,0.97,1.2,1.66,2.07c-1.47,0-2.57,0-3.64,0c0.15-1.97,0.3-3.9,0.49-6.34
			c-1.24,0.91-2.08,1.53-2.92,2.15c-1.19,0.1-2.41,0.19-4.12,0.33c0.8,1.08,1.34,1.81,1.87,2.51c0.91-0.52,1.6-0.91,2.53-1.45
			c-0.02,2.05-1.27,2.55-2.6,3.09c-2.8-0.75-3.48-2.73-3.04-5.34C290.55,210.75,290.76,210.71,293.65,212.53z M291.68,213.45
			c-1.01-1.01-1.01-1.01-1.49,0.16C290.68,213.56,291.12,213.51,291.68,213.45z"/>
		<path class="st1" d="M277.53,208.5c1,0,2.2,0,3.76,0c-0.79,1.37-1.94,2.55-0.83,4.18c1.09,0,2.29,0,3.93,0
			c-0.25-1.5-0.46-2.8-0.7-4.2c0.84,0,2.04,0,3.08,0c-1.25,3.46-1.21,6.79,0.21,10.14c-1.21,0.07-2.46,0.14-3.57,0.2
			c0.38-1.63,0.73-3.09,1.15-4.89c-1.67-0.08-2.86-0.13-3.93-0.19c-1.42,1.89-0.07,3.13,1.08,4.78c-1.74,0-3.04,0-4.35,0
			C278.82,215.32,278.76,212,277.53,208.5z"/>
		<path class="st1" d="M182.47,241.43c-0.29,1.27-0.58,2.55-0.94,4.13c1.6,0,2.77,0,3.94,0c0.63-1.46,0.39-2.66-0.67-4.02
			c1.2,0,2.2,0,3.13,0c0,2.76,0,5.45,0,8.3c0.19,0.2,0.52,0.55,1.07,1.15c-1.48,0-2.74,0-3.84,0c0.31-1.28,0.61-2.52,0.98-4.07
			c-1.39-0.08-2.58-0.16-3.81-0.23c-1.06,1.6-0.62,2.94,0.5,4.37c-1.36,0-2.56,0-3.96,0c1.81-2.35,1.01-4.87,1.24-7.42
			c-0.43-0.73-0.92-1.54-1.54-2.57c1.44,0.1,2.62,0.18,3.82,0.26L182.47,241.43z"/>
		<path class="st1" d="M190.48,250.75c-1.19-2.17-1.28-4.1,0.39-6.38c1.21,0.07,2.62,0.16,4.05,0.24c2.2-0.11,4.47-0.23,6.88-0.36
			c0,0.99,0,1.54,0,2.23c-0.71-0.41-1.24-0.72-1.93-1.12c-0.07,1.99-0.57,3.9,0.93,5.71c-1.21,0-2.31,0-3.6,0
			c1.22-1.81,0.98-3.72,0.63-6.08c-2.16,1.7-4.25,2.86-7,2.51c0.43,0.83,0.7,1.37,1.04,2.03c1.12-0.1,2.15-0.19,3.22-0.28
			C193.87,251.39,193.87,251.39,190.48,250.75z M193.53,246.54c-1.21-1.25-1.21-1.25-1.99-0.18
			C192.19,246.42,192.73,246.47,193.53,246.54z"/>
		<path class="st1" d="M182.38,241.34c0.12-0.16,0.24-0.31,0.35-0.47c-0.09,0.19-0.18,0.37-0.27,0.55L182.38,241.34z"/>
		<path class="st1" d="M410.77,221.45c0.51-1.33,1.02-2.67,1.53-4c0.44,0.19,0.84,0.31,0.83,0.38c-0.36,3.27-2.71,8.15-4.93,10.14
			c-0.45-0.27-0.95-0.57-1.82-1.09c0.82-0.46,1.34-0.76,2.47-1.39c0.04-0.09,0.4-0.83,0.83-1.72c-1.01-1.95-2.01-3.89-3.13-6.07
			c0.98-0.1,1.78-0.19,2.53-0.27c0.38,1.5,0.7,2.81,1.03,4.13C410.33,221.52,410.55,221.48,410.77,221.45z"/>
		<path class="st1" d="M433.78,219.83c0.77,1.63,1.54,3.24,2.36,4.95c-0.83,0-1.79,0-2.69,0c-0.21-0.91-0.41-1.75-0.78-3.32
			c-0.79,1.51-1.21,2.34-1.73,3.33c-0.35,0.04-0.81,0.07-1.69,0.16c0.83-1.5,1.51-2.72,2.3-4.14c-0.79-0.94-1.53-1.83-2.51-2.98
			c0.98-0.17,1.75-0.31,2.18-0.38c1.28,0.47,0.55,2.35,2.16,2.04C433.53,219.59,433.66,219.71,433.78,219.83z"/>
		<path class="st1" d="M417.31,219.81c2.58-2.25,5.31-2.66,7.76-3.72c-0.61,2.55-3.43,1.72-4.63,3.38c1.25,1.62,3.82,1.42,5.26,3.75
			c-1.3-0.3-2.13-0.37-2.84-0.68C421.18,221.79,419.54,220.92,417.31,219.81z"/>
		<path class="st1" d="M433.39,219.48c0.11-0.57,0.22-1.15,0.38-1.96c0.7,0.07,1.3,0.13,2.57,0.25c-1.18,0.95-1.87,1.51-2.56,2.06
			C433.66,219.71,433.53,219.59,433.39,219.48z"/>
		<path class="st1" d="M582.68,354.23c-2.58-0.09-4.03-0.69-8.26-3.42c2.37-2.1,5.28-2.64,8.68-4c-1.51,3.03-4.63,2.23-5.9,4.17
			C578.91,352.15,581.3,352.21,582.68,354.23z"/>
		<path class="st1" d="M568.65,355.97c-1.01,0-2.1,0-3.53,0c1.44-1.48,1.09-3.14,1.1-4.73c0.02-1.57,0-3.13,0-5.03
			c0.13-0.05,0.68-0.27,1.31-0.52c0.14,0.4,0.35,0.73,0.36,1.06c0.04,2.11-0.04,4.21,0.06,6.32
			C568,353.95,568.36,354.82,568.65,355.97z"/>
		<path class="st1" d="M561.13,354.45c0.42,0.46,0.75,0.83,1.26,1.39c-1.09,0.09-2.02,0.17-3.09,0.26c0-2.28,0-4.42,0-6.79
			c1.42-0.55,2.99-1.15,4.98,0.58c-1.13,0.31-1.85,0.5-2.92,0.79C561.29,351.87,561.21,353.2,561.13,354.45z"/>
		<path class="st1" d="M590.95,350.76c-0.83-0.18-1.3-0.28-1.85-0.4c0,1.81,0,3.61,0,5.56c-0.88,0-1.84,0-3.06,0
			c1.5-2.13,1.6-4.2,0.2-6.62c1.06-0.1,1.69-0.15,2.31-0.23c0.58-0.08,1.15-0.19,1.97-0.32
			C590.66,349.41,590.78,349.99,590.95,350.76z"/>
		<path class="st1" d="M251.5,250.48c1.17-0.06,2.11-0.1,2.97-0.15c0.34,1.51,0.64,2.85,0.99,4.4c1.57-1.24,1.15-3.02,1.9-4.43
			c0.42,0.07,0.88,0.15,1.67,0.28c-1.77,3.64-2.34,7.62-5.77,10.26c-0.46-0.52-0.84-0.94-1.38-1.54c1.17-0.61,2.08-1.09,3.18-1.65
			C254.33,255.04,252.99,252.88,251.5,250.48z"/>
		<path class="st1" d="M278.49,256.93c1.3-1.79,2.45-3.38,3.98-5.51c-1.35,0.38-2.16,0.61-3.17,0.89c-0.04-0.51-0.1-1.05-0.17-1.81
			c2,0,3.79,0,6.07,0c-1.51,2.02-2.79,3.75-4.1,5.5c1.45,0.99,2.53-0.46,4.18-0.89c-0.35,1.03-0.58,1.77-0.76,2.31
			C282.21,258.46,280.49,257.31,278.49,256.93z"/>
		<path class="st1" d="M272.46,248.97c-1.67,0.84-3.34,1.68-5.03,2.52c1.26,1.92,4.14,1.27,5.39,3.98c-3.27-0.7-5.7-1.84-8.24-3.64
			c2.4-2.05,4.75-3.3,7.47-3.72C272.18,248.4,272.32,248.68,272.46,248.97z"/>
		<path class="st1" d="M273.43,256.49c-0.97,0.68-1.43,1.28-1.88,1.27c-2.19-0.04-4.37-0.25-6.56-0.67
			C267.52,255.73,270.17,256.35,273.43,256.49z"/>
		<path class="st1" d="M381.85,354.53c1.7-0.25,2.89-0.43,4.08-0.6c0.11,0.16,0.38,0.43,0.32,0.55c-0.25,0.53-0.58,1.02-0.92,1.55
			c-1.95-0.06-3.79,0.38-5.85-0.47c1.55-1.84,2.96-3.52,4.38-5.21c0.23-1.27,0.44-2.49-1.27-3.22c-0.71,0.43-1.5,0.91-2.36,1.44
			c-0.1-0.43-0.23-0.65-0.19-0.83c0.43-1.55,1.68-2.01,3.26-2.34c0.71,0.54,1.47,1.12,2.17,1.65
			C386.42,350.46,383.78,352.07,381.85,354.53z"/>
		<path class="st1" d="M377.6,355.99c-0.91,0-1.76,0-2.65,0c-0.39-2.12,1.32-4.27-0.28-6.27c1.15-1.69,2.91-0.14,4.23-1.1
			c0.35,0.67,0.55,1.07,0.94,1.81c-0.94,0.07-1.58,0.11-2.24,0.15C377.6,352.26,377.6,353.96,377.6,355.99z"/>
		<path class="st1" d="M368.18,351.09c-1.66-1.98-4.52-1.34-6.1-4.13c3.43,0.92,5.95,2.22,8.92,3.63c-2.56,2.14-5.31,2.97-8.24,4.04
			C363.95,352.72,364.38,352.45,368.18,351.09z"/>
		<path class="st1" d="M353.67,346.41c0.72-0.28,1.47-0.58,2.74-1.07c0,3.74,0,7.09,0,10.59c-0.68,0-1.62,0-2.61,0
			C355.1,352.72,355.39,349.64,353.67,346.41z"/>
		<path class="st1" d="M347.75,349.41c0.92-0.18,2.08-0.41,3.42-0.67c0.26,0.49,0.52,0.97,1.02,1.9c-1.05-0.11-1.6-0.17-2.3-0.25
			c0,1.75,0,3.54,0,5.5c-0.58,0-1.27,0-2.14,0C347.75,353.84,347.75,351.75,347.75,349.41z"/>
		<path class="st1" d="M364.74,314.52c0.1,0.73,0.2,1.43,0.32,2.36c-0.98,0-2,0-3.1,0c1.83-3.15,1-6.4,0.7-9.85
			c1.45-0.17,2.81-0.32,4.17-0.47c2.97,2.31,3.07,2.97,0.98,7.01C366.93,313.84,365.92,314.16,364.74,314.52z M366.05,307.42
			c-1.57,2.35-1.78,3.91-0.38,5.88c0.77-0.88,1.37-1.58,2.06-2.37C367.26,309.92,366.84,309.07,366.05,307.42z"/>
		<path class="st1" d="M329.38,306.55c1.07-2.66,1.07-2.66,4.03-3.03c0.61,0.58,1.33,1.24,1.94,1.82c0.55,3.25-1.75,4.87-3.86,7.18
			c1.81-0.22,3.08-0.37,4.76-0.57c-0.45,0.85-0.74,1.42-1.01,1.91c-2.02,0-3.83,0-6.16,0c1.87-2.46,3.45-4.55,5-6.61
			c-0.42-0.79-0.58-1.26-0.88-1.61c-0.22-0.25-0.62-0.35-0.96-0.52c-0.98,0.49-1.91,0.96-2.85,1.42L329.38,306.55z"/>
		<path class="st1" d="M398.16,317.45c-0.35-0.94-0.51-1.37-0.63-1.69c1.12-0.74,2.11-1.4,3.13-2.08c-0.68-1.46-1.2-2.57-1.73-3.68
			c-0.46-0.97-0.93-1.93-1.51-3.16c0.87-0.1,1.43-0.17,2.03-0.24c0.51,1.48,0.97,2.82,1.44,4.16c2.03-0.73,0.22-4.05,3.07-4.04
			c-0.15,1.67-2.58,8.19-3.62,9.39C399.89,316.61,399.15,316.85,398.16,317.45z"/>
		<path class="st1" d="M360.94,307.11c-0.51,0.9-1.02,1.81-1.61,2.86c0.77,1.14,1.57,2.31,2.56,3.75c-1.03,0.18-1.73,0.3-2.52,0.43
			c-0.37-0.98-0.71-1.89-1.22-3.24c-0.62,1.3-1.03,2.15-1.44,3.03c-0.49,0-0.94,0-1.77,0c0.77-1.38,1.41-2.5,2.17-3.84
			c-0.64-0.88-1.33-1.84-2.22-3.06c0.85-0.2,1.6-0.38,2.43-0.58c0.39,0.75,0.71,1.35,1.06,2.01c0.64-0.67,1.26-1.3,1.88-1.95
			C360.46,306.72,360.7,306.91,360.94,307.11z"/>
		<path class="st1" d="M351.52,314.54c-1.15-1-1.88-1.63-2.62-2.26c0-1.22,0-2.32,0-3.54c0.44-1.25,1.73-2.22,3-2.22
			c1.2,0,1.47,0.26,2.79,2.82c-1.41,0.26-2.77,0.51-4.37,0.81c0.34,0.77,0.67,1.49,1.09,2.44c1.13-0.58,2.02-1.05,3.15-1.63
			c0.04,0.63,0.19,1.12,0.05,1.25C353.7,312.96,352.72,313.65,351.52,314.54z M350.77,308.28c0,0.1,0,0.19,0,0.28
			c0.49,0,0.99,0,1.48,0c0-0.1,0-0.19,0-0.28C351.76,308.28,351.26,308.28,350.77,308.28z"/>
		<path class="st1" d="M374.3,303.72c-3.06,3.66-4.45,7.21-0.14,12.81c-2.44-0.24-3.92-1.95-4.33-5.21c-0.23-1.87-0.03-3.69,1-5.38
			C371.55,304.76,372.27,303.68,374.3,303.72z"/>
		<path class="st1" d="M379.04,308.97c0.76,1.62,1.54,3.24,2.35,4.95c-0.59,0-1.3,0-2.14,0c-0.46-0.79-0.95-1.64-1.6-2.78
			c-0.53,1.02-0.95,1.83-1.45,2.79c-0.35,0.03-0.81,0.07-1.7,0.16c0.83-1.5,1.51-2.72,2.31-4.17c-0.72-0.82-1.41-1.6-2.25-2.56
			c0.64-0.31,1.24-0.61,1.45-0.72c1.84-0.03,0.92,2.38,2.63,1.99C378.8,308.74,378.92,308.85,379.04,308.97z"/>
		<path class="st1" d="M388.27,309.9c-0.89-0.29-1.74-0.55-3.47-1.1c1.72-0.56,2.56-0.82,3.41-1.09c0.37-1.03,0.76-2.09,1.14-3.15
			c0.19,0.03,0.38,0.05,0.57,0.08c0.18,1.01,0.35,2.01,0.55,3.13c1.05,0.17,2.08,0.32,3.1,0.48c0.03,0.2,0.07,0.41,0.1,0.62
			c-1.06,0.37-2.11,0.73-3.22,1.11c-0.17,0.99-0.35,2.01-0.52,3.03c-0.2,0.03-0.4,0.06-0.6,0.08
			C389,312.11,388.68,311.14,388.27,309.9z"/>
		<path class="st1" d="M404.96,303.48c0.52,0.2,1.27,0.25,1.5,0.62c0.91,1.45,2.02,2.92,2.38,4.53c0.78,3.49-0.8,6.46-4.51,8.59
			C407.78,312.54,408.79,308.22,404.96,303.48z"/>
		<path class="st1" d="M329.39,306.57c0,0.59,0,1.19,0,1.82c-0.76,0-1.32,0-1.98,0c0,1.84,0,3.63,0,5.67
			c-0.74-0.06-1.54-0.12-2.14-0.17c0-2.38,0-4.52,0-6.88c1.36-0.15,2.73-0.3,4.11-0.45L329.39,306.57z"/>
		<path class="st1" d="M336.15,308.08c0.51-0.74,0.64-1.12,0.79-1.12c2.46-0.04,4.92-0.04,7.39,0c0.14,0,0.27,0.38,0.57,0.82
			C342.05,308.47,339.32,308.1,336.15,308.08z"/>
		<path class="st1" d="M344.59,310.02c-2.92,0.67-5.43,0.3-7.94,0.19C339.01,309.27,341.08,309.23,344.59,310.02z"/>
		<path class="st1" d="M378.66,308.64c0.11-0.57,0.22-1.14,0.38-1.96c0.7,0.07,1.3,0.13,2.58,0.25c-1.19,0.94-1.88,1.5-2.57,2.05
			C378.92,308.85,378.8,308.74,378.66,308.64z"/>
		<path class="st1" d="M207.81,299.79c1.7-1.27,0.94-3.48,3.15-4.41c-0.49,4.15-2.57,7.18-4.2,10.58c-0.97-0.2-1.73-0.35-3.19-0.64
			c1.56-0.94,2.53-1.52,3.45-2.08c0.11-2.97-2.02-4.87-2.96-7.53c1.03,0.14,1.83,0.25,2.5,0.35
			C206.97,297.29,207.34,298.38,207.81,299.79z"/>
		<path class="st1" d="M185.86,302.95c-0.46-1.05-0.73-1.67-1.21-2.78c-0.68,1.2-1.1,1.94-1.57,2.76c-0.42-0.11-0.86-0.23-1.62-0.43
			c0.87-1.27,1.6-2.34,2.39-3.51c-0.79-0.96-1.56-1.89-2.62-3.18c1.86-0.08,3.04,0.07,3.67,1.23c0.74-0.51,1.51-1.03,2.29-1.57
			c0.2,0.41,0.44,0.72,0.38,0.81c-0.56,0.8-1.18,1.57-1.95,2.58c0.78,1.09,1.63,2.26,2.66,3.71
			C187.44,302.7,186.72,302.81,185.86,302.95z"/>
		<path class="st1" d="M229.79,301.41c1.47,1.36,2.25-0.25,3.5-0.64c0.04,0.61,0.08,1.15,0.13,1.86c-2.11,0.4-4,0.47-6.28-0.14
			c1.32-1.88,2.5-3.55,4.1-5.83c-1.6,0.55-2.61,0.89-3.96,1.35c0.28-0.93,0.51-1.66,0.79-2.57c1.84,0.24,3.46,0.45,5.59,0.73
			C232.19,298.15,230.99,299.79,229.79,301.41z"/>
		<path class="st1" d="M217.94,298.58c-1.1-0.16-2.04-0.29-3.16-0.46c0.4-0.51,0.63-0.79,0.94-1.18c0.67,0.13,1.37,0.25,2.31,0.43
			c0.21-1.14,0.42-2.27,0.65-3.53c2.14,0.54,0.61,2.56,1.69,3.39c0.89,0.07,1.81,0.14,2.72,0.23c0.07,0.01,0.12,0.2,0.33,0.59
			c-1.06,0.2-2.05,0.39-3.18,0.61c-0.24,1.05-0.49,2.17-0.73,3.27c-0.21,0.01-0.42,0.04-0.63,0.05
			C218.55,300.82,218.23,299.65,217.94,298.58z"/>
		<path class="st1" d="M165.91,297.06c-0.7,0.35-1.39,0.71-2.27,1.15c0.1,1.4,0.2,2.83,0.32,4.48c-0.86,0-1.9,0-2.98,0
			c0.85-2.12,1.05-4.1,0.03-6.33c1.56-1.28,3.17-0.29,4.78-0.06C165.83,296.56,165.87,296.81,165.91,297.06z"/>
		<path class="st1" d="M195.66,297.38c0.11-1.19,0.2-2.14,0.29-3.09c0.13-0.04,0.27-0.07,0.41-0.11c0.25,0.9,0.52,1.79,0.8,2.79
			c0.29,0.07,0.68,0.3,0.93,0.19c0.99-0.43,1.66-0.22,2.15,1c-1.09,0.17-2.11,0.32-3.37,0.5c0,1.03,0,2.03,0,3.03
			c-0.21,0.04-0.42,0.09-0.62,0.13c-0.25-1.03-0.49-2.07-0.76-3.19c-1.02-0.15-2.05-0.31-3.34-0.5
			C193.25,297.5,194.25,297.29,195.66,297.38z"/>
		<path class="st1" d="M169.83,298.93c2.66-0.8,5.29-0.96,8.12-0.24c-0.34,0.49-0.52,1.02-0.72,1.02
			C174.75,299.72,172.19,300.4,169.83,298.93z"/>
		<path class="st1" d="M169.82,296.76c2.23-1.03,5.12-1.08,8.38,0.04c-0.79,0.36-1.26,0.73-1.75,0.77
			C172.7,297.85,171.5,297.68,169.82,296.76z"/>
		<path class="st1" d="M353.93,272.81c-0.35-0.64-0.7-1.26-1.15-2.08c1.42,0,2.62,0,4.16,0c-2.03,2.76-1.01,5.65-1.25,8.47
			c2.01,0.68,3.56,0.45,5.31-0.6c-0.31,0.82-0.62,1.64-0.93,2.46c-2.48,0-4.69,0-7.41,0C355.09,278.39,352.75,275.43,353.93,272.81z
			"/>
		<path class="st1" d="M365.68,273.73c3.26,1.66,1.18,4.85,2.62,7.25c-2.34,0-4.39,0-6.35,0c-0.2-2.19-0.39-4.2-0.61-6.59
			C362.66,274.19,364.23,273.95,365.68,273.73z M364.61,280.2c1.47-1.17,1.34-2.71,1.22-4.34c-0.49-0.25-0.9-0.46-1.46-0.74
			C363.62,276.91,363.79,278.51,364.61,280.2z"/>
		<path class="st1" d="M390.11,279.58c1.07-0.17,2.14-0.34,3.25-0.52c0.08,0.12,0.37,0.35,0.33,0.5c-0.11,0.46-0.35,0.88-0.57,1.39
			c-1.99,0-3.9,0-6.37,0c1.51-2.05,2.71-3.68,4.24-5.75c-1.47,0.21-2.45,0.35-3.61,0.52c0-0.43-0.13-0.92,0.02-1.04
			c0.55-0.43,1.17-0.94,1.82-1.02c1.18-0.16,2.41-0.05,3.72-0.05c0.47,2.97-2.44,3.88-2.81,6.01c-0.14,0.12-0.26,0.24-0.14,0.12
			C389.89,279.86,390,279.72,390.11,279.58z"/>
		<path class="st1" d="M379.55,280.97c-2.11,0-3.91,0-6.01,0c0.72-2.31,2.27-3.72,3.64-5.69c-1.27,0.14-2.3,0.26-3.48,0.4
			c1.23-2.43,1.86-2.58,6.1-1.45c-1.3,1.86-2.54,3.63-4.1,5.87c1.54-0.32,2.64-0.55,3.85-0.8
			C379.55,279.72,379.55,280.18,379.55,280.97z"/>
		<path class="st1" d="M380.56,272.14c1.11-0.5,1.88-0.85,2.88-1.3c0.64,0.24,1.6,0.61,2.56,0.97c0,1.03,0,2.14,0,3.27
			c-0.82,0.44-1.67,0.9-2.58,1.39c-0.73-0.4-1.58-0.85-2.71-1.47c0.07-0.33,0.28-0.85,0.28-1.38
			C380.99,273.18,380.75,272.75,380.56,272.14z"/>
		<path class="st1" d="M395.86,274.09c-0.72-1.04-1.38-1.99-2.35-3.4c2.85,0.08,2.65,2.58,4.1,3.08c0,2.4,0,4.49,0,6.7
			c-0.98,1.18-1.41,3.04-4.06,3.41C396.1,280.84,396.45,277.67,395.86,274.09z"/>
		<path class="st1" d="M372.42,270.86c-1.94,3.54-1.84,2.49-1.64,9.58c0.65,0.91,1.39,1.97,2.37,3.36c-3.1-1.25-3.44-1.74-4.63-6.23
			C369.21,274.96,369.15,271.91,372.42,270.86z"/>
		<path class="st1" d="M333.93,270.18c0,4.02,0,7.32,0,10.81c-0.58,0-1.52,0-2.4,0c0.26-1.49,0.63-2.97,0.72-4.45
			c0.09-1.57,0.42-3.28-1.26-4.76C331.79,271.34,332.47,270.97,333.93,270.18z"/>
		<path class="st1" d="M327.41,281.02c-0.85,0-1.79,0-3.15,0c1.68-2.22,1.75-4.33,0.05-6.58c1.69-0.25,3.19-0.48,4.82-0.73
			c0.14,0.6,0.23,1.05,0.36,1.62c-0.74,0.33-1.37,0.61-2.08,0.92C327.41,277.78,327.41,279.31,327.41,281.02z"/>
		<path class="st1" d="M348.44,276.79c-2.24,1.74-6.07,1.71-8.45,0.04C342.93,276.22,345.65,276.57,348.44,276.79z"/>
		<path class="st1" d="M340.01,274.25c1.57,0,2.8,0,4.03,0c1.22,0,2.45,0,3.67,0c0.01,0.23,0.02,0.47,0.04,0.7
			c-0.79,0.09-1.6,0.2-2.39,0.25c-0.87,0.05-1.77-0.07-2.61,0.1C341.8,275.51,340.85,276.23,340.01,274.25z"/>
		<path class="st1" d="M588.85,306.9c0.91-0.12,1.68-0.22,2.52-0.34c0.51,1.49,0.96,2.82,1.61,4.72c0.59-1.83,1-3.09,1.45-4.52
			c0.49,0,1.03,0,1.54,0c0.1,0.37,0.26,0.64,0.19,0.82c-0.92,2.13-1.93,4.22-2.8,6.36c-0.64,1.56-1.41,2.86-3.58,3.08
			c-0.23-0.2-0.59-0.52-1.34-1.17c1.27-0.41,2-0.64,2.71-0.88C592.01,312.33,591.58,310.74,588.85,306.9z"/>
		<path class="st1" d="M576.64,310.88c-0.66-1.24-1.32-2.47-2.09-3.93c0.61-0.16,1.16-0.29,1.68-0.43c0.52,0.7,0.95,1.28,1.55,2.09
			c0.36-0.72,0.64-1.28,1.01-2.02c0.53,0.08,1.08,0.16,2.11,0.31c-0.71,0.73-1.14,1.1-1.48,1.54c-0.3,0.38-0.52,0.83-0.91,1.49
			c0.82,1.22,1.68,2.51,2.67,3.99c-1.12,0-2.06,0-3.04,0c-0.21-0.97,0.35-2.26-1.1-2.69C576.9,311.12,576.77,311,576.64,310.88z"/>
		<path class="st1" d="M584.3,308.03c-0.59,0-1.18,0-2.18,0c0.5-0.76,0.8-1.23,1.11-1.69c-0.29-0.34-0.57-0.67-0.94-1.09
			c0.98-0.55,1.92-1.07,2.77-1.55c1.01,0.44,1.96,0.85,3.19,1.39c-0.5,0.46-0.91,0.82-1.31,1.18c0.34,0.47,0.68,0.94,1.39,1.93
			c-1.1-0.25-1.63-0.37-2.15-0.48c-0.25,0.59-0.5,1.21-1.04,2.52c-0.43-1.18-0.61-1.67-0.79-2.17c0.14-0.11,0.28-0.22,0.43-0.33
			c-0.03-0.03-0.05-0.05-0.08-0.08C584.57,307.79,584.43,307.91,584.3,308.03z"/>
		<path class="st1" d="M556.83,308.37c0,1.95,0,3.65,0,5.58c-0.74,0.04-1.69,0.08-2.61,0.12c-0.09-0.34-0.26-0.61-0.19-0.72
			c1.33-1.92,1.45-3.8-0.05-5.74c1.24-1.46,2.98-0.62,4.81-0.99c-0.04,0.83-0.07,1.38-0.1,2.13
			C557.97,308.61,557.51,308.51,556.83,308.37z"/>
		<path class="st1" d="M570.57,307.83c-0.49,0.12-0.93,0.31-1.36,0.31c-2.32,0.03-4.64,0.01-7.1,0.01c0.5-1.85,1.72-1.59,2.75-1.55
			c0.95,0.03,1.95,0.49,2.84,0.3C568.84,306.67,569.83,306.27,570.57,307.83z"/>
		<path class="st1" d="M570.94,310c-2.97,0.71-5.48,0.28-7.98,0.23C565.19,309.27,567.2,309.23,570.94,310z"/>
		<path class="st1" d="M577.05,311.24c-0.4,0.89-0.79,1.78-1.21,2.73c-0.59,0-1.05,0-1.8,0c0.54-1.49,1.62-2.25,2.59-3.09
			C576.77,311,576.9,311.12,577.05,311.24z"/>
		<path class="st1" d="M594.82,283.35c0.79-0.49,1.6-0.98,2.61-1.6c1.21-3.02-1.67-4.95-2.56-7.75c0.83-0.13,1.6-0.26,2.29-0.37
			c0.56,1.51,1.07,2.85,1.78,4.78c0.62-1.92,1.04-3.19,1.49-4.56c0.52,0,1.07,0,2.08,0c-2.36,3.39-2.47,7.45-5.31,10.51
			C596.32,283.97,595.57,283.65,594.82,283.35C594.82,283.33,594.82,283.35,594.82,283.35z"/>
		<path class="st1" d="M548.29,273.52c0.16-1.86,1.33-2.34,2.6-3.24c1.12,0.81,2.23,1.61,3.64,2.63c-1.24,2.34-2.31,4.36-3.4,6.4
			c0.9,0,2.01,0,3.42,0c-0.42,0.68-0.73,1.16-1.07,1.71c-1.89,0-3.71,0-5.85,0c1.48-2.52,4.42-3.84,4.34-6.88
			c-0.02-0.64-0.55-1.26-0.94-2.1C550.07,272.57,549.3,272.98,548.29,273.52z"/>
		<path class="st1" d="M582.8,280.97c-1.16,0.1-2.12,0.17-3.61,0.3c-0.52-0.51-1.21-1.19-1.51-1.49c-0.18-4.53,0.01-4.83,3.41-6.21
			c2.05,0.58,2.74,2.26,3.35,4.31C583.94,278.81,583.38,279.88,582.8,280.97z M581.19,280.11c1.3-1.57,1-3.16,0.42-4.99
			c-0.79,0.21-1.46,0.39-2.05,0.55C578.81,277.71,579.16,279.15,581.19,280.11z"/>
		<path class="st1" d="M585.82,278.09c-0.26-0.55-0.67-1.08-0.77-1.66c-0.25-1.54,0.4-2.64,1.69-2.79c0.68-0.07,1.54,0.05,2.08,0.43
			c0.48,0.34,0.62,1.16,1.17,2.3c-1.38-0.49-2.23-0.79-3.07-1.09c-0.1,0.19-0.2,0.37-0.29,0.56c0.95,0.66,1.9,1.33,3.06,2.13
			c-0.13,0.83-0.28,1.74-0.47,2.93c-1.36,0.1-2.53,0.17-3.64,0.25C584.84,279.88,584.57,278.9,585.82,278.09
			c0.03,1.22,0.57,1.92,2.11,2.11C587.81,278.58,587,278.15,585.82,278.09z"/>
		<path class="st1" d="M594.82,283.33c-0.23,0.25-0.45,0.49-0.7,0.76c-2.81-1.36-3.01-4.11-3.91-6.59c0.84-2.54,0.89-5.56,4.48-7.17
			c-0.81,1.68-1.65,2.86-1.93,4.17c-0.32,1.42-0.16,2.96-0.14,4.44c0.02,1.81,0.57,3.39,2.21,4.41
			C594.82,283.35,594.82,283.33,594.82,283.33z"/>
		<path class="st1" d="M606.81,276.93c-0.76,2.61-0.73,5.66-4.4,7.45c1.36-2.55,2.29-4.6,2.2-7.03c-0.09-2.38-0.43-4.56-2.45-6.62
			C605.19,271.76,605.19,271.76,606.81,276.93z"/>
		<path class="st1" d="M572.21,280.81c-0.51-1-1.01-1.97-1.44-2.83c1.01-2.89,1.01-2.89,3.16-4.37c2.11,0.85,2.11,0.85,2.66,3.06
			c-1.13-0.56-2.01-1-3-1.5c-0.41,0.45-0.8,0.88-1.36,1.51c0.46,0.97,0.9,1.9,1.42,3c1.16-0.48,2.09-0.85,3.41-1.39
			C576.05,280.62,574.87,281.66,572.21,280.81z"/>
		<path class="st1" d="M543.53,274.39c1.51-0.43,3.09-1.3,4.95,0.64c-1.1,0.29-1.82,0.49-2.68,0.71c-0.74,1.77-0.52,3.48,0.96,5.26
			c-1.29,0-2.23,0-3.23,0C543.53,278.92,543.53,276.89,543.53,274.39z"/>
		<path class="st1" d="M566.65,276.96c-2.5,1.63-5.08,1.27-7.7,0.37C561.44,276.01,564.05,276.66,566.65,276.96z"/>
		<path class="st1" d="M567.03,275.06c-0.32,0.18-0.64,0.5-0.97,0.5c-2.38,0.01-4.75-0.04-7.12-0.44c2.47-1.35,5.08-0.73,7.63-0.81
			C566.71,274.57,566.87,274.81,567.03,275.06z"/>
		<path class="st1" d="M577.83,248.07c1.37-2.25,1.83-4.37-0.39-6.61c1.31,0,2.01,0,2.92,0c0.17,1.98,0.33,3.87,0.49,5.75
			c1.64-1.71,1.21-3.54,0.73-5.72c1.75-0.13,3.46-0.27,4.87-0.38c2.41,2.11,1.02,4.72,2.23,6.95
			C584.88,248.07,581.46,248.07,577.83,248.07z M585.82,242.38c-0.76,0.35-1.45,0.67-2.14,1c0.15,1.6-0.58,3.39,1.84,4.02
			C586.74,245.84,586.79,244.32,585.82,242.38z"/>
		<path class="st1" d="M551.04,238.59c0.27-0.13,0.89-0.45,1.74-0.87c1.89,3.49-0.2,7.3,1.65,10.8c-1.3-0.19-2.33-0.33-3.39-0.48
			C551.04,244.92,551.04,241.92,551.04,238.59z"/>
		<path class="st1" d="M593.86,250.62c1.28-1.15,2.29-2.05,3.28-2.95c-1.2-2.29-2.21-4.22-3.25-6.21c0.77,0,1.71,0,2.69,0
			c-0.17,1.45,0.1,2.63,1.46,3.68c0.43-1.36,0.81-2.55,1.19-3.75c0.34,0,0.7,0,1.04,0c0.1,0.25,0.29,0.49,0.23,0.64
			c-0.87,2.31-1.67,4.64-2.69,6.89C596.92,250.91,596.3,251.1,593.86,250.62z"/>
		<path class="st1" d="M592.84,250.93c-3.02-1.07-3.27-3.9-4.13-6.41c0.74-2.66,1.13-5.47,4.23-6.71
			C590.17,242.23,590.23,246.52,592.84,250.93z"/>
		<path class="st1" d="M571.78,243.18c1.05-1.11,1.72-1.81,2.44-2.58c0.89,0.35,1.67,0.66,2.54,1c0.03,0.55,0.05,1.02,0.1,1.84
			c-1-0.49-1.74-0.85-2.89-1.42c0.23,2.06,2.04,1.78,2.78,3.12c0,0.58,0,1.52,0,2.58c-0.67,0.37-1.3,0.71-2.07,1.13
			c-0.73-0.31-1.51-0.65-2.32-1c0-0.6,0-1.06,0-1.84c0.94,0.49,1.69,0.88,2.63,1.36c0.34-1.43-0.44-1.75-1.15-2.24
			C573.17,244.7,572.65,244.03,571.78,243.18z"/>
		<path class="st1" d="M601.24,250.86c4.11-5.46,2.75-8.97-0.1-12.86c2.77,0.75,4.15,2.61,4.27,5.78
			C605.57,247.76,604.46,249.65,601.24,250.86z"/>
		<path class="st1" d="M547.09,248.07c-0.76,0-1.46,0-2.17,0c0-2.19,0-4.26,0-6.52c1.24,0,2.62,0,4.9,0c-1.27,0.93-1.84,1.35-2.74,2
			C547.09,244.7,547.09,246.23,547.09,248.07z"/>
		<path class="st1" d="M567.67,244.43c-2.64,0.99-5.26,0.99-8.26,0.25C561.65,243.32,564.21,243.2,567.67,244.43z"/>
		<path class="st1" d="M567.67,242.16c-2.63,0.99-5.26,0.99-8.26,0.25C561.68,241.05,564.22,240.93,567.67,242.16z"/>
		<path class="st1" d="M577.89,238.78c1.18-0.52,1.77-0.77,2.36-1.03c0.12,0.16,0.25,0.32,0.37,0.49c-0.27,0.46-0.54,0.94-0.85,1.47
			C579.33,239.48,579.03,239.34,577.89,238.78z"/>
		<path class="st1" d="M455.31,382.89c-0.53-0.5-0.88-0.84-1.54-1.45c0.91-0.53,1.74-1.01,3.14-1.84c0.02,2.31-0.04,4,0.07,5.68
			c0.11,1.65,0.42,3.28,0.67,5.07c-0.8,0-1.99,0-3.37,0C456.01,388.05,454.95,385.5,455.31,382.89z"/>
		<path class="st1" d="M451.68,390.44c-1.5,0-2.35,0-3.33,0c0-2.16,0-4.28,0-6.46c1.77-0.69,3.31-0.66,4.84,0.37
			c-0.93,0.29-1.64,0.52-2.58,0.81C449.77,386.8,450.05,388.49,451.68,390.44z"/>
		<path class="st1" d="M431.78,383.22c0.16,0.82,0.23,1.16,0.35,1.8c-0.69-0.04-1.24-0.07-1.98-0.11c0,1.7,0,3.48,0,5.44
			c-0.61,0-1.41,0-2.17,0c0-2.26,0-4.38,0-6.79c0.54,0,1.2,0.04,1.85-0.01C430.38,383.5,430.93,383.36,431.78,383.22z"/>
		<path class="st1" d="M435.26,386.32c3.31-0.73,5.86-0.36,8.66-0.43C442.24,387.77,438.74,387.99,435.26,386.32z"/>
		<path class="st1" d="M436.07,383.83c2.53,0,5.06,0,7.67,0c-0.67,2.65-2.74,0.94-3.91,1.06
			C438.75,385.01,437.04,385.85,436.07,383.83z"/>
		<path class="st1" d="M677.32,390.44c-1.47,0-2.32,0-3.16,0c-0.36-3.1,1.02-6.33-1.09-9.39c0.77-0.29,1.51-0.55,2.41-0.88
			C676.85,383.39,674.59,387.14,677.32,390.44z"/>
		<path class="st1" d="M650.97,382.92c0,0.95,0,1.41,0,1.89c-0.61,0.24-1.16,0.46-2.05,0.82c0.12,1.42,0.25,2.95,0.4,4.7
			c-0.76,0.05-1.56,0.1-2.41,0.16c0-2.2,0-4.2,0-6.68C647.88,383.59,649.21,383.3,650.97,382.92z"/>
		<path class="st1" d="M671.58,383.23c0.17,0.7,0.28,1.12,0.43,1.75c-0.91,0-1.59,0-2.37,0c-0.93,1.83-0.64,3.52,0.88,5.33
			c-1.22,0.1-2.16,0.17-3.22,0.25c0-2.3,0-4.43,0-6.91C668.49,383.53,669.84,383.4,671.58,383.23z"/>
		<path class="st1" d="M654.28,386.37c3.18-0.85,5.74-0.38,8.49-0.49c-1.26,1.56-1.26,1.64-3.69,1.54
			C657.7,387.37,656.15,387.99,654.28,386.37z"/>
		<path class="st1" d="M662.73,384.46c-2.45,1.56-5.19-0.6-7.91,0.07c0.26-0.29,0.51-0.81,0.77-0.82c2.33-0.07,4.66-0.04,6.99-0.04
			C662.64,383.94,662.69,384.2,662.73,384.46z"/>
		<path class="st1" d="M301.48,389.01c1.89-0.26,3.07-0.43,4.64-0.65c-0.3,0.79-0.52,1.36-0.77,1.98c-2.08,0.35-3.97,0.26-6.22,0.05
			c1.68-2.71,4.12-4.29,4.75-7.27c-0.41-0.49-0.84-1.02-1.33-1.63c-0.95,0.57-1.74,1.05-2.72,1.63c-0.11-0.61-0.32-1.12-0.2-1.23
			c0.91-0.77,1.9-1.46,3.01-2.29c1.04,0.77,1.9,1.41,2.63,1.94C306.07,384.94,303.69,386.51,301.48,389.01z"/>
		<path class="st1" d="M278.48,382.85c0.39,1.08,0.52,1.41,0.74,2.03c-0.79,0.06-1.42,0.11-2.14,0.16
			c-0.15,1.14-0.32,2.35-0.49,3.67c0.23,0.38,0.54,0.9,1.01,1.65c-1.21,0-2.15,0-3.16,0c0-2.06,0-4.09,0-6.58
			C275.28,382.44,277.11,384.2,278.48,382.85z"/>
		<path class="st1" d="M297.2,384.8c0,1.24-0.04,2.11,0.02,2.98c0.04,0.82,0.19,1.64,0.31,2.61c-0.99,0-1.94,0-3.26,0
			c1.74-2.25,1.68-4.37,0.08-6.58c1.6-0.19,2.92-0.34,4.45-0.52c0.2,0.43,0.43,0.91,0.9,1.89
			C298.6,385.03,298.04,384.94,297.2,384.8z"/>
		<path class="st1" d="M290.4,387.18c-2.77,0.26-5.38,0.83-8.17-0.52C285.54,385.39,288.97,385.58,290.4,387.18z"/>
		<path class="st1" d="M290.36,384.24c-0.21,0.3-0.48,0.83-0.59,0.8c-2.38-0.65-5.01,1.17-7.39-0.68
			C284.87,383.38,287.48,383.35,290.36,384.24z"/>
	</g>
</g>
</svg>
