<?xml version="1.0" encoding="utf-8"?>
<!-- Generator: Adobe Illustrator 24.1.1, SVG Export Plug-In . SVG Version: 6.00 Build 0)  -->
<svg version="1.1" id="Слой_1" xmlns="http://www.w3.org/2000/svg" xmlns:xlink="http://www.w3.org/1999/xlink" x="0px" y="0px"
	 viewBox="0 0 841.89 595.28" style="enable-background:new 0 0 841.89 595.28;" xml:space="preserve">
<style type="text/css">
	.st0{fill:#1F264A;}
</style>
<path class="st0" d="M476.39,358.33c4.51,0.74,8.99,0.1,13.48-0.23c5.16-0.38,10.33-0.83,15.5-0.87c9.32-0.07,18.65,0.04,27.97,0.28
	c4.18,0.11,8.35,0.7,12.52,1.15c0.48,0.05,0.92,0.54,1.38,0.82c-0.49,0.13-1,0.43-1.47,0.38c-15.81-1.83-31.67-1.48-47.53-1.2
	c-4.73,0.08-9.45,0.68-14.19,0.93c-2.06,0.11-4.14-0.03-6.2-0.16c-0.56-0.04-1.1-0.46-1.64-0.71
	C476.27,358.59,476.33,358.46,476.39,358.33z"/>
<path class="st0" d="M259.87,356.2c1.92-0.21,3.84-0.5,5.76-0.61c13.07-0.8,26.16-1.32,39.24-0.63c7.29,0.38,14.55,1.27,21.82,1.94
	c0.32,0.03,0.69,0.04,0.94,0.2c0.23,0.15,0.33,0.5,0.48,0.76c-0.29,0.15-0.59,0.46-0.86,0.43c-7.16-0.65-14.31-1.54-21.48-1.94
	c-6.91-0.38-13.85-0.36-20.77-0.3c-8.13,0.07-16.25,0.36-24.38,0.54c-0.25,0.01-0.5-0.07-0.75-0.1
	C259.88,356.39,259.87,356.3,259.87,356.2z"/>
<path class="st0" d="M248.14,369.15c1.17,6.08,2.34,12.15,3.58,18.59c2.13-10.48,5.2-20.49,5.94-31c0.27,0.01,0.53,0.03,0.8,0.04
	c0.07,0.63,0.2,1.25,0.19,1.88c-0.17,6.71-2.15,13.12-3.49,19.63c-0.87,4.22-1.86,8.41-2.86,12.6c-0.12,0.52-0.68,0.95-1.03,1.41
	c-0.22-0.5-0.56-0.98-0.64-1.51c-1.08-6.57-2.13-13.14-3.16-19.71c-0.09-0.6-0.01-1.24-0.01-1.86
	C247.68,369.2,247.91,369.17,248.14,369.15z"/>
<path class="st0" d="M619.9,268.94c1.28-0.61,1.73-1.47,1.74-2.7c0-1.14,0.09-2.29,0.33-3.4c0.08-0.38,0.73-0.63,1.12-0.94
	c0.23,0.43,0.75,0.93,0.66,1.27c-1.46,5.75,0.34,11.36,0.67,17.03c0.12,2.18,0.15,4.38-0.05,6.54c-0.07,0.73-0.96,1.39-1.48,2.07
	c-0.66-0.56-1.57-0.99-1.91-1.71c-0.45-0.94-0.72-2.13-0.6-3.16c0.25-2.25,0.57-4.55,1.27-6.69c0.5-1.53,1.02-2.91,0.62-4.55
	c-0.26-1.04-0.28-2.14-0.42-3.23c-2.39,1.19-3.38,0.73-3.93-1.9c-0.49-2.36-0.3-4.68,0.88-6.92
	C619.59,263.33,618.06,266.3,619.9,268.94z M623,277.44c-1.82,3.28-1.8,8.55,0,10C623,284.14,623,280.98,623,277.44z"/>
<path class="st0" d="M178.43,379.25c-0.76,0.5-1.51,0.99-2.26,1.48c-0.48-0.97-1.16-1.91-1.39-2.94c-0.38-1.69-0.48-3.45-0.65-5.18
	c-0.02-0.25,0.22-0.52,0.33-0.78c0.17-0.01,0.34-0.02,0.51-0.03c0.43,2.44,0.85,4.88,1.33,7.59c1.9-2.25,1.31-4.84,1.94-7.63
	c0.43,0.69,0.73,0.97,0.79,1.29c1.03,5.4,2.1,10.79,3,16.21c0.24,1.47,0.13,3.05-0.12,4.53c-0.25,1.46-1.13,2.63-2.79,2.76
	c-1.4,0.11-2.68-0.9-3.23-2.51c-1.25-3.62-0.23-6.9,1.74-9.92C178.7,382.49,179.45,380.98,178.43,379.25z M179.76,383.54
	c-0.17,0.01-0.34,0.02-0.51,0.03c-1.85,2.63-2.74,5.58-2.55,8.41c0.13,1.93,1.14,3.34,2.32,3.27c1.1-0.07,2.04-1.48,1.87-3.38
	C180.65,389.08,180.15,386.32,179.76,383.54z"/>
<path class="st0" d="M549.14,394.31c2.87,0.39,5.75,0.78,9.03,1.23c-0.22-3.13-0.23-5.9-0.65-8.62c-0.95-6.14-2.33-12.22-3.1-18.38
	c-0.57-4.52-0.48-9.13-0.67-13.7c-0.03-0.58,0-1.17,0-1.95c-2.3,0.12-4.48,0.24-6.65,0.36c-0.02-0.2-0.03-0.4-0.05-0.6
	c2.27-0.13,4.53-0.32,6.8-0.34c0.27,0,0.84,0.92,0.8,1.37c-0.89,9.48,1.63,18.51,3.31,27.67c0.82,4.49,0.96,9.1,1.42,13.66
	c0.13,1.22-0.39,1.56-1.59,1.61C554.71,396.76,551.84,396.19,549.14,394.31z"/>
<path class="st0" d="M429.72,357.49c-1.2,0-2.4,0.05-3.6-0.01c-1.37-0.07-1.98,0.49-2.02,1.89c-0.14,5.13-0.43,10.27-0.51,15.4
	c-0.11,6.88-0.11,13.76-0.08,20.64c0.01,2.24,0.22,2.28,2.44,1.78c0.99-0.22,2.03-0.26,3.04-0.38c0.05,0.24,0.09,0.47,0.14,0.71
	c-1.62,0.44-3.23,0.99-4.88,1.25c-0.48,0.08-1.24-0.58-1.6-1.09c-0.34-0.49-0.45-1.24-0.45-1.88c0.01-7.15,0.01-14.31,0.12-21.46
	c0.08-4.92,0.29-9.83,0.49-14.75c0.1-2.7,0.7-3.25,3.38-3.12c1.18,0.06,2.37,0.26,3.55,0.4
	C429.74,357.07,429.73,357.28,429.72,357.49z"/>
<path class="st0" d="M581.25,258.24c0,4.21,0,7.92,0,12.03c0.82-0.55,1.16-0.78,1.58-1.06c-0.02,0.21,0.03,0.41-0.05,0.49
	c-1.05,1.07-0.81,2.27-0.64,3.62c0.34,2.63,0.57,5.31,0.48,7.95c-0.07,2.05-1.38,3.31-2.74,3.36c-1.53,0.06-2.98-1.22-3.4-3.19
	c-0.56-2.65-0.19-5.34,1.69-7.21c2.11-2.1,2.41-4.27,1.71-6.9c-0.15-0.57-0.18-1.18-0.26-1.79c-2.19,1.21-2.65,1.05-3.06-1.39
	c-0.29-1.76-0.34-3.56-0.49-5.34c0.23-0.03,0.47-0.06,0.69-0.08c0.31,2.14,0.63,4.27,0.97,6.56
	C580.64,263.81,578.67,260.19,581.25,258.24z M581.14,272.98c-0.24-0.03-0.49-0.06-0.74-0.09c-1.88,2.49-3.46,5.13-2.55,8.45
	c0.21,0.76,1.23,1.31,1.88,1.95c0.54-0.66,1.52-1.29,1.54-1.97C581.39,278.54,581.21,275.76,581.14,272.98z"/>
<path class="st0" d="M261.42,222.57c-0.53,0.55-1.15,1.19-1.77,1.83c-0.49-0.9-1.28-1.76-1.43-2.71c-0.31-2.03-0.28-4.11-0.39-6.17
	c0.21-0.01,0.42-0.02,0.63-0.03c0.32,2.42,0.64,4.84,0.97,7.27c0.2,0.01,0.4,0.01,0.59,0.02c0.26-1.72,0.52-3.43,0.78-5.15
	c0.16-0.02,0.33-0.05,0.49-0.07c1.28,2.56,1.3,5.52,2.3,8.31c0.39-0.26,0.79-0.52,1.19-0.78c-1.9,3.29,0.52,6.52,0.02,9.75
	c-0.13,0.85-0.09,1.74-0.27,2.58c-0.28,1.29-1.06,2.29-2.46,2.15c-1.34-0.13-2.24-1.23-2.17-2.49c0.13-2.2,0.03-4.75,1.1-6.47
	C262.84,227.69,262.18,225.1,261.42,222.57z M263.17,229.64c-1.73,2.27-2.43,4.75-1.94,7.46c0.08,0.43,0.65,0.77,0.99,1.15
	c0.35-0.36,0.8-0.66,1.03-1.08c0.21-0.41,0.27-0.95,0.25-1.42C263.42,233.71,263.28,231.68,263.17,229.64z"/>
<path class="st0" d="M636.75,380.06c-0.31,0.37-0.6,0.77-0.93,1.12c-0.87,0.92-1.86,0.93-2.42-0.17c-1.45-2.9-1.67-6.07-1.86-9.22
	c0.14-0.04,0.28-0.07,0.42-0.11c0.72,3.01,1.44,6.02,2.23,9.34c1.78-1.44,1.98-3.02,2.27-4.56c0.25-1.35-0.43-2.98,0.91-4.01
	c0.19,0.02,0.38,0.04,0.58,0.06c0,0.72,0.05,1.44-0.01,2.15c-0.19,2.26,0.29,4.27,1.01,6.49c1.2,3.7,1.4,7.74,1.86,11.65
	c0.07,0.55-0.79,1.2-1.22,1.81c-0.61-0.46-1.67-0.85-1.74-1.38c-0.32-2.35-0.41-4.74-0.49-7.12c-0.07-2.01,0-4.01,0.01-6.02
	C637.17,380.08,636.96,380.07,636.75,380.06z M638.83,393.04c0.28-0.03,0.57-0.05,0.85-0.08c-0.23-1.9-0.46-3.8-0.68-5.7
	c-0.18,0.02-0.36,0.04-0.54,0.06C638.58,389.23,638.71,391.14,638.83,393.04z"/>
<path class="st0" d="M542.42,312.19c-1.98,0.35-2.57-0.05-2.7-1.99c-0.1-1.53-0.02-3.06-0.02-4.6c0.2-0.01,0.4-0.03,0.6-0.04
	c0.19,1.89,0.38,3.78,0.57,5.67c0.23,0.05,0.46,0.09,0.69,0.14c0.27-0.59,0.63-1.15,0.79-1.76c0.31-1.15,0.44-2.34,0.79-3.47
	c0.11-0.35,0.71-0.54,1.08-0.8c0.18,0.4,0.44,0.79,0.53,1.22c0.07,0.36,0.03,0.8-0.13,1.13c-1.69,3.69-0.33,7.39-0.08,11.08
	c0.16,2.34,0.35,4.67,0.46,7.01c0.03,0.69-0.06,1.45-0.33,2.08c-0.24,0.53-0.78,1.19-1.28,1.28c-0.49,0.09-1.26-0.33-1.63-0.76
	c-1.48-1.75-1.28-3.88-0.99-5.93c0.16-1.11,0.56-2.22,1.01-3.26C543.12,316.07,543.18,315.79,542.42,312.19z M543.47,318.98
	c-2.08,3.28-2.06,7.33,0,9.01C543.47,325.01,543.47,322.2,543.47,318.98z"/>
<path class="st0" d="M170.06,258.36c0.31,2.61,0.01,5.27,0.41,7.99c0.32-1.02,0.61-2.06,0.98-3.07c0.13-0.35,0.45-0.64,0.68-0.95
	c0.21,0.38,0.6,0.75,0.61,1.13c0.06,2.17,0.03,4.33,0.03,6.5c0.18,0.04,0.36,0.07,0.54,0.11c0.42-0.98,0.84-1.97,1.26-2.96
	c0.08,0.02,0.16,0.05,0.24,0.07c-0.12,0.67-0.14,1.38-0.4,1.99c-1.29,3.08-1.41,6.33-1.67,9.58c-0.06,0.78-0.37,1.6-0.77,2.27
	c-0.22,0.37-0.95,0.72-1.33,0.62c-0.37-0.09-0.86-0.78-0.83-1.18c0.08-1.34,0.06-2.82,0.63-3.98c1.39-2.88,1.55-5.84,1.16-9.3
	c-0.37,0.81-0.54,1.4-0.89,1.87c-0.26,0.34-0.74,0.51-1.12,0.76c-0.21-0.36-0.58-0.71-0.6-1.07c-0.06-1.2,0.01-2.4,0.02-3.6
	c0.01-2.24,0-4.47,0-6.7C169.36,258.4,169.71,258.38,170.06,258.36z"/>
<path class="st0" d="M273.72,269.65c-0.47-0.3-1.29-0.53-1.36-0.91c-0.54-2.83-0.94-5.69-1.35-8.54c-0.03-0.22,0.16-0.47,0.62-0.73
	c0.44,2.6,0.88,5.2,1.36,8.02c1.57-1.59,0.29-3.96,2.16-5.54c0,2.95,0,5.54,0,8.59c1.04-1.38,1.78-2.35,2.52-3.32
	c0.16,0.09,0.31,0.18,0.47,0.27c-0.52,0.98-0.96,2.02-1.58,2.93c-0.74,1.09-1,2.1-0.75,3.49c0.45,2.51,0.54,5.08,0.76,7.63
	c0.04,0.43,0.11,0.97-0.1,1.29c-0.46,0.72-1.15,1.91-1.64,1.86c-0.76-0.08-1.95-0.97-2.03-1.63c-0.27-2.07-0.23-4.22-0.06-6.31
	c0.1-1.16,0.77-2.26,1.03-3.43c0.29-1.27,0.41-2.57,0.6-3.86C274.15,269.52,273.94,269.59,273.72,269.65z M274.81,274.05
	c-1.92,3.64-1.89,8.36,0.11,9.68C276.19,280.53,275.19,277.43,274.81,274.05z"/>
<path class="st0" d="M167.24,224.72c0.65-2.1,1.3-4.21,1.94-6.31c0.12,0.01,0.24,0.02,0.36,0.04c0.1,0.32,0.27,0.64,0.3,0.97
	c0.51,4.72,1.07,9.43,1.45,14.15c0.15,1.88-0.02,3.82-0.24,5.7c-0.12,1.05-0.6,2.44-1.91,2.15c-0.67-0.15-1.53-1.5-1.52-2.3
	c0.03-2.38,0.21-4.81,0.78-7.11c0.69-2.83,1.48-5.58,0.49-8.58c-0.41,0.8-0.76,1.64-1.24,2.4c-0.2,0.31-0.66,0.6-1.01,0.62
	c-0.23,0.01-0.59-0.43-0.72-0.75c-0.61-1.37-0.5-8.23,0.11-9.65c0.15-0.01,0.3-0.02,0.45-0.03c0,2.87,0,5.73,0,8.59
	C166.73,224.66,166.99,224.69,167.24,224.72z M169.24,240.3c1.44-1.45,1.69-7.41,0.38-9.32C168.36,237.06,168.3,238.63,169.24,240.3
	z"/>
<path class="st0" d="M349.6,320.64c0.51-0.71,0.91-1.27,1.33-1.86c0.12,0.13,0.24,0.23,0.23,0.25c-1.36,2.13-1.01,4.39-0.67,6.72
	c0.19,1.31,0.02,2.74-0.31,4.04c-0.33,1.26-1.27,2.37-2.74,2.01c-1.39-0.33-1.71-1.68-1.46-2.92c0.31-1.53,0.64-3.18,1.45-4.46
	c1.07-1.68,1.09-3.19,0.4-4.89c-0.14-0.35-0.25-0.72-0.37-1.08c-2.54,0.55-3.56-0.16-3.74-2.83c-0.09-1.25,0.07-2.53,0.13-3.79
	c0.23-0.02,0.47-0.03,0.7-0.05c0.12,0.79,0.26,1.57,0.35,2.36c0.1,0.76,0.04,1.55,0.26,2.26c0.12,0.4,0.67,0.67,1.02,1
	c0.25-0.42,0.64-0.81,0.71-1.26c0.14-0.79-0.04-1.66,0.18-2.43c0.13-0.45,0.76-0.76,1.17-1.13c0.22,0.45,0.69,0.95,0.62,1.35
	c-0.36,2.06-0.54,4.08,0.39,6.04C349.32,320.11,349.4,320.25,349.6,320.64z M348.91,324.58c-1.57,2.01-2.05,4.63-1.08,5.94
	C349.35,329.5,349.75,327.28,348.91,324.58z"/>
<path class="st0" d="M287.53,232.65c-0.22,0.3-0.42,0.64-0.68,0.9c-0.77,0.77-1.51,0.52-1.7-0.42c-0.55-2.72-0.6-5.46-0.18-8.19
	c0.17-0.01,0.34-0.02,0.5-0.03c0.12,2.6,0.24,5.2,0.36,7.8c0.2,0.03,0.4,0.07,0.6,0.1c0.48-1.64,0.95-3.28,1.42-4.92
	c0.15-0.02,0.3-0.04,0.46-0.06c0.19,1.58,0.38,3.16,0.58,4.86c0.52-0.24,0.96-0.45,1.4-0.66c-2.31,3.03-0.28,6.08-0.2,9.09
	c0.04,1.36,0.19,2.73,0.05,4.07c-0.12,1.17-0.68,2.24-2.08,2.38c-1.43,0.14-2.42-0.6-2.89-1.9c-1.07-2.94-0.22-5.69,0.99-8.37
	c0.36-0.79,0.95-1.47,1.29-2.27c0.3-0.69,0.39-1.46,0.58-2.2C287.87,232.77,287.7,232.71,287.53,232.65z M288.57,236.59
	c-0.16,0-0.32,0-0.49,0c-1.6,2.4-2.33,5.05-1.99,7.96c0.11,1,0.61,2.07,1.78,1.89c0.53-0.08,1.33-1.1,1.32-1.68
	C289.11,242.04,288.8,239.32,288.57,236.59z"/>
<path class="st0" d="M480.27,266.31c0.48,2.27,0.95,4.54,1.43,6.81c0.2,0.02,0.41,0.04,0.61,0.07c0.52-1.68,1.03-3.36,1.55-5.04
	c0.22,0.01,0.44,0.02,0.65,0.03c0.19,2.23,0.38,4.47,0.58,6.83c0.67-0.43,1.23-0.78,2.05-1.3c-0.19,0.58-0.2,0.96-0.4,1.14
	c-1.56,1.42-1.44,3.23-1.37,5.11c0.06,1.51-0.05,3.06-0.32,4.55c-0.32,1.74-1.48,2.7-2.6,2.35c-1.49-0.47-1.81-1.83-1.55-3.06
	c0.41-1.89,0.86-3.92,1.89-5.5c1.1-1.68,1.35-3.2,0.84-5c-1.64,1.78-2.45,1.66-3.08-0.76c-0.52-1.98-0.65-4.07-0.95-6.11
	C479.83,266.39,480.05,266.35,480.27,266.31z M482.78,285.55c1.37-0.89,1.9-3.93,1.15-6.49
	C482.23,281.36,481.74,284.1,482.78,285.55z"/>
<path class="st0" d="M294.32,267.99c0.51,2.34,1.02,4.67,1.54,7.01c0.11-0.01,0.21-0.03,0.32-0.04c0.2-1.86,0.4-3.72,0.59-5.58
	c0.16-0.01,0.32-0.01,0.48-0.02c0.61,2.82,1.22,5.64,1.89,8.71c0.95-0.89,1.71-1.6,2.48-2.32c0.1,0.07,0.21,0.14,0.31,0.22
	c-0.51,0.78-0.92,1.66-1.55,2.33c-0.73,0.77-0.73,1.51-0.61,2.5c0.27,2.2,0.53,4.43,0.39,6.63c-0.11,1.88-1.26,2.66-2.77,2.5
	c-1.31-0.13-2.11-1.23-2.2-2.99c-0.11-2.27,0.5-4.4,1.87-6.13c1.21-1.51,1.38-2.93,0.74-4.61c-0.18-0.49-0.29-1-0.48-1.63
	c-0.14,0.26-0.23,0.38-0.29,0.53c-0.24,0.55-0.46,1.1-0.7,1.65c-0.42-0.51-1.08-0.95-1.23-1.53c-0.59-2.35-1.02-4.74-1.51-7.11
	C293.83,268.08,294.08,268.03,294.32,267.99z M299.15,280.76c-0.23,0.01-0.45,0.01-0.68,0.02c-1.2,1.84-2.18,3.8-1.94,6.08
	c0.07,0.66,0.74,1.26,1.14,1.89c0.49-0.56,1.36-1.08,1.41-1.67C299.26,284.98,299.15,282.87,299.15,280.76z"/>
<path class="st0" d="M180.21,288.01c0.03,0.57,0.09,1.14,0.09,1.71c0.01,11.2,0.04,22.39,0,33.59c-0.01,2.67-0.24,5.34-0.44,8.01
	c-0.03,0.43-0.46,0.83-0.7,1.25c-0.16-0.41-0.46-0.82-0.46-1.23c0.2-13.98,0.42-27.95,0.66-41.93c0.01-0.5,0.19-0.99,0.28-1.49
	C179.83,287.95,180.02,287.98,180.21,288.01z"/>
<path class="st0" d="M174,312.03c-1.39,1.34-6.04,1.52-7.35,0.65c-1.11-0.74-0.86-1.73-0.29-2.58c0.77-1.16,1.71-2.21,2.75-3.52
	c-1.74,0-3.27,0-4.8,0c-0.03-0.15-0.07-0.3-0.1-0.45c0.43-0.16,0.84-0.41,1.28-0.46c1.14-0.11,2.29-0.1,3.43-0.2
	c1.9-0.16,3.18-1.24,3.72-3.06c0.36-1.21-0.18-2.01-1.28-2.21c-1.49-0.28-3.02-0.31-4.53-0.48c-0.57-0.06-1.12-0.22-1.69-0.33
	c0.01-0.2,0.01-0.4,0.02-0.61c0.69-0.09,1.38-0.21,2.08-0.28c0.49-0.05,0.98-0.07,1.47-0.04c1.86,0.11,3.87,0.11,4.96,1.91
	c1.1,1.81-0.26,3.3-1.14,4.93c1.04,0.2,2.04,0.39,3.04,0.59c-0.03,0.15-0.06,0.29-0.09,0.44c-1.67,0.31-3.55,0.25-4.94,1.04
	c-1.42,0.8-2.36,2.45-3.51,3.73c0.07,0.21,0.14,0.42,0.21,0.62C169.5,311.83,171.75,311.93,174,312.03z"/>
<path class="st0" d="M230.19,312.38c-0.41,0.5-0.66,0.91-1.01,1.21c-0.68,0.57-1.39,0.63-1.93-0.21c-0.75-1.15-0.8-6.74,0.01-8.21
	c0.2,2.71,0.38,5.24,0.6,8.18c2.42-2.01,1.55-4.76,2.56-6.76c0.15,0.01,0.3,0.03,0.45,0.04c0.06,0.43,0.14,0.87,0.19,1.3
	c0.21,1.84,0.39,3.68,0.63,5.51c0.05,0.41-0.26,1.27,0.78,0.97c0.03-0.01,0.25,0.43,0.26,0.66c0.1,3.03,0.2,6.05,0.27,9.08
	c0.01,0.49,0.05,1.04-0.16,1.44c-0.27,0.52-0.82,1.33-1.16,1.29c-0.57-0.07-1.35-0.62-1.53-1.14c-0.33-0.95-0.34-2.03-0.36-3.05
	c-0.01-0.7,0.05-1.47,0.33-2.09C231.33,317.93,230.85,315.28,230.19,312.38z M231.29,325.16c0.11,0.02,0.22,0.04,0.32,0.06
	c0-1.48,0-2.96,0-4.44c-0.11,0-0.22,0-0.32,0C231.29,322.23,231.29,323.7,231.29,325.16z"/>
<path class="st0" d="M205.92,209.24c-1.74-3.39-0.43-8.82,2.73-10.25c4.19-1.9,8.91,0.72,9.57,5.54c0.5,3.69-0.6,7.02-2.84,9.95
	c-0.39,0.51-0.96,0.88-1.49,1.26c-0.76,0.55-1.41,0.17-1.4-0.6c0.03-3.22,0.98-6.21,2.74-8.95c-0.69,2.8-1.38,5.59-2.07,8.39
	c0.24,0.11,0.48,0.22,0.72,0.33c0.77-1.24,1.68-2.43,2.29-3.74c1.09-2.32,1.52-4.79,0.76-7.32c-0.79-2.65-2.92-4.26-5.55-4.22
	c-2.42,0.04-4.24,1.46-4.89,4.24C206.08,205.68,206.08,207.6,205.92,209.24z"/>
<path class="st0" d="M450.94,296.29c1.11,5.28,0.67,41.06-0.92,42.75c0.17-14.25,0.33-28.5,0.5-42.76
	C450.65,296.29,450.8,296.29,450.94,296.29z"/>
<path class="st0" d="M287.33,295.08c0.27,14.32,0.53,28.64,0.8,42.96c-0.17,0.07-0.34,0.14-0.52,0.21
	c-0.26-0.24-0.59-0.44-0.74-0.73c-0.14-0.27-0.09-0.64-0.09-0.96c-0.03-13.51-0.06-27.02-0.09-40.53c0-0.32,0.05-0.64,0.07-0.96
	C286.95,295.07,287.14,295.07,287.33,295.08z"/>
<path class="st0" d="M214.62,229.37c-0.74,2.84-1.47,5.67-2.21,8.51c0.16,0.07,0.31,0.13,0.47,0.19c0.17-0.1,0.39-0.16,0.5-0.31
	c2.3-2.87,3.35-6.11,2.58-9.77c-0.38-1.81-1.55-2.94-3.44-3.24c-1.61-0.26-3.36,0.35-4.1,1.99c-0.79,1.74-1.15,3.67-1.65,5.35
	c-0.64-2.21-0.53-4.66,1.06-6.77c1.33-1.76,3.29-2.21,5.44-1.72c1.98,0.44,3.73,2.37,4,4.49c0.47,3.63-0.39,6.93-2.47,9.93
	c-0.06,0.09-0.11,0.21-0.2,0.25c-0.82,0.44-1.64,0.87-2.46,1.3c-0.16-0.81-0.47-1.62-0.44-2.42
	C211.83,234.27,213.01,231.75,214.62,229.37z"/>
<path class="st0" d="M288.3,252.76c-0.33-2.61-3.33-4.08-6.05-3.52c-2.44,0.5-2.98,2.74-1.85,7.36c-2.04-2.06-2.29-5.87-0.5-7.56
	c2.05-1.94,6.39-1.44,8.4,0.97c2.08,2.48,2.54,7.45,0.76,10.18c-0.45,0.69-1.51,0.98-2.3,1.46c-0.32-0.69-1-1.43-0.91-2.06
	c0.29-2.08,0.82-4.13,1.36-6.17c0.09-0.32,0.74-0.47,1.13-0.7c-0.11,0.46-0.22,0.92-0.34,1.38c-0.51,2-1.38,3.96-0.77,6.18
	C289.12,258.67,289.55,255.37,288.3,252.76z"/>
<path class="st0" d="M276.24,214.2c-0.31-3.66,1.14-6.63,1.97-9.72c0.21,0.04,0.41,0.09,0.62,0.13c-0.56,2.31-1.11,4.62-1.72,7.13
	c2.3-2.12,3.63-7.47,2.67-10.14c-0.86-2.36-4.22-2.65-6.27-0.46c-1.82,1.94-2.61,4.24-1.99,6.92c0.07,0.31,0.1,0.63,0.01,0.95
	c-1.34-2.4-1.34-4.91-0.08-7.26c1.18-2.19,3.16-3.41,5.78-3.21c2.05,0.16,3.43,1.19,3.74,3.24c0.7,4.54-0.76,8.48-3.69,11.93
	C277.15,213.88,276.84,213.92,276.24,214.2z"/>
<path class="st0" d="M598.02,378.11c-2.23,0-4.28,0-6.34,0c-0.04-0.14-0.09-0.28-0.13-0.42c0.4-0.17,0.79-0.47,1.2-0.5
	c1.25-0.07,2.51-0.04,3.76-0.05c2.79-0.03,4.32-1.48,4.67-4.79c-1.85,0.14-3.62,0.27-5.53,0.41c0.13-0.3,0.17-0.63,0.27-0.65
	c1.49-0.29,2.98-0.7,4.47-0.75c1.71-0.05,2.36,0.94,1.84,2.61c-0.3,0.98-0.87,1.86-1.39,2.93c1.56,0,3.08,0,4.6,0
	c0.09,0.13,0.17,0.25,0.26,0.38c-0.48,0.3-0.93,0.78-1.44,0.86c-0.9,0.14-1.85,0.05-2.78,0.05c-1.68,0-3.09,1.22-3.14,2.92
	c-0.01,0.4,0.64,1.08,1.1,1.19c1.26,0.29,2.57,0.35,3.92,0.5c-0.9,1.07-4.02,1.34-5.42,0.38C595.76,381.68,597.6,380,598.02,378.11z
	"/>
<path class="st0" d="M225.48,249.26c-0.27,2.87-0.53,5.74-0.82,8.79c2.14-1.08,3.45-4.45,2.99-7.1c-0.06-0.32-0.15-0.64-0.22-0.96
	c-0.3-1.5-1.05-2.69-2.6-3.03c-1.52-0.33-2.85,0.47-3.43,1.7c-0.99,2.06-1.57,4.31-2.15,5.98c-0.86-2.06,0.13-6.29,2.27-7.82
	c2.68-1.92,5.58-1.12,6.68,1.99c1.17,3.3,0.69,6.49-1.4,9.29c-0.47,0.63-1.52,0.82-2.3,1.21c-0.32-0.74-0.96-1.52-0.9-2.23
	c0.25-2.66,0.72-5.3,1.11-7.95C224.96,249.18,225.22,249.22,225.48,249.26z"/>
<path class="st0" d="M278.85,225.25c-0.63,2.61-1.25,5.14-1.86,7.66c2.6-1.72,3.92-7.32,2.76-9.85c-0.69-1.5-2.17-1.96-4.04-1.24
	c-2.58,0.99-3.56,3.05-3.69,5.64c-0.04,0.86-0.01,1.73-0.01,2.63c-2.07-4.92-0.01-9.15,4.78-9.76c2.13-0.27,3.82,0.65,4.2,2.73
	c0.7,3.85,0.11,7.51-2.51,10.59c-0.36,0.42-1.08,0.54-1.63,0.8c-0.19-0.58-0.64-1.21-0.53-1.73c0.49-2.27,1.14-4.52,1.75-6.76
	c0.07-0.25,0.27-0.46,0.44-0.66C278.55,225.25,278.7,225.28,278.85,225.25z"/>
<path class="st0" d="M351.19,248.48c-0.15-1.73-0.96-3-2.65-3.52c-1.58-0.48-3.63,0.29-4.47,1.93c-0.82,1.59-1.27,3.37-1.77,4.75
	c-1.12-1.84,0.31-5.95,3.02-7.38c2.68-1.41,5.41-0.39,6.61,2.64c1.2,3.02,1.17,6.08-0.39,9.01c-0.34,0.63-0.95,1.2-1.57,1.58
	c-0.89,0.54-1.63,0.2-1.77-0.87c-0.39-2.84,0.56-5.38,1.94-7.78c0.15-0.26,0.72-0.27,1.09-0.39c-1.17,2.51-2.37,5.01-1.88,8.07
	C351.48,254.89,352.22,251.34,351.19,248.48z"/>
<path class="st0" d="M226.57,270.99c-1.04,2.69-2.03,5.23-3.15,8.11c4.5-1.67,5.88-7.28,3.03-10.34c-1.26-1.35-2.83-1.89-4.59-1.4
	c-1.77,0.49-2.78,1.83-3.2,3.59c-0.15,0.6-0.2,1.23-0.35,2.24c-0.92-3.04,0.04-5.47,2.29-6.55c2.5-1.2,5.6-0.3,7.17,2.1
	c2.45,3.72,0.77,9.52-3.28,11.38c-1.04,0.48-1.9,0.23-1.82-0.94c0.18-2.89,1.25-5.5,3.02-7.8
	C225.86,271.15,226.29,271.11,226.57,270.99z"/>
<path class="st0" d="M284.76,275.44c-3.01-2.71-3.39-6.68-0.97-8.65c2.76-2.26,6.52-1.07,7.22,2.4c0.55,2.69,0.63,5.44-0.81,7.96
	c-0.26,0.46-0.65,0.89-1.06,1.21c-0.72,0.54-1.38,0.26-1.35-0.59c0.06-1.9,0.18-3.82,0.56-5.68c0.15-0.76,1.02-1.38,1.7-2.24
	c-0.32-2.16-1.29-3.09-3.34-2.93c-2,0.16-3.32,1.61-3.28,3.74c0.01,0.8,0.2,1.61,0.42,2.39
	C284.05,273.81,284.4,274.53,284.76,275.44z M290.05,271.18c-1.59,1.73-0.8,3.95-1.24,5.92C290.5,275.41,290.31,273.3,290.05,271.18
	z"/>
<path class="st0" d="M676.19,377.13c0.17,0.32,0.39,0.55,0.34,0.67c-0.76,1.73,0.26,2.82,1.41,3.79c1.48,1.25,3.12,2.29,5.14,2.1
	c0.47-0.04,1.26-0.95,1.22-1.4c-0.14-1.76-0.24-3.63-0.94-5.2c-1.1-2.47-4.8-2.61-6.42-0.46c-0.05-1.86,0.09-2.04,1.93-2.42
	c3.36-0.71,5.32,0.37,6.28,3.71c0.4,1.38,0.58,2.9,0.49,4.34c-0.12,2.11-1.54,3.16-3.59,2.77c-2.54-0.48-4.68-1.78-6.22-3.89
	C674.73,379.62,674.85,378.44,676.19,377.13z"/>
<path class="st0" d="M266.97,382.19c0.99-3.52,1.99-7.03,3.01-10.54c0.01-0.04,0.3-0.01,0.69-0.01c-0.04,0.53-0.01,1.04-0.11,1.54
	c-0.78,3.73-1.56,7.45-2.38,11.17c-0.1,0.48-0.45,0.9-0.68,1.35c-0.39-0.38-0.94-0.7-1.15-1.16c-1.74-3.94-2.26-8.15-2.63-12.39
	c-0.03-0.35,0.1-0.71,0.53-1.19c0.19,0.47,0.48,0.92,0.56,1.4c0.61,3.31,1.18,6.62,1.77,9.93
	C266.71,382.25,266.84,382.23,266.97,382.19z"/>
<path class="st0" d="M605.91,262.27c0-2.67,0-5.21,0-8.15c-1.08,1.19-1.89,2.08-2.69,2.96c-0.15-0.1-0.3-0.2-0.44-0.3
	c0.78-1.21,1.55-2.44,2.37-3.63c0.74-1.08,0.59-2.77,2.29-3.56c-0.1,2.29-0.23,4.29-0.28,6.29c-0.05,2.01-0.01,4.02-0.01,6.22
	c1.64-0.13,3.45-0.33,5.27-0.4c0.48-0.02,0.99,0.34,1.48,0.53c-0.46,0.25-0.91,0.67-1.39,0.71c-2.98,0.25-5.96,0.44-8.95,0.61
	c-0.65,0.04-1.31-0.07-1.97-0.11c0-0.17-0.01-0.33-0.01-0.5C603.03,262.71,604.49,262.49,605.91,262.27z"/>
<path class="st0" d="M433.44,372.26c0.97-0.93,1.4-0.12,1.67,0.67c0.67,1.96,1.23,3.95,1.9,5.91c0.46,1.38,1.02,2.72,1.9,4.04
	c0.65-3.39,1.27-6.79,1.98-10.17c0.16-0.74,0.68-1.41,1.03-2.11c0.07,0.78,0.3,1.58,0.18,2.33c-0.55,3.22-1.2,6.43-1.83,9.64
	c-0.08,0.43-0.18,0.86-0.36,1.25c-0.54,1.21-1.52,1.33-2.17,0.16c-0.63-1.13-1.1-2.37-1.51-3.61c-0.67-2.02-1.21-4.07-1.86-6.1
	C434.17,373.64,433.81,373.06,433.44,372.26z"/>
<path class="st0" d="M474.03,382.91c1.16-7.57-0.04-15.18,0.97-22.69c0.17-0.01,0.35-0.02,0.52-0.03c0.05,0.22,0.16,0.45,0.16,0.67
	c-0.02,6.23-0.03,12.46-0.08,18.69c-0.01,1.31-0.12,2.62-0.3,3.92c-0.08,0.53-0.47,1.02-0.72,1.53c-0.39-0.39-0.91-0.71-1.15-1.18
	c-0.56-1.12-0.96-2.31-1.48-3.46c-0.87-1.92-1.77-3.83-2.6-5.63c0.95,0.1,1.5,0.77,2.68,3.54
	C472.69,379.83,473.36,381.37,474.03,382.91z"/>
<path class="st0" d="M533.48,382.41c1.11-3.97,2.06-7.41,3.07-10.83c0.08-0.26,0.55-0.41,1.08-0.78c-0.05,0.57-0.04,0.85-0.1,1.13
	c-0.78,3.94-1.56,7.88-2.37,11.82c-0.11,0.54-0.39,1.03-0.59,1.55c-0.38-0.33-0.91-0.59-1.12-1.01c-1.46-2.91-2.93-5.82-4.24-8.8
	c-0.4-0.92-0.29-2.06-0.11-3.12C530.52,375.62,531.94,378.89,533.48,382.41z"/>
<path class="st0" d="M319.11,370.3c0.04,0.68,0.23,1.39,0.11,2.04c-0.76,4.08-1.54,8.15-2.42,12.2c-0.14,0.64-0.81,1.17-1.24,1.75
	c-0.46-0.49-1.13-0.9-1.35-1.48c-0.94-2.49-1.79-5.02-2.6-7.57c-0.46-1.43-0.78-2.9-0.89-4.55c0.3,0.53,0.69,1.02,0.89,1.59
	c0.95,2.73,1.82,5.48,2.76,8.21c0.23,0.66,0.61,1.26,1.31,1.9c0.97-4.69,1.93-9.38,2.9-14.07
	C318.76,370.31,318.94,370.31,319.11,370.3z"/>
<path class="st0" d="M582.71,300.93c-0.97,3.84-1.92,7.51-2.79,11.19c-0.23,0.95-0.16,1.96-0.32,2.92
	c-0.05,0.29-0.39,0.59-0.67,0.74c-0.1,0.05-0.53-0.3-0.64-0.55c-1.73-3.94-3.44-7.9-5.13-11.86c-0.14-0.32-0.13-0.71-0.19-1.06
	c0.15-0.06,0.29-0.12,0.44-0.18c1.68,3.21,3.35,6.42,5.12,9.8c0.54-2.14,0.9-4.16,1.57-6.07
	C580.69,304.16,580.4,301.83,582.71,300.93z"/>
<path class="st0" d="M409.64,382.8c1.15-3.76,2.3-7.51,3.44-11.27c0.2-0.01,0.41-0.01,0.61-0.02c0.08,0.52,0.33,1.1,0.2,1.56
	c-1.04,3.66-2.13,7.32-3.28,10.95c-0.13,0.43-0.65,0.89-1.07,1.01c-0.24,0.07-0.84-0.49-0.98-0.87c-1.42-4.11-2.79-8.24-4.16-12.37
	c-0.07-0.2,0.04-0.46,0.39-0.76c1.5,3.95,2.99,7.9,4.49,11.85C409.41,382.85,409.53,382.83,409.64,382.8z"/>
<path class="st0" d="M351.58,268.65c-0.36,2.43-0.72,4.86-1.09,7.29c0.17,0.08,0.34,0.16,0.51,0.25c0.61-1,1.53-1.94,1.75-3.03
	c0.39-1.88,0.65-3.89,0.4-5.77c-0.31-2.34-2.39-3.25-4.92-2.61c-2.5,0.63-3.56,2.21-3.05,4.55c0.08,0.35,0.17,0.69,0.34,1.36
	c-2.02-2.67-1.54-5.21,0.98-6.58c3.49-1.91,7.38-0.02,7.85,3.9c0.36,3.04-0.28,5.89-2.3,8.27c-0.41,0.48-1.17,0.66-1.77,0.98
	c-0.16-0.59-0.52-1.21-0.45-1.77c0.3-2.32,0.74-4.62,1.12-6.93C351.17,268.59,351.37,268.62,351.58,268.65z"/>
<path class="st0" d="M219.32,264.57c0.5-0.22,0.98-0.57,1.49-0.63c4.15-0.48,8.3-1.07,12.46-1.29c3.25-0.17,6.52,0.14,9.79,0.2
	c0.74,0.02,1.48-0.09,2.77-0.17c-0.55,0.63-0.79,1.15-1.17,1.29c-0.54,0.19-1.18,0.15-1.77,0.13c-7.4-0.25-14.8-0.55-22.14,0.83
	c-0.43,0.08-0.88,0.06-1.32,0.09C219.39,264.87,219.36,264.72,219.32,264.57z"/>
<path class="st0" d="M434.65,310.78c1.11-2.95,2.29-6.1,3.47-9.24c0.27,0.08,0.54,0.15,0.82,0.23c-0.15,0.73-0.27,1.46-0.47,2.18
	c-0.85,3.08-1.71,6.17-2.63,9.24c-0.16,0.54-0.63,0.99-0.96,1.49c-0.31-0.47-0.74-0.91-0.89-1.43c-0.96-3.4-1.87-6.82-2.77-10.25
	c-0.09-0.35-0.01-0.76,0.29-1.19C433.32,304.67,433.58,308.06,434.65,310.78z"/>
<path class="st0" d="M488.15,254.55c-3.46-0.29-6.79-0.28-8.5,3.95c1.95,0.11,3.79,0.21,5.63,0.31c-1.2,1.36-5.26,1.69-6.33,0.38
	c-0.34-0.42-0.3-1.47-0.02-2.02c0.43-0.83,1.21-1.49,2.07-2.48c-0.99,0-1.71,0-2.44,0c-0.68,0-1.36,0-2.05,0
	c-0.02-0.19-0.03-0.39-0.05-0.58c1.33-0.13,2.65-0.38,3.97-0.36c1.6,0.02,2.55-0.67,3.08-2.12c0.51-1.4,0.01-2.12-1.47-2.03
	c-0.65,0.04-1.29,0.14-1.93,0.2c-0.06,0.01-0.13-0.13-0.3-0.31c1.47-0.62,2.98-1.2,4.26-0.1c1.48,1.28,0.11,2.7-0.38,4.38
	c0.83,0,1.55-0.03,2.27,0.01c0.72,0.04,1.44,0.16,2.17,0.24C488.14,254.2,488.15,254.37,488.15,254.55z"/>
<path class="st0" d="M268.12,301.18c1.35,3.28,2.69,6.57,4.16,10.14c1.05-3.85,1.62-7.57,3.21-10.93c0.19,0.04,0.37,0.07,0.56,0.11
	c0,0.48,0.1,0.99-0.02,1.44c-0.9,3.76-1.83,7.51-2.78,11.26c-0.1,0.36-0.4,0.74-0.72,0.95c-0.11,0.07-0.71-0.3-0.8-0.57
	c-1.46-4.02-2.87-8.05-4.29-12.08C267.67,301.39,267.89,301.29,268.12,301.18z"/>
<path class="st0" d="M331.68,263.96c1.14-0.11,2.3-0.41,3.42-0.3c1.36,0.13,2.01-0.46,2.44-1.59c0.15-0.41,0.37-0.79,0.49-1.21
	c0.67-2.24,0.15-2.96-2.15-2.83c-0.98,0.06-1.94,0.3-3.18,0.51c1.36-1.49,4.33-2.12,5.52-1.11c2.39,2.01,0.52,4.16-0.11,6.3
	c0.69,0.27,1.37,0.54,2.33,0.92c-1.34,0.29-2.66-0.81-3.38,0.74c-0.48,1.04-1,2.07-1.6,3.32c1.04,0.19,1.66,0.36,2.29,0.42
	c0.63,0.06,1.26,0.01,2.02,0.01c-1.18,1.18-3.5,1.59-4.51,0.7c-2.13-1.88,0.26-3.39,0.61-5.25c-1.4,0-2.76,0-4.13,0
	C331.72,264.38,331.7,264.17,331.68,263.96z"/>
<path class="st0" d="M379.14,301.83c1.37,3.56,2.74,7.11,4.24,11.03c0.56-1.95,0.95-3.54,1.48-5.08c0.51-1.46,0.55-3.2,2.39-4.05
	c-0.1,0.48-0.19,0.97-0.3,1.45c-0.76,3.28-1.52,6.56-2.3,9.83c-0.09,0.38-0.33,0.74-0.51,1.1c-0.29-0.18-0.76-0.29-0.86-0.55
	c-1.67-4.45-3.3-8.92-4.94-13.39C378.61,302.06,378.88,301.95,379.14,301.83z"/>
<path class="st0" d="M200.11,263.65c-0.97-0.26-1.94-0.52-2.92-0.78c0.03-0.15,0.05-0.3,0.08-0.45c0.66,0,1.38-0.17,1.97,0.03
	c1.39,0.48,2.13-0.06,2.65-1.29c0.29-0.7,0.74-1.35,0.96-2.06c0.56-1.77,0.05-2.34-1.77-2.09c-0.34,0.05-0.68,0.13-1.32,0.27
	c0.79-1.65,2.12-1.39,3.01-1.09c0.63,0.21,1.43,1.39,1.32,2c-0.27,1.62-0.99,3.17-1.58,4.88c0.64,0.21,1.43,0.47,2.21,0.73
	c0,0.12,0,0.25,0,0.37c-0.48,0-0.96,0.03-1.43-0.01c-1.68-0.14-3.31,1.24-3.31,2.96c0,0.37,0.47,0.94,0.85,1.06
	c0.85,0.28,1.77,0.33,2.73,0.48c-0.73,1.04-2.96,1.34-4.04,0.39C197.27,267.11,199.51,265.48,200.11,263.65z"/>
<path class="st0" d="M215.9,372.38c-0.08,0.77-0.09,1.55-0.25,2.3c-0.62,2.99-1.26,5.97-1.94,8.94c-0.09,0.4-0.51,0.71-0.78,1.07
	c-0.29-0.36-0.74-0.66-0.86-1.07c-1.12-3.98-2.18-7.98-3.24-11.98c-0.04-0.16,0.1-0.37,0.15-0.56c0.19-0.05,0.37-0.09,0.56-0.14
	c1.04,3.39,2.08,6.78,3.2,10.44c1.18-3.18,1.11-6.39,2.44-9.18C215.42,372.27,215.66,372.32,215.9,372.38z"/>
<path class="st0" d="M362.88,271.24c0.91,0.23,1.62,0.41,2.61,0.66c-1.44,0.26-2.77,0.17-3.66,0.75c-0.96,0.63-1.51,1.89-2.53,3.27
	c2.21,0,3.92,0,5.62,0c0.17,0.25,0.34,0.5,0.52,0.75c-0.36,0.1-0.71,0.26-1.07,0.29c-1.45,0.11-2.92,0.36-4.34,0.21
	c-1.64-0.18-1.97-1.01-1.3-2.54c0.17-0.39,0.42-0.76,0.65-1.13c0.23-0.36,0.48-0.71,0.83-1.22c-0.81-0.08-1.48-0.15-2.15-0.21
	c-0.07-0.17-0.14-0.33-0.21-0.5c3.22-0.05,5.22-1.4,5.55-4.98c-1.17,0.07-2.19,0.13-3.23,0.2c-0.07-0.1-0.14-0.19-0.21-0.29
	c0.36-0.23,0.71-0.67,1.06-0.66c1.07,0.02,2.75-0.13,3.07,0.42c0.46,0.81,0.02,2.2-0.21,3.3
	C363.78,270.12,363.3,270.58,362.88,271.24z"/>
<path class="st0" d="M207.92,218.63c0.62-0.1,1.23-0.29,1.84-0.3c6.91-0.05,13.81-0.08,20.72-0.1c0.43,0,0.93-0.05,1.28,0.14
	c0.29,0.16,0.42,0.64,0.62,0.98c-0.31,0.17-0.63,0.49-0.94,0.48c-7.32-0.15-14.63-0.33-21.95-0.52c-0.5-0.01-1.01-0.08-1.52-0.12
	C207.96,219.01,207.94,218.82,207.92,218.63z"/>
<path class="st0" d="M520.47,254.09c0.07,0.56,0.34,1.18,0.19,1.68c-1.17,3.84-2.42,7.66-3.67,11.48c-0.1,0.31-0.48,0.52-0.73,0.78
	c-0.25-0.24-0.65-0.45-0.72-0.74c-0.9-3.81-1.76-7.63-2.61-11.45c-0.03-0.12,0.1-0.27,0.35-0.91c0.58,2.04,1.04,3.66,1.51,5.28
	c0.48,1.67,0.97,3.33,1.77,5.06c1.13-3.71,2.26-7.42,3.39-11.12C520.12,254.12,520.3,254.11,520.47,254.09z"/>
<path class="st0" d="M520.47,382.45c1.99,0,3.47,0,4.96,0c0.01,0.17,0.03,0.35,0.04,0.52c-1.7,0.41-3.42,0.91-5.23,0.47
	c-1.14-0.27-0.99-1.2-0.57-1.97c0.84-1.52,1.81-2.98,2.67-4.49c1.04-1.83,2.14-3.66,1.97-6.02c-2.36,0.15-3.94,1.31-4.95,3.4
	c-0.14-0.08-0.28-0.17-0.42-0.26c0.19-0.59,0.2-1.46,0.59-1.72c1.42-0.93,2.92-1.79,4.49-2.39c1.02-0.39,1.59,0.55,1.35,1.44
	c-0.61,2.17-1.29,4.34-2.17,6.41C522.58,379.32,521.57,380.63,520.47,382.45z"/>
<path class="st0" d="M351.02,305.1c-1.55-0.2-3.16-0.23-4.64-0.65c-1.2-0.34-1.36-1.5-0.89-2.59c0.36-0.84,0.86-1.62,1.42-2.65
	c-1.25,0-2.38,0-3.5,0c-0.02-0.19-0.03-0.38-0.05-0.57c0.94-0.13,1.87-0.26,2.81-0.38c2.28-0.31,3.11-1.19,3.48-3.75
	c-0.49,0-0.98,0-1.46,0c-0.46,0-0.92,0-1.55,0c1.24-0.96,3.12-1.3,3.65-0.62c1.19,1.52-0.31,2.72-0.64,4.09
	c0.84,0.34,1.7,0.69,2.55,1.04c-0.04,0.13-0.09,0.26-0.13,0.39c-0.41,0-0.85,0.08-1.23-0.01c-1.97-0.48-2.98,0.57-3.83,2.16
	c-0.69,1.31-0.37,1.92,1,2.17c1.04,0.19,2.08,0.39,3.12,0.59C351.09,304.57,351.06,304.83,351.02,305.1z"/>
<path class="st0" d="M487.86,306.18c0.5-0.29,0.98-0.62,1.52-0.84c0.45-0.18,0.96-0.37,1.42-0.32c1.3,0.15,3.14,0.01,3.72,0.77
	c0.58,0.76-0.11,2.49-0.27,3.79c-0.04,0.3-0.24,0.57-0.45,1.03c1.38,0.08,2.6,0.15,3.82,0.22c0.02,0.11,0.03,0.23,0.05,0.35
	c-0.71,0.11-1.41,0.28-2.13,0.33c-2.8,0.19-3.59,0.85-4.39,3.91c0.89,0.14,1.76,0.28,3.11,0.49c-0.99,0.35-1.55,0.63-2.16,0.76
	c-1.76,0.38-2.68-0.6-2.09-2.32c0.33-0.96,0.92-1.83,1.5-2.94c-1.3-0.12-2.47-0.23-3.64-0.33c0.01-0.19,0.02-0.37,0.03-0.56
	c1.09,0,2.18,0,3.27,0c1.36,0,3.24-2.74,2.63-3.94c-0.18-0.35-0.89-0.63-1.34-0.61c-1.48,0.08-2.95,0.3-4.43,0.47
	C487.97,306.36,487.91,306.27,487.86,306.18z"/>
<path class="st0" d="M375.69,385.28c-2.08,0.55-4.19,0.79-6.25-0.22c-1.12-0.54-1.53-1.54-1.09-2.74c0.29-0.81,0.71-1.57,1.12-2.46
	c-0.94-0.06-1.8-0.12-2.67-0.18c0-0.2-0.01-0.4-0.01-0.59c0.79-0.07,1.58-0.17,2.38-0.21c1.58-0.1,3.12-2.87,2.22-4.17
	c-0.27-0.39-1-0.54-1.55-0.64c-0.48-0.08-1,0.06-1.83,0.13c1.27-1.04,2.8-1.28,3.61-0.55c1.68,1.53,0.75,3.29,0.15,5.18
	c1.33,0.12,2.59,0.23,3.85,0.34c0,0.08,0,0.15,0,0.23c-1.21,0.11-2.43,0.16-3.61,0.37c-0.51,0.09-1.12,0.41-1.42,0.82
	c-1.86,2.59-1.33,3.75,1.87,4.08c1.06,0.11,2.14,0.02,3.22,0.02C375.69,384.88,375.69,385.08,375.69,385.28z"/>
<path class="st0" d="M289.33,213.89c-1.99,1.24-3.67,1.29-5.34,0.62c-1.15-0.46-1.19-1.49-0.7-2.48c0.53-1.07,1.17-2.08,1.87-3.31
	c-0.96-0.14-1.85-0.28-2.73-0.41c0.01-0.15,0.01-0.3,0.02-0.44c0.65-0.03,1.31-0.09,1.96-0.09c1.59,0,3.14-1.38,3.12-2.96
	c0-0.3-0.66-0.83-1-0.82c-0.66,0.02-1.3,0.36-2.03,0.59c0.77-1.19,2.41-1.85,3.28-1.18c1.86,1.41,0.06,2.83-0.15,4.32
	c1.55,0.23,3.11,0.45,4.67,0.68c-0.03,0.15-0.06,0.31-0.09,0.47c-1.2,0-2.42,0.12-3.61-0.03c-1.36-0.17-2.29,0.18-2.89,1.46
	c-0.43,0.92-0.99,1.78-1.73,3.11C285.85,213.57,287.35,213.71,289.33,213.89z"/>
<path class="st0" d="M404.91,259.26c-0.1,2.99-1.72,5.05-3.9,4.96c-2.17-0.09-4.13-2.65-4.11-5.33c0.04-3.62,2.36-5.56,5.33-4.46
	C403.92,255.05,404.98,256.98,404.91,259.26z M397.34,258.78c0.61,1.1,1.04,2.36,1.85,3.27c1.49,1.67,3.66,1.05,4.25-1.13
	c0.21-0.77,0.25-1.63,0.15-2.43c-0.26-2.19-1.45-3.19-3.46-3.08C398.31,255.5,397.76,256.21,397.34,258.78z"/>
<path class="st0" d="M281.29,263.62c5.81,0,11.63-0.02,17.44,0.01c1.96,0.01,3.92,0.11,5.88,0.24c0.41,0.03,0.8,0.36,1.2,0.56
	c-0.38,0.21-0.76,0.62-1.13,0.61c-7.24-0.15-14.49-0.33-21.73-0.56c-0.61-0.02-1.22-0.35-1.83-0.54
	C281.17,263.84,281.23,263.73,281.29,263.62z"/>
<path class="st0" d="M306.83,384.77c-2.28,0.04-4.57,0.26-6.83,0.05c-1.36-0.12-1.11-1.27-0.42-2.1c1.08-1.3,2.33-2.47,3.32-3.84
	c1.22-1.68,2.25-3.5,3.36-5.27c-0.19-0.19-0.39-0.39-0.58-0.58c-1.32,0.8-2.65,1.59-3.96,2.39c-0.1-0.09-0.19-0.18-0.28-0.27
	c0.63-0.6,1.16-1.4,1.91-1.75c1.05-0.49,2.27-0.65,3.41-0.95c-0.17,1.14-0.02,2.46-0.56,3.39c-1.19,2.06-2.7,3.93-4.11,5.86
	c-0.44,0.6-0.95,1.15-1.62,1.95c2.31,0.15,4.34,0.29,6.37,0.42C306.84,384.31,306.84,384.54,306.83,384.77z"/>
<path class="st0" d="M319.84,258.42c0.21,0.79,0.51,1.56,0.62,2.36c0.14,1.05,0.6,1.48,1.68,1.51c1.41,0.04,2.82,0.21,4.22,0.4
	c0.56,0.08,1.1,0.35,1.65,0.54c-0.03,0.14-0.07,0.29-0.1,0.43c-2.22,0-4.44,0-6.85,0c0.24,1.76,0.5,3.58,0.76,5.41
	c-0.15,0.05-0.3,0.09-0.45,0.13c-0.21-0.55-0.48-1.09-0.62-1.67c-0.24-1-0.5-2.02-0.58-3.04c-0.08-1.03-0.6-1.2-1.49-1.23
	c-1.63-0.05-3.26-0.19-4.88-0.37c-0.65-0.07-1.28-0.36-1.91-0.54c0.02-0.15,0.04-0.31,0.06-0.47c2.56,0,5.13,0,7.76,0
	c-0.11-1.18-0.22-2.27-0.32-3.36C319.53,258.49,319.69,258.46,319.84,258.42z"/>
<path class="st0" d="M209.59,276.07c4.24-3.42,5.15-7.51,3.4-12.2c-0.85-2.28-2.03-4.45-3.05-6.67c-0.47-1.04-1.03-2.05-1.36-3.14
	c-0.2-0.67-0.04-1.45-0.04-2.19c1.09,2.29,2.03,4.42,3.1,6.49c1.68,3.25,3.46,6.47,3.34,10.28
	C214.88,272,213.11,275.48,209.59,276.07z"/>
<path class="st0" d="M557.28,265.39c-0.78,1.82-1.48,3.42-2.17,5.03c-0.23-0.07-0.46-0.13-0.69-0.19c0.14-0.78,0.28-1.56,0.44-2.33
	c0.03-0.15,0.11-0.31,0.21-0.44c2.06-2.83,0.82-5.01-1.37-7.01c-0.1-0.09-0.12-0.27-0.18-0.4c0.12-0.13,0.25-0.26,0.37-0.38
	c1.04,1.02,2.08,2.03,3.16,3.09c0.76-1.68,1.52-3.37,2.29-5.06c0.18,0.08,0.36,0.15,0.54,0.22c-0.58,1.67-1.22,3.32-1.69,5.02
	c-0.16,0.57-0.07,1.38,0.23,1.89c0.9,1.56,1.98,3,2.93,4.53c0.2,0.32,0.13,0.8,0.18,1.21c-0.37-0.15-0.89-0.19-1.09-0.47
	C559.39,268.63,558.42,267.12,557.28,265.39z"/>
<path class="st0" d="M327.43,220.82c1.43,0.4,2.77,0.77,4.11,1.15c-0.02,0.1-0.04,0.21-0.06,0.31c-1.21-0.19-2.42-0.38-3.63-0.55
	c-1.17-0.16-3.6,2.56-3.17,3.62c0.13,0.31,0.65,0.55,1.03,0.63c1.22,0.26,2.46,0.43,3.72,0.64c-1.35,1.13-4.68,1.11-5.65-0.16
	c-0.37-0.48-0.4-1.45-0.21-2.07c0.29-0.91,0.91-1.71,1.48-2.69c-0.89-0.15-1.75-0.31-2.61-0.45c0-0.13,0-0.26,0-0.39
	c0.74,0,1.49-0.01,2.23,0c1.5,0.02,3.59-2.62,3.04-4.02c-0.18-0.47-0.93-0.88-1.49-1.02c-0.69-0.17-1.45-0.04-2.17-0.04
	c0.94-0.91,2.89-1.1,3.86-0.1C329.63,217.44,328.1,219.08,327.43,220.82z"/>
<path class="st0" d="M231.54,248.82c0.87,3.37,1.75,6.74,2.63,10.11c0.16-0.02,0.32-0.04,0.48-0.05c1-3.6,1.43-7.4,3.77-10.62
	c-0.08,0.66-0.08,1.34-0.24,1.97c-0.77,3-1.56,6-2.41,8.99c-0.16,0.58-0.61,1.08-0.93,1.61c-0.46-0.47-1.17-0.86-1.33-1.41
	c-0.9-3.18-1.69-6.4-2.48-9.62c-0.07-0.28,0.04-0.6,0.07-0.91C231.25,248.86,231.39,248.84,231.54,248.82z"/>
<path class="st0" d="M232.14,374.43c2.05,0,4.05,0,6.04,0c0.01,0.25,0.01,0.5,0.02,0.75c-1.88,0.17-3.76,0.35-5.82,0.54
	c0.13,2.11,0.27,4.24,0.4,6.38c-0.14,0.02-0.28,0.04-0.43,0.06c-0.34-2.16-0.67-4.31-1.02-6.52c-1.95-0.15-3.87-0.3-5.79-0.44
	c-0.01-0.16-0.02-0.32-0.03-0.49c1.52-0.93,3.37-0.03,5.08-0.62c0.19-1.57,0.39-3.21,0.58-4.85c0.17,0,0.34,0.01,0.51,0.01
	C231.83,370.86,231.97,372.47,232.14,374.43z"/>
<path class="st0" d="M166.63,252.28c-0.32,0.47-0.64,0.94-0.96,1.4c-2.08,2.97-3.91,6.03-4.07,9.81c-0.11,2.72,0.68,5.04,2.65,6.94
	c0.17,0.16,0.28,0.39,0.3,0.69c-2.29-0.68-3.38-2.45-3.93-4.59c-1.05-4.11,0.33-7.74,2.43-11.17c0.57-0.93,1.28-1.77,1.97-2.61
	c0.3-0.36,0.74-0.61,1.12-0.91C166.31,251.98,166.47,252.13,166.63,252.28z"/>
<path class="st0" d="M355.52,244.28c0.95,3.79,1.9,7.59,2.85,11.38c0.19,0.01,0.38,0.02,0.57,0.03c0.95-3.84,1.9-7.67,2.87-11.58
	c0.03,0.03,0.49,0.29,0.52,0.59c0.08,0.8,0.13,1.66-0.07,2.43c-0.77,3.06-1.61,6.11-2.5,9.13c-0.16,0.54-0.69,0.97-1.05,1.45
	c-0.34-0.51-0.85-0.98-0.98-1.54c-0.88-3.65-1.68-7.31-2.49-10.98c-0.06-0.28-0.01-0.58-0.01-0.87
	C355.33,244.32,355.42,244.3,355.52,244.28z"/>
<path class="st0" d="M245.82,221.36c0,2.23,0,4.16,0,6.09c-1.78-1.78-0.58-4.01-1.17-6.07c-2.1-0.15-4.24-0.3-6.37-0.45
	c-0.01-0.18-0.02-0.35-0.04-0.53c2.13-0.13,4.26-0.27,6.59-0.41c0.08-1.63,0.15-3.23,0.23-4.83c0.13,0,0.27-0.01,0.41-0.01
	c0.13,1.6,0.26,3.2,0.39,4.88c2.03,0.63,4.48,0.15,6.2,1.76c-0.04,0.2-0.08,0.39-0.12,0.59
	C249.98,222.04,248.03,221.72,245.82,221.36z"/>
<path class="st0" d="M437.74,257.74c0.97-0.71,1.29,0.12,1.51,0.79c0.66,2.07,1.24,4.17,1.86,6.26c0.12,0.39,0.29,0.77,0.54,1.45
	c1.02-3.61,1.95-6.9,2.88-10.19c0.22,0.06,0.45,0.12,0.67,0.18c-0.36,4.48-2.14,8.61-3.18,12.93c-0.18,0.02-0.36,0.03-0.54,0.05
	c-0.22-0.49-0.51-0.95-0.65-1.46c-0.71-2.68-1.36-5.39-2.1-8.06C438.56,259.08,438.15,258.53,437.74,257.74z"/>
<path class="st0" d="M293.22,248.75c0.87,3.48,1.74,6.96,2.61,10.44c0.16-0.03,0.32-0.05,0.49-0.08c1.18-4.1,2.36-8.2,3.54-12.29
	c0.21,0.04,0.42,0.08,0.63,0.11c-0.04,0.71,0.03,1.44-0.15,2.11c-0.93,3.41-1.9,6.81-2.93,10.19c-0.17,0.55-0.72,0.98-1.1,1.46
	c-0.42-0.45-1.07-0.83-1.22-1.36c-0.79-2.88-1.46-5.79-2.16-8.69c-0.13-0.56-0.21-1.13-0.31-1.7
	C292.82,248.88,293.02,248.82,293.22,248.75z"/>
<path class="st0" d="M221.04,209.26c-0.89-0.11-1.63-0.21-2.37-0.31c-0.06-0.17-0.13-0.35-0.19-0.53c3.52,0.52,4.94-1.39,5.64-4.57
	c-1.17,0.12-2.15,0.22-3.13,0.32c-0.02-0.16-0.04-0.32-0.07-0.48c1.06-0.16,2.13-0.49,3.17-0.4c0.34,0.03,0.94,1.17,0.83,1.68
	c-0.23,1.14-0.82,2.2-1.25,3.25c0.95,0.24,1.87,0.48,2.79,0.72c0.04,0.22,0.07,0.44,0.11,0.66c-3.44-1.21-5.14,0.34-6.05,3.53
	c1.03,0.16,2,0.32,3.01,0.48c-0.89,1.19-2.23,1.41-3.42,0.64c-1.11-0.73-1.04-1.7-0.48-2.72
	C220.05,210.78,220.54,210.08,221.04,209.26z"/>
<path class="st0" d="M221.02,239.58c0.9-1.89,1.72-3.84,2.75-5.66c0.54-0.95,0.59-1.61-0.05-2.47c-0.7-0.95-1.27-2.01-1.9-3.01
	c0.15-0.13,0.3-0.26,0.45-0.39c0.93,1.11,1.86,2.21,2.97,3.53c0.75-1.63,1.44-3.12,2.13-4.61c0.15,0.04,0.31,0.08,0.46,0.11
	c-0.31,1.12-0.38,2.4-0.98,3.33c-1.09,1.69-0.87,3.03,0.28,4.54c0.63,0.83,0.93,1.9,1.14,3.03c-1.92-0.54-1.82-2.75-3.25-3.88
	c-1.18,1.92-2.35,3.84-3.52,5.75C221.34,239.77,221.18,239.67,221.02,239.58z"/>
<path class="st0" d="M368.79,260.08c-1.42,1.3-23.03,1.3-24.66,0.19c0.43-0.24,0.77-0.58,1.11-0.58c3.56,0.03,7.13,0.14,10.7,0.18
	c3.59,0.04,7.19,0,10.79,0.02C367.28,259.89,367.85,259.99,368.79,260.08z"/>
<path class="st0" d="M159.89,229.68c-0.31-0.35-0.76-0.65-0.9-1.06c-2.13-6.2-1.7-12.21,1.39-18.01c0.04-0.07,0.19-0.09,0.58-0.25
	c-0.05,0.58,0.02,1.08-0.14,1.5c-2.11,5.47-2.56,10.99-0.53,16.59c0.1,0.28,0.01,0.62,0.01,0.94
	C160.16,229.49,160.03,229.58,159.89,229.68z"/>
<path class="st0" d="M192.03,227.85c1.33,0,2.28,0,3.24,0c-0.99,1.12-2.23,1.37-3.46,0.99c-1.22-0.38-0.91-1.48-0.57-2.34
	c0.38-0.94,0.93-1.81,1.54-2.96c-1.15,0-2.07,0-3,0c-0.01-0.16-0.02-0.32-0.03-0.48c0.68-0.06,1.37-0.2,2.05-0.15
	c1,0.07,1.77-0.17,1.97-1.22c0.2-1.08,0.25-2.19,0.36-3.29c-0.93-0.1-1.85-0.23-2.78-0.27c-0.34-0.02-0.7,0.18-1.18,0.31
	c0.87-1.27,2.74-1.78,4.01-1.21c1.46,0.66,1.6,1.78,0.63,5.53c0.78,0.07,1.54,0.14,2.3,0.22
	C193.6,222.54,193.35,225.45,192.03,227.85z"/>
<path class="st0" d="M481.05,372.19c1.77,0.55,2.04,2.28,2.86,3.58c0.83,1.33,1.5,2.76,2.46,4.55c0.33-1.8,0.54-3.21,0.87-4.59
	c0.3-1.27-0.09-2.88,1.76-3.55c-0.36,2.33-0.73,4.66-1.1,6.99c-0.13,0.8-0.23,1.62-0.44,2.41c-0.11,0.42-0.45,0.77-0.68,1.15
	c-0.34-0.3-0.81-0.54-1-0.93c-1.13-2.23-2.19-4.5-3.28-6.75C482.02,374.1,481.53,373.14,481.05,372.19z"/>
<path class="st0" d="M629.96,260.75c-0.14,0.04-0.29,0.12-0.43,0.11c-4.86-0.57-5.27-1.35-3.02-5.73c1.08-2.1,2.16-4.2,3.4-6.6
	c-2.21,0.45-3.52,1.37-3.94,3.4c-0.19-0.14-0.39-0.28-0.58-0.42c0.41-0.79,0.63-1.84,1.27-2.31c0.95-0.69,2.21-0.96,3.33-1.41
	c0.18,0.5,0.61,1.08,0.48,1.47c-0.47,1.38-1.1,2.71-1.72,4.03c-0.59,1.28-1.22,2.55-1.85,3.81c-0.59,1.2-0.61,2.03,1.03,2.3
	c0.76,0.12,1.46,0.64,2.19,0.98C630.06,260.51,630.01,260.64,629.96,260.75z"/>
<path class="st0" d="M526.87,318.78c2.62,0,4.76,0,6.89,0c0.03,0.13,0.07,0.27,0.1,0.4c-0.39,0.15-0.77,0.39-1.17,0.43
	c-1.67,0.19-3.35,0.39-5.03,0.43c-0.63,0.01-1.68-0.32-1.79-0.71c-0.16-0.57,0.2-1.45,0.61-1.98c0.85-1.05,1.91-1.93,2.84-2.93
	c0.47-0.5,0.83-1.11,1.46-1.97c-1.62,0.29-2.88,0.52-4.13,0.74c-0.04-0.19-0.08-0.37-0.12-0.56c1.41-0.35,2.82-0.86,4.25-1.01
	c0.97-0.1,1.11,0.84,0.72,1.53c-0.56,0.98-1.27,1.88-1.99,2.76C528.81,316.78,528,317.57,526.87,318.78z"/>
<path class="st0" d="M198.43,232.51c4.37-3.61,5.21-9.58,2.38-15.26c-0.8-1.6-1.78-3.12-2.69-4.67c-0.26-0.44-0.53-0.87-0.8-1.3
	c0.12-0.1,0.24-0.19,0.36-0.29c0.53,0.61,1.11,1.17,1.57,1.83c2.61,3.71,4.88,7.57,4.29,12.36c-0.35,2.86-1.53,5.33-4.08,6.94
	C199.27,232.25,199.02,232.29,198.43,232.51z"/>
<path class="st0" d="M221.19,310.22c-6.52-0.5-13.03-1.01-19.53-1.51C202.67,307.07,217.36,307.99,221.19,310.22z"/>
<path class="st0" d="M640.78,367.86c1.72,0.24,3.26,0.46,4.8,0.68c-0.02,0.24-0.04,0.48-0.05,0.72c-1.64,0-3.3,0.13-4.92-0.05
	c-1.13-0.12-1.22-1.14-0.89-2.06c0.57-1.59,1.26-3.14,1.82-4.73c0.31-0.88,0.49-1.81,0.73-2.72c-0.17-0.16-0.35-0.33-0.52-0.49
	c-1.24,0.68-2.49,1.36-3.76,2.05c-0.25-1.35,0.87-1.82,1.82-2.14c0.9-0.3,2.3-0.6,2.82-0.15c0.53,0.46,0.51,1.92,0.27,2.82
	C642.36,363.83,641.52,365.79,640.78,367.86z"/>
<path class="st0" d="M233.04,270c0.6,0.74,1.2,1.47,1.85,2.27c0.71-0.8,1.4-1.57,2.08-2.34c0.14,0.1,0.28,0.19,0.42,0.29
	c-0.39,0.7-0.75,1.42-1.19,2.09c-0.52,0.79-0.41,1.42,0.09,2.22c0.88,1.38,1.61,2.84,2.38,4.29c0.16,0.3,0.17,0.68,0.28,1.17
	c-1.61-0.09-1.6-1.43-2.12-2.24c-0.59-0.9-1.05-1.89-1.62-2.94c-1.23,2.28-2.37,4.4-3.52,6.52c-0.13-0.06-0.26-0.12-0.39-0.19
	c0.82-2,1.55-4.04,2.49-5.97c0.56-1.14,0.57-1.99-0.23-2.97c-0.45-0.55-0.67-1.29-1-1.94C232.72,270.17,232.88,270.09,233.04,270z"
	/>
<path class="st0" d="M651.61,378.45c5.79,0,11.58,0,17.37,0c0.04,0.14,0.08,0.27,0.12,0.41c-0.43,0.21-0.86,0.6-1.29,0.59
	c-5.21-0.04-10.42-0.13-15.62-0.23c-0.19,0-0.38-0.14-0.57-0.22C651.62,378.81,651.61,378.63,651.61,378.45z"/>
<path class="st0" d="M461.45,375.44c-2.02,0-4.04,0-6.06,0c0.18,1.9,0.32,3.52,0.47,5.14c-0.17,0.02-0.35,0.04-0.52,0.07
	c-0.33-1.24-0.82-2.46-0.94-3.71c-0.13-1.37-0.86-1.42-1.87-1.3c-1.33,0.15-2.66,0.27-4.03,0.18c1.52-1.4,3.57-0.8,5.28-1.43
	c-0.07-1.22-0.14-2.45-0.21-3.67c0.16-0.03,0.31-0.07,0.47-0.1c0.15,0.6,0.39,1.2,0.43,1.8c0.11,1.58,0.75,2.33,2.46,2.12
	c1.18-0.14,2.39-0.01,3.59,0.04c0.33,0.02,0.66,0.19,0.99,0.3C461.48,375.06,461.46,375.25,461.45,375.44z"/>
<path class="st0" d="M259.67,262.89c0-0.78,0-1.42,0-2.07c0-0.55,0-1.11,0-1.66c0.14,0,0.29,0,0.44,0c0,1.19,0,2.39,0,3.63
	c2.38,0.21,4.59,0.4,6.8,0.6c-0.01,0.2-0.02,0.4-0.03,0.59c-2.16,0.1-4.32,0.2-6.65,0.31c0,1.87,0,3.69,0,5.51
	c-0.13,0-0.26,0.01-0.39,0.01c0-1.78,0-3.57,0-5.42c-2.69-0.47-5.43,0.34-7.67-1.5C254.6,262.89,257.03,262.89,259.67,262.89z"/>
<path class="st0" d="M477.69,335.49c0.27,0.9,0.27,1.49,0.57,1.8c0.62,0.66,1.32,1.41,2.12,1.65c0.48,0.15,1.75-0.58,1.75-0.94
	c0.02-0.85-0.26-1.96-0.84-2.53c-1.72-1.7-3.55-1.36-4.82,0.68c-0.14-0.08-0.28-0.16-0.42-0.25c0.41-0.69,0.67-1.59,1.26-2.03
	c1.24-0.94,2.66-0.76,3.97,0.03c1.42,0.86,2.65,1.99,2.18,3.79c-0.24,0.9-1.04,1.93-1.87,2.33c-1.2,0.58-2.6,0.3-3.56-0.82
	C477.25,338.26,476.89,337.19,477.69,335.49z"/>
<path class="st0" d="M604.69,273.43c1.94,0,3.48,0,5.02,0c0.05,0.12,0.1,0.25,0.15,0.37c-0.39,0.23-0.76,0.61-1.18,0.66
	c-1.35,0.17-2.71,0.31-4.06,0.28c-1.44-0.03-1.82-0.9-0.92-2.04c1.01-1.28,2.16-2.45,3.23-3.68c0.42-0.49,0.78-1.02,1.48-1.95
	c-1.7,0.45-2.92,0.78-4.15,1.11c-0.06-0.2-0.11-0.4-0.17-0.6c1.39-0.39,2.77-0.95,4.19-1.11c1.02-0.12,1.06,0.83,0.63,1.5
	c-0.82,1.27-1.76,2.48-2.68,3.69C605.85,272.17,605.39,272.64,604.69,273.43z"/>
<path class="st0" d="M293.41,218.76c-6.55,1.52-12.97-0.56-19.47-0.66C280.46,217.14,286.91,218.59,293.41,218.76z"/>
<path class="st0" d="M519.26,274.38c1.56,0.26,2.77,0.46,3.99,0.66c0,0.15,0,0.31,0,0.47c-1.28,0.07-2.57,0.3-3.83,0.18
	c-1.32-0.12-1.7-1.34-0.78-2.43c1.09-1.29,2.36-2.42,3.51-3.66c0.58-0.61,1.07-1.3,1.61-1.96c-0.06-0.14-0.13-0.29-0.19-0.43
	c-1.46,0-2.92,0-4.38,0c1.38-1.08,2.91-1.34,4.42-0.86c1.21,0.38,1.3,1.45,0.61,2.39c-0.87,1.18-1.9,2.24-2.87,3.35
	C520.76,272.77,520.12,273.44,519.26,274.38z"/>
<path class="st0" d="M200.21,377.93c-5.81-0.38-11.2-0.74-16.58-1.1c-0.04-0.13-0.09-0.26-0.13-0.4c0.35-0.19,0.72-0.56,1.06-0.54
	c4.71,0.28,9.42,0.61,14.12,0.95c0.31,0.02,0.62,0.19,0.91,0.33C199.7,377.24,199.77,377.4,200.21,377.93z"/>
<path class="st0" d="M439.78,319.56c2.05,0.57,4.25-0.47,5.96,0.96c-0.01,0.17-0.02,0.35-0.03,0.52c-1.86,0-3.72,0.07-5.57-0.04
	c-0.62-0.04-1.45-0.39-1.74-0.87c-0.2-0.33,0.27-1.19,0.62-1.69c0.88-1.25,1.86-2.43,2.8-3.63c-0.11-0.17-0.21-0.34-0.32-0.51
	c-0.92,0.05-1.83,0.1-2.8,0.16c0.67-0.98,2.54-1.47,3.38-0.83c1.09,0.83,0.58,1.86,0.07,2.77c-0.32,0.57-0.79,1.03-1.19,1.56
	C440.57,318.46,440.2,318.97,439.78,319.56z"/>
<path class="st0" d="M319.8,306.93c0.5-0.18,1.01-0.52,1.5-0.51c3.63,0.13,7.26,0.29,10.88,0.53c0.78,0.05,1.62,0.36,2.27,0.79
	c0.41,0.27,0.51,1,0.7,1.41c-1.67-0.45-3.08-1.04-4.54-1.17c-3.08-0.27-6.18-0.28-9.27-0.41c-0.49-0.02-0.99-0.1-1.48-0.14
	C319.84,307.26,319.82,307.09,319.8,306.93z"/>
<path class="st0" d="M391.89,260.69c-5.94-0.32-11.5-0.63-17.02-0.94C376.52,258.18,389.74,258.66,391.89,260.69z"/>
<path class="st0" d="M466.45,308.49c0.49-0.19,0.97-0.53,1.48-0.56c8.55-0.5,13.14,0.23,14.2,1.9c-4.99-0.33-10.2-0.67-15.41-1.01
	C466.64,308.71,466.54,308.6,466.45,308.49z"/>
<path class="st0" d="M179.03,259.16c-2.95,0.12-3.52-0.62-2.51-3.2c0.59-1.52,1.4-2.96,2.01-4.47c0.42-1.03,0.65-2.14,1.02-3.44
	c-2.11,0.26-2.78,1.74-3.65,3.12c-0.24-1.81,1.85-4.17,3.43-3.95c0.38,0.05,0.98,0.79,0.94,1.16c-0.13,1.23-0.41,2.46-0.8,3.64
	c-0.41,1.24-0.99,2.42-1.53,3.61C177.26,257.1,176.84,258.47,179.03,259.16z"/>
<path class="st0" d="M184.36,323.67c0.35,0.49,0.69,0.99,1.06,1.51c0.5-0.38,1.06-0.81,1.67-1.28c0.14,0.3,0.24,0.45,0.21,0.48
	c-1.82,1.78-1.05,3.57-0.08,5.39c0.42,0.79,0.73,1.64,1.12,2.53c-1.29,0.12-1.29,0.12-2.02-1.57c-0.38-0.89-0.78-1.77-1.23-2.82
	c-0.68,1.2-1.26,2.21-1.88,3.31c-0.75-1.13-0.55-1.78,1.18-4.42c-0.28-0.89-0.55-1.73-0.82-2.58
	C183.84,324.04,184.1,323.85,184.36,323.67z"/>
<path class="st0" d="M566.95,264.56c-1.69,0-3.29,0-4.9,0c-0.03-0.2-0.07-0.41-0.1-0.61c0.72-0.13,1.45-0.29,2.18-0.37
	c0.86-0.1,1.72-0.12,2.81-0.19c0-1.19,0-2.31,0-3.44c0.17-0.01,0.33-0.03,0.5-0.04c0.2,1.12,0.4,2.24,0.64,3.56
	c1.35,0,2.75-0.04,4.15,0.03c0.32,0.02,0.61,0.39,0.91,0.6c-0.29,0.17-0.58,0.49-0.88,0.5c-1.3,0.06-2.6,0.02-3.88,0.02
	c-0.19,1.37-0.36,2.61-0.52,3.85c-0.16,0-0.31-0.01-0.47-0.01C567.23,267.21,567.1,265.97,566.95,264.56z"/>
<path class="st0" d="M650.94,375.93c0.43-0.18,0.86-0.51,1.28-0.51c4.89,0.1,9.78,0.24,14.67,0.4c0.37,0.01,0.74,0.25,1.11,0.38
	c-0.02,0.14-0.05,0.27-0.07,0.41c-5.61,0-11.23,0-16.85,0C651.03,376.39,650.98,376.16,650.94,375.93z"/>
<path class="st0" d="M529.03,296.53c-0.05,0.94-0.13,1.88-0.14,2.83c-0.04,2.07-0.02,4.13-0.07,6.2c-0.01,0.32-0.23,0.63-0.36,0.94
	c-0.28-0.25-0.78-0.48-0.81-0.77c-0.19-1.45-0.26-2.91-0.37-4.5c-1.16,1.23-2.25,2.39-3.34,3.54c-0.05-0.07-0.11-0.13-0.16-0.2
	c1.63-2.7,3.26-5.41,4.9-8.11C528.78,296.49,528.91,296.51,529.03,296.53z"/>
<path class="st0" d="M398.6,376.2c-5.36,0.31-10.33,0.6-15.67,0.91C384.63,375.32,396.62,374.65,398.6,376.2z"/>
<path class="st0" d="M322.41,384.09c-1.3,0.08-2.25,0.13-3.2,0.19c-0.03-0.23-0.07-0.45-0.1-0.68c1.15-0.25,2.3-0.69,3.45-0.69
	c0.98,0,1.15,0.98,0.79,1.75c-0.47,1.03-1.12,1.98-1.71,2.96c-0.33,0.54-0.69,1.05-1.18,1.79c1.46,0.17,2.63,0.3,4.04,0.47
	c-1.31,1.15-4.19,1.35-4.86,0.37c-0.32-0.47-0.17-1.54,0.15-2.14C320.48,386.78,321.41,385.58,322.41,384.09z"/>
<path class="st0" d="M551.88,310.7c1.51-1.59,13.78-0.99,16.64,0.91c-0.98,0.1-1.6,0.26-2.22,0.22c-4.6-0.3-9.21-0.64-13.8-0.97
	C552.35,310.86,552.19,310.79,551.88,310.7z"/>
<path class="st0" d="M310.22,332.41c0.02-2,1.05-3.12,2.81-3.04c1.66,0.07,3.05,1.58,3.01,3.28c-0.05,1.75-1.47,3.21-3.11,3.16
	C311.21,335.75,310.2,334.48,310.22,332.41z M310.95,330.98c0.13,0.75,0.18,1.46,0.38,2.13c0.32,1.11,1.13,1.7,2.23,1.25
	c1.09-0.45,1.48-1.42,0.99-2.57C314.03,330.56,312.64,330.23,310.95,330.98z"/>
<path class="st0" d="M281.87,369.75c-0.27,0.24-0.39,0.42-0.51,0.43c-0.98,0.02-1.96,0.01-2.94,0.01c0.19-0.94,0.24-1.96,0.61-2.82
	c0.7-1.61,1.6-3.14,2.41-4.7c-0.14-0.15-0.28-0.3-0.42-0.45c-0.99,0.5-1.97,1.01-2.98,1.52c0.23-1.49,2.57-2.97,3.69-2.24
	c0.41,0.27,0.71,1.28,0.55,1.77c-0.5,1.48-1.24,2.88-1.91,4.31c-0.25,0.53-0.56,1.04-0.87,1.63
	C280.32,369.4,281.02,369.56,281.87,369.75z"/>
<path class="st0" d="M173.81,218.32c-0.88-0.19-2-0.13-2.57-0.66c-0.41-0.38-0.27-1.61-0.04-2.35c0.85-2.67,1.84-5.29,2.78-7.94
	c-0.21-0.11-0.42-0.22-0.63-0.32c-0.7,1.04-1.4,2.09-2.19,3.26c-0.09-1.62,0.57-2.75,1.66-3.63c0.34-0.28,0.95-0.56,1.26-0.43
	c0.29,0.12,0.55,0.82,0.49,1.21c-0.25,1.5-0.61,2.98-0.99,4.45c-0.19,0.74-0.48,1.44-0.74,2.16
	C171.96,216.56,171.96,216.56,173.81,218.32z"/>
<path class="st0" d="M177.77,264.73c0.9-1.8,11.99-1.41,14.05,0.61C187.09,265.13,182.47,264.94,177.77,264.73z"/>
<path class="st0" d="M497.05,364.27c-1.4,0.74-2.33,1.24-3.25,1.74c0.56-1.47,1.76-2.06,3.12-2.21c0.25-0.03,0.93,1.02,0.86,1.48
	c-0.18,1.11-0.7,2.17-1.07,3.25c-0.3,0.86-0.6,1.72-0.92,2.63c1.36,0.2,2.55,0.37,3.73,0.54c-0.01,0.15-0.01,0.3-0.02,0.46
	c-1.09,0.14-2.18,0.37-3.28,0.41c-1.59,0.07-2.08-0.6-1.54-2.14c0.49-1.38,1.15-2.71,1.7-4.08
	C496.6,365.84,496.73,365.29,497.05,364.27z"/>
<path class="st0" d="M338.16,312.24c-5.29-0.45-10.58-0.91-15.87-1.36c0.01-0.21,0.03-0.42,0.04-0.63
	c5.34-0.41,10.62,0.13,15.85,1.26C338.17,311.76,338.16,312,338.16,312.24z"/>
<path class="st0" d="M540.59,387.78c1.8,0,3.33,0,5.27,0c-0.5,0.43-0.75,0.82-1.04,0.86c-1.28,0.18-2.58,0.37-3.87,0.36
	c-1.61-0.01-2.02-0.83-1.21-2.23c0.41-0.71,0.94-1.34,1.36-2.04c0.28-0.49,0.46-1.04,0.68-1.57c-0.09-0.14-0.19-0.29-0.28-0.43
	c-1.23,0.37-2.47,0.75-4.11,1.25c0.49-0.6,0.71-1.1,1.07-1.27c0.73-0.33,1.53-0.58,2.32-0.67c1.77-0.19,2.4,0.69,1.75,2.38
	c-0.21,0.55-0.55,1.06-0.86,1.57C541.39,386.51,541.07,387.01,540.59,387.78z"/>
<path class="st0" d="M203.01,329.08c0.63,1,1.07,2.1,1.86,2.8c0.43,0.37,1.46,0.05,2.21,0.04c-0.09-0.66,0-1.42-0.3-1.97
	c-0.93-1.72-2.78-2.3-4.65-1.6c0.01-1.04,0.51-1.54,1.58-1.55c2.07-0.02,4.43,2.03,4.66,4.1c0.14,1.28-0.42,2.12-1.72,2.34
	c-1.5,0.26-2.66-0.32-3.47-1.58C202.63,330.78,202.3,329.88,203.01,329.08z"/>
<path class="st0" d="M237.43,290.53c-0.97,0.2-1.66,0.34-2.35,0.48c-0.04-0.13-0.08-0.26-0.12-0.38c0.72-0.25,1.43-0.66,2.16-0.71
	c0.94-0.07,1.24,0.64,0.93,1.45c-0.52,1.37-1.14,2.7-1.73,4.04c-0.11,0.25-0.25,0.49-0.37,0.73c-1.82,3.49-1.82,3.51,1.93,4.62
	c0.25,0.07,0.47,0.22,0.83,0.4c-0.29,0.13-0.42,0.23-0.55,0.24c-1.52,0.13-3.23,0.48-4.25-0.93c-1.02-1.42,0.04-2.81,0.7-4.1
	c0.69-1.36,1.51-2.65,2.22-4C237.08,291.87,237.18,291.3,237.43,290.53z"/>
<path class="st0" d="M455.18,339.94c0.19-1.07,0.14-2.27,0.63-3.17c0.95-1.73,0.71-3.16-0.38-4.64c-0.23-0.32-0.31-0.74-0.46-1.11
	c0.13-0.08,0.26-0.16,0.39-0.24c0.64,0.85,1.27,1.71,2.12,2.85c0.22-0.51,0.41-0.94,0.59-1.37c0.73,1.28-0.67,2.36,0.51,3.45
	c0.81,0.75,1.26,1.88,1.87,2.84c-1,0.75-1.04,0.75-1.8-0.55c-0.41-0.7-0.79-1.4-1.38-2.45c-0.52,1.75-0.95,3.15-1.37,4.56
	C455.66,340.06,455.42,340,455.18,339.94z"/>
<path class="st0" d="M391.9,263.92c-4.81-0.4-9.62-0.79-14.73-1.21C379.39,261.39,390.82,262.14,391.9,263.92z"/>
<path class="st0" d="M588.43,320.09c-1.54,1.36-3.25,1.4-4.98,0.72c-1.18-0.47-1.02-1.42-0.45-2.29c0.67-1.04,1.41-2.04,2.34-3.37
	c-1.23,0.11-2.13,0.18-3.11,0.27c0.7-1.06,2.84-1.74,3.53-1.05c0.34,0.34,0.32,1.25,0.17,1.83c-0.15,0.6-0.64,1.12-0.99,1.68
	c-0.34,0.55-0.67,1.09-1.19,1.93C585.49,319.9,586.96,320,588.43,320.09z"/>
<path class="st0" d="M227.19,384.81c0.29-0.13,0.58-0.37,0.87-0.38c3.87-0.1,7.74-0.19,11.6-0.24c0.29,0,0.58,0.32,0.87,0.5
	c-0.3,0.24-0.59,0.68-0.89,0.69c-4.13,0.05-8.26,0.03-12.39,0.03C227.24,385.21,227.22,385.02,227.19,384.81z"/>
<path class="st0" d="M291.89,334.11c0.34-1.29,1.01-2.6,0.94-3.87c-0.08-1.27-0.89-2.5-1.38-3.75c0.15-0.1,0.3-0.2,0.45-0.3
	c0.62,0.95,1.25,1.9,1.87,2.85c0.29-0.25,0.63-0.52,0.96-0.8c-1.25,2.53,0.65,4.4,1.18,6.51c0.13,0.53,0.28,1.06,0.43,1.59
	c-0.22,0.1-0.43,0.19-0.65,0.29c-0.72-1.42-1.43-2.83-2.21-4.38c-0.4,0.72-0.76,1.38-1.12,2.04
	C292.2,334.22,292.04,334.17,291.89,334.11z"/>
<path class="st0" d="M554.26,313.23c5.22-0.35,10.32,0.48,15.41,1.45C564.42,315.4,559.36,314.11,554.26,313.23z"/>
<path class="st0" d="M450.88,384.83c0.65-0.16,1.31-0.43,1.97-0.46c3.03-0.12,6.08-0.2,9.11-0.25c0.47-0.01,0.99,0.12,1.41,0.33
	c0.27,0.14,0.41,0.55,0.6,0.84c-0.31,0.12-0.63,0.35-0.94,0.35c-3.52-0.06-7.04-0.16-10.55-0.24c-0.51-0.01-1.02,0-1.53,0
	C450.93,385.21,450.91,385.02,450.88,384.83z"/>
<path class="st0" d="M612.26,379.55c2.47-1.59,12.29-1.06,14.58,0.79C621.83,380.07,617.25,379.82,612.26,379.55z"/>
<path class="st0" d="M385.12,378.82c4.97-0.64,9.86,0.24,14.77,0.75c-0.01,0.23-0.02,0.46-0.03,0.68
	c-4.92-0.23-9.85-0.46-14.77-0.68C385.09,379.33,385.1,379.07,385.12,378.82z"/>
<path class="st0" d="M317.37,219.14c-5.17,0-9.94,0-14.63,0C303.63,217.43,314.19,217.12,317.37,219.14z"/>
<path class="st0" d="M547.57,295.26c1.05-0.31,2.09-0.7,3.17-0.91c1.12-0.22,1.38,0.47,1.01,1.37c-0.33,0.8-0.81,1.54-1.23,2.31
	c-0.21,0.38-0.44,0.75-0.64,1.14c-1.79,3.34-1.52,3.96,2.09,4.61c-1.27,0.76-3.16,0.88-3.75-0.13c-0.47-0.81-0.52-2.23-0.14-3.11
	c0.81-1.88,2.01-3.59,3.26-5.72c-1.41,0.36-2.51,0.64-3.6,0.92C547.67,295.58,547.62,295.42,547.57,295.26z"/>
<path class="st0" d="M431.35,364.57c4.33-0.36,8.68-1.33,13.04-0.09C440.06,365.13,435.71,364.83,431.35,364.57z"/>
<path class="st0" d="M586.09,295.84c-4.67-0.72-9.35-1.43-14.26-2.19C574.65,292.31,584.32,293.92,586.09,295.84z"/>
<path class="st0" d="M283.42,379.71c1.55-0.08,3.1-0.19,4.65-0.22c1.79-0.03,3.58-0.04,5.37,0.07c0.54,0.03,1.05,0.48,1.47,1.02
	c-3.9,0.1-7.71,0.35-11.5,0.04C283.41,380.32,283.41,380.02,283.42,379.71z"/>
<path class="st0" d="M359.78,311.45c4.62-0.21,9.26-0.78,13.82,0.61c-0.01,0.18-0.01,0.36-0.02,0.54
	c-4.61-0.17-9.22-0.35-13.83-0.52C359.76,311.87,359.77,311.66,359.78,311.45z"/>
<path class="st0" d="M415.7,366.44c-4.76,0-9.51,0-14.27,0c0-0.19,0-0.38,0.01-0.57C406.2,365.51,410.97,365.22,415.7,366.44z"/>
<path class="st0" d="M371.33,308.38c-2-0.12-3.99-0.36-5.99-0.33c-1.98,0.02-3.96,0.31-6,0.26c1.47-1.64,3.61-1.46,5.45-1.45
	C367.04,306.89,369.63,306.12,371.33,308.38z"/>
<path class="st0" d="M489.82,264.12c-4.81,0-9.62,0-14.71,0C476.64,263.12,487.91,262.96,489.82,264.12z"/>
<path class="st0" d="M353.49,309.94c-4.56-0.19-9.12-0.38-13.68-0.57c0.01-0.23,0.02-0.45,0.04-0.68c4.58-0.1,9.19-0.81,13.71,0.64
	C353.52,309.54,353.5,309.74,353.49,309.94z"/>
<path class="st0" d="M547.12,265.57c-4.56,0-9.43,0-14.3,0C534.48,264.27,545.64,264.68,547.12,265.57z"/>
<path class="st0" d="M205.96,311.33c4.86,0.6,9.71,1.2,14.82,1.83c-1.69,0.92-12.76-0.17-14.88-1.29
	C205.93,311.68,205.94,311.51,205.96,311.33z"/>
<path class="st0" d="M528.56,365.3c2.96-0.98,11.41-0.41,12.83,0.6c-4.03,0-8.46,0-12.9,0C528.51,365.7,528.54,365.5,528.56,365.3z"
	/>
<path class="st0" d="M523.89,308.17c0.94-0.14,1.87-0.29,2.81-0.42c2.59-0.37,5.17-0.76,7.76-1.06c0.43-0.05,0.92,0.3,1.38,0.47
	c-0.44,0.26-0.86,0.7-1.33,0.75c-2.81,0.34-5.63,0.6-8.44,0.86c-0.71,0.06-1.43,0.01-2.15,0.01
	C523.91,308.57,523.9,308.37,523.89,308.17z"/>
<path class="st0" d="M198.8,380.34c-4.52,0.64-9.03,0.55-13.55,0.31c0-0.25,0-0.51,0-0.76c4.51,0,9.03,0,13.54,0
	C198.8,380.05,198.8,380.19,198.8,380.34z"/>
<path class="st0" d="M457.42,264.15c4.76,0.23,9.52,0.45,14.28,0.68c-4.81,1.35-9.55,0.45-14.32,0.04
	C457.4,264.63,457.41,264.39,457.42,264.15z"/>
<path class="st0" d="M468.86,310.93c4.99,0.35,10.07-0.27,14.87,1.89c-4.98-0.43-9.97-0.86-14.95-1.29
	C468.8,311.34,468.83,311.13,468.86,310.93z"/>
<path class="st0" d="M448.14,275.4c-0.17-2.08-0.34-4.17-0.52-6.44c-0.54,0.62-1.02,1.17-1.5,1.71c-0.16-0.13-0.33-0.27-0.49-0.4
	c0.75-1.06,1.47-2.14,2.28-3.16c0.09-0.11,0.97,0.15,0.97,0.25c0.06,2.67,0.05,5.33,0.05,8
	C448.67,275.38,448.41,275.39,448.14,275.4z"/>
<path class="st0" d="M444.22,391.27c0-2.26,0-4.09,0-6.09c-0.88,0.73-1.6,1.32-2.32,1.91c-0.05-0.1-0.1-0.19-0.15-0.29
	c0.68-1.24,1.34-2.5,2.06-3.73c0.16-0.28,0.5-0.48,0.81-0.61c0.08-0.04,0.48,0.33,0.48,0.51c-0.02,2.48-0.07,4.96-0.15,7.44
	C444.94,390.58,444.69,390.74,444.22,391.27z"/>
<path class="st0" d="M502.75,379.17c3.98-0.95,8-0.73,12.01-0.95c0.01,0.27,0.02,0.53,0.03,0.8
	C510.82,380.02,506.78,379.47,502.75,379.17z"/>
<path class="st0" d="M205.91,362.8c4.1-1.55,8.31-0.98,12.52-0.58c0.01,0.15,0.02,0.3,0.03,0.46c-4.17,0.21-8.33,0.42-12.5,0.63
	C205.94,363.14,205.93,362.97,205.91,362.8z"/>
<path class="st0" d="M503.3,312.03c2.63-1.33,11.19-0.87,13.33,0.8C512.07,312.56,507.8,312.3,503.3,312.03z"/>
<path class="st0" d="M377.15,296.63c1.91-1.39,10.79-1.21,12.27,0C385.28,296.63,381.22,296.63,377.15,296.63z"/>
<path class="st0" d="M262.44,365.36c0.32-0.35,0.42-0.57,0.53-0.57c3.09-0.1,6.18-0.22,9.26-0.23c0.34,0,0.68,0.62,1.01,0.95
	c-0.4,0.11-0.81,0.31-1.2,0.31c-2.6-0.04-5.2-0.12-7.8-0.21C263.71,365.59,263.17,365.46,262.44,365.36z"/>
<path class="st0" d="M415.81,391.59c0-1.72,0-3.44,0-5.16c-0.08-0.12-0.16-0.23-0.24-0.35c-0.63,0.98-1.26,1.96-1.9,2.94
	c-0.27-0.26-0.55-0.52-0.82-0.78c1.1-1.29,2.2-2.58,3.35-3.83c0.07-0.08,0.82,0.21,0.85,0.4c0.37,2.37,0.01,4.66-0.67,6.89
	C416.18,391.66,416,391.63,415.81,391.59z"/>
<path class="st0" d="M597.26,264.39c-3.76,0-7.51,0-11.27,0c0-0.23,0-0.47,0.01-0.7C589.76,263.13,593.52,263.29,597.26,264.39z"/>
<path class="st0" d="M469.9,262.8c-4.97-0.31-9.93-0.62-14.89-0.93C457.06,260.82,467.88,261.5,469.9,262.8z"/>
<path class="st0" d="M186.9,223.1c-4.24,0-8.47,0-12.76,0c0.12-0.1,0.38-0.48,0.65-0.49c3.95-0.12,7.9-0.19,11.85-0.27
	c0.07,0,0.15,0.13,0.23,0.2C186.88,222.73,186.89,222.91,186.9,223.1z"/>
<path class="st0" d="M389.52,321.57c-1.75-1.18-0.68-3.11-1.39-4.43c-0.58,0.25-1.16,0.5-2.06,0.88c0.88-1.42,1.51-2.47,2.19-3.49
	c0.16-0.24,0.5-0.49,0.74-0.48c0.18,0.01,0.5,0.42,0.5,0.66C389.54,316.91,389.52,319.12,389.52,321.57z"/>
<path class="st0" d="M547.31,263.66c-5.04-0.4-9.68-0.77-14.51-1.16C534.58,261.4,544.47,262.16,547.31,263.66z"/>
<path class="st0" d="M321.35,366.7c-3.95-0.29-7.82-0.58-11.75-0.88C311.74,364.31,318.55,364.82,321.35,366.7z"/>
<path class="st0" d="M215.31,386.1c0.9-1.54,1.81-3.09,2.76-4.72c1.16,1.23,1.22,5.33,0.13,7.19c-0.14-0.94-0.25-1.59-0.34-2.24
	c-0.09-0.68-0.17-1.36-0.3-2.38c-0.71,0.99-1.24,1.73-1.77,2.46C215.64,386.31,215.47,386.2,215.31,386.1z"/>
<path class="st0" d="M318.09,221.83c-4.48,0-8.96,0-13.72,0C305.99,220.81,315.67,220.81,318.09,221.83z"/>
<path class="st0" d="M273.21,391.31c-0.16-1.91-0.29-3.43-0.42-5.03c-0.84,0.66-1.63,1.27-2.42,1.88c-0.09-0.12-0.18-0.24-0.27-0.36
	c1.04-1.25,2.07-2.49,3.14-3.78C274.33,385.5,274.39,389.34,273.21,391.31z"/>
<path class="st0" d="M278.75,314.13c-0.58,0.52-1.07,0.98-1.57,1.43c-0.14-0.11-0.27-0.22-0.41-0.33c0.79-1.14,1.57-2.29,2.65-3.85
	c1.27,2.7,0.55,5.01,0.54,7.27C278.64,317.45,279.22,315.74,278.75,314.13z"/>
<path class="st0" d="M492.67,387.46c-0.29-1.3-0.58-2.6-0.89-4.03c-0.56,0.62-1.09,1.2-1.61,1.78c-0.15-0.13-0.29-0.25-0.44-0.38
	c0.84-1.24,1.67-2.48,2.51-3.72c0.24,0.04,0.47,0.08,0.71,0.12c0.16,2.04,0.33,4.07,0.49,6.1
	C493.18,387.38,492.92,387.42,492.67,387.46z"/>
<path class="st0" d="M199.88,329.68c-3.42-0.35-6.4-0.66-9.37-0.97C191.39,327.34,197.78,327.76,199.88,329.68z"/>
<path class="st0" d="M464.14,336.3c1.77-1.39,7.27-0.83,9.27,0.99C470.21,336.95,467.24,336.63,464.14,336.3z"/>
<path class="st0" d="M297.88,330.48c2.99-0.24,5.98-0.48,9.26-0.74C305.8,331.16,299.17,331.81,297.88,330.48z"/>
<path class="st0" d="M299.21,332.71c1.56-1.13,8.01-1.1,9.59,0C305.53,332.71,302.52,332.71,299.21,332.71z"/>
<path class="st0" d="M422.04,277.9c-0.26-4.86-0.26-4.86-2.39-4.78c-0.07-0.13-0.14-0.26-0.21-0.39c0.52-0.24,1.05-0.72,1.54-0.69
	c1.69,0.11,2.2,1.45,2.41,2.84C423.55,276.05,423.42,277.22,422.04,277.9z"/>
<path class="st0" d="M200.09,331.84c-2.76-0.29-5.51-0.58-8.27-0.86c0.02-0.18,0.03-0.35,0.05-0.53c2.82-0.43,5.55,0.11,8.27,0.85
	C200.12,331.47,200.1,331.65,200.09,331.84z"/>
<path class="st0" d="M251.48,324.29c2.7-1.66,0.91-3.8,0.57-5.79c1.51,0.52,2.45,3.43,1.7,5.09
	C253.27,324.68,252.51,325.01,251.48,324.29z"/>
<path class="st0" d="M473.85,334.4c-3.57,0-7.13,0-10.69,0c0-0.11-0.01-0.22-0.01-0.33c3.57,0,7.13,0,10.69,0
	C473.84,334.18,473.85,334.29,473.85,334.4z"/>
<path class="st0" d="M481.81,367.5c2.55,0,5.1,0,7.64,0c-0.01,0.18-0.01,0.36-0.02,0.54C486.86,368.56,484.3,368.45,481.81,367.5z"
	/>
</svg>
