<?xml version="1.0" encoding="utf-8"?>
<!-- Generator: Adobe Illustrator 24.1.1, SVG Export Plug-In . SVG Version: 6.00 Build 0)  -->
<svg version="1.1" id="Слой_1" xmlns="http://www.w3.org/2000/svg" xmlns:xlink="http://www.w3.org/1999/xlink" x="0px" y="0px"
	 viewBox="0 0 841.89 595.28" style="enable-background:new 0 0 841.89 595.28;" xml:space="preserve">
<style type="text/css">
	.st0{fill:#1F264A;}
</style>
<g>
	<path class="st0" d="M181.93,194.47c0,1.01,0,2.01,0,2.76c9.78-0.37,19.5-0.74,29.26-1.12c-0.1-0.39-0.18-0.7-0.26-1.01
		c0.08-0.09,0.16-0.17,0.24-0.26c0.87,0.54,1.8,1,2.58,1.65c0.67,0.56,0.47,1.26-0.22,1.73c-1.18,0.8-2.38,1.56-4.4,1.14
		c0.99-0.7,1.71-1.2,2.52-1.78c-9.94,0.27-19.79,0.54-29.76,0.81c0,5.41,0,10.72,0,16.05c0.32,0.07,0.49,0.15,0.67,0.15
		c4.79,0.09,9.57,0.15,14.36,0.26c1.74,0.04,3.48,0.18,5.22,0.28l0.02,0.06l-0.01-0.04c-0.12-0.25-0.24-0.51-0.36-0.76
		c0.09-0.09,0.18-0.17,0.27-0.26c1.24,0.89,2.47,1.77,3.79,2.72c2.19-4.63,4.45-9.5,6.78-14.32c1.31-2.72,2.75-5.38,4.13-8.07
		c0.46,0,0.92,0,1.38,0c-1.3,2.64-2.61,5.27-3.89,7.92c-7.52,15.57-14.96,31.19-22.57,46.71c-3.15,6.41-6.65,12.65-9.99,18.97
		c-0.08,0.15-0.14,0.32-0.22,0.51c8.9,0.44,17.75,1.02,26.6,1.28c8.81,0.26,17.63,0.2,26.45,0.27c0.07,0.16,0.13,0.33,0.2,0.49
		c-0.37,0.23-0.72,0.62-1.12,0.68c-0.81,0.12-1.65,0.07-2.48,0.07c-8.29-0.04-16.58,0.03-24.87-0.16
		c-7.14-0.17-14.26-0.65-21.39-0.97c-1.19-0.06-2.38-0.01-3.72-0.01c-0.06,0.57-0.14,1.05-0.14,1.53c0.02,4.14,0.06,8.29,0.07,12.43
		c0,0.57-0.16,1.14-0.25,1.71c-0.22,0-0.44,0-0.66,0.01c-0.14-1.05-0.27-2.1-0.4-3.13c-1.77,0-3.5,0-5.23,0
		c-0.04,0.12-0.08,0.23-0.12,0.35c0.54,0.3,1.08,0.6,1.82,1.02c-0.15,0.36-0.23,0.94-0.55,1.13c-0.26,0.15-0.84-0.1-1.2-0.31
		c-0.71-0.41-1.36-0.92-2.07-1.41c-1.24,2.42-2.44,4.74-3.63,7.07c-0.38,0.74-0.78,1.39-1.78,1.07c0-0.28,0-0.55,0-0.83
		c1.53-3.08,3-6.2,4.61-9.24c1.82-3.45,3.77-6.84,5.66-10.25c0.19-0.34,0.39-0.68,0.67-1.17c-1.98,0-3.77,0.01-5.56,0
		c-1.79-0.01-3.59-0.03-5.39-0.05c0-0.46,0-0.92,0-1.38c3.69,0.01,7.37,0.01,11.05,0.04c1.06,0.01,1.7-0.22,1.73-1.52
		c0.28-11.36,0.74-22.72,0.92-34.08c0.14-8.78-0.06-17.56-0.05-26.34c0-4.14,0.11-8.28,0.17-12.42
		C181.19,194.47,181.56,194.47,181.93,194.47z M189.65,249.45l0.04,0.03l-0.06-0.03c-0.09-0.09-0.19-0.19-0.28-0.28
		c-0.6-0.33-1.2-0.65-1.8-0.98c0.04-0.18,0.07-0.36,0.11-0.54c0.95,0.13,1.9,0.26,2.93,0.4c0,0,0.11-0.09,0.17-0.21
		c2.53-5.05,5.05-10.11,7.57-15.16c0.1-0.19,0.1-0.44,0.14-0.66l0.02,0.01c-1.87,0.46-3.74,0.91-5.6,1.37
		c-0.06-0.09-0.12-0.19-0.19-0.28c0.34-0.47,0.69-0.94,1.16-1.59c-4.01-0.18-7.89-0.35-11.93-0.54c-0.18,6.15-0.36,12.18-0.54,18.15
		c2.78,0,5.38,0,7.98,0C189.47,249.26,189.56,249.36,189.65,249.45z M182.06,215.43c0,4.88,0,9.62,0,14.6c4.19,0,8.35,0,12.25,0
		c-0.09-0.12-0.37-0.51-0.61-0.93c-0.01-0.02,0.37-0.36,0.6-0.41c1.63-0.3,4.08,1.14,4.54,2.91c2.03-4.43,3.95-8.64,5.91-12.93
		c-1.31,0.4-1.94,1.94-3.35,1.79c-0.1-0.15-0.2-0.29-0.3-0.44c1.08-0.97,2.16-1.94,3.25-2.91c-0.02-0.13-0.04-0.26-0.06-0.38
		C196.94,216.3,189.57,215.87,182.06,215.43z M181.25,250.75c0,5.24,0,10.47,0,16.09c2.42-4.91,4.7-9.52,7.09-14.37
		c-0.58,0.16-0.88,0.31-1.17,0.3c-0.37-0.01-0.73-0.14-1.1-0.22c0.2-0.31,0.34-0.7,0.61-0.92c0.36-0.3,0.83-0.47,1.6-0.89
		C185.74,250.75,183.6,250.75,181.25,250.75z M173.11,281.24c0.11,0.06,0.22,0.13,0.33,0.19c0.96-0.46,1.92-0.93,3.08-1.49
		c0,0.64,0,0.96,0,1.33c1.13-0.05,2.16-0.1,3.19-0.15c0-3.53,0-6.92,0-10.32c-0.15-0.06-0.3-0.12-0.45-0.17
		C177.21,274.18,175.16,277.71,173.11,281.24z"/>
	<path class="st0" d="M291.85,311.78c-3.06,2.81-5.55,5.98-7.87,9.32c-5.8,8.33-10.04,17.39-13.64,26.87
		c-2.88,7.59-4.69,15.39-6,23.32c-0.53,3.21-0.09,6.57-0.09,9.93c-1.21,0.16-1.22-0.7-1.23-1.28c-0.06-2.44-0.28-4.9,0-7.31
		c0.94-8.24,2.46-16.36,5.68-24.08c2.21-5.3,4.03-10.81,6.69-15.88c4.09-7.77,8.62-15.34,15.05-21.52c0.13-0.13,0.22-0.28,0.36-0.45
		c-0.65-0.44-1.27-0.85-2.01-1.35c1.36-0.75,1.51-0.73,3.23,0.33c0.42-0.34,0.87-0.71,1.38-1.13c-0.12-0.35-0.23-0.67-0.34-0.98
		c0.13-0.08,0.22-0.18,0.28-0.17c1.25,0.21,2.17-0.42,3.08-1.15c1.25-1.01,2.54-1.98,3.81-2.97c0.1-0.08,0.14-0.22,0.35-0.58
		c-0.61-0.1-1.12-0.31-1.58-0.24c-4.03,0.66-8.09,1.22-12.06,2.13c-2.58,0.59-5.04,1.71-7.68,2.65c0.46,0.27,0.8,0.48,1.15,0.68
		c-0.02,0.13-0.04,0.25-0.06,0.38c-0.68-0.04-1.37-0.11-2.05-0.11c-0.62,0.01-1.33-0.08-1.84,0.18c-5.91,2.99-11.87,5.92-17,10.21
		c-1.5,1.25-3.04,2.47-4.59,4.14c4.24,0.96,8.48,1.92,12.71,2.9c0.5,0.12,1.25,0.27,1.37,0.6c0.14,0.37-0.18,1.06-0.49,1.44
		c-10.9,13.18-19.32,27.88-26.73,43.22c-0.22,0.46-0.4,0.95-0.69,1.35c-0.28,0.38-0.7,0.66-1.06,0.98c-0.2-0.35-0.37-0.72-0.61-1.04
		c-0.15-0.2-0.41-0.32-0.62-0.48c-3.4-2.6-7.57-2.97-11.53-3.89c-1.65-0.38-3.33-0.6-5.09-0.91c-3.1,6.61-3.78,13.64-4.64,20.75
		c0.61,0.08,0.96,0.15,1.32,0.17c14.44,0.82,28.41-1.99,42.27-5.54c0.65-0.17,1.26-0.55,1.91-0.62c0.45-0.05,0.93,0.27,1.4,0.43
		c-0.38,0.37-0.7,0.96-1.14,1.07c-3.88,0.99-7.76,1.95-11.67,2.82c-7.11,1.58-14.27,2.84-21.55,3.23c-1.98,0.11-3.96,0.11-5.94,0.13
		c-6.64,0.05-13.26-0.27-19.86-0.82c-5.34-0.44-10.38-2.14-15.09-4.61c-6.13-3.2-11.89-7.03-17.12-11.58
		c-1.21-1.05-2.41-2.14-3.53-3.29c-0.3-0.3-0.52-0.98-0.39-1.34c0.75-2.1,1.29-4.37,2.49-6.19c11.36-17.27,25.74-31.47,43.67-41.87
		c7.5-4.35,15.62-7.43,23.82-10.23c9.83-3.36,19.91-5.78,30.27-6.64c10.23-0.85,20.49-1.34,30.74-1.93c1.73-0.1,3.55,0.42,5.19,0.07
		c2.89-0.63,5.75-0.45,8.44,0.29c3.79,1.04,7.67,2.28,9.93,5.96c0.71,1.16,1.3,2.44,1.73,3.73c0.82,2.44,1.51,4.92,2.2,7.4
		c0.37,1.33,0.09,1.75-1.29,1.68c-3.94-0.2-7.71,0.72-11.38,1.88c-2.14,0.68-4.11,1.96-6.08,3.12c-1.34,0.78-1.7,0.83-2.56-0.49
		c-2.89-4.39-6.54-8.07-10.7-11.25C293.74,312.6,292.77,312.26,291.85,311.78z M224.5,357.78c-0.09,0.18-0.17,0.37-0.26,0.55
		c-1.66,2.13-3.33,4.27-5.14,6.59c0.88,0.12,1.49,0.19,2.16,0.28c1.02-2.37,1.99-4.63,2.96-6.89c0.09-0.18,0.18-0.37,0.27-0.55
		L224.5,357.78z M240.81,333.73c0.08-0.2,0.16-0.41,0.24-0.62c2.16-1.96,4.33-3.9,6.46-5.9c1.39-1.31,2.72-2.69,4.25-4.2
		c-1.3-0.33-2.35-0.59-3.38-0.85c-2.48,3.73-4.89,7.35-7.3,10.97c-0.09,0.19-0.17,0.39-0.26,0.58c-0.02,0.01-0.05,0.01-0.07,0.02
		C240.77,333.74,240.79,333.73,240.81,333.73z M168.65,368.09c0.13,0.09,0.27,0.18,0.4,0.27c0.59,0.42,1.2,0.84,1.79,1.28
		c4.17,3.1,8.24,6.33,12.52,9.27c7.84,5.38,16.47,8.53,26.1,8.57c2.19,0.01,4.39,0,6.54,0c0.92-7.06,1.69-14.13,4.56-20.78
		c-4.06-0.86-8.03-1.66-11.98-2.54c-2.24-0.5-4.48-1.06-6.69-1.68c-1.59-0.45-1.82-1.13-1-2.52c0.47-0.79,0.98-1.55,1.51-2.31
		c3.15-4.53,6.39-9,9.44-13.6c2.15-3.25,4.04-6.67,5.89-9.74c-0.93-1.47-1.72-2.72-2.51-3.96c0.13-0.09,0.26-0.18,0.4-0.27
		c0.86,1.03,1.72,2.06,2.71,3.26c3.18-5.45,6.2-10.72,11.1-14.65c-0.59-0.28-1-0.48-1.41-0.68c0.01-0.12,0.02-0.23,0.04-0.35
		c0.46-0.06,0.93-0.22,1.38-0.17c2.01,0.21,4.03,0.37,6.02,0.74c4.79,0.88,9.63,1.61,14.31,2.92c2.53,0.71,4.22,0.22,6.04-1.36
		c8.29-7.16,17.71-12.34,28.14-15.69c1.38-0.44,2.74-0.96,4.11-1.44c-8.93,0.58-17.86,0.96-26.64,2.69
		c1.02,0.38,2.04,0.76,3.06,1.15c-0.07,0.18-0.13,0.36-0.2,0.54c-1.36-0.91-3.54,0.8-4.36-1.67c-0.19,0-0.33-0.02-0.46,0
		c-14.83,2.51-28.87,7.48-42.23,14.24c-9.28,4.7-17.53,11.05-25.09,18.18c-8.2,7.74-15.3,16.44-21.48,25.87
		C169.78,365,169.31,366.6,168.65,368.09z M306.59,323.94c5.56-4.22,11.95-4.93,18.56-5.55c-0.72-2.4-1.43-4.76-2.14-7.12
		c-1.08-3.57-3.31-5.97-6.83-7.4c-3.09-1.26-6.14-1.97-9.5-1.84c-1.97,0.08-3.52,0.59-5,1.84c-1.9,1.6-3.93,3.04-5.89,4.56
		c-0.86,0.67-1.69,1.37-2.6,2.11C298.61,314.2,303.05,318.59,306.59,323.94z M234.04,345.41c-4.76,6.23-8.42,12.85-11.32,20.05
		c3.1,0.65,6.04,1.3,9,1.88c3.02,0.6,5.82,1.72,8.32,3.32c3.37-6.35,6.71-12.65,10.06-18.95
		C244.71,349.59,239.41,347.52,234.04,345.41z M229.77,342.68c2.91,0.62,3.38,0.44,4.54-1.37c3.43-5.33,6.89-10.64,10.33-15.96
		c0.74-1.14,1.45-2.28,2.16-3.42c-0.25-0.17-0.32-0.25-0.4-0.27c-4.97-0.95-9.93-1.9-14.91-2.8c-0.38-0.07-0.95,0.09-1.24,0.36
		c-1.27,1.19-2.73,2.29-3.66,3.73c-3.62,5.6-7.06,11.31-10.56,16.98c-0.04,0.07-0.02,0.18-0.05,0.6c3.71,0.57,7.44,1.15,11.18,1.73
		c0.01-0.08,0.03-0.16,0.04-0.23c-0.55-0.42-1.11-0.85-1.66-1.27c0.05-0.09,0.11-0.18,0.16-0.28c1.39,0.5,2.77,1,4.15,1.5
		C229.83,342.21,229.8,342.42,229.77,342.68z M248.83,346.4c0.01-0.18,0.02-0.36,0.04-0.54c1.26,0,2.53,0.06,3.78-0.03
		c0.46-0.03,1.07-0.3,1.33-0.66c3.57-4.97,7.08-9.98,10.63-14.96c0.76-1.07,1.61-2.06,2.36-3c-4.26-1.14-8.43-2.24-12.58-3.4
		c-0.76-0.21-1.25-0.13-1.83,0.42c-2.65,2.56-5.43,4.98-8,7.61c-2.36,2.42-4.52,5.04-7.01,7.83c1.22,0.19,1.98,0.3,2.73,0.43
		c1.89,0.33,2.18,1.1,0.98,2.57c-0.81,0.99-1.6,1.99-2.46,3.08c4.09,1.61,8.09,3.17,12.14,4.76c0.76-1.33,1.39-2.43,2.09-3.65
		C251.48,346.69,250.16,346.55,248.83,346.4z M232.03,344.63c-5.75-1.09-11.23-2.13-16.62-3.16c-4.37,6.35-8.87,12.9-13.38,19.46
		c0.19,0.13,0.26,0.21,0.34,0.23c4.93,1.14,9.85,2.3,14.8,3.36c0.44,0.09,1.21-0.36,1.51-0.79c2.59-3.58,5.11-7.2,7.64-10.82
		C228.18,350.25,230.02,347.56,232.03,344.63z M235.41,343.3c2.63,1.91,2.78,1.53,4.71-1.72
		C237.27,340.47,236.87,340.62,235.41,343.3z"/>
	<path class="st0" d="M417.75,199.69c5.54-0.36,10.27-0.81,15-0.96c8.02-0.25,15.92,0.49,23.3,3.98c1.35,0.64,2.59,1.59,3.72,2.57
		c1.34,1.17,1.59,2.69,1.37,4.51c-0.8,6.57-3.14,12.74-4.66,19.13c-3.19,13.42-2.44,26.49,2.61,39.4
		c2.29,5.84,5.31,11.07,9.48,15.72c1.81,2.01,3.28,4.33,5.01,6.42c1.68,2.03,3.48,3.98,5.27,5.92c0.69,0.75,0.48,1.45-0.19,1.85
		c-5.48,3.26-10.63,7.25-16.78,9.12c-6.6,2-13.43,3.04-20.35,3.52c-9.25,0.64-18.49,1-27.74,0.45c-3.46-0.2-6.9-1.05-10.31-1.8
		c-7.29-1.6-13.63-5.1-19.32-9.86c-0.42-0.35-0.83-0.75-1.15-1.19c-0.72-0.98-0.93-1.8-0.07-3.04c2.19-3.16,4.27-6.42,6.11-9.79
		c3.4-6.22,6.46-12.63,7.91-19.64c2.43-11.76,1.75-23.23-3.39-34.24c-2.16-4.62-4.52-9.15-6.64-13.79c-1.06-2.32-1.9-4.77-2.6-7.23
		c-0.43-1.51,0.21-3.03,1.48-3.91c1.95-1.35,3.97-2.7,6.14-3.61c5.22-2.19,10.78-3.1,16.4-3.48
		C411.73,199.51,415.15,199.69,417.75,199.69z M445.11,201.11c-0.07-0.03-0.14-0.07-0.2-0.1c0.07,0.02,0.15,0.05,0.23,0.07
		c0.09,0.44,0.19,0.88,0.3,1.42c-0.85-0.31-1.46-0.65-2.11-0.74c-1.32-0.19-2.66-0.27-3.99-0.34c-3.68-0.19-7.37-0.23-11.04-0.56
		c-3.67-0.33-7.3,0.3-10.99,0.08c-6.17-0.37-12.34,0.26-18.38,1.62c-3.95,0.89-7.85,2.04-11.18,4.5c-2.87,2.12-2.83,4.25,0.36,5.88
		c2.31,1.18,4.82,2.08,7.35,2.69c6.3,1.51,12.76,1.68,19.21,1.73c11.57,0.08,23.13-0.12,34.5-2.57c2.93-0.63,5.88-1.62,8.53-3
		c2.89-1.51,2.9-4.29,0.26-6.2C454.14,202.85,449.78,201.5,445.11,201.11z M459.76,212.13c-1.51,0.84-2.94,1.93-4.55,2.49
		c-7.5,2.62-15.33,3.44-23.2,3.85c-10.67,0.55-21.36,0.85-32-0.5c-4.84-0.61-9.62-1.62-13.77-4.46l-0.05-0.04l0.06,0.05
		c0.49,1.13,0.93,2.28,1.47,3.39c2.34,4.69,4.84,9.29,7.04,14.05c6.35,13.76,6.49,27.85,1.66,42.03c-1.3,3.81-3,7.53-4.94,11.07
		c-1.9,3.46-2.92,7.47-6.25,10.11c-0.88,0.7-1.35,1.93-2.23,3.26c3.3,2.14,6.57,4.42,9.98,6.46c6.71,4.01,14.2,5.49,21.85,6
		c4.76,0.32,9.57,0.07,14.35,0.05c8.39-0.04,16.74-0.54,24.97-2.25c3.23-0.67,6.52-1.35,9.53-2.62c3.49-1.48,6.71-3.59,10.02-5.47
		c1.34-0.76,2.61-1.65,3.74-2.38c-1.87-2.19-3.74-4.31-5.54-6.5c-1.66-2.03-3.11-4.24-4.86-6.18c-4.45-4.93-7.55-10.57-9.69-16.84
		c-2.13-6.24-3.98-12.5-4.29-19.15c-0.48-10.27,1.7-20.1,4.75-29.81c0.69-2.18,1.29-4.39,1.94-6.59l0.05-0.06
		C459.81,212.09,459.76,212.13,459.76,212.13z"/>
	<path class="st0" d="M387.37,251.76c-0.05,5.54-0.88,11.88-3.96,17.74c-3.42,6.51-8.52,11.38-14.76,15.1
		c-5.1,3.04-10.59,4.9-16.58,5.04c-4.13,0.09-8.15-0.48-12.1-1.73c-6.19-1.95-11.45-5.37-15.85-10.09
		c-4.55-4.87-7.33-10.63-8.43-17.21c-1.13-6.69-0.54-13.27,1.09-19.82c0.62-2.48,0.88-5.05,1.5-7.53
		c2.17-8.73,7.97-14.06,16.25-16.93c6.83-2.37,13.87-2.66,21-1.91c5.39,0.57,10.59,1.82,15.43,4.38c4.93,2.6,8.54,6.49,11.16,11.33
		C385.59,236.57,387.19,243.51,387.37,251.76z M319.04,255.51c3.73-1.36,7.46-2.71,11.19-4.07c-0.07-0.53-0.18-0.89-0.15-1.23
		c0.1-1.09-0.54-1.51-1.43-1.89c-0.97-0.41-1.39,0.19-1.95,0.76c-0.73,0.76-1.5,1.48-2.31,2.14c-1.76,1.46-3.55,2.87-5.33,4.3
		c-0.02,0.03-0.03,0.06-0.05,0.1C319.02,255.59,319.03,255.55,319.04,255.51z M333.72,218.25c-0.18,0.02-0.38,0-0.54,0.07
		c-6.99,2.88-11.86,7.78-14.17,15.07c-0.06,0.14-0.12,0.27-0.02,0.05c0,0.24,0,0.08,0-0.07c0.25-0.36,0.54-0.69,0.74-1.07
		c1.68-3.38,3.83-6.38,6.97-8.57c0.25-0.17,0.56-0.28,0.83-0.41c-0.06,0.51-0.27,0.8-0.53,1.01c-3.08,2.36-5.14,5.48-6.63,9
		c-2.4,5.69-3.57,11.67-3.96,17.81c-0.09,1.43-0.01,2.86-0.01,4.69c2.03-1.6,3.64-2.96,5.34-4.2c4.74-3.46,8.27-8.01,10.36-13.35
		c2.51-6.41,4-13.13,1.61-20.04L333.72,218.25z M383.28,266.53c0.41-1.24,0.99-2.65,1.34-4.11c2.31-9.74,1.66-19.27-2.26-28.52
		c-2.02-4.77-4.89-8.93-9.16-12.04c-3.45-2.51-7.34-3.97-11.44-4.95c-1.72-0.41-3.48-0.68-5.24-1.02c-0.63,2.14-1.11,4.06-1.77,5.91
		c-2.42,6.81-4.82,13.61-9.66,19.24c-0.74,0.86-0.48,2.54-1.36,3.61c-0.04,0.05,0.02,0.18,0.03,0.27c0.11,0.91,0.21,1.83,0.34,2.74
		c1.47,10.24-0.71,20.05-3.62,29.74c-0.81,2.7-2.18,5.23-3.34,7.93c9.32,3.85,18.65,4.12,27.86-0.39
		c7.58-3.71,13.61-9.09,17.36-16.98c-2.02-0.24-3.99-0.45-5.91-0.24c-4.08,0.45-6.95,4.97-5.79,8.86c0.2,0.66,0.57,1.27,0.71,1.94
		c0.15,0.73,0.12,1.49,0.16,2.24c-0.2,0.04-0.39,0.09-0.59,0.13c-0.38-0.85-0.78-1.7-1.13-2.56c-2.55-6.21,1.38-12.12,8.1-12.15
		C379.62,266.2,381.35,266.41,383.28,266.53z M342.06,244.19c-6.91,7.52-16.01,10.77-25.37,13.61c0.85,11.87,9.03,22.34,19.23,26.79
		C341.85,271.75,344.52,258.47,342.06,244.19z M343.21,240.92c6.62-7.4,9.15-16.2,11.88-25.11c-7.07-0.66-13.75-0.37-20.48,1.97
		C339.11,224.85,340.38,232.96,343.21,240.92z M341.48,240.36c-1.65-5.41-3.26-10.67-4.86-15.92c-0.11,0.04-0.23,0.08-0.34,0.12
		c-0.15,8.37-2.6,15.95-7.95,22.68c2.03,0.42,3.07,1.45,2.94,3.89c3.37-2.64,6.38-5,9.4-7.37
		C340.05,242.29,340.17,241.18,341.48,240.36z"/>
	<path class="st0" d="M552.09,288.97c0.46-0.64,0.71-1,0.97-1.35c0.14,0,0.27,0.01,0.41,0.01c-1.65,2.64,0.23,4.91,0.4,7.43
		c2.49,0.38,5.08-0.55,7.49,0.73c-2.34,1.24-4.96,0.25-7.38,0.94c-0.35,1.37-0.73,2.82-2.43,2.94c-1.86,0.14-2.68-1.12-3.07-2.78
		c-1.31-0.13-2.58-0.26-3.85-0.38c-0.01-0.21-0.01-0.42-0.02-0.63c1.31-0.16,2.62-0.32,3.71-0.46c0.86-1.6,1.72-3.01,2.37-4.51
		c0.25-0.57,0.09-1.37-0.04-2.04c-0.12-0.65-0.43-1.27-0.73-2.07c-0.46,0.82-0.74,1.5-1.19,2.05c-0.63,0.78-1.7,0.73-1.87-0.13
		c-0.44-2.24-0.65-4.52-0.92-6.79c-0.02-0.13,0.19-0.28,0.42-0.6c1.29,1.82,0.64,4.01,1.49,5.76c0.13,0.01,0.26,0.03,0.39,0.04
		c0.23-1.31,0.43-2.63,0.71-3.93c0.11-0.51,0.42-0.96,0.64-1.44c0.29,0.47,0.68,0.9,0.84,1.41
		C551.02,285,551.5,286.86,552.09,288.97z M550.08,295.18c0.88,0,1.54,0,2.39,0c-0.26-1.13-0.48-2.11-0.7-3.1
		c-0.11-0.01-0.22-0.02-0.33-0.04C551,293.06,550.56,294.06,550.08,295.18z M550.17,296.81c-0.1,0.15-0.19,0.3-0.29,0.45
		c0.49,0.33,0.97,0.91,1.46,0.92c0.38,0.01,0.78-0.69,1.17-1.07c-0.08-0.1-0.16-0.2-0.23-0.3
		C551.58,296.81,550.87,296.81,550.17,296.81z"/>
	<path class="st0" d="M473.1,372.09c1.4,6.11,1.77,12.38,2.58,19.03c0.72-1.11,1.19-1.92,1.75-2.67c0.33-0.44,0.81-0.76,1.22-1.14
		c0.26,0.54,0.67,1.05,0.75,1.62c0.28,1.92,0.47,2.45,1.67,3.35c0.28-0.63,0.53-1.22,0.78-1.8c0.77,0.97,0.75,2.2-0.13,2.8
		c-1.02,0.7-1.89,0.23-2.5-0.62c-0.49-0.68-0.79-1.51-1.16-2.27c-0.95,1.04-1.85,2.2-2.91,3.18c-2.26,2.06-5.22,2.15-7.11,0.35
		c-0.86-0.82-1.37-1.76-1.03-2.95c0.36-1.25,1.26-2.22,2.51-2.26c1.45-0.05,2.92,0.34,4.45,0.55c-0.22-5.53-1.53-11.27-1.74-17.09
		C472.52,372.14,472.81,372.11,473.1,372.09z M474.29,392.43c-1.18-1.98-3.26-2.97-4.79-2.29c-1.31,0.58-1.52,1.72-0.5,2.73
		C470.37,394.23,472.22,394.1,474.29,392.43z"/>
	<path class="st0" d="M548.51,349.69c0.67,2.93-0.28,6.1,1.37,8.93c0.22-1.47,0.39-2.94,0.68-4.39c0.09-0.46,0.51-0.85,0.77-1.27
		c0.28,0.45,0.73,0.86,0.82,1.35c0.4,2.03,0.7,4.07,1.1,6.5c0.76-1.25,1.33-2.19,1.9-3.13c0.13,0.07,0.25,0.14,0.38,0.21
		c-0.41,0.89-0.74,1.83-1.26,2.66c-0.58,0.94-0.59,1.83-0.41,2.88c0.43,2.49,0.79,4.99,1.03,7.5c0.08,0.83-0.1,1.8-0.5,2.52
		c-0.36,0.64-1.15,1.35-1.81,1.41c-0.65,0.06-1.76-0.52-1.97-1.08c-0.54-1.41-0.98-2.99-0.91-4.48c0.07-1.46,0.5-3.11,1.33-4.29
		c1.48-2.11,1.07-4.08,0.33-6.32c-0.16,0.39-0.25,0.69-0.41,0.96c-0.58,1-1.62,1.15-2.2,0.17c-0.56-0.96-0.98-2.11-1.07-3.21
		c-0.17-1.96-0.07-3.95-0.02-5.93c0.01-0.36,0.29-0.72,0.44-1.07C548.24,349.64,548.38,349.67,548.51,349.69z M552.35,373.53
		c1.48-1.09,1.54-5.87,0.18-9.05C550.59,367.43,550.47,371.88,552.35,373.53z"/>
	<path class="st0" d="M506.94,364.19c-0.13,0.39-0.27,0.78-0.4,1.17c-0.5,1.48-1.07,2.94-1.48,4.44c-0.18,0.68-0.13,1.46,0.01,2.16
		c0.07,0.35,0.55,0.85,0.87,0.87c0.4,0.03,1.09-0.27,1.21-0.59c0.37-0.97,0.82-2.05,0.71-3.02c-0.48-4.13-1.15-8.23-1.75-12.35
		c-0.2-0.01-0.4-0.02-0.6-0.03c-0.21,0.56-0.35,1.17-0.67,1.68c-0.23,0.38-0.7,0.88-1.04,0.86c-0.35-0.02-0.92-0.57-0.96-0.94
		c-0.28-2.13-0.45-4.28-0.61-6.43c-0.07-0.96-0.01-1.93-0.01-2.9c0.24-0.02,0.48-0.03,0.73-0.05c0.72,2.46,0.16,5.13,1.16,7.65
		c0.24-1.34,0.42-2.7,0.74-4.02c0.15-0.64,0.58-1.22,0.87-1.83c0.28,0.61,0.67,1.19,0.81,1.83c0.83,3.91,1.66,7.82,2.37,11.75
		c0.46,2.53,0.86,5.1-0.08,7.63c-0.64,1.73-1.8,2.53-3.17,2.22c-1.46-0.32-2.26-1.6-2.08-3.41c0.25-2.63,1.61-4.75,2.9-6.89
		C506.63,364.07,506.78,364.13,506.94,364.19z"/>
	<path class="st0" d="M548.98,262.68c1.81,0,3.39,0.05,4.97-0.03c0.52-0.02,1.4,0.14,1.32-0.94c-0.01-0.08,0.84-0.39,1.17-0.27
		c0.26,0.09,0.56,0.82,0.44,1.04c-0.27,0.48-0.73,0.96-1.23,1.17c-3.28,1.38-9.66,0.6-11.3-4.25c-1.63-4.84,1.13-10.39,5.91-11.5
		c1.74-0.41,3.63-0.49,5.15,0.76c0.4,0.33,0.62,1.1,0.6,1.66c-0.01,0.33-0.65,0.64-1.28,1.21c-0.09-0.89-0.13-1.32-0.18-1.85
		c-1.89-0.89-3.76-0.68-5.56,0.2C548.98,254.04,548.98,258.11,548.98,262.68z M547.51,251c-3.23,3.59-2.48,9.34,0,10.18
		C547.51,257.91,547.51,254.61,547.51,251z"/>
	<path class="st0" d="M336.04,389.49c0.13-0.19,0.21-0.45,0.39-0.56c0.33-0.21,0.82-0.55,1.04-0.44c0.33,0.16,0.6,0.65,0.71,1.04
		c0.36,1.3,0.64,2.63,0.99,4.16c0.58-0.37,0.88-0.56,1.18-0.75c0.12,0.09,0.23,0.19,0.35,0.28c-0.4,0.49-0.72,1.25-1.22,1.39
		c-0.4,0.12-1.25-0.37-1.49-0.82c-0.53-0.95-0.8-2.03-1.48-3.14c-0.09,0.68-0.13,1.38-0.28,2.06c-0.11,0.49-0.36,0.94-0.54,1.41
		c-0.4-0.2-0.8-0.41-1.29-0.67c-2.02,1.17-3.15,1.24-4.16,0.15c-1.33-1.43-1.38-4.21-0.11-5.91c0.9-1.2,1.97-1.32,3.78-0.48
		c0-2.75,0.14-5.58-0.04-8.39c-0.18-2.8-0.7-5.57-1.12-8.69c0.43,0.49,0.92,0.8,1.01,1.2c0.51,2.27,1.11,4.55,1.33,6.85
		c0.36,3.7,0.46,7.42,0.67,11.13C335.85,389.37,335.94,389.43,336.04,389.49z M330.64,390.71c0.09,0.98,0.2,2.34,1.44,2.19
		c0.85-0.1,1.91-1.11,2.27-1.97c0.36-0.86-1.4-2.84-2.17-2.86C331.33,388.04,330.62,389.23,330.64,390.71z"/>
	<path class="st0" d="M404.51,390.57c-0.25-1.32-0.46-2.66-0.76-3.97c-0.73-3.18-1.6-6.33-2.2-9.53c-0.28-1.51-0.05-3.11-0.05-4.67
		c0.17-0.02,0.35-0.05,0.52-0.07c0.24,1.77,0.4,3.56,0.75,5.32c0.36,1.8,0.89,3.56,1.36,5.34c0.49,1.82,0.99,3.63,1.52,5.56
		c1.27-0.85,1.66-0.17,1.83,1.01c0.1,0.72,0.36,1.42,0.64,2.5c0.6-0.74,0.92-1.14,1.32-1.63c0.27,1.02,0.24,1.91-0.73,2.29
		c-1.47,0.58-1.93-0.74-2.55-1.74c-0.67,2.1-4.46,4.55-6.51,4.05c-0.9-0.22-1.9-0.97-2.4-1.76c-1.01-1.61-0.66-3.38,0.21-4.99
		c0.65-1.21,1.84-1.55,3.06-0.79c0.92,0.57,1.71,1.38,2.53,2.1c0.4,0.35,0.74,0.76,1.1,1.14
		C404.28,390.67,404.39,390.62,404.51,390.57z M403.29,392.2c0.1-0.21,0.2-0.41,0.29-0.62c-0.88-0.72-1.74-1.48-2.67-2.14
		c-0.53-0.38-1.42-0.98-1.72-0.79c-0.51,0.31-0.73,1.15-0.99,1.81c-0.12,0.32-0.07,0.72-0.04,1.09c0.13,1.71,1.34,2.58,2.94,1.98
		C401.9,393.25,402.57,392.66,403.29,392.2z"/>
	<path class="st0" d="M648.36,361.8c1.43-1.36,2.68-2.54,3.92-3.73c0.09,0.04,0.18,0.07,0.27,0.11c-0.24,0.57-0.43,1.18-0.74,1.71
		c-0.27,0.47-0.68,0.87-1.05,1.28c-1.42,1.57-2.54,3.18-1.95,5.53c0.29,1.13,0.14,2.38,0.13,3.57c0,0.5-0.01,1.1-0.27,1.46
		c-0.42,0.58-1.08,1.39-1.59,1.36c-0.57-0.03-1.53-0.89-1.55-1.41c-0.04-1.66-0.12-3.52,0.56-4.95c1.35-2.85,0.73-5.63,0.59-8.45
		c-0.45,0.24-1.04,0.74-1.2,0.63c-0.39-0.28-0.69-0.81-0.82-1.29c-0.62-2.38-0.6-6.14,0.05-8.09c0.86,0.97,0.52,2.05,0.64,2.99
		c0.12,1,0.19,2.01,0.47,3.06c0.26-0.95,0.48-1.92,0.79-2.85c0.14-0.4,0.46-0.74,0.71-1.11c0.21,0.41,0.59,0.81,0.62,1.23
		c0.1,1.56,0.07,3.12,0.14,4.68C648.13,358.88,648.25,360.21,648.36,361.8z M647.32,367.12c-0.36,1.7-1.01,3.03,0,4.45
		C647.32,370.2,647.32,368.84,647.32,367.12z"/>
	<path class="st0" d="M365.74,394.08c-0.19-0.56-0.48-1.1-0.55-1.67c-0.3-2.61-0.54-5.22-0.81-7.82c-0.05-0.44-0.19-0.86-0.56-1.31
		c-0.63,2.2-1.19,4.42-1.92,6.59c-0.25,0.73-0.91,1.89-1.36,1.88c-1.22-0.03-0.97-1.35-1.12-2.17c-0.3-1.62-0.44-3.27-0.91-4.92
		c-0.23,2.15-0.45,4.31-0.7,6.46c-0.09,0.78-0.14,1.58-0.4,2.3c-0.14,0.39-0.66,0.65-1.15,1.1c0.41-4.29,0.78-8.16,1.16-12.04
		c0.07-0.68,0.11-1.39,0.3-2.05c0.11-0.37,0.48-0.65,0.73-0.98c0.31,0.3,0.81,0.55,0.89,0.9c0.38,1.7,0.66,3.43,0.95,5.15
		c0.15,0.89,0.27,1.78,0.64,2.68c0.48-1.55,0.96-3.11,1.46-4.65c0.15-0.48,0.32-0.97,0.58-1.4c0.63-1.06,1.62-1.06,2.05,0.09
		c0.47,1.27,0.78,2.64,0.92,4c0.27,2.54,0.37,5.1,0.55,7.65C366.24,393.95,365.99,394.01,365.74,394.08z"/>
	<path class="st0" d="M378.61,357.26c-0.46,0.5-0.92,0.99-1.37,1.47c-0.3-0.67-0.75-1.31-0.85-2c-0.22-1.49-0.29-3.01-0.37-4.53
		c-0.02-0.41,0.13-0.83,0.21-1.25c0.18-0.02,0.35-0.03,0.53-0.05c0.21,1.14,0.43,2.28,0.69,3.68c0.2-0.62,0.26-1.02,0.46-1.34
		c0.21-0.35,0.55-0.62,0.84-0.92c0.24,0.35,0.6,0.67,0.69,1.05c0.45,2.09,0.83,4.2,1.27,6.52c0.6-0.55,1-0.9,1.62-1.46
		c-0.1,0.48-0.08,0.72-0.19,0.84c-1.16,1.18-0.82,2.49-0.59,3.94c0.38,2.42,0.54,4.89,0.6,7.35c0.02,1.13-0.56,2.26-1.92,2.31
		c-1.3,0.04-2.09-0.88-2.53-2.01c-0.99-2.54-0.73-5.13,0.74-7.27C379.96,361.32,379.22,359.33,378.61,357.26z M380.35,371.65
		c1.17-3.02,0.25-5.76-0.26-8.69C378.03,366.51,378.07,370.02,380.35,371.65z"/>
	<path class="st0" d="M560.63,250.35c-0.56-0.04-0.91-0.06-1.29-0.08c-0.3-1.26,0.3-2.08,1.28-2.49c2.82-1.19,5.66-1.16,8.3,0.5
		c1.56,0.97,2.01,3.05,1.18,4.63c-1.33,2.54-5.26,3.9-7.99,2.64c0,2.13,0.02,4.21-0.02,6.28c-0.01,0.5-0.24,1-0.37,1.49
		c-0.21-0.01-0.42-0.01-0.63-0.02c-0.13-0.57-0.36-1.14-0.37-1.71c-0.06-3.17-0.08-6.34-0.1-9.51
		C560.62,251.54,560.63,251,560.63,250.35z M562.12,253.74c0.26,0.15,0.53,0.31,0.79,0.46c0.41,0.23,0.92,0.75,1.2,0.65
		c1.44-0.53,2.96-1.03,4.18-1.92c1.35-0.99,1.04-2.83-0.45-3.67c-1.99-1.13-4.1-1.1-6.24-0.51
		C561.79,250.49,561.96,252.13,562.12,253.74z"/>
	<path class="st0" d="M508.38,389.44c0.26,0.18,0.63,0.43,0.99,0.68c-0.14,0.01-0.27,0.02-0.41,0.03c-0.15,0.76-0.38,1.51-0.43,2.28
		c-0.04,0.68,0.19,1.37,0.16,2.05c-0.01,0.33-0.34,0.65-0.53,0.97c-0.28-0.29-0.76-0.54-0.81-0.87c-0.2-1.22-0.27-2.46-0.4-3.83
		c-1.31,0-2.6,0-4.04,0c0,2.11,0,4.15,0,6.19c-0.19,0.04-0.39,0.08-0.58,0.11c-0.24-0.76-0.6-1.51-0.69-2.29
		c-0.47-3.92-0.85-7.85-1.29-11.77c-0.08-0.73-0.34-1.44-0.4-2.16c-0.03-0.38,0.18-0.78,0.28-1.17c0.3,0.29,0.72,0.53,0.88,0.88
		c0.24,0.53,0.34,1.14,0.44,1.73c0.42,2.3,0.81,4.6,1.23,6.94c1.31,0,2.57,0,4.14,0c-0.43-2.7-0.84-5.25-1.25-7.79
		c0.91-0.13,1.13-0.03,1.35,1.04C507.51,384.75,507.92,387.05,508.38,389.44z"/>
	<path class="st0" d="M435.74,393.38c-0.64-0.93-1.28-1.85-1.92-2.77c-1.07-1.55-0.77-2.54,1.1-2.81c1.94-0.28,3.93-0.26,5.9-0.37
		c0.02,0.23,0.05,0.46,0.08,0.7c-2.01,0.36-4.03,0.72-6.25,1.12c0.65,0.95,1.21,1.71,1.72,2.51c0.25,0.38,0.55,0.8,0.6,1.23
		c0.06,0.64,0.14,1.48-0.2,1.88c-0.27,0.32-1.22,0.3-1.77,0.13c-4.81-1.54-7.57-7.51-5.66-12.13c0.96-2.32,2.84-3.65,4.75-2.99
		c1.07,0.37,1.9,1.44,2.79,2.24c0.11,0.1,0.07,0.59-0.06,0.7c-0.14,0.12-0.49,0.05-0.73-0.03c-0.15-0.05-0.27-0.24-0.37-0.39
		c-1.59-2.23-3.97-1.78-5.06,0.92C429.24,386.84,430.72,391.98,435.74,393.38z"/>
	<path class="st0" d="M475.43,356.22c-0.52,0.97-0.89,1.87-1.44,2.64c-1.01,1.41-2.51,1.24-3.23-0.31
		c-1.06-2.25-0.09-7.42,1.71-9.09c1.01-0.94,2.35-0.89,3.28,0.21c1.52,1.8,2.15,3.92,2.1,6.26c0,0.05,0.02,0.11-0.01,0.14
		c-1.45,1.69-0.41,3.61-0.5,5.42c-0.01,0.21-0.12,0.41-0.19,0.63C475.95,361.53,475.95,361.53,475.43,356.22z M475.68,352.11
		c-0.18-0.28-0.51-0.83-0.88-1.35c-0.57-0.78-1.17-0.67-1.64,0.08c-1.36,2.17-1.74,4.51-1.14,7.01c0.04,0.18,0.25,0.32,0.64,0.79
		c0.53-1.23,0.93-2.22,1.38-3.18C474.5,354.44,475.02,353.45,475.68,352.11z"/>
	<path class="st0" d="M531.89,356.63c-0.6,0.93-1.04,1.87-1.71,2.59c-1.22,1.33-2.65,1.03-3.13-0.71c-0.76-2.76-0.8-5.56,0.53-8.21
		c0.89-1.78,2.52-1.92,3.69-0.3c1.4,1.94,2.28,4.13,2.33,6.53c0.04,2.2-0.1,4.42-0.23,6.62c-0.02,0.36-0.38,0.71-0.58,1.06
		c-0.23-0.37-0.64-0.74-0.66-1.12c-0.08-1.93-0.05-3.86-0.07-5.8C532.06,357.11,531.97,356.9,531.89,356.63z M528.79,358.6
		c0.35-0.4,0.75-0.72,0.96-1.14c0.48-0.94,0.85-1.93,1.28-2.89c0.66-1.48-0.18-3.53-1.73-4.16
		C527.85,352.22,527.53,356.47,528.79,358.6z"/>
	<path class="st0" d="M607.01,246.07c0.11,0.62,0.26,1.23,0.34,1.85c0.32,2.87,0.51,5.77,0.97,8.62c0.26,1.61,0.94,3.14,2.39,4.2
		c1.35-0.83,1.49-2.19,1.55-3.42c0.14-3.3,0.1-6.61,0.17-9.91c0.01-0.33,0.32-0.65,0.49-0.97c0.31,0.33,0.86,0.63,0.89,0.98
		c0.13,1.46,0.18,2.94,0.13,4.41c-0.08,2.11-0.17,4.23-0.45,6.33c-0.13,1.01-0.54,2.06-1.09,2.92c-0.85,1.32-2.23,1.41-3.23,0.2
		c-0.77-0.94-1.41-2.06-1.83-3.2c-1.37-3.76-1.17-7.69-1.02-11.6c0-0.11,0.15-0.21,0.22-0.31
		C606.7,246.13,606.85,246.1,607.01,246.07z"/>
	<path class="st0" d="M419.28,357.16c0.36,2.06,0.73,4.11,1.1,6.16c-0.16,0.05-0.33,0.11-0.49,0.16c-1.25-1.27-1.15-3.17-1.85-4.83
		c-0.42,0.74-0.71,1.42-1.14,1.97c-0.87,1.1-1.92,1.04-2.74-0.08c-1.35-1.83-1.29-7.28,0.1-9.01c0.74-0.93,1.91-1.11,2.76-0.16
		c1.17,1.33,2.17,2.84,3.11,4.35c0.18,0.28-0.21,0.92-0.35,1.39C419.61,357.13,419.45,357.15,419.28,357.16z M415.82,352.08
		c-1.63,1.94-1.66,6.05-0.2,7.77c0.15-0.17,0.36-0.31,0.42-0.5c0.55-1.69,1.07-3.38,1.62-5.16
		C417.06,353.5,416.45,352.8,415.82,352.08z"/>
	<path class="st0" d="M645.25,247.11c0.17,0.58,0.45,1.15,0.49,1.74c0.18,2.56,0.19,5.15,0.48,7.7c0.13,1.14,0.61,2.32,1.21,3.32
		c0.74,1.24,1.86,1.19,2.37-0.15c0.68-1.78,1.25-3.66,1.5-5.55c0.22-1.64-0.12-3.35-0.11-5.03c0-0.45,0.36-0.9,0.55-1.35
		c0.37,0.38,1.07,0.76,1.06,1.13c-0.06,2.61-0.17,5.22-0.48,7.81c-0.14,1.2-0.64,2.4-1.18,3.51c-1.21,2.48-3.6,2.67-4.98,0.27
		c-0.8-1.38-1.25-3.07-1.43-4.67c-0.29-2.54-0.22-5.13-0.27-7.7c-0.01-0.32,0.2-0.64,0.31-0.96
		C644.92,247.16,645.08,247.14,645.25,247.11z"/>
	<path class="st0" d="M642.97,239.23c0.03,0.56,0.16,1.14,0.07,1.68c-1.53,8.46-3.08,16.91-4.62,25.36
		c-0.22,1.22-0.32,2.46-0.6,3.67c-0.1,0.43-0.56,0.78-0.85,1.17c-0.18-0.45-0.58-0.94-0.51-1.35c0.67-3.85,1.43-7.67,2.16-11.51
		c1.1-5.82,2.19-11.65,3.3-17.47c0.1-0.54,0.33-1.06,0.5-1.59C642.61,239.2,642.79,239.21,642.97,239.23z"/>
	<path class="st0" d="M555.33,315.31c-0.16,0.35-0.32,0.7-0.51,1.1c0.97,0.79,2.01,0.46,2.65-0.13c0.52-0.49,0.86-1.55,0.75-2.26
		c-0.26-1.55-1.74-2-2.93-0.96c-0.78,0.69-1.36,1.61-2.09,2.36c-0.28,0.29-0.75,0.4-1.13,0.6c-0.19-0.38-0.5-0.75-0.55-1.15
		c-0.47-3.55-0.9-7.1-1.32-10.65c-0.05-0.45,0.09-0.92,0.37-1.4c1.85,3.23,1.93,6.82,2.28,10.57c0.59-0.54,1.05-1.01,1.56-1.43
		c1.04-0.85,2.19-1.17,3.46-0.56c1.17,0.56,2.12,2.17,1.97,3.39c-0.18,1.46-0.79,2.65-2.31,3.12c-0.61,0.18-1.31,0.46-1.87,0.31
		c-0.72-0.18-1.71-0.61-1.91-1.18C553.39,316.09,554.26,315.51,555.33,315.31z"/>
	<path class="st0" d="M350.21,351.41c-2.34,1.98-4.88,1.08-7.11,1.2c0.25,3.04,0.49,5.95,0.69,8.86c0.01,0.16-0.36,0.34-0.94,0.85
		c-0.76-5.56-1.47-10.76-2.17-15.87c2.26-1.13,9.93-0.74,10.78,0.59c-3.25,0-6.39,0-9.62,0c0.29,1.59,0.56,3.02,0.81,4.37
		C345.17,351.41,347.57,351.41,350.21,351.41z"/>
	<path class="st0" d="M632.63,362.77c-1.45-1.04-0.34-2.85-1.03-4.12c-0.67,0.6-1.27,1.3-2.01,1.79c-1.06,0.7-2.09,0.36-2.34-0.87
		c-0.64-3.18-0.27-6.24,1.87-8.81c1.2-1.44,2.89-1,3.51,0.77c0.23,0.65,0.47,1.33,0.48,2c0.05,3.05,0.02,6.1,0.02,9.15
		C632.97,362.7,632.8,362.74,632.63,362.77z M628.72,359.24c2.89-2.33,4.21-5.72,1.95-7.82
		C628.9,352.59,627.85,356.63,628.72,359.24z"/>
	<path class="st0" d="M280.23,220.57c3.28-0.51,4.8,0.01,5.17,1.57c0.42,1.8-0.89,3.45-3.52,4.34c0,1.43-0.03,2.89,0.01,4.35
		c0.08,2.8,0.2,5.59,0.28,8.39c0.01,0.23-0.14,0.62-0.29,0.67c-0.25,0.07-0.75,0.01-0.82-0.15c-0.24-0.52-0.46-1.1-0.46-1.67
		c-0.05-4.23-0.02-8.46-0.09-12.69c-0.01-0.75-0.55-1.49-0.59-2.24C279.87,222.29,280.12,221.42,280.23,220.57z M281.5,221.64
		c0.12,1.03,0.23,2.09,0.35,3.17c1.63-0.45,2.51-1.42,2.27-2.37C283.91,221.59,282.85,221.24,281.5,221.64z"/>
	<path class="st0" d="M510.58,236.17c0.89,0,1.79,0.03,2.68-0.01c2.31-0.08,2.77-0.7,2.18-2.91c-0.4-1.51-1.01-2.99-1.22-4.52
		c-0.37-2.66-0.5-5.35-0.75-8.26c-0.99,0.1-2.34,0.25-3.92,0.42c0.95-1.4,4.29-2.34,5.28-1.64c0.35,0.25,0.63,0.97,0.54,1.39
		c-0.93,4.14,0.1,8.03,1.34,11.91c0.1,0.31,0.18,0.62,0.25,0.93c0.51,2.4-0.27,3.61-2.67,3.98c-0.9,0.14-1.84,0.15-2.74,0.03
		c-0.43-0.05-0.8-0.53-1.2-0.81C510.43,236.51,510.5,236.34,510.58,236.17z"/>
	<path class="st0" d="M508.21,314.06c-0.45,0.58-0.68,0.92-0.96,1.22c-1,1.04-2.38,0.91-2.94-0.39c-1.05-2.44-1.11-4.96,0.23-7.31
		c1.19-2.09,2.91-2.04,4.04,0.09c0.44,0.83,0.78,1.79,0.89,2.71c0.27,2.28,0.39,4.58,0.51,6.87c0.02,0.32-0.33,0.66-0.52,0.99
		c-0.27-0.3-0.71-0.56-0.79-0.9C508.46,316.36,508.38,315.35,508.21,314.06z M506.7,307.49c-1.93,1.35-2.33,5.22-0.78,6.95
		C507.9,312.62,508.3,309.4,506.7,307.49z"/>
	<path class="st0" d="M591.47,362.86c-1.3-1.42-0.56-3.54-1.54-5.12c-0.45,0.7-0.81,1.44-1.32,2.05c-0.8,0.94-1.93,0.77-2.24-0.4
		c-0.68-2.59-0.76-5.23,0.53-7.65c0.34-0.64,1.35-1.29,2.03-1.26c0.59,0.02,1.43,0.87,1.68,1.54c0.44,1.18,0.58,2.49,0.74,3.76
		c0.28,2.31,0.48,4.63,0.72,6.94C591.87,362.76,591.67,362.81,591.47,362.86z M588.85,351.73c-1.49,1.15-2.01,4.62-1.01,6.88
		c0.49-1.06,0.9-2.07,1.42-3.02C590.08,354.09,590.03,353.14,588.85,351.73z"/>
	<path class="st0" d="M497.03,360.54c-1.41,3.54-1.41,3.54-2.47,3.46c0.4-1.39,0.7-2.75,1.18-4.04c0.37-0.99,0.29-1.82-0.2-2.74
		c-1.19-2.22-2.32-4.48-3.46-6.74c-0.18-0.37-0.29-0.78-0.22-1.28c2.36,1.93,3.23,4.81,4.91,7.5c0.77-2.63,1.47-5.04,2.17-7.45
		c0.15,0.02,0.29,0.04,0.44,0.06c0.02,0.36,0.12,0.73,0.05,1.07c-0.45,2.11-0.89,4.22-1.44,6.3c-0.28,1.07-0.36,2.01,0.16,3.05
		c0.52,1.02,0.88,2.12,1.23,3.21c0.09,0.27-0.11,0.64-0.18,0.96c-0.32-0.17-0.8-0.25-0.94-0.51
		C497.82,362.56,497.5,361.65,497.03,360.54z"/>
	<path class="st0" d="M481.91,220.2c-1.2,0.14-2.39,0.27-3.71,0.42c0,5.05,0,10.17,0,15.41c0.64,0.04,1.34,0.01,1.98,0.17
		c0.35,0.09,0.62,0.52,0.92,0.8c-0.32,0.19-0.63,0.52-0.95,0.54c-3.33,0.22-3.51,0.02-3.49-3.3c0.03-4.37,0.03-8.73,0.04-13.1
		c0-1.77,0.39-2.17,2.21-2.12c0.99,0.03,1.98,0.17,2.97,0.26C481.89,219.59,481.9,219.9,481.91,220.2z"/>
	<path class="st0" d="M529.95,222.33c-2.97-0.24-7.44,2.71-8.36,5.45c-0.61,1.82,0.01,3.33,1.86,3.78c1.58,0.39,3.27,0.37,4.91,0.5
		c0.64,0.05,1.29-0.04,1.93,0.05c0.24,0.03,0.6,0.37,0.62,0.6c0.02,0.21-0.32,0.65-0.52,0.66c-2.93,0.13-5.94,0.63-8.63-1
		c-1.76-1.07-2.24-3.12-1.43-5.26c1.02-2.72,5.61-6,8.54-6.12C529.69,220.95,529.91,221.19,529.95,222.33z"/>
	<path class="st0" d="M484.1,388.88c0.25,0.95,0.5,1.91,0.8,3.07c0.51-0.96,0.8-1.81,1.34-2.45c0.43-0.51,1.17-1.05,1.74-1.03
		c0.46,0.02,0.88,0.88,1.3,1.39c0.11,0.13,0.13,0.33,0.19,0.49c0.51-0.49,0.97-0.99,1.49-1.43c0.7-0.59,1.57-0.65,2.07,0.12
		c1.26,1.96,1.52,4.19,1.45,6.49c-1.66-1.46-1.48-3.72-2.56-5.79c-0.67,0.95-1.15,1.76-1.74,2.47c-0.38,0.46-0.93,0.78-1.4,1.17
		c-0.22-0.55-0.49-1.08-0.64-1.64c-0.14-0.52-0.15-1.08-0.22-1.62c-0.12-0.04-0.24-0.09-0.36-0.13c-0.41,0.86-0.76,1.76-1.25,2.56
		c-0.45,0.73-1.06,1.35-1.6,2.02c-0.36-0.74-0.87-1.44-1.04-2.22c-0.23-1.1-0.59-2.26-0.21-3.38
		C483.66,388.93,483.88,388.9,484.1,388.88z"/>
	<path class="st0" d="M348.98,389.99c-0.31,0.59-0.55,1.24-0.94,1.77c-0.35,0.48-0.87,0.85-1.32,1.26c-0.39-0.51-0.8-1.02-1.16-1.55
		c-0.14-0.21-0.16-0.5-0.34-1.09c-0.3,1.13-0.46,1.96-0.76,2.74c-0.34,0.88-1.29,1.04-1.5,0.26c-0.61-2.29-1.02-4.63-1.5-6.95
		c-0.01-0.04,0.13-0.11,0.51-0.4c0.57,1.44,1.1,2.79,1.7,4.28c0.21-0.59,0.33-1.19,0.63-1.69c0.23-0.38,0.67-0.81,1.07-0.86
		c0.29-0.03,0.77,0.46,0.94,0.83c0.28,0.62,0.38,1.32,0.6,2.17c0.49-0.69,0.88-1.32,1.34-1.89c0.56-0.71,1.44-0.9,1.8-0.07
		c0.8,1.85,1.35,3.81,1.85,5.78C350.07,393.63,349.54,391.94,348.98,389.99z"/>
	<path class="st0" d="M299.85,294.41c-0.69,0.05-1.24,0.1-1.87,0.14c-0.14,0.84-0.21,1.66-0.44,2.44c-0.11,0.36-0.53,0.63-0.81,0.95
		c-0.24-0.38-0.62-0.74-0.68-1.15c-0.11-0.72-0.03-1.46,0.13-2.16c0.23-1.58,0.42-3.16,0.7-4.74c0.19-1.07,0.43-2.16,0.79-3.18
		c0.16-0.45,0.69-0.77,1.33-1.44c0.97,3.95,1.81,7.4,2.65,10.86c0.09,0.35,0.18,0.75,0.12,1.09c-0.06,0.3-0.35,0.56-0.54,0.84
		c-0.24-0.22-0.63-0.41-0.7-0.68C300.25,296.47,300.09,295.52,299.85,294.41z M299.7,293.09c-0.42-1.67-0.78-3.12-1.14-4.57
		c-0.11,0.01-0.22,0.03-0.33,0.04c-0.07,1.56-0.15,3.12-0.23,4.82C298.66,293.27,299.09,293.19,299.7,293.09z"/>
	<path class="st0" d="M595.91,296.29c-1.13,1.3-1.68,2.79-3.35,3.46c0-0.42-0.06-0.61,0.01-0.74c1.05-1.93,2.11-3.86,3.21-5.76
		c0.15-0.26,0.54-0.38,0.82-0.57c0.2,0.37,0.54,0.73,0.58,1.12c0.3,2.7,0.54,5.4,0.81,8.1c0.02,0.22,0.09,0.44,0.15,0.73
		c1.14-0.16,2.22-0.35,3.31-0.43c0.26-0.02,0.54,0.35,0.82,0.54c-0.21,0.25-0.39,0.69-0.63,0.73c-2.46,0.4-4.92,0.75-7.39,1.07
		c-0.31,0.04-0.65-0.15-1.02-0.26c0.41-0.63,0.41-0.63,3.41-1.41C596.41,300.79,596.18,298.67,595.91,296.29z"/>
	<path class="st0" d="M358.19,341.75c-0.05,0.68-0.1,1.36-0.15,2.05c-0.26,3.56-0.73,7.12-0.69,10.68c0.03,2.72,0.54,5.49,2.16,7.85
		c0.25,0.36,0.66,0.61,0.91,0.98c0.19,0.28,0.25,0.65,0.36,0.99c-0.4,0.08-1.02,0.34-1.15,0.19c-0.8-0.92-1.69-1.85-2.16-2.95
		c-1.49-3.43-1.8-7.12-1.59-10.8c0.15-2.55,0.67-5.09,1.07-7.63c0.08-0.52,0.37-1.01,0.56-1.51
		C357.74,341.65,357.96,341.7,358.19,341.75z"/>
	<path class="st0" d="M410.9,386.42c1.37,0.89,1.55,2.54,2.28,3.86c1.51-2.46,1.89-2.6,3.84-1.41c0.14-0.23,0.28-0.46,0.42-0.68
		c1.17-1.93,2.5-1.96,3.54,0.03c0.69,1.33,1.33,2.75,1.04,4.64c-1.86-1.17-1.37-3.4-2.96-4.68c-0.34,0.77-0.62,1.5-0.98,2.18
		c-0.24,0.45-0.59,0.84-0.89,1.26c-0.36-0.35-0.75-0.68-1.08-1.06c-0.23-0.27-0.37-0.61-0.73-1.23c-0.51,1.03-0.84,1.85-1.3,2.59
		c-0.24,0.38-0.69,0.64-1.05,0.95c-0.28-0.33-0.66-0.61-0.83-0.99c-0.61-1.38-1.16-2.79-1.68-4.21c-0.12-0.33-0.06-0.73-0.09-1.09
		C410.6,386.52,410.75,386.47,410.9,386.42z"/>
	<path class="st0" d="M385.16,367.17c0.27-1.44,0.59-2.85,0.79-4.28c0.79-5.63-0.22-10.88-3.23-15.74c-0.62-1-1-2.14-1.49-3.22
		c0.12-0.07,0.24-0.15,0.36-0.23c0.16,0.06,0.38,0.07,0.46,0.18c4.31,6.08,6.76,12.62,5.11,20.21
		C386.79,365.78,386.27,366.65,385.16,367.17z"/>
	<path class="st0" d="M603.53,363.96c0.26-1.21,0.43-2.46,0.8-3.64c0.42-1.32,0.23-2.49-0.33-3.72c-0.76-1.67-1.39-3.4-2.03-5.13
		c-0.15-0.4-0.1-0.87-0.14-1.31c0.17-0.05,0.34-0.1,0.51-0.15c0.9,1.96,1.79,3.92,2.81,6.14c0.88-2.21,0.89-4.48,2.04-6.29
		c0.17,0.05,0.35,0.09,0.52,0.14c-0.03,0.42-0.03,0.85-0.11,1.27c-0.22,1.13-0.42,2.27-0.75,3.36c-0.68,2.28-0.77,4.48,0.38,6.66
		c0.24,0.45,0.17,1.08,0.24,1.62c-0.18,0.08-0.35,0.15-0.53,0.22c-0.43-0.67-0.86-1.33-1.33-2.05c-0.51,1.02-1.02,2.05-1.53,3.08
		C603.9,364.1,603.72,364.03,603.53,363.96z"/>
	<path class="st0" d="M496.8,298.14c7.24,0,14.49,0,21.97,0c0.02,0.12,0.2,0.56,0.1,0.92c-0.05,0.18-0.61,0.31-0.93,0.31
		c-5.8,0.04-11.6,0.07-17.4,0.08c-0.96,0-1.93-0.05-2.89-0.17c-0.36-0.04-0.68-0.33-1.02-0.51
		C496.68,298.56,496.74,298.35,496.8,298.14z"/>
	<path class="st0" d="M505.09,284.42c0.81-0.12,0.81-0.12,3.24,4.11c0.81-1.09,0.65-2.76,1.9-3.53c0.14,0.06,0.27,0.12,0.41,0.18
		c-0.25,0.84-0.4,1.72-0.75,2.5c-0.92,2.06-0.72,3.97,0.46,5.86c0.36,0.58,0.65,1.23,0.82,1.89c0.09,0.35-0.17,0.78-0.27,1.17
		c-0.31-0.21-0.76-0.34-0.92-0.63c-0.49-0.88-0.87-1.81-1.42-3.01c-0.33,1.25-0.53,2.25-0.86,3.2c-0.12,0.34-0.57,0.56-0.87,0.83
		c-0.13-0.36-0.41-0.74-0.36-1.07c0.22-1.27,0.64-2.5,0.82-3.77c0.12-0.82,0.13-1.74-0.12-2.51
		C506.57,287.88,505.8,286.17,505.09,284.42z"/>
	<path class="st0" d="M439.74,349.46c0.04,0.4,0.16,0.81,0.12,1.2c-0.08,0.77-0.24,1.54-0.38,2.31c-0.46,2.53-0.9,5.05,0.74,7.39
		c0.26,0.37,0.19,0.97,0.27,1.46c-0.16,0.08-0.32,0.16-0.48,0.24c-0.49-0.63-0.98-1.26-1.46-1.88c-0.32,0.97-0.65,1.94-0.98,2.91
		c-0.2-0.03-0.39-0.06-0.59-0.09c-0.04-0.49-0.22-1.02-0.09-1.46c0.83-2.64,0.39-5.01-1.16-7.29c-0.66-0.97-1.1-2.12-1.53-3.23
		c-0.16-0.42-0.03-0.96,0.26-1.48c1.03,1.9,2.07,3.81,3.26,6c0.52-2.26,0.97-4.21,1.42-6.16
		C439.35,349.41,439.54,349.43,439.74,349.46z"/>
	<path class="st0" d="M668.77,246.22c1.02-0.38,1.59,0.27,1.92,0.93c3.11,6.21,4.91,12.53,1.32,19.2c-0.25,0.46-0.68,0.82-1.03,1.23
		c-0.16-0.09-0.33-0.18-0.49-0.27c0.23-0.84,0.35-1.74,0.72-2.51c1.6-3.31,1.73-6.74,0.85-10.22c-0.54-2.13-1.25-4.22-1.98-6.3
		C669.83,247.58,669.28,247,668.77,246.22z"/>
	<path class="st0" d="M293.28,219.78c-1.55,0-2.91,0-4.53,0c-0.16,2.09-0.32,4.16-0.5,6.47c1.21-0.11,2.09-0.18,3.24-0.28
		c-0.45,1.43-1.54,1.48-2.5,1.57c-1.19,0.11-2.01-0.57-2.02-1.75c-0.01-1.55,0.2-3.11,0.33-4.66c0.04-0.44,0.13-0.88,0.2-1.35
		c-1.38-0.19-2.64-0.36-3.9-0.54c0.01-0.23,0.01-0.46,0.01-0.69c1.34-0.09,2.68-0.19,4.14-0.28c0.22-1.13,0.43-2.26,0.71-3.75
		c1.15,1.31,0.47,2.53,0.66,3.52c1.43,0.37,2.84,0.72,4.23,1.11C293.39,219.17,293.32,219.55,293.28,219.78z"/>
	<path class="st0" d="M661.84,260.11c1.05-0.22,2.1-0.45,3.38-0.72c-0.22-1.96-0.45-3.99-0.7-6.21c-0.68,1.39-1.3,2.64-1.91,3.88
		c-0.2-0.09-0.4-0.19-0.6-0.28c0.81-2.21,1.28-4.55,2.51-6.6c0.19-0.01,0.38-0.02,0.57-0.02c0.23,0.68,0.56,1.34,0.67,2.04
		c0.36,2.36,0.63,4.73,0.93,7.03c1.04,0.73,2.75-0.14,3.32,1.67c-2.8,0-5.43,0-8.05,0C661.92,260.63,661.88,260.37,661.84,260.11z"
		/>
	<path class="st0" d="M538.24,219.94c0.92,0.19,1.25,0.93,1.22,1.78c-0.1,2.71-0.29,5.41-0.44,8.12c-0.06,1.04-0.11,2.07-0.18,3.29
		c0.99-0.06,1.76-0.12,2.52-0.16c0.96-0.05,1.93-0.17,2.89-0.08c0.36,0.03,0.68,0.56,1.02,0.86c-0.36,0.18-0.71,0.48-1.08,0.51
		c-1.42,0.14-2.84,0.2-4.27,0.27c-1.82,0.09-2.58-0.6-2.49-2.43c0.07-1.61,0.33-3.2,0.44-4.81
		C538.02,224.89,538.11,222.49,538.24,219.94z"/>
	<path class="st0" d="M461.35,350.53c1.08-1.92,4.19-2.74,5.4-1.66c0.48,0.43,0.93,1.36,0.79,1.9c-0.51,1.93-1.21,3.82-1.99,5.66
		c-0.6,1.42-1.43,2.74-2.35,4.45c1.94-0.12,3.46-0.21,4.99-0.31c-0.96,1.13-3.83,2-5.12,1.52c-1.14-0.42-1.25-1.33-0.82-2.26
		c0.61-1.33,1.38-2.59,2.05-3.9c0.65-1.27,1.36-2.51,1.85-3.84c0.24-0.66,0.32-1.82-0.06-2.16c-0.48-0.42-1.52-0.37-2.28-0.28
		C463.08,349.73,462.4,350.13,461.35,350.53z"/>
	<path class="st0" d="M222.47,229.72c-0.11,0.01-0.66,0.23-1.05,0.07c-0.28-0.12-0.51-0.73-0.51-1.13
		c0.02-3.68,0.08-7.36,0.21-11.04c0.01-0.37,0.54-0.95,0.92-1.05c0.93-0.22,1.91-0.25,2.88-0.29c1.3-0.05,1.78,0.47,1.61,1.77
		c-0.11,0.85-0.35,1.69-0.52,2.53c-1.08,0.16-1.08,0.16-1.02-2.8c-0.9,0-1.8,0-2.52,0C222.47,221.66,222.47,225.45,222.47,229.72z"
		/>
	<path class="st0" d="M659.13,264.43c-3.68-5.38-3.52-11.32-2.23-17.41c0.42-1.99,0.87-2.46,1.76-2.5
		c-0.34,2.23-0.84,4.46-0.98,6.71c-0.13,2.23,0,4.49,0.21,6.72c0.21,2.2,1.77,4.09,2,6.31
		C659.64,264.32,659.38,264.38,659.13,264.43z"/>
	<path class="st0" d="M217.02,397.59c-0.49,0.07-0.97,0.14-1.36,0.19c-0.56,1,0.08,2.58-1.58,2.87c-0.62-0.97,0.67-2.36-1.15-2.76
		c2.29-2.01,1.37-4.58,1.38-6.96c0.16-0.07,0.32-0.13,0.48-0.2c1.28,2.15,2.57,4.3,3.93,6.59c-0.62,1.06,1.39,2.45-0.05,4.14
		C218.07,400.07,217.57,398.88,217.02,397.59z M216.08,395.27c-0.12,0-0.25,0-0.37,0c0.04,0.44,0.07,0.88,0.11,1.32
		c0.17-0.02,0.33-0.04,0.5-0.07C216.23,396.1,216.16,395.68,216.08,395.27z"/>
	<path class="st0" d="M631.81,262.8c1.33-3.03,2.18-6.21,1.25-9.36c-0.87-2.93-2.37-5.68-3.59-8.5c0.09-0.09,0.18-0.17,0.27-0.25
		c0.9,1.13,1.89,2.21,2.68,3.41c2.9,4.42,2.92,9.13,1.23,13.97C633.34,262.97,632.82,263.33,631.81,262.8z"/>
	<path class="st0" d="M362.13,349.06c1.13,1.69,2.25,3.38,3.38,5.07c0.55-1.32,1.06-2.56,1.6-3.79c0.05-0.11,0.31-0.13,0.64-0.27
		c0.05,0.38,0.16,0.67,0.1,0.92c-0.15,0.67-0.34,1.34-0.58,1.98c-0.78,2.06-0.58,3.86,1.07,5.51c0.9,0.9,0.71,1.32-0.3,1.74
		c-0.57-0.74-1.14-1.48-1.8-2.32c-0.4,1.03-0.73,1.88-1.06,2.74c-0.16-0.03-0.32-0.07-0.48-0.1c0.09-0.87,0.09-1.75,0.3-2.59
		c0.3-1.22,0.04-2.22-0.64-3.24c-0.86-1.3-1.62-2.67-2.37-4.04c-0.22-0.39-0.27-0.87-0.39-1.3
		C361.77,349.26,361.95,349.16,362.13,349.06z"/>
	<path class="st0" d="M627.05,252.91c-1.3,1.38-1.85,2.94-2.18,4.63c-0.08,0.41-0.47,0.76-0.72,1.14c-0.25-0.41-0.7-0.82-0.72-1.24
		c-0.11-2.11-0.22-4.19-1.57-5.98c1.12-0.35,1.12-0.35,2.48,2.68c0.55-0.75,1.02-1.52,1.61-2.19c0.82-0.91,2.07-0.87,2.35,0.2
		c0.53,2.02,0.73,4.12,1.05,6.2c0.02,0.13-0.18,0.29-0.46,0.71C627.51,257.17,628.01,254.89,627.05,252.91z"/>
	<path class="st0" d="M620.69,244.84c-3.3,3.04-2.77,13.21,0.78,16.3c-0.9,0.81-1.55,0.72-2.25-0.32c-1.85-2.78-2.12-5.92-2.02-9.13
		c0.07-2.26,0.29-4.51,1.49-6.51C619.31,244.15,619.88,244.05,620.69,244.84z"/>
	<path class="st0" d="M243.15,272.1c0.57-0.97,1.08-1.83,1.59-2.69c0.19,0.07,0.39,0.14,0.58,0.22c-0.11,0.5-0.09,1.1-0.36,1.5
		c-1.36,1.97-1.17,3.85-0.04,5.87c0.33,0.59,0.28,2.1,0.15,2.14c-1.24,0.3-0.96-0.97-1.36-1.57c-0.35-0.52-0.56-1.12-0.99-2.01
		c-0.46,1.15-0.76,2.04-1.17,2.88c-0.17,0.35-0.58,0.57-0.88,0.86c-0.14-0.43-0.48-0.91-0.39-1.29c0.2-0.84,0.46-1.74,0.98-2.4
		c1.18-1.5,0.73-2.85,0.01-4.32c-0.25-0.51-1.22-1.07-0.27-1.67c0.16-0.1,0.96,0.69,1.37,1.15
		C242.69,271.1,242.87,271.58,243.15,272.1z"/>
	<path class="st0" d="M584.53,361.89c-1.54,0.38-3.06,0.88-4.62,1.13c-1.61,0.24-2.24-0.68-1.59-2.18c0.73-1.69,1.57-3.32,2.27-5.02
		c0.31-0.75,0.48-1.59,0.51-2.4c0.06-1.22-0.69-1.65-1.79-1.1c-0.36,0.18-0.66,0.49-0.98,0.75c-0.27,0.21-0.52,0.44-0.83,0.71
		c-0.29-1.23,0.68-2.35,2.13-2.65c1.34-0.29,2.55,0.41,2.6,1.73c0.04,1.12-0.12,2.3-0.48,3.36c-0.59,1.77-1.42,3.47-2.24,5.43
		c1.76-0.11,3.36-0.2,4.95-0.29C584.49,361.53,584.51,361.71,584.53,361.89z"/>
	<path class="st0" d="M534.66,298.81c0.07,0.64,0.12,1.19,0.18,1.72c0.07,0.53,0.15,1.06,0.23,1.61c-1.24-0.04-1.24-0.04-2.03-3.41
		c-2.19,0-4.45,0-6.71,0c-0.05-0.2-0.1-0.4-0.14-0.6c0.48-0.18,0.95-0.51,1.43-0.53c1.69-0.07,3.39-0.02,5.28-0.02
		c-0.12-0.79-0.23-1.45-0.3-2.11c-0.07-0.58-0.1-1.17,0.08-1.8c1.36,0.92,1.07,2.51,1.77,3.85c1.68,0.1,3.45,0.21,5.21,0.32
		c0,0.24,0,0.49,0,0.73C538.03,298.65,536.41,298.72,534.66,298.81z"/>
	<path class="st0" d="M556.08,274.89c-1.65-0.09-2.68,0.31-3.26,1.66c-1.02-0.22-1.26-0.71-0.63-1.53c0.19-0.25,0.44-0.49,0.71-0.65
		c1.15-0.64,2.39-1.59,3.69-0.61c1.35,1.01,0.69,2.41,0.25,3.66c-0.48,1.36-1.02,2.7-1.59,4.2c1.68,0.18,3.08,0.33,4.58,0.49
		c-1,0.81-4.34,1.28-5.09,0.58c-0.45-0.42-0.74-1.39-0.6-2c0.29-1.28,0.92-2.49,1.37-3.74
		C555.71,276.37,555.84,275.74,556.08,274.89z"/>
	<path class="st0" d="M187.08,276.89c0.52-0.97,0.96-1.78,1.39-2.6c0.14,0.04,0.29,0.07,0.43,0.11c-0.06,0.47,0.03,1.03-0.19,1.4
		c-1,1.68-0.83,3.25,0.2,4.83c0.25,0.37,0.44,0.84,0.47,1.28c0.02,0.33-0.25,0.68-0.39,1.02c-0.28-0.19-0.67-0.31-0.82-0.56
		c-0.4-0.71-0.69-1.48-1.18-2.56c-0.28,0.85-0.41,1.4-0.64,1.9c-0.16,0.34-0.46,0.61-0.71,0.9c-0.25-0.37-0.75-0.79-0.7-1.11
		c0.12-0.7,0.46-1.39,0.83-2.01c0.44-0.72,0.4-1.31-0.02-2.03c-0.55-0.95-1.02-1.95-1.41-2.98c-0.14-0.37,0.06-0.87,0.1-1.32
		c0.19-0.03,0.39-0.06,0.58-0.09C185.7,274.3,186.35,275.51,187.08,276.89z"/>
	<path class="st0" d="M462.35,389.47c-6.2,0.75-12.39,0.37-18.59,0.01c-0.05-0.17-0.1-0.35-0.15-0.52c0.37-0.18,0.73-0.53,1.09-0.52
		c5.74,0.14,11.49,0.32,17.23,0.51c0.15,0.01,0.3,0.11,0.44,0.17C462.37,389.23,462.36,389.35,462.35,389.47z"/>
	<path class="st0" d="M486.2,222.16c0.68,3.71-0.65,7.27-1.27,11.11c1.76-0.09,3.33-0.16,4.95-0.24c0.06,1.14-0.65,1.41-1.45,1.49
		c-0.91,0.09-1.83,0.13-2.75,0.12c-1.61-0.02-2.33-0.91-2.04-2.51c0.18-0.99,0.51-1.96,0.7-2.95c0.32-1.76,0.58-3.53,0.88-5.29
		c0.11-0.62,0.27-1.23,0.41-1.84C485.82,222.1,486.01,222.13,486.2,222.16z"/>
	<path class="st0" d="M556.55,348.39c1.24,0.31,2.18,0.54,3.46,0.86c-0.55,0.23-0.75,0.37-0.96,0.39c-1.16,0.16-2.63,0.76-3.32-0.39
		c-0.45-0.75-0.12-2.1,0.15-3.1c0.36-1.32,1.06-2.54,1.52-3.84c0.3-0.83,0.43-1.72,0.67-2.68c-1.96,0.02-2.83,1.23-3.93,2.74
		c-0.06-0.73-0.17-1.04-0.09-1.27c0.42-1.24,2.36-2.5,3.69-2.51c0.92,0,1.49,0.46,1.36,1.33c-0.21,1.35-0.57,2.67-0.97,3.98
		C557.68,345.37,557.12,346.8,556.55,348.39z"/>
	<path class="st0" d="M618.86,357.21c-2.37-0.13-4.64-0.25-6.9-0.38c0-0.2,0.01-0.39,0.01-0.59c2.02-0.87,4.24-0.2,6.48-0.59
		c-0.3-1.11-0.6-2.21-0.89-3.31c0.21-0.07,0.41-0.14,0.62-0.22c0.4,0.81,0.93,1.58,1.17,2.43c0.3,1.05,0.87,1.61,1.9,1.9
		c0.65,0.18,1.25,0.55,1.87,0.85c-0.05,0.16-0.1,0.32-0.14,0.48c-0.86-0.08-1.72-0.16-2.71-0.26c0.16,1.31,0.3,2.56,0.45,3.8
		c-0.17,0.06-0.34,0.13-0.51,0.19c-0.25-0.61-0.56-1.21-0.75-1.85C619.22,358.93,619.08,358.16,618.86,357.21z"/>
	<path class="st0" d="M456.8,357.48c-1.31,0-2.62,0-4.18,0c0.19,1.75,0.36,3.38,0.54,5.01c-2.1-1.15-1.51-3.19-1.87-5.13
		c-1.61,0-3.19,0-4.77,0c-0.01-0.15-0.03-0.31-0.04-0.46c1.46-0.8,3.22-0.36,4.82-0.79c0.08-1.52,0.16-2.97,0.24-4.42
		c0.23-0.01,0.46-0.01,0.69-0.01c0.15,1.48,0.3,2.96,0.46,4.47c1.4,0.28,2.8,0.55,4.19,0.83
		C456.84,357.15,456.82,357.31,456.8,357.48z"/>
	<path class="st0" d="M521.72,355.69c-1.03,0.26-2.05,0.52-3.21,0.82c0.11,1.75,0.23,3.54,0.34,5.32c-0.18,0.02-0.36,0.05-0.53,0.07
		c-0.38-1.69-0.76-3.37-1.17-5.23c-1.91,0-3.83,0-5.76,0c-0.02-0.17-0.05-0.35-0.07-0.52c1.71-0.78,3.7-0.34,5.53-0.84
		c-0.2-1.46-0.39-2.89-0.58-4.32c0.22-0.04,0.45-0.09,0.67-0.13c0.42,1.39,0.84,2.79,1.29,4.27c1.11,0,2.26,0,3.4,0
		C521.66,355.32,521.69,355.5,521.72,355.69z"/>
	<path class="st0" d="M566.05,355.92c-0.15-1.09-0.3-2.1-0.49-3.46c1.6,0.97,1.27,2.46,1.81,3.48c1.48,0.53,3.39-0.14,4.57,1.87
		c-1.54-0.14-2.82-0.26-4.26-0.38c0.14,1.82,0.27,3.49,0.39,5.17c-0.21,0.04-0.42,0.07-0.64,0.11c-0.44-1.76-0.89-3.51-1.4-5.55
		c-1.53,0-3.13,0-4.72,0c-0.01-0.17-0.02-0.34-0.02-0.51C562.72,355.87,564.42,356.42,566.05,355.92z"/>
	<path class="st0" d="M500.73,220.44c0.45,3.7,0.28,7.38-0.89,11.21c1.57,0.18,3.02,0.35,4.48,0.52c0.02,0.13,0.04,0.26,0.06,0.39
		c-0.37,0.17-0.73,0.46-1.11,0.48c-1.1,0.07-2.21,0.14-3.3,0.02c-1.17-0.13-1.74-0.95-1.38-2.07c0.99-3.11,1.28-6.3,1.29-9.54
		c0-0.37,0.26-0.74,0.39-1.11C500.4,220.37,500.56,220.4,500.73,220.44z"/>
	<path class="st0" d="M572.32,244.27c1.48-0.91,2.23-0.66,2.63,1.05c0.32,1.38,0.45,2.8,0.66,4.2c-0.21,0.08-0.43,0.17-0.65,0.25
		c-0.3-0.61-0.68-1.2-0.89-1.84c-0.23-0.72-0.31-1.49-0.46-2.25c-0.12-0.01-0.23-0.02-0.35-0.02c-0.13,0.88-0.22,1.76-0.42,2.63
		c-0.07,0.29-0.36,0.62-0.63,0.73c-0.15,0.06-0.64-0.27-0.68-0.49c-0.45-2.11-0.85-4.23-1.22-6.35c-0.04-0.2,0.19-0.45,0.72-0.81
		C571.46,242.31,571.87,243.25,572.32,244.27z"/>
	<path class="st0" d="M240.55,228.71c0.07-1.14-0.2-2.47,0.3-3.36c0.78-1.36,0.56-2.37-0.18-3.5c-0.29-0.44-0.54-0.9-0.83-1.39
		c1.03-0.26,1.03-0.26,2.58,1.89c0.56-0.84,1.09-1.64,1.82-2.73c0.2,0.6,0.35,0.86,0.34,1.11c-0.01,0.26-0.13,0.55-0.29,0.76
		c-1.27,1.69-1.05,3.34-0.01,5.05c0.26,0.42,0.23,1.02,0.34,1.53c-0.2,0.08-0.4,0.17-0.59,0.25c-0.59-0.89-1.19-1.78-1.89-2.83
		c-0.33,1.19-0.62,2.27-0.92,3.34C241,228.79,240.78,228.75,240.55,228.71z"/>
	<path class="st0" d="M446.2,346.49c-1.17,0.09-2.36,0.34-3.51,0.23c-1.04-0.1-1.36-1.07-1.2-2c0.22-1.31,0.61-2.58,0.92-3.87
		c0.18-0.74,0.33-1.49,0.5-2.23c-0.14-0.09-0.27-0.18-0.41-0.27c-0.54,0.54-1.06,1.11-1.62,1.62c-0.2,0.18-0.5,0.26-0.75,0.39
		c-0.07-0.28-0.24-0.58-0.19-0.84c0.21-1.02,1.86-2.42,2.85-2.21c0.49,0.1,1.16,0.8,1.22,1.29c0.1,0.88-0.16,1.8-0.35,2.7
		c-0.2,0.94-0.5,1.86-0.71,2.8c-0.08,0.35-0.01,0.73-0.01,1.34c1.06,0.15,2.14,0.3,3.22,0.46
		C446.19,346.08,446.2,346.28,446.2,346.49z"/>
	<path class="st0" d="M261.21,219.95c-0.12,0.73-0.06,1.56-0.4,2.17c-1.1,1.97,0.06,3.25,1.17,4.61c0.28,0.34,0.49,0.74,0.89,1.35
		c-2.05-0.16-2.63-1.51-3.39-2.81c-0.85,1.16-1.63,2.22-2.41,3.28c-0.14-0.05-0.28-0.1-0.41-0.16c0.02-0.4-0.02-0.82,0.09-1.2
		c0.13-0.43,0.38-0.83,0.6-1.23c1.34-2.5,1.26-2.98-0.87-4.9c0.59-0.71,0.59-0.71,2.87,1.5c0.45-0.94,0.89-1.85,1.32-2.75
		C260.84,219.85,261.03,219.9,261.21,219.95z"/>
	<path class="st0" d="M569.38,297.39c0.35-0.23,0.71-0.68,1.06-0.67c4.21,0.04,8.42,0.08,12.63,0.27c0.79,0.04,1.55,0.78,2.45,1.26
		c-5.51-0.2-10.71-0.4-15.9-0.59C569.54,297.57,569.46,297.48,569.38,297.39z"/>
	<path class="st0" d="M387.52,388.89c-1.91,0-3.82-0.01-5.73,0c-2.76,0.02-5.52,0.1-8.27,0.06c-0.46-0.01-0.92-0.5-1.38-0.77
		c0.49-0.2,0.98-0.58,1.47-0.58c3.77-0.05,7.54-0.06,11.3,0.01c0.9,0.02,1.8,0.38,2.7,0.58
		C387.58,388.42,387.55,388.66,387.52,388.89z"/>
	<path class="st0" d="M513.16,309.74c1.69,0.08,3.27,0.15,4.84,0.23c0.02,0.13,0.05,0.27,0.07,0.4c-0.6,0.15-1.19,0.35-1.79,0.43
		c-0.99,0.14-2,0.3-3.01,0.3c-1.55,0-2.07-0.86-1.38-2.26c0.42-0.86,1.04-1.63,1.48-2.48c0.39-0.74,0.66-1.55,0.98-2.33
		c-0.13-0.15-0.25-0.31-0.37-0.46c-0.89,0.33-1.78,0.67-2.74,1.03c-0.02-0.07-0.15-0.29-0.1-0.46c0.29-1.04,1.93-1.77,3.22-1.43
		c1.28,0.34,1.34,1.38,0.99,2.31C514.77,306.55,513.98,308,513.16,309.74z"/>
	<path class="st0" d="M232.72,275.14c0.42-0.69,0.77-1.45,1.29-2.05c0.66-0.76,1.45-1.4,2.2-2.07c0.8-0.73,0.82-1.49-0.14-1.99
		c-1.33-0.69-2.76-1.19-4.1-1.85c-0.44-0.22-0.75-0.69-1.12-1.05c0.49-0.09,1.05-0.4,1.44-0.24c1.65,0.65,3.35,1.25,4.82,2.21
		c1.55,1.01,1.51,2.57,0.12,3.81c-1.35,1.2-2.79,2.29-4.2,3.43C232.93,275.28,232.82,275.21,232.72,275.14z"/>
	<path class="st0" d="M208.34,312.11c-1.83-0.24-4.01,1.46-4.03,3.16c0,0.44,0.51,1.17,0.9,1.26c0.96,0.21,1.99,0.15,2.99,0.14
		c0.48,0,0.96-0.15,1.52-0.24c-0.57,1.65-1.85,2.06-4.47,1.61c-1.54-0.27-2.41-1.17-2.42-2.53c-0.02-2.1,2.57-4.91,4.66-4.97
		C208.54,310.51,208.68,311.16,208.34,312.11z"/>
	<path class="st0" d="M514.05,275.64c-0.79,0.45-1.57,0.91-2.55,1.47c-0.05-0.19-0.24-0.49-0.17-0.71c0.1-0.27,0.37-0.6,0.64-0.68
		c1.01-0.31,2.32-1.04,3-0.67c1.04,0.57,0.33,1.9-0.03,2.87c-0.5,1.37-1.05,2.72-1.58,4.08c1.16,0.85,2.91-0.12,3.86,1.7
		c-1.44,0-2.66,0.08-3.86-0.02c-1.2-0.1-1.69-0.98-1.24-2.22c0.48-1.34,1.13-2.61,1.67-3.93c0.22-0.53,0.36-1.09,0.53-1.63
		C514.24,275.81,514.14,275.73,514.05,275.64z"/>
	<path class="st0" d="M587.48,254.04c1.18-1.23,12.4-1.51,13.72-0.35C600.07,254.55,588.23,254.86,587.48,254.04z"/>
	<path class="st0" d="M226.21,230.29c-0.42-0.02-0.73-0.03-1.04-0.07c-0.3-0.04-0.6-0.1-0.9-0.16c-0.03-0.15-0.06-0.3-0.08-0.44
		c0.76-0.17,1.53-0.35,2.43-0.56c0.45-1.23,0.94-2.55,1.42-3.87c0.21,0.05,0.43,0.1,0.64,0.15c-0.11,1.16-0.22,2.32-0.34,3.57
		c0.42,0.1,0.94,0.23,1.56,0.39c-0.15,0.17-0.21,0.28-0.3,0.32c-0.6,0.27-1.57,0.38-1.75,0.82c-0.38,0.94-0.56,2.08-0.43,3.08
		c0.06,0.45,1.05,0.78,1.74,1.24c-0.26,0.7-1.05,0.69-1.78,0.58c-1.02-0.15-1.5-0.9-1.48-1.87
		C225.92,232.45,226.09,231.41,226.21,230.29z"/>
	<path class="st0" d="M254.86,357.89c0.98-0.45,1.82-0.82,2.65-1.19c-0.01-0.19-0.03-0.38-0.04-0.58c-0.85-0.36-1.71-0.72-2.56-1.1
		c-1.27-0.56-1.82-1.6-1.37-2.61c0.41-0.94,2.12-1.67,3.09-1.26c0.32,0.14,0.56,0.48,1.15,1.01c-0.9,0.06-1.38,0.03-1.83,0.15
		c-0.41,0.11-0.77,0.39-1.5,0.78c0.81,0.41,1.3,0.66,1.8,0.91c0.65,0.33,1.38,0.57,1.93,1.02c0.89,0.72,0.91,1.66,0.23,2.57
		c-0.69,0.92-2.39,1.54-3.03,1.07C255.09,358.45,254.96,358.05,254.86,357.89z"/>
	<path class="st0" d="M572.4,300.59c2.01-1.04,12.67-0.82,13.91,0.24C584.85,301.64,573.3,301.51,572.4,300.59z"/>
	<path class="st0" d="M282.27,349.39c-1.19,1.95-6.33,1.91-7.32,0.14c-0.91-1.62,0.71-5.21,2.55-5.57c0.3-0.06,0.63,0.11,1.28,0.24
		c-0.53,0.56-0.83,0.86-1.11,1.19c-0.39,0.44-0.86,0.85-1.15,1.36c-0.97,1.7-0.45,2.6,1.52,2.65c0.96,0.02,1.93-0.09,2.89-0.11
		C281.34,349.27,281.76,349.35,282.27,349.39z"/>
	<path class="st0" d="M509.01,220.76c-0.52,0.98-0.95,2.03-1.62,2.89c-0.27,0.35-1.08,0.42-1.63,0.36
		c-0.62-0.06-1.82-3.08-1.69-3.98c0.14-1,1.23-1.87,2.39-1.91C507.9,218.06,508.71,218.96,509.01,220.76z M506.05,222.78
		c1.33-0.8,1.32-1.81,1.12-2.78c-0.06-0.29-0.62-0.48-1.12-0.83C506.05,220.54,506.05,221.51,506.05,222.78z"/>
	<path class="st0" d="M562.57,307.38c-1.12,0.23-2.23,0.59-3.36,0.65c-1.16,0.06-1.65-0.77-1.19-1.86c0.36-0.83,0.92-1.58,1.35-2.39
		c0.33-0.62,0.6-1.28,0.89-1.92c-0.12-0.13-0.24-0.26-0.36-0.39c-0.8,0.43-1.61,0.86-2.47,1.32c-0.42-1.02,0.32-1.44,0.9-1.87
		c0.78-0.58,1.74-0.92,2.52-0.24c0.42,0.36,0.72,1.26,0.59,1.8c-0.23,0.95-0.82,1.82-1.28,2.71c-0.23,0.44-0.49,0.85-0.84,1.44
		c1.19,0.12,2.2,0.21,3.2,0.31C562.54,307.09,562.55,307.24,562.57,307.38z"/>
	<path class="st0" d="M273.88,223.46c-0.09,1.18-0.15,2.09-0.22,2.99c-0.22,0.01-0.45,0.02-0.67,0.04c-0.15-0.95-0.3-1.91-0.47-3.02
		c-0.79,0-1.56,0.06-2.32-0.03c-0.38-0.05-0.73-0.38-1.09-0.58c0.37-0.27,0.7-0.7,1.1-0.77c0.76-0.12,1.55-0.04,2.44-0.04
		c0.09-1.02,0.16-1.9,0.26-3.07c1.33,0.86,0.54,2.03,1.02,2.94c1.18,0.47,3.1-0.26,3.99,1.88
		C276.37,223.67,275.16,223.57,273.88,223.46z"/>
	<path class="st0" d="M603,256.77c-4.47,0-8.92,0-13.65,0C591.24,254.98,602.41,255.16,603,256.77z"/>
	<path class="st0" d="M387.49,390.78c-1.69,0.28-3.37,0.64-5.08,0.8c-2.42,0.23-4.85,0.33-7.29,0.41c-0.37,0.01-0.76-0.42-1.14-0.65
		c0.37-0.17,0.74-0.46,1.12-0.5c3.61-0.37,7.22-0.72,10.83-1.02c0.52-0.04,1.06,0.19,1.58,0.3
		C387.51,390.34,387.5,390.56,387.49,390.78z"/>
	<path class="st0" d="M491.84,220.78c-0.73,0.51-1.3,0.9-1.88,1.29c-0.1-0.11-0.2-0.23-0.3-0.34c0.72-1.51,1.42-3.03,2.17-4.51
		c0.1-0.2,0.63-0.41,0.77-0.32c0.27,0.18,0.53,0.55,0.55,0.86c0.09,1.05,0.07,2.11,0.11,3.17c0.04,1.24,0.1,2.48,0.11,3.72
		c0,0.35-0.17,0.7-0.26,1.05c-0.36-0.28-0.96-0.51-1.03-0.85c-0.2-0.98-0.18-2.01-0.24-3.01
		C491.82,221.53,491.84,221.21,491.84,220.78z"/>
	<path class="st0" d="M542.38,360.48c-0.53,0.49-1.06,0.99-1.66,1.55c-0.63-1.08,0.04-1.73,0.66-2.12c0.59-0.36,1.45-0.58,2.09-0.44
		c0.3,0.06,0.64,1.2,0.51,1.73c-0.35,1.46-0.95,2.85-1.5,4.43c0.95,0.05,1.82,0.1,2.68,0.14c-0.93,1.05-2.1,1.37-3.28,1.1
		c-0.36-0.09-0.8-1.11-0.7-1.62c0.21-1.11,0.74-2.16,1.12-3.24c0.15-0.44,0.26-0.9,0.38-1.35
		C542.59,360.6,542.49,360.54,542.38,360.48z"/>
	<path class="st0" d="M545.31,224.67c-0.11-2-0.21-3.76-0.31-5.62c-0.63,0.52-1.13,0.93-1.63,1.34c-0.11-0.09-0.21-0.19-0.32-0.28
		c0.6-1.59,1.17-3.19,1.84-4.76c0.04-0.1,1.09,0.04,1.1,0.13c0.34,2.95,0.67,5.92-0.2,8.84
		C545.77,224.39,545.65,224.43,545.31,224.67z"/>
	<path class="st0" d="M637.66,359.61c-0.89,0.37-1.4,0.58-2.02,0.84c0.22-1.15,1.29-1.94,2.14-1.7c1.01,0.28,1.06,1.1,0.8,1.88
		c-0.4,1.21-0.92,2.38-1.55,3.96c1.33-0.5,2.36-0.89,3.37-1.27c-0.4,1.42-2.33,2.68-3.71,2.39c-0.94-0.2-1.35-0.79-0.97-1.71
		c0.38-0.93,0.89-1.81,1.31-2.72C637.24,360.84,637.38,360.37,637.66,359.61z"/>
	<path class="st0" d="M408.13,353.85c-4.2,0-8.4,0-12.6,0c-0.07-0.15-0.13-0.29-0.2-0.44c0.38-0.22,0.76-0.62,1.15-0.62
		c3.4-0.04,6.79-0.04,10.19,0.02c0.52,0.01,1.04,0.37,1.55,0.57C408.19,353.53,408.16,353.69,408.13,353.85z"/>
	<path class="st0" d="M486.53,359.31c-0.84,0.14-1.61,0.26-2.4,0.39c0.19-1.04,1.44-1.7,2.6-1.41c1.14,0.28,1.4,1.09,1.17,2.12
		c-0.12,0.53-0.35,1.05-0.56,1.56c-0.21,0.51-0.45,1-0.79,1.74c1.14,0,2.15,0,3.32,0c-0.91,1.21-3.06,1.77-4.05,1.18
		c-0.94-0.56-0.75-1.36-0.39-2.17c0.39-0.88,0.77-1.77,1.14-2.66C486.62,359.9,486.55,359.7,486.53,359.31z"/>
	<path class="st0" d="M537.5,360.13c-0.73,0.16-1.16,0.25-1.59,0.35c0.29-0.99,1.07-1.41,1.84-1.18c0.36,0.1,0.77,1.17,0.63,1.62
		c-0.43,1.33-1.12,2.58-1.83,4.1c1.05-0.05,1.93-0.09,2.85-0.13c-0.63,0.94-2.39,1.68-3.31,1.41c-1.01-0.29-1.13-1.07-0.8-1.86
		c0.36-0.88,0.92-1.68,1.37-2.54C536.95,361.38,537.18,360.84,537.5,360.13z"/>
	<path class="st0" d="M190.36,280.32c1.01-0.51,2.15-0.54,3.15,0.32c0.88,0.75,1.26,1.83,0.63,2.84c-0.37,0.59-1.19,1.15-1.87,1.25
		c-0.94,0.13-1.41-0.69-1.55-1.6C190.59,282.3,190.5,281.47,190.36,280.32z M192.01,283.38c0.2,0.01,0.41,0.01,0.61,0.02
		c0.09-0.42,0.34-0.9,0.21-1.24c-0.12-0.33-0.63-0.51-0.97-0.76c-0.11,0.1-0.22,0.19-0.33,0.29
		C191.68,282.25,191.85,282.82,192.01,283.38z"/>
	<path class="st0" d="M585.75,246.71c-0.36,0.03-0.7,0.06-1.16,0.1c-0.05-0.36-0.21-0.69-0.13-0.93c0.32-0.95,0.67-1.9,1.1-2.81
		c0.12-0.26,0.56-0.56,0.82-0.52c0.25,0.03,0.64,0.44,0.66,0.7c0.1,1.82,0.14,3.65,0.14,5.48c0,0.18-0.44,0.53-0.64,0.51
		c-0.24-0.03-0.58-0.34-0.63-0.58C585.79,248.02,585.8,247.37,585.75,246.71z"/>
	<path class="st0" d="M409.3,356.98c-1.89,1.11-10.63,0.57-12.01-0.83C401.44,355.93,405.25,356.23,409.3,356.98z"/>
	<path class="st0" d="M263.75,226.86c0.22-0.75,0.62-1.49,1.69-1.47c1.11,0.02,2.03,1.28,1.92,2.56c-0.11,1.35-0.86,2.29-1.77,2.2
		C264.53,230.05,263.61,228.48,263.75,226.86z M265.46,228.95c0.61-1.25,0.69-1.96-0.72-2.58
		C265,227.31,265.18,227.96,265.46,228.95z"/>
	<path class="st0" d="M598.73,365.01c-1.37-1.1-1.36-2.79-1.68-4.67c-0.65,1.17-1.17,2.11-1.8,3.27c-0.31-1.38,0.76-4.37,1.62-4.64
		c0.38-0.12,1.29,0.27,1.36,0.56c0.42,1.76,0.66,3.56,0.95,5.35C599.03,364.92,598.88,364.96,598.73,365.01z"/>
	<path class="st0" d="M245.51,223.86c1.01-1.71,7.86-1.62,8.94,0C251.47,223.86,248.6,223.86,245.51,223.86z"/>
	<path class="st0" d="M429.33,367.38c-0.42-2.01-0.77-3.67-1.16-5.54c-0.42,0.88-0.76,1.6-1.18,2.49c-0.42-1.18,0.21-3.47,0.99-3.86
		c0.26-0.13,0.82-0.03,1.02,0.18C429.86,361.52,430.18,365.77,429.33,367.38z"/>
	<path class="st0" d="M481.74,364.12c-0.36-0.8-0.72-1.61-1.11-2.49c-0.34,0.19-0.68,0.38-1.02,0.56c-0.1-0.06-0.21-0.13-0.31-0.18
		c0.43-1.34,0.85-2.68,1.28-4.03c0.22,0.01,0.44,0.01,0.66,0.01c0.81,1.88,0.89,3.91,1.04,5.92
		C482.11,363.99,481.92,364.06,481.74,364.12z"/>
	<path class="st0" d="M424.61,366.05c-0.22-0.71-0.45-1.42-0.68-2.14c-0.4,0.31-0.8,0.62-1.2,0.92c-0.12-0.09-0.24-0.18-0.36-0.27
		c0.55-1.36,1.09-2.73,1.7-4.07c0.03-0.07,0.96,0.11,0.96,0.18c0.06,1.77,0.04,3.54,0.04,5.32
		C424.92,366.02,424.77,366.03,424.61,366.05z"/>
	<path class="st0" d="M301.8,278.13c1.31,2.8,1.69,5.77,1.54,8.84c-0.19,0.04-0.38,0.07-0.57,0.11c-0.56-2.93-1.11-5.86-1.67-8.79
		C301.33,278.23,301.56,278.18,301.8,278.13z"/>
	<path class="st0" d="M247.6,225.69c1.67-1.61,6.31-1.4,7.69,0C252.69,225.69,250.14,225.69,247.6,225.69z"/>
	<path class="st0" d="M494.61,231.41c1.24,0.35,1.58,5.09,0.38,6.82C494.24,235.8,494.47,233.63,494.61,231.41z"/>
	<path class="st0" d="M373.11,358.05c0.23,1.95,0.46,3.91,0.74,6.21C372.21,362.98,371.71,359.29,373.11,358.05z"/>
	<path class="st0" d="M210.52,302.56c1.35,1.28,2.23,5.12,1.48,6.1C211.22,306.75,210,305.02,210.52,302.56z"/>
	<path class="st0" d="M582.26,247.11c-1.9,0-3.8,0-5.69,0c-0.06-0.09-0.12-0.18-0.18-0.28c0.39-0.22,0.77-0.6,1.17-0.63
		c1.6-0.11,3.27-0.48,4.74,0.42C582.28,246.79,582.27,246.95,582.26,247.11z"/>
	<path class="st0" d="M261.18,346.2c2.65-0.36,5-0.68,7.64-1.04C267.76,346.49,262.56,347.12,261.18,346.2z"/>
	<path class="st0" d="M282.84,307.88c1.92-0.58,2.91-0.27,3.65,1.16C284.66,309.33,283.21,308.87,282.84,307.88z"/>
	<path class="st0" d="M338.2,381.52c0.59,1.35,1.09,2.5,1.62,3.72C337.36,384.26,337,383.53,338.2,381.52z"/>
	<path class="st0" d="M478.46,381.56c1.32,0.25,2.45,1.92,2.5,3.73C480.29,383.98,478.57,383.39,478.46,381.56z"/>
	<path class="st0" d="M260.41,346.74c-1.32,0-2.64,0-3.96,0c0-0.18,0-0.35,0-0.53c1.31,0,2.62,0,3.93,0
		C260.4,346.39,260.4,346.56,260.41,346.74z"/>
	<path class="st0" d="M390.47,355.58c-0.43-0.63-0.91-1.22-1.28-1.89c-0.11-0.2,0.03-0.57,0.13-0.83c0.03-0.06,0.53-0.05,0.59,0.05
		c0.42,0.78,0.78,1.59,1.16,2.39C390.88,355.4,390.67,355.49,390.47,355.58z"/>
	<path class="st0" d="M407.38,381.06c0.13,1.21,0.21,2.04,0.29,2.86c-0.11,0.06-0.21,0.12-0.31,0.18c-0.41-0.73-0.86-1.44-1.17-2.22
		C406.15,381.8,406.88,381.4,407.38,381.06z"/>
	<path class="st0" d="M232.92,221.72c-0.41-0.42-0.82-0.84-1.23-1.27c0.36-0.19,0.92-0.62,1.05-0.52c0.37,0.3,0.57,0.82,0.84,1.25
		C233.36,221.37,233.14,221.54,232.92,221.72z"/>
	<path class="st0" d="M233.53,225.41c-0.55,0.35-0.82,0.66-1.09,0.65c-0.27,0-0.53-0.32-0.8-0.49c0.25-0.25,0.46-0.63,0.76-0.71
		C232.62,224.79,232.95,225.11,233.53,225.41z"/>
	<path class="st0" d="M391.12,359.18c-0.32,0.2-0.56,0.46-0.71,0.42c-0.18-0.05-0.35-0.35-0.39-0.56c-0.02-0.1,0.31-0.39,0.43-0.36
		C390.66,358.71,390.82,358.94,391.12,359.18z"/>
	<path class="st0" d="M209.04,333.28c-0.66,0.3-1.15,0.42-1.51,0.71c-0.28,0.22-0.54,0.65-0.54,0.98c0,0.21,0.47,0.51,0.77,0.61
		c0.83,0.26,1.73,0.31,2.51,0.65c1.11,0.5,1.34,1.56,0.41,2.32c-0.82,0.67-1.89,1.06-2.9,1.45c-0.22,0.09-0.66-0.39-1-0.61
		c0.28-0.35,0.49-0.86,0.85-1.01c0.61-0.26,1.31-0.3,1.97-0.43c0-0.17-0.01-0.35-0.01-0.53c-0.81-0.17-1.63-0.32-2.43-0.53
		c-1.33-0.34-1.88-1.3-1.53-2.6c0.29-1.07,1.63-1.86,2.71-1.58C208.52,332.74,208.63,332.92,209.04,333.28z"/>
	<path class="st0" d="M216.89,367.77c-1.33,0.17-2.29,0.29-3.49,0.44c0.11,1.72,0.22,3.41,0.34,5.2c-1.16-0.3-1.62-1.01-1.62-2.08
		c-0.01-0.95,0-1.9,0-3.04c-1.06,0-1.95,0-2.99,0C210.41,366.82,215.24,366.38,216.89,367.77z"/>
	<path class="st0" d="M249.18,312.83c-0.85,0-1.51,0-2.17,0c-0.06-0.15-0.12-0.29-0.19-0.44c0.51-0.26,1.02-0.69,1.55-0.73
		c1.5-0.09,3.12-0.54,4.33,1.09c-0.7,0.04-1.4,0.07-2.13,0.11c-0.19,1.59-0.33,3.17-0.59,4.74c-0.07,0.39-0.51,0.72-0.78,1.08
		c-0.18-0.41-0.53-0.84-0.51-1.24C248.77,315.93,248.99,314.45,249.18,312.83z"/>
	<path class="st0" d="M256.54,315.05c-0.1-1.99-0.2-3.98-0.32-6.21C257.36,309.71,257.53,313.04,256.54,315.05z"/>
	<path class="st0" d="M211,327.66c1.2,1.49,0.63,3.08,0.14,4.68C210.43,330.82,210.56,329.25,211,327.66z"/>
	<path class="st0" d="M213.93,328.13c-1.75-0.6-2.93-2.87-2.49-4.72C212.31,325.06,213.03,326.42,213.93,328.13z"/>
	<path class="st0" d="M266.85,305.85c0.92,0.27,1.84,0.55,2.75,0.82C268.13,307.5,267.24,307.25,266.85,305.85z"/>
	<path class="st0" d="M270.58,306.87c0.6,0.09,1.2,0.17,1.81,0.26c-0.01,0.12-0.02,0.25-0.04,0.37c-0.61,0-1.23,0-1.84,0
		C270.54,307.3,270.56,307.09,270.58,306.87z"/>
	<path class="st0" d="M232.96,338.43c-0.12-1.02-0.24-2.05-0.33-2.83c-0.57,0.49-1.27,1.11-1.99,1.73
		c-0.45-0.56-0.91-1.13-1.31-1.63c-0.35,0.64-0.8,1.44-1.25,2.25c-0.15-0.04-0.29-0.08-0.44-0.12c-0.04-0.37-0.19-0.77-0.1-1.12
		c0.34-1.47,0.72-2.94,1.16-4.39c0.1-0.33,0.59-0.83,0.77-0.78c0.36,0.09,0.8,0.47,0.91,0.82c0.26,0.87,0.34,1.79,0.56,3.08
		c0.58-1.07,0.96-1.86,1.43-2.59c0.17-0.27,0.57-0.58,0.83-0.55c0.27,0.03,0.67,0.43,0.7,0.71c0.19,1.81,0.36,3.63-0.35,5.36
		C233.35,338.4,233.16,338.41,232.96,338.43z"/>
	<path class="st0" d="M224.21,339.54c-2.47,0.95-2.47-1.9-3.95-2.43c0.09-0.13,0.18-0.27,0.28-0.41
		C221.74,337.63,222.94,338.56,224.21,339.54z"/>
	<path class="st0" d="M242.19,345.21c1.57,0,3.14,0,4.79,0C246.07,346.32,243.84,346.4,242.19,345.21z"/>
	<path class="st0" d="M449.29,300.94c-1.25,0.46-1.6-0.07-1.92-0.84c-1.33-3.22-2.71-6.43-4.07-9.64c-0.13-0.29-0.28-0.57-0.52-1.04
		c-1.77,0.34-3.56,0.68-5.72,1.09c0.66,2.97,1.29,5.81,1.94,8.65c0.35,1.52,0.78,3.02,1.07,4.55c0.07,0.35-0.28,0.77-0.44,1.15
		c-0.32-0.31-0.83-0.57-0.92-0.94c-0.96-3.91-1.85-7.85-2.76-11.77c-0.09-0.39-0.18-0.78-0.29-1.25c-0.65,0.14-1.18,0.24-1.84,0.38
		c0.38,0.15,0.64,0.25,0.91,0.36c-0.01,0.13-0.01,0.27-0.02,0.4c-3.14,0.1-6.31-0.07-9.39,0.37c-3.24,0.46-6.27-0.39-9.38-0.71
		c-3.2-0.33-6.37-0.91-9.62-1.4c-1.61,2.54-3.24,5.13-5.01,7.93c-0.3-0.13-0.89-0.21-1.07-0.52c-0.15-0.25,0.09-0.86,0.32-1.19
		c1.51-2.13,3.06-4.22,4.7-6.46c-2.78-1.07-5.54-1.62-7.66-3.58c2.69,0.77,5.38,1.55,8.13,2.33c2.66-5.54,3.2-11.39,4.46-17.11
		c-2.33-0.72-4.6-1.42-6.88-2.12c0.06-0.21,0.12-0.43,0.18-0.64c1.1,0.29,2.2,0.6,3.3,0.87c1.15,0.29,2.32,0.56,3.67,0.88
		c1.17-6.01,1.04-11.99,0.72-17.85c-2.92-0.98-5.66-1.9-8.39-2.81c0.05-0.18,0.11-0.35,0.16-0.53c2.6,0.69,5.21,1.38,8.26,2.18
		c-1.32-6.12-2.55-11.8-3.79-17.5c-2.95-0.6-5.87-1.2-8.79-1.8c0.03-0.19,0.06-0.38,0.09-0.57c2.75,0.37,5.5,0.73,8.51,1.14
		c-1.26-3.89-3.32-7.25-3.99-11.06c0.18-0.08,0.37-0.16,0.56-0.24c0.34,0.87,0.69,1.73,1.02,2.6c0.38,0.99,0.73,1.98,1.13,2.96
		c0.38,0.93,0.86,1.83,1.23,2.76c0.39,0.98,0.7,1.98,1.06,3.01c7.9,0.5,15.79,0.58,23.83,0.29c0.11-2.32,0.21-4.41,0.31-6.5
		c0.13-0.01,0.27-0.01,0.4-0.02c0,2.05,0,4.1,0,6.45c2.14-0.54,3.96-0.94,5.73-1.5c0.38-0.12,0.64-0.8,0.83-1.27
		c1.25-3.07,2.47-6.16,3.7-9.25c0.22,0.06,0.44,0.12,0.66,0.18c-0.1,0.51-0.14,1.04-0.32,1.52c-0.84,2.28-1.73,4.55-2.58,6.82
		c-0.15,0.41-0.22,0.86-0.42,1.62c1.97-0.63,3.69-1.21,5.43-1.72c0.39-0.12,0.86,0.01,1.29,0.02c-0.32,0.34-0.58,0.86-0.97,1
		c-1.69,0.6-3.43,1.05-5.12,1.65c-0.44,0.15-0.99,0.57-1.11,0.98c-1.71,5.66-2.54,11.47-3.07,17.34c-0.01,0.12,0.06,0.26,0.12,0.48
		c3.37-0.46,6.44-2.19,9.88-2.33c-3.16,1.88-6.76,2.51-10.24,3.68c-0.18,1.61-0.96,3.47-0.4,4.74c1.06,2.38,0.01,4.75,0.65,7.04
		c0.65,2.28,1.17,4.61,1.75,6.96c3.94-0.73,7.75-1.45,10.88-4.1c0.12,0.17,0.24,0.34,0.36,0.52c-0.64,0.62-1.16,1.49-1.92,1.81
		c-2.28,0.94-4.64,1.68-6.98,2.47c-0.6,0.2-1.23,0.3-1.97,0.48c1.59,5.2,3.14,10.26,4.72,15.4c4.34-0.76,8.1-2.44,11.53-5.02
		c0.69,0.81,0.75,1.33-0.15,1.94c-3.24,2.19-6.79,3.63-10.76,4.51C446.02,293.12,447.63,296.98,449.29,300.94z M407.33,289
		c9.18,1.3,18.54,3.28,27.89,0.36c-0.37-5.35-0.74-10.68-1.12-16.01c-7.72,0.92-15.34,0.75-22.81-1.47
		C409.95,277.66,408.65,283.27,407.33,289z M412.41,253.08c-0.19,5.85-0.38,11.79-0.57,17.89c7.16,1.98,14.73,2.11,22.42,1.23
		c0-1.82,0-3.38,0-4.94c0-1.61,0-3.21,0-4.78c-1.97-1.09-2.62-3.22-0.01-5.16c-0.3-1.4-0.61-2.81-0.93-4.25
		C426.23,253.08,419.26,253.08,412.41,253.08z M433.07,252.11c-0.42-6.08-0.81-11.87-1.22-17.8c-7.74,0-15.56,0-23.42,0
		c1.23,5.69,2.47,11.46,3.75,17.36C419.08,252.5,426.04,252.41,433.07,252.11z M436.68,289.16c2.11-0.45,3.83-0.81,5.61-1.19
		c-1.6-5.17-3.15-10.24-4.74-15.38c-0.71,0.2-1.22,0.34-1.96,0.55C435.95,278.47,436.31,283.72,436.68,289.16z M433.03,234.26
		c0.1,5.9,0.6,11.65,1.43,17.37c0.16,0.01,0.32,0.01,0.48,0.02c1.12-6.22,2.25-12.45,3.36-18.59
		C436.7,233.43,434.97,233.83,433.03,234.26z M435.97,265.6c-0.04,0.01-0.08,0.03-0.13,0.04c0,2.03,0,4.05,0,6.21
		c0.52-0.14,0.89-0.24,1.36-0.37C436.77,269.46,436.37,267.53,435.97,265.6z M435.03,252.91c-0.09-0.01-0.18-0.01-0.28-0.02
		c0,0.28,0,0.57,0,0.85c0.06,0,0.12,0.01,0.18,0.01C434.97,253.47,435,253.19,435.03,252.91z"/>
	<path class="st0" d="M449.24,264.91c-2.25-2.2-1.13-5.32-2.12-8.1c-0.3,1.39-0.49,2.61-0.84,3.78c-0.13,0.43-0.64,0.75-0.98,1.12
		c-0.26-0.38-0.63-0.72-0.75-1.14c-0.27-0.96-0.42-1.95-0.69-2.92c-0.32,2.35,0.1,4.76-0.57,7.05c-0.16,0.02-0.32,0.04-0.47,0.06
		c-0.15-0.42-0.43-0.83-0.44-1.25c-0.04-2.62-0.03-5.24-0.01-7.85c0-0.36,0.04-0.77,0.21-1.07c0.22-0.4,0.59-0.73,0.89-1.09
		c0.33,0.31,0.79,0.56,0.98,0.95c0.38,0.8,0.63,1.68,1.01,2.75c0.31-0.94,0.46-1.66,0.79-2.29c0.22-0.43,0.67-0.74,1.03-1.1
		c0.35,0.38,0.85,0.72,1,1.17c0.32,0.9,0.52,1.86,0.64,2.81c0.3,2.34,0.52,4.69,0.77,7.04
		C449.51,264.86,449.37,264.88,449.24,264.91z"/>
	<path class="st0" d="M405.8,304.61c1.1-2.31,0.32-4.46,0.58-6.62c-1.27-0.14-2.4-0.27-3.8-0.43c0.36-0.45,0.46-0.7,0.63-0.76
		c2.65-0.99,7.64,0.37,9.53,2.57c1.99,2.33,1.12,4.87-1.88,5.4c-1.21,0.22-2.44,0.37-3.67,0.42
		C406.74,305.21,406.29,304.84,405.8,304.61z M407.9,303.65c1.02-0.13,1.93-0.18,2.81-0.35c1.62-0.31,2.05-1.48,1.05-2.83
		c-1.06-1.45-2.54-2.16-4.45-2.34C407.5,299.94,407.69,301.65,407.9,303.65z"/>
	<path class="st0" d="M457.25,292.64c0-1.56,0-3.05,0-4.54c0.14-0.01,0.29-0.02,0.43-0.02c0.07,0.41,0.19,0.81,0.21,1.22
		c0.18,2.85,0.39,5.69,0.48,8.54c0.03,1.03-0.21,2.07-0.38,3.1c-0.03,0.17-0.32,0.44-0.48,0.43c-1.3-0.08-2.67-0.03-3.88-0.43
		c-0.53-0.17-1.05-1.3-1.02-1.96c0.03-0.61,0.7-1.49,1.28-1.69c0.98-0.34,2.12-0.24,3.3-0.33c0-0.98,0-2.2,0-3.37
		c-0.83-0.06-1.61-0.11-2.39-0.15c-0.01-0.15-0.02-0.3-0.03-0.46C455.56,292.88,456.35,292.77,457.25,292.64z M457.23,299.99
		c-0.34-1.34-1.16-1.7-2.21-1.55c-0.36,0.05-0.68,0.46-1.01,0.7c0.3,0.28,0.57,0.75,0.91,0.81
		C455.63,300.08,456.37,299.99,457.23,299.99z"/>
	<path class="st0" d="M430.29,302.83c-0.19-2.44-0.31-5.04-0.06-7.62c0.17-0.01,0.35-0.03,0.52-0.04c0.1,0.31,0.26,0.61,0.29,0.92
		c0.27,2.79,0.52,5.58,0.77,8.37c0.09,1.01-0.04,1.67-1.36,1.19c-0.56-0.2-1.28,0.06-1.91-0.01c-0.9-0.09-1.89-0.11-2.66-0.51
		c-0.5-0.26-1.01-1.2-0.91-1.72c0.1-0.49,0.99-1.16,1.54-1.16C427.75,302.25,428.99,302.61,430.29,302.83z M428.42,304.19
		c0.01-0.12,0.03-0.24,0.04-0.36c-0.61-0.07-1.22-0.14-1.83-0.2c-0.01,0.12-0.03,0.24-0.04,0.36
		C427.2,304.06,427.81,304.13,428.42,304.19z"/>
	<path class="st0" d="M462.94,298.76c-1.02,0.12-1.64,0.19-2.4,0.29c0.65-1.19,2.26-1.89,2.94-1.37c0.99,0.76,0.68,1.74,0.14,2.57
		c-0.44,0.68-1.06,1.23-1.61,1.84c0.72,0.32,1.44,0.64,2.32,1.02c-1.11,0.79-3.86,0.86-4.36,0.17c-0.24-0.34-0.21-1.16,0.04-1.51
		c0.44-0.61,1.18-1,1.74-1.54C462.12,299.88,462.41,299.42,462.94,298.76z"/>
	<path class="st0" d="M435.01,303.33c0.34,1.8,0.68,3.61,1.02,5.41c-0.15,0.07-0.3,0.14-0.45,0.2c-0.53-0.93-1.07-1.86-1.6-2.79
		c0.11-0.08,0.22-0.17,0.32-0.25c-0.26-0.06-0.53-0.11-0.98-0.21c0.4-0.87,0.75-1.63,1.1-2.38
		C434.62,303.32,434.81,303.33,435.01,303.33z"/>
	<path class="st0" d="M447.37,292.35c1.3-0.2,2.61-0.39,3.92-0.59c0.03,0.19,0.05,0.37,0.08,0.55c-1.31,0.23-2.62,0.47-3.92,0.7
		C447.42,292.79,447.4,292.57,447.37,292.35z"/>
	<path class="st0" d="M400.6,294.32c-1.05,0.28-2.1,0.56-3.14,0.84c-0.06-0.22-0.12-0.43-0.17-0.65c1.06-0.29,2.11-0.58,3.17-0.87
		C400.51,293.87,400.55,294.09,400.6,294.32z"/>
	<path class="st0" d="M390.21,295.64c0.56-1.07,1.55-1.26,2.66-1.19c0.07,0.15,0.14,0.31,0.21,0.46c-0.89,0.38-1.79,0.76-2.68,1.15
		C390.34,295.91,390.27,295.77,390.21,295.64z"/>
	<path class="st0" d="M416.95,292.71c-1.2,0.13-2.39,0.26-3.59,0.39c-0.02-0.14-0.03-0.28-0.05-0.42c1.13-0.74,2.38-0.52,3.62-0.4
		C416.94,292.42,416.94,292.56,416.95,292.71z"/>
	<path class="st0" d="M440.4,292.05c0.96-0.1,1.93-0.2,2.89-0.3c0.02,0.15,0.04,0.31,0.07,0.47c-0.95,0.2-1.9,0.41-2.85,0.62
		C440.46,292.57,440.43,292.31,440.4,292.05z"/>
	<path class="st0" d="M407.8,293.83c-0.89,0.21-1.77,0.43-2.66,0.64c-0.05-0.2-0.09-0.39-0.14-0.59c0.89-0.2,1.78-0.4,2.67-0.61
		C407.72,293.46,407.76,293.65,407.8,293.83z"/>
	<path class="st0" d="M468.23,294.89c0.54-0.19,1.08-0.38,1.61-0.58c0.07,0.17,0.14,0.35,0.22,0.52c-0.52,0.24-1.04,0.48-1.56,0.71
		C468.41,295.33,468.32,295.11,468.23,294.89z"/>
	<path class="st0" d="M386.03,296.43c-0.53,0.13-1.05,0.26-1.57,0.38c-0.06-0.17-0.11-0.35-0.17-0.52c0.51-0.17,1.03-0.35,1.55-0.52
		C385.9,296,385.97,296.22,386.03,296.43z"/>
	<path class="st0" d="M461.68,294.09c0.61,0,1.22,0,1.83,0c0.01,0.12,0.01,0.23,0.01,0.35c-0.61,0.04-1.23,0.08-1.84,0.12
		C461.69,294.4,461.68,294.24,461.68,294.09z"/>
	<path class="st0" d="M472.84,295.33c0.41-0.08,0.83-0.17,1.24-0.26c0.04,0.19,0.08,0.38,0.12,0.57c-0.42,0.08-0.83,0.15-1.25,0.23
		C472.91,295.7,472.88,295.51,472.84,295.33z"/>
	<path class="st0" d="M395.58,285.67c-0.21,0.07-0.42,0.22-0.62,0.2c-0.16-0.02-0.35-0.22-0.42-0.38c-0.03-0.07,0.17-0.36,0.29-0.37
		c0.17-0.02,0.36,0.11,0.55,0.18C395.44,285.42,395.51,285.55,395.58,285.67z"/>
	<path class="st0" d="M358.48,244.19c-0.13,0.66-0.18,1.51-0.47,2.27c-0.41,1.09-1.02,2.09-2.37,2.23c-1.38,0.14-2.6-0.36-3.03-1.64
		c-0.49-1.48-0.85-3.09-0.8-4.64c0.05-1.57,1.93-2.91,3.52-2.95c1.41-0.04,2.48,0.97,2.9,2.8
		C358.38,242.83,358.39,243.43,358.48,244.19z M352.9,243.83c0.29,0.86,0.46,1.79,0.92,2.53c0.28,0.45,1.03,0.84,1.55,0.82
		c0.44-0.02,1.12-0.62,1.21-1.06c0.23-1.19,0.33-2.44,0.21-3.64c-0.05-0.55-0.71-1.43-1.15-1.47c-0.65-0.05-1.5,0.37-2,0.86
		C353.21,242.28,353.16,243.09,352.9,243.83z"/>
	<path class="st0" d="M361.22,231.46c-0.49,0.83-0.96,1.68-1.48,2.49c-0.17,0.27-0.48,0.44-0.73,0.66
		c-0.18-0.23-0.53-0.46-0.53-0.68c0.04-3.17,0.13-6.33,0.22-9.5c0-0.11,0.16-0.2,0.63-0.32c0.12,2.21,0.23,4.41,0.34,6.46
		c1-0.05,1.97-0.32,2.79-0.07c0.57,0.17,1.07,0.99,1.34,1.62c0.74,1.75,0.05,3.07-1.75,3.64c-0.35,0.11-0.72,0.23-1.08,0.21
		c-0.65-0.04-1.6,0.54-1.78-0.57c-0.03-0.18,1.03-0.52,1.58-0.81c0.62-0.32,1.57-0.54,1.74-1.02c0.19-0.54-0.33-1.34-0.54-2.03
		C361.73,231.52,361.48,231.49,361.22,231.46z"/>
	<path class="st0" d="M347.61,261.75c0.16,1.95,0.32,3.9,0.5,5.98c0.27-0.19,0.43-0.27,0.56-0.38c0.81-0.72,1.69-1.19,2.73-0.56
		c1.08,0.66,1.5,1.71,1.35,2.95c-0.15,1.21-0.93,1.86-2.12,1.98c-0.63,0.07-1.27,0.08-1.9,0c-1.32-0.17-1.98-0.82-1.9-2.29
		c0.12-2.1,0.02-4.22,0.03-6.33c0-0.43,0.06-0.86,0.09-1.29C347.16,261.79,347.38,261.77,347.61,261.75z M348.31,270.33
		c0.97,0,1.63,0.11,2.23-0.04c0.33-0.08,0.75-0.61,0.75-0.94c0-0.43-0.28-0.99-0.62-1.25c-0.17-0.13-0.85,0.17-1.12,0.44
		C349.11,268.98,348.82,269.56,348.31,270.33z"/>
	<path class="st0" d="M363.93,226.35c-0.86,0.29-1.55-0.17-1.61-1.01c-0.14-1.75-0.04-3.51-0.04-5.27c0.2-0.06,0.39-0.12,0.59-0.17
		c0.23,0.38,0.6,0.74,0.67,1.15c0.13,0.71,0.07,1.46,0.12,2.19C363.73,224.25,363.83,225.26,363.93,226.35z"/>
	<path class="st0" d="M323.19,243.57c-0.71,0.16-1.54,0.6-1.88,0.35c-0.49-0.35-0.85-1.18-0.88-1.83c-0.07-1.31,0.25-2.61,1.43-3.4
		c0.4-0.26,1.11-0.39,1.51-0.2c0.37,0.17,0.63,0.82,0.73,1.3c0.25,1.25,0.4,2.53,0.56,3.79c0.05,0.43,0.01,0.88,0.01,1.32
		c-0.16,0.07-0.32,0.14-0.49,0.2C323.82,244.54,323.45,243.98,323.19,243.57z M321.75,241.86c0.12,0.04,0.23,0.09,0.35,0.14
		c0.29-0.66,0.57-1.33,0.86-1.99c-0.15-0.06-0.29-0.12-0.44-0.17C322.25,240.51,322,241.19,321.75,241.86z"/>
	<path class="st0" d="M334.49,242.55c0-0.55,0-1.1,0-1.64c0-0.48,0-0.96,0-1.44c1.44,0.78,0.7,2.08,1.04,3.16
		c0.74,0.31,1.52,0.64,2.3,0.96c0,0.16,0,0.31,0,0.47c-0.43,0.02-0.9,0.15-1.3,0.03c-0.76-0.22-1.3-0.3-1.92,0.45
		c-0.41,0.49-1.26,0.74-1.95,0.82c-0.41,0.05-1.24-0.39-1.26-0.66c-0.04-0.49,0.25-1.23,0.65-1.46
		C332.7,242.86,333.53,242.8,334.49,242.55z M333.72,243.94c-0.39,0.06-0.79,0.12-1.18,0.17c0.05,0.13,0.09,0.25,0.14,0.38
		c0.34-0.19,0.68-0.39,1.02-0.58l0.05-0.02L333.72,243.94z"/>
</g>
</svg>
