<?xml version="1.0" encoding="utf-8"?>
<!-- Generator: Adobe Illustrator 24.1.1, SVG Export Plug-In . SVG Version: 6.00 Build 0)  -->
<svg version="1.1" id="Слой_1" xmlns="http://www.w3.org/2000/svg" xmlns:xlink="http://www.w3.org/1999/xlink" x="0px" y="0px"
	 viewBox="0 0 841.89 595.28" style="enable-background:new 0 0 841.89 595.28;" xml:space="preserve">
<style type="text/css">
	.st0{clip-path:url(#SVGID_2_);}
	.st1{fill:#424F6F;}
</style>
<g>
	<defs>
		<rect id="SVGID_1_" x="161.73" y="191.96" width="519" height="212"/>
	</defs>
	<clipPath id="SVGID_2_">
		<use xlink:href="#SVGID_1_"  style="overflow:visible;"/>
	</clipPath>
	<g class="st0">
		<path class="st1" d="M563.55,403.96c-0.82-6.68-1.59-13.36-2.52-20.02c-0.2-1.43-0.74-2.79-0.06-4.23
			c0.83-1.76,2.11-2.52,3.94-2.25c2.15,0.32,3.45,1.58,3.56,3.45c0.16,2.73-2.06,5.48-4.97,6.14c-0.28,0.06-0.56,0.13-1.02,0.22
			c0.32,2.58,0.65,5.15,0.95,7.72c0.35,2.99,0.66,5.98,0.99,8.96C564.14,403.96,563.84,403.96,563.55,403.96z M567.51,381.29
			c-0.06-1.24-0.44-2.14-1.62-2.62c-1.07-0.44-2.35-0.77-3.09,0.15c-0.69,0.85-1.02,2.04-1.17,3.12c-0.11,0.83,0.35,1.71,0.48,2.58
			c0.22,1.41,1.24,1.89,2.58,1.15C566.56,384.64,567.31,383.03,567.51,381.29z"/>
		<path class="st1" d="M207.94,403.96c-0.2-5.17-0.41-10.33-0.62-15.5c-0.15,0.06-0.3,0.12-0.44,0.18c-0.3-0.26-0.89-0.54-0.86-0.76
			c0.21-1.88,0.44-3.75,2.17-5.15c1.61-1.3,3.75-1.48,5.63-0.33c1.58,0.96,2.02,2.62,1.19,4.48c-0.83,1.85-2.86,3.28-4.77,3.19
			c-0.55-0.03-1.2-0.47-1.54-0.9c-0.19-0.24,0.16-0.83,0.26-1.27c0.16,0.02,0.31,0.04,0.47,0.06c0.12,0.38,0.24,0.77,0.35,1.14
			c2.64,0.19,5.04-2.16,4.61-4.48c-0.28-1.51-2.54-2.53-4.3-1.93c-1.6,0.54-2.34,1.86-2.23,3.43c0.42,5.74,0.77,11.48,1.13,17.22
			c0.01,0.21-0.11,0.42-0.17,0.63C208.53,403.96,208.24,403.96,207.94,403.96z"/>
		<path class="st1" d="M235.73,191.96c-1.85,2.06-2.31,4.5-1.88,7.01c0.77,4.58,1.73,9.14,2.64,13.71
			c0.71,3.57,1.59,7.12,1.09,10.79c-0.23,1.67-0.72,3.26-2.18,4.36c-0.54,0.41-1.55,0.71-2.16,0.54c-0.77-0.22-1.36-0.97-2.03-1.49
			c0.15-0.16,0.29-0.32,0.44-0.47c0.33,0.22,0.69,0.4,0.98,0.66c0.89,0.79,1.67,0.75,2.46-0.12c1.76-1.94,1.93-4.31,1.6-6.56
			c-0.67-4.55-1.76-9.05-2.57-13.58c-0.53-2.96-1-5.95-1.28-8.93c-0.2-2.1,0.27-4.15,1.74-5.9
			C234.95,191.96,235.34,191.96,235.73,191.96z"/>
		<path class="st1" d="M485.18,191.96c0.3,2.31,0.6,4.63,0.9,6.94c0.17,1.24,0.35,2.48,0.53,3.72c-0.18,0.06-0.36,0.11-0.54,0.17
			c-0.2-0.44-0.51-0.87-0.58-1.32c-0.26-1.79-0.45-3.6-0.66-5.4c-0.06-0.51-0.15-1.01-0.57-1.6c-0.74,1.22-1.47,2.44-2.21,3.66
			c-0.18-0.06-0.35-0.12-0.53-0.18c0.23-0.69,0.36-1.42,0.71-2.05c0.73-1.34,1.56-2.62,2.35-3.93
			C484.79,191.96,484.98,191.96,485.18,191.96z"/>
		<path class="st1" d="M672.05,403.96c-0.02-2.91-0.04-5.83-0.03-8.74c0-0.28,0.28-0.55,0.43-0.82c0.2,0.24,0.57,0.47,0.57,0.71
			c0,2.95-0.06,5.9-0.1,8.86C672.63,403.96,672.34,403.96,672.05,403.96z"/>
		<path class="st1" d="M316.15,403.96c0.08-2.35,0.15-4.7,0.23-7.05c0.2,0.01,0.39,0.01,0.59,0.02c0.74,2.32,0.08,4.69,0.07,7.03
			C316.73,403.96,316.44,403.96,316.15,403.96z"/>
		<path class="st1" d="M303.28,403.96c0-1.91,0-3.82,0-5.73c1.4,1.76,0.68,3.81,0.88,5.73
			C303.86,403.96,303.57,403.96,303.28,403.96z"/>
		<path class="st1" d="M304.74,403.96c-0.2-1.46,0.67-2.47,1.45-3.52c0.19,0.06,0.38,0.11,0.57,0.17c-0.28,1.12-0.56,2.24-0.85,3.36
			C305.52,403.96,305.13,403.96,304.74,403.96z"/>
		<path class="st1" d="M358.28,261.4c-0.02,1.4-0.83,2-1.9,2.24c-2.02,0.46-3.88,0.05-5.39-1.3c-0.95-0.84-1.26-1.89-0.71-3.04
			c0.56-1.17,1.6-1.99,2.97-1.69c1.89,0.41,3.68,1.17,5.76,1.86c-1.18-7.46-2.38-15.09-3.58-22.73c0.15-0.04,0.31-0.08,0.46-0.12
			c0.21,0.53,0.54,1.04,0.62,1.58c1.1,6.78,2.17,13.57,3.24,20.35c0.09,0.57,0.18,1.13,0.3,1.88c2.43,0.12,4.84,0.26,7.25,0.34
			c1.19,0.04,1.44-0.56,0.96-1.47c-0.76-1.43-1.76-2.8-2.27-4.3c-0.51-1.52-0.62-3.16-0.75-4.76c-0.04-0.51,0.34-1.11,0.7-1.56
			c1.07-1.34,2.42-2.45,4.37-2.17c1.9,0.27,2.83,1.68,2.92,3.24c0.14,2.32-0.01,4.65-0.2,6.97c-0.12,1.47-0.53,2.92-0.83,4.47
			c1.45,0.06,2.65,0.11,4.2,0.17c-1.09,0.8-4.07,1.08-4.52,0.52c-0.37-0.47-0.54-1.22-0.46-1.81c0.24-1.75,0.77-3.47,0.96-5.23
			c0.17-1.52,0.2-3.1-0.01-4.62c-0.27-1.9-1.25-2.85-2.46-2.91c-1.38-0.06-3.5,1.45-3.68,2.95c-0.15,1.23-0.04,2.58,0.38,3.75
			c0.55,1.54,1.5,2.96,2.28,4.44c1.17,2.2,0.57,3.23-2.1,3.24c-1.99,0.01-3.99-0.4-5.97-0.35c-1.39,0.04-2.27-0.41-3.31-1.16
			c-1.06-0.78-2.42-1.29-3.74-1.69c-1.13-0.35-2.13,0.11-2.62,1.16c-0.46,0.98,0.05,1.71,0.85,2.33c1.74,1.34,3.87,1.22,5.54-0.28
			C357.68,261.6,357.88,261.57,358.28,261.4z"/>
		<path class="st1" d="M302.36,371.71c0,0.08-0.04-0.14,0.01-0.16c1.3-0.51,2.59-1.4,3.92-1.44c4.91-0.18,9.84-0.08,14.76-0.05
			c0.51,0,1.02,0.27,1.53,0.42c-0.04,0.16-0.09,0.33-0.13,0.49c-5.66,0-11.33,0-16.99,0c-0.01,0.11-0.02,0.21-0.04,0.32
			c1.54,0.33,3.1,0.6,4.61,1.01c1.95,0.53,3.91,1.08,5.79,1.79c2.68,1.02,3.18,2.98,1.18,4.94c-1.14,1.12-2.63,1.94-3.94,2.93
			c-1.82,1.38-3.69,2.72-5.38,4.23c-1.27,1.13-0.97,1.83,0.75,2.09c1.15,0.17,2.32,0.26,3.48,0.26c4.24,0.02,8.47-0.01,12.71,0.01
			c0.72,0.01,1.43,0.19,2.15,0.3c-0.01,0.13-0.01,0.25-0.01,0.38c-0.22,0.11-0.44,0.32-0.66,0.32c-5.21-0.04-10.42-0.09-15.62-0.17
			c-0.82-0.01-1.65-0.11-2.46-0.26c-2.16-0.41-2.78-1.76-1.32-3.25c1.41-1.44,3.07-2.69,4.7-3.93c1.23-0.93,2.62-1.69,3.88-2.59
			c0.57-0.4,1.08-0.91,1.46-1.46c0.85-1.24,0.56-2.18-0.93-2.81c-1.45-0.62-2.95-1.18-4.49-1.55
			C308.43,372.84,305.48,372.33,302.36,371.71z"/>
		<path class="st1" d="M549.75,247.41c0.81-0.09,0.99,0.33,0.98,0.96c-0.02,1.55-0.01,3.09-0.01,4.7c0.44,0.15,0.85,0.29,1.59,0.55
			c-0.68,0.33-1.09,0.54-1.59,0.79c0.07,1.15,0.15,2.34,0.24,3.77c1.93-0.13,3.79-0.25,5.72-0.38c0.18-3.46-0.99-6.8-0.52-10.15
			c0.21-0.01,0.42-0.03,0.64-0.04c0.33,3.33,0.66,6.67,1,10.07c0.6,0,1.16,0,1.92,0c-0.6-3.13-1.21-6.22-0.86-9.34
			c0.17-0.03,0.34-0.06,0.5-0.08c0.12,0.49,0.29,0.97,0.35,1.47c0.29,2.32,0.58,4.65,0.81,6.98c0.09,0.92,0.56,1.22,1.51,1.12
			c0.33-0.03,0.75-0.09,1,0.05c0.3,0.17,0.46,0.54,0.68,0.82c-0.31,0.06-0.62,0.19-0.93,0.18c-1.25-0.05-2.51-0.27-3.75-0.2
			c-2.8,0.14-5.6,0.46-8.4,0.61c-1.83,0.1-3.68,0.02-5.54-0.27c1.44-0.88,3.11-0.44,4.66-0.74c0-1.34,0-2.64,0-4.02
			c-1.52,0.09-2.87,0.25-4.21,0.23c-0.61-0.01-1.41-0.23-1.74-0.62c-0.21-0.25,0.12-1.09,0.46-1.5c2.04-2.44,4.15-4.84,6.4-7.43
			c0.57,1.27-0.36,1.84-0.9,2.53c-1.73,1.97-3.47,3.93-5.21,5.9c0.09,0.11,0.18,0.22,0.28,0.33c1.61-0.13,3.22-0.26,4.9-0.4
			C549.75,251.2,549.75,249.31,549.75,247.41z"/>
		<path class="st1" d="M549.29,208.98c2.47,2.14,4.37,4.29,5.15,7.06c0.68,2.39-1.01,4.71-3.3,4.64c-0.4-0.01-0.92-0.28-1.14-0.58
			c-0.11-0.14,0.26-0.84,0.53-0.91c0.36-0.1,0.85,0.16,1.53,0.32c1.48-0.76,1.95-1.68,1.38-3.45c-0.64-1.99-1.81-3.7-3.24-4.94
			c-1.44,1.55-2.67,3.24-4.3,4.52c-1.68,1.31-3.69,2.49-6.04,0.93c-0.1,0.03-0.22,0.04-0.26,0.1c-3.01,3.46-7.31,2.66-9.3-1.78
			c-0.77-1.73-0.9-3.5-0.07-5.29c0.51-1.09,1.31-1.51,2.54-1.15c1.25,0.37,1.94,1.52,1.56,2.91c-0.37-0.54-0.56-0.98-0.9-1.26
			c-0.44-0.36-0.99-0.74-1.53-0.81c-0.25-0.03-0.72,0.62-0.9,1.03c-1.06,2.47,0.41,6.03,2.95,7.24c1.82,0.87,4.39-0.06,5.01-1.85
			c0.09-0.27,0.07-0.59,0-0.87c-0.53-2.07,0.58-3.84,2.68-4.26c1.82-0.36,3.51,0.9,3.94,2.92c0.07,0.33,0.12,0.67,0.2,1.13
			C547.91,213.25,548.64,211.23,549.29,208.98z M542.7,215.85c1.34-0.01,1.94-0.56,1.95-1.78c0.02-1.41-1.18-2.69-2.46-2.65
			c-1.03,0.03-2.34,1.05-2.39,1.86C539.73,214.76,540.95,215.86,542.7,215.85z"/>
		<path class="st1" d="M465.04,353.3c-0.25-2.57-0.48-4.94-0.72-7.3c-0.21-0.04-0.43-0.07-0.64-0.1c-0.64,1-1.32,1.99-1.92,3.02
			c-0.74,1.24-1.37,2.54-2.15,3.76c-0.23,0.36-0.8,0.54-1.21,0.8c-0.19-0.38-0.5-0.74-0.55-1.13c-0.48-3.69-0.88-7.38-1.38-11.07
			c-0.18-1.3-0.57-2.58-0.92-4.08c-1.47,0.24-2.82,0.45-4.16,0.67c0.13-0.83,0.13-0.83,3.59-1.53c-0.14-2.71-0.28-5.38-0.39-8.06
			c0-0.1,0.34-0.22,0.77-0.47c0,0.9-0.07,1.58,0.01,2.26c0.21,1.76,0.52,3.5,0.72,5.26c0.11,0.93,0.6,1.1,1.56,1.06
			c1.55-0.06,3.11,0,4.66,0.1c0.54,0.04,1.07,0.34,1.6,0.52c-0.03,0.11-0.07,0.22-0.11,0.33c-2.36,0-4.72,0-6.96,0
			c0.69,4.81,1.37,9.58,2.09,14.69c0.6-1.07,1.04-1.9,1.54-2.71c0.78-1.27,1.5-2.58,2.42-3.76c0.7-0.9,1.55-0.83,2.02,0.15
			c1.11,2.29,0.9,4.73,0.76,7.15C465.68,352.96,465.47,353.03,465.04,353.3z"/>
		<path class="st1" d="M281.43,306.83c0-4.45,0-8.91,0.01-13.36c0-0.08,0.21-0.16,0.56-0.41c0.11,0.62,0.25,1.09,0.25,1.56
			c0.02,3.85,0.05,7.7-0.03,11.55c-0.02,1.24,0.51,1.42,1.67,1.19c2.59-0.51,4.58-3.67,4.03-6.57c-0.15-0.82-0.5-1.61-0.68-2.44
			c-0.05-0.23,0.2-0.51,0.31-0.76c0.24,0.12,0.58,0.18,0.7,0.36c1.44,2.31,0.89,6.8-1.36,8.7c-1.16,0.98-2.83,1.46-4.65,2.35
			c0.19,2.72,0.42,5.93,0.64,9.14c-0.18,0.04-0.37,0.07-0.55,0.11c-0.16-0.42-0.42-0.84-0.46-1.27c-0.21-2.65-0.35-5.29-0.58-7.94
			c-0.04-0.41-0.26-1-0.6-1.16c-3.7-1.73-5.29-4.82-6.43-8.17c-0.36-1.04-0.47-2.16-0.59-3.25c-0.04-0.31,0.31-0.65,0.63-0.95
			c0.68,4.64,2.07,8.81,6.54,11.49C281.04,306.94,281.24,306.88,281.43,306.83z"/>
		<path class="st1" d="M528.18,308.28c-1.58,0.93-1.33,2.07-0.87,3.14c1.53,3.52,4.18,5.97,8.71,7.11
			c-0.88-4.71-1.72-9.15-2.55-13.59c0.22-0.03,0.45-0.07,0.67-0.1c1.37,4.41,2.05,8.95,2.73,13.46c5.19,0.19,5.69-5.85,3.62-10.26
			c0.36,0.2,0.95,0.34,1.06,0.62c0.9,2.32,1.43,4.71,0.59,7.15c-0.61,1.78-1.95,2.92-3.97,3.37c-0.37,0.09-0.74,0.18-0.81,0.2
			c0,2.39,0,4.63,0,6.88c0,0.31,0.11,0.64,0.03,0.92c-0.1,0.32-0.37,0.61-0.57,0.91c-0.25-0.33-0.7-0.65-0.71-0.99
			c-0.07-2.27-0.08-4.55-0.05-6.83c0.01-0.73-0.38-0.91-1.09-1.11c-4.47-1.25-7.35-4.01-8.74-8.04c-0.22-0.65-0.2-1.41-0.09-2.1
			C526.26,308.21,526.72,308.04,528.18,308.28z"/>
		<path class="st1" d="M381.81,376.99c-0.5,0.94-1.01,1.89-1.68,3.15c-0.82-2.41,1.17-3.43,1.99-4.9c0.58,0,1.2,0.07,1.79-0.01
			c1.98-0.27,3.82-0.09,5.16,1.44c1.35,1.55,1.3,3.29,0.54,5.02c-0.94,2.16-2.37,3.95-4.87,4.86c-0.31,0.11-0.61,0.66-0.61,1.01
			c0.02,4.34,0.1,8.67,0.18,13.01c0.01,0.31,0.29,0.61,0.36,0.92c0.1,0.52,0.18,1.06,0.16,1.59c0,0.11-0.45,0.22-0.69,0.33
			c-0.26-0.49-0.72-0.97-0.74-1.46c-0.13-3.45-0.12-6.9-0.25-10.36c-0.17-4.41-0.43-8.82-0.66-13.22c-0.02-0.43-0.16-0.86-0.25-1.29
			C382.09,377.05,381.95,377.02,381.81,376.99z M384.17,385.64c2.4-0.59,4.51-3.03,4.89-5.56c0.21-1.34-0.08-2.61-1.37-3.41
			c-1.41-0.87-2.96-0.86-4.5-0.29c0.21,1.61,0.44,3.09,0.59,4.58C383.95,382.49,384.04,384.01,384.17,385.64z"/>
		<path class="st1" d="M446.14,325.66c0.89,0.04,1.79,0.19,2.66,0.09c2.38-0.27,3.48-1.49,3.1-3.66c-0.48-2.79-0.92-5.61-1.79-8.3
			c-2.4-7.48-3.96-15.07-4.09-22.85c-0.06-3.26-1.8-3.91-5.57-2.74c-0.17,0.05-0.32,0.13-0.48,0.2c-0.13-0.09-0.25-0.19-0.38-0.28
			c0.27-0.32,0.53-0.91,0.82-0.92c1.62-0.09,3.32-0.3,4.87,0.03c1.37,0.29,1.52,1.69,1.62,2.87c0.24,2.96,0.23,5.95,0.8,8.86
			c0.96,4.96,2.32,9.85,3.46,14.77c0.65,2.81,1.32,5.62,1.75,8.45c0.45,2.96-2.71,5.3-5.87,4.47c-0.4-0.11-0.72-0.45-1.08-0.68
			C446.02,325.86,446.08,325.76,446.14,325.66z"/>
		<path class="st1" d="M269.24,234.51c-1.88-0.64-2.64-0.27-3.34,1.29c-1.48,3.32-1.56,6.75-0.76,10.17
			c1.25,5.4,2.77,10.75,4.03,16.16c0.7,3.03,1.05,6.14,0.24,9.21c-0.28,1.05-0.83,2.07-1.46,2.99c-0.51,0.76-1.42,1.39-2.46,0.9
			c-1.05-0.5-1.29-1.45-0.72-2.61c0.19,0.32,0.43,0.62,0.56,0.96c0.41,1.04,1.02,1.24,1.71,0.35c0.65-0.84,1.17-1.85,1.43-2.85
			c0.74-2.9,0.43-5.83-0.23-8.69c-1.34-5.84-2.98-11.62-4.24-17.46c-0.68-3.15-0.46-6.37,1.01-9.37c0.42-0.85,1.18-1.59,1.94-2.25
			c0.28-0.24,1.05-0.24,1.47-0.08C268.74,233.35,268.87,233.89,269.24,234.51z"/>
		<path class="st1" d="M271.93,220.94c-1.6,0.4-3.28,0.61-4.82-0.1c-0.44-0.2-0.65-1.32-0.52-1.93c0.48-2.16,1.33-4.26,1.7-6.44
			c0.25-1.49,0.17-3.1-0.15-4.59c-0.51-2.34-2.35-3.62-4.31-3.37c-2.35,0.31-4.33,2.34-4.37,4.5c-0.05,2.34,1.26,4.22,2.5,6.13
			c0.57,0.87,1.23,1.71,1.68,2.64c0.58,1.21,0.21,2.19-1.05,2.65c-2.28,0.82-4.62,0.7-6.92,0.16c-0.03-0.16-0.06-0.32-0.08-0.48
			c0.41-0.06,0.82-0.16,1.23-0.17c1.55-0.04,3.11,0.07,4.63-0.11c1.53-0.19,1.84-0.93,1.08-2.18c-0.87-1.43-1.96-2.76-2.7-4.24
			c-0.63-1.26-1.15-2.66-1.27-4.03c-0.23-2.55,1.48-4.63,4.13-5.49c2.47-0.8,4.91,0.26,6.03,2.66c1.23,2.62,0.9,5.28,0.18,7.94
			c-0.39,1.42-0.85,2.81-1.27,4.22c-0.45,1.51-0.32,1.65,1.46,1.66c0.58,0,1.17-0.05,1.75-0.02c0.38,0.02,0.76,0.14,1.14,0.21
			C271.96,220.67,271.94,220.81,271.93,220.94z"/>
		<path class="st1" d="M614.89,372.88c-0.95,0.1-1.81,0.2-2.67,0.29c-0.05-0.17-0.1-0.33-0.15-0.49c0.83-0.29,1.67-0.57,2.65-0.9
			c-0.12-0.87-0.21-1.83-0.38-2.78c-0.16-0.86-0.4-1.7-0.61-2.54c0.19-0.06,0.38-0.11,0.57-0.17c0.24,0.48,0.59,0.93,0.71,1.43
			c0.27,1.08,0.48,2.17,0.59,3.27c0.08,0.75,0.36,1.08,1.23,1.14c0.81,0.06,1.64,0.26,2.4,0.54c0.44,0.16,0.76,0.6,0.91,1.15
			c-1.3-0.32-2.59-0.64-4.15-1.03c0.92,4.71,1.78,9.12,2.71,13.86c0.55-1.42,0.95-2.54,1.41-3.63c0.22-0.53,0.48-1.09,0.88-1.52
			c0.46-0.5,1.08-0.88,1.63-1.31c0.37,0.58,0.97,1.12,1.09,1.74c0.36,1.92,0.56,3.86,0.77,5.79c0.06,0.5-0.07,1.01-0.11,1.52
			c-0.17,0.03-0.34,0.06-0.52,0.09c-0.11-0.36-0.27-0.72-0.32-1.08c-0.28-2.31-0.53-4.63-0.78-6.94c-0.2-0.04-0.41-0.07-0.61-0.11
			c-0.62,1.34-1.31,2.66-1.83,4.04c-0.41,1.08-0.58,2.24-0.93,3.34c-0.12,0.38-0.48,0.69-0.74,1.03c-0.22-0.35-0.57-0.67-0.64-1.04
			c-0.97-4.96-1.9-9.93-2.84-14.89C615.1,373.47,615.01,373.26,614.89,372.88z"/>
		<path class="st1" d="M392.95,346.04c-1.12-1.5-1.95-3.1-1.68-5c0.24-1.73,2.18-2.91,4.4-2.65c2.59,0.31,4.35,1.7,5.36,3.83
			c0.95,2,0.9,3.97-0.58,5.78c-0.9,1.09-2.11,1.68-3.82,1.52c0.19,4.72,0.38,9.39,0.57,14.06c-0.2,0.03-0.4,0.07-0.6,0.1
			c-0.14-0.52-0.38-1.03-0.41-1.54c-0.2-3.89-0.32-7.78-0.55-11.67c-0.13-2.2-0.38-4.41-0.65-6.6c-0.08-0.64-0.37-1.26-0.36-2.16
			c0.33,0.23,0.8,0.41,0.94,0.71c0.25,0.51,0.31,1.11,0.43,1.67c0.33,1.52,0.64,3.05,0.96,4.57c2.06-0.24,3.32-1.38,3.62-2.97
			c0.46-2.55-1.12-5.14-3.75-6.12c-1.42-0.53-2.82-0.45-3.97,0.49c-1.07,0.87-0.77,2.02-0.4,3.1c0.22,0.63,0.6,1.21,0.84,1.83
			c0.12,0.3,0.11,0.66,0.17,0.99C393.3,345.99,393.13,346.01,392.95,346.04z"/>
		<path class="st1" d="M237.51,277.52c-4.02,0-8.19,0-12.48,0c3.05,1.37,1.13,3.2,0.54,4.86c1.46,0.21,2.87,0.28,4.19,0.66
			c0.65,0.19,1.55,0.96,1.52,1.44c-0.03,0.6-0.77,1.34-1.42,1.71c-0.8,0.46-1.8,0.63-2.74,0.86c-0.3,0.07-0.68-0.1-1.02-0.16
			c-0.03-0.16-0.05-0.32-0.08-0.48c0.82-0.23,1.69-0.37,2.46-0.7c0.69-0.29,1.29-0.78,1.93-1.18c-0.7-0.32-1.36-0.79-2.1-0.91
			c-1.31-0.22-2.67-0.21-4.34-0.32c0.48-0.95,0.95-1.66,1.19-2.43c0.2-0.65,0.15-1.38,0.21-2.07c-0.81-0.01-1.61-0.03-2.42-0.04
			c-0.18,0-0.36,0.04-0.8,0.09c0.24-0.56,0.41-0.95,0.56-1.31c-3.44,0-6.88,0-10.33,0c-0.02-0.13-0.04-0.26-0.06-0.39
			c0.51-0.13,1.01-0.36,1.51-0.37c6.57-0.1,13.14-0.17,19.7-0.22c1.41-0.01,2.82,0.09,4.23,0.22c0.88,0.08,1.57,0.45,1.07,1.39
			c-0.15,0.28-0.65,0.41-0.98,0.61C237.77,278.47,237.68,278.16,237.51,277.52z"/>
		<path class="st1" d="M622.93,312.06c0-3.09,0-6.18,0-9.27c0.18-0.01,0.37-0.02,0.55-0.02c0.56,2.35-0.01,4.79,0.32,7.16
			c0.13,0.04,0.25,0.08,0.37,0.12c0.38-1.12,0.86-2.21,1.12-3.35c0.54-2.37,0.65-4.74-0.74-6.95c-1.92-3.07-7.21-3.59-9.82-0.98
			c-0.98,0.98-1.25,2.16-0.71,3.32c0.64,1.37,1.53,2.64,2.32,3.95c0.21,0.35,0.43,0.7,0.65,1.04c-0.11,0.09-0.21,0.19-0.32,0.28
			c-0.28-0.16-0.65-0.25-0.81-0.48c-0.88-1.26-1.88-2.49-2.53-3.86c-1.32-2.8-0.02-5.29,3.14-6.38c4.36-1.5,8.75,0.57,9.8,4.74
			c0.85,3.36,0.17,6.59-1.7,9.58c-0.3,0.49-0.83,0.86-1.25,1.28C623.19,312.19,623.06,312.12,622.93,312.06z"/>
		<path class="st1" d="M511.81,322.73c0.32,4.36,0.63,8.59,0.98,12.83c0.03,0.3,0.34,0.59,0.46,0.9c0.13,0.33,0.24,0.68,0.25,1.03
			c0,0.11-0.45,0.37-0.51,0.33c-0.33-0.21-0.81-0.47-0.86-0.76c-0.28-1.79-0.48-3.6-0.67-5.4c-0.59-5.71-1.17-11.43-1.76-17.15
			c-0.02-0.21-0.12-0.41-0.29-1c-0.59,0.56-1.16,0.9-1.36,1.36c-0.19,0.44,0.01,1.02,0.04,1.73c-1.49-1.11-1.45-2.57,0-3.26
			c2.01-0.96,4.11-1.03,6.09,0.16c1.91,1.14,2.59,2.83,2.34,4.82c-0.24,1.96-1.38,3.36-3.48,4.04
			C512.68,322.48,512.31,322.58,511.81,322.73z M510.59,313.72c0.33,2.4,0.61,4.71,0.98,7.01c0.17,1.04,0.96,0.93,1.76,0.58
			c1.78-0.78,2.73-3,2.11-4.89C514.8,314.5,512.97,313.43,510.59,313.72z"/>
		<path class="st1" d="M596.99,314.41c-0.76,1.3-1.54,2.6-2.26,3.92c-0.45,0.83-0.76,1.73-1.25,2.54c-0.22,0.37-0.71,0.6-1.08,0.89
			c-0.18-0.38-0.45-0.75-0.52-1.14c-0.68-3.92-1.36-7.85-1.97-11.77c-0.16-1.02-0.58-1.36-1.72-1.16c-0.76,0.13-1.56,0.02-2.34,0.02
			c-0.03-0.18-0.05-0.36-0.08-0.54c1.15-0.18,2.3-0.36,3.57-0.55c-0.38-1.49-0.73-2.9-1.09-4.32c0.18-0.04,0.35-0.09,0.53-0.14
			c1.08,1.3,1.05,3.02,1.7,4.48c1.53,0.21,3.19-0.01,4.4,1.04c-0.03,0.13-0.06,0.26-0.08,0.4c-1.31-0.17-2.62-0.34-4.02-0.52
			c0.75,4.12,1.47,8.02,2.21,12.05c0.71-1.35,1.28-2.71,2.12-3.91c0.58-0.83,1.56-2.07,2.31-2.04c1.48,0.07,1.27,1.65,1.5,2.67
			c0.3,1.34,0.46,2.71,0.57,4.07c0.06,0.75-0.11,1.51-0.18,2.26c-0.17,0.01-0.34,0.01-0.51,0.02c-0.39-2.73-0.77-5.45-1.16-8.18
			C597.42,314.46,597.21,314.43,596.99,314.41z"/>
		<path class="st1" d="M292.49,375.8c-0.29-2.13-0.56-4.07-0.82-6.02c0.12-0.07,0.24-0.13,0.36-0.2c0.26,0.4,0.65,0.79,0.74,1.22
			c0.25,1.22,0.5,2.45,0.5,3.68c0.01,1.27,0.6,1.65,1.9,1.68c1.04,0.02,2.08,0.27,3.13,0.42c-0.02,0.21-0.05,0.42-0.07,0.63
			c-1.48-0.08-2.96-0.16-4.72-0.26c0.39,3.56,0.77,7.05,1.15,10.54c0.15,0.02,0.29,0.04,0.44,0.06c0.56-1.25,1.08-2.5,1.68-3.74
			c0.39-0.81,0.78-1.63,1.32-2.35c0.25-0.34,0.89-0.7,1.27-0.64c0.38,0.06,0.88,0.6,0.96,0.99c0.31,1.47,0.49,2.97,0.67,4.46
			c0.09,0.7,0.18,1.43,0.07,2.11c-0.06,0.39-0.54,0.71-0.86,1.09c-0.22-2.73-0.41-5.17-0.61-7.62c-0.2-0.04-0.4-0.08-0.6-0.12
			c-0.35,0.58-0.76,1.14-1.05,1.75c-0.61,1.3-1.09,2.66-1.78,3.92c-0.31,0.57-0.99,0.97-1.5,1.44c-0.33-0.58-0.86-1.14-0.95-1.75
			c-0.4-2.94-0.66-5.9-1.04-8.84c-0.07-0.54-0.35-1.41-0.72-1.5c-0.88-0.2-2.03-0.6-2.72,0.95c-0.29-0.58-0.64-0.95-0.54-1.18
			c0.12-0.31,0.56-0.66,0.91-0.7C290.46,375.74,291.34,375.8,292.49,375.8z"/>
		<path class="st1" d="M480.11,208.21c0.17,4.14,0.33,8.3,0.5,12.56c-2-0.67-5.78-9.09-4.72-10.27c0.54,1.32,1.01,2.59,1.57,3.83
			c0.55,1.22,1.21,2.4,1.96,3.87c0-4.14,0-7.98,0-11.6c1.03,0.18,1.9,0.47,2.76,0.45c6.28-0.14,12.55-0.33,18.83-0.52
			c0.63-0.02,1.26-0.22,1.88-0.19c0.32,0.01,0.62,0.34,0.93,0.52c-0.33,0.17-0.64,0.48-0.97,0.49c-7.39,0.24-14.78,0.44-22.16,0.65
			C480.59,208,480.5,208.06,480.11,208.21z"/>
		<path class="st1" d="M491.14,273.45c0.61,0.07,1.22,0.14,1.99,0.22c1.36-2.16,1.71-4.66,1.19-7.15
			c-0.94-4.42-2.13-8.79-3.23-13.18c-1.16-4.65-1.86-9.33-0.65-14.04c0.35-1.38,1.09-2.72,1.87-3.97c0.57-0.91,1.22-0.97,2.32-0.66
			c0,0.08,0.03,0.23,0,0.24c-2.42,0.96-2.92,2.98-3.37,5.04c-1.14,5.27,0.03,10.36,1.38,15.45c0.96,3.65,1.9,7.3,2.66,10.99
			c0.45,2.18,0.23,4.41-0.7,6.52c-1.01,2.3-1.13,2.33-3.49,1.01C491.12,273.76,491.13,273.61,491.14,273.45z"/>
		<path class="st1" d="M360.37,373.51c-0.32-0.67-0.7-1.32-0.93-2.01c-0.66-1.96-1.14-2.33-2.86-2.05
			c-1.59,0.25-2.76,1.57-2.51,3.09c0.14,0.84,0.54,1.71,1.08,2.4c1.47,1.87,3.14,3.6,4.61,5.47c1.53,1.94,2.45,4,1.14,6.42
			c-1.06,1.96-3.33,2.45-5.15,0.99c-1.43-1.15-1.92-2.72-1.75-4.33c0.22-2.04,0.83-4.05,1.21-6.08c0.07-0.36-0.07-0.8-0.25-1.14
			c-0.58-1.1-1.48-2.12-1.79-3.27c-0.7-2.6,1.77-4.86,4.68-4.46c0.37,0.05,0.77,0.15,1.08,0.34
			C359.95,369.49,360.97,372.18,360.37,373.51z M356.52,377.78c-0.19,0.06-0.38,0.12-0.57,0.17c-0.84,2.44-1.41,4.93-0.67,7.49
			c0.2,0.67,0.74,1.37,1.33,1.83c1.24,0.95,2.6,0.58,3.35-0.74c0.72-1.27,0.88-2.59,0.1-3.81
			C358.98,381.03,357.71,379.42,356.52,377.78z"/>
		<path class="st1" d="M250.51,218.26c-0.16-7.73-3.68-15.49-2.04-23.56c0.25-0.02,0.49-0.04,0.74-0.06
			c-1.04,8.98,2.27,17.55,2.67,26.39c-1.23,0.2-2.39,0.47-3.57,0.56c-0.95,0.07-1.95,0.04-2.88-0.15c-1.58-0.32-2.36-1.54-2.04-2.89
			c0.35-1.49,1.77-2.51,3.32-2.06C248.09,216.89,249.32,217.69,250.51,218.26z M250.64,220.54c-1.17-1.65-2.12-2.85-3.91-3.19
			c-1.25-0.24-2.13,0.27-2.37,1.38c-0.23,1.07,0.33,1.8,1.46,1.88C247.32,220.71,248.82,220.58,250.64,220.54z"/>
		<path class="st1" d="M454.21,385.65c-0.32-2.42-0.62-4.68-0.92-6.93c-0.2-0.03-0.4-0.06-0.6-0.1c-0.37,0.61-0.78,1.21-1.1,1.84
			c-0.67,1.32-1.27,2.68-1.99,3.98c-0.17,0.32-0.72,0.47-1.09,0.7c-0.19-0.33-0.49-0.63-0.55-0.98c-0.53-3.24-1.04-6.47-1.51-9.72
			c-0.17-1.16-0.57-1.95-2.1-1.68c-0.32,0.06-0.69-0.12-1.04-0.2c-0.01-0.14-0.03-0.28-0.04-0.42c0.77-0.14,1.54-0.29,2.55-0.48
			c-0.61-2.29-1.22-4.56-1.82-6.82c0.12-0.05,0.24-0.11,0.36-0.16c0.25,0.3,0.61,0.57,0.72,0.91c0.52,1.65,1.09,3.31,1.41,5
			c0.21,1.13,0.77,1.46,1.93,1.47c0.68,0,1.36,0.25,2.03,0.39c-0.04,0.15-0.07,0.31-0.11,0.46c-1.01,0-2.03,0-3.12,0
			c0.54,3.53,1.07,6.96,1.6,10.39c0.11,0.04,0.21,0.07,0.32,0.11c0.41-0.84,0.78-1.69,1.23-2.5c0.54-0.98,1.06-1.98,1.74-2.87
			c0.47-0.61,1.32-0.63,1.66,0.11c1.03,2.24,1.36,4.59,0.99,7C454.75,385.29,454.52,385.39,454.21,385.65z"/>
		<path class="st1" d="M400.41,289.67c-0.63,0.17-0.88,0.29-1.14,0.29c-0.33,0-0.67-0.15-1-0.16c-4.88-0.09-6.2,0.99-5.5,4.79
			c1.35,7.36,1.4,14.8,1.54,22.24c0.01,0.7,0.14,1.41,0.27,2.11c0.29,1.59,1.39,2.47,3.17,2.61c0.54,0.04,1.09,0.12,1.68,0.51
			c-0.25,0.12-0.49,0.33-0.75,0.36c-2.77,0.3-4.79-1.05-5.06-3.63c-0.27-2.51-0.21-5.04-0.4-7.55c-0.46-5.73-0.94-11.46-1.49-17.19
			c-0.32-3.27,0.74-4.62,4.31-5.05C397.4,288.83,398.81,288.7,400.41,289.67z"/>
		<path class="st1" d="M463.56,400.79c-0.09-0.55-0.21-1.1-0.25-1.66c-0.43-5.15-0.77-10.31-1.29-15.45
			c-0.25-2.52-0.87-5.01-1.24-7.52c-0.05-0.35,0.33-0.89,0.69-1.11c1.57-0.98,4.71-0.83,6.24,0.21c1.22,0.83,1.55,2.1,0.79,3.43
			c-1,1.74-2.6,2.98-4.51,3.82c-0.79,0.35-1.03,0.71-0.96,1.49c0.47,5.24,0.88,10.48,1.29,15.72c0.03,0.36-0.14,0.73-0.21,1.1
			C463.92,400.82,463.74,400.81,463.56,400.79z M462.85,382.24c1.3-0.86,2.4-1.47,3.32-2.25c1.01-0.86,2.24-1.86,1.54-3.28
			c-0.69-1.42-2.31-1.42-3.78-1.4c-0.43,0.01-0.91,0.05-1.26,0.24c-0.31,0.16-0.68,0.57-0.65,0.84
			C462.22,378.21,462.52,380.02,462.85,382.24z"/>
		<path class="st1" d="M583.61,260.45c-0.54-0.06-1.09-0.13-1.79-0.22c0.18,0.77,0.41,1.43,0.46,2.1c0.02,0.27-0.38,0.56-0.58,0.83
			c-0.16-0.28-0.36-0.54-0.47-0.83c-0.3-0.75-0.36-2.02-0.87-2.18c-1.03-0.32-2.29-0.1-3.44,0.02c-0.18,0.02-0.3,0.66-0.4,1.03
			c-0.19,0.72-0.3,1.47-0.55,2.17c-0.08,0.23-0.54,0.57-0.7,0.52c-0.3-0.09-0.61-0.4-0.73-0.68c-0.15-0.36-0.17-0.78-0.13-1.17
			c0.15-1.49,0.32-2.99,0.53-4.47c0.3-2.09,0.65-4.17,1.01-6.25c0.04-0.23,0.21-0.44,0.28-0.56c3.5,1.25,3.28,4.43,4.47,6.84
			c0.46,0.94,0.78,1.74,2.08,1.86c0.38,0.03,0.72,0.39,1.08,0.6C583.77,260.19,583.69,260.32,583.61,260.45z M577.85,252.85
			c-0.2,0-0.4,0-0.59,0c-0.21,2.06-0.41,4.12-0.62,6.21c1.33,0,2.37,0,3.62,0C579.42,256.9,578.63,254.87,577.85,252.85z"/>
		<path class="st1" d="M286.9,247.02c0,3.94,0,7.88,0,11.8c1.92,0.12,3.05-0.4,3.45-1.96c0.42-1.62,0.46-3.31,0.66-4.98
			c0.07-0.57,0.07-1.15,0.22-1.7c0.05-0.19,0.47-0.3,0.72-0.45c0.16,0.25,0.48,0.51,0.46,0.75c-0.18,1.64-0.41,3.28-0.66,4.91
			c-0.47,3.05-1.41,3.96-4.77,4.55c-0.29,2.23,0.17,4.56-0.26,6.8c-0.22-0.01-0.44-0.02-0.66-0.02c-0.04-0.49-0.11-0.98-0.12-1.47
			c-0.02-0.88-0.03-1.77,0.01-2.65c0.06-1.58,0.05-2.89-1.84-3.98c-2.25-1.3-3.55-5.85-2.55-8.14c0.13,0.42,0.26,0.84,0.4,1.26
			c0.61,1.8,1.14,3.63,1.89,5.38c0.27,0.62,1.09,1.04,1.98,1.84c0.05-0.82,0.11-1.24,0.1-1.65c-0.03-2.78-0.11-5.57-0.1-8.36
			c0-0.68,0.27-1.35,0.41-2.03C286.46,246.95,286.68,246.99,286.9,247.02z"/>
		<path class="st1" d="M566.41,214.85c-0.27,0.56-0.56,1.05-0.74,1.57c-0.72,2.13-2.33,3.41-4.42,3.49
			c-1.67,0.06-2.9-0.66-3.54-2.07c-0.51-1.13-1.01-2.27-1.56-3.39c-1.16-2.34,0.1-5.08,2.84-6.13c2.65-1.02,5.21-0.06,6.26,2.49
			C565.77,212.1,566.03,213.49,566.41,214.85z M558.34,214.81c-0.02-0.2-0.04-0.41-0.06-0.61c2.17-0.51,4.47-0.01,6.75-0.32
			c-0.32-2.02-0.57-3.97-2.85-4.85c-1.64-0.64-3.07-0.04-4.25,1.01c-1.09,0.97-1.55,2.15-0.99,3.67c0.45-1.12,0.41-2.42,2.12-2.44
			c-1.28,1.34-1.18,2.92-0.99,4.44c0.16,1.26,0.46,2.77,2.01,3.12c0.98,0.22,2.32-0.11,3.22-0.61c1.19-0.66,1.6-1.92,1.58-3.4
			C562.65,214.81,560.5,214.81,558.34,214.81z"/>
		<path class="st1" d="M451.13,273.74c2.32-0.49,2.92-1.14,3.13-3.51c0.35-3.8-0.43-7.47-1.42-11.14c-1.32-4.89-2.68-9.77-3.79-14.7
			c-0.39-1.73-0.26-3.6-0.08-5.38c0.11-1.08,0.78-2.1,2.3-2.56c-0.02,0.37,0.04,0.6-0.06,0.69c-2.24,2.07-1.79,4.63-1.23,7.02
			c1.32,5.66,3.03,11.23,4.3,16.9c0.64,2.83,0.8,5.77,0.94,8.67c0.05,1.13-0.43,2.34-0.92,3.43c-0.46,1.05-1.51,1.46-2.77,1.17
			C451.37,274.28,451.28,273.96,451.13,273.74z"/>
		<path class="st1" d="M345.93,314.59c-0.08-0.26-0.22-0.51-0.22-0.77c-0.03-1.13-0.12-2.26,0.02-3.38
			c0.11-0.89,0.66-1.75,0.75-2.64c0.21-1.93,0.24-3.88,0.36-5.81c0.04-0.57-0.22-1.2,0.84-1.43c0.36-0.08,0.49-1.01,0.86-1.83
			c0.43,0.53,0.82,0.85,0.98,1.24c1.67,4.01,3.31,8.03,4.93,12.06c0.2,0.49,0.3,1.03,0.32,1.55c0.01,0.19-0.36,0.4-0.56,0.6
			c-0.15-0.18-0.35-0.34-0.44-0.54c-0.08-0.19-0.01-0.43-0.05-0.65c-0.21-1.37-0.88-2.13-2.58-2.29c-3.63-0.34-3.61-0.43-4.39,2.8
			c-0.09,0.39-0.29,0.75-0.44,1.12C346.19,314.61,346.06,314.6,345.93,314.59z M347.34,309.49c1.91,0.17,3.44,0.31,5.2,0.46
			c-1.2-2.93-2.32-5.65-3.44-8.38c-0.14,0.02-0.28,0.03-0.42,0.05C348.25,304.21,347.8,306.81,347.34,309.49z"/>
		<path class="st1" d="M508.35,370.8c-0.54,0-1.07,0.01-1.61,0c-1.85-0.02-3.7-0.11-5.54-0.04c-1.89,0.07-2.29,0.67-1.7,2.34
			c0.67,1.93,1.78,3.81,2.03,5.78c0.54,4.24,0.67,8.53,0.94,12.8c0.06,0.97,0.09,1.95,0.03,2.92c-0.08,1.14,0.6,1.39,1.63,1.25
			c1.15-0.15,2.29-0.42,3.46-0.49c0.6-0.04,1.22,0.21,1.83,0.32c-0.03,0.15-0.05,0.31-0.08,0.47c-2.08,0.18-4.15,0.44-6.24,0.53
			c-1.16,0.05-1.54-0.76-1.54-1.71c-0.01-2.12-0.03-4.24-0.05-6.36c-0.04-3.89-0.11-7.78-1.45-11.54c-0.46-1.3-1.08-2.56-1.52-3.86
			c-0.69-2.04,0.03-3.15,2.33-3.28c2.23-0.13,4.47,0,6.7,0.06c0.3,0.01,0.59,0.26,0.89,0.4
			C508.42,370.52,508.39,370.66,508.35,370.8z"/>
		<path class="st1" d="M623.22,202.15c-1.19,6.31-0.2,12.65-0.09,18.98c-0.18,0.02-0.36,0.05-0.54,0.07
			c-0.15-0.41-0.25-0.84-0.47-1.21c-0.73-1.26-1.34-2.64-2.33-3.72c-0.94-1.04-2.41-0.87-3.5,0.05c-1.04,0.88-1.13,1.95-0.26,3.1
			c1.7,2.23,5.7,2.9,8.24,1.39c0.31-0.19,0.67-0.31,1.01-0.47c0.11,0.15,0.23,0.29,0.35,0.44c-0.57,0.43-1.09,0.97-1.73,1.25
			c-2.62,1.17-6.86,0.14-8.56-2.01c-1.27-1.6-1.15-3.15,0.34-4.39c1.48-1.23,3.46-1.21,4.98,0.07c0.37,0.32,0.65,0.73,0.97,1.1
			c0.12-0.06,0.23-0.12,0.34-0.18c-0.07-0.99-0.2-1.99-0.19-2.98c0.03-3.36,0.08-6.71,0.2-10.07c0.02-0.54,0.43-1.08,0.66-1.61
			C622.85,202.03,623.03,202.09,623.22,202.15z"/>
		<path class="st1" d="M575.87,395.17c-0.1,0.32-0.21,0.64-0.42,1.28c1.42,0,2.73,0.17,3.96-0.05c1.15-0.21,0.82-1.29,0.74-2.03
			c-0.13-1.23-0.27-2.48-0.64-3.66c-1.4-4.5-2.04-9.09-2.15-13.76c-0.02-0.84-0.09-1.68-0.1-2.52c-0.06-4.06-1.39-5.25-6.3-5.1
			c-0.29,0.01-0.58-0.06-0.94-0.42c0.35-0.17,0.69-0.46,1.04-0.47c4.15-0.1,6.84,0.69,7.12,4.95c0.19,2.87,0.12,5.77,0.54,8.61
			c0.53,3.58,1.45,7.12,2.2,10.68c0.06,0.26,0.12,0.52,0.15,0.78c0.45,3.63-1.7,5.09-5.48,3.68c-0.49-0.18-1-0.75-1.11-1.21
			c-0.07-0.29,0.59-0.73,0.92-1.1C575.56,394.95,575.71,395.06,575.87,395.17z"/>
		<path class="st1" d="M235.59,245.48c-0.25,0.79-0.52,1.5-0.69,2.23c-0.46,1.95-1.61,3.4-3.69,4.09c-2.06,0.69-3.83,0.18-4.54-1.67
			c-0.64-1.66-0.71-3.5-0.99-5.26c-0.06-0.42,0.16-0.88,0.1-1.3c-0.17-1.19-0.2-2.37,1.07-3.07c1.36-0.74,2.85-0.77,4.32-0.17
			c1.69,0.69,2.74,1.89,3.4,3.44C234.82,244.38,235.25,244.93,235.59,245.48z M226.3,246.13c0.51,1.49,0.77,2.73,1.35,3.84
			c0.64,1.22,1.77,1.51,3.2,1.01c2.02-0.71,2.94-2.15,3.21-4.05c0.11-0.78-0.13-1.05-0.97-1.02
			C230.97,246.01,228.85,246.05,226.3,246.13z M233.96,244.94c-0.23-0.57-0.39-1.12-0.66-1.62c-0.95-1.77-3.13-2.83-5-2.43
			c-0.97,0.21-1.72,0.65-1.58,1.72c0.13,0.95,0.27,1.9,0.37,2.66C229.21,245.17,231.51,245.06,233.96,244.94z"/>
		<path class="st1" d="M307.09,342.45c-0.15-0.59-0.26-0.96-0.35-1.33c-0.2-0.86-0.25-1.77-0.61-2.56c-0.48-1.06-1.53-1.07-2.2-0.08
			c-1.18,1.74-1.27,3.7-1.16,5.65c0.15,2.73,0.83,5.34,2.67,7.58c0.2,0.25,0.38,0.56,0.65,0.7c0.44,0.21,0.98,0.45,1.41,0.38
			c0.24-0.04,0.54-0.77,0.45-1.1c-0.41-1.53-0.9-3.05-1.47-4.54c-0.53-1.39-0.33-1.79,1.23-1.89c1.55-0.1,3.11-0.18,4.66-0.25
			c0.35-0.02,0.7,0.07,1.07,0.28c-1.85,1.13-4.03,0.59-6.2,0.98c0.24,0.57,0.48,1.03,0.63,1.52c0.39,1.27,0.9,2.54,1.03,3.83
			c0.07,0.65-0.43,1.75-0.97,1.94c-0.67,0.23-1.87-0.04-2.44-0.51c-1.74-1.43-2.65-3.37-3.16-5.42c-0.67-2.7-0.92-5.42,0.03-8.12
			c0.22-0.63,0.52-1.25,0.94-1.78c0.73-0.93,1.78-1.07,2.84-0.53C307.51,337.88,308.15,340.88,307.09,342.45z"/>
		<path class="st1" d="M468.09,243.19c1.18,6.81,2.36,13.63,3.56,20.52c-2.02,0-4.06,0.12-6.06-0.06c-0.95-0.09-1.96-0.62-2.7-1.2
			c-0.52-0.41-1.06-1.42-0.84-1.86c0.31-0.62,1.38-1.42,1.99-1.33c1.58,0.23,3.1,0.85,4.6,1.41c0.6,0.23,1.07,0.73,1.8,1.26
			c-1.2-6.35-2.75-12.44-2.91-18.68C467.72,243.24,467.9,243.21,468.09,243.19z M470.13,263c-1.86-1.64-3.52-2.87-5.86-2.92
			c-0.44-0.01-1.11,0.31-1.25,0.64c-0.12,0.28,0.24,0.92,0.59,1.15C465.42,263.08,467.47,263.34,470.13,263z"/>
		<path class="st1" d="M171.54,295.43c-0.55,0.28-0.87,0.44-1.23,0.62c0.04,0.15,0.08,0.31,0.12,0.47c0.24,1.21,0.6,2.4,0.68,3.62
			c0.06,1.02-0.56,1.23-1.53,0.49c1.34-1.55,0.15-2.96-0.34-4.4c-0.06-0.19-0.53-0.36-0.82-0.37c-1.12-0.04-2.24,0.01-3.35-0.02
			c-0.89-0.02-1.22,0.38-1.21,1.13c0.01,0.75,0.01,1.5-0.04,2.25c-0.02,0.38-0.15,0.76-0.24,1.14c-0.15-0.01-0.3-0.01-0.44-0.02
			c-0.22-1.49-1.05-3.17-0.55-4.42c1.58-3.95,0.25-8.15,1.4-12.21c1.08,2.29,1.87,4.43,3.07,6.35
			C168.23,291.94,168.43,294.53,171.54,295.43z M164.86,288.11c-0.1,0.03-0.19,0.05-0.29,0.08c-0.15,2.24-0.29,4.49-0.44,6.65
			c1.56,0,2.93,0,4.44,0C167.28,292.48,166.07,290.3,164.86,288.11z"/>
		<path class="st1" d="M212.04,247.16c-0.03,3.08-1.63,4.82-4.2,4.93c-2.69,0.12-4.61-1.44-4.87-4.11c-0.15-1.57-0.31-3.2-0.05-4.73
			c0.47-2.71,2.78-3.6,5.41-2.22C211.08,242.45,211.83,244.88,212.04,247.16z M210.95,247.26c0.03-2.45-1.3-4.71-3.25-5.57
			c-2.06-0.91-3.47-0.29-3.82,1.73c0.69,0.12,1.29,0.16,0.61,1.1c-0.53,0.72-0.57,1.73-0.87,2.74
			C206.3,247.26,208.57,247.26,210.95,247.26z M204.08,248.23c0.39,2.06,1.77,3.1,3.76,3c1.76-0.09,2.88-1.15,2.98-3
			C208.61,248.23,206.42,248.23,204.08,248.23z"/>
		<path class="st1" d="M385.87,326.7c-0.21-0.36-0.57-0.7-0.6-1.07c-0.21-2.39-0.3-4.79-0.53-7.18c-0.19-2.02-0.18-4.13-0.85-6.03
			c-1.01-2.84,0.13-5.6-0.2-8.39c-0.03-0.26,0.32-0.58,0.53-0.84c0.07-0.09,0.26-0.11,0.4-0.14c1.54-0.32,3.71,0.86,4.84,2.64
			c0.85,1.33,0.79,2.83-0.49,3.88c-1.11,0.91-2.5,1.54-4.03,2.45c0.14,4.6,1.67,9.53,1.61,14.56
			C386.32,326.61,386.1,326.66,385.87,326.7z M384.43,304.04c0.11,2.21,0.22,4.33,0.33,6.53c1.99-0.11,3.31-0.9,4.04-2.28
			c0.67-1.26-0.11-2.28-1.09-3.18C386.8,304.29,385.85,303.58,384.43,304.04z"/>
		<path class="st1" d="M213.88,328.29c1.63-0.6,3.34-0.5,5-0.06c0.36,0.1,0.67,0.84,0.73,1.32c0.78,5.65,1.58,11.3,2.23,16.97
			c0.27,2.32,0.31,4.68,0.22,7.01c-0.08,1.99-1.01,2.66-3.17,2.65c-0.91,0-1.88-0.03-2.71-0.31c-1.06-0.36-1.23-1.11-0.63-1.74
			c0.81,0.45,1.45,1.08,2.14,1.14c2.97,0.27,3.68-0.25,3.45-2.97c-0.43-5.19-1.08-10.37-1.65-15.55c-0.25-2.24-0.58-4.47-0.78-6.72
			c-0.08-0.91-0.46-1.26-1.44-1.23c-1.13,0.04-2.25,0.01-3.38,0.01C213.9,328.64,213.89,328.46,213.88,328.29z"/>
		<path class="st1" d="M635.08,305.57c2.87-0.67,4.65-3.93,3.42-6c0.97-0.3,1.56,0.02,1.48,0.94c-0.21,2.45-1.15,4.6-3.77,5.72
			c-0.84,0.36-1.04,0.75-0.88,1.51c0.21,1.04,0.36,2.1,0.42,3.16c0.02,0.28-0.36,0.59-0.56,0.89c-0.26-0.31-0.73-0.61-0.75-0.93
			c-0.09-1.33-0.04-2.66-0.04-3.98c-4.19-0.85-5.22-3.61-5.61-6.77c-0.15-1.25-0.12-2.49,1.19-3.38c-0.6,3.7-0.47,7.07,3.47,9.1
			c0.21-0.05,0.41-0.1,0.62-0.15c-0.26-1.89-0.54-3.79-0.79-5.68c-0.15-1.1-0.28-2.2-0.36-3.3c-0.03-0.36,0.16-0.74,0.24-1.11
			c0.16,0,0.33,0.01,0.49,0.01C634.14,298.92,634.61,302.23,635.08,305.57z"/>
		<path class="st1" d="M436.84,215.93c0.49-0.22,0.8-0.35,1.12-0.49c-0.27-1.62-0.85-2.08-2.65-2.12c-0.97-0.02-1.96,0.03-2.92-0.07
			c-1.2-0.13-1.58,0.37-1.56,1.35c0.01,0.62,0.01,1.24-0.06,1.85c-0.04,0.33-0.21,0.65-0.32,0.98c-0.17-0.02-0.33-0.04-0.5-0.06
			c0-1.41-0.14-2.82,0.03-4.21c0.27-2.19,0.73-4.36,1.14-6.54c0.24-1.28,1.17-2.54,0.1-3.86c-0.05-0.07,0.12-0.29,0.32-0.71
			c0.35,0.46,0.6,0.74,0.78,1.04c1.61,2.82,3.17,5.67,4.86,8.46c0.34,0.56,1.13,0.91,1.4,1.11c0.11,0.92,0.16,1.63,0.29,2.32
			c0.06,0.34,0.35,0.65,0.41,0.99c0.08,0.48,0.03,0.99,0.04,1.48c-0.42-0.2-0.86-0.37-1.26-0.61
			C437.67,216.62,437.34,216.32,436.84,215.93z M436.48,212.36c-1.35-2.3-2.64-4.47-3.93-6.65c-0.1,0.03-0.2,0.06-0.3,0.09
			c-0.39,2.15-0.77,4.3-1.18,6.56C432.92,212.36,434.55,212.36,436.48,212.36z"/>
		<path class="st1" d="M651.27,383.45c0.7-5.4,0.87-10.81,1.91-16.13c0.21-0.01,0.41-0.03,0.62-0.04c0.13,0.67,0.46,1.37,0.37,2.01
			c-0.28,2.08-0.85,4.12-1.07,6.2c-0.31,2.86-0.4,5.74-0.58,8.61c-0.02,0.31,0.02,0.64-0.09,0.92c-0.14,0.35-0.4,0.66-0.61,0.98
			c-0.3-0.29-0.72-0.54-0.88-0.88c-1.96-4.19-3.86-8.39-5.81-12.58c-0.37-0.79-0.93-1.51-1.44-2.33c1.07-0.47,1.41,0.32,1.7,0.86
			c1.42,2.71,2.82,5.43,4.15,8.18C650.19,380.62,650.7,382.05,651.27,383.45z"/>
		<path class="st1" d="M169.63,327.92c-2.19,0.74-4.46-0.73-6.71,0.34c0.65,1.53,1.27,2.96,1.85,4.4c1.29,3.2,1.61,6.54,1.7,9.9
			c0.08,3.09,0.18,6.18,0.27,9.28c0.05,1.51,0.4,1.82,2.12,1.86c0.65,0.02,1.3,0,1.96,0.21c-0.94,0.97-2.12,0.68-3.21,0.52
			c-1.23-0.18-1.79-0.96-1.82-2.07c-0.09-3.05-0.07-6.11-0.31-9.14c-0.24-2.98-0.6-5.97-1.21-8.91c-0.35-1.71-1.3-3.32-1.98-4.97
			c-0.56-1.36-0.2-2.04,1.39-2.24C165.73,326.83,167.71,327.2,169.63,327.92z"/>
		<path class="st1" d="M316.58,257.97c-0.15,0.78-0.21,1.58-0.47,2.33c-0.47,1.38-1.39,2.44-3.1,2.65
			c-1.82,0.23-3.29-0.42-4.23-1.81c-1.64-2.41-1.53-5.03-0.39-7.5c1.08-2.34,5-2.66,6.51-0.53c0.98,1.38,1.34,3.12,1.98,4.7
			C316.79,257.87,316.69,257.92,316.58,257.97z M308.65,257.95c0.19,0.79,0.24,1.32,0.43,1.79c0.65,1.6,2.07,2.49,3.63,2.35
			c1.41-0.13,2.61-1.16,2.66-2.89c0.04-1.63-0.18-3.36-0.77-4.9c-0.7-1.83-2.62-2.19-4.44-1.18c-0.95,0.53-1.43,1.13-0.48,1.76
			c-0.25,0.64-0.75,1.3-0.57,1.6c0.23,0.37,1.01,0.55,1.59,0.64c0.91,0.14,1.85,0.07,2.75,0.22c0.57,0.1,1.1,0.43,1.64,0.66
			c-0.05,0.12-0.1,0.23-0.15,0.35C312.94,258.22,310.91,258.09,308.65,257.95z"/>
		<path class="st1" d="M474.75,252.64c0.87,2.45,0.82,5.27,3.56,7.13c0.14-1.32,0.09-2.52,0.44-3.62c0.37-1.14,0.96-2.3,1.75-3.25
			c0.77-0.94,1.91-0.77,2.72,0.15c2.4,2.74,0.37,7.58-3.66,8.15c0.48,2.48,0.95,4.95,1.43,7.43c-0.18,0.04-0.35,0.09-0.53,0.13
			c-0.15-0.18-0.41-0.33-0.45-0.53c-0.46-2.08-0.83-4.17-1.35-6.24c-0.14-0.57-0.57-1.2-1.07-1.54
			C475.38,258.94,473.65,254.65,474.75,252.64z M479.43,260.02c0.14,0.13,0.28,0.27,0.41,0.4c0.74-0.39,1.69-0.62,2.19-1.18
			c1.31-1.47,1.46-3.24,0.79-4.99c-0.5-1.3-1.23-1.37-2.14-0.28C479.14,255.81,479.52,257.95,479.43,260.02z"/>
		<path class="st1" d="M623.32,324.2c-0.3,0.04-0.36,0.07-0.39,0.05c-1.91-1.24-2.32-6.52,0.14-8.15c1.56-1.03,4.15-0.61,5.82,0.96
			c1.82,1.7,2.2,3.8,1.92,6.03c-0.3,2.36-1.32,4.44-3.27,6.06c-1.05,0.87-2.24,0.58-2.15-0.6c0.19-2.4,0.75-4.78,1.18-7.16
			c0.03-0.15,0.31-0.27,0.79-0.32c-0.39,2.49-0.79,4.99-1.18,7.48c0.16,0.07,0.32,0.13,0.47,0.2c0.48-0.5,1.03-0.95,1.42-1.5
			c1.76-2.45,2.45-5.07,1.31-7.93c-0.54-1.35-1.63-2.18-3.04-2.69c-2.15-0.78-3.93,0.42-3.96,2.86c-0.02,1.2,0.44,2.4,0.69,3.61
			C623.14,323.45,623.23,323.82,623.32,324.2z"/>
		<path class="st1" d="M208.45,290.14c1.78,2.78,3.56,5.56,5.47,8.54c-0.49-6.51-0.96-12.75-1.44-18.99
			c0.23-0.06,0.45-0.12,0.67-0.18c0.21,0.43,0.61,0.86,0.61,1.3c0.14,6.53,0.35,13.05,1.78,19.48c0.13,0.6,0.44,1.17,0.62,1.76
			c0.08,0.29,0.05,0.6,0.09,1.04c-1.5-0.87-8.18-11.47-8.18-12.74C208.2,290.27,208.32,290.2,208.45,290.14z"/>
		<path class="st1" d="M362.37,357.04c-1.01,0-1.85-0.11-2.64,0.02c-2.14,0.36-2.81-0.15-2.64-2.11c0.3-3.35,0.65-6.7,0.85-10.05
			c0.16-2.86-0.45-5.62-1.69-8.28c-0.95-2.04-0.39-3.13,1.97-3.64c1.49-0.32,3.08-0.4,4.62-0.41c0.74,0,1.48,0.42,2.22,0.64
			c-0.04,0.16-0.08,0.32-0.11,0.48c-0.41-0.03-0.82-0.09-1.22-0.07c-1.92,0.1-3.85,0.12-5.74,0.37c-1.06,0.14-1.52,0.93-1.01,1.92
			c2.67,5.14,2.01,10.54,1.5,15.92c-0.1,1.06-0.26,2.11-0.41,3.16c-0.15,1.01,0.08,1.59,1.41,1.21c0.6-0.17,1.23-0.27,1.86-0.31
			C362.29,355.82,362.67,356.23,362.37,357.04z"/>
		<path class="st1" d="M276.78,340.91c-2.3,0.11-4.16,0.2-6.25,0.3c1.52,1.99,1.95,3.97,1.57,6.11c-0.33,1.84-1.6,2.34-3.16,1.13
			c-3.14-2.44-3.58-5.73-3.23-9.18c0.2-1.94,0.76-3.81,2.89-4.75c0.6-0.27,1.64-0.35,2.12-0.04c0.52,0.33,0.61,1.21,0.89,1.85
			c-0.28,0.18-0.56,0.36-0.83,0.55c-0.08-0.3-0.2-0.58-0.25-0.88c-0.22-1.35-1.12-1.13-1.81-0.5c-0.72,0.66-1.42,1.5-1.69,2.37
			c-0.93,3.06-0.68,6.07,1.33,8.76c0.49,0.66,1.46,1.03,2.22,1.52c0.22-0.78,0.74-1.6,0.59-2.31c-0.27-1.34-0.85-2.65-1.46-3.92
			c-0.28-0.59-0.7-1.17,0.27-1.29c1.96-0.23,3.95-0.27,5.93-0.35C276.07,340.25,276.25,340.5,276.78,340.91z"/>
		<path class="st1" d="M205.33,334.55c-0.61,0.05-0.67,0.08-0.7,0.06c-1.6-1.1-2.34-1.04-3.1,0.74c-1.51,3.52-1.28,7.04,0.89,10.3
			c0.72,1.09,1.95,1.8,4.04,1.59c-0.69-1.07-1.2-1.97-1.81-2.79c-0.69-0.92-2.27-1.75-1.51-2.88c0.52-0.78,2.08-1.09,3.24-1.39
			c1.06-0.27,2.21-0.25,3.32-0.31c0.27-0.01,0.56,0.18,0.84,0.28c-0.25,0.21-0.47,0.56-0.74,0.59c-1.39,0.18-2.81,0.25-4.2,0.42
			c-0.56,0.07-1.08,0.33-1.95,0.61c0.66,0.79,1.24,1.4,1.72,2.07c0.59,0.84,1.26,1.69,1.6,2.62c0.43,1.16-0.36,1.91-1.71,1.73
			c-1.69-0.22-3.03-1.05-3.86-2.37c-2.01-3.16-2.14-6.58-1.12-10.01c0.29-0.99,1.23-1.87,2.06-2.65c0.32-0.3,1.26-0.39,1.7-0.19
			C204.53,333.23,204.81,333.9,205.33,334.55z"/>
		<path class="st1" d="M180.04,241.31c-0.5,0.15-0.79,0.35-0.98,0.29c-0.92-0.28-1.84-0.19-2,0.7c-0.13,0.71,0.08,1.73,0.59,2.23
			c1.13,1.12,2.55,2.01,3.92,3.04c1.43-1.21,2.9-2.44,4.36-3.68c0.16,0.06,0.31,0.13,0.47,0.19c0,0.9-0.02,1.8,0.01,2.71
			c0.02,0.75,0.02,1.51,0.2,2.24c0.1,0.39,0.55,0.71,0.84,1.07c0.37-0.31,0.87-0.55,1.1-0.93c0.28-0.49,0.35-1.08,0.49-1.6
			c0.16-0.02,0.3-0.07,0.34-0.04c0.99,0.83,0.3,1.71-0.17,2.35c-0.39,0.53-1.33,1.08-1.94,1.01c-0.59-0.07-1.37-0.85-1.53-1.44
			c-0.33-1.16-0.3-2.41-0.44-3.93c-1.26,1.59-3.36,2.16-3.72,4.13c-0.03,0.16-0.15,0.36-0.3,0.45c-0.82,0.49-1.66,0.97-2.52,1.4
			c-0.09,0.05-0.54-0.31-0.53-0.32c0.45-0.69,0.92-1.38,1.43-2.04c0.22-0.28,0.56-0.48,1.35-1.13c-0.82-0.54-1.61-1.02-2.35-1.55
			c-0.75-0.55-1.56-1.08-2.17-1.76c-0.96-1.06-0.83-2.65,0.19-3.51C177.65,240.33,178.71,240.34,180.04,241.31z"/>
		<path class="st1" d="M332.77,206.03c0.48,0.48,0.9,0.76,1.09,1.13c1.21,2.27,2.34,4.56,3.56,6.82c0.33,0.61,0.88,1.12,1.43,1.81
			c-0.93,1.18,0.42,2.27,0.8,3.51c0.11,0.35,0.18,0.83,0,1.09c-0.15,0.21-0.7,0.19-0.81,0.22c-0.53-1.57-0.99-2.94-1.44-4.28
			c-1.83,0-3.51,0-5.44,0c-0.15,0.74-0.3,1.59-0.51,2.42c-0.07,0.29-0.29,0.56-0.44,0.83c-0.19-0.3-0.57-0.63-0.53-0.91
			c0.21-1.39,0.57-2.76,0.82-4.15C331.8,211.84,332.24,209.13,332.77,206.03z M337.03,215.39c-1.2-2.5-2.26-4.69-3.31-6.88
			c-0.1,0.03-0.2,0.06-0.31,0.09c-0.39,2.2-0.78,4.4-1.2,6.79C333.83,215.39,335.29,215.39,337.03,215.39z"/>
		<path class="st1" d="M326.89,257.92c0-1.63-0.12-3.04,0.04-4.42c0.11-0.89,0.49-1.81,0.99-2.59c0.6-0.95,1.83-0.87,2.52,0.04
			c1.48,1.93,0.58,6.53-1.51,7.97c-0.25,0.17-0.43,0.67-0.34,0.95c0.34,1.11,0.79,2.18,1.2,3.27c0.16,0.44,0.33,0.88,0.49,1.32
			c-0.1,0.08-0.21,0.15-0.31,0.23c-0.25-0.17-0.6-0.29-0.74-0.52c-0.28-0.46-0.46-0.97-0.67-1.47c-0.8-1.86-1.23-3.72-3.4-5.07
			c-2.16-1.35-2.85-3.92-3.08-6.37c-0.02-0.17,0.01-0.36,0.09-0.5c0.05-0.1,0.22-0.15,0.6-0.39
			C323.42,253.18,323.95,255.99,326.89,257.92z M329.15,251.21c-1.46,1.07-1.91,4.6-0.89,6.85
			C330.33,257.28,330.92,252.72,329.15,251.21z"/>
		<path class="st1" d="M249.04,335.95c0.62-0.27,1.21-0.7,1.86-0.79c2.39-0.32,4.8-0.57,7.21-0.76c0.42-0.03,1.08,0.3,1.26,0.64
			c0.13,0.25-0.34,0.76-0.37,0.82c-1.01-0.27-1.71-0.65-2.38-0.61c-1.77,0.1-3.52,0.38-5.31,0.59c0.35,2.19,0.65,4.1,0.96,6.12
			c2.79,0.02,5.56-0.89,8.32-0.25c0.01,0.16,0.03,0.31,0.04,0.47c-2.74,0.24-5.48,0.47-8.37,0.72c0.21,2.88,0.42,5.65,0.63,8.42
			c-0.21,0.03-0.43,0.05-0.64,0.08c-0.16-0.54-0.41-1.07-0.47-1.62c-0.4-4-0.78-8-1.13-12.01c-0.07-0.85-0.32-1.45-1.51-1.35
			C249.1,336.27,249.07,336.11,249.04,335.95z"/>
		<path class="st1" d="M342.29,385.65c-0.36,0.27-0.68,0.63-1.09,0.8c-2.23,0.9-6.67,0.05-8.32-1.55c-2.09-2.02-1.93-4.87,0.52-7.39
			c1.77-1.83,4-2.85,6.73-2.29c0.77,0.16,1.95,0.82,1.99,1.31c0.05,0.7-0.58,1.78-1.27,2.11c-1.43,0.69-3.05,1.1-4.64,1.41
			c-1.07,0.21-2.22,0.04-3.39,0.04c-0.67,1.44-0.65,2.85,0.57,3.94c2.48,2.21,5.47,2.34,8.63,1.28
			C342.11,385.42,342.2,385.53,342.29,385.65z M333.3,379.19c2.64,0.23,5-0.06,7.12-1.32c0.39-0.23,0.58-0.76,0.85-1.15
			c-0.43-0.23-0.83-0.59-1.28-0.67C337.37,375.61,334.99,376.7,333.3,379.19z"/>
		<path class="st1" d="M504.2,259.37c-0.55-5.11-1.56-9.92-1.31-14.79c0.2-0.02,0.4-0.04,0.6-0.06c0.08,0.39,0.2,0.77,0.24,1.16
			c0.47,4.31,0.92,8.62,1.39,12.93c0.04,0.35,0.07,0.71,0.19,1.04c0.61,1.72,0.25,2.59-1.71,2.76c-1.51,0.13-3.15-0.2-4.62-0.64
			c-1.36-0.41-1.76-1.51-1.33-2.56c0.47-1.16,1.66-1.8,3.02-1.52c0.6,0.12,1.18,0.4,1.73,0.66
			C502.95,258.61,503.46,258.94,504.2,259.37z M504.41,261.22c-0.98-1.38-2.28-2.26-3.93-2.65c-0.92-0.22-1.78,0.14-1.88,1
			c-0.05,0.48,0.46,1.26,0.96,1.48C501.04,261.71,502.64,262.19,504.41,261.22z"/>
		<path class="st1" d="M419.1,292.05c1.49-0.64,3.12-0.95,4.67-0.36c1.33,0.51,1.17,1.75,0.76,2.78c-0.43,1.07-1.04,2.07-1.62,3.18
			c1.13,0.29,2.25,0.58,3.39,0.87c-0.05,0.19-0.09,0.39-0.14,0.58c-0.99-0.13-2.01-0.18-2.98-0.41c-0.84-0.2-1.37-0.08-1.84,0.58
			c-0.79,1.1-1.64,2.15-2.74,3.57c3.07,0,5.69,0,8.31,0c0.04,0.15,0.08,0.29,0.13,0.44c-0.35,0.17-0.7,0.49-1.05,0.5
			c-2.04,0.05-4.09,0.1-6.13,0.01c-1.86-0.08-2.3-0.9-1.34-2.34c0.67-1.02,1.44-1.98,2.33-3.2c-1.84-0.15-3.54-0.29-5.25-0.43
			c-0.02-0.13-0.04-0.25-0.06-0.37c0.34-0.12,0.68-0.34,1.02-0.33c1.21,0.02,2.44,0.01,3.62,0.23c1.16,0.21,1.89-0.09,2.37-1
			c0.44-0.83,0.9-1.67,1.18-2.55c0.31-0.96-0.13-1.56-1.34-1.47c-0.68,0.05-1.35,0.15-2.03,0.2c-0.39,0.03-0.78,0.01-1.18,0.01
			C419.15,292.37,419.12,292.21,419.1,292.05z"/>
		<path class="st1" d="M635.47,388.49c0.04-0.49-0.07-1.03,0.14-1.45c0.83-1.68,1.74-3.34,2.67-4.98c0.89-1.57,2.03-3.04,2.73-4.66
			c0.91-2.11,0.02-3.32-2.43-3.4c-2.76-0.08-5.54,0.03-8.3,0.11c-1.66,0.05-3.3,0.22-4.96,0.31c-0.32,0.02-0.64-0.07-1.11-0.4
			c0.29-0.15,0.58-0.42,0.88-0.44c4.57-0.18,9.13-0.47,13.7-0.43c2.93,0.02,4.22,1.88,3.18,4.38c-0.7,1.68-1.86,3.19-2.74,4.81
			c-1,1.85-1.92,3.74-2.89,5.6c-0.11,0.22-0.3,0.42-0.45,0.63C635.76,388.54,635.61,388.52,635.47,388.49z"/>
		<path class="st1" d="M415.31,247.86c0.42,0.73,0.83,1.13,0.88,1.57c0.39,3.17,2.31,5.7,4.03,8.34c0.74,1.14,0.89,2.62,1.19,3.97
			c0.04,0.19-0.6,0.5-1.23,1c0.07-0.92,0.2-1.38,0.11-1.8c-0.43-2.1-0.84-2.33-3.11-1.87c-0.28,0.06-0.57,0.11-0.86,0.14
			c-1.3,0.12-2.43,0.37-2.23,1.94c0.03,0.22-0.27,0.46-0.77,0.65c-0.04-0.44-0.16-0.89-0.1-1.32c0.32-2.01,0.71-4.01,1.04-6.02
			C414.6,252.42,414.91,250.38,415.31,247.86z M418.86,257.78c-1.04-1.88-1.98-3.58-3.12-5.64c-0.49,2.39-0.9,4.37-1.34,6.54
			C416.02,258.35,417.36,258.08,418.86,257.78z"/>
		<path class="st1" d="M469.95,204.2c0.43-0.08,0.86-0.21,1.3-0.22c10.02-0.42,20.03-0.84,30.05-1.22c0.98-0.04,2.15-0.31,2.96,1.1
			c-11.61-0.72-22.9,1.22-34.26,0.92C469.98,204.58,469.97,204.39,469.95,204.2z"/>
		<path class="st1" d="M414.6,354.9c1.1,0.22,1.87,0.52,2.64,0.5c1.89-0.05,2.64-0.73,2.36-2.42c-0.43-2.56-1.15-5.09-1.72-7.63
			c-0.53-2.38-1.06-4.76-1.5-7.15c-0.59-3.22-1.4-3.91-5.03-4.06c-0.44-0.02-0.89-0.12-1.32-0.17c0.04-0.27,0.03-0.41,0.07-0.43
			c2.62-1.1,6.41,0.56,6.97,3.01c0.99,4.32,2.04,8.62,3.01,12.94c0.29,1.29,0.4,2.62,0.54,3.93c0.13,1.19-0.45,2.04-1.66,2.53
			c-1.32,0.53-2.65,0.57-3.93-0.05C414.77,355.78,414.74,355.28,414.6,354.9z"/>
		<path class="st1" d="M229.14,393.9c0.39,0.09,0.79,0.15,1.16,0.27c0.68,0.21,1.32,0.58,2.01,0.66c2.55,0.3,3.16-0.29,2.9-2.64
			c-0.34-3.12-0.74-6.24-0.97-9.37c-0.1-1.4,0.1-2.83,0.26-4.23c0.14-1.27-0.46-2-1.78-2.11c-1.29-0.1-2.59-0.01-3.89-0.01
			c-0.29,0-0.58-0.02-0.89-0.03c0.04-0.24,0.02-0.36,0.07-0.4c1.44-1.08,5.84-0.83,6.89,0.5c0.41,0.52,0.61,1.34,0.52,1.98
			c-0.6,4.49-0.01,8.92,0.72,13.35c0.22,1.32,0.45,2.82-1.12,3.56c-1.59,0.75-3.32,0.46-4.9-0.3c-0.44-0.21-0.78-0.57-1.17-0.86
			C229.01,394.15,229.08,394.03,229.14,393.9z"/>
		<path class="st1" d="M205.5,204.16c0.28,0.63,0.61,1.25,0.82,1.9c0.38,1.14,0.71,2.3,1.04,3.45c0.41,1.4,0.17,3.09,2.69,3.7
			c-0.91,0.26-1.28,0.37-1.71,0.5c0.11,0.57,0.27,1.13,0.32,1.7c0.02,0.25-0.16,0.51-0.25,0.77c-0.23-0.17-0.46-0.34-0.68-0.52
			c-0.03-0.02-0.01-0.09-0.03-0.13c-0.23-0.7-0.29-1.89-0.7-2.01c-1.17-0.31-2.5-0.31-3.73-0.16c-0.49,0.06-1,0.74-1.29,1.24
			c-0.5,0.85-0.83,1.79-1.23,2.68c-0.2-0.04-0.39-0.08-0.58-0.11c0-0.41-0.12-0.87,0.02-1.24c1.37-3.52,2.79-7.03,4.21-10.54
			c0.17-0.42,0.39-0.83,0.58-1.24C205.14,204.14,205.32,204.15,205.5,204.16z M207.12,212.36c-0.59-2.14-1.13-4.1-1.68-6.07
			c-0.11,0.01-0.21,0.03-0.32,0.04c-0.7,1.99-1.4,3.98-2.12,6.04C204.38,212.36,205.63,212.36,207.12,212.36z"/>
		<path class="st1" d="M489.26,212.35c1.25-0.28,2.49-0.55,3.51-0.78c1.09,0.06,2,0.12,2.91,0.16c1.16,0.05,2.34,0.05,3.49,0.17
			c0.3,0.03,0.59,0.4,0.79,0.67c0.06,0.08-0.17,0.47-0.33,0.52c-0.28,0.08-0.64,0.06-0.94-0.01c-0.69-0.16-1.37-0.36-2.47-0.67
			c0.67,3.45,1.26,6.47,1.84,9.5c-0.17,0.03-0.35,0.07-0.53,0.1c-1.44-2.88-1.49-6.08-2.22-9.15c-0.05-0.03-0.12-0.12-0.2-0.13
			c-0.33-0.02-0.67-0.01-1.25-0.01c0.15,2.79,0.31,5.5,0.42,8.21c0.01,0.38-0.22,0.77-0.34,1.15c-0.19-0.03-0.37-0.06-0.56-0.09
			c-0.08-0.49-0.22-0.99-0.24-1.49c-0.07-2.03-0.09-4.06-0.16-6.1c-0.06-1.71-0.17-1.77-2.07-1.61c-0.52,0.05-1.05,0.06-1.57,0.08
			C489.33,212.7,489.29,212.53,489.26,212.35z"/>
		<path class="st1" d="M177.48,341.08c2.5-0.26,4.68-0.49,7.14-0.75c0.37,0.46-0.11,0.83-0.87,0.95c-1.44,0.21-2.89,0.35-4.34,0.48
			c-0.56,0.05-1.14,0.01-1.95,0.01c0.36,2.96,0.69,5.71,1.03,8.47c-0.19,0.05-0.39,0.11-0.58,0.16c-0.25-0.56-0.67-1.12-0.72-1.69
			c-0.32-3.97-0.56-7.95-0.83-11.93c-0.05-0.69-0.11-1.38-0.17-2.22c2.61,0,5.21-0.01,7.8,0.03c0.13,0,0.26,0.44,0.43,0.75
			c-2.42,0-4.63,0-6.94,0C177.48,337.17,177.48,338.95,177.48,341.08z"/>
		<path class="st1" d="M221.82,246.56c-0.6-4-2.01-8.13-1.85-12.42c0.19-0.02,0.38-0.05,0.56-0.07c0.88,4.88,1.76,9.76,2.61,14.49
			c-0.88,0.41-1.67,0.74-2.41,1.13c-1.35,0.73-4.56,0.26-5.54-0.84c-1.13-1.27-0.44-2.85,1.48-2.9
			C218.37,245.91,220.07,246.33,221.82,246.56z M221.39,247.94c-1.39-1.11-2.97-1.35-4.65-1.13c-0.39,0.05-0.97,0.43-1.02,0.73
			c-0.06,0.31,0.32,0.86,0.67,1.02C217.95,249.29,220.05,249.77,221.39,247.94z"/>
		<path class="st1" d="M178.04,395.34c-1.89-0.1-3.78-0.14-5.66-0.34c-0.27-0.03-0.66-0.76-0.66-1.16
			c0.03-5.71,0.1-11.42,0.25-17.12c0.01-0.42,0.61-1.16,0.99-1.19c1.43-0.13,2.9-0.13,4.33,0.04c1.04,0.12,1.22,0.61,0.9,1.72
			c-1.16-1.32-2.7-1.16-4.25-1.08c-0.77,0.04-1.08,0.31-1.09,1.06c-0.04,5.31-0.1,10.62-0.22,15.93c-0.02,0.98,0.41,1.18,1.37,1.18
			c1.35,0,2.7,0.13,4.05,0.2C178.06,394.83,178.05,395.09,178.04,395.34z"/>
		<path class="st1" d="M306.83,206.57c-0.68,0.88-1.76,1.69-1.95,2.65c-0.32,1.67-0.09,3.42-0.09,4.93
			c1.42,0.84,2.76-0.56,4.12,0.84c-1.37,0.2-2.41,0.35-3.69,0.53c0.24,1.38,0.46,2.69,0.73,4.22c-0.67,0.53-1.01-0.12-1.17-0.79
			c-0.24-1.03-0.35-2.09-0.53-3.28c-1.14,0.07-2.23,0.21-3.32,0.2c-2.14-0.02-2.69-0.79-1.43-2.33c1.93-2.38,4.08-4.61,6.17-6.87
			c0.22-0.23,0.67-0.28,1.02-0.41C306.72,206.35,306.78,206.46,306.83,206.57z M304.07,214.75c-0.1-1.62-0.18-3.07-0.27-4.52
			c-0.12-0.04-0.24-0.08-0.36-0.12c-1.24,1.5-2.47,2.99-3.71,4.49c0.1,0.14,0.19,0.28,0.29,0.41
			C301.34,214.92,302.65,214.84,304.07,214.75z"/>
		<path class="st1" d="M361.38,310.05c2.86,2.5,6.07,3.24,9.65,2.98c0.07,0.11,0.14,0.22,0.22,0.32c-0.39,0.2-0.77,0.57-1.17,0.58
			c-3.32,0.08-6.37-0.69-8.84-2.79c-1.82-1.55-2.08-3.79-0.76-5.39c1.42-1.71,4.44-2.31,6.46-1.26c1.04,0.53,1.24,1.3,0.62,2.23
			c-1.04,1.56-2.68,2.39-4.51,2.94C362.6,309.8,362.12,309.88,361.38,310.05z M360.87,309.03c2.41-0.05,4.8-1.12,5.7-2.6
			c0.18-0.28,0.09-0.98-0.16-1.15c-1.04-0.71-3.33-0.45-4.51,0.42C360.75,306.56,360.34,307.65,360.87,309.03z"/>
		<path class="st1" d="M429.37,322.45c-0.83,0.56-1.39,0.44-1.65-0.69c-0.33-1.42-0.54-2.87-1.09-4.36
			c-0.17,0.52-0.3,1.05-0.51,1.55c-0.28,0.65-0.54,1.34-0.98,1.9c-0.54,0.68-1.21,0.7-1.72-0.11c-0.19-0.3-0.4-0.63-0.47-0.96
			c-0.54-2.33-0.68-4.67,0.27-6.92c0.27-0.64,1.08-1.49,1.69-1.51c0.61-0.03,1.51,0.72,1.86,1.34c0.71,1.24,1.59,2.62,1.55,3.92
			c-0.04,1.19-0.21,2.38,0.11,3.55C428.64,320.9,429.03,321.62,429.37,322.45z M425.25,311.7c-2.02,2.19-2.26,6.99-0.8,8.43
			c0.78-1.61,1.89-3.16,2.23-4.84C426.87,314.3,425.85,313.1,425.25,311.7z"/>
		<path class="st1" d="M516.84,390.21c-1.92-1.38-6.29-12.46-5.47-14.14c0.78,2.09,1.41,4.01,2.21,5.87
			c0.82,1.93,1.79,3.8,2.85,6.03c0.34-2.34,0.61-4.37,0.93-6.4c0.32-2.02,0.7-4.03,1.08-6.24c1.12,0.6,1.29,0.92,0.89,1.89
			c-0.64,1.54-0.79,3.25-1.06,4.9c-0.35,2.14-0.61,4.29-0.95,6.43C517.24,389.1,517.02,389.62,516.84,390.21z"/>
		<path class="st1" d="M501.48,316.52c0.59-1.26,1.18-2.51,1.76-3.77c0.18,0.05,0.35,0.09,0.53,0.14c-0.05,0.37,0.04,0.82-0.16,1.1
			c-1.92,2.72-1.25,5.08,1.01,7.34c0.71,0.71,1.19,1.62,1.51,2.62c-2.06-1.23-2.88-3.39-4.64-5.16c-1.04,2.51-2,4.85-2.96,7.19
			c-0.17-0.04-0.35-0.08-0.52-0.12c0.06-0.46,0.03-0.96,0.2-1.39c0.74-1.92,1.58-3.8,2.26-5.73c0.18-0.53,0.08-1.27-0.19-1.77
			c-0.8-1.46-1.84-2.81-2.62-4.27c-0.32-0.61-0.24-1.39-0.01-2.1c1.13,2.04,2.26,4.07,3.39,6.1
			C501.18,316.64,501.33,316.58,501.48,316.52z"/>
		<path class="st1" d="M311.98,291.88c0.66,0.59,1.36,1.01,1.75,1.6c3.41,5.11,5.86,10.51,5.38,16.65c-0.22,2.73-0.53,5.51-3.04,7.5
			c-0.34,0.27-0.8,0.43-1.42,0.39c0.11-0.22,0.17-0.51,0.35-0.65c2.5-1.82,2.91-4.44,3.13-7.04c0.53-6.09-1.9-11.45-5.32-16.52
			c-0.32-0.48-0.77-0.88-1.15-1.33C311.65,292.46,311.75,292.34,311.98,291.88z"/>
		<path class="st1" d="M296.01,294.99c-0.18,0.32-0.33,0.65-0.53,0.96c-3.12,4.96-4.3,10.13-1.88,15.6
			c1.14,2.57,2.82,4.83,5.69,6.14c0.37,0.17,0.6,0.58,0.77,1c-2.79-0.49-4.43-2.25-5.84-4.2c-3.74-5.2-3.54-10.66-1.12-16.22
			c0.34-0.78,0.73-1.55,1.2-2.27c0.32-0.49,0.8-0.89,1.21-1.33C295.67,294.78,295.84,294.89,296.01,294.99z"/>
		<path class="st1" d="M373.25,338.64c-0.64,0.99-1.23,2.02-1.95,2.96c-0.87,1.13-0.77,2.04,0.1,3.21c1.1,1.49,1.89,3.17,2.73,4.81
			c0.2,0.38,0.06,0.9,0.03,1.36c0,0.03-0.6,0.1-0.63,0.04c-0.18-0.36-0.21-0.77-0.39-1.12c-0.93-1.81-1.89-3.61-2.83-5.41
			c-0.23,0.03-0.45,0.06-0.67,0.09c-0.31,1.83-0.61,3.67-0.92,5.51c-0.14,0.01-0.28,0.01-0.41,0.01c-0.1-0.34-0.32-0.69-0.27-1.01
			c0.23-1.56,0.59-3.12,0.78-4.68c0.08-0.62,0.03-1.4-0.32-1.89c-0.87-1.22-1.96-2.29-2.94-3.45c-0.28-0.33-0.45-0.75-0.67-1.13
			c0.18-0.12,0.35-0.23,0.53-0.35c1.42,1.54,2.84,3.08,4.3,4.67c1.18-1.23,1.35-3.16,3.16-3.87
			C373,338.46,373.12,338.55,373.25,338.64z"/>
		<path class="st1" d="M600.79,215.7c-0.23,0.41-0.31,0.73-0.53,0.93c-1.11,1-3.91,1.44-5.37,0.87c-1.28-0.5-1.8-1.5-1.47-3.11
			c0.3-1.42,0.74-2.82,1.19-4.51c-1.63,0-3.19,0-4.76,0c-0.01-0.2-0.01-0.39-0.02-0.59c0.71-0.06,1.42-0.23,2.11-0.16
			c2.29,0.23,3.79-0.37,4.47-2.6c0.44-1.45,0.85-1.51,1.98-1.59c-0.72,1.31-1.42,2.57-2.16,3.9c1.21,0.6,2.94-0.11,3.65,1.58
			c-1.12-0.15-2.06-0.28-3.01-0.41c-0.81-0.11-1.28,0.17-1.48,0.91c-0.33,1.24-0.78,2.46-1.04,3.71c-0.32,1.57,0.5,2.44,2.26,2.23
			C597.92,216.7,599.16,216.17,600.79,215.7z"/>
		<path class="st1" d="M444.51,307.44c-9.43,0.51-18.88,0.27-28.32,0.26c-0.02-0.23-0.05-0.45-0.07-0.67
			c0.58-0.07,1.16-0.2,1.74-0.2c7.74-0.04,15.48-0.06,23.22-0.09c1.13,0,2.27,0,3.4,0C444.49,306.97,444.5,307.21,444.51,307.44z"/>
		<path class="st1" d="M509.54,254.72c-1.17-0.05-2.34-0.1-3.9-0.16c1.39-1.33,2.85-0.48,4.16-0.87c0.44-2.24,0.29-4.66,1.09-6.9
			c0.22,0.02,0.43,0.05,0.65,0.07c-0.11,1.13-0.22,2.25-0.33,3.38c-0.12,1.18-0.24,2.36-0.36,3.54c1.44,0.56,3.26,0.13,4.18,1.92
			c-1.53-0.34-2.82-0.63-4.53-1.02c0.21,2.13,0.24,3.93,0.63,5.67c0.12,0.53,1.16,1.07,1.89,1.28c0.89,0.25,1.39-0.37,1.57-1.17
			c0.04-0.16,0.15-0.31,0.4-0.82c0.24,0.56,0.55,0.93,0.45,1.11c-0.32,0.59-0.68,1.39-1.25,1.6c-2.04,0.75-3.88-0.27-4.17-2.27
			C509.75,258.36,509.7,256.6,509.54,254.72z"/>
		<path class="st1" d="M627.53,213.74c-0.6,0.08-1.12,0.17-1.65,0.2c-0.49,0.03-0.98,0.01-1.47,0.01c-0.04-0.17-0.07-0.35-0.11-0.52
			c0.72-0.16,1.44-0.46,2.16-0.45c1.19,0.02,1.51-0.49,1.76-1.45c0.34-1.37,0.94-2.68,1.49-4c0.14-0.35,0.51-0.61,0.78-0.92
			c0.13,0.06,0.25,0.12,0.38,0.18c-0.68,1.93-1.36,3.85-2.1,5.95c1.72,0.22,3.15,0.41,4.58,0.59c-0.02,0.22-0.04,0.44-0.06,0.66
			c-1.42-0.06-2.84-0.12-4.46-0.2c-0.39,1.71-0.68,3.45,0.05,5.13c0.62,1.45,4,1.64,5.36,0.39c0.16-0.15,0.22-0.39,0.36-0.66
			c0.97,0.98,0.4,1.5-0.22,1.76c-1.69,0.71-3.51,0.93-5.21,0.11c-1.54-0.74-1.64-2.19-1.64-3.59
			C627.52,215.92,627.53,214.92,627.53,213.74z"/>
		<path class="st1" d="M377.74,207.65c0.5,3.42,1.01,6.85,1.5,10.21c1.4,0.25,2.77,0.49,4.12,0.76c0.07,0.02,0.06,0.37,0.06,0.35
			c-3.47,0-6.87,0-10.26,0c-0.01-0.21-0.01-0.42-0.02-0.63c1.59-0.09,3.18-0.19,5.08-0.29c-0.33-2.57-0.65-5.07-1.02-7.95
			c-1.11,1.77-1.98,3.17-2.85,4.56c-0.21-0.11-0.43-0.21-0.64-0.32c1.18-2.26,2.35-4.53,3.53-6.79
			C377.4,207.59,377.57,207.62,377.74,207.65z"/>
		<path class="st1" d="M675.67,391.04c3.26-1.06,3.49-3.63,3.88-5.96c0.66-3.99-0.24-7.85-2.01-11.52
			c-0.74-1.53-1.66-2.99-2.48-4.49c-0.09-0.16-0.04-0.39,0.26-0.78c0.39,0.37,0.9,0.68,1.15,1.12c2.53,4.35,4.4,8.88,4.26,13.9
			c-0.07,2.42-0.61,4.75-1.99,6.86C677.93,391.41,676.95,391.71,675.67,391.04z"/>
		<path class="st1" d="M622.85,255.11c-0.24-1.5,2.49-5.88,3.8-6.54c0.13,1.89,0.25,3.71,0.38,5.53c0.07,1.01,0.18,2.03,0.22,3.04
			c0.04,0.91,0.51,1.25,1.5,1.14c0.77-0.08,1.56-0.09,2.33-0.06c0.43,0.02,0.85,0.18,1.27,0.27c-0.02,0.15-0.03,0.3-0.05,0.45
			c-3.6,0.25-7.19,0.49-10.79,0.74c-0.04-0.21-0.08-0.42-0.12-0.63c0.77-0.12,1.53-0.27,2.3-0.37c0.86-0.12,1.72-0.2,2.67-0.31
			c-0.19-2.44-0.37-4.79-0.58-7.48C624.74,252.39,623.9,253.6,622.85,255.11z"/>
		<path class="st1" d="M276.58,268.72c-0.13-0.46-0.38-0.92-0.39-1.39c-0.2-7.33-0.38-14.66-0.55-22c-0.01-0.35,0.12-0.7,0.19-1.05
			c0.21,0.01,0.43,0.01,0.64,0.02c0.32,7.86,0.65,15.71,0.95,23.57c0.01,0.28-0.27,0.57-0.42,0.86
			C276.86,268.73,276.72,268.72,276.58,268.72z"/>
		<path class="st1" d="M532.4,387.28c1.24-3.06,2.82-5.61,5.45-7.38c0.96-0.65,2.37-0.86,3.61-1.03c0.88-0.12,1.05,0.25,0.99,1.36
			c-2.72-1.45-4.22,0.32-5.72,1.85c-1.7,1.73-2.9,3.75-3.46,6.04c-0.12,0.49-0.37,0.96-0.57,1.48c-1.44-0.94-3.4-9.29-2.28-10.65
			c0.25,1.33,0.45,2.67,0.76,3.98C531.5,384.28,531.93,385.63,532.4,387.28z"/>
		<path class="st1" d="M645.1,313.27c-2.35,0.38-4.68,0.97-7.05,1.09c-6.22,0.33-12.45,0.46-18.68,0.65
			c-0.54,0.02-1.09-0.09-1.64-0.14c-0.02-0.16-0.04-0.32-0.05-0.48c0.54-0.08,1.07-0.22,1.62-0.24c6.71-0.26,13.43-0.47,20.14-0.79
			c1.23-0.06,2.43-0.55,3.67-0.76c0.63-0.1,1.3-0.01,1.95,0C645.07,312.84,645.08,313.05,645.1,313.27z"/>
		<path class="st1" d="M673.07,378.52c-0.88-1.59-2.11-1.89-3.12-0.68c-1.18,1.4-2.07,3.07-2.78,4.73c-0.57,1.33-0.7,2.81-1.03,4.24
			c-1.22-0.62-4.24-9.69-3.31-11.05c0.41,1.3,0.82,2.59,1.23,3.89c0.43,1.35,0.88,2.7,1.42,4.35c0.75-1.74,1.28-3.23,2.04-4.61
			c0.48-0.89,1.15-1.81,2.02-2.37c0.75-0.49,1.87-0.6,2.85-0.67c0.34-0.02,0.86,0.52,1.06,0.9
			C673.56,377.49,673.25,377.92,673.07,378.52z"/>
		<path class="st1" d="M606.2,317.91c-1.35,2.49-2.58,4.78-3.82,7.07c-0.2-0.07-0.4-0.13-0.6-0.2c0.1-0.41,0.12-0.85,0.31-1.21
			c0.86-1.68,1.61-3.43,2.68-4.99c1.51-2.21,0.48-4.03-0.68-5.9c-0.09-0.15-0.23-0.28-0.33-0.43c-0.02-0.03-0.01-0.08-0.02-0.12
			c0.78-0.36,0.78-0.36,2.67,2.77c0.65-1.11,1.29-2.19,1.92-3.28c0.22,0.1,0.44,0.2,0.66,0.29c-0.41,0.89-0.75,1.82-1.26,2.67
			c-1.69,2.8,0.15,5.02,1.39,7.35c0.16,0.29,0.17,0.65,0.25,0.97c-0.37-0.11-0.95-0.13-1.07-0.35c-0.58-1.01-1.04-2.08-1.53-3.13
			C606.57,318.98,606.43,318.52,606.2,317.91z"/>
		<path class="st1" d="M307.64,268.5c-0.8-0.4-1.38-0.63-1.89-0.96c-5.04-3.24-6.33-7.89-5.59-13.11c0.32-2.24,1.29-4.42,2-6.61
			c0.13-0.39,0.44-0.72,0.67-1.08c0.18,0.05,0.36,0.1,0.54,0.15c-0.15,0.51-0.23,1.05-0.45,1.54c-1.6,3.45-2.34,6.99-1.76,10.74
			c0.52,3.36,2.39,5.91,5.4,7.84c0.35,0.23,0.68,0.49,1,0.75C307.6,267.8,307.58,267.92,307.64,268.5z"/>
		<path class="st1" d="M280.01,389.92c-0.32,0.17-0.64,0.46-0.97,0.47c-1.46,0.05-2.93,0.12-4.38,0c-1.33-0.11-1.76-0.79-1.3-1.96
			c0.3-0.78,0.84-1.49,1.22-2.25c0.85-1.68,1.82-3.33,2.46-5.07c0.6-1.64-0.5-2.55-2.37-2.2c-1.3,0.24-1.3,0.24-3.52,2.19
			c-0.43-0.8-0.4-1.47,0.55-1.91c1.25-0.59,2.67-1.11,4.05-1.19c1.75-0.11,2.87,1.49,2.26,3.24c-0.65,1.84-1.65,3.57-2.54,5.33
			c-0.44,0.87-0.98,1.7-1.65,2.85c2.24,0,4.13,0,6.02,0C279.89,389.58,279.95,389.75,280.01,389.92z"/>
		<path class="st1" d="M487.21,217.41c0.31,1.25,0.66,2.67,1.01,4.08c-0.16,0.04-0.33,0.09-0.49,0.13
			c-1.02-1.22-1.14-2.78-1.61-4.36c-1.1,0.1-2.19,0.24-3.27,0.27c-1.42,0.04-1.8-0.45-1.01-1.49c1.49-1.95,3.14-3.8,4.73-5.68
			c0.08-0.1,0.34-0.07,0.38-0.08c0,1.95,0,3.86,0,5.93c0.86-0.12,1.51-0.22,2.32-0.33C489.54,217.42,487.86,216.68,487.21,217.41z
			 M485.83,213.24c-0.12-0.05-0.24-0.09-0.37-0.14c-0.96,1.1-1.93,2.21-2.89,3.31c0.07,0.09,0.15,0.18,0.22,0.27
			c1.03-0.12,2.05-0.25,3.23-0.39C485.96,215.22,485.9,214.23,485.83,213.24z"/>
		<path class="st1" d="M320.11,208.66c-2.1-0.33-4.2-0.66-6.49-1.01c0,1.93-0.08,3.65,0.02,5.35c0.11,1.73,0.42,3.45,0.62,5.18
			c0.02,0.18-0.15,0.5-0.3,0.53c-0.23,0.05-0.66-0.03-0.73-0.17c-0.2-0.38-0.33-0.82-0.35-1.25c-0.11-2.82-0.18-5.65-0.26-8.47
			c-0.01-0.35-0.04-0.69-0.07-1.21c-1.43,0-2.8,0-4.18,0c-0.07-0.1-0.14-0.19-0.22-0.29c0.34-0.24,0.63-0.59,1.01-0.69
			c0.5-0.12,1.07-0.01,1.59-0.06c0.83-0.08,1.66-0.22,2.5-0.33c0.51,0.2,1.15,0.53,1.83,0.69c1.27,0.29,2.57,0.47,3.85,0.73
			c0.44,0.09,0.84,0.32,1.26,0.48C320.18,208.32,320.14,208.49,320.11,208.66z"/>
		<path class="st1" d="M638.46,323.82c-0.74,1.52-1.42,2.9-2.11,4.29c-0.21-0.08-0.42-0.16-0.64-0.24c0.18-0.54,0.25-1.14,0.56-1.61
			c1.56-2.37,1.73-4.62-0.31-6.88c-0.43-0.47-0.43-1.27-0.63-1.92c0.18-0.05,0.37-0.11,0.56-0.17c0.37,0.68,0.71,1.36,1.1,2.02
			c0.4,0.68,0.83,1.36,1.35,2.19c1.12-1.5,1.73-3.12,3.62-4.16c-0.08,0.54-0.05,0.81-0.16,1.01c-0.15,0.27-0.4,0.5-0.61,0.74
			c-2.53,2.95-2.53,3.13-0.4,6.32c0.5,0.75,0.92,1.54,1.11,2.47C640.27,326.92,639.81,325.16,638.46,323.82z"/>
		<path class="st1" d="M662.89,390.15c-1.62,0.46-3.23,0.01-4.01-1.34c-0.85-1.46-1.69-3.05-1.91-4.66
			c-0.59-4.26,0.04-8.46,1.86-12.45c0.29-0.63,0.52-1.54,1.98-1.43c-0.38,0.59-0.73,0.99-0.93,1.45c-2.06,4.7-2.92,9.52-1.4,14.49
			c0.53,1.72,1.51,3.18,3.76,3.44C662.42,389.67,662.57,389.89,662.89,390.15z"/>
		<path class="st1" d="M323.66,338.31c-2.08,0-4.16-0.1-6.23,0.03c-1.8,0.12-1.9,0.38-1.74,2.02c0.3,3.08,0.55,6.16,0.91,9.23
			c0.07,0.56,0.62,1.07,0.83,1.64c0.11,0.32-0.04,0.71-0.07,1.08c-0.33-0.08-0.87-0.08-0.96-0.26c-0.34-0.67-0.67-1.38-0.74-2.1
			c-0.37-3.38-0.6-6.78-0.99-10.16c-0.16-1.34,0.39-2.08,1.78-2.18c2.12-0.16,4.26-0.21,6.39-0.23c0.35,0,0.7,0.37,1.05,0.56
			C323.8,338.07,323.73,338.19,323.66,338.31z"/>
		<path class="st1" d="M551.51,383.32c-0.23,2.8-1.19,5.25-3.1,7.38c-0.42,0.46-1.02,0.8-1.6,1.1c-0.17,0.09-0.56-0.14-0.84-0.22
			c0.12-0.27,0.15-0.69,0.36-0.78c3.02-1.31,3.55-3.92,3.92-6.47c0.39-2.66-0.35-5.2-2.17-7.36c-0.45-0.53-0.73-1.94-2.15-0.95
			c-0.03,0.02-0.65-0.47-0.8-0.79c-0.12-0.27-0.05-0.88,0.09-0.92c0.37-0.11,0.9-0.12,1.22,0.05c1.92,1.03,3.19,2.61,3.9,4.48
			C550.88,380.29,551.13,381.82,551.51,383.32z"/>
		<path class="st1" d="M374.75,307.07c1.31-1.36,2.55-2.64,3.79-3.92c0.19,0.15,0.39,0.29,0.58,0.44c-1.2,1.4-2.4,2.8-3.81,4.45
			c1.43,1.3,2.86,2.58,4.27,3.89c0.27,0.26,0.44,0.61,0.66,0.91c-0.18,0.13-0.37,0.26-0.56,0.39c-1.61-1.41-3.22-2.82-5.17-4.52
			c-0.46,1.51-0.86,2.86-1.28,4.2c-0.08,0.24-0.2,0.47-0.31,0.71c-0.25-0.22-0.72-0.47-0.69-0.65c0.15-0.95,0.14-2.08,0.73-2.78
			c1.56-1.86,0.66-3.19-0.72-4.57c-0.26-0.26-0.39-0.61-0.58-0.92c0.16-0.12,0.33-0.24,0.49-0.36
			C373,305.24,373.86,306.13,374.75,307.07z"/>
		<path class="st1" d="M529.61,393.47c-0.42-0.09-0.89-0.08-1.24-0.27c-2.7-1.44-4.41-3.62-5.12-6.35
			c-1.02-3.93-0.52-7.73,1.77-11.26c0.12-0.19,0.24-0.43,0.43-0.53c0.45-0.24,0.94-0.41,1.41-0.61c-0.22,0.38-0.39,0.78-0.66,1.12
			c-3.43,4.24-3.93,13.45,2.68,16.89c0.31,0.16,0.59,0.4,0.87,0.6C529.71,393.21,529.66,393.34,529.61,393.47z"/>
		<path class="st1" d="M432.42,266.48c-0.77-7.22-1.95-14.39-1.95-21.64C431.37,245.62,433.19,265.72,432.42,266.48z"/>
		<path class="st1" d="M311.12,305.96c-0.64-0.08-1-0.11-1.35-0.17c-2.02-0.37-3.4,0.2-4.33,1.87c-0.94,1.67-1.65,3.39-1.01,5.33
			c0.07,0.21-0.06,0.49-0.14,1.03c-1.41-1.18-1.16-2.73-1.79-3.9c-0.66-1.23-1.19-2.51-1.81-3.76c-0.62-1.25-1.29-2.49-1.63-3.87
			c2.06,2.03,3,4.61,4.32,7.15c1.18-2.3,1.96-4.92,5.48-4.83C309.67,304.82,310.58,304.8,311.12,305.96z"/>
		<path class="st1" d="M552.67,261.12c1.04-1.12,2.52-1.45,3.41-0.76c1.53,1.18-0.08,2.1-0.43,3.09c1.42,0.31,2.85,0.52,4.19,0.95
			c2.12,0.68,2.37,2.39,0.57,3.61c-1.4,0.95-3.01,1.43-4.78,1.34c-1.24-0.06-1.77-0.58-1.61-1.64c1.99,1.45,3.85,0.65,5.62-0.31
			c0.44-0.24,0.91-0.84,0.88-1.24c-0.03-0.37-0.68-0.86-1.15-0.99c-1.2-0.31-2.45-0.52-3.7-0.63c-1.41-0.13-1.65-0.48-0.98-1.57
			c0.35-0.58,0.57-1.22,0.85-1.84c-0.73,0.06-1.46,0.12-2.2,0.16C553.18,261.31,553,261.21,552.67,261.12z"/>
		<path class="st1" d="M341.14,246.97c0.07,0.36,0.19,0.71,0.2,1.07c0.15,5.13,0.29,10.26,0.45,15.39c0.02,0.69,0.29,1.38,0.31,2.07
			c0.02,0.46-0.21,0.92-0.33,1.38c-0.27-0.36-0.73-0.7-0.76-1.08c-0.14-1.76-0.16-3.53-0.22-5.3c-0.13-4.02-0.27-8.05-0.39-12.07
			c-0.01-0.48,0.11-0.97,0.17-1.45C340.76,246.98,340.95,246.98,341.14,246.97z"/>
		<path class="st1" d="M197.29,383.7c-0.71,0.19-1.42,0.41-2.14,0.56c-2.05,0.41-3.8,1.27-5.32,2.6c-1.19,1.04-1.97,2.16-1.75,3.73
			c0.06,0.44-0.08,0.9-0.13,1.35c-0.19,0.02-0.37,0.04-0.56,0.06c-0.39-1.68-0.64-3.39-1.19-5.02c-0.56-1.67-1.42-3.27-2.15-4.9
			c0.96-0.09,0.96-0.09,3.58,5.68c2.46-2.82,5.52-4.52,9.46-4.58C197.15,383.35,197.22,383.53,197.29,383.7z"/>
		<path class="st1" d="M435.96,386.22c-1.13,1.01-4.26,1.48-5.11,0.86c-0.3-0.22-0.52-0.9-0.37-1.21c0.29-0.63,0.89-1.14,1.3-1.73
			c0.96-1.37,1.98-2.71,2.78-4.15c0.57-1.02-0.05-1.83-1.25-1.85c-1.38-0.02-2.77,0.24-4.14,0.42c-0.39,0.05-0.76,0.24-1.14,0.37
			c-0.08-0.11-0.17-0.21-0.25-0.32c0.29-0.26,0.52-0.62,0.87-0.78c1.72-0.76,3.55-0.95,5.39-0.45c1.37,0.37,2.09,1.36,1.51,2.56
			c-0.79,1.63-1.92,3.13-2.95,4.66c-0.36,0.54-0.87,1-1.31,1.5c0.06,0.11,0.11,0.22,0.16,0.33
			C432.87,386.36,434.28,386.29,435.96,386.22z"/>
		<path class="st1" d="M569.42,247.64c0.46,6.21,1.64,12.4,0.89,18.66c-0.17,0.03-0.34,0.05-0.51,0.08
			c-0.11-0.28-0.3-0.56-0.31-0.85c-0.31-5.43-0.6-10.86-0.88-16.29c-0.03-0.54,0.08-1.09,0.12-1.64
			C568.96,247.61,569.19,247.63,569.42,247.64z"/>
		<path class="st1" d="M226.02,297.67c-0.23,0.13-0.56,0.33-0.94,0.54c0.11,0.64,0.27,1.29,0.32,1.95c0.02,0.24-0.21,0.5-0.32,0.74
			c-0.2-0.2-0.51-0.37-0.58-0.61c-0.21-0.72-0.33-1.46-0.51-2.33c-1.08,0-2.14,0.04-3.2-0.01c-1.63-0.07-2.15-0.85-1.13-1.92
			c1.51-1.6,3.23-3.03,4.88-4.52c0.11-0.1,0.35-0.07,0.96-0.18C223.54,293.71,223.88,295.68,226.02,297.67z M223.14,293.94
			c-1.15,1.09-2.06,1.95-3.21,3.03c1.56,0,2.64,0,3.89,0C223.6,295.98,223.41,295.14,223.14,293.94z"/>
		<path class="st1" d="M229.78,294.1c-1.49-0.08-2.58-0.13-3.95-0.2c1.26-1.56,3.55,0.4,3.94-1.31c1.04,0.21,1.89,0.49,2.76,0.54
			c1.45,0.08,2.91,0.02,4.37,0.31c-2,0.96-4.17,0.29-6.6,0.77c0.26,2.5,0.54,5.01,0.77,7.52c0.04,0.37-0.06,0.76-0.19,1.12
			c-0.04,0.1-0.57,0.19-0.61,0.13c-0.21-0.32-0.46-0.68-0.47-1.03C229.76,299.38,229.78,296.81,229.78,294.1z"/>
		<path class="st1" d="M348.89,250.87c-1.38-0.08-2.78-0.05-4.14-0.26c-1.37-0.22-1.41-1.24-1.05-2.19c0.45-1.21,1.1-2.36,1.57-3.57
			c0.58-1.49,1.08-3.01,1.54-4.54c0.1-0.32-0.05-0.91-0.29-1.04c-0.26-0.14-0.83,0.03-1.18,0.21c-0.6,0.3-1.14,0.71-1.82,1.15
			c0.03-1.28,1.58-2.52,2.85-2.39c1.37,0.13,1.66,1.09,1.41,2.06c-0.43,1.67-1.02,3.3-1.62,4.92c-0.42,1.13-1,2.21-1.48,3.31
			c-0.39,0.9-0.06,1.35,1.04,1.32c0.68-0.02,1.38-0.06,2.04,0.05c0.46,0.08,0.87,0.4,1.31,0.62
			C348.99,250.64,348.94,250.76,348.89,250.87z"/>
		<path class="st1" d="M407.26,244.85c0.18,6.45,0.36,12.9,0.54,19.34c-0.2,0.03-0.41,0.05-0.62,0.08
			c-0.13-0.56-0.36-1.11-0.38-1.67c-0.17-5.57-0.31-11.13-0.44-16.69c-0.01-0.36,0.11-0.72,0.17-1.08
			C406.77,244.83,407.02,244.84,407.26,244.85z"/>
		<path class="st1" d="M195.26,202.01c0.53,6.39,0.92,12.8,2.81,19.02c-0.19,0.07-0.37,0.13-0.56,0.2c-0.33-0.63-0.8-1.24-0.96-1.91
			c-0.44-1.9-0.84-3.82-1.07-5.75c-0.41-3.43-0.7-6.87-1-10.3c-0.04-0.41,0.14-0.84,0.22-1.26
			C194.89,202.01,195.07,202.01,195.26,202.01z"/>
		<path class="st1" d="M197.47,251.46c-0.35-1.92-0.29-3.96-1.88-5.67c-2.01,1.32-2.13,3.44-3.33,5.22
			c-0.88-2.37-1.77-4.73-2.65-7.09c0.96-0.08,1.06,0.01,1.7,1.67c0.33,0.86,0.67,1.72,1.09,2.79c0.55-0.9,0.91-1.65,1.43-2.31
			c1.19-1.51,2.69-1.38,3.37,0.34c0.5,1.28,0.78,2.63,1.06,3.97c0.08,0.36-0.19,0.78-0.3,1.18
			C197.8,251.52,197.63,251.49,197.47,251.46z"/>
		<path class="st1" d="M334.29,248.52c0.13,0.05,0.33,0.07,0.37,0.16c1.7,4.03,3.87,7.99,2.87,12.5c-0.32,1.44-1.04,2.83-1.73,4.17
			c-0.27,0.53-0.96,0.87-1.46,1.3c-0.13-0.09-0.27-0.18-0.4-0.26c0.13-0.27,0.18-0.61,0.39-0.8c1.9-1.72,2.43-3.92,2.45-6.21
			c0.02-2.67-0.5-5.27-1.89-7.69c-0.53-0.93-0.74-2.01-1.1-3.02C333.94,248.62,334.11,248.57,334.29,248.52z"/>
		<path class="st1" d="M406.11,208.02c0.38-0.04,0.82-0.22,1.13-0.1c2.15,0.77,4.37,1.44,6.38,2.46c1.72,0.88,1.93,2.21,0.85,3.75
			c-0.86,1.22-1.99,2.27-2.97,3.42c-0.55,0.65-0.99,1.36-1.52,2.02c-0.15,0.19-0.42,0.29-0.63,0.43c-0.12-0.26-0.42-0.58-0.33-0.75
			c0.26-0.56,0.6-1.1,1.02-1.57c1.01-1.13,2.15-2.17,3.13-3.32c1.44-1.69,1.3-2.73-0.77-3.73c-1.69-0.82-3.6-1.28-5.41-1.89
			c-0.29-0.1-0.58-0.18-0.88-0.27C406.11,208.32,406.11,208.17,406.11,208.02z"/>
		<path class="st1" d="M590.3,265.63c1.34-0.34,1.04-1.22,0.93-2c-0.4-2.98-0.91-5.95-1.24-8.93c-0.19-1.71-0.13-3.43-0.13-5.15
			c0-0.44,0.22-0.88,0.69-1.33c0.1,0.24,0.32,0.49,0.29,0.72c-0.44,3.96,0.4,7.83,0.99,11.72c0.22,1.48,0.32,2.99,0.36,4.48
			c0.01,0.37-0.3,0.88-0.64,1.07c-0.26,0.15-0.79-0.12-1.21-0.2C590.33,265.89,590.32,265.76,590.3,265.63z"/>
		<path class="st1" d="M391.83,213.08c0.39-0.09,0.7-0.21,1.01-0.22c5.4-0.09,10.81-0.16,16.21-0.24c0.74-0.01,1.49-0.02,1.31,0.91
			c-6.18,0-12.27,0-18.36-0.01C391.97,213.53,391.94,213.37,391.83,213.08z"/>
		<path class="st1" d="M365.68,390.51c-0.21,0.27-0.35,0.58-0.61,0.76c-0.28,0.19-0.73,0.42-0.99,0.34
			c-0.26-0.08-0.51-0.52-0.54-0.82c-0.22-1.88-0.38-3.77-0.53-5.66c-0.02-0.26,0.15-0.53,0.24-0.8c0.18-0.01,0.36-0.02,0.54-0.02
			c0.27,1.94,0.53,3.87,0.82,5.93c1.53-0.75,0.72-3.15,3.34-3.39c-0.45,1.11-0.82,2.01-1.32,3.25c1.32,0.18,2.69,0.36,4.05,0.55
			c-0.02,0.16-0.04,0.32-0.05,0.48C369.02,391.46,367.41,391.48,365.68,390.51z"/>
		<path class="st1" d="M350.51,198.94c-0.43-1.54,0.63-2.74,2.04-2.77c1.2-0.03,1.72,0.72,1.65,1.63c-0.11,1.44-0.37,2.89-0.72,4.3
			c-0.34,1.37-0.88,2.7-1.39,4.24c1.43,0.16,2.72,0.3,4,0.44c-0.02,0.22-0.04,0.45-0.07,0.67c-1.35-0.08-2.71-0.07-4.02-0.32
			c-0.33-0.06-0.73-1.03-0.62-1.48c0.47-1.89,1.13-3.75,1.68-5.62c0.15-0.5,0.25-1.05,0.2-1.57c-0.05-0.47-0.34-0.92-0.52-1.38
			c-0.51,0.29-1.07,0.53-1.52,0.88C350.9,198.21,350.74,198.61,350.51,198.94z"/>
		<path class="st1" d="M434.55,303.54c-1.39-2.24-2.71-4.38-4.03-6.52c0.21-0.11,0.41-0.23,0.62-0.34c1.07,1.48,2.14,2.96,3.11,4.3
			c1.46-1.36,2.84-2.8,4.41-4.04c0.81-0.64,1.94-0.96,2.96-1.33c0.19-0.07,0.57,0.3,0.87,0.46c-0.21,0.17-0.4,0.44-0.65,0.5
			c-3.4,0.8-5.39,2.92-6.65,5.75c-0.13,0.28-0.18,0.59-0.29,0.88C434.86,303.26,434.77,303.32,434.55,303.54z"/>
		<path class="st1" d="M325.78,203.81c0.05,0.42,0.12,0.85,0.14,1.28c0.13,4.41,0.23,8.82,0.37,13.23c0.01,0.41,0.25,0.82,0.32,1.23
			c0.04,0.26-0.04,0.53-0.06,0.79c-0.33-0.11-0.82-0.13-0.94-0.33c-0.22-0.36-0.31-0.83-0.32-1.26c-0.12-4.54-0.23-9.09-0.31-13.63
			c-0.01-0.45,0.16-0.91,0.24-1.36C325.4,203.77,325.59,203.79,325.78,203.81z"/>
		<path class="st1" d="M596.06,239.55c-0.82,0.48-1.63,0.96-2.57,1.51c0.1-1.27,2.03-2.72,3.01-2.35c0.37,0.14,0.77,0.85,0.68,1.21
			c-0.3,1.33-0.8,2.63-1.23,3.93c-0.43,1.31-0.97,2.59-1.28,3.92c-0.34,1.46-0.1,1.67,1.56,1.78c0.93,0.06,1.7,0.26,1.84,1.34
			c-1.17-0.22-2.35-0.25-3.32-0.68c-0.56-0.25-1.15-1.2-1.06-1.75c0.27-1.64,0.82-3.25,1.34-4.85c0.41-1.3,0.92-2.57,1.39-3.86
			C596.3,239.68,596.18,239.61,596.06,239.55z"/>
		<path class="st1" d="M439.07,249.22c-0.95,0.58-2.11,0.62-2.91,0.04c-0.49-0.36-0.67-1.43-0.51-2.09c0.47-1.93,1.21-3.81,1.8-5.71
			c0.18-0.58,0.24-1.18,0.37-1.85c-2.07-0.12-2.51,1.51-3.63,2.57c-0.43-1.31,0.2-2.09,1.01-2.58c0.8-0.48,1.82-0.69,2.78-0.87
			c0.14-0.03,0.73,0.83,0.67,1.24c-0.15,1.13-0.48,2.24-0.81,3.34c-0.39,1.32-0.83,2.62-1.28,3.92c-0.39,1.12,0.02,1.59,1.31,1.48
			c0.39-0.03,0.8,0.07,1.19,0.1C439.08,248.95,439.08,249.09,439.07,249.22z"/>
		<path class="st1" d="M400.11,381.34c0.44-0.08,0.87-0.22,1.3-0.23c5.14-0.2,10.29-0.39,15.43-0.57c1.79-0.06,1.98,0.02,2.43,0.9
			c-6.35,0.18-12.71,0.36-19.08,0.55C400.16,381.77,400.14,381.56,400.11,381.34z"/>
		<path class="st1" d="M633.96,390.25c-0.24-0.36-0.53-0.71-0.7-1.1c-1.74-3.84-3.43-7.7-5.2-11.53c-0.29-0.63-0.98-1.1-1.4-1.7
			c-0.17-0.24-0.09-0.63-0.13-0.95c0.34,0,0.81-0.14,0.99,0.02c0.38,0.32,0.67,0.77,0.87,1.21c1.97,4.28,3.93,8.57,5.86,12.86
			c0.14,0.32,0.1,0.7,0.15,1.05C634.25,390.15,634.1,390.2,633.96,390.25z"/>
		<path class="st1" d="M242.48,383.66c0.61-0.23,1.21-0.59,1.85-0.66c2.12-0.23,4.25-0.45,6.39-0.51c3.01-0.08,6.02-0.03,9.03,0.02
			c0.62,0.01,1.23,0.29,1.78,0.71c-6.36-0.2-12.63,0.03-18.87,0.91C242.6,383.97,242.54,383.81,242.48,383.66z"/>
		<path class="st1" d="M456.82,370.84c0.13-0.32,0.17-0.7,0.39-0.94c1.32-1.47,2.64-2.94,4.04-4.35c1.98-2,3.26-1.89,5.01,0.25
			c1.04,1.27,2.22,2.45,3.28,3.71c0.17,0.2,0.08,0.59,0.11,0.89c-0.28-0.12-0.64-0.16-0.82-0.36c-1.19-1.28-2.37-2.57-3.49-3.89
			c-1.18-1.39-1.81-1.51-3.12-0.24c-1.52,1.49-2.9,3.09-4.35,4.63c-0.18,0.19-0.42,0.33-0.63,0.49
			C457.1,370.96,456.96,370.9,456.82,370.84z"/>
		<path class="st1" d="M218.58,219.82c-0.32-5.66-1.88-11.22-1.63-16.92C218.03,203.95,219.56,219.05,218.58,219.82z"/>
		<path class="st1" d="M557.09,376.5c0.18-0.49,0.28-1.04,0.57-1.47c1.05-1.54,2.11-3.07,3.28-4.53c1.49-1.89,3.01-1.93,4.32,0.02
			c0.92,1.37,1.48,2.95,2.13,4.45c0.14,0.32-0.03,0.75-0.05,1.13c-0.15,0.02-0.3,0.04-0.46,0.06c-0.15-0.38-0.28-0.76-0.45-1.13
			c-0.62-1.34-1.13-2.73-1.9-3.98c-0.85-1.4-1.74-1.41-2.74-0.11c-1.27,1.67-2.42,3.41-3.63,5.11c-0.16,0.23-0.36,0.44-0.55,0.65
			C557.43,376.63,557.26,376.57,557.09,376.5z"/>
		<path class="st1" d="M224.29,377.1c-1.13,0-2.28,0.07-3.4-0.02c-1.17-0.1-1.62-0.71-1.13-1.76c0.5-1.05,1.02-2.1,1.49-3.17
			c0.21-0.49,0.45-1.01,0.45-1.52c0-0.55-0.26-1.1-0.41-1.65c-0.65,0.31-1.37,0.56-1.94,0.96c-0.33,0.23-0.44,0.73-0.68,1.17
			c-0.64-0.86-0.56-1.72,0.45-2.25c0.8-0.42,1.96-0.74,2.78-0.53c0.47,0.12,0.95,1.47,0.77,2.13c-0.49,1.87-1.31,3.68-2.07,5.71
			c1.25,0.05,2.49,0.1,3.74,0.15C224.33,376.58,224.31,376.84,224.29,377.1z"/>
		<path class="st1" d="M348.51,204.5c0.56,5.48,1.12,10.96,1.69,16.44c-0.16,0.06-0.32,0.11-0.49,0.17
			c-0.2-0.29-0.55-0.57-0.58-0.87c-0.49-4.84-0.95-9.68-1.4-14.53c-0.04-0.4,0.1-0.8,0.15-1.2
			C348.09,204.51,348.3,204.51,348.51,204.5z"/>
		<path class="st1" d="M451.27,279.99c0.77,0,1.43-0.01,2.08,0c2.79,0.05,4.7,2.77,3.63,5.14c-0.67,1.49-3.08,1.66-4.34,0.24
			C451.22,283.78,450.92,281.92,451.27,279.99z M452.18,281.16c-0.15,1.37,0.24,2.64,1.27,3.64c0.4,0.39,1.18,0.56,1.8,0.6
			c0.3,0.02,0.8-0.49,0.91-0.84C456.85,282.18,454.86,280.47,452.18,281.16z"/>
		<path class="st1" d="M208.58,328.1c-1.06-0.05-1.35-0.32-2.8-2.59c-0.7-1.1-1.39-2.2-2.18-3.46c-1.88,2.24-3.02,4.77-5.15,6.57
			c-0.14-0.08-0.29-0.17-0.43-0.25c0.06-0.22,0.06-0.48,0.19-0.66c1.36-1.88,2.73-3.75,4.1-5.62c0.87-1.18,1.46-1.27,2.28-0.14
			c1.42,1.94,2.73,3.94,4.08,5.93C208.71,327.91,208.62,328.02,208.58,328.1z"/>
		<path class="st1" d="M217.76,289.12c0.45-0.17,0.9-0.5,1.34-0.5c4.91,0.06,9.82,0.16,14.72,0.31c0.57,0.02,1.12,0.46,1.6,0.95
			c-5.85-1.12-11.7-0.23-17.5-0.4C217.86,289.37,217.81,289.25,217.76,289.12z"/>
		<path class="st1" d="M340.27,306.25c-3-1.03-6.08-0.81-9.17-0.59c-2.49,0.18-4.98,0.33-7.47,0.46c-0.23,0.01-0.66-0.21-0.67-0.33
			c-0.02-0.24,0.15-0.6,0.36-0.7c0.32-0.16,0.75-0.18,1.13-0.19c3.35-0.11,6.69-0.24,10.04-0.28c1.45-0.02,2.92,0.09,4.35,0.29
			c0.63,0.09,1.18,0.58,1.77,0.9C340.49,305.96,340.38,306.1,340.27,306.25z"/>
		<path class="st1" d="M313.59,332.39c1.32-2.15,2.46-4.42,4.69-5.99c0.86-0.6,2-0.56,2.63,0.25c1.37,1.75,2.56,3.61,3.78,5.45
			c0.13,0.19-0.04,0.54-0.42,0.85c-0.89-1.39-1.71-2.82-2.69-4.15c-1.83-2.5-2.48-2.49-4.47-0.02c-0.68,0.85-1.21,1.8-1.86,2.68
			c-0.34,0.46-0.78,0.87-1.18,1.31C313.92,332.64,313.75,332.52,313.59,332.39z"/>
		<path class="st1" d="M221.92,197.83c-0.87,0.5-1.74,1.01-2.6,1.5c-0.35-0.91,0.22-1.66,1.68-2.1c1.18-0.36,2.13-0.02,2.24,0.98
			c0.09,0.84-0.08,1.75-0.34,2.58c-0.42,1.38-0.99,2.73-1.62,4.43c1.18,0,1.97-0.02,2.76,0.01c0.47,0.02,0.94,0.09,1.38,0.23
			c0.12,0.04,0.2,0.37,0.18,0.55c-0.01,0.09-0.29,0.24-0.44,0.23c-1.01-0.02-2.02-0.05-3.02-0.14c-1.17-0.1-1.83-0.64-1.47-1.78
			c0.4-1.27,0.92-2.51,1.3-3.79c0.23-0.77,0.3-1.58,0.45-2.38C222.26,198.05,222.09,197.94,221.92,197.83z"/>
		<path class="st1" d="M501.75,291.59c-1.72,0-3.44,0-5.16,0c-0.03-0.14-0.05-0.28-0.08-0.41c0.54-0.16,1.08-0.31,1.83-0.53
			c-0.1-1.59-0.2-3.27-0.3-4.96c-0.1-0.02-0.2-0.03-0.3-0.05c-0.33,0.67-0.66,1.34-1.05,2.14c-0.71-1.27,0.2-3.43,1.9-4.55
			c0.2,1.49,0.41,2.86,0.57,4.23c0.08,0.66,0.11,1.33,0.08,1.99c-0.05,0.95,0.24,1.54,1.46,1.44c0.35-0.03,0.72,0.14,1.08,0.22
			C501.77,291.27,501.76,291.43,501.75,291.59z"/>
		<path class="st1" d="M601.96,377.17c-0.68,0.52-16.74,0.45-17.74-0.08C585.21,376.33,600.51,376.4,601.96,377.17z"/>
		<path class="st1" d="M291.36,262.44c0.51-1.34,1.72-1.77,3.13-1.38c1.07,0.3,1.61,1.17,1.1,2.22c-0.53,1.07-1.31,2.05-2.01,3.04
			c-0.28,0.39-0.65,0.73-1.12,1.25c1.99,0,3.71,0,5.43,0c0.02,0.1,0.04,0.2,0.06,0.31c-0.26,0.12-0.51,0.33-0.78,0.35
			c-1.4,0.12-2.81,0.22-4.21,0.25c-0.48,0.01-0.97-0.23-1.46-0.35c0.16-0.48,0.22-1.01,0.5-1.41c0.7-1,1.59-1.89,2.25-2.91
			c0.29-0.46,0.22-1.12,0.31-1.69c-0.69-0.03-1.39-0.09-2.08-0.07C292.19,262.05,291.91,262.24,291.36,262.44z"/>
		<path class="st1" d="M345.93,384.1c0.1,0.64,0.24,1.27,0.29,1.91c0.05,0.65,0.01,1.31,0.01,2.33c1.09-1.27,1.94-2.26,2.78-3.25
			c0.16,0.1,0.31,0.2,0.47,0.29c-0.32,0.74-0.71,1.46-0.93,2.23c-0.12,0.42,0.05,0.9,0.08,1.35c0.55-0.04,1.11-0.03,1.64-0.15
			c0.47-0.11,0.89-0.37,1.7-0.72c-1.24,2.23-3.29,2.42-4.97,0.44c-0.35,0.64-0.67,1.23-0.99,1.81c-0.2-0.1-0.41-0.19-0.61-0.29
			c0-1.99,0-3.98,0-5.96C345.58,384.1,345.76,384.1,345.93,384.1z"/>
		<path class="st1" d="M176.68,303.08c1.72-0.34,3.44-0.69,5.17-1.03c0.06,0.14,0.11,0.27,0.16,0.41c-0.32,0.18-0.61,0.45-0.95,0.53
			c-1.5,0.31-3.01,0.7-4.53,0.78c-1.47,0.08-1.71-0.51-0.88-1.61c0.69-0.91,1.44-1.78,2.03-2.74c0.26-0.43,0.18-1.03,0.26-1.55
			c-0.57-0.06-1.15-0.13-1.72-0.15c-0.3-0.01-0.61,0.08-0.98,0.13c0.38-1.06,1.38-1.51,2.49-1.13c1.06,0.36,1.79,1.06,1.32,2.14
			c-0.41,0.93-1.06,1.78-1.63,2.64c-0.27,0.41-0.61,0.78-0.92,1.17C176.56,302.8,176.62,302.94,176.68,303.08z"/>
		<path class="st1" d="M180.54,321.96c-1.93,2.27-3.56,4.2-5.2,6.12c-0.14-0.08-0.27-0.16-0.41-0.24c0.1-0.3,0.12-0.65,0.32-0.88
			c1.32-1.64,2.64-3.27,4.03-4.86c0.58-0.67,1.58-0.95,2.11-0.17c1.31,1.96,2.39,4.04,3.34,6.19c-1.41-0.4-1.7-1.59-2.25-2.55
			C181.86,324.53,181.33,323.45,180.54,321.96z"/>
		<path class="st1" d="M398.32,256.1c-0.52,0.11-1.04,0.35-1.54,0.33c-4.56-0.16-9.12-0.36-13.68-0.56c-0.1-0.01-0.21,0-0.28-0.05
			c-0.31-0.19-0.61-0.4-0.91-0.6c0.33-0.09,0.66-0.27,0.99-0.26c1.31,0.04,2.61,0.17,3.92,0.22c3.49,0.12,6.99,0.22,10.48,0.34
			c0.34,0.01,0.67,0.13,1.01,0.2C398.31,255.85,398.31,255.98,398.32,256.1z"/>
		<path class="st1" d="M449.12,224.16c-1.08,0.73-1.86,1.26-2.63,1.79c-0.33-0.91,0-1.51,1.3-2c0.58-0.22,1.47-0.42,1.88-0.16
			c0.39,0.24,0.57,1.12,0.45,1.64c-0.25,1.06-0.74,2.08-1.19,3.1c-0.37,0.84-0.84,1.66-1.38,2.72c1.32,0,2.35,0,3.38,0
			c0.05,0.11,0.09,0.23,0.14,0.34c-0.25,0.17-0.51,0.5-0.75,0.49c-1.14-0.05-2.26-0.2-3.39-0.31c0.21-0.91,0.29-1.88,0.66-2.74
			C448.22,227.57,449.42,226.3,449.12,224.16z"/>
		<path class="st1" d="M216.4,377.41c-0.2,0.63-0.88,0.82-1.56,0.14c-0.7-0.71-1.17-1.6-1.7-2.43c-0.34-0.53-0.56-1.13-0.91-1.65
			c-0.51-0.78-1.25-0.95-1.85-0.18c-0.98,1.23-1.82,2.56-2.72,3.85c-0.19,0.27-0.33,0.56-0.49,0.85c-0.14-0.03-0.27-0.05-0.41-0.08
			c0.02-0.47-0.14-1.04,0.1-1.39c0.97-1.41,1.94-2.84,3.13-4.09c0.88-0.92,2.03-0.74,2.82,0.33c0.67,0.9,1.05,1.98,1.69,2.91
			C214.92,376.23,215.58,376.67,216.4,377.41z"/>
		<path class="st1" d="M379.41,252.96c0.47-0.11,0.73-0.23,1-0.24c4.56-0.17,9.12-0.34,13.68-0.46c0.65-0.02,1.31,0.25,1.91,0.54
			C394.31,253.4,380.13,253.51,379.41,252.96z"/>
		<path class="st1" d="M200.49,291.04c-5.41,0.28-10.62,0.55-15.79,0.82C185.69,290.44,198.53,289.63,200.49,291.04z"/>
		<path class="st1" d="M341.6,307.79c-5.39,0.44-10.77,1.06-16.18,0.71c-0.01-0.21-0.01-0.42-0.02-0.63
			c5.4-0.26,10.81-0.52,16.21-0.78C341.6,307.32,341.6,307.55,341.6,307.79z"/>
		<path class="st1" d="M292.25,210.86c-1.95,0.63-14.59,0.6-15.38,0.01C278.06,210.21,291.31,210.13,292.25,210.86z"/>
		<path class="st1" d="M173.9,212.98c0.49-0.07,0.97-0.2,1.45-0.2c2.38-0.02,4.77,0.02,7.15-0.02c1.16-0.02,2.31-0.23,3.47-0.27
			c0.55-0.02,1.1,0.15,1.61,0.45c-4.56,1.05-9.11,0.67-13.65,0.68C173.93,213.4,173.92,213.19,173.9,212.98z"/>
		<path class="st1" d="M245.16,385.82c1.04-0.64,14.54-0.5,15.64,0.16C259.74,386.61,246.22,386.48,245.16,385.82z"/>
		<path class="st1" d="M409.97,215.59c-5.07,0-10.06,0-15.3,0C395.92,214.44,409.33,214.65,409.97,215.59z"/>
		<path class="st1" d="M489.92,227.67c-0.27,0.52-0.53,1.04-0.83,1.61c-0.77-0.87-0.08-2.82,1.69-4.42
			c0.25,2.45,0.48,4.62,0.72,6.96c1.12,0,2.2,0,3.38,0c-0.58,0.89-3.39,1.27-4.72,0.88c0-1.7,0-3.34,0-4.98
			C490.08,227.7,490,227.69,489.92,227.67z"/>
		<path class="st1" d="M458.94,225.67c-1.87-0.09-3.53-0.17-5.35-0.26c0.06,2.44,0.47,4.69,0.23,6.92c-0.2,0.02-0.39,0.03-0.59,0.05
			c-0.1-0.33-0.25-0.66-0.28-0.99c-0.1-1.36-0.17-2.73-0.22-4.09c-0.03-0.92-0.06-1.81-1.48-1.77
			C451.98,224.19,457.61,224.22,458.94,225.67z"/>
		<path class="st1" d="M389.61,373.2c-2.13-1.65-2.66-4.02-3.99-6.23c-1.43,1.74-2.73,3.33-4.03,4.92c-0.15-0.08-0.3-0.17-0.45-0.26
			c0.22-0.48,0.36-1.01,0.68-1.43c0.91-1.2,1.87-2.36,2.84-3.52c0.63-0.75,1.39-0.73,1.87,0.06c1.18,1.96,2.24,3.97,3.34,5.97
			C389.9,372.76,389.8,372.87,389.61,373.2z"/>
		<path class="st1" d="M404.63,347.92c0.72,0.81,1.44,1.61,2.23,2.5c0.53-0.75,1-1.43,1.47-2.1c0.16,0.08,0.32,0.15,0.48,0.22
			c-0.07,0.3-0.06,0.66-0.24,0.9c-0.85,1.16-0.96,2.22,0.23,3.26c0.22,0.19,0.42,0.59,0.36,0.83c-0.09,0.33-0.45,0.6-0.76,0.98
			c-0.4-0.95-0.66-1.56-0.97-2.3c-1.16,0.84-0.92,2.52-2.9,2.88c0.58-1.09,0.98-1.95,1.49-2.74c0.43-0.68,0.33-1.15-0.24-1.74
			c-0.67-0.69-1.17-1.52-1.74-2.29C404.23,348.19,404.43,348.05,404.63,347.92z"/>
		<path class="st1" d="M394.66,328.12c-1.53,1.8-3.03,3.57-4.55,5.33c-0.01,0.02-0.23-0.11-0.48-0.23c1.3-1.81,2.56-3.6,3.88-5.36
			c0.5-0.67,1.34-0.99,1.97-0.28c1.45,1.61,2.75,3.33,3.96,5.11C396.81,332.08,396.61,329.37,394.66,328.12z"/>
		<path class="st1" d="M521.67,325.39c-0.78,1.27-1.38,2.23-1.97,3.19c-0.15-0.04-0.29-0.09-0.44-0.13c0-0.25-0.08-0.53,0.01-0.76
			c0.2-0.49,0.42-1,0.74-1.43c0.95-1.26,0.83-2.31-0.47-3.32c-0.43-0.34-0.63-0.93-0.94-1.4c0.15-0.1,0.3-0.2,0.46-0.3
			c0.74,0.7,1.48,1.41,2.22,2.12c0.42-0.5,0.83-0.99,1.46-1.73c0.08,0.59,0.21,0.86,0.11,0.98c-1.13,1.39-0.43,2.59,0.35,3.85
			c0.32,0.52,0.87,1.28-0.3,1.81C522.52,327.36,522.14,326.49,521.67,325.39z"/>
		<path class="st1" d="M171.39,209.98c5.07-1.17,10.35,0.22,15.41-1.02c0.06,0.14,0.13,0.27,0.19,0.41
			c-0.37,0.22-0.72,0.58-1.12,0.63c-1.39,0.19-2.8,0.32-4.2,0.37c-2.97,0.11-5.93,0.15-8.9,0.21c-0.45,0.01-0.89-0.04-1.34-0.06
			C171.41,210.34,171.4,210.16,171.39,209.98z"/>
		<path class="st1" d="M599.1,253.38c0.54-0.2,1.08-0.59,1.61-0.58c2.63,0.05,5.25,0.2,7.88,0.32c1.36,0.06,2.72,0.11,4.08,0.2
			c0.45,0.03,0.88,0.15,1.32,0.23c0,0.14,0.01,0.28,0.01,0.41c-0.45,0.07-0.91,0.23-1.36,0.21c-2.97-0.11-5.93-0.28-8.9-0.39
			c-1.48-0.05-2.97-0.01-4.45-0.01C599.23,253.64,599.17,253.51,599.1,253.38z"/>
		<path class="st1" d="M267.98,330.29c0.03-1.05,3.4-5.66,4.42-5.93c0.36-0.1,0.96-0.03,1.2,0.19c1.52,1.43,2.97,2.91,4.44,4.39
			c0.07,0.07,0.01,0.24,0.01,0.64c-2.3-1.06-3.39-3.07-5.37-4.56c-1.48,1.88-2.9,3.7-4.33,5.51
			C268.22,330.45,268.1,330.37,267.98,330.29z"/>
		<path class="st1" d="M425.34,344.48c0.45-0.17,0.9-0.5,1.34-0.49c4.33,0.03,8.65,0.11,12.98,0.2c0.3,0.01,0.58,0.26,0.87,0.39
			c-0.04,0.1-0.08,0.2-0.12,0.31c-4.98,0-9.95,0-14.92,0C425.45,344.75,425.39,344.61,425.34,344.48z"/>
		<path class="st1" d="M449.34,209.54c0.32-0.23,0.64-0.67,0.96-0.67c4.46-0.01,8.91,0.03,13.37,0.08c0.05,0,0.11,0.13,0.36,0.47
			c-0.62,0.1-1.11,0.24-1.59,0.24c-3.59-0.01-7.19-0.06-10.78-0.06c-0.66,0-1.32,0.18-1.99,0.27
			C449.56,209.75,449.45,209.65,449.34,209.54z"/>
		<path class="st1" d="M240.37,341.49c-4.96,0.12-9.92,0.04-14.89,0.08c-0.05-0.12-0.1-0.23-0.15-0.34c0.34-0.17,0.67-0.5,1.01-0.5
			c4.42-0.05,8.83-0.05,13.25-0.05c0.28,0,0.55,0.21,0.83,0.32C240.4,341.17,240.39,341.33,240.37,341.49z"/>
		<path class="st1" d="M293.29,343.62c-0.57,0.05-1.14,0.15-1.71,0.15c-3.21,0.02-6.43,0-9.64,0.03c-0.61,0.01-1.22,0.24-1.83,0.28
			c-0.26,0.02-0.54-0.2-0.82-0.31c0.16-0.23,0.26-0.57,0.48-0.67c0.33-0.14,0.76-0.16,1.14-0.16c3.65-0.02,7.3-0.04,10.96-0.03
			c0.48,0,0.96,0.18,1.44,0.28C293.3,343.34,293.29,343.48,293.29,343.62z"/>
		<path class="st1" d="M428.33,347.81c4.68-0.29,9.37-0.58,14.43-0.89C441.26,348.17,430.07,348.93,428.33,347.81z"/>
		<path class="st1" d="M585.02,264.39c1.65-0.22,3.09-0.4,4.54-0.59c-0.71,1.01-4.5,1.78-5.23,1.35c-0.25-0.14-0.45-0.79-0.3-1
			c0.48-0.7,1.15-1.3,1.7-1.97c0.38-0.46,0.68-0.97,0.76-1.67c-0.56,0.18-1.12,0.36-1.85,0.6c0.51-1.32,1.49-1.86,2.32-1.42
			c1,0.54,0.8,1.35,0.28,2.06C586.59,262.62,585.85,263.42,585.02,264.39z"/>
		<path class="st1" d="M395.07,387.8c-0.33,1.51-1.73,2.69-2.8,2.72c-0.97,0.02-1.45-0.4-1.42-1.29c0.05-1.24,0.13-2.47,0.16-3.71
			c0.03-1.26,0.01-2.52,0.01-3.79c0.18-0.04,0.35-0.08,0.53-0.13c0.2,0.57,0.58,1.15,0.58,1.72c0,1.63-0.16,3.26-0.25,4.9
			c-0.02,0.43,0,0.86,0,1.74C393.05,389.17,393.92,388.58,395.07,387.8z"/>
		<path class="st1" d="M375.37,383.44c-0.08,0.43-0.15,0.85-0.23,1.28c-0.26,1.47-0.66,2.93-0.75,4.41
			c-0.1,1.48,0.35,1.77,1.96,1.78c1.12,0.01,2.24,0,3.45,0.26c-0.24,0.15-0.46,0.39-0.72,0.42c-4.63,0.52-6.13,0.44-5.61-4.25
			c0.15-1.38,0.74-2.72,1.13-4.08C374.86,383.32,375.11,383.38,375.37,383.44z"/>
		<path class="st1" d="M240.51,344.77c-1.8,0.54-13.09-0.01-13.86-0.62C227.73,343.58,239.62,344.04,240.51,344.77z"/>
		<path class="st1" d="M293.13,212.81c-0.93,0.66-12.54,1.01-13.51,0.41C280.59,212.53,292.15,212.17,293.13,212.81z"/>
		<path class="st1" d="M573.72,213.11c0.64-0.31,1.09-0.72,1.53-0.7c3.97,0.13,7.94,0.33,11.91,0.55c0.23,0.01,0.44,0.32,0.99,0.74
			C583.22,213.5,578.72,213.32,573.72,213.11z"/>
		<path class="st1" d="M423.7,259.17c0.3-1.14,1.17-1.17,2.03-1.08c0.91,0.1,1.44,0.69,1.24,1.48c-0.19,0.75-0.65,1.45-1.04,2.14
			c-0.25,0.45-0.6,0.87-0.74,1.62c0.66-0.14,1.33-0.24,1.99-0.41c0.61-0.16,1.21-0.4,1.81-0.6c0.09,0.11,0.17,0.22,0.26,0.33
			c-0.28,0.26-0.51,0.67-0.84,0.75c-1.19,0.29-2.41,0.58-3.63,0.65c-0.89,0.05-1.16-0.56-0.7-1.28c0.49-0.76,1.08-1.47,1.53-2.24
			c0.23-0.4,0.23-0.9,0.33-1.35c-0.49,0-0.97-0.01-1.45-0.01C424.26,259.17,424.04,259.17,423.7,259.17z"/>
		<path class="st1" d="M254.28,326.6c-1.32,1.63-2.59,3.19-3.85,4.75c-0.13-0.07-0.25-0.13-0.37-0.2c0.04-0.27,0-0.61,0.15-0.81
			c1.01-1.35,2.01-2.72,3.16-3.97c0.3-0.32,1.39-0.48,1.72-0.25c1.59,1.11,3.05,2.37,4.54,3.57c-0.77,0.39-1.37,0.23-2.82-0.91
			C255.97,328.12,255.19,327.4,254.28,326.6z"/>
		<path class="st1" d="M463.36,212.21c-4.28,0-8.33,0-12.37,0c-0.04-0.12-0.08-0.25-0.12-0.37c0.22-0.15,0.42-0.41,0.67-0.45
			C454.01,210.98,462.32,211.47,463.36,212.21z"/>
		<path class="st1" d="M416.9,385.7c-4.55,0-9.12,0-13.97,0C404.48,384.3,416.11,384.54,416.9,385.7z"/>
		<path class="st1" d="M607.99,389.28c-0.83-1.19-1.82-11.19-1.26-12.11C607.46,377.87,608.61,388.28,607.99,389.28z"/>
		<path class="st1" d="M507.08,308.88c0.02-0.39-0.11-0.86,0.09-1.14c0.84-1.19,1.7-2.38,2.7-3.45c0.79-0.85,1.85-0.81,2.66,0.04
			c1.05,1.1,2.02,2.27,2.98,3.43c0.14,0.17,0.08,0.46,0.12,0.7c-0.29-0.06-0.69-0.02-0.84-0.18c-0.81-0.88-1.54-1.82-2.34-2.72
			c-1.14-1.29-1.53-1.27-2.6,0.1c-0.83,1.06-1.61,2.17-2.41,3.25C507.32,308.9,507.2,308.89,507.08,308.88z"/>
		<path class="st1" d="M344.18,216.94c-0.48,0.99-0.85,1.75-1.22,2.51c-0.2-0.06-0.39-0.12-0.59-0.18c0.24-0.83,0.4-1.68,0.73-2.48
			c0.29-0.7,0.75-1.34,1.14-2.01c0.34,0.72,0.78,1.41,0.99,2.16c0.45,1.66,0.78,3.34,1.15,5.01c-0.92,0.11-0.94,0.12-1.53-2
			C344.58,219.03,344.43,218.09,344.18,216.94z"/>
		<path class="st1" d="M368.97,212.12c-4.57,0-9.15,0-13.78,0C355.98,211.18,367.64,210.95,368.97,212.12z"/>
		<path class="st1" d="M448.85,352.92c-0.34-3.87-0.68-7.75-1.04-11.81C449.15,342.04,450.14,351.83,448.85,352.92z"/>
		<path class="st1" d="M565.43,318.45c1.35-1.4,11.26-1.44,13.73-0.18c-0.78,0.11-1.22,0.25-1.66,0.23
			c-3.11-0.09-6.21-0.24-9.31-0.31C567.27,318.18,566.35,318.36,565.43,318.45z"/>
		<path class="st1" d="M587.33,382.43c4.5,0,8.86,0,13.22,0C599.75,383.4,588.36,383.15,587.33,382.43z"/>
		<path class="st1" d="M442.28,215.93c0.34-0.6,0.6-1.25,1.04-1.78c0.53-0.64,1.2-1.19,1.81-1.77c0.37,0.77,0.89,1.51,1.08,2.32
			c0.42,1.78,0.68,3.59,0.72,5.45c-1.49-1.86-1.12-4.22-2.04-6.48c-0.75,0.95-1.37,1.75-1.99,2.54
			C442.69,216.12,442.48,216.02,442.28,215.93z"/>
		<path class="st1" d="M589.36,216.09c-4.18,0.66-8.12,0.36-12.02,0.65c-0.05-0.12-0.1-0.25-0.15-0.37
			c0.31-0.17,0.61-0.47,0.93-0.48c3.54-0.16,7.09-0.28,10.64-0.4C588.85,215.47,588.95,215.65,589.36,216.09z"/>
		<path class="st1" d="M368.7,215.28c-4-0.16-8-0.31-12.32-0.48c1.25-1.06,10.91-0.77,12.33,0.09
			C368.71,215.02,368.7,215.15,368.7,215.28z"/>
		<path class="st1" d="M309.73,331.17c-0.4-0.17-0.88-0.27-1.19-0.53c-0.7-0.6-1.3-1.31-1.99-1.93c-0.85-0.77-1.69-0.64-2.3,0.25
			c-0.54,0.78-0.95,1.63-1.43,2.45c-0.23,0.39-0.5,0.76-0.74,1.12c-0.25-0.1-0.33-0.11-0.33-0.14c-0.37-1.36,1.79-4.78,3.25-4.95
			c0.64-0.07,1.49,0.13,1.98,0.5c1.09,0.84,2.02,1.86,3.02,2.81C309.91,330.88,309.82,331.02,309.73,331.17z"/>
		<path class="st1" d="M535.32,254.78c-4.02,0-8.04,0-12.06,0c-0.03-0.09-0.07-0.18-0.1-0.26c0.43-0.13,0.86-0.35,1.29-0.37
			c3.29-0.19,6.58-0.36,9.88-0.46c0.42-0.01,0.87,0.37,1.3,0.57C535.52,254.42,535.42,254.6,535.32,254.78z"/>
		<path class="st1" d="M538.19,256.43c-4.01,0.19-8,0.6-12.37,0.29C527.13,255.75,537.26,255.58,538.19,256.43z"/>
		<path class="st1" d="M600.22,256.66c1.38-0.88,12.47-0.87,13.76,0C609.32,256.66,604.97,256.66,600.22,256.66z"/>
		<path class="st1" d="M639.1,212.73c0.58-0.14,0.95-0.29,1.33-0.3c3.68-0.13,7.35-0.24,11.03-0.35c0.3-0.01,0.6,0.11,0.99,0.18
			C651.18,213.35,640.95,213.77,639.1,212.73z"/>
		<path class="st1" d="M283.67,390.62c-0.42-3.57-0.27-7.17-0.36-10.75c0.15-0.04,0.31-0.08,0.47-0.13
			c0.16,0.28,0.46,0.56,0.47,0.85c0.15,3.13,0.27,6.26,0.36,9.39c0.01,0.22-0.21,0.44-0.32,0.67
			C284.09,390.64,283.88,390.63,283.67,390.62z"/>
		<path class="st1" d="M187.05,293.2c0.21-0.07,0.43-0.2,0.64-0.2c3.16-0.05,6.32-0.08,9.49-0.1c0.42,0,0.87,0.09,1.27,0.22
			c0.15,0.05,0.31,0.37,0.27,0.51c-0.04,0.13-0.35,0.27-0.55,0.27c-3.25,0.01-6.5,0.02-9.75-0.01c-0.47-0.01-0.94-0.19-1.4-0.29
			C187.02,293.47,187.04,293.33,187.05,293.2z"/>
		<path class="st1" d="M161.73,247.87c1.07-1.07,10.01-1.75,11.92-1.17c-0.21,0.2-0.37,0.5-0.56,0.51
			C169.44,247.44,165.78,247.64,161.73,247.87z"/>
		<path class="st1" d="M212.93,215.35c-0.6,0.63-1.11,1.16-1.62,1.7c-0.14-0.09-0.27-0.18-0.41-0.27c0.54-1.18,1.05-2.38,1.64-3.54
			c0.05-0.1,0.89-0.04,0.91,0.04c0.5,2.12,0.94,4.25,1.43,6.57c-1.55-0.36-1.13-1.4-1.39-2.07
			C213.21,217.03,213.13,216.23,212.93,215.35z"/>
		<path class="st1" d="M431.59,319.53c0.8,0.63,1.81,1.15,2.33,1.93c0.34,0.51,0.26,1.75-0.17,2.07c-0.88,0.64-1.83-0.05-2.19-0.83
			c-0.4-0.88-0.44-1.89-0.63-2.85C431.15,319.74,431.37,319.64,431.59,319.53z"/>
		<path class="st1" d="M640.87,215.77c1.25-1.07,10.61-0.9,11.95,0C648.74,215.77,644.8,215.77,640.87,215.77z"/>
		<path class="st1" d="M411.71,305.77c-3.83-0.14-7.66-0.28-11.49-0.42c-0.05-0.08-0.1-0.17-0.15-0.25c0.3-0.18,0.61-0.52,0.9-0.51
			c3.49,0.09,6.99,0.22,10.48,0.37c0.13,0.01,0.24,0.23,0.36,0.35C411.77,305.46,411.74,305.61,411.71,305.77z"/>
		<path class="st1" d="M557.12,399.21c-0.53-3.24-1.05-6.42-1.58-9.58C557.33,390.71,558.6,398.17,557.12,399.21z"/>
		<path class="st1" d="M316.28,209.37c0.7,0.78,1.43,8.66,0.87,9.41C316.24,217.85,315.55,210.36,316.28,209.37z"/>
		<path class="st1" d="M583.15,313.61c0.2,0.4,0.51,0.79,0.58,1.22c0.4,2.26,0.76,4.51,1.06,6.78c0.04,0.32-0.34,0.7-0.53,1.04
			c-0.15-0.35-0.39-0.68-0.45-1.05c-0.37-2.21-0.7-4.43-1.03-6.65c-0.06-0.41-0.07-0.83-0.1-1.25
			C582.84,313.67,582.99,313.64,583.15,313.61z"/>
		<path class="st1" d="M439.72,377.84c0.13,0.33,0.33,0.64,0.37,0.98c0.32,2.41,0.63,4.82,0.89,7.23c0.03,0.3-0.28,0.63-0.43,0.94
			c-0.17-0.27-0.46-0.52-0.5-0.8c-0.33-2.41-0.62-4.82-0.89-7.23c-0.04-0.35,0.08-0.72,0.14-1.08
			C439.43,377.87,439.58,377.85,439.72,377.84z"/>
		<path class="st1" d="M232.68,294.54c0.3,2.9,1.35,5.73,1.12,9.02C232.56,302.17,231.75,295.34,232.68,294.54z"/>
		<path class="st1" d="M563.51,247.26c-3.22,0-6.44,0-9.66,0c-0.04-0.14-0.08-0.28-0.12-0.42c0.41-0.16,0.82-0.44,1.25-0.45
			c1.16-0.04,2.33,0.05,3.49,0.06c1.25,0.01,2.5-0.04,3.75-0.01c0.47,0.01,0.93,0.15,1.4,0.24
			C563.58,246.86,563.54,247.06,563.51,247.26z"/>
		<path class="st1" d="M548.25,316.96c1.39-1.13,8.72-0.57,9.93,0.67C554.71,317.39,551.47,317.18,548.25,316.96z"/>
		<path class="st1" d="M558.02,321.51c-3.35-0.3-6.27,0.82-9.52,0.13C549.99,320.67,556.73,320.45,558.02,321.51z"/>
		<path class="st1" d="M610.57,217.61c0.3,0.47,0.79,0.92,0.88,1.42c0.38,2.13,0.32,4.23-0.88,6.13c-0.17,0.01-0.35,0.01-0.53,0.02
			c-0.1-0.41-0.43-0.96-0.25-1.2c1.45-1.94,0.96-3.92,0.33-5.93c-0.01-0.04,0.01-0.09,0.02-0.13
			C610.28,217.81,610.42,217.71,610.57,217.61z"/>
		<path class="st1" d="M385.89,354.32c-0.45,0-1.06,0.17-1.31-0.04c-0.44-0.35-0.83-0.9-0.93-1.42c-0.27-1.34-0.39-2.7-0.52-4.06
			c-0.03-0.29,0.14-0.59,0.29-1.14C385.09,349.67,383.36,352.43,385.89,354.32z"/>
		<path class="st1" d="M455.16,233.46c-0.39-2.51-0.79-5.02-1.23-7.83c1.18,0.69,2.24,6.47,1.79,7.74
			C455.54,233.4,455.35,233.43,455.16,233.46z"/>
		<path class="st1" d="M200.33,398.89c0-1.29,0.06-2.59-0.02-3.87c-0.04-0.68,0.39-1.66-0.95-1.85c-0.05-0.01-0.08-0.71-0.02-0.72
			c0.37-0.1,0.98-0.23,1.14-0.07c0.36,0.38,0.67,0.91,0.69,1.4c0.08,1.53,0.05,3.07,0.01,4.6c-0.01,0.2-0.27,0.39-0.42,0.58
			C200.61,398.94,200.47,398.92,200.33,398.89z"/>
		<path class="st1" d="M320,260.41c0,1.64,0,3.27,0,5.07c0.71-0.15,1.14-0.25,1.56-0.34c0.09,0.08,0.17,0.17,0.26,0.25
			c-0.29,0.3-0.57,0.82-0.88,0.84c-0.51,0.03-1.17-0.14-1.53-0.45C318.75,265.22,318.99,261.1,320,260.41z"/>
		<path class="st1" d="M486.97,285.53c2.39,0.2,4.77,0.39,7.35,0.6c-0.92,0.89-6.14,0.67-7.39-0.1
			C486.95,285.87,486.96,285.7,486.97,285.53z"/>
		<path class="st1" d="M191.63,348.2c1.16,1.28,1.57,4.95,0.76,5.88c-0.25,0.28-0.88,0.28-1.42,0.24
			C192.84,352.45,191.2,350.35,191.63,348.2z"/>
		<path class="st1" d="M316.35,343.95c0.89-0.66,5.99-0.78,7.09-0.25C322.77,344.37,318.2,344.57,316.35,343.95z"/>
		<path class="st1" d="M185.86,237.13c1.97,0.15,2.71,1.18,1.92,2.19C187.12,238.58,186.49,237.86,185.86,237.13z"/>
		<path class="st1" d="M609.18,373.85c-0.96-0.28-1.93-0.56-3.07-0.9C607.28,372.17,608.53,372.48,609.18,373.85z"/>
		<path class="st1" d="M282.48,375.32c0.17-0.63,0.17-1.22,0.39-1.29c0.59-0.2,1.27-0.19,1.92-0.26c0.03,0.14,0.05,0.27,0.08,0.41
			C284.19,374.5,283.52,374.82,282.48,375.32z"/>
		<path class="st1" d="M637.66,260.67c-0.41-0.39-0.81-0.78-1.53-1.46c0.76,0,1.43-0.17,1.65,0.04c0.29,0.28,0.23,0.87,0.32,1.33
			C637.96,260.61,637.81,260.64,637.66,260.67z"/>
		<path class="st1" d="M243.54,239.75c0.37,0.14,0.94,0.2,1.08,0.45c0.23,0.41,0.17,0.96,0.24,1.45c-0.16,0.04-0.33,0.08-0.49,0.12
			c-0.33-0.55-0.66-1.09-0.99-1.64C243.44,239.99,243.49,239.87,243.54,239.75z"/>
	</g>
</g>
</svg>
