<?xml version="1.0" encoding="utf-8"?>
<!-- Generator: Adobe Illustrator 24.1.1, SVG Export Plug-In . SVG Version: 6.00 Build 0)  -->
<svg version="1.1" id="Слой_1" xmlns="http://www.w3.org/2000/svg" xmlns:xlink="http://www.w3.org/1999/xlink" x="0px" y="0px"
	 viewBox="0 0 841.89 595.28" style="enable-background:new 0 0 841.89 595.28;" xml:space="preserve">
<style type="text/css">
	.st0{clip-path:url(#SVGID_2_);}
	.st1{fill:#424F6F;}
</style>
<g>
	<defs>
		<rect id="SVGID_1_" x="153.35" y="186.46" width="536" height="223"/>
	</defs>
	<clipPath id="SVGID_2_">
		<use xlink:href="#SVGID_1_"  style="overflow:visible;"/>
	</clipPath>
	<g class="st0">
		<path class="st1" d="M689.35,296.69c-6.52,0.21-13.04,0.41-19.56,0.64c-15.87,0.55-31.74,1.13-47.61,1.69
			c-1.34,0.05-2.68,0.11-3.9,0.16c-0.19,0.15-0.29,0.19-0.33,0.26c-0.3,0.49-0.12,1.58-1.18,1.18c-0.64-0.24-0.96-1.11-0.59-1.98
			c0.31-0.72,0.28-1.57,0.33-2.36c0.27-4.37,0.52-8.74,0.78-13.23c-0.89,0.92-1.65,1.7-2.42,2.48c-0.41-1.41,1.23-3.93,2.42-4.29
			c0.17-3.67,0.34-7.38,0.5-11.1c0.01-0.17-0.04-0.37,0.04-0.5c0.17-0.26,0.41-0.48,0.62-0.72c0.22,0.24,0.62,0.47,0.63,0.72
			c0.05,1.39,0.03,2.79-0.01,4.18c-0.08,2.37-0.15,4.73-0.31,7.09c-0.06,0.81,0.27,1.21,1.12,1.52c1.35,0.51,2.64,1.14,4.08,1.78
			c2.24-3.91,4.57-7.98,6.89-12.05c0.08-0.01,0.15-0.01,0.23-0.01c-0.06,0.49,0.02,1.04-0.21,1.46c-2.49,4.54-5.03,9.07-7.59,13.59
			c-0.39,0.69-0.96,1.3-1.45,1.95c-0.12-0.06-0.25-0.12-0.38-0.18c0.67-1.29,1.34-2.58,2.07-3.97c-1.58-0.56-3.11-1.1-4.83-1.72
			c-0.28,5.05-0.55,9.99-0.83,14.97c3.52-0.13,6.98-0.23,10.44-0.37c10.05-0.41,20.09-0.84,30.14-1.26c9.5-0.4,19-0.8,28.5-1.2
			c0.79-0.03,1.6-0.01,2.39-0.01C689.35,295.85,689.35,296.27,689.35,296.69z"/>
		<path class="st1" d="M689.35,269.04c-9.21-0.21-18.41-0.47-27.62-0.63c-5.78-0.1-11.55-0.09-17.33-0.1
			c-8.32-0.02-16.63,0-24.95-0.02c-0.61,0-1.21-0.11-1.82-0.17c0-0.12,0.01-0.24,0.01-0.36c0.5-0.05,1.02-0.14,1.52-0.14
			c16.93-0.14,33.86-0.67,50.79,0.03c5.87,0.25,11.75,0.2,17.63,0.29c0.59,0.01,1.19,0.05,1.78,0.09
			C689.35,268.37,689.35,268.71,689.35,269.04z"/>
		<path class="st1" d="M689.35,288.07c-1.05,1.17-2.07,2.35-3.17,3.49c-0.3,0.31-0.81,0.49-1.44,0.5c1.19-1.52,2.36-3.06,3.6-4.55
			c0.15-0.18,0.66-0.14,1.01-0.2C689.35,287.57,689.35,287.82,689.35,288.07z"/>
		<path class="st1" d="M324.35,309.55c-0.54-0.13-1.07-0.36-1.6-0.37c-9.13-0.05-18.25-0.37-27.12-2.33
			c-12.47-2.75-23.59-7.65-32.51-15.7c-1.9-1.72-3.55-3.64-5.16-5.58c-3.19-3.83-6.38-7.66-9.34-11.62
			c-1.54-2.05-2.66-4.34-3.86-6.56c-1.24-2.3-2.22-4.7-3.56-6.96c-1.45-2.45-0.87-4.9-0.23-7.29c1.15-4.39,3.56-8.34,6.91-11.79
			c3.84-3.94,7.9-7.72,12.95-10.62c4.46-2.57,9.49-4.05,14.44-5.69c10.08-3.34,20.55-5.47,31.3-6.1c9.03-0.53,18.12-0.5,27.18-0.45
			c12.06,0.07,23.62,2.6,35.03,5.7c6.68,1.81,13.47,3.29,19.87,5.79c5.73,2.24,11.05,5.02,15.98,8.34c3.4,2.29,5.93,5.2,7.12,8.73
			c1.47,4.37,2.93,8.78,3.74,13.26c1.21,6.72-1.27,12.76-6.02,18.16c-3.5,3.97-7.72,7.35-12.53,10.06
			c-6.75,3.8-13.71,7.35-20.72,10.8c-5.78,2.85-12.28,4.12-18.69,5.46c-5.07,1.05-10.2,1.9-15.35,2.62
			c-5.1,0.71-10.25,1.14-15.37,1.74c-0.81,0.09-1.58,0.43-2.38,0.66C324.41,309.74,324.38,309.64,324.35,309.55z M358.81,303.18
			c0.09,0.12,0.19,0.23,0.28,0.35c4.99-1.54,10.2-2.69,14.91-4.69c6.61-2.82,12.97-6.11,19.2-9.5c5.63-3.06,10.77-6.71,14.83-11.29
			c3.95-4.46,6.42-9.34,6.27-15.09c-0.13-5.11-1.74-9.93-3.6-14.68c-0.88-2.24-2.21-4.48-3.94-6.32c-3.76-3.99-9-6.47-14.17-8.93
			c-8.15-3.87-17.16-5.77-25.98-8.12c-7.99-2.14-16.07-3.97-24.39-4.71c-12.17-1.09-24.39-0.89-36.55,0.02
			c-10.39,0.78-20.53,2.81-30.24,6.07c-4.61,1.55-9.23,3.17-13.55,5.22c-5.56,2.63-9.66,6.78-13.57,10.94
			c-3.83,4.07-6.66,8.63-7.11,13.96c-0.1,1.15,0.28,2.42,0.79,3.51c1.34,2.86,2.77,5.7,4.35,8.46c1.34,2.35,2.83,4.65,4.5,6.84
			c2.57,3.37,5.38,6.59,8.03,9.92c4.02,5.04,9.08,9.21,15.02,12.54c8.52,4.78,17.86,7.9,27.99,9.28c8.88,1.2,17.83,1.7,26.74,1.07
			c7.16-0.51,14.25-1.8,21.34-2.9c3.25-0.5,6.7-0.76,9.46-3.34C359.1,302.5,358.96,302.84,358.81,303.18z"/>
		<path class="st1" d="M611.42,360.65c0.48,0.65,0.99,1.28,1.43,1.95c0.17,0.25,0.17,0.58,0.25,0.88c-0.4-0.03-1.02,0.06-1.16-0.12
			c-0.81-1.01-1.5-2.08-2.52-3.55c-3.33-0.65-7.33-0.41-11.26,0.47c-1.76,0.39-3.48,1.01-5.08,1.75c-2.4,1.11-2.63,2.96-0.54,4.53
			c3.02,2.27,6.43,4.21,10.47,4.55c3.97,0.35,8.04,0.16,12.05-0.07c2.98-0.17,5.23-1.71,7.03-3.7c0.55-0.61,1.1-1.16,2.24-0.91
			c-2.47,3.4-5.61,5.71-10.42,6.02c-4.63,0.3-9.34,0.8-13.73-0.72c-3.04-1.05-5.95-2.57-8.54-4.29c-3.02-2.01-2.51-4.86,0.75-6.55
			c3.5-1.81,7.42-2.32,11.45-2.64c0.22-0.42,0.45-0.84,0.68-1.27c0.12,0.01,0.23,0.02,0.35,0.03c0.08,0.37,0.17,0.74,0.27,1.11
			c5.13,0.79,10.51,0.1,15.51,2c-1.37,0-2.73,0-4.1,0c-0.02,0.07-0.04,0.14-0.06,0.21c1.78,0.6,3.62,1.11,5.32,1.83
			c2.97,1.26,6.02,2.46,8.76,4.02c4.43,2.54,9.3,3.77,14.51,4.27c3.66,0.35,7.35,0.54,10.99-0.24c4.85-1.04,9.61-4.7,9.41-9.08
			c-0.14-3.19-1.74-5.41-5.25-6.54c-3.81-1.23-7.71-1.04-11.63-0.49c-1.02,0.14-2.02,0.41-3.15,0.64c0.13,0.43,0.25,0.8,0.36,1.17
			c-0.1,0.07-0.2,0.13-0.3,0.2c-0.27-0.37-0.54-0.75-0.83-1.14c-1.52,0.48-2.86,0.9-4.19,1.32c0.69,2.43-0.36,4.86-2.52,5.74
			c0.49-1.69,1.89-3.15,1.53-5.21c-0.67,0.3-1.18,0.44-1.56,0.72c-2.38,1.71-4.72,3.47-7.12,5.17c-0.35,0.25-0.92,0.28-1.38,0.41
			c0.1-0.4,0.04-0.94,0.34-1.17c1.93-1.57,3.94-3.09,5.92-4.61c0.24-0.19,0.52-0.35,1.16-0.78c-1.61,0-2.79,0-3.96,0
			c-0.02-0.17-0.04-0.33-0.06-0.5c0.76-0.1,1.53-0.3,2.28-0.27c2.07,0.08,3.97-0.23,5.91-0.95c5.18-1.92,10.6-2.89,16.29-2.14
			c3.8,0.5,7.21,1.66,8.77,4.92c1.66,3.44,1.08,6.68-1.79,9.59c-2.89,2.93-6.64,4.39-11.04,4.62c-2.48,0.13-4.98-0.09-7.46-0.01
			c-1.28,0.04-2.62,0.88-3.62-0.48c-5.53-0.64-10.1-2.98-14.77-5.42c-3.89-2.03-8.39-3.24-12.63-4.8c-0.94-0.35-1.94-0.58-2.91-0.86
			C611.71,360.39,611.56,360.52,611.42,360.65z"/>
		<path class="st1" d="M507.3,358.31c0.93,0.11,1.76,0.3,2.6,0.29c4.19-0.03,8.38-0.19,12.34,1.3c3.28,1.23,5.86,3.19,7.78,5.73
			c1.2,1.58,1.29,3.4,0.53,5.13c-1.61,3.66-4.77,5.83-9.38,6.09c-6.55,0.37-12.96-0.32-18.78-3.08c-3.94-1.87-7.65-4.09-11.57-5.99
			c-3.33-1.62-6.8-3-10.44-4.59c0.12,1.88,2.47,3.11,0.73,4.92c-0.91-1.63-1.73-3.14-2.58-4.63c-0.16-0.29-0.38-0.66-0.67-0.76
			c-3.52-1.27-10.23-1.24-13.72,1.52c-4.15,3.28-3.46,8.54,1.28,11.65c2.65,1.74,5.41,1.51,8.37,1.12c5.16-0.68,9.85-2.32,14.14-4.8
			c0.66-0.38,1.31-0.8,2.03-1.07c0.51-0.19,1.14-0.16,1.71-0.23c-0.32,0.41-0.54,0.96-0.98,1.19c-3.35,1.73-6.74,3.4-10.14,5.1
			c0.12,0.11,0.41,0.37,1.03,0.93c-0.77-0.13-1.34-0.09-1.48-0.28c-0.61-0.86-1.42-0.49-2.22-0.38c-2.6,0.36-5.2,0.66-7.79,1.05
			c-3.52,0.53-8.99-3.48-9.82-6.81c-1.43-5.72,2.7-9.99,9.41-10.83c1.27-0.16,2.58-0.08,3.86-0.17c0.49-0.04,0.96-0.27,1.36-0.26
			c1.96,0.67,3.9,1.54,6.16,1.4c2.15-0.12,4.28-0.21,6.37,0.56c-1.51,0.11-3,0.21-4.76,0.34c0.33,0.21,0.45,0.34,0.6,0.38
			c4.43,1.29,8.21,3.54,12.07,5.7c3.02,1.69,6.27,3.1,9.48,4.54c0.76,0.33,1.76,0.27,2.64,0.39c0.62,0.34,1.27,0.98,2,1.04
			c3.93,0.35,7.89,0.78,11.83,0.73c3.77-0.04,6.37-1.96,7.76-4.93c0.76-1.61,0.68-3.25-0.54-4.7c-3.22-3.8-7.55-5.95-13.14-5.99
			c-2.58-0.02-5.19-0.01-7.73,0.29c-2.09,0.25-4.16,0.85-4.82,2.98c-0.14,0.46-0.61,0.85-1.17,1.59c-0.07-0.84-0.11-1.33-0.18-2.17
			c-1.18,0.96-2.18,1.75-3.15,2.57c-0.35,0.3-0.56,0.74-0.96,0.96c-0.34,0.19-0.85,0.17-1.29,0.24c0.06-0.34,0-0.76,0.22-0.98
			c1.18-1.18,2.43-2.31,3.72-3.52c-0.68-0.11-1.48-0.24-2.27-0.37c-0.01-0.13-0.02-0.26-0.03-0.39c0.46-0.11,0.92-0.33,1.37-0.3
			c2.8,0.19,5.19-0.94,7.66-1.76C507.06,358.93,507.22,358.41,507.3,358.31z"/>
		<path class="st1" d="M161.19,271.95c-0.72,0.8-1.36,1.58-2.72,1.21c-1.33-0.37-2.77-1.78-2.84-2.84
			c-0.16-2.12,1.08-3.03,3.58-2.57c0.4,0.07,0.96,0.29,1.09,0.56c0.57,1.22,1.82,1.33,2.97,1.19c2.35-0.27,4.71-0.64,7-1.17
			c5.52-1.28,10.51-3.53,15.29-6.19c3.41-1.89,6.95-3.66,10.6-5.19c1.91-0.81,4.15-1.19,6.29-1.45c3.91-0.48,7.84-0.5,11.6,0.84
			c0.55,0.2,1.17,0.36,1.58,0.7c3.86,3.22,8.12,6.22,8.96,11.18c0.58,3.42,1.39,6.84,1.58,10.27c0.18,3.26-0.44,6.55-3.33,9.07
			c-3.33,2.9-7.13,4.77-12.22,4.72c-6.39-0.05-11.9-1.69-17.08-4.82c-5.02-3.03-10.38-5.66-15.58-8.48
			c-0.67-0.36-1.38-0.71-1.93-1.18C171.94,274.3,166.92,272.58,161.19,271.95z M161.88,270.11c-0.07,0.14-0.14,0.29-0.21,0.43
			c0.6,0.17,1.18,0.41,1.8,0.49c4.14,0.52,7.78,2.03,11.15,4.04c1.58,0.94,2.91,2.19,4.52,3.09c5.16,2.87,10.45,5.56,15.56,8.49
			c2.8,1.6,5.61,3.09,8.92,3.7c4.8,0.87,9.64,1.52,14.18-0.89c3.61-1.92,6.17-4.35,6.71-8.19c0.58-4.12-0.46-8.05-1.11-12.07
			c-0.79-4.85-4.72-7.85-8.4-11.04c-0.39-0.35-1.01-0.52-1.56-0.71c-3.78-1.33-7.71-1.12-11.6-0.63c-1.84,0.23-3.75,0.66-5.39,1.38
			c-3.66,1.62-7.21,3.42-10.73,5.26c-4.82,2.52-9.86,4.58-15.35,5.79C167.6,269.85,164.84,270.7,161.88,270.11z"/>
		<path class="st1" d="M207.45,220.5c0.24,6.5-2.91,11.34-9.36,14.76c-4.16,2.2-8.48,3.89-13.47,4.02
			c-12.2,0.34-22.81-4.29-27.45-14.66c-3.55-7.93-2.87-15.95,3.07-23.21c0.97-1.18,1.99-2.37,4.05-2.17c0.28,0.03,0.68-0.27,0.9-0.5
			c1.81-1.8,4.12-2.95,6.77-3.51c8.23-1.72,16.02-1.03,22.99,3.38c4.76,3.01,8.06,6.98,10.02,11.72
			C206.35,213.64,207.74,216.96,207.45,220.5z M164.02,200.1c-0.11-0.11-0.21-0.21-0.32-0.32c-0.66,0.46-1.5,0.81-1.94,1.39
			c-1.23,1.58-2.47,3.18-3.39,4.9c-2.15,4-2.3,8.23-1.81,12.54c0.81,7.23,4.96,12.88,12.16,16.42c9.8,4.81,19.74,4.74,29.33-1
			c5.51-3.31,8.1-7.69,8.12-13.34c0.01-3.37-1.08-6.5-2.38-9.61c-3.93-9.4-13.32-16.21-26.26-15.43c-3.98,0.24-7.75,1.06-10.98,3.2
			c-2.58,1.71-2.73,2.23-1.13,4.59c2.46,3.62,4.7,7.31,5.98,11.4c1.84,5.89,0.11,11.18-3.41,16.23c-0.08,0.11-0.27,0.16-0.74,0.43
			c0.12-0.62,0.12-0.98,0.25-1.3c0.45-1.12,0.85-2.26,1.44-3.32c2.62-4.71,2.56-9.53,0.43-14.27c-1.5-3.34-3.51-6.51-5.33-9.74
			c-0.21-0.38-0.62-0.69-0.97-1.06C163.38,201.22,163.7,200.66,164.02,200.1z"/>
		<path class="st1" d="M190.2,313.16c-10.42,1.64-20.84,1.7-31.28,1.64c-0.72,1.82-1.12,2.07-2.93,1.96
			c-1.17-0.07-2.4-0.31-2.58-1.35c-0.17-1.01-0.06-2.23,0.47-3.11c0.76-1.23,3.42-0.8,4.3,0.71c0.49,0.86,1.09,0.91,1.97,0.87
			c8.59-0.43,17.18-0.81,25.77-1.29c1.69-0.1,3.36-0.6,4.83-0.88c0.42-1.1,0.58-2.35,1.31-3.28c1.56-1.99,3.31-3.88,5.16-5.69
			c1.7-1.67,4.14-2.02,6.56-1.87c3.31,0.21,6.62,0.6,9.91,0.99c4.97,0.58,9.82,5.8,10.07,10.61c0.47,9.14-8.58,14.41-15.53,15.62
			c-2,0.35-3.96,0.08-5.78-0.77c-1.87-0.87-3.81-1.66-5.63-2.61C191.75,322.06,189.23,318.3,190.2,313.16z M191.37,313.55
			c-1,4.52,2.62,8.4,6.12,10.09c1.82,0.88,3.62,1.79,5.52,2.5c1.19,0.45,2.58,0.87,3.83,0.78c9.06-0.65,15.66-7.25,15.44-14.93
			c-0.1-3.61-4.34-8.33-8.73-8.91c-2.75-0.36-5.5-0.74-8.26-0.98c-2.9-0.25-5.71-0.03-7.78,2.06c-1.18,1.19-2.38,2.38-3.44,3.65
			c-1.18,1.4-1.8,2.99-1.63,4.76c0.08,0.84,0.01,1.68,0.01,2.52c-0.12,0.01-0.23,0.01-0.35,0.01
			C191.86,314.63,191.64,314.14,191.37,313.55z"/>
		<path class="st1" d="M373.51,377.35c-0.89,0.7-1.18,2-3.02,1.67c0.28-0.36,0.42-0.55,0.58-0.74c1.19-1.4,2.18-2.76,2.29-4.65
			c0.2-3.7,2.17-6.87,5.03-9.73c-0.4-0.17-0.72-0.31-1.11-0.48c0.15-0.14,0.27-0.3,0.33-0.29c1.4,0.3,2.52-0.25,3.75-0.69
			c4.58-1.62,8.83-0.66,12.67,1.63c3.55,2.12,5.85,5.09,6.36,8.8c0.64,4.71-1.73,10.51-7.48,12.75c-4,1.56-7.96,1.17-11.77-0.48
			C377.26,383.46,375.48,381.55,373.51,377.35z M381.29,378.16c-0.29-0.1-0.61-0.16-0.86-0.31c-1.32-0.83-2.6-1.7-3.93-2.51
			c-0.36-0.22-0.86-0.29-1.29-0.42c-0.14,0.39-0.33,0.77-0.41,1.17c-0.05,0.23,0.06,0.5,0.14,0.74c1.37,4.37,4.8,7.01,9.82,8.18
			c4.61,1.08,9.29-0.35,11.64-3.39c3.22-4.18,3.91-9.75-0.43-14.38c-2.97-3.17-8.43-5.02-12.87-4.04c-2.58,0.57-4.35,1.96-5.81,3.87
			c-1.5,1.97-2.3,4.03-2.55,6.3C378.06,373.92,379.37,376.31,381.29,378.16z"/>
		<path class="st1" d="M362.82,377.05c-0.39-0.67-0.77-1.34-1.07-1.85c-1.54,2.67-3.1,5.39-4.67,8.12
			c-0.16-0.02-0.31-0.04-0.47-0.07c0.3,0.2,0.61,0.41,1.12,0.74c-0.46,0.21-0.91,0.54-1.07,0.46c-1.09-0.53-1.82,0.11-2.71,0.43
			c-4.79,1.68-9.45,1.57-13.67-1.18c-3.9-2.55-4.64-6.12-3.96-10.02c0.38-2.13,1.39-4.04,2.98-5.73c0.21-0.23,0.48-0.46,0.58-0.73
			c1.1-3.23,4.1-4.17,7.55-4.39c3.17-0.2,6.2,0.31,9.11,1.52c3.6,1.5,5,4.02,5.37,7.21c0.11,0.94,0.62,1.84,0.87,2.77
			c0.23,0.87,0.34,1.76,0.5,2.64C363.14,377,362.98,377.03,362.82,377.05z M342.78,365.42c1.2,0.31,0.63,0.74,0.03,1.03
			c-2.02,0.95-2.54,2.48-2.4,4.29c0.02,0.25-0.05,0.5-0.08,0.76c-0.09,0-0.18-0.01-0.26-0.01c-0.18-0.6-0.36-1.19-0.62-2.04
			c-0.45,0.85-0.84,1.4-1.05,1.99c-0.34,1.01-0.65,2.03-0.83,3.08c-0.69,4.03,1.81,8.09,5.8,9.36c6.69,2.12,12.28,0.37,15.2-5.56
			c0.73-1.49,1.21-3.07,1.8-4.61c-0.14-0.04-0.27-0.08-0.41-0.11c-2.63,2.61-2.63,2.61-3.8,2.24c1.36-1.46,2.7-2.9,4.21-4.52
			c-0.1-1.81-0.78-3.73-2.88-5.03c-3.53-2.19-10.55-3.48-14.73-0.84c-0.01,0.01-0.03,0.02-0.05,0.03
			C342.74,365.44,342.76,365.43,342.78,365.42z"/>
		<path class="st1" d="M554.7,281.51c-0.1,3.77-2.44,7.25-5.9,8.34c-4.27,1.35-9.46-0.54-11.64-4.27c-1.43-2.43-1.56-4.8-0.23-7.4
			c0.98-1.91,2.02-3.51,4.3-4.41c4.07-1.6,9.4-0.21,11.48,3.19C553.59,278.38,554.05,279.99,554.7,281.51z M552.81,281.96
			c0.58-4.47-4.89-8.49-8.79-7.38c0.42,2.34,0.81,4.7,1.32,7.06c0.06,0.26,0.75,0.6,1.14,0.59
			C548.57,282.2,550.64,282.07,552.81,281.96z M544.18,282.3c-0.37-2.65-0.72-5.2-1.08-7.8c-4.75,1.15-5.23,4.27-4.94,7.89
			c-0.48-0.36-0.68-0.51-0.92-0.69C537.53,282.55,540.54,282.79,544.18,282.3z M537.77,283.55c0.87,3.11,4.53,5.57,8.14,5.4
			c-0.5-1.72-0.98-3.42-1.52-5.09c-0.05-0.16-0.56-0.29-0.86-0.3C541.65,283.54,539.77,283.55,537.77,283.55z M552.67,283.15
			c-2.39,0.15-4.65,0.29-7.19,0.45c0.47,1.89,0.92,3.66,1.36,5.44C550.41,288.25,552.5,286.11,552.67,283.15z"/>
		<path class="st1" d="M155.21,298.03c0.8-0.34,1.6-0.68,2.55-1.08c-0.52-2.85-0.61-5.89,0.47-8.8c0.75-2.02,2.05-3.9,3.18-5.82
			c0.14-0.23,0.68-0.28,1.04-0.42c0.03,0.33,0.21,0.72,0.08,0.99c-1,2.01-2.33,3.93-3.04,6.01c-0.86,2.51-0.78,5.14-0.3,7.9
			c1.54-0.55,2.91-1.05,4.52-1.63c0,1.95,0.04,3.61-0.01,5.26c-0.04,1.18-0.17,2.36-0.34,3.52c-0.05,0.37-0.32,0.73-0.5,1.09
			c-0.47-0.19-1.02-0.29-1.37-0.58c-0.6-0.49-1.03-1.14-1.61-1.66c-1.32-1.2-2.7-2.35-3.99-3.57c-0.34-0.32-0.45-0.82-0.67-1.23
			c0.45,0.25,0.89,0.51,1.33,0.76c0.06-0.09,0.11-0.19,0.17-0.29C156.22,298.35,155.71,298.19,155.21,298.03z M158.86,300.54
			c0.24,0.12,0.48,0.24,0.72,0.36c0.05-0.11,0.1-0.23,0.15-0.33c-0.3,0-0.59,0-0.9,0c-0.11-0.37-0.22-0.73-0.33-1.1
			c-0.14,0.08-0.29,0.15-0.43,0.23C158.33,299.97,158.59,300.26,158.86,300.54z M162.09,298.97c0.14,0.03,0.27,0.05,0.41,0.08
			c0.08-0.78,0.17-1.56,0.26-2.35c-0.15-0.02-0.3-0.03-0.45-0.04C162.23,297.43,162.16,298.2,162.09,298.97z M161.97,303.61
			c0.13-0.07,0.26-0.15,0.38-0.22c-0.25-0.21-0.48-0.43-0.73-0.64c-0.09,0.08-0.19,0.15-0.28,0.22
			C161.55,303.19,161.76,303.4,161.97,303.61z"/>
		<path class="st1" d="M667.9,390.22c0.1-0.54,0.12-1.11,0.3-1.63c1.57-4.44,3.06-8.9,4.8-13.3c2.22-5.58,2.18-11.06-0.16-16.61
			c-1.74-4.14-3.64-8.22-6.47-11.92c-0.76-1-1.76-1.86-2.91-3.05c1.77,0.39,2.75,1.23,3.46,2.19c1.64,2.21,3.46,4.38,4.61,6.78
			c1.73,3.62,3.09,7.38,4.32,11.15c0.92,2.82,0.44,5.74-0.54,8.5c-2,5.65-4.19,11.25-6.31,16.86c-0.15,0.39-0.43,0.74-0.64,1.11
			C668.21,390.28,668.05,390.25,667.9,390.22z"/>
		<path class="st1" d="M566.41,288.6c0.16-0.59,0.15-1.28,0.52-1.75c1.18-1.51,2.57-2.9,3.76-4.4c0.91-1.15,1.77-2.34,2.44-3.59
			c0.47-0.89,0.23-1.13-0.65-1.65c-2.77,3.33-5.57,6.64-8.29,10c-1.05,1.3-0.73,1.9,1.13,1.86c3.97-0.09,7.93-0.37,11.89-0.59
			c0.47-0.03,0.92-0.13,1.39-0.19c0.05,0.1,0.1,0.21,0.15,0.31c-0.39,0.19-0.74,0.45-1.16,0.56c-4.08,1.12-8.3,1.37-12.54,1.17
			c-2.88-0.14-3.74-1.72-2.09-3.74c1.66-2.05,3.59-3.93,5.34-5.93c0.99-1.14,1.85-2.37,3.04-3.9c-4.51,0-8.58,0-12.64,0
			c-0.03-0.14-0.05-0.29-0.08-0.43c0.3-0.09,0.61-0.26,0.92-0.26c3.93-0.08,7.86-0.23,11.79-0.16c2.77,0.05,3.9,1.51,2.91,3.68
			c-0.6,1.32-1.6,2.51-2.54,3.69c-1.35,1.72-2.8,3.38-4.23,5.05c-0.15,0.18-0.41,0.28-0.63,0.42
			C566.69,288.7,566.55,288.65,566.41,288.6z"/>
		<path class="st1" d="M441.36,194.73c-0.51,0.09-0.88,0.16-1.25,0.23c-0.1-0.08-0.19-0.16-0.28-0.24c0.28-0.28,0.5-0.69,0.86-0.82
			c3.13-1.11,9.61,0.25,11.82,2.43c3.19,3.16,2.4,6.94-1.94,8.87c-1.99,0.89-4.09,1.6-6.4,1c-0.44-0.12-1.05-0.51-1.1-0.83
			C442.44,201.88,441.92,198.36,441.36,194.73z M444.09,198.85c0.18,0.01,0.36,0.01,0.54,0.02c0,0.95,0.33,2.03-0.08,2.83
			c-0.68,1.35-0.6,2.53,0.92,3.57c0.48-0.92,0.38-1.57-0.65-1.75c0.07-1.29,0.26-2.48,0.16-3.65c-0.1-1.13-0.48-2.24-0.74-3.36
			c0.27-0.04,0.54-0.09,0.81-0.13c0.77,2.83,1.53,5.65,2.32,8.55c0.46-0.12,1-0.21,1.49-0.38c2.21-0.73,4.05-1.89,4.13-4.04
			c0.07-2.09-1.31-3.66-3.5-4.65c-2.31-1.05-4.78-1.27-7.45-1.07c0.28,0.64,0.54,1.22,0.92,2.08c0.19-0.76,0.29-1.17,0.39-1.58
			c0.09,0.01,0.19,0.02,0.28,0.03c0,1.68,0,3.37,0,5.05c0.07,0,0.13,0,0.19,0C443.9,199.87,443.99,199.36,444.09,198.85z
			 M445.45,203.05c0.03-0.01,0.09-0.01,0.1-0.03c0.02-0.03,0.01-0.08,0.01-0.12c-0.05,0.01-0.1,0.02-0.15,0.03
			C445.42,202.98,445.44,203.01,445.45,203.05z"/>
		<path class="st1" d="M596.56,391.53c-3.45-4.4-7.31-8.61-10.23-13.26c-3.31-5.26-3.95-11.18-3.83-17.12
			c0.09-4.14,0.27-8.28,2.03-12.21c0.43-0.96,1.19-1.82,1.8-2.72c0.15,0.07,0.29,0.13,0.44,0.19c-0.02,0.23,0.04,0.5-0.08,0.68
			c-1.57,2.29-2.07,4.81-2.4,7.39c-0.76,5.83-0.68,11.63,0.85,17.38c1.43,5.35,4.71,9.88,8.55,14.2c1.13,1.27,2.02,2.69,2.95,4.07
			c0.24,0.36,0.24,0.83,0.35,1.26C596.84,391.43,596.7,391.48,596.56,391.53z"/>
		<path class="st1" d="M481.85,205.57c1.23-0.2,2.45-0.4,3.61-0.59c-0.22-3.32-0.45-6.64-0.67-10.01c-1.45-0.17-2.95-0.34-4.45-0.54
			c-0.08-0.01-0.14-0.2-0.32-0.48c0.7-0.08,1.31-0.19,1.92-0.2c3.23-0.08,6.46-0.16,9.69-0.17c0.44,0,0.88,0.42,1.31,0.64
			c-0.42,0.18-0.83,0.46-1.27,0.5c-1.03,0.12-2.07,0.13-3.48,0.21c0.25,3.38,0.5,6.68,0.76,10.16c1.14-0.06,2.11-0.17,3.08-0.14
			c0.36,0.01,0.7,0.32,1.06,0.5c-0.24,0.22-0.48,0.64-0.73,0.64c-3.12,0.1-6.24,0.15-9.36,0.18c-0.39,0.01-0.78-0.24-1.17-0.36
			C481.83,205.81,481.84,205.69,481.85,205.57z M486.26,197.94c0.09-0.1,0.18-0.2,0.11-0.13c0.05-0.09-0.02,0.03-0.07,0.16
			c-0.08,0.14-0.16,0.29-0.25,0.43c0.07,0.02,0.14,0.03,0.21,0.05C486.26,198.29,486.26,198.12,486.26,197.94z M486.38,201.43
			c0.28,0.07,0.56,0.14,0.83,0.21c0.41-0.92,0.07-1.96-0.16-2.98C486.83,199.59,486.6,200.51,486.38,201.43z M487.48,202.34
			c-0.77,1.34-0.7,2.24,0.3,2.76C487.67,204.16,487.58,203.3,487.48,202.34z M485.64,196.28c0.17-0.02,0.34-0.03,0.5-0.04
			c-0.03-0.41-0.06-0.83-0.1-1.24c-0.19,0.01-0.39,0.03-0.58,0.04C485.53,195.45,485.59,195.86,485.64,196.28z M487.44,195.08
			c-0.13,0-0.26-0.01-0.39-0.01c-0.07,0.55-0.14,1.09-0.22,1.64c0.12,0.01,0.23,0.03,0.34,0.04
			C487.27,196.19,487.35,195.63,487.44,195.08z"/>
		<path class="st1" d="M466.84,390.5c-1.2,0.68-2.37,0.38-3.46-0.16c-3.32-1.63-5.45-4.14-7-7.04c-1.96-3.68-2.57-7.61-2.69-11.6
			c-0.19-6.36,0.47-12.66,2.11-18.87c0.27-1.02,0.77-2.01,1.17-3.01c0.15,0.03,0.31,0.06,0.46,0.09c0,0.24,0.06,0.5-0.01,0.72
			c-1.99,6.9-2.58,13.93-2.35,21c0.16,4.93,1.01,9.81,4.5,13.96c1.28,1.52,2.98,2.82,4.64,4.07
			C464.85,390.14,465.91,390.22,466.84,390.5z"/>
		<path class="st1" d="M329.58,351.44c0.09,0.5,0.38,1.06,0.24,1.51c-0.56,1.83-1.27,3.63-1.88,5.45
			c-3.54,10.59-2.42,20.78,3.67,30.54c0.51,0.82,1.01,1.65,1.5,2.48c0.04,0.06-0.01,0.15-0.04,0.63c-1.21-1.56-2.29-2.82-3.23-4.16
			c-4.77-6.77-5.79-14.18-5.11-21.86c0.33-3.77,1.46-7.39,3.07-10.92c0.54-1.18,0.85-2.44,1.27-3.66
			C329.23,351.45,329.4,351.45,329.58,351.44z"/>
		<path class="st1" d="M176.74,342.95c-0.72-1.1-1.45-2.19-2.29-3.46c-0.07,0.47-0.17,0.84-0.18,1.21
			c-0.14,8.86-0.26,17.73-0.42,26.6c-0.02,1.27-0.17,2.53-0.29,3.79c-0.03,0.32-0.22,0.64-0.53,0.93
			c-1.01-9.77-0.42-19.52,0.05-29.55c-1.19,0.97-1.36,2.4-3.17,2.79c1.39-2.37,2.63-4.55,3.94-6.69c0.34-0.57,1.14-0.86,1.53-0.19
			c0.82,1.38,1.4,2.86,2.07,4.3C177.22,342.77,176.98,342.86,176.74,342.95z"/>
		<path class="st1" d="M164.72,237.58c-1.05,1.86-2.36,3.54-2.95,5.39c-0.58,1.86-0.45,3.88-0.64,6.05
			c1.64-0.08,2.81-0.16,3.98-0.18c0.5-0.01,1,0.16,1.49,0.25c-0.15,0.49-0.17,1.05-0.48,1.46c-0.67,0.93-1.63,1.72-2.17,2.68
			c-0.49,0.88-0.57,1.91-0.86,2.88c-0.1,0.32-0.28,0.63-0.43,0.94c-0.32-0.2-0.79-0.35-0.96-0.62c-1.18-1.94-2.26-3.92-3.45-5.86
			c-0.29-0.47-0.83-0.83-1.4-1.38c1.3-0.08,2.27-0.15,3.32-0.22c-0.34-3.07-0.33-6.05,1.62-8.73c0.67-0.93,1.41-1.81,2.15-2.7
			C164.02,237.47,164.31,237.56,164.72,237.58z M160.36,250.8c0.03,0.01,0.06,0.02,0.1,0.02c-0.05,0-0.09,0.01-0.14,0.01l-0.02-0.07
			C160.31,250.76,160.36,250.81,160.36,250.8z M160.93,252.37c0.02,0.01,0.04,0.01,0.06,0.01c-0.03-0.01-0.05-0.02-0.08-0.03
			c0.03-0.02,0.06-0.03,0.09-0.05C160.98,252.33,160.96,252.35,160.93,252.37z"/>
		<path class="st1" d="M399.4,350.67c4.44,5.56,7.62,11.58,8.2,18.31c0.62,7.3-0.2,14.49-4.38,21.12
			c1.99-6.61,3.43-13.25,3.04-20.13C405.87,363.04,402.51,356.9,399.4,350.67z"/>
		<path class="st1" d="M282.75,206.47c-0.19-0.41-0.54-0.81-0.54-1.22c-0.03-3.27,2.69-9.38,8.24-10.61c2.28-0.5,4.35-0.36,6.2,0.87
			c2.82,1.87,4.32,4.36,4.48,7.41c0.01,0.32,0.08,0.64,0.13,1.03c1.27-0.89,2.44-1.72,3.62-2.54c0.12,0.1,0.24,0.2,0.36,0.31
			c-0.19,0.26-0.32,0.56-0.56,0.78c-1.36,1.24-2.64,2.52-3.11,4.25c-0.05,0.18-0.99,0.41-1.07,0.32c-1.36-1.51-2.66-3.08-3.81-4.75
			c1.67-0.16,1.85,1.26,2.87,1.77c0.59-2.99-1.26-6.44-4.24-7.94c-2.54-1.28-6.73-0.38-8.87,2.07c-1.89,2.16-3.22,4.56-3.14,7.36
			c0.01,0.25-0.03,0.49-0.05,0.74C283.08,206.37,282.92,206.42,282.75,206.47z"/>
		<path class="st1" d="M182.7,385.45c0.3-0.05,0.62-0.15,0.92-0.14c7.03,0.44,14.01-0.27,21.03-0.49c5.96-0.18,11.93,0.14,17.9,0.21
			c0.92,0.01,1.85-0.14,2.78-0.11c0.41,0.01,0.8,0.28,1.2,0.43c-0.32,0.3-0.62,0.84-0.96,0.86c-1.58,0.08-3.18,0.01-4.78,0.02
			c-8.3,0.06-16.61,0.16-24.92,0.15c-3.97-0.01-7.94-0.22-11.91-0.36c-0.44-0.02-0.87-0.19-1.31-0.3
			C182.68,385.64,182.68,385.55,182.7,385.45z"/>
		<path class="st1" d="M654.71,195.42c-1.83,1.56-3.65-0.26-5.31,0.19c0.17,1.47,0.43,2.95,0.52,4.45c0.09,1.49,0.02,2.99,0.02,4.48
			c-0.12,0.01-0.24,0.03-0.36,0.04c-0.15-0.24-0.3-0.47-0.49-0.77c-0.23,0.35-0.46,0.68-0.85,1.26c-1.12-1.46,1.71-2.09,0.61-3.21
			c-1.2,0.69-1.4,1.17-1.18,3.4c1.38-0.2,2.75-0.41,4.12-0.59c0.27-0.03,0.68-0.04,0.81,0.09c0.19,0.19,0.36,0.6,0.23,0.78
			c-0.19,0.28-0.61,0.62-0.94,0.62c-1.99,0.01-3.98-0.07-5.96-0.14c-0.76-0.03-1.52-0.13-2.28-0.2c-0.01-0.14-0.01-0.28-0.02-0.43
			c0.91-0.12,1.82-0.23,2.59-0.33c0-2.74-0.06-5.47,0.03-8.19c0.04-1.27-0.46-1.85-2-1.86c-0.61-0.01-1.2-0.32-2.11-0.58
			C644,193.7,653.68,194.55,654.71,195.42z M648.38,196c-0.29-0.25-0.59-0.5-1.14-0.97c0,0.66-0.02,0.87,0.01,1.07
			c0.02,0.19,0.08,0.37,0.12,0.51c0.4-0.24,0.72-0.43,1.05-0.63c-0.25,1.13-0.49,2.26-0.74,3.43
			C648.94,198.1,649.5,197.55,648.38,196z M647.82,200.68c1.24,0.19,1.24,0.19,1.03-1.09C648.49,199.97,648.21,200.27,647.82,200.68
			z"/>
		<path class="st1" d="M656.88,306.31c-0.24,1.06-0.49,2.11-0.72,3.17c-0.23,1.06-0.44,2.13-0.66,3.19
			c-0.13,0.01-0.27,0.02-0.39,0.03c-0.08-0.27-0.27-0.54-0.23-0.8c0.35-2.72,0.71-5.44,1.14-8.16c0.05-0.34,0.51-0.63,0.78-0.94
			c0.32,0.29,0.81,0.52,0.94,0.86c0.7,1.79,1.3,3.61,2.04,5.69c0.7-2.03,1.29-3.82,1.97-5.59c0.15-0.41,0.63-0.73,0.96-1.1
			c0.28,0.35,0.73,0.67,0.82,1.06c0.68,2.89,1.31,5.8,1.88,8.71c0.07,0.37-0.28,0.79-0.44,1.19c-0.29-0.34-0.75-0.64-0.85-1.01
			c-0.55-2.12-1.01-4.25-1.78-6.4c-0.54,1.74-1.03,3.49-1.64,5.21c-0.16,0.47-0.63,0.86-0.95,1.28c-0.34-0.45-0.81-0.87-0.98-1.36
			c-0.57-1.67-1.03-3.37-1.54-5.05C657.12,306.29,657,306.3,656.88,306.31z"/>
		<path class="st1" d="M237.59,391.37c1.96-1.07,3.8-2.01,5.55-3.07c0.51-0.31,0.75-0.94,1.11-1.42c-0.64-0.27-1.27-0.73-1.92-0.76
			c-2.27-0.09-4.56-0.04-7.09-0.04c0,1.54,0,2.83,0,4.12c0,0.38,0.07,0.78-0.04,1.13c-0.08,0.27-0.39,0.49-0.6,0.73
			c-0.21-0.24-0.61-0.47-0.62-0.72c-0.08-1.35-0.02-2.7-0.1-4.05c-0.11-2-0.29-4-0.44-6c-0.2-0.08-0.41-0.17-0.61-0.25
			c-0.12,0.38-0.24,0.76-0.36,1.16c-1.2-0.86-1.03-1.4-0.21-1.74c1.51-0.61,3.1-0.65,4.61-0.03c1.01,0.42,1.37,1.22,1.05,2.14
			c-0.26,0.76-0.68,1.47-1.09,2.3c1.74,0,3.48-0.03,5.23,0.01c1.42,0.03,2.87,0.2,3.55,1.45c0.52,0.96-0.28,2.31-2.02,3.22
			c-1.45,0.77-3.02,1.38-4.6,1.95C238.57,391.67,237.95,391.41,237.59,391.37z M234.83,381c-0.1,0.09-0.21,0.19-0.32,0.29
			c0.2,0.95,0.4,1.91,0.61,2.87c0.16,0.03,0.32,0.07,0.48,0.09c0.32-0.82,0.77-1.62,0.87-2.46
			C236.49,381.57,235.4,381.26,234.83,381z"/>
		<path class="st1" d="M476.88,317.82c0.34-0.25,0.7-0.77,1.14-0.82c1.62-0.18,3.28-0.37,4.89-0.24c3.06,0.25,6.09,0.66,8.82,2.04
			c2.8,1.43,3.53,3.89,1.6,6.14c-1.72,2.01-4.13,3.13-7.02,3.44c-1.64,0.18-1.95-0.31-2.04-1.66c-0.18-2.77-0.57-5.54-0.95-8.3
			c-0.03-0.24-0.68-0.56-1.05-0.57C480.57,317.78,478.85,317.82,476.88,317.82z M485.71,327.29c2.43-0.29,4.54-1.11,6.17-2.74
			c1.49-1.47,1.42-3.31-0.27-4.34c-2.05-1.25-4.39-1.87-6.91-1.98C485.04,321.29,485.37,324.25,485.71,327.29z"/>
		<path class="st1" d="M569.48,375.32c-0.62-1.28-1.09-2.63-1.89-3.83c-1.31-1.98-2.84-3.86-4.23-5.81c-0.21-0.3-0.2-0.7-0.29-1.06
			c0.44,0.14,1.08,0.18,1.29,0.45c1.95,2.59,3.82,5.22,5.71,7.85c0.2,0.27,0.32,0.59,0.36,0.66c1.76-2.14,3.56-4.32,5.36-6.5
			c0.51-0.63,1.02-1.25,1.49-1.9c0.79-1.11,0.69-1.5-0.77-1.58c-4.49-0.26-8.99-0.38-13.69-0.56c0.28-0.18,0.66-0.63,1.04-0.63
			c4.17,0.02,8.36-0.01,12.51,0.24c2.8,0.17,3.33,1.29,1.79,3.33c-1.77,2.34-3.75,4.57-5.48,6.93c-0.72,0.99-1,2.21-1.54,3.3
			c-0.13,0.26-0.5,0.43-0.76,0.64c-0.28-0.52-0.57-1.03-0.86-1.55C569.51,375.3,569.48,375.32,569.48,375.32z"/>
		<path class="st1" d="M531.88,387.09c0.59-1.95,0.95-3.96,1.81-5.82c3.4-7.36,2.44-14.77,0.35-22.14c-0.5-1.77-1.94-3.36-3.01-5.01
			c-0.65-0.99-1.44-1.92-2.16-2.88c0.18-0.1,0.34-0.19,0.52-0.29c0.38,0.48,0.67,1.02,1.14,1.42c5.58,4.51,5.96,10.52,6.71,16.44
			c0.82,6.48-1.84,12.29-4.68,18.07c-0.05,0.1-0.17,0.19-0.26,0.28C532.15,387.14,532.02,387.11,531.88,387.09z"/>
		<path class="st1" d="M178.24,393.42c-0.48-1.18-0.92-2.24-1.36-3.3c-1.43,0-2.77,0.02-4.11,0c-1.25-0.02-2.05,0.29-2.2,1.51
			c-0.08,0.68-0.49,1.33-0.76,2c-0.24-0.03-0.48-0.07-0.71-0.1c0-0.61-0.14-1.26,0.03-1.84c0.81-2.92,1.67-5.82,2.57-8.72
			c0.54-1.73,0.59-1.72-0.24-3.2c0.45-0.03,0.86-0.05,1.29-0.09c0.06-0.1,0.1-0.24,0.19-0.33c0.34-0.34,0.7-0.67,1.05-1
			c0.06,0.44,0.32,0.95,0.16,1.33c-0.43,1.01-0.12,1.82,0.37,2.76c1.55,3.01,2.99,6.06,4.37,9.13
			C179.38,392.66,179.23,392.79,178.24,393.42z M173.51,382.95c-0.16,0.02-0.31,0.04-0.46,0.07c-0.57,2.02-1.14,4.03-1.73,6.1
			c1.8,0,3.37,0,5.17,0C175.48,387.02,174.5,384.99,173.51,382.95z"/>
		<path class="st1" d="M558.69,197.16c0.68,0.03,1.65-0.04,2.56,0.14c2.06,0.39,4.14,0.81,6.13,1.41c1.92,0.58,2.91,1.93,2.88,3.65
			c-0.03,1.83-0.92,3.38-2.87,4.31c-1.54,0.73-3.18,1.13-4.56,0.56c-0.2-1.26-0.35-2.2-0.5-3.16c-0.07,0.01-0.15,0.02-0.22,0.02
			c-0.27,0.76-0.54,1.52-0.81,2.29c-1.67-2.24-1.34-4.63-1.67-6.92C559.54,198.76,559.09,198.1,558.69,197.16z M562.61,198.19
			c-0.14,0.15-0.28,0.3-0.41,0.44c0.54,2.66,1.07,5.32,1.71,8.45c1.6-0.98,2.97-1.59,3.99-2.48c1.49-1.3,1.36-3.65-0.24-4.48
			C566.07,199.32,564.29,198.83,562.61,198.19z M561.32,200.1c-0.16,1.3-0.33,2.61-0.52,4.1
			C562.83,202.89,561.3,201.42,561.32,200.1z M560.48,199.07c0.12,0.01,0.24,0.02,0.36,0.02c0-0.32,0-0.63,0-0.95
			c-0.1,0.01-0.19,0.01-0.36,0.02C560.48,198.47,560.48,198.77,560.48,199.07z"/>
		<path class="st1" d="M265.47,201.83c-0.8,1.7-1.41,3.12-2.14,4.49c-0.19,0.35-0.77,0.56-1.16,0.83c-0.04-0.41-0.24-0.87-0.09-1.23
			c0.57-1.39,1.17-2.78,1.91-4.11c0.51-0.92,0.62-1.7-0.01-2.6c-1.01-1.45-1.95-2.93-2.88-4.42c-0.21-0.35-0.22-0.78-0.32-1.17
			c0.43,0.22,1.02,0.36,1.28,0.67c0.96,1.17,1.82,2.41,2.71,3.62c0.2,0.27,0.38,0.56,0.56,0.84c0.15,0.01,0.29,0.03,0.44,0.04
			c0.81-2.41,1.62-4.82,2.42-7.23c0.17,0.03,0.35,0.05,0.52,0.08c-0.05,0.84,0.05,1.71-0.19,2.51c-0.52,1.79-1.28,3.54-1.8,5.33
			c-0.18,0.62-0.15,1.39,0.12,1.98c0.79,1.68,1.8,3.28,2.62,4.96c0.21,0.42,0.05,0.98,0.05,1.47c-0.46-0.35-1.09-0.64-1.35-1.07
			C267.27,205.28,266.47,203.7,265.47,201.83z"/>
		<path class="st1" d="M556.84,321.75c1.03,0,2,0,3.06,0c-0.48-2.34-1.47-4.57-1.03-6.9c0.15-0.03,0.3-0.06,0.45-0.08
			c0.17,0.43,0.37,0.86,0.49,1.3c0.39,1.44,0.79,2.87,1.12,4.31c0.24,1.06,0.83,1.75,2.16,1.88c0.31,0.03,0.6,0.2,1.31,0.44
			c-1.05,0.16-1.69,0.26-2.48,0.38c0.17,0.82,0.42,1.6,0.45,2.37c0.02,0.47-0.3,0.95-0.47,1.43c-0.29-0.37-0.61-0.72-0.85-1.11
			c-0.14-0.21-0.14-0.49-0.19-0.73c-0.59-2.36-0.59-2.36-3.6-2.05c-0.11,1.53,0.83,3.18-0.45,4.84c-0.26-0.36-0.49-0.54-0.52-0.74
			c-0.68-3.45-1.36-6.9-2-10.36c-0.13-0.71-0.15-1.43-0.11-2.15c0.02-0.3,0.32-0.59,0.5-0.88c0.22,0.29,0.57,0.55,0.63,0.86
			c0.47,2.2,0.89,4.4,1.32,6.6C556.68,321.34,556.77,321.53,556.84,321.75z"/>
		<path class="st1" d="M442.2,379.53c-1.12-2.15-0.85-4.24,0.26-6.24c0.69-1.26,1.61-2.42,2.44-3.63c0.55-0.81,1.17-1.58,1.65-2.41
			c0.82-1.44,0.49-2.12-1.35-2.04c-4.01,0.18-7.99,0.64-11.99,0.96c-0.41,0.03-0.84-0.04-1.26-0.07c0.33-0.31,0.59-0.81,0.99-0.9
			c1.68-0.38,3.38-0.73,5.1-0.91c2.27-0.23,4.56-0.4,6.84-0.38c3.41,0.04,4.39,1.6,2.79,4.19c-0.28,0.45-0.58,0.89-0.9,1.31
			C444.4,372.5,441.98,375.57,442.2,379.53z"/>
		<path class="st1" d="M373.78,324.03c-0.73,0.04-1.4,0.08-2.11,0.12c-0.08,1.35-0.15,2.6-0.23,3.86c-0.23,0.02-0.47,0.04-0.7,0.06
			c-0.16-0.47-0.45-0.94-0.46-1.41c-0.05-4.17-0.06-8.35-0.04-12.52c0-0.32,0.37-0.64,0.56-0.96c0.16,0.31,0.46,0.61,0.47,0.93
			c0.12,2.49,0.19,4.98,0.26,7.47c0.01,0.45,0,0.91,0,1.42c0.82,0,1.49,0,2.57,0c-0.29-2.43-0.57-4.78-0.84-7.13
			c-0.02-0.2,0.13-0.42,0.2-0.63c0.3,0.1,0.81,0.14,0.88,0.31c0.32,0.74,0.65,1.51,0.72,2.29c0.14,1.47,0.05,2.95,0.14,4.43
			c0.03,0.49,0.31,0.96,0.36,1.09c0,1.98,0,3.64,0,5.3c-0.18,0.01-0.36,0.02-0.54,0.03C373.77,327.37,374,325.7,373.78,324.03z"/>
		<path class="st1" d="M298.35,368.66c0.97-1.51,1.87-2.92,2.77-4.33c0.19,0.06,0.38,0.12,0.56,0.18c-0.06,0.35,0.03,0.78-0.19,1.02
			c-2.35,2.77-2.22,5.43,0.23,8.12c0.78,0.86,1.23,1.92,1.76,2.92c0.2,0.37,0.21,0.81,0.05,1.32c-2.29-1.65-3.03-4.12-4.89-6.43
			c-0.71,2.79-1.35,5.29-1.99,7.78c-0.1,0.01-0.2,0.02-0.3,0.02c-0.06-0.41-0.24-0.82-0.18-1.21c0.38-2.25,0.86-4.48,1.2-6.73
			c0.1-0.64,0.06-1.48-0.35-1.95c-1-1.15-2.29-2.11-3.39-3.2c-0.27-0.27-0.27-0.73-0.39-1.11c0.41-0.02,0.94-0.19,1.2-0.03
			c0.75,0.47,1.43,1.04,2.06,1.62C297.16,367.29,297.73,367.98,298.35,368.66z"/>
		<path class="st1" d="M443.1,321.45c2.33-0.55,4.72,0.61,5.02,2.06c0.26,1.27-1.18,2.87-3.12,3.33c0.37-0.57,0.68-1.04,1.12-1.69
			c-2.89,0.21-5.54,0.53-8.19,0.56c-4.41,0.07-8.83-0.01-13.25-0.1c-0.9-0.02-1.85-0.35-2.7-0.68c-1.45-0.56-1.68-1.51-0.61-2.53
			c0.62-0.59,1.41-1.06,2.12-1.58c0.14,0.12,0.27,0.24,0.41,0.36c-0.46,0.36-0.94,0.71-1.38,1.08c-1.3,1.12-1.16,1.7,0.62,2.02
			c1.6,0.29,3.24,0.52,4.87,0.52c5.92-0.03,11.84-0.17,17.76-0.29c0.29-0.01,0.77-0.17,0.82-0.33c0.08-0.32,0.08-0.85-0.15-1.01
			c-0.63-0.44-1.41-0.74-2.13-1.1C443.91,321.86,443.51,321.65,443.1,321.45z"/>
		<path class="st1" d="M544.66,322c-1.21-0.38-2.42-0.76-3.6-1.12c0.05-0.17,0.05-0.24,0.08-0.25c1.88-0.78,6.75,1.09,7,2.8
			c0.08,0.59-0.34,1.48-0.89,1.84c-0.94,0.61-2.16,0.9-3.26,1.33c-0.07-0.1-0.14-0.21-0.21-0.32c0.6-0.39,1.2-0.78,1.8-1.17
			c1.69-1.11,1.64-1.74-0.3-2.71c-1.01,1.15-2.42,1.42-4.06,1.39c-5.78-0.09-11.55-0.12-17.32-0.17c-0.39-0.01-0.81,0.02-1.19-0.06
			c-0.19-0.04-0.48-0.28-0.46-0.4c0.03-0.21,0.22-0.5,0.43-0.57c0.36-0.11,0.78-0.09,1.18-0.09c5.92,0.03,11.85,0.08,17.77,0.08
			c0.99,0,2-0.16,2.99-0.24C544.63,322.23,544.65,322.11,544.66,322z"/>
		<path class="st1" d="M304.53,364.69c0.43-0.19,0.85-0.49,1.3-0.53c4.23-0.37,8.45-0.28,12.61,0.5c2.29,0.43,3.1,1.82,2.07,3.6
			c-0.52,0.9-1.17,1.77-1.91,2.55c-2.26,2.39-4.59,4.72-7.12,7.07c0.56-1.1,0.97-2.29,1.73-3.29c0.99-1.3,2.28-2.44,3.4-3.68
			c0.85-0.93,1.74-1.86,2.42-2.88c0.91-1.37,0.54-2.1-1.34-2.25c-3.95-0.32-7.92-0.44-11.88-0.65c-0.36-0.02-0.72,0-1.08,0
			C304.65,364.99,304.58,364.83,304.53,364.69z"/>
		<path class="st1" d="M460.17,322.94c-0.46-2.11-0.95-4.21-1.34-6.33c-0.08-0.46,0.23-0.98,0.36-1.47
			c0.27,0.48,0.65,0.93,0.79,1.43c0.62,2.13,1.18,4.26,1.74,6.4c0.27,1.04,0.52,2.08,0.68,3.14c0.04,0.25-0.3,0.54-0.46,0.81
			c-0.25-0.22-0.63-0.4-0.72-0.66c-0.29-0.81-0.48-1.63-0.72-2.52c-0.95,0-1.87,0-2.95,0c0.17,1.5,0.34,2.92,0.51,4.34
			c-0.15,0.05-0.3,0.1-0.45,0.16c-0.28-0.27-0.71-0.51-0.83-0.83c-0.51-1.32-1.09-2.65-1.33-4.01c-0.27-1.49-0.13-3.02-0.25-4.53
			c-0.1-1.26-0.38-2.51-0.48-3.77c-0.03-0.37,0.28-0.77,0.43-1.14c0.24,0.32,0.62,0.63,0.69,0.97c0.41,2.04,0.72,4.09,1.12,6.13
			C457.38,323.2,457.41,323.2,460.17,322.94z"/>
		<path class="st1" d="M580.49,236.75c0.6,0,1.27-0.14,1.8,0.03c1.39,0.42,2.16,1.56,1.97,2.65c-0.26,1.49-1.44,2.42-3.39,2.59
			c0.54-0.56,1.03-1.07,1.73-1.8c-8.19-1.05-16.32-0.39-24.18-1.95c8.13,0.02,16.26-0.27,24.34,0.79c0.1-1.12-0.09-1.29-2.23-1.93
			C580.51,237,580.5,236.88,580.49,236.75z"/>
		<path class="st1" d="M206.25,409.42c-1.14-3.91-2.28-7.82-3.41-11.68c-1.1-0.09-2-0.17-2.91-0.25c-0.01-0.15-0.01-0.31-0.01-0.47
			c0.72-0.17,1.45-0.35,2.38-0.57c-0.06-0.57-0.16-1.22-0.21-1.87c-0.08-1.18-0.23-2.36-0.16-3.53c0.03-0.6,0.32-1.25,0.72-1.75
			c0.27-0.35,0.94-0.7,1.38-0.66c0.32,0.03,0.56,0.7,1.04,1.36c-1.73-0.23-1.89,0.54-1.84,1.3c0.11,1.63,0.34,3.26,0.52,5.01
			c1.13-0.05,2.09-0.09,3.04-0.14c0.04,0.11,0.07,0.22,0.11,0.33c-0.86,0.27-1.71,0.55-2.64,0.85c0.62,4.06,3.25,7.91,2.55,12.1
			C206.63,409.44,206.44,409.43,206.25,409.42z"/>
		<path class="st1" d="M490.69,237.88c-1.31,0.12-2.63,0.24-4.05,0.37c0.12,0.16,0.21,0.3,0.3,0.42c0.98,1.3,1.01,2.36,0.06,3.1
			c-1.16,0.9-3.11,0.9-4.39,0.02c-1.18-0.82-1.58-1.92-1.6-3.15c-0.05-2.8,1.11-5.12,3.92-6.69c0.55-0.31,1.29-0.5,1.95-0.52
			c1.12-0.03,1.44,0.52,1.05,1.4c-1.76-0.38-3.06,0.15-4.21,1.73c-1.02,1.41-1.58,2.98-1.16,4.59c0.19,0.73,1.02,1.45,1.78,1.94
			c0.31,0.2,1.19-0.24,1.81-0.39c-0.15-0.46-0.19-1-0.5-1.35c-0.38-0.41-1.03-0.64-1.53-0.98c-0.68-0.48-0.6-1.18,0.19-1.22
			c2.12-0.1,4.25,0.04,6.38,0.09C490.68,237.46,490.68,237.66,490.69,237.88z"/>
		<path class="st1" d="M677.44,213.02c0.97-1.96,1.96-3.57,2.58-5.28c1.2-3.27,1.09-6.64-0.26-9.83c-1.42-3.36-3.26-6.59-4.91-9.88
			c-0.17-0.35-0.34-0.7-0.52-1.05c0.16-0.07,0.31-0.14,0.47-0.21c1.21,1.71,2.57,3.36,3.63,5.14c2.38,4.03,4.17,8.21,3.74,12.84
			C681.87,207.96,680.32,210.61,677.44,213.02z"/>
		<path class="st1" d="M509.09,203.32c0.4-0.08,0.79-0.22,1.2-0.24c3.32-0.18,6.64-0.37,9.97-0.49c0.54-0.02,1.08,0.29,1.63,0.44
			c0.01,0.12,0.01,0.24,0.02,0.36c0.64-0.43,1.27-0.87,2.31-1.57c-2.71-1.55-5.18-2.96-7.96-4.55c0.59-0.05,1.12-0.24,1.42-0.09
			c2.37,1.2,4.76,2.4,7.02,3.74c0.89,0.53,0.82,1.49-0.01,2.11c-1.88,1.42-3.84,2.76-6.02,4.3c-0.02-1.79,1.38-2.58,2.62-3.62
			c-4.19,0-8.17,0-12.15,0C509.11,203.57,509.11,203.45,509.09,203.32z"/>
		<path class="st1" d="M595.09,243.19c0.9-0.76,0.42-1.43,0.01-2.02c-0.29-0.43-0.87-0.73-1.11-1.17c-0.18-0.32-0.25-0.95-0.02-1.15
			c0.71-0.61,4.87-0.27,5.96,0.54c-0.74,0.15-1.3,0.33-1.89,0.39c-0.62,0.06-1.26,0.02-1.93,0.02c0.33,0.9,0.83,1.68,0.83,2.46
			c0.01,0.62-0.4,1.51-0.96,1.8c-0.56,0.28-1.74,0.18-2.32-0.15c-2.56-1.47-2.91-3.78-2.79-6.17c0.08-1.72,0.88-3.21,2.55-4.24
			c0.41-0.25,1.12-0.3,1.63-0.2c0.24,0.04,0.35,0.63,0.46,0.87c-0.77,0.26-1.48,0.33-1.86,0.67c-2.02,1.75-1.88,6.03,0.2,7.7
			C594.21,242.8,594.67,242.96,595.09,243.19z"/>
		<path class="st1" d="M461.55,294.41c-3.8-1.22-6.06-3.58-6.96-6.93c-1.17-4.34,0.09-8.46,1.7-12.53c0.39-0.97,0.85-1.92,1.27-2.88
			c0.17,0.02,0.36,0.05,0.53,0.07c-0.06,0.65-0.02,1.31-0.19,1.94c-0.67,2.51-1.56,4.98-2.08,7.5c-0.96,4.67,0.4,8.72,4.96,11.75
			c0.39,0.26,0.81,0.48,1.22,0.71C461.85,294.16,461.7,294.28,461.55,294.41z"/>
		<path class="st1" d="M644.45,212.62c-0.36-0.28-0.78-0.53-1.09-0.84c-3.13-3.22-4.49-6.97-4.63-11.1
			c-0.12-3.49,0.3-6.9,1.64-10.21c0.11-0.28,0.19-0.59,0.39-0.82c0.36-0.39,0.81-0.73,1.21-1.1c0,0.48,0.14,1-0.03,1.44
			c-2.53,6.57-2.77,13.06,0.79,19.44c0.57,1.01,1.37,1.94,2.06,2.91C644.69,212.44,644.57,212.53,644.45,212.62z"/>
		<path class="st1" d="M534.88,233.7c-1.53-1.1-2.07-0.21-2.6,0.7c-1.25,2.15-0.69,6.09,1.27,7.61c0.6,0.47,2.12,0.95,2.35,0.73
			c0.8-0.73,0.15-1.54-0.55-2.19c-0.3-0.28-0.79-0.49-0.92-0.81c-0.14-0.36-0.16-0.94,0.09-1.19c0.7-0.71,3.24-0.76,4.5-0.07
			c-1.23,0.27-2.27,0.5-3.34,0.73c0.54,0.66,1.13,1.23,1.52,1.89c0.54,0.93,0.57,1.97-0.33,2.71c-1,0.83-2.2,0.36-3.17-0.14
			c-2.24-1.13-3.12-3.02-3.38-5.09c-0.25-1.96-0.17-3.94,1.47-5.51c0.5-0.48,1.51-0.71,2.31-0.79c0.32-0.03,0.74,0.63,1.12,0.97
			C535.09,233.41,534.98,233.55,534.88,233.7z"/>
		<path class="st1" d="M402.01,317.39c-0.45,0.04-0.9,0.04-1.34,0.13c-0.85,0.17-1.78,0.26-2.52,0.63
			c-1.52,0.75-1.65,1.82-0.41,2.91c0.65,0.57,1.43,1.04,2.19,1.51c0.56,0.35,1.2,0.6,1.78,0.93c2.24,1.24,2.97,2.55,2.11,3.79
			c-1,1.45-4.72,2.49-6.4,1.79c-0.96-0.4-1.05-0.88-0.19-2.04c-0.11,1.38,0.83,1.24,1.69,1.1c1.46-0.24,3.31-0.39,3.64-1.76
			c0.3-1.27-1.5-1.68-2.55-2.34c-1.23-0.77-2.54-1.5-3.59-2.43c-1.49-1.32-1.3-3,0.47-4.04c0.98-0.57,2.24-0.84,3.41-1.06
			c0.53-0.1,1.18,0.26,1.77,0.42C402.07,317.08,402.04,317.23,402.01,317.39z"/>
		<path class="st1" d="M177.34,335.82c-2.67-1.06-3.02-3.62-4.7-5.54c-1.08,2.07-2.11,4.06-3.15,6.05c-0.15-0.05-0.3-0.1-0.45-0.15
			c0.74-2.12,1.4-4.27,2.27-6.35c0.33-0.79,0.34-1.35-0.34-1.92c-0.78-0.65-1.57-1.29-2.32-1.96c-0.17-0.15-0.32-0.56-0.25-0.6
			c0.26-0.18,0.72-0.42,0.91-0.33c0.55,0.26,1.04,0.63,1.49,1.01c0.51,0.44,0.96,0.94,1.5,1.49c1.12-1.53,1.37-3.4,3.06-4.48
			c0.15,0.05,0.29,0.1,0.44,0.16c-0.1,0.36-0.12,0.77-0.34,1.08c-2.05,2.76-2.41,5.43,0.17,8.15c0.89,0.94,1.43,2.12,2.13,3.19
			C177.61,335.68,177.47,335.75,177.34,335.82z"/>
		<path class="st1" d="M651.3,295.18c0.14-0.42,0.19-0.88,0.45-1.24c2.73-3.87,5.36-7.79,8.28-11.56c1.88-2.43,4.17-4.64,6.31-6.91
			c0.25-0.26,0.77-0.35,1.18-0.51c-0.09,0.37-0.05,0.82-0.28,1.1c-3,3.53-6.11,6.99-9.03,10.57c-2.01,2.46-3.75,5.08-5.63,7.62
			c-0.28,0.38-0.63,0.72-0.94,1.08C651.51,295.27,651.41,295.23,651.3,295.18z"/>
		<path class="st1" d="M503.07,292.02c3.3-4.39,3.25-8.67,1.32-13.11c-1.01-2.32-1.87-4.7-2.72-7.08c-0.2-0.56-0.1-1.21-0.14-1.81
			c0.15-0.02,0.3-0.03,0.45-0.05c0.13,0.15,0.32,0.29,0.39,0.46c1.32,3.17,2.67,6.34,3.92,9.53c1.23,3.14,1.36,6.28-0.17,9.39
			C505.58,290.46,504.85,291.43,503.07,292.02z"/>
		<path class="st1" d="M479.91,331.67c-3.24-0.87-5.39-2.75-6.29-5.42c-1.77-5.28-0.93-10.26,3.06-14.72
			c0.33-0.37,0.83-0.63,1.25-0.94c0.16,0.1,0.33,0.2,0.49,0.31c-0.34,0.47-0.66,0.94-1.01,1.41c-3.34,4.52-4.14,9.31-2.12,14.39
			C476.13,328.79,477.88,330.33,479.91,331.67z"/>
		<path class="st1" d="M632.95,294.5c4.62-7.8,9.32-15.55,16.15-22.16c0.14,0.07,0.27,0.14,0.41,0.21
			c-5.39,7.39-10.77,14.78-16.16,22.17C633.21,294.65,633.07,294.57,632.95,294.5z"/>
		<path class="st1" d="M490.94,286.83c-0.12,0.44-0.17,0.63-0.31,1.16c1.53-0.64,2.82-1.17,4.12-1.71c-0.03-0.16-0.07-0.33-0.09-0.5
			c-0.99-0.33-1.98-0.67-2.97-1c-0.23-0.08-0.47-0.13-0.7-0.21c-1.54-0.5-3.48-0.67-3.51-2.58c-0.02-1.46,1.98-3.09,4.08-3.38
			c0.5-0.07,1.26,0.06,1.54,0.35c0.25,0.26,0,0.86-0.01,0.97c-0.96,0-1.8-0.21-2.14,0.04c-0.81,0.6-1.4,1.42-1.97,2.2
			c-0.04,0.05,0.68,0.65,1.14,0.82c1.42,0.5,2.91,0.86,4.32,1.38c2,0.72,2.27,2.12,0.45,3.14c-1.28,0.71-2.87,1.06-4.37,1.44
			c-0.43,0.1-1.02-0.27-1.54-0.43c0.3-0.39,0.56-0.81,0.9-1.16C490.05,287.19,490.37,287.11,490.94,286.83z"/>
		<path class="st1" d="M514.16,333.13c2.2-1.86,2.85-4.19,2.71-6.65c-0.19-3.27-0.48-6.56-1.03-9.8c-0.23-1.32-1.27-2.53-1.89-3.81
			c-0.17-0.36-0.19-0.78-0.27-1.17c0.43,0.22,1.09,0.35,1.26,0.67c0.97,1.79,2.16,3.56,2.65,5.45c0.97,3.81,1.27,7.71,0.12,11.56
			C517.2,331.04,516.3,332.51,514.16,333.13z"/>
		<path class="st1" d="M468.86,285.77c-0.94-0.29-1.72-0.53-2.5-0.77c-0.7-0.22-1.41-0.42-2.07-0.7c-2.24-0.92-2.92-2.14-2.18-3.84
			c0.65-1.49,3.08-2.52,5.43-2.04c-0.63,0.35-0.98,0.58-1.38,0.75c-0.57,0.24-1.25,0.35-1.74,0.66c-1.61,1.03-1.47,2.55,0.33,3.3
			c1.15,0.48,2.48,0.67,3.6,1.2c0.74,0.35,1.65,1.01,1.75,1.62c0.09,0.53-0.7,1.43-1.37,1.73c-1.25,0.56-2.67,0.88-4.06,1.16
			c-0.63,0.13-1.52,0.05-1.39-0.85c0.03-0.19,0.58-0.47,0.85-0.44C465.54,287.68,467.7,286.99,468.86,285.77z"/>
		<path class="st1" d="M345.36,204.9c-0.93-1.35-1.71-2.47-2.7-3.93c-0.29,1.21-0.5,2.09-0.78,3.23c-1.3-0.91-1.18-2.02-0.79-2.76
			c0.76-1.43,0.05-2.4-0.79-3.46c-0.66-0.84-1.26-1.72-1.85-2.6c-0.23-0.33-0.36-0.71-0.35-1.17c1.96,0.87,2.47,2.78,4.03,3.99
			c0.73-1.95,1.44-3.85,2.17-5.76c0.02-0.04,0.27-0.02,0.66-0.03c-0.13,0.82-0.23,1.58-0.38,2.34c-0.1,0.5-0.21,1-0.42,1.47
			c-0.94,2.05-1.22,3.96,0.85,5.76C345.73,202.62,346.25,203.59,345.36,204.9z"/>
		<path class="st1" d="M553.33,300.1c-1.45-1.77,0.49-3.92-0.83-5.73c-0.23,1.91-0.45,3.83-0.68,5.73
			c-0.21-0.01-0.42-0.02-0.63-0.03c-0.48-2.11,0.59-4.19,0.32-6.33c1.83-0.36,2.46,0.67,3.15,1.63c0.67,0.93,1.39,1.83,2.27,2.98
			c0.25-2.35,0.46-4.41,0.67-6.47c0.19,0.01,0.38,0.01,0.57,0.02c0.08,0.78,0.2,1.55,0.21,2.33c0.03,1.64,0.01,3.29-0.05,4.94
			c-0.01,0.38-0.29,0.75-0.45,1.12c-0.37-0.22-0.83-0.39-1.1-0.68c-0.93-1.02-1.8-2.08-2.91-3.4c0,1.45,0,2.63,0,3.81
			C553.7,300.05,553.52,300.08,553.33,300.1z"/>
		<path class="st1" d="M412.39,331.57c0.52-1.6,1.18-3.17,1.52-4.8c0.74-3.5-0.27-6.88-1.35-10.22c-0.42-1.3-0.91-2.59-1.32-3.89
			c-0.12-0.38-0.06-0.81-0.1-1.57c0.53,0.48,0.82,0.63,0.91,0.84c1.92,4.35,3.97,8.72,3.41,13.49c-0.2,1.73-0.98,3.41-1.61,5.08
			c-0.19,0.49-0.83,0.86-1.26,1.27C412.53,331.7,412.46,331.64,412.39,331.57z"/>
		<path class="st1" d="M393.38,330.55c-2.88-0.44-4.92-2.39-5.38-4.89c-0.79-4.35-0.33-8.57,2.2-12.51c0.1-0.15,0.14-0.36,0.28-0.44
			c0.33-0.19,0.7-0.31,1.06-0.45c0.01,0.3,0.13,0.64,0.02,0.9c-0.5,1.19-1.32,2.32-1.53,3.53c-0.43,2.48-0.67,5-0.76,7.51
			C389.16,326.77,390.84,328.7,393.38,330.55z"/>
		<path class="st1" d="M628.55,240.42c0.28-0.54,0.56-1.09,0.88-1.7c-2.76-0.15-5.5-0.27-8.23-0.45c-2.62-0.16-5.23-0.37-7.81-0.83
			c5.59-0.82,11.09-0.04,16.6,0.5c0.45-1.1-0.28-1.58-1.2-1.9c-0.8-0.27-1.66-0.43-2.46-0.82c1.26-0.54,2.45-0.22,3.63,0.23
			c1.05,0.41,1.69,1.12,1.62,2.08C631.48,239,630.39,239.95,628.55,240.42z"/>
		<path class="st1" d="M242.3,194.74c-1.46,0-2.74,0-4.02,0c-0.08-0.12-0.17-0.24-0.25-0.36c0.41-0.24,0.8-0.65,1.23-0.67
			c2.53-0.14,5.07-0.22,7.6-0.26c0.42-0.01,0.89,0.26,1.24,0.49c0.09,0.06-0.08,0.64-0.28,0.72c-0.38,0.15-0.87,0.17-1.31,0.16
			c-1.02-0.02-2.04-0.1-2.86-0.14c0,3.04,0.03,5.93-0.03,8.82c-0.01,0.54-0.37,1.06-0.58,1.6c-0.25-0.54-0.7-1.08-0.71-1.63
			C242.26,200.62,242.3,197.76,242.3,194.74z"/>
		<path class="st1" d="M312.76,194.15c0.3,4.02,1.32,7.7,1.05,11.42c-0.24,0.04-0.47,0.08-0.71,0.12c-0.18-0.49-0.47-0.98-0.53-1.49
			c-0.34-3.11-0.63-6.23-0.95-9.34c-0.02-0.16-0.08-0.32-0.17-0.6c-0.93,0.07-1.83,0.13-2.74,0.19c-0.06-0.13-0.11-0.26-0.17-0.39
			c0.55-0.21,1.1-0.58,1.67-0.61c2.38-0.14,4.77-0.21,7.16-0.25c0.46-0.01,0.98,0.19,1.37,0.42c0.22,0.12,0.41,0.63,0.31,0.72
			c-0.22,0.2-0.65,0.35-0.96,0.32C316.39,194.54,314.7,194.35,312.76,194.15z"/>
		<path class="st1" d="M440.07,278.75c-1.33,0.09-2.47,0.16-3.61,0.24c-0.05-0.15-0.11-0.3-0.16-0.45c0.46-0.19,0.9-0.52,1.38-0.55
			c3.02-0.22,6.04-0.41,9.07-0.52c0.41-0.02,0.85,0.48,1.27,0.73c-0.52,0.21-1.03,0.61-1.54,0.61c-1.71,0.02-3.43-0.1-5.05-0.17
			c0,2.43-0.01,4.7,0,6.96c0,0.72,0.09,1.44,0.03,2.15c-0.03,0.26-0.39,0.49-0.6,0.73c-0.23-0.23-0.63-0.46-0.65-0.71
			c-0.1-1.43-0.12-2.87-0.14-4.3C440.06,281.92,440.07,280.37,440.07,278.75z"/>
		<path class="st1" d="M260.49,209.33c-1.26,0.42-2.02-0.26-2.66-1.01c-1.62-1.87-2.11-4.08-2.31-6.32
			c-0.3-3.37,0.62-6.61,1.71-9.82c0.03-0.1,0.19-0.18,0.71-0.28c0.04,0.62,0.17,1.25,0.1,1.86c-0.31,2.59-0.92,5.17-0.96,7.76
			c-0.02,1.67,0.58,3.4,1.23,5.02C258.69,207.53,259.68,208.34,260.49,209.33z"/>
		<path class="st1" d="M456.85,189.41c-0.14,1.07-0.19,2.15-0.43,3.21c-0.1,0.47-0.57,0.87-0.87,1.3c-0.36-0.36-0.89-0.67-1.03-1.09
			c-0.53-1.57-0.97-3.17-1.36-4.77c-0.1-0.43,0.08-0.92,0.16-1.61c1.69,1.05,0.98,2.55,1.85,3.56c0.28-0.7,0.53-1.48,0.92-2.2
			c0.18-0.34,0.7-0.83,0.96-0.79c0.43,0.06,1.02,0.46,1.13,0.81c0.48,1.54,0.83,3.11,1.18,4.68c0.04,0.19-0.2,0.42-0.31,0.63
			c-0.29-0.11-0.76-0.16-0.85-0.35c-0.26-0.53-0.41-1.11-0.56-1.69c-0.15-0.57-0.25-1.15-0.38-1.72
			C457.12,189.4,456.99,189.41,456.85,189.41z"/>
		<path class="st1" d="M585.29,317.07c-1.14,0.21-2.09,0.17-2.62,0.55c-0.9,0.64-0.86,1.62-0.1,2.38c0.6,0.6,1.38,1.06,2.11,1.57
			c0.34,0.24,0.74,0.42,1.1,0.65c1.88,1.17,2.48,2.23,1.87,3.33c-0.64,1.17-3.63,2.41-5.1,2.1c-0.21-0.04-0.38-0.22-0.79-0.47
			c0.59-0.26,0.98-0.45,1.4-0.61c0.68-0.25,1.41-0.42,2.05-0.73c1.54-0.74,1.6-1.32,0.24-2.28c-1.11-0.77-2.39-1.38-3.44-2.2
			c-2.06-1.62-1.69-4.16,0.75-5.15c0.53-0.22,1.36-0.16,1.93,0.03C585.07,316.35,585.22,316.95,585.29,317.07z"/>
		<path class="st1" d="M333.73,190.02c-1.83,6.18-2.78,12.07,3.31,17.24c-1.89-0.16-3.13-0.89-3.78-2.02
			c-0.88-1.53-1.87-3.18-1.98-4.82c-0.18-2.75,0.21-5.53,0.54-8.29C331.91,191.28,332.32,190.32,333.73,190.02z"/>
		<path class="st1" d="M464.06,237.11c1.56-0.06,4.15-0.19,6.73-0.24c0.49-0.01,0.99,0.32,1.49,0.49c-0.45,0.24-0.89,0.66-1.34,0.67
			c-5.42,0.1-10.84,0.15-16.26,0.18c-0.41,0-0.82-0.31-1.23-0.48c0.41-0.21,0.81-0.6,1.23-0.61
			C457.47,237.08,460.26,237.11,464.06,237.11z"/>
		<path class="st1" d="M594.09,331.29c2.66-1.02,2.75-3.05,2.84-5.04c0.18-4.07-0.42-8-3.2-11.48c-0.1-0.12-0.06-0.32-0.16-0.92
			c0.74,0.4,1.32,0.56,1.54,0.88c2.94,4.28,4.11,8.83,2.75,13.72C597.3,330.45,596.03,331.35,594.09,331.29z"/>
		<path class="st1" d="M670.38,310.33c1.09-0.32,1.95-0.67,2.86-0.83c1.09-0.19,2.26,0.01,2.55,1.01c0.28,0.94-0.72,1.48-1.65,1.64
			c-1.2,0.21-2.46,0.27-3.69,0.25c-0.39-0.01-1.06-0.46-1.12-0.78c-0.52-2.53-0.93-5.07-1.34-7.61c-0.05-0.31,0.12-0.65,0.19-0.97
			c0.16,0,0.32-0.01,0.48-0.01C669.23,305.44,669.79,307.84,670.38,310.33z M672.54,310.9c0.04,0.1,0.08,0.2,0.11,0.3
			c0.45-0.11,0.89-0.2,1.34-0.31c-0.03-0.09-0.06-0.18-0.08-0.26C673.45,310.72,673,310.81,672.54,310.9z"/>
		<path class="st1" d="M578.73,329.78c-1.95-0.19-3.03-0.87-3.66-2.05c-1.87-3.52-1.89-7.19-1.02-10.89
			c0.28-1.18,0.79-2.32,1.29-3.46c0.14-0.32,0.59-0.54,0.91-0.8c0.11,0.05,0.21,0.1,0.32,0.16c-0.03,0.26,0.01,0.54-0.1,0.78
			c-1.8,3.97-2.21,8.03-0.74,12.12c0.4,1.12,1.31,2.1,2.02,3.14C577.94,329.05,578.22,329.27,578.73,329.78z"/>
		<path class="st1" d="M219.5,343.37c-2.02,1.02-3.99-0.05-5.78,0.4c0.19,1.03,0.39,2.05,0.58,3.07c1.75-0.13,3.48-0.66,5.17,0.85
			c-1.94,0-3.48,0-5.1,0c-0.16,1.5-0.31,2.91-0.46,4.32c-0.24,0.01-0.48,0.03-0.72,0.04c-0.15-0.47-0.41-0.93-0.43-1.39
			c-0.07-1.64-0.01-3.29-0.1-4.94c-0.03-0.62-0.34-1.23-0.58-2.03C212.84,342.8,217.68,342.34,219.5,343.37z"/>
		<path class="st1" d="M554.19,210.61c-0.4-0.29-0.94-0.5-1.18-0.87c-3.19-4.67-3.66-9.54-1.4-14.59c0.34-0.76,0.82-1.47,1.23-2.21
			c0.17,0.04,0.36,0.07,0.53,0.11c-0.13,0.6-0.14,1.24-0.41,1.78c-1.8,3.63-1.8,7.31-0.5,11.02c0.38,1.09,1.01,2.11,1.52,3.16
			c0.21,0.44,0.39,0.89,0.58,1.34C554.45,210.44,554.32,210.52,554.19,210.61z"/>
		<path class="st1" d="M557.93,368.06c0.27,0.47,0.83,0.99,0.73,1.39c-0.08,0.35-0.88,0.77-1.41,0.83
			c-3.55,0.39-7.11,0.68-10.67,1.02c-1.63,0.15-3.25,0.38-4.88,0.49c-0.41,0.03-0.85-0.23-1.28-0.35c0.37-0.26,0.71-0.7,1.12-0.75
			c3.99-0.44,7.99-0.82,11.99-1.22c0.89-0.09,1.78-0.19,2.67-0.26c0.72-0.06,1.52-0.03,0.96-1.3
			C557.41,367.96,557.66,368.01,557.93,368.06z"/>
		<path class="st1" d="M670.87,293.24c-0.1-0.55-0.44-1.19-0.24-1.65c0.68-1.57,1.29-3.23,2.39-4.58c2.43-2.99,5.13-5.81,7.74-8.69
			c0.28-0.31,0.74-0.5,1.12-0.76c0.12,0.09,0.25,0.18,0.38,0.27c-0.23,0.37-0.39,0.77-0.68,1.1c-2.51,2.94-5.08,5.84-7.55,8.81
			c-1.34,1.62-2.45,3.36-2.68,5.39C671.18,293.17,671.02,293.2,670.87,293.24z"/>
		<path class="st1" d="M480.62,284.22c0.42-1.68,0.8-3.18,1.18-4.68c0.1-0.41,0.12-0.86,0.35-1.22c0.14-0.22,0.59-0.38,0.9-0.4
			c0.14-0.01,0.48,0.45,0.43,0.65c-0.58,2.61-1.2,5.21-1.84,7.81c-0.06,0.25-0.44,0.65-0.58,0.62c-0.32-0.06-0.7-0.29-0.87-0.54
			c-1.24-1.78-2.46-3.56-3.62-5.37c-0.19-0.29-0.06-0.72-0.08-1.09c0.41,0.15,0.99,0.2,1.21,0.47
			C478.69,281.61,479.56,282.84,480.62,284.22z"/>
		<path class="st1" d="M625.79,205.29c-0.27-0.36-0.72-0.7-0.79-1.09c-0.53-3.16-0.99-6.34-1.49-9.64
			c-0.63-0.08-1.46-0.18-2.29-0.28c-0.01-0.11-0.01-0.22-0.02-0.33c0.34-0.08,0.67-0.23,1.01-0.24c2.29-0.09,4.58-0.19,6.86-0.18
			c0.48,0,0.97,0.45,1.45,0.69c-0.53,0.15-1.05,0.41-1.58,0.42c-1.32,0.01-2.65-0.11-4.23-0.19c0.57,3.68,1.11,7.15,1.64,10.63
			C626.16,205.15,625.97,205.22,625.79,205.29z"/>
		<path class="st1" d="M428.87,370.98c-1.78,0.25-3.55,0.64-5.34,0.72c-4.01,0.17-8.03,0.19-12.05,0.24
			c-0.3,0.01-0.6-0.33-0.89-0.51c0.27-0.24,0.52-0.65,0.82-0.67c1.68-0.14,3.37-0.22,5.06-0.25c3.78-0.07,7.55-0.09,11.33-0.13
			c0.32-0.01,0.65,0.07,0.97,0.11C428.81,370.65,428.84,370.82,428.87,370.98z"/>
		<path class="st1" d="M595.79,208.03c0.21-0.28,0.32-0.49,0.5-0.66c2.82-2.53,2.32-5.41,1.04-8.26c-0.72-1.6-1.89-3.06-2.8-4.6
			c-0.29-0.49-0.41-1.06-0.39-1.64c2.81,3.33,5.97,6.5,5.56,10.96C599.48,206.26,598.51,207.42,595.79,208.03z"/>
		<path class="st1" d="M349.35,189.73c0.75,0.2,0.9,0.2,0.92,0.25c2.14,3.72,4.24,7.47,3.61,11.79c-0.27,1.9-1.26,3.5-3.39,4.61
			C354.9,200.71,351.65,195.35,349.35,189.73z"/>
		<path class="st1" d="M274.83,208.82c1.4-2.95,3.4-5.64,2.4-8.62c-0.92-2.74-2.49-5.31-3.79-8.02c0.15,0.04,0.38,0.05,0.46,0.15
			c2.02,2.51,4.08,5,4.79,8.06c0.72,3.11-0.83,5.67-2.88,8.09C275.68,208.6,275.39,208.63,274.83,208.82z"/>
		<path class="st1" d="M440.95,379.22c-0.14,0.17-0.34,0.43-0.54,0.69c-0.33-0.19-0.86-0.33-0.96-0.58
			c-0.43-1.11-0.56-2.31-1.11-3.36c-1.42-2.72-3.02-5.37-4.51-8.06c-0.15-0.28,0.02-0.69,0.05-1.04c0.37,0.13,0.9,0.17,1.07,0.4
			c0.78,1.03,1.61,2.05,2.15,3.17c1.28,2.64,2.41,5.33,3.59,8.01C440.78,378.64,440.83,378.85,440.95,379.22z"/>
		<path class="st1" d="M561.06,223.74c0.94,1.39,0.85,3.32,3.13,3.74c0.31-0.94,0.52-1.85,0.91-2.7c0.27-0.56,0.71-1.13,1.25-1.52
			c0.39-0.29,1.17-0.48,1.6-0.34c0.42,0.14,0.84,0.75,0.89,1.17c0.2,1.87-0.17,3.77-3.52,4.51c0.44,1.26,0.87,2.51,1.3,3.77
			c-0.11,0.04-0.23,0.09-0.34,0.14c-0.56-1.03-1.07-2.07-1.69-3.06c-0.29-0.47-0.68-1-1.19-1.24
			C561.75,227.42,560.55,225.43,561.06,223.74z M567.67,223.52c-1.63,0.67-2.4,2.17-2.15,4.03
			C567.69,227.07,568.56,225.52,567.67,223.52z"/>
		<path class="st1" d="M320.78,201.02c1.95,0.48,1.45,2.13,2.36,3.04c0.47-0.59,0.88-1.16,1.35-1.68c0.91-1,2.15-0.95,2.63,0.2
			c0.41,1,0.45,2.13,0.57,3.21c0.02,0.19-0.37,0.41-0.58,0.61c-0.24-0.21-0.66-0.39-0.72-0.64c-0.2-0.84-0.28-1.7-0.41-2.56
			c-0.14-0.03-0.28-0.06-0.43-0.09c-0.53,0.87-1.01,1.75-1.6,2.59c-0.28,0.39-0.76,0.69-1.14,1.02c-0.32-0.42-0.78-0.82-0.92-1.28
			C321.49,204.08,321.2,202.68,320.78,201.02z"/>
		<path class="st1" d="M502.24,237.53c5.85-0.64,11.7-0.51,17.74-0.2C518.72,238.49,503.7,238.64,502.24,237.53z"/>
		<path class="st1" d="M502.74,223.38c1.53,1.09,2.38,2.94,4.59,3.23c0.26-1.07,0.41-2.12,0.77-3.1c0.45-1.2,1.77-1.83,2.88-1.41
			c1.26,0.48,1.18,1.46,0.96,2.4c-0.35,1.5-1.5,2.43-3.21,3c0.07,0.81,0.15,1.6,0.22,2.38c-0.07,0.02-0.14,0.04-0.21,0.07
			c-0.36-0.79-0.5-1.75-1.13-2.33c-0.65-0.59-1.92-0.67-2.66-1.23c-1-0.76-1.75-1.77-2.61-2.67
			C502.47,223.61,502.61,223.49,502.74,223.38z M508.35,226.31c1.82-0.29,2.58-1.16,2.72-2.36c0.05-0.38-0.32-0.79-0.5-1.19
			c-0.49,0.22-1.25,0.36-1.4,0.69C508.75,224.35,508.6,225.35,508.35,226.31z"/>
		<path class="st1" d="M310.42,378.42c-0.27-0.55-0.59-1.09-0.77-1.66c-1.06-3.15-2.08-6.3-3.12-9.45c-0.12-0.36-0.3-0.72-0.37-1.09
			c-0.03-0.16,0.15-0.43,0.31-0.49c0.16-0.06,0.47,0.04,0.63,0.16c0.18,0.13,0.28,0.35,0.36,0.54c1.46,3.35,3.19,6.63,3.62,10.24
			c0.07,0.55,0.01,1.12,0.01,1.68C310.86,378.38,310.64,378.4,310.42,378.42z"/>
		<path class="st1" d="M521.17,201.58c-4.66,0-9.08,0.01-13.5-0.03c-0.32-0.01-0.64-0.39-0.96-0.6c0.31-0.15,0.62-0.41,0.94-0.42
			c3.88-0.09,7.76-0.15,11.64-0.2C520.06,200.33,520.89,200.36,521.17,201.58z"/>
		<path class="st1" d="M668.5,202.68c-0.47,1.34-0.85,2.4-1.22,3.45c-0.19-0.01-0.38-0.03-0.56-0.04c0-0.86-0.35-1.87,0.07-2.53
			c0.97-1.5,0.89-2.81-0.08-4.22c-0.26-0.37-0.31-0.84-0.46-1.26c0.15-0.07,0.31-0.13,0.47-0.19c0.47,0.75,0.94,1.49,1.53,2.42
			c0.46-0.96,0.85-1.78,1.23-2.59c0.16,0.01,0.31,0.03,0.47,0.04c-0.03,0.55,0.14,1.18-0.14,1.63c-0.98,1.62-0.37,2.92,0.74,4.28
			c0.4,0.49,0.35,1.24,0.5,1.87c-0.5-0.42-1.06-0.81-1.49-1.27C669.21,203.9,668.99,203.42,668.5,202.68z"/>
		<path class="st1" d="M587.84,205.11c-0.52-0.87-1.05-1.74-1.67-2.79c-0.39,1.04-0.73,1.93-1.07,2.82
			c-0.14-0.02-0.27-0.04-0.41-0.06c0-0.93-0.28-1.95,0.07-2.78c0.58-1.42-0.12-2.34-1.1-3.28c-0.52-0.5-1.01-1.02-1.52-1.53
			c0.16-0.13,0.32-0.26,0.48-0.38c0.93,0.73,1.86,1.46,2.89,2.28c0.2-0.84,0.39-1.62,0.57-2.4c0.12-0.01,0.24-0.01,0.36-0.02
			c0.1,0.22,0.34,0.48,0.29,0.67c-0.58,2.14,0.23,4.02,1.45,5.84c0.28,0.42,0.26,0.98,0.38,1.47
			C588.32,205.01,588.08,205.06,587.84,205.11z"/>
		<path class="st1" d="M540.06,298.37c-0.51,0.84-0.85,1.49-1.3,2.08c-0.21,0.27-0.68,0.59-0.99,0.56
			c-0.28-0.03-0.65-0.48-0.71-0.79c-0.33-1.56-0.58-3.14-0.85-4.71c0.72,0.09,0.72,0.09,1.97,3.01c0.43-0.55,0.79-1.1,1.25-1.58
			c0.77-0.79,1.72-0.67,1.97,0.32c0.25,0.98,0.19,2.01,0.21,3.01c0.01,0.15-0.35,0.44-0.41,0.42c-0.28-0.11-0.68-0.26-0.76-0.48
			C540.25,299.7,540.21,299.16,540.06,298.37z"/>
		<path class="st1" d="M524.16,277.86c-1.12,1.4-2.4,1.97-4.07,1.87c-1.57-0.1-2.28-1-2.78-2.14c-0.61-1.39-0.86-1.47-2.3-0.6
			c-1.27,0.78-2.46,1.66-4.05,2.74c0.21-0.62,0.21-0.95,0.39-1.1c1.33-1.01,2.64-2.03,4.06-2.94c1.11-0.71,2.05-0.31,2.73,0.62
			c1.7,2.34,1.69,2.34,4.99,1.58C523.36,277.86,523.61,277.89,524.16,277.86z"/>
		<path class="st1" d="M498.77,188.17c-0.39,0.73-0.75,1.47-1.18,2.18c-0.19,0.31-0.52,0.55-0.78,0.83
			c-0.32-0.27-0.78-0.5-0.92-0.83c-0.47-1.05-1.21-2.09-0.34-3.36c0.3,0.61,0.6,1.21,0.77,1.56c1-0.52,1.88-1.15,2.89-1.46
			c0.79-0.25,1.34,0.26,1.52,1.01c0.29,1.25,0.66,2.48,1.02,3.79c-1.12,0.29-1.65-0.3-1.91-1.23c-0.22-0.8-0.4-1.61-0.6-2.41
			C499.08,188.23,498.92,188.2,498.77,188.17z"/>
		<path class="st1" d="M448.41,287.25c-0.72,0.44-1.43,0.88-2.23,1.37c-0.07-1.41,2.13-2.88,3.28-2.28c0.39,0.2,0.68,0.98,0.54,1.37
			c-0.47,1.28-1.15,2.5-1.75,3.75c0.91,0.07,1.89,0.13,2.86,0.2c0.01,0.14,0.01,0.27,0.02,0.41c-1.17,0.7-2.57,0.83-3.95,0.73
			c-0.24-0.02-0.67-0.99-0.53-1.39c0.3-0.88,0.94-1.67,1.4-2.5c0.26-0.47,0.43-0.98,0.65-1.46
			C448.6,287.38,448.5,287.32,448.41,287.25z"/>
		<path class="st1" d="M474.44,197.34c-1.16,2.4-4.42,2.85-6.01,1.1c-0.09-0.1-0.18-0.2-0.27-0.31c-1.72-2.04-2.47-2.07-4.48-0.12
			c-0.59,0.57-1.17,1.15-1.93,1.6c0.76-1.69,1.74-3.29,3.76-4.05c0.6-0.22,1.61,0.1,2.31,0.39c0.53,0.22,0.89,0.77,1.27,1.21
			c1.22,1.42,2.24,1.63,4.07,0.79C473.48,197.79,473.81,197.64,474.44,197.34z"/>
		<path class="st1" d="M585.98,293.35c-0.42-1.08-0.84-2.17-1.36-3.52c-0.63,0.78-1.1,1.44-1.67,2.02c-0.29,0.29-0.8,0.65-1.14,0.61
			c-0.34-0.04-0.76-0.53-0.85-0.88c-0.3-1.15-0.46-2.31-0.67-3.47c0.22-0.04,0.44-0.08,0.65-0.12c0.34,0.85,0.69,1.71,1.06,2.63
			c0.75-0.73,1.34-1.41,2.06-1.98c0.69-0.55,1.59-0.64,1.85,0.29c0.4,1.4,0.53,2.86,0.78,4.29
			C586.46,293.26,586.22,293.3,585.98,293.35z"/>
		<path class="st1" d="M466.55,234.13c0.32-0.13,0.63-0.36,0.95-0.36c2.17,0,4.27,0.28,6.07,1.41c1.52,0.95,1.94,2.01,1.39,3.15
			c-0.58,1.21-2.29,1.97-4.1,1.78c0.74-0.53,1.5-0.98,2.12-1.52c1.08-0.96,1.09-1.69-0.26-2.37c-1.29-0.65-2.8-0.98-4.25-1.39
			c-0.59-0.17-1.23-0.2-1.85-0.29C466.59,234.41,466.56,234.27,466.55,234.13z"/>
		<path class="st1" d="M534.48,307.98c-2.41,0.81-3.86,2.44-5.08,4.24c-0.27,0.4-0.14,0.98-0.29,1.45c-0.08,0.25-0.3,0.6-0.54,0.65
			c-0.25,0.05-0.79-0.16-0.84-0.33c-0.37-1.43-0.65-2.88-0.65-4.45c0.38,0.54,0.74,1.07,1.02,1.45c1.54-1.19,3.05-2.43,4.66-3.57
			C533.45,306.94,534.26,306.91,534.48,307.98z"/>
		<path class="st1" d="M223.42,373.11c1.69-0.15,3.08,0.51,4.46,1.24c0.43,0.22,0.94,0.32,1.42,0.47c0.12-0.42,0.34-0.83,0.36-1.26
			c0.05-1.16,0.02-2.31,0.02-3.47c0.14-0.03,0.29-0.05,0.43-0.08c0.16,0.26,0.43,0.51,0.47,0.78c0.19,1.72,0.36,3.44,0.45,5.16
			c0.02,0.35-0.27,0.83-0.61,1.02c-0.23,0.13-0.85-0.08-1.16-0.29c-1.15-0.73-2.18-1.6-3.37-2.27c-0.77-0.44-1.73-0.63-2.61-0.94
			C223.31,373.36,223.36,373.23,223.42,373.11z"/>
		<path class="st1" d="M614.67,250.67c-1.13-0.12-2.29-0.13-3.38-0.38c-0.92-0.21-0.92-0.96-0.52-1.57
			c0.51-0.77,1.18-1.46,1.73-2.21c0.48-0.66,0.88-1.35,1.05-2.23c-0.59,0.21-1.19,0.42-1.85,0.65c0.32-0.94,1.75-1.79,2.51-1.49
			c1.17,0.47,0.9,1.38,0.5,2.07c-0.72,1.23-1.63,2.38-2.5,3.62c0.9,0.28,1.79,0.55,2.67,0.82
			C614.81,250.2,614.74,250.44,614.67,250.67z"/>
		<path class="st1" d="M603.82,197.49c0.03-0.53-0.05-0.79,0.07-0.99c0.89-1.57,4.3-2.69,6.19-2.04c3.29,1.12,3.29,1.12,6.19,1.04
			c-0.61,1.09-1.63,1.53-3.35,1.27c-0.81-0.12-1.66-0.36-2.33-0.75c-1.66-0.94-3.17-0.71-4.67,0.2
			C605.28,196.61,604.66,196.98,603.82,197.49z"/>
		<path class="st1" d="M414.97,372.78c4.68,0,9.37,0,13.84,0c-1.77,1.04-12.13,1.44-13.86,0.4
			C414.96,373.06,414.96,372.92,414.97,372.78z"/>
		<path class="st1" d="M224.62,389.56c1-1.05,2.02-2.07,2.97-3.15c0.94-1.07,0.83-1.45-0.63-2c-1.86-0.7-3.77-1.3-5.63-2
			c-0.32-0.12-0.52-0.48-0.78-0.73c0.39-0.03,0.83-0.17,1.17-0.07c1.96,0.6,3.93,1.2,5.83,1.91c2.05,0.77,2.39,1.99,0.94,3.4
			c-1.09,1.05-2.35,1.97-3.53,2.94C224.84,389.77,224.73,389.67,224.62,389.56z"/>
		<path class="st1" d="M631.48,202.41c0.48,0.56,0.96,1.13,1.46,1.72c0.01,0,0.1-0.02,0.17-0.06c0.65-0.45,1.29-0.91,1.93-1.37
			c0.38,0.69,0.81,1.35,1.1,2.07c0.19,0.49,0.19,1.04,0.26,1.56c-0.14,0.07-0.28,0.13-0.43,0.2c-0.52-0.58-1.05-1.16-1.58-1.75
			c-0.22,0.39-0.44,0.9-0.76,1.36c-0.35,0.5-1,0.84-1.37,0.16c-0.62-1.15-0.99-2.4-1.46-3.6
			C631.02,202.61,631.25,202.51,631.48,202.41z"/>
		<path class="st1" d="M524.87,282.26c-1.01,0.15-2.01,0.44-3.02,0.44c-2.88-0.01-5.76-0.12-8.63-0.22
			c-0.32-0.01-0.62-0.29-0.93-0.44c0.27-0.18,0.54-0.52,0.81-0.53c3.52-0.02,7.04,0,10.57,0.04c0.4,0.01,0.79,0.19,1.2,0.29
			C524.88,281.97,524.87,282.11,524.87,282.26z"/>
		<path class="st1" d="M558.48,246.84c0.82,0.37,1.4,0.64,1.98,0.9c-0.59,0.2-1.17,0.43-1.77,0.59c-0.42,0.11-0.89,0.18-1.32,0.16
			c-0.5-0.02-1-0.16-1.5-0.24c0.3-0.36,0.61-0.72,1.08-1.28c-0.2-0.94,0.04-2.29-1.03-3.23c-0.18,0.04-0.36,0.09-0.54,0.13
			c0.03-0.2-0.03-0.44,0.08-0.59c0.34-0.47,0.74-0.92,1.13-1.37c0.32,0.48,0.75,0.93,0.92,1.45
			C557.92,244.56,558.2,245.8,558.48,246.84z"/>
		<path class="st1" d="M380.01,328.49c0.29-0.65,0.46-1.23,0.79-1.72c0.19-0.28,0.63-0.57,0.99-0.6c0.24-0.02,0.7,0.37,0.77,0.63
			c0.36,1.24,0.62,2.51,0.92,3.77c-1.23,0.07-1.28,0.02-1.93-1.66c-0.22,0.31-0.38,0.59-0.6,0.82c-0.7,0.73-1.37,0.62-1.82-0.19
			c-0.27-0.48-0.45-1.02-0.56-1.56c-0.05-0.27,0.15-0.57,0.24-0.86c0.27,0.18,0.58,0.33,0.79,0.56
			C379.79,327.88,379.85,328.15,380.01,328.49z"/>
		<path class="st1" d="M542.97,205.24c0.32,0.39,0.63,0.78,0.95,1.17c0.05-0.02,0.1-0.03,0.13-0.05c0.65-0.67,0.99-1.81,2.47-1.29
			c0.85,0.3,1.69,2.36,1.33,3.17c-0.08,0.19-0.43,0.47-0.59,0.44c-0.27-0.05-0.63-0.27-0.71-0.49c-0.22-0.58-0.31-1.19-0.8-1.84
			c-0.38,0.71-0.72,1.43-1.16,2.1c-0.18,0.29-0.57,0.47-0.87,0.7c-0.21-0.26-0.52-0.5-0.59-0.78c-0.25-0.97-0.41-1.96-0.61-2.93
			C542.67,205.38,542.82,205.31,542.97,205.24z"/>
		<path class="st1" d="M493.66,272.78c0.77-0.59,1.49-1.26,2.35-1.73c0.98-0.54,1.6-0.09,1.43,0.81c-0.2,1.06-0.65,2.1-1.01,3.14
			c-0.15,0.43-0.35,0.86-0.56,1.36c0.96,0.22,1.84,0.43,2.71,0.63c0,0.13,0.01,0.26,0.01,0.38c-1.01,0.09-2.05,0.32-3.04,0.25
			c-1.13-0.09-1.41-0.81-0.99-1.68c0.62-1.3,1.25-2.6,1.88-3.91c-0.11-0.07-0.21-0.13-0.32-0.2c-0.67,0.46-1.34,0.92-2.02,1.38
			C493.95,273.06,493.81,272.92,493.66,272.78z"/>
		<path class="st1" d="M535.9,196.92c0.14,0.26,0.38,0.51,0.41,0.77c0.25,2.81,0.46,5.62,0.65,8.44c0.01,0.19-0.31,0.56-0.39,0.55
			c-0.3-0.06-0.73-0.2-0.81-0.39c-0.21-0.55-0.36-1.15-0.38-1.73c-0.06-2.36-0.06-4.72-0.06-7.08c0-0.15,0.11-0.3,0.16-0.45
			C535.62,196.99,535.77,196.96,535.9,196.92z"/>
		<path class="st1" d="M435.49,317.23c0,0.61,0,1.11,0,1.54c-0.67,0.16-1.26,0.31-2.05,0.5c-0.05-0.53-0.1-1.04-0.15-1.65
			c-0.3-0.11-0.71-0.25-1.38-0.49c0.61-0.33,1.02-0.56,1.48-0.81c-0.29-0.49-0.63-0.96-0.83-1.47c-0.1-0.25,0.08-0.58,0.14-0.87
			c0.27,0.14,0.59,0.24,0.8,0.42c0.27,0.23,0.46,0.53,0.63,0.73c0.49-0.24,0.92-0.44,1.34-0.64c0,0.61,0,1.22,0,1.85
			c0.61,0.1,1.33,0.23,2.05,0.36c-0.01,0.07-0.02,0.15-0.03,0.22C436.85,317.01,436.23,317.11,435.49,317.23z"/>
		<path class="st1" d="M534.69,318.2c-0.24,0.22-0.4,0.36-0.83,0.74c-0.45-1.76-0.84-3.27-1.23-4.78c0.06-0.09,0.11-0.19,0.17-0.28
			c0.58,0.39,1.14,0.78,1.77,1.21c0.32-0.29,0.69-0.62,1.06-0.96c0.12,0.04,0.24,0.09,0.36,0.14c-0.11,0.48-0.21,0.96-0.32,1.45
			c0.62,0.25,1.24,0.51,1.86,0.76c-0.03,0.08-0.06,0.17-0.1,0.25c-0.57,0-1.13,0-1.71,0c0.14,0.71,0.25,1.34,0.38,1.97
			c-0.14,0.04-0.28,0.09-0.43,0.13C535.33,318.61,535,318.39,534.69,318.2z"/>
		<path class="st1" d="M570.29,192.86c0.63-0.48,1.24-0.93,1.85-1.39c0.39,0.69,0.79,1.38,1.16,2.08c0.09,0.18,0.12,0.43,0.04,0.62
			c-0.11,0.29-0.32,0.54-0.5,0.81c-0.27-0.19-0.57-0.36-0.8-0.58c-0.15-0.14-0.19-0.36-0.21-0.41c-0.59,0.49-1.18,0.99-1.77,1.48
			c-0.32-0.69-0.68-1.37-0.92-2.08c-0.15-0.42-0.11-0.89,0.14-1.5C569.64,192.24,570.01,192.59,570.29,192.86z"/>
		<path class="st1" d="M525.91,285.64c-4.01,0.53-7.86-0.38-12.08-0.54C515.15,283.95,524.19,284.48,525.91,285.64z"/>
		<path class="st1" d="M408.15,315.68c-0.68-0.6-1.36-1.2-2.05-1.8c-1.91,1.57-1.99,1.56-2.94-0.88c-0.15-0.39-0.19-0.82-0.27-1.22
			c0.15-0.07,0.3-0.13,0.45-0.19c0.45,0.48,0.91,0.95,1.37,1.44c0.07-0.02,0.17-0.04,0.24-0.08c0.69-0.42,1.38-0.84,2.07-1.26
			c0.26,0.63,0.51,1.26,0.77,1.89c0.25,0.61,0.51,1.22,0.76,1.83C408.42,315.5,408.28,315.59,408.15,315.68z"/>
		<path class="st1" d="M568.02,327.52c-0.3,0.33-0.46,0.54-0.67,0.71c-0.73,0.63-1.34,0.57-1.59-0.32
			c-0.24-0.86-0.37-1.73-0.47-2.61c-0.03-0.23,0.24-0.48,0.37-0.72c0.25,0.21,0.6,0.38,0.72,0.63c0.18,0.37,0.2,0.8,0.7,1.46
			c0.14-0.25,0.21-0.6,0.45-0.73c0.34-0.19,0.9-0.4,1.17-0.28c0.36,0.17,0.72,0.64,0.72,0.98c0.01,0.9-0.17,1.8-0.28,2.7
			c-0.15,0.02-0.3,0.04-0.46,0.06C568.48,328.83,568.28,328.25,568.02,327.52z"/>
		<path class="st1" d="M492.53,311.8c0.36,0.63,0.71,1.27,0.96,1.7c0.84-0.38,1.66-0.76,2.48-1.13c0.21,0.81,0.45,1.62,0.62,2.43
			c0.06,0.27-0.07,0.57-0.48,1.06c-0.39-0.42-0.78-0.84-1.22-1.32c0.11-0.03,0-0.02-0.07,0.02c-0.6,0.37-1.2,0.75-1.8,1.13
			c-0.27-0.6-0.62-1.2-0.8-1.82s-0.19-1.28-0.28-1.92C492.13,311.9,492.33,311.85,492.53,311.8z"/>
		<path class="st1" d="M468.72,330.44c-0.18-0.54-0.37-1.07-0.6-1.75c-0.26,0.26-0.42,0.49-0.65,0.65c-0.43,0.29-0.89,0.53-1.34,0.8
			c-0.24-0.38-0.59-0.75-0.71-1.16c-0.28-0.93-0.46-1.88-0.68-2.82c0.15-0.05,0.3-0.11,0.45-0.17c0.47,0.62,0.94,1.24,1.42,1.86
			c0.08-0.02,0.18-0.03,0.25-0.07c0.7-0.27,1.39-0.55,2.09-0.83c0.16,0.66,0.41,1.3,0.45,1.97c0.03,0.5-0.19,1.01-0.3,1.52
			C468.97,330.44,468.84,330.44,468.72,330.44z"/>
		<path class="st1" d="M518.08,240.46c0.7-0.43,1.4-0.88,2.12-1.29c0.99-0.56,1.04-1.23,0.19-1.86c-1.18-0.88-2.45-1.67-3.9-2.65
			c0.51-0.08,0.88-0.24,1.07-0.14c1.41,0.75,2.95,1.41,4.15,2.37c1.34,1.06,1,2.37-0.63,3.09c-0.87,0.38-1.87,0.54-2.82,0.8
			C518.2,240.68,518.14,240.57,518.08,240.46z"/>
		<path class="st1" d="M472.26,279.05c-0.48-1.38-0.96-2.76-1.49-4.3c-0.54,0.5-1.09,1-1.63,1.5c-0.12-0.04-0.23-0.07-0.34-0.11
			c0-0.29-0.12-0.63,0.02-0.86c0.52-0.86,1.08-1.7,1.73-2.5c0.54-0.67,1.36-0.63,1.51,0.16c0.38,2,0.53,4.02,0.77,6.03
			C472.64,279,472.45,279.03,472.26,279.05z"/>
		<path class="st1" d="M673.12,203.72c0.73,0.65,0.74,1.92,2.33,1.51c-0.14-1.02-0.45-1.79-1.86-1.88
			c-0.32-0.02-0.62-0.38-0.93-0.59c0.27-0.22,0.63-0.69,0.78-0.64c0.92,0.3,2.11,0.53,2.62,1.13c0.55,0.66,0.71,1.73,0.58,2.57
			c-0.11,0.72-1.76,0.88-2.73,0.4C672.8,205.64,672.46,204.72,673.12,203.72z"/>
		<path class="st1" d="M604.36,202.74c3.89-0.14,7.63-0.27,11.37-0.41c0.08,0.12,0.17,0.24,0.26,0.36
			c-0.38,0.26-0.75,0.74-1.12,0.74c-3.4-0.01-6.8-0.11-10.2-0.19C604.62,203.23,604.57,203.1,604.36,202.74z"/>
		<path class="st1" d="M475.09,206c-4.1,0.69-8.18-0.01-12.28-0.22C466.92,205.1,471,205.07,475.09,206z"/>
		<path class="st1" d="M657.72,192.42c-0.34,0.37-0.58,0.79-0.97,1.01c-0.28,0.15-0.87,0.18-1.14,0.03
			c-0.57-0.31-0.66-2.37-0.12-3.15c0.41,0.47,0.76,0.88,1.03,1.21c0.63-0.47,1.27-0.95,1.91-1.43c0.27,0.73,0.58,1.45,0.79,2.19
			c0.14,0.5,0.16,1.02,0.23,1.53c-0.15,0.05-0.29,0.1-0.44,0.15C658.58,193.45,658.16,192.94,657.72,192.42z"/>
		<path class="st1" d="M252.32,207.92c-1.64-1.04-1.54-2.68-1.75-4.51c-0.52,0.87-0.9,1.51-1.28,2.16
			c-0.21-0.07-0.41-0.14-0.62-0.22c0.56-1.23,0.96-2.55,1.75-3.67c0.41-0.58,1.08-0.02,1.2,0.53c0.41,1.84,0.76,3.7,1.13,5.55
			C252.61,207.82,252.47,207.86,252.32,207.92z"/>
		<path class="st1" d="M511.92,315.73c-1.04,1.17-3.7,1.3-5.91,0.31c0.72-0.2,1.22-0.35,1.8-0.52c-0.16-0.51-0.32-1.02-0.48-1.55
			c-0.36,0.08-0.65,0.14-1.39,0.3c0.67-1.04,1.16-1.8,1.64-2.55c0.15,0.02,0.31,0.03,0.47,0.05c0.31,0.93,0.7,1.85,0.9,2.8
			c0.18,0.89,0.57,1.26,1.67,1.01C510.98,315.51,511.41,315.67,511.92,315.73z"/>
		<path class="st1" d="M592.18,202.8c1.96,0.01,3.29,1.03,3.28,2.17c-0.01,0.9-0.95,1.7-2,1.69c-1.3-0.01-2.31-1.24-2.15-2.87
			C591.35,203.37,592,203,592.18,202.8z M592.61,203.91c-0.15,0.14-0.31,0.27-0.47,0.41c0.41,0.4,0.82,0.79,1.22,1.19
			c0.19-0.21,0.58-0.57,0.55-0.6C593.51,204.56,593.05,204.24,592.61,203.91z"/>
		<path class="st1" d="M590.15,316.04c-0.41-0.53-0.81-1.06-1.23-1.62c-0.18,0.21-0.36,0.61-0.69,0.76
			c-0.27,0.12-1.02,0.01-1.05-0.1c-0.34-1.17-0.58-2.37-0.85-3.56c0.2-0.05,0.41-0.1,0.61-0.14c0.29,0.53,0.58,1.06,0.81,1.47
			c0.61-0.21,1.51-0.72,1.74-0.55c0.49,0.35,0.72,1.04,0.89,1.62c0.18,0.63,0.18,1.3,0.26,1.96
			C590.48,315.92,590.31,315.98,590.15,316.04z"/>
		<path class="st1" d="M316.19,195.36c0.15,0.31,0.37,0.61,0.43,0.94c0.43,2.44,0.85,4.9,1.22,7.35c0.05,0.31-0.25,0.65-0.39,0.98
			c-0.28-0.29-0.76-0.55-0.81-0.86c-0.32-2.17-0.54-4.34-0.79-6.52c-0.07-0.59-0.16-1.19-0.24-1.78
			C315.8,195.44,315.99,195.4,316.19,195.36z"/>
		<path class="st1" d="M165.24,357.94c0,0.76,0.05,1.52-0.03,2.27c-0.03,0.31-0.32,0.6-0.5,0.9c-0.25-0.27-0.69-0.53-0.72-0.82
			c-0.15-1.26-0.2-2.52-0.27-3.79c-0.04-0.72-0.1-1.44-0.05-2.15c0.02-0.3,0.3-0.58,0.47-0.87c0.26,0.26,0.72,0.5,0.76,0.79
			c0.2,1.21,0.28,2.43,0.41,3.65C165.29,357.93,165.27,357.94,165.24,357.94z"/>
		<path class="st1" d="M442.88,278.99c1.67,2.97,1.2,6.16,1.38,9.28c-0.12,0.05-0.25,0.11-0.38,0.17c-0.22-0.19-0.59-0.36-0.64-0.58
			c-0.17-0.82-0.32-1.66-0.34-2.49C442.84,283.24,442.88,281.11,442.88,278.99z"/>
		<path class="st1" d="M604.53,200.43c1.14-0.95,9.89-0.93,10.92,0.04C611.82,200.95,608.18,200.57,604.53,200.43z"/>
		<path class="st1" d="M545.59,298.36c0.48,1,0.85,1.79,1.24,2.59c-1.02,0.25-1.64-0.19-2.02-0.98c-0.74-1.56,0.19-4.71,2.12-6.19
			c-0.2,0.86-0.31,1.38-0.45,1.9c-0.15,0.57-0.31,1.13-0.5,1.83c0.89,0.08,1.64,0.14,2.4,0.21c0.01,0.09,0.03,0.18,0.04,0.27
			C547.59,298.09,546.75,298.21,545.59,298.36z"/>
		<path class="st1" d="M531.83,196.76c0.43-0.31,0.74-0.74,1.1-0.77c2.65-0.23,5.3-0.4,7.96-0.54c0.23-0.01,0.49,0.29,0.74,0.45
			c-0.22,0.19-0.41,0.48-0.67,0.55c-0.41,0.11-0.88,0.09-1.33,0.1C537.14,196.63,534.65,196.69,531.83,196.76z"/>
		<path class="st1" d="M538.3,197.89c0.16,0.84,0.3,1.6,0.45,2.34c0.31,1.62,0.66,3.23,0.91,4.86c0.04,0.29-0.29,0.62-0.45,0.94
			c-0.27-0.2-0.75-0.39-0.77-0.61c-0.24-2.42-0.41-4.85-0.59-7.27C537.84,198.12,537.98,198.07,538.3,197.89z"/>
		<path class="st1" d="M426.58,311.64c0.24-0.62,0.49-1.24,0.74-1.86c0.26,0.6,0.63,1.19,0.75,1.81c0.25,1.29,0.41,2.59,0.5,3.9
			c0.03,0.34-0.31,0.7-0.48,1.05c-0.31-0.31-0.84-0.59-0.89-0.93c-0.21-1.29-0.28-2.6-0.39-3.91
			C426.73,311.69,426.66,311.67,426.58,311.64z"/>
		<path class="st1" d="M246.68,204.33c-1.6-0.77-2.63-6.22-1.55-8.33C245.63,198.69,246.13,201.37,246.68,204.33z"/>
		<path class="st1" d="M500.99,313.76c-0.23-0.57-0.46-1.13-0.69-1.7c0.12-0.08,0.24-0.17,0.37-0.25c0.41,0.42,0.8,0.85,1.22,1.26
			c0.29,0.28,0.58,0.58,0.94,0.79c0.38,0.23,0.83,0.36,1.25,0.53c-0.45,0.26-0.9,0.51-1.54,0.88c-0.03,0.23-0.1,0.7-0.16,1.18
			c-0.11,0.09-0.22,0.17-0.33,0.26c-0.34-1.61-1.6-2.03-3.28-1.9c0.03-0.14,0.05-0.28,0.07-0.42
			C499.52,314.19,500.2,313.99,500.99,313.76z"/>
		<path class="st1" d="M626.68,196.72c0.2,0.74,0.39,1.49,0.6,2.23c0.38,1.39,0.79,2.77,1.11,4.18c0.07,0.29-0.24,0.64-0.37,0.96
			c-0.24-0.26-0.61-0.49-0.69-0.78c-0.45-1.73-0.85-3.46-1.21-5.2c-0.09-0.43,0.06-0.9,0.09-1.36
			C626.36,196.74,626.52,196.73,626.68,196.72z"/>
		<path class="st1" d="M492.2,241.24c0.78,1.61,1.09,3.29,0.96,5.05c-0.01,0.16-0.38,0.42-0.59,0.43c-0.21,0.01-0.6-0.24-0.62-0.38
			c-0.15-1.68-0.25-3.36-0.37-5.04C491.79,241.28,492,241.27,492.2,241.24z"/>
		<path class="st1" d="M473.9,203.29c-3.71,0-7.43,0-11.15,0c-0.01-0.11-0.01-0.21-0.02-0.32c3.72,0,7.44,0,11.17,0
			C473.9,203.07,473.9,203.18,473.9,203.29z"/>
		<path class="st1" d="M542.38,242.61c0.16,0.16,0.41,0.31,0.47,0.49c0.41,1.29,0.79,2.59,1.13,3.9c0.05,0.2-0.21,0.47-0.33,0.7
			c-0.38-0.19-1.05-0.33-1.11-0.57c-0.35-1.44-0.56-2.91-0.82-4.36C541.95,242.72,542.16,242.66,542.38,242.61z"/>
		<path class="st1" d="M604.68,246.64c2.29-0.81,4.24-0.46,6.29-0.03C609.96,247.46,606.28,247.54,604.68,246.64z"/>
		<path class="st1" d="M602.14,244.26c0.08,1.62,0.16,3.23,0.21,4.85c0.01,0.13-0.3,0.37-0.45,0.37c-0.17-0.01-0.48-0.22-0.48-0.36
			c-0.03-1.61-0.02-3.21-0.02-4.82C601.65,244.29,601.9,244.28,602.14,244.26z"/>
		<path class="st1" d="M660.5,205.6c1.63,1.06,2.53,2.09,2.6,3.51c0.01,0.26-0.28,0.54-0.45,0.81c-0.21-0.19-0.5-0.35-0.62-0.58
			c-0.54-0.93-1.03-1.89-1.52-2.84C660.43,206.36,660.5,206.15,660.5,205.6z"/>
		<path class="st1" d="M513.42,229.9c0.15,1.21,0.31,2.42,0.41,3.63c0.01,0.14-0.3,0.43-0.45,0.42c-0.25-0.02-0.66-0.2-0.67-0.34
			c-0.12-1.22-0.17-2.44-0.24-3.66C512.79,229.94,513.11,229.92,513.42,229.9z"/>
		<path class="st1" d="M551.95,244.71c-1.85,0-3.7,0-5.55,0c0-0.13-0.01-0.25-0.01-0.37c1.84,0,3.68,0,5.52,0
			C551.93,244.46,551.94,244.58,551.95,244.71z"/>
		<path class="st1" d="M576.4,206.12c1.67,0.51,1.95,1.57,1.98,2.66c0.01,0.45-0.49,0.9-0.85,1.54
			C577.11,208.73,576.78,207.52,576.4,206.12z"/>
		<path class="st1" d="M578,233.49c-0.67-0.67,0.51-1.94-1.37-2.17c0.47-0.58,0.9-1.11,1.34-1.66
			C579.04,230.65,579.01,232.18,578,233.49z"/>
		<path class="st1" d="M569.97,231.28c0.43,0.86,0.9,1.71,1.23,2.6c0.08,0.22-0.21,0.6-0.44,0.83c-0.07,0.06-0.75-0.14-0.79-0.3
			c-0.27-1.01-0.44-2.03-0.65-3.05C569.54,231.34,569.75,231.31,569.97,231.28z"/>
		<path class="st1" d="M616.14,381.66c-1.63-0.68-2.88-1.22-4.33-1.83C613.29,379.15,615.53,380.07,616.14,381.66z"/>
		<path class="st1" d="M212.17,361.85c-0.94-0.75-1.89-1.49-2.8-2.25c-0.12-0.1-0.05-0.37-0.07-0.56c0.26,0,0.63-0.09,0.77,0.02
			c0.93,0.73,1.81,1.51,2.71,2.27C212.57,361.5,212.37,361.68,212.17,361.85z"/>
		<path class="st1" d="M683.31,365.74c-1.55,0.4-3.13,0.18-4.7,0.07c0-0.14-0.01-0.27-0.01-0.41c1.56,0,3.13,0,4.69,0
			C683.31,365.52,683.31,365.62,683.31,365.74z"/>
		<path class="st1" d="M225.52,371.47c-0.46-0.17-1.07-0.23-1.35-0.52c-0.51-0.53-0.83-1.2-1.23-1.81c0.36,0,0.86-0.12,1.03,0.04
			c0.65,0.57,1.19,1.23,1.77,1.85C225.66,371.18,225.59,371.33,225.52,371.47z"/>
		<path class="st1" d="M638.53,242.31c-0.78,0.13-1.56,0.31-2.34,0.35c-0.26,0.01-0.54-0.33-0.81-0.52c0.25-0.2,0.52-0.58,0.76-0.58
			c0.79,0.02,1.58,0.19,2.37,0.3C638.52,242.02,638.53,242.17,638.53,242.31z"/>
		<path class="st1" d="M183.48,339.13c-0.93-0.55-1.63-0.93-2.28-1.38c-0.21-0.14-0.26-0.46-0.38-0.7c0.35-0.08,0.78-0.3,1.04-0.2
			C182.87,337.21,183.52,337.84,183.48,339.13z"/>
		<path class="st1" d="M571.85,231.51c0.91-0.09,1.82-0.21,2.73-0.23c0.23-0.01,0.47,0.3,0.7,0.47c-0.19,0.17-0.38,0.48-0.57,0.48
			c-0.98-0.02-1.95-0.12-2.91-0.2C571.83,231.85,571.84,231.68,571.85,231.51z"/>
		<path class="st1" d="M263.05,322.08c-1.27-0.11-2.38-0.21-3.66-0.33C260.54,320.67,262.32,320.82,263.05,322.08z"/>
		<path class="st1" d="M195.51,346.96c0.97,0.75,1.94,1.49,2.91,2.24c-0.16,0.15-0.32,0.31-0.49,0.46c-0.98-0.74-1.95-1.47-2.92-2.2
			C195.18,347.29,195.35,347.13,195.51,346.96z"/>
		<path class="st1" d="M683.35,369.72c-0.94,1-2.34,0.89-3.22-0.21C681.2,369.58,682.27,369.65,683.35,369.72z"/>
		<path class="st1" d="M202.85,353.09c0.92,0.53,1.85,1.07,2.89,1.67C204.48,355.35,203.31,354.71,202.85,353.09z"/>
		<path class="st1" d="M216.93,364.12c1.28,0.1,1.97,0.83,2.47,1.76c-0.09,0.1-0.18,0.21-0.28,0.32c-0.87-0.53-1.73-1.06-2.6-1.6
			C216.67,364.44,216.81,364.28,216.93,364.12z"/>
		<path class="st1" d="M224.62,317.44c1.14,0.14,2.27,0.27,3.41,0.41c-0.04,0.22-0.07,0.45-0.11,0.68
			c-1.14-0.13-2.29-0.25-3.43-0.38C224.53,317.91,224.57,317.67,224.62,317.44z"/>
		<path class="st1" d="M273.89,321.08c-0.83,1.18-2.33,1.36-3.71,0.35C271.51,321.3,272.66,321.19,273.89,321.08z"/>
		<path class="st1" d="M289.26,318.85c1.25-0.25,2.5-0.49,3.75-0.73c-0.92,1.23-2.27,1.21-3.63,1.16
			C289.34,319.14,289.3,318.99,289.26,318.85z"/>
		<path class="st1" d="M282.29,320.72c-0.94,0.94-2.2,0.25-3.3,0.33c-0.03-0.16-0.07-0.33-0.1-0.5c1.08-0.11,2.15-0.22,3.23-0.33
			C282.17,320.39,282.23,320.56,282.29,320.72z"/>
		<path class="st1" d="M447.56,241.15c-0.14,0.41-0.15,0.48-0.17,0.48c-0.74,0.1-1.49,0.19-2.24,0.29
			c-0.01-0.26-0.01-0.51-0.02-0.77C445.91,241.15,446.68,241.15,447.56,241.15z"/>
		<path class="st1" d="M428.84,306.56c-0.57-0.06-1.17-0.07-1.72-0.2c-0.3-0.08-0.52-0.37-0.77-0.58c0.32-0.18,0.75-0.57,0.95-0.5
			c0.66,0.23,1.23,0.64,1.84,0.98C429.04,306.36,428.94,306.46,428.84,306.56z"/>
		<path class="st1" d="M249.94,320.36c1.04,0.23,2.09,0.47,3.13,0.7c-0.06,0.2-0.12,0.4-0.18,0.6c-1.05-0.21-2.09-0.42-3.14-0.64
			C249.81,320.8,249.87,320.58,249.94,320.36z"/>
		<path class="st1" d="M611.83,348.49c-0.61,1.45-1.36,1.84-3.25,1.44C609.81,349.39,610.8,348.95,611.83,348.49z"/>
		<path class="st1" d="M297.22,316.64c0.98-0.45,1.95-0.91,3.01-1.41C299.95,316.45,299.03,316.96,297.22,316.64z"/>
		<path class="st1" d="M357.37,360.65c0.34,0.36,0.72,0.67,0.68,0.72c-0.38,0.41-0.82,0.79-1.29,1.13
			c-0.03,0.02-0.72-0.52-0.69-0.55C356.4,361.54,356.82,361.17,357.37,360.65z"/>
		<path class="st1" d="M543.33,239.68c-0.54-0.29-1.11-0.53-1.6-0.87c-0.19-0.14-0.19-0.48-0.29-0.72c0.31-0.02,0.76-0.17,0.91-0.05
			c0.51,0.43,0.92,0.95,1.36,1.44C543.59,239.55,543.46,239.62,543.33,239.68z"/>
		<path class="st1" d="M493.46,238.7c-0.59-0.32-1.18-0.64-1.76-0.95c0.26-0.19,0.66-0.57,0.76-0.52c0.54,0.26,1,0.62,1.49,0.96
			C493.78,238.36,493.62,238.53,493.46,238.7z"/>
		<path class="st1" d="M241.3,319.7c1.02,0.13,2.05,0.25,3.07,0.37c-0.03,0.15-0.05,0.3-0.08,0.45c-1.05,0.04-2.12,0.18-3.08-0.36
			C241.25,320.01,241.27,319.86,241.3,319.7z"/>
		<path class="st1" d="M628.76,382.72c-0.68,0.07-1.36,0.22-2.02,0.17c-0.21-0.02-0.36-0.58-0.66-1.12c1.14,0.21,1.9,0.35,2.66,0.49
			C628.74,382.42,628.75,382.57,628.76,382.72z"/>
		<path class="st1" d="M232.38,319.38c1.05-0.21,2.09-0.43,2.89,0.75c-0.99-0.12-1.97-0.24-2.96-0.35
			C232.33,319.65,232.35,319.52,232.38,319.38z"/>
		<path class="st1" d="M478.56,355.47c0.19-0.32,0.32-0.84,0.6-0.91c0.45-0.11,1,0.08,1.51,0.14c0.01,0.15,0.02,0.29,0.03,0.44
			c-0.62,0.2-1.24,0.4-1.86,0.59C478.75,355.64,478.65,355.56,478.56,355.47z"/>
		<path class="st1" d="M488.86,350.34c-0.74,0.49-1.47,0.97-2.22,1.46c-0.15-0.16-0.29-0.32-0.44-0.48
			c0.74-0.48,1.49-0.95,2.23-1.44C488.58,350.04,488.72,350.19,488.86,350.34z"/>
		<path class="st1" d="M439.68,242.35c-0.64-0.07-1.29-0.1-1.91-0.23c-0.09-0.02-0.04-0.5-0.07-0.76c0.69,0.09,1.38,0.19,2.07,0.27
			C439.75,241.87,439.72,242.11,439.68,242.35z"/>
		<path class="st1" d="M189,341.76c0.79,0.31,1.58,0.63,2.38,0.94c-0.11,0.19-0.21,0.38-0.32,0.57c-0.81-0.31-1.62-0.61-2.43-0.92
			C188.76,342.16,188.88,341.95,189,341.76z"/>
		<path class="st1" d="M641.68,350.89c0.92,0.39,1.85,0.77,2.77,1.16c-0.08,0.15-0.16,0.29-0.24,0.44c-0.96-0.35-1.91-0.7-2.87-1.05
			C641.46,351.27,641.57,351.08,641.68,350.89z"/>
		<path class="st1" d="M362.15,385.28c-0.94,0.05-1.89,0.1-2.83,0.15c-0.01-0.18-0.03-0.36-0.04-0.54c0.94,0,1.87,0,2.8,0
			C362.12,385.02,362.13,385.15,362.15,385.28z"/>
		<path class="st1" d="M432.93,241.1c0.47,0.44,0.77,0.72,1.07,1c-0.25,0.19-0.61,0.58-0.74,0.53c-0.4-0.14-0.76-0.43-1.01-0.73
			C432.18,241.84,432.6,241.47,432.93,241.1z"/>
		<path class="st1" d="M644.8,242.75c-0.63,0.12-1.27,0.22-1.9,0.34c-0.05-0.26-0.1-0.53-0.15-0.79c0.65-0.04,1.3-0.08,1.94-0.12
			C644.74,242.36,644.77,242.55,644.8,242.75z"/>
		<path class="st1" d="M604.59,367.7c0.34,0.78,0.67,1.56,1.1,2.55c-1.34-0.65-1.78-1.4-1.51-2.44
			C604.32,367.77,604.45,367.74,604.59,367.7z"/>
		<path class="st1" d="M486.17,380.14c-0.65-0.11-1.31-0.2-1.94-0.35c-0.12-0.03-0.27-0.37-0.21-0.51c0.06-0.13,0.41-0.29,0.57-0.24
			c0.58,0.16,1.14,0.39,1.71,0.6C486.26,379.81,486.21,379.98,486.17,380.14z"/>
		<path class="st1" d="M602.14,241.59c-0.15-0.25-0.33-0.49-0.47-0.75c-0.16-0.31-0.3-0.62-0.44-0.94c0.21-0.07,0.55-0.25,0.63-0.19
			c0.3,0.24,0.61,0.53,0.76,0.85c0.1,0.22-0.05,0.53-0.1,0.79C602.4,241.44,602.27,241.51,602.14,241.59z"/>
		<path class="st1" d="M636.99,348.42c0.9,0.27,1.79,0.53,2.69,0.8c-0.04,0.14-0.09,0.28-0.14,0.42c-0.92-0.21-1.84-0.43-2.75-0.65
			C636.85,348.8,636.93,348.61,636.99,348.42z"/>
		<path class="st1" d="M365.88,384.88c-0.41,1.56-1.45,1.16-2.33,1.11c-0.05-0.12-0.11-0.25-0.16-0.37
			C364.12,385.4,364.86,385.18,365.88,384.88z"/>
		<path class="st1" d="M645.97,365.05c0.65,0.77,0.38,1.45-0.65,2.08c0.05-0.7,0.09-1.41,0.13-2.11
			C645.62,365.03,645.79,365.04,645.97,365.05z"/>
		<path class="st1" d="M483.91,352.7c-0.73,0.17-1.46,0.33-2.18,0.5c-0.06-0.19-0.13-0.38-0.19-0.57c0.73-0.18,1.45-0.35,2.18-0.52
			C483.78,352.31,483.84,352.51,483.91,352.7z"/>
		<path class="st1" d="M313.83,313.1c-0.76,0.29-1.51,0.58-2.27,0.86c-0.1-0.19-0.19-0.37-0.28-0.55c0.76-0.26,1.53-0.53,2.29-0.8
			C313.66,312.77,313.75,312.93,313.83,313.1z"/>
		<path class="st1" d="M307.52,314.08c-0.96,0.27-1.92,0.54-2.88,0.81c-0.06-0.15-0.12-0.3-0.17-0.44c0.97-0.25,1.93-0.51,2.9-0.76
			C307.41,313.81,307.47,313.95,307.52,314.08z"/>
		<path class="st1" d="M642.42,375.29c0,0.47,0.01,0.93-0.03,1.4c0,0.03-0.41,0.04-0.63,0.06c-0.04-0.48-0.07-0.95-0.11-1.44
			C641.91,375.3,642.17,375.3,642.42,375.29z"/>
		<path class="st1" d="M163.41,350.19c-0.17-0.43-0.35-0.86-0.52-1.29c0.26-0.05,0.52-0.11,0.78-0.16c0.12,0.43,0.25,0.86,0.37,1.29
			C163.83,350.08,163.61,350.14,163.41,350.19z"/>
		<path class="st1" d="M475.16,370.22c-0.29-0.64-0.58-1.28-0.87-1.91c0.18-0.06,0.36-0.11,0.54-0.17c0.28,0.64,0.56,1.28,0.84,1.92
			C475.49,370.11,475.33,370.16,475.16,370.22z"/>
		<path class="st1" d="M652.26,242.26c-0.41,0.25-0.67,0.54-0.9,0.52c-0.27-0.02-0.5-0.31-0.74-0.48c0.25-0.21,0.47-0.52,0.77-0.6
			C651.54,241.66,651.85,241.99,652.26,242.26z"/>
		<path class="st1" d="M495.05,349.55c0.54,0,1.08,0,1.61,0c0.05,0.08,0.1,0.15,0.14,0.23c-0.43,0.24-0.85,0.53-1.32,0.66
			c-0.12,0.04-0.44-0.39-0.67-0.61C494.89,349.74,494.97,349.64,495.05,349.55z"/>
		<path class="st1" d="M316.21,312.04c0.82-0.5,1.34-0.83,1.92-1.18C318.23,312.05,318.08,312.15,316.21,312.04z"/>
		<path class="st1" d="M504.76,353.32c-0.61-0.32-1.21-0.64-1.82-0.95c0.1-0.14,0.21-0.29,0.32-0.43c0.6,0.32,1.2,0.65,1.8,0.98
			C504.96,353.04,504.85,353.18,504.76,353.32z"/>
		<path class="st1" d="M369.1,385.74c-0.62,0.05-1.24,0.11-1.86,0.16c-0.02-0.19-0.04-0.38-0.06-0.57c0.62-0.04,1.23-0.09,1.85-0.13
			C369.06,385.38,369.08,385.56,369.1,385.74z"/>
		<path class="st1" d="M645.9,359.35c0,0.77,0,1.54,0,2.31c-0.07,0.01-0.14,0.02-0.21,0.03c-0.11-0.76-0.22-1.53-0.33-2.29
			C645.54,359.38,645.72,359.36,645.9,359.35z"/>
		<path class="st1" d="M499.69,350.7c0.69,0.1,1.38,0.2,2.07,0.3c-0.01,0.13-0.02,0.26-0.03,0.39c-0.71-0.03-1.42-0.07-2.13-0.1
			C499.64,351.09,499.67,350.9,499.69,350.7z"/>
		<path class="st1" d="M359.01,360.54c0.56-0.3,1.11-0.59,1.66-0.89c0.12,0.16,0.24,0.32,0.35,0.48c-0.55,0.3-1.1,0.6-1.65,0.89
			C359.25,360.86,359.12,360.7,359.01,360.54z"/>
		<path class="st1" d="M477.28,373c0.39,0.47,0.78,0.95,1.17,1.42c-0.12,0.08-0.23,0.16-0.35,0.25c-0.45-0.45-0.9-0.9-1.36-1.35
			C476.92,373.22,477.1,373.11,477.28,373z"/>
		<path class="st1" d="M604.48,362.72c-0.04,0.59-0.08,1.17-0.12,1.76c-0.14-0.01-0.27-0.01-0.4-0.01c0-0.59,0-1.18,0-1.76
			C604.13,362.71,604.31,362.72,604.48,362.72z"/>
		<path class="st1" d="M637.66,379.47c0.39,0.07,0.79,0.13,1.19,0.2c-0.08,0.21-0.21,0.6-0.24,0.6c-0.39-0.06-0.78-0.19-1.16-0.29
			C637.53,379.81,637.59,379.64,637.66,379.47z"/>
		<path class="st1" d="M633.56,347.14c-0.83,0-1.67,0-2.51,0c0.01-0.16,0.02-0.31,0.03-0.47c0.83,0.09,1.66,0.18,2.48,0.26
			C633.57,347.01,633.57,347.07,633.56,347.14z"/>
		<path class="st1" d="M371,385.3c0.61-0.03,1.23-0.06,1.85-0.09c0.01,0.13,0.03,0.27,0.05,0.4c-0.61,0.07-1.22,0.14-1.83,0.2
			C371.05,385.64,371.02,385.47,371,385.3z"/>
		<path class="st1" d="M513.86,227.55c-0.37-0.25-0.74-0.49-1.11-0.75c0.12-0.12,0.32-0.35,0.36-0.33c0.4,0.18,0.78,0.41,1.16,0.62
			C514.13,227.24,514,227.4,513.86,227.55z"/>
		<path class="st1" d="M605.66,352.96c0.52-0.24,1.04-0.48,1.56-0.72c0.09,0.14,0.19,0.27,0.28,0.41c-0.53,0.26-1.07,0.53-1.6,0.79
			C605.81,353.27,605.74,353.12,605.66,352.96z"/>
		<path class="st1" d="M474.67,364.21c0.12,0.6,0.21,1,0.3,1.46C473.8,365.45,473.77,365.33,474.67,364.21z"/>
		<path class="st1" d="M502.06,378.16c0.35-0.19,0.7-0.38,1.04-0.57c0.1,0.13,0.21,0.26,0.31,0.39c-0.36,0.2-0.7,0.4-1.06,0.6
			C502.26,378.44,502.16,378.3,502.06,378.16z"/>
		<path class="st1" d="M632.13,381.4c0.59,0.04,1.18,0.08,1.76,0.11c-0.02,0.15-0.03,0.3-0.05,0.45c-0.58-0.05-1.16-0.11-1.74-0.17
			C632.11,381.67,632.12,381.53,632.13,381.4z"/>
		<path class="st1" d="M609.16,376.72c-0.39-0.37-0.79-0.74-1.18-1.11c0.14-0.1,0.28-0.21,0.43-0.31c0.38,0.38,0.74,0.77,1.12,1.15
			C609.41,376.54,609.28,376.63,609.16,376.72z"/>
		<path class="st1" d="M509.12,367.79c0-0.45,0-0.9,0-1.35c0.16-0.01,0.3-0.02,0.46-0.02c0.03,0.45,0.07,0.9,0.1,1.36
			C509.49,367.78,509.31,367.78,509.12,367.79z"/>
		<path class="st1" d="M569.65,229.32c-0.03-0.36-0.06-0.72-0.08-1.07c0.23-0.01,0.45-0.01,0.68-0.01c-0.05,0.36-0.1,0.73-0.14,1.09
			C569.95,229.32,569.8,229.32,569.65,229.32z"/>
		<path class="st1" d="M371.61,359.77c0.46,0.08,0.93,0.16,1.4,0.24c-0.03,0.15-0.06,0.31-0.09,0.46c-0.47-0.06-0.93-0.12-1.4-0.18
			C371.56,360.12,371.59,359.95,371.61,359.77z"/>
		<path class="st1" d="M374.8,362.06c0.47,0.04,0.95,0.09,1.42,0.14c-0.01,0.1-0.01,0.19-0.01,0.29c-0.48,0-0.96,0-1.45,0
			C374.77,362.35,374.79,362.2,374.8,362.06z"/>
		<path class="st1" d="M365.61,359.88c-0.7,0.06-1.4,0.13-2.09,0.19c-0.01-0.14-0.03-0.27-0.04-0.41c0.72-0.03,1.43-0.07,2.15-0.1
			C365.62,359.67,365.61,359.77,365.61,359.88z"/>
		<path class="st1" d="M369.64,359.28c-0.41,0.21-0.83,0.43-1.25,0.64c-0.09-0.13-0.17-0.26-0.27-0.39
			c0.43-0.19,0.86-0.39,1.29-0.58C369.48,359.06,369.56,359.17,369.64,359.28z"/>
		<path class="st1" d="M505.8,354.66c0.29,0.4,0.58,0.79,0.98,1.33c-0.51-0.41-0.9-0.72-1.3-1.04
			C505.59,354.86,505.7,354.76,505.8,354.66z"/>
		<path class="st1" d="M509.01,363.84c-0.07-0.43-0.14-0.86-0.21-1.29c0.17-0.02,0.34-0.03,0.52-0.05c0.04,0.44,0.1,0.88,0.14,1.31
			C509.31,363.82,509.16,363.83,509.01,363.84z"/>
		<path class="st1" d="M613.92,348.12c0.5-0.25,1.02-0.51,1.52-0.76c0.06,0.09,0.14,0.17,0.2,0.26c-0.49,0.29-0.97,0.57-1.45,0.85
			C614.1,348.36,614.01,348.24,613.92,348.12z"/>
		<path class="st1" d="M493.76,381.48c-0.34-0.19-0.68-0.38-1.03-0.57c0.06-0.09,0.12-0.19,0.18-0.29c0.37,0.14,0.75,0.29,1.12,0.43
			C493.95,381.2,493.86,381.34,493.76,381.48z"/>
		<path class="st1" d="M476.02,357.97c0.39-0.08,0.78-0.15,1.18-0.23c0.04,0.13,0.08,0.25,0.13,0.38c-0.38,0.1-0.76,0.21-1.14,0.31
			C476.12,358.28,476.07,358.13,476.02,357.97z"/>
		<path class="st1" d="M626.84,346.15c-0.39,0.27-0.78,0.55-1.18,0.82c-0.1-0.16-0.21-0.32-0.31-0.48c0.5-0.1,1.01-0.2,1.51-0.31
			L626.84,346.15z"/>
		<path class="st1" d="M622.26,346.77c-0.52,0.21-1.03,0.43-1.54,0.64c-0.07-0.12-0.14-0.24-0.21-0.36
			c0.52-0.19,1.03-0.37,1.54-0.55C622.12,346.58,622.19,346.67,622.26,346.77z"/>
		<path class="st1" d="M497.22,380.36c-0.3,0.13-0.6,0.25-0.9,0.38c-0.06-0.09-0.12-0.18-0.18-0.27c0.27-0.15,0.54-0.31,0.81-0.47
			C497.04,380.12,497.13,380.24,497.22,380.36z"/>
		<path class="st1" d="M508.84,371.23c0-0.32,0-0.64,0-0.96c0.14-0.01,0.27-0.01,0.41-0.01c0.02,0.32,0.04,0.63,0.06,0.95
			C509.16,371.21,509,371.22,508.84,371.23z"/>
		<path class="st1" d="M505.29,376.3c-0.28,0.18-0.45,0.38-0.64,0.38c-0.13,0.01-0.27-0.25-0.41-0.39c0.18-0.1,0.35-0.25,0.55-0.29
			C504.9,375.98,505.06,376.15,505.29,376.3z"/>
		<path class="st1" d="M499.23,379.75c0.32-0.03,0.63-0.05,0.95-0.08c0.02,0.11,0.05,0.22,0.07,0.33c-0.32,0.05-0.65,0.1-0.97,0.16
			C499.26,380.02,499.25,379.89,499.23,379.75z"/>
		<path class="st1" d="M492.69,349.79c-0.36,0.18-0.72,0.36-1.08,0.54c-0.07-0.11-0.12-0.23-0.19-0.35
			c0.36-0.12,0.72-0.24,1.08-0.36C492.58,349.69,492.64,349.74,492.69,349.79z"/>
		<path class="st1" d="M378.05,385.28c0,0.21,0,0.42,0,0.64c-0.09,0-0.19,0-0.28,0c0-0.21,0-0.42,0-0.64
			C377.86,385.28,377.96,385.28,378.05,385.28z"/>
		<path class="st1" d="M374.94,386.09c0.15,0.08,0.26,0.14,0.38,0.2c-0.1,0.11-0.2,0.22-0.3,0.33c-0.1-0.08-0.27-0.14-0.3-0.23
			C374.7,386.31,374.84,386.21,374.94,386.09z"/>
		<path class="st1" d="M489.79,381.01c-0.16-0.06-0.32-0.12-0.08-0.03c-0.19-0.14-0.07-0.05,0.06,0.04L489.79,381.01z"/>
		<path class="st1" d="M489.75,381.02c0.14-0.01,0.28-0.04,0.09-0.01c0.21,0.02,0.08,0-0.06,0L489.75,381.02z"/>
		<path class="st1" d="M492.51,349.64c0.11-0.03,0.21-0.06,0.32-0.09c-0.05,0.08-0.09,0.16-0.14,0.25
			C492.64,349.74,492.58,349.69,492.51,349.64z"/>
		<path class="st1" d="M626.87,346.17c0.01-0.02,0.03-0.04,0.03-0.06c-0.02,0.01-0.04,0.02-0.06,0.03
			C626.84,346.15,626.87,346.17,626.87,346.17z"/>
		<path class="st1" d="M274.2,247.68c0.72,0.21,1.12,0.46,1.5,0.43c14.1-0.92,26.91,2.3,39.04,8.26
			c8.85,4.35,16.05,10.09,21.85,17.14c2.78,3.38,3.98,7.21,3.58,11.39c-0.42,4.4-4.19,8.08-9.72,9.32
			c-7.22,1.62-14.55,1.73-21.94,1.4c-10.31-0.47-18.54-4.59-25.86-10.39c-0.76-0.61-1.39-1.38-2.25-1.85
			c-3.77-2.04-5.42-5.3-7.02-8.59c-0.53-1.09-0.94-2.23-1.5-3.31c-2.44-4.71-2.18-9.5-0.83-14.39c0.56-2,0.66-4.09,0.81-6.15
			c0.04-0.61-0.48-1.25-0.72-1.88c-0.35-0.95-0.4-1.83,0.85-2.4c0.27-0.12,0.54-0.4,0.61-0.65c0.91-3.31,3.75-5.43,6.81-7.1
			c3.95-2.15,8.19-4,12.5-5.61c6.18-2.31,12.77-3.41,19.48-4.07c7.27-0.72,14.55-1.55,21.88-1.26c8.24,0.33,16.45,1.4,23.91,4.45
			c8.13,3.32,13.28,8.78,13.49,16.86c0.07,2.45,0.29,4.92-0.04,7.33c-0.21,1.46-1.05,3.05-2.15,4.21
			c-4.54,4.81-12.65,6.73-19.67,2.98c-7.24-3.87-14.37-7.89-21.77-11.53c-3.93-1.93-8.32-3.18-12.5-4.74
			c-1.86-0.7-3.67-1.51-5.59-2.06c-2.44-0.69-4.92-1.43-7.45-1.65c-5.08-0.46-10.23-0.92-15.32-0.76
			C281.81,243.18,278.03,245.2,274.2,247.68z M273.74,246.47c3.55-2.43,7.53-4.23,12.06-4.64c3.44-0.31,6.99-0.22,10.43,0.1
			c5.25,0.5,10.64,0.73,15.33,3.28c0.86,0.47,1.94,0.64,2.89,0.98c4.3,1.55,8.81,2.77,12.83,4.73c7.33,3.57,14.38,7.54,21.5,11.41
			c5.01,2.72,10.03,3,15.14,0.31c3.48-1.83,5.69-4.31,5.49-7.99c-0.08-1.56-0.05-3.13-0.07-4.69c-0.14-7.69-4.7-13.09-12.54-16.37
			c-6.71-2.82-14.13-3.82-21.52-4.3c-7.26-0.48-14.51,0.23-21.75,0.92c-9.14,0.87-17.92,2.61-26.18,6.1
			c-4.39,1.85-8.64,3.9-11.81,7.18c-0.82,0.84-1.23,1.97-1.83,2.97c-0.03,0.01-0.06,0.02-0.08,0.03
			C273.67,246.49,273.7,246.48,273.74,246.47z M273.04,250.83c-0.48,2.81-0.85,5.41-1.39,7.97c-0.81,3.88-1.05,7.71,0.82,11.45
			c0.81,1.63,1.36,3.37,2.27,4.95c1.07,1.84,2.02,3.94,3.73,5.27c4.2,3.27,8.74,6.25,13.29,9.19c3.58,2.31,7.81,3.62,12.19,4.22
			c8.73,1.18,17.46,1.01,26.08-0.82c4.55-0.96,7.93-3.95,8.55-7.46c0.61-3.42-0.09-6.64-2-9.68c-2.93-4.65-7.11-8.54-11.67-11.95
			c-7.4-5.55-16.07-9.56-25.42-12.25c-6.95-2-14.23-2.83-21.63-2.45c-1.5,0.08-3.12-0.25-4.05,1.22
			C273.66,250.73,273.13,250.79,273.04,250.83z"/>
		<path class="st1" d="M405.81,258.95c-0.85,1.35-1.64,2.74-2.57,4.06c-0.52,0.74-0.42,1.23,0.22,1.87
			c1.21,1.23,2.33,2.53,3.37,3.86c0.27,0.34,0.1,0.92,0.14,1.39c-0.44-0.25-1-0.43-1.31-0.77c-1.19-1.33-2.31-2.72-3.64-4.31
			c-1.01,1.85-1.84,3.45-2.77,5.02c-0.23,0.38-0.76,0.64-1.14,0.95c-0.05-0.48-0.32-1.04-0.12-1.43c0.81-1.54,1.82-3,2.62-4.55
			c0.22-0.43,0.14-1.11-0.1-1.55c-0.59-1.06-1.38-2.05-2.04-3.09c-0.22-0.34-0.28-0.75-0.42-1.13c0.16-0.08,0.32-0.16,0.48-0.24
			c1.06,1.33,2.12,2.65,3.32,4.14c1.24-1.55,2.39-2.98,3.54-4.42C405.53,258.83,405.67,258.89,405.81,258.95z"/>
		<path class="st1" d="M359.78,277.67c-2.71-0.58-5.01-1.03-7.25-1.61c-0.24-0.06-0.46-1.15-0.19-1.44
			c1.29-1.41,2.75-2.72,4.35-4.26C357.71,272.78,358.67,275.05,359.78,277.67z M355.73,272.95c0.12,0.07,0.25,0.13,0.38,0.19
			c0.14-0.29,0.28-0.56,0.41-0.85c-0.1-0.04-0.21-0.08-0.32-0.12C356.05,272.43,355.89,272.69,355.73,272.95z M357.08,274.1
			c-0.12-0.05-0.23-0.11-0.35-0.16c-0.04,0.07-0.13,0.19-0.12,0.21c0.08,0.08,0.2,0.12,0.31,0.17
			C356.97,274.26,357.01,274.2,357.08,274.1z M357.86,276.02l-0.08-0.04l-0.01,0.07L357.86,276.02z"/>
		<path class="st1" d="M261.27,238.72c-0.01,0.16,0.05,0.37-0.05,0.47c-1.66,1.52-0.76,2.85,0.35,4.21c0.24,0.3,0.18,0.79,0.25,1.19
			c-0.47-0.2-1.05-0.32-1.38-0.63c-0.46-0.42-0.73-0.99-1.27-1.77c-0.53,1.05-0.95,1.89-1.43,2.85c-0.72-1-0.72-1.86-0.04-2.67
			c0.63-0.75,0.95-1.43,0.15-2.24c-0.21-0.21-0.15-0.62-0.22-0.94c0.19-0.11,0.39-0.22,0.59-0.32c0.27,0.48,0.54,0.97,0.86,1.54
			c0.83-0.79,1.37-1.3,1.91-1.82C261.08,238.63,261.18,238.67,261.27,238.72z"/>
		<path class="st1" d="M265.06,245.21c-0.09-1.1,0.59-1.23,1.59-0.87c1.29,0.47,2.04,2.18,1.21,3.11c-0.46,0.52-1.39,0.88-2.17,0.99
			c-0.26,0.04-0.96-0.87-1.04-1.39c-0.1-0.6,0.27-1.24,0.44-1.87c0.14,0.91,0.28,1.82,0.44,2.81c1.72-0.64,2.13-1.72,1.11-2.4
			C266.24,245.32,265.59,245.32,265.06,245.21z"/>
		<path class="st1" d="M350.63,288.38c0.89-1.31,1.77-2.63,2.73-4.05C353.72,285.69,352.51,287.69,350.63,288.38z"/>
		<path class="st1" d="M354.16,280.84c0.04-1.16,0.77-1.92,2.28-2.27c-0.61,0.82-1.23,1.63-1.84,2.44
			C354.45,280.95,354.3,280.89,354.16,280.84z"/>
		<path class="st1" d="M346.58,293.08c0.68-0.64,1.36-1.28,2.15-2.01c0.14,1.28-0.18,1.64-1.82,2.26
			C346.8,293.25,346.69,293.17,346.58,293.08z"/>
		<path class="st1" d="M344.52,296c0.17,1.5-0.35,1.99-2.49,2.28C342.96,297.43,343.64,296.81,344.52,296z"/>
		<path class="st1" d="M329.99,306.01c0.94-0.68,1.62-1.17,2.33-1.68C332.37,305.63,331.98,305.96,329.99,306.01z"/>
		<path class="st1" d="M338.87,300.5c0.04,1.33-0.32,1.63-2.17,1.57C337.49,301.5,338.11,301.05,338.87,300.5z"/>
		<path class="st1" d="M212.68,264.98c4.14,6.02,4.4,16.7-4.08,20.91c3.35-2.71,5.11-6.06,5.61-9.89
			C214.7,272.23,214.09,268.57,212.68,264.98z"/>
		<path class="st1" d="M200.6,262.94c0.59,1.47,1.29,2.92,1.78,4.41c1.25,3.84,1.21,7.59-1.47,11.06c-1.05,1.36-2.43,2.39-4.35,2.82
			c7.5-5.16,6.19-11.53,3.48-18.1C200.23,263.06,200.41,263,200.6,262.94z"/>
		<path class="st1" d="M185.71,275.63c2.98-2.95,4.2-6.02,1.93-9.61c1.67,0.65,2.5,2.82,2.07,5.24
			C189.38,273.16,188.16,275.43,185.71,275.63z"/>
		<path class="st1" d="M180.87,234.86c0.61-2.03,1.19-4.06,1.84-6.08c1.01-3.14,2-6.27,2.04-9.55c0.04-4.3-1.75-8.18-3.86-11.97
			c-0.93-1.67-2.05-3.27-3.04-4.92c-0.49-0.83-0.86-1.72-1.32-2.65c0.41-0.03,0.57-0.07,0.58-0.05c2.44,4.09,5.11,8.09,7.24,12.3
			c2.61,5.15,2.07,10.48,0.11,15.72c-0.92,2.47-2.02,4.9-3.03,7.34C181.23,234.96,181.05,234.91,180.87,234.86z"/>
		<path class="st1" d="M160.27,214.47c1.8-0.02,3.08,0.99,3.09,2.44c0.03,2.2-0.98,3-3.76,2.97c-1.14-0.01-2.08-1.32-2.15-3
			C157.39,215.4,158.46,214.49,160.27,214.47z"/>
		<path class="st1" d="M190.63,202.07c0.58,0.08,0.67,0.08,0.67,0.1c0.76,4.57,4.03,8.31,5.71,12.58c1.3,3.32,1.79,6.71,0.78,10.09
			c-0.56,1.86-1.83,3.57-2.78,5.35c-0.17-0.06-0.34-0.13-0.52-0.19c0.1-0.23,0.15-0.49,0.3-0.69c3.3-4.53,3.04-9.36,1.3-14.17
			c-1-2.77-2.64-5.37-3.84-8.09C191.57,205.49,191.2,203.84,190.63,202.07z"/>
		<path class="st1" d="M204.14,306.46c2.28,2.51,4.92,4.86,5.16,8.12c0.16,2.06-0.25,4.17-0.61,6.24c-0.19,1.05-1.05,1.88-2.58,2.32
			c1.92-2.8,2.67-5.76,1.84-8.64C207.14,311.72,205.45,309.13,204.14,306.46z"/>
		<path class="st1" d="M198.15,321.6c0.91-3.91,1.16-7.41-1.65-10.67c1.46,0.36,2.74,1.96,3.02,3.96
			C199.84,317.09,200.32,319.38,198.15,321.6z"/>
		<path class="st1" d="M214.51,316.97c1.42-2.17,1.91-4.41,0.57-6.74c-0.32-0.55-0.76-1.05-1.14-1.57c1.14,0.12,2.18,1.12,2.69,2.6
			c0.78,2.26,0.04,4.36-2.03,5.77L214.51,316.97z"/>
		<path class="st1" d="M214.59,317.04c-0.06,0.02-0.12,0.05-0.18,0.07c0.03-0.05,0.06-0.09,0.1-0.14
			C214.51,316.97,214.59,317.04,214.59,317.04z"/>
		<path class="st1" d="M380.38,364.88c0.43,0.45,0.86,0.9,1.29,1.34c-0.15,0.1-0.3,0.21-0.45,0.32c-0.44-0.44-0.88-0.88-1.32-1.32
			C380.05,365.1,380.21,364.99,380.38,364.88z"/>
		<path class="st1" d="M384.62,376.59c-0.27-0.18-0.54-0.36-0.8-0.55c-0.01-0.01,0.28-0.35,0.3-0.33c0.29,0.14,0.55,0.31,0.83,0.47
			C384.85,376.31,384.74,376.46,384.62,376.59z"/>
		<path class="st1" d="M382.77,381.09c0.08,0.26,0.18,0.53,0.23,0.8c0.01,0.02-0.45,0.13-0.47,0.12c-0.13-0.26-0.23-0.53-0.33-0.8
			C382.4,381.18,382.59,381.13,382.77,381.09z"/>
		<path class="st1" d="M383.35,372.69c0.37,0.19,0.74,0.37,1.1,0.55c-0.08,0.12-0.15,0.24-0.23,0.36c-0.37-0.15-0.74-0.3-1.1-0.45
			C383.2,373,383.28,372.84,383.35,372.69z"/>
		<path class="st1" d="M382.25,369.1c0.26,0.2,0.51,0.39,0.77,0.59c-0.1,0.09-0.19,0.18-0.28,0.27c-0.26-0.19-0.53-0.37-0.79-0.56
			C382.04,369.3,382.15,369.2,382.25,369.1z"/>
		<path class="st1" d="M384.72,379.44c-0.12,0.08-0.27,0.21-0.3,0.19c-0.13-0.07-0.21-0.19-0.32-0.29c0.14-0.07,0.28-0.14,0.41-0.21
			C384.58,379.23,384.64,379.32,384.72,379.44z"/>
		<path class="st1" d="M352.14,378.36c-1.17-0.24-1.6-0.69-0.65-1.81C351.76,377.31,351.95,377.84,352.14,378.36z"/>
		<path class="st1" d="M351.98,368.85c0.14,0.5,0.28,0.99,0.48,1.74c-0.52-0.13-1.19-0.22-1.19-0.29c0.02-0.5,0.18-1,0.29-1.5
			C351.71,368.82,351.84,368.84,351.98,368.85z"/>
		<path class="st1" d="M351.65,372.67c0.09,0.52,0.16,0.93,0.25,1.44C350.63,373.56,350.61,373.5,351.65,372.67z"/>
		<path class="st1" d="M353.17,381.07c-0.37-0.36-0.73-0.72-1.1-1.09c0.14-0.1,0.28-0.2,0.43-0.3c0.36,0.35,0.72,0.7,1.07,1.05
			C353.43,380.84,353.3,380.95,353.17,381.07z"/>
		<path class="st1" d="M354.46,366.15c-0.3,0.23-0.47,0.44-0.7,0.51c-0.1,0.03-0.32-0.22-0.48-0.34c0.17-0.16,0.32-0.38,0.54-0.47
			C353.92,365.82,354.17,366.01,354.46,366.15z"/>
		<path class="st1" d="M279.09,263.19c3.53,4.31,7.09,8.72,12.17,11.74c5.38,3.2,10.96,6.47,17.68,7.33
			c3.71,0.48,7.54,0.33,11.32,0.41c2.24,0.05,4.48-0.03,6.72,0.02c0.39,0.01,0.77,0.36,1.15,0.55c-0.36,0.19-0.73,0.56-1.09,0.56
			c-6.07-0.07-12.16,0.02-18.2-0.39c-2.57-0.18-5.15-1.24-7.53-2.24c-3.25-1.36-6.32-3.03-9.44-4.61c-3.5-1.77-5.92-4.51-8.48-7.08
			c-1.98-2-3.73-4.17-5.43-6.35c-0.74-0.95-1.09-2.12-1.62-3.19c0.15-0.05,0.3-0.1,0.45-0.16c0.77,1.13,1.54,2.27,2.3,3.41
			L279.09,263.19z"/>
		<path class="st1" d="M279.11,263.21c2.09-0.48,4.16-1.2,6.29-1.39c4.29-0.38,8.66-0.88,12.92-0.57c4.42,0.32,8.48,1.92,11.69,4.8
			c4.67,4.19,7.46,9.12,8.35,14.81c0.06,0.36-0.22,0.75-0.34,1.13c-0.23-0.32-0.6-0.62-0.67-0.97c-1.07-5.54-3.82-10.39-8.48-14.37
			c-3.59-3.08-8.09-4.66-13.16-4.52c-4.66,0.13-9.3,0.72-13.95,1.08c-0.88,0.07-1.78-0.01-2.67-0.02
			C279.09,263.19,279.11,263.21,279.11,263.21z"/>
		<path class="st1" d="M345.7,234.53c0.6,1.08,1.25,2.14,1.76,3.25c1.83,3.92,3.22,7.9,1.68,12.16c-0.75,2.06-2.33,3.51-4.51,4.4
			c1.07-1.56,2.37-3.04,3.14-4.7c1.14-2.46,0.93-5.07,0.16-7.59c-0.65-2.12-1.48-4.19-2.22-6.28c-0.14-0.37-0.26-0.75-0.38-1.12
			C345.45,234.61,345.58,234.57,345.7,234.53z"/>
		<path class="st1" d="M361.73,241.66c3.52,6.7-0.25,15.81-6.65,18.54C360.78,254.82,363.34,248.78,361.73,241.66z"/>
		<path class="st1" d="M322.92,247.21c4.05-4.54,3.46-9.18,1.41-14c0.23,0.23,0.5,0.44,0.67,0.7c2.41,3.67,2.86,7.47,0.86,11.38
			C325.35,246.25,324.56,247.01,322.92,247.21z"/>
		<path class="st1" d="M309.27,240.11c-0.06-1.95,2.4-4.01-0.44-5.75c1-0.38,1.82-0.06,2.29,0.83
			C312.02,236.88,311.12,239.35,309.27,240.11z"/>
	</g>
</g>
</svg>
