<svg width="40" height="40" viewBox="0 0 40 40" fill="none" xmlns="http://www.w3.org/2000/svg">
<g clip-path="url(#clip0)">
<path d="M35.2578 13.6753H18.5234C18.2322 13.6753 17.9961 13.9114 17.9961 14.2026C17.9961 14.4939 18.2322 14.73 18.5234 14.73H35.2578C35.5491 14.73 35.7852 14.4939 35.7852 14.2026C35.7852 13.9114 35.5491 13.6753 35.2578 13.6753Z" fill="#F5F5F7"/>
<path d="M35.2578 17.7065H18.5234C18.2322 17.7065 17.9961 17.9427 17.9961 18.2339C17.9961 18.5251 18.2322 18.7612 18.5234 18.7612H35.2578C35.5491 18.7612 35.7852 18.5251 35.7852 18.2339C35.7852 17.9427 35.5491 17.7065 35.2578 17.7065Z" fill="#F5F5F7"/>
<path d="M35.2578 21.7373H18.5234C18.2322 21.7373 17.9961 21.9734 17.9961 22.2646C17.9961 22.5559 18.2322 22.792 18.5234 22.792H35.2578C35.5491 22.792 35.7852 22.5559 35.7852 22.2646C35.7852 21.9734 35.5491 21.7373 35.2578 21.7373Z" fill="#F5F5F7"/>
<path d="M36.9329 9.06299H16.8484C15.1572 9.06299 13.7812 10.4389 13.7812 12.1302V24.7595C13.7812 26.4507 15.1571 27.8267 16.8484 27.8267H30.9258C31.0763 27.8267 31.2162 27.8944 31.3095 28.0126L35.8556 33.7679C36.0347 33.9947 36.2962 34.1183 36.5699 34.1183C36.6716 34.1183 36.7751 34.1012 36.8767 34.0659C37.2512 33.9358 37.4932 33.5956 37.4932 33.1991V27.7743C38.9153 27.5086 40.0001 26.2514 40.0001 24.7595V12.1301C40.0001 10.4389 38.6242 9.06299 36.9329 9.06299ZM38.9454 24.7595C38.9454 25.8547 38.0543 26.7572 36.9591 26.7711C36.6705 26.7749 36.4385 27.0098 36.4385 27.2985V32.8043L32.1372 27.3588C31.8426 26.9858 31.4011 26.7719 30.9258 26.7719H16.8484C15.7387 26.7719 14.8359 25.8691 14.8359 24.7594V12.1301C14.8359 11.0204 15.7387 10.1176 16.8484 10.1176H36.9329C38.0426 10.1176 38.9454 11.0204 38.9454 12.1301V24.7595Z" fill="#F5F5F7"/>
<path d="M11.7691 17.7827C11.4084 17.8339 11.0854 18.0196 10.8595 18.3055L7.23698 22.8917V18.2953C7.23698 18.0066 7.00495 17.7717 6.71638 17.7679C5.80014 17.7563 5.05469 17.0013 5.05469 16.085V5.09086C5.05469 4.16252 5.80998 3.40723 6.73832 3.40723H24.2224C25.1508 3.40723 25.9061 4.16252 25.9061 5.09086V7.12514C25.9061 7.41638 26.1422 7.65249 26.4334 7.65249C26.7247 7.65249 26.9608 7.41638 26.9608 7.12514V5.09086C26.9608 3.58097 25.7323 2.35254 24.2224 2.35254H6.73832C5.22843 2.35254 4 3.58097 4 5.09086V16.085C4 17.3975 4.94015 18.5064 6.18236 18.7656V23.432C6.18236 23.8066 6.41102 24.1281 6.76497 24.251C6.86095 24.2843 6.95868 24.3005 7.05487 24.3005C7.31341 24.3005 7.56056 24.1837 7.7298 23.9694L11.6873 18.9592C11.7444 18.8869 11.8261 18.8399 11.9174 18.8269C12.2058 18.786 12.4064 18.519 12.3654 18.2307C12.3244 17.9423 12.0579 17.7416 11.7691 17.7827Z" fill="#F5F5F7"/>
</g>
<defs>
<clipPath id="clip0">
<rect width="40" height="40" fill="white"/>
</clipPath>
</defs>
</svg>
