<svg width="45" height="45" viewBox="0 0 45 45" fill="none" xmlns="http://www.w3.org/2000/svg">
<path d="M37.9688 7.38281H7.03125C6.3788 7.38356 5.75328 7.64307 5.29193 8.10443C4.83057 8.56578 4.57106 9.1913 4.57031 9.84375V35.1564C4.57031 35.4796 4.63397 35.7996 4.75766 36.0982C4.88135 36.3968 5.06264 36.6681 5.29118 36.8966C5.51972 37.1251 5.79103 37.3063 6.08963 37.43C6.38822 37.5536 6.70824 37.6172 7.03143 37.6172L9.38514 37.617C9.58458 37.6169 9.77992 37.5603 9.94849 37.4537C10.1171 37.3472 10.252 37.1949 10.3375 37.0148C11.0509 35.5119 12.176 34.2423 13.5821 33.3532C14.9882 32.4642 16.6177 31.9923 18.2812 31.9923C19.9448 31.9923 21.5743 32.4642 22.9804 33.3532C24.3865 34.2423 25.5116 35.5119 26.225 37.0148C26.3105 37.195 26.4455 37.3473 26.6141 37.4539C26.7828 37.5605 26.9782 37.6171 27.1777 37.617L37.9688 37.6172C38.6212 37.6164 39.2467 37.3569 39.7081 36.8956C40.1694 36.4342 40.4289 35.8087 40.4297 35.1562V9.84375C40.4289 9.1913 40.1694 8.56578 39.7081 8.10443C39.2467 7.64307 38.6212 7.38356 37.9688 7.38281ZM13.7109 25.3125C13.7109 24.4086 13.979 23.525 14.4812 22.7734C14.9834 22.0218 15.6972 21.436 16.5323 21.0901C17.3674 20.7442 18.2863 20.6537 19.1729 20.83C20.0594 21.0064 20.8738 21.4416 21.5129 22.0808C22.1521 22.72 22.5874 23.5343 22.7637 24.4209C22.9401 25.3074 22.8496 26.2264 22.5037 27.0615C22.1578 27.8966 21.572 28.6104 20.8204 29.1126C20.0688 29.6148 19.1852 29.8828 18.2812 29.8828C17.0696 29.8814 15.9079 29.3995 15.0511 28.5427C14.1943 27.6859 13.7123 26.5242 13.7109 25.3125ZM38.3203 35.1562C38.3202 35.2495 38.2831 35.3388 38.2172 35.4047C38.1513 35.4707 38.062 35.5077 37.9688 35.5078L27.8207 35.5076C26.5904 33.3006 24.6357 31.5862 22.2871 30.6543C23.4092 29.8134 24.2382 28.6408 24.6566 27.3025C25.0751 25.9643 25.0618 24.5282 24.6186 23.1979C24.1755 21.8677 23.3249 20.7105 22.1875 19.8906C21.0501 19.0706 19.6835 18.6294 18.2813 18.6294C16.8792 18.6294 15.5126 19.0706 14.3751 19.8906C13.2377 20.7105 12.3872 21.8677 11.944 23.1979C11.5009 24.5282 11.4876 25.9643 11.9061 27.3025C12.3245 28.6408 13.1535 29.8134 14.2755 30.6543C11.927 31.5863 9.97226 33.3007 8.74195 35.5076L7.03107 35.5078C6.9379 35.5078 6.84855 35.4707 6.78266 35.4048C6.71677 35.339 6.67973 35.2496 6.67969 35.1564V9.84375C6.67978 9.75054 6.71685 9.66117 6.78276 9.59526C6.84867 9.52935 6.93804 9.49228 7.03125 9.49219H37.9688C38.062 9.49228 38.1513 9.52935 38.2172 9.59526C38.2831 9.66117 38.3202 9.75054 38.3203 9.84375V35.1562ZM34.8047 14.0625V30.9375C34.8047 31.2172 34.6936 31.4855 34.4958 31.6833C34.298 31.8811 34.0297 31.9922 33.75 31.9922H30.9375C30.6578 31.9922 30.3895 31.8811 30.1917 31.6833C29.9939 31.4855 29.8828 31.2172 29.8828 30.9375C29.8828 30.6578 29.9939 30.3895 30.1917 30.1917C30.3895 29.9939 30.6578 29.8828 30.9375 29.8828H32.6953V15.1172H12.3047V16.875C12.3047 17.1547 12.1936 17.423 11.9958 17.6208C11.798 17.8186 11.5297 17.9297 11.25 17.9297C10.9703 17.9297 10.702 17.8186 10.5042 17.6208C10.3064 17.423 10.1953 17.1547 10.1953 16.875V14.0625C10.1953 13.7828 10.3064 13.5145 10.5042 13.3167C10.702 13.1189 10.9703 13.0078 11.25 13.0078H33.75C34.0297 13.0078 34.298 13.1189 34.4958 13.3167C34.6936 13.5145 34.8047 13.7828 34.8047 14.0625Z" fill="#F5F5F7"/>
</svg>
